<?xml version="1.0" encoding="UTF-8"?><svg id="b" xmlns="http://www.w3.org/2000/svg" width="400" height="120" viewBox="0 0 400 120"><g><path d="M86.07,92.21H48.88c-7.49,0-13.62-6.13-13.62-13.62V41.41c0-7.49,6.13-13.62,13.62-13.62h37.18c7.49,0,13.62,6.13,13.62,13.62v37.18c0,7.49-6.13,13.62-13.62,13.62Z" fill="#ff2b85"/><path d="M58.54,52.51c-.7,0-1.27,.57-1.27,1.27s.57,1.27,1.27,1.27,1.27-.57,1.27-1.27-.57-1.27-1.27-1.27Zm0,0c-.7,0-1.27,.57-1.27,1.27s.57,1.27,1.27,1.27,1.27-.57,1.27-1.27-.57-1.27-1.27-1.27Zm0,0c-.7,0-1.27,.57-1.27,1.27s.57,1.27,1.27,1.27,1.27-.57,1.27-1.27-.57-1.27-1.27-1.27Zm18.15,0c-.7,0-1.27,.57-1.27,1.27s.57,1.27,1.27,1.27,1.27-.57,1.27-1.27-.57-1.27-1.27-1.27Zm0,0c-.7,0-1.27,.57-1.27,1.27s.57,1.27,1.27,1.27,1.27-.57,1.27-1.27-.57-1.27-1.27-1.27Zm-18.15,0c-.7,0-1.27,.57-1.27,1.27s.57,1.27,1.27,1.27,1.27-.57,1.27-1.27-.57-1.27-1.27-1.27Zm33.15,6.37c-.01-.33-.03-.65-.07-.98-.01-.08-.01-.14-.02-.22-.04-.38-.09-.74-.14-1.12-.08-.48-.17-.95-.27-1.43-.07-.31-.14-.62-.22-.93-.1-.39-.21-.77-.32-1.14h0c-.12-.39-.26-.77-.39-1.13-.13-.37-.28-.73-.43-1.1-.3-.73-.64-1.43-1.02-2.12-.37-.69-.78-1.35-1.21-2,.04-.03,.09-.08,.12-.12,.11-.09,.2-.18,.3-.29h.01c.04-.06,.09-.1,.12-.14,.1-.11,.2-.22,.29-.34,.04-.04,.08-.1,.11-.14,.11-.14,.21-.29,.3-.44,.02-.03,.03-.06,.06-.08,.01-.02,.02-.03,.03-.06,.01-.01,.01-.03,.02-.04,.08-.16,.17-.31,.23-.47,.1-.2,.19-.41,.26-.63,.03-.08,.06-.17,.08-.26,.02-.08,.04-.16,.07-.24,.02-.1,.06-.19,.07-.29,.03-.16,.07-.32,.08-.49,.01-.02,.01-.06,.01-.08,.01-.07,.01-.12,.02-.19,.01-.17,.02-.34,.02-.52,0-3.53-2.86-6.39-6.41-6.39-.2,0-.4,.01-.6,.03-.08,.01-.17,.01-.24,.03-.17,.01-.32,.04-.48,.08-.19,.03-.39,.09-.57,.14-.04,.01-.09,.02-.12,.03-.17,.06-.31,.11-.47,.18-.01,0-.02,.01-.03,.01-.19,.08-.37,.17-.53,.27-.16,.08-.3,.17-.44,.27-.04,.02-.08,.04-.11,.08-.13,.09-.28,.19-.4,.3-.04,.02-.1,.06-.14,.12-.12,.09-.23,.19-.33,.29-.06,.04-.1,.1-.13,.14h-.01c-.11,.12-.21,.23-.31,.36-.13,.16-.26,.32-.37,.49-.03,.03-.06,.07-.08,.1-.37-.18-.73-.34-1.1-.49-.37-.16-.73-.3-1.11-.43-.23-.09-.48-.18-.72-.24-.21-.09-.42-.16-.63-.21-.21-.07-.42-.12-.64-.18-.16-.04-.3-.09-.46-.12-.21-.06-.42-.1-.63-.14-.3-.08-.6-.13-.91-.19-.1-.02-.21-.04-.32-.06-.28-.04-.57-.09-.85-.12-.17-.03-.33-.04-.5-.07-.38-.04-.75-.08-1.14-.09-.04-.01-.09-.01-.12-.01-.47-.03-.92-.04-1.39-.04s-.92,.01-1.39,.04c-.03,0-.08,0-.12,.01-.39,.01-.77,.04-1.14,.09-.17,.02-.33,.03-.5,.07-.29,.03-.58,.08-.85,.12-.11,.01-.22,.03-.32,.06-.3,.06-.61,.11-.9,.19-.22,.03-.43,.09-.64,.14-.16,.03-.3,.08-.46,.12-.22,.06-.43,.11-.64,.18-.21,.06-.42,.12-.63,.21-.24,.07-.49,.16-.72,.24-.38,.13-.74,.28-1.11,.43-.37,.14-.73,.31-1.1,.49-.02-.03-.04-.07-.08-.1-.11-.17-.23-.33-.37-.49-.1-.12-.2-.23-.31-.34h-.01c-.03-.06-.08-.11-.13-.16-.1-.1-.21-.2-.33-.29-.04-.07-.1-.1-.14-.12-.12-.11-.27-.21-.4-.3-.03-.03-.07-.06-.11-.08-.14-.1-.29-.19-.44-.27-.17-.1-.34-.19-.53-.27-.01,0-.02-.01-.03-.01-.16-.07-.3-.12-.47-.18-.03-.01-.08-.02-.12-.03-.18-.06-.38-.11-.57-.14-.16-.03-.31-.07-.48-.08-.08-.02-.17-.02-.24-.03-.2-.02-.4-.03-.6-.03-3.54,0-6.41,2.86-6.41,6.39,0,.18,.01,.36,.02,.52,.01,.07,.01,.12,.02,.19,0,.02,0,.06,.01,.08,.01,.17,.04,.33,.08,.49,.01,.1,.04,.19,.07,.29,.02,.09,.04,.17,.07,.24,.02,.09,.04,.18,.08,.26,.07,.22,.16,.43,.26,.63,.07,.16,.16,.31,.23,.47,.01,.01,.01,.03,.02,.04,.01,.02,.02,.03,.03,.06,.02,.02,.03,.04,.06,.08,.09,.16,.19,.3,.3,.44,.03,.04,.07,.1,.11,.14,.09,.12,.19,.23,.29,.34,.03,.04,.08,.09,.12,.13h.01c.1,.12,.19,.21,.3,.3,.03,.04,.08,.09,.12,.12-.43,.64-.84,1.31-1.21,2-.38,.69-.72,1.39-1.02,2.12-.16,.37-.3,.73-.43,1.1-.13,.37-.27,.74-.39,1.12h0c-.11,.39-.22,.77-.32,1.15-.08,.31-.16,.62-.22,.93-.1,.48-.19,.95-.27,1.43-.06,.38-.1,.74-.14,1.12-.01,.08-.01,.14-.02,.22-.03,.32-.06,.64-.07,.98-.03,.46-.04,.92-.04,1.38,0,4.61,1.29,8.92,3.52,12.58,.17,.27,.33,.54,.51,.81,.22,.33,.44,.66,.68,.98,.48,.63,.97,1.24,1.5,1.83,.27,.29,.53,.58,.81,.85,.43,.44,.89,.87,1.37,1.29,.24,.21,.49,.41,.73,.61,1.72,1.38,3.64,2.53,5.7,3.4h.01c.72,.31,1.47,.59,2.22,.82,2.28,.71,4.71,1.09,7.22,1.09s4.94-.38,7.22-1.09c.76-.23,1.5-.51,2.22-.82h.01c2.05-.87,3.97-2.02,5.7-3.4,.24-.2,.49-.4,.73-.61,.48-.42,.93-.84,1.37-1.29,.28-.28,.54-.57,.81-.85,.53-.59,1.02-1.2,1.5-1.83,.23-.32,.46-.64,.68-.98,.18-.27,.34-.54,.51-.81,2.23-3.66,3.52-7.97,3.52-12.58,0-.46-.01-.92-.04-1.38Zm-24.27,1.84c1.1,0,4.21,.2,4.21,1.2,0,1.81-3.84,3.11-4.21,3.01-.37,.1-4.22-1.2-4.22-3.01,0-1,3.12-1.2,4.22-1.2Zm-14.11-10.97c2.11-1.4,6.77-2.22,8.6,.19,0,0,2.31,2.46,.04,5.04-2.25,2.58-4.02,4.97-4.54,7.06-.52,2.09-1.35,2.94-3.03,2.95-1.68,.01-4.93-2.58-5.33-6.71-.41-4.13,2.15-7.15,4.25-8.54Zm20.07,16.68c0,2.9-2.68,5.24-5.96,5.24s-5.96-2.34-5.96-5.24h11.92Zm7.07-1.43c-1.68-.01-2.51-.87-3.03-2.95-.52-2.09-2.29-4.49-4.54-7.06-2.26-2.58,.04-5.04,.04-5.04,1.83-2.41,6.49-1.59,8.6-.19,2.1,1.39,4.66,4.41,4.25,8.54-.4,4.13-3.65,6.72-5.33,6.71Zm2.93-27.64c2.51,0,4.53,2.02,4.53,4.52,0,1.31-.56,2.48-1.44,3.31-.09-.12-.19-.23-.29-.34-.24-.3-.5-.59-.77-.88-.26-.29-.52-.57-.8-.84s-.56-.54-.84-.8c-.29-.27-.58-.52-.88-.77-.3-.26-.61-.49-.92-.72-.29-.22-.58-.43-.88-.63-.03-.03-.07-.06-.1-.07-.3-.21-.61-.4-.92-.59-.13-.09-.27-.17-.4-.24,.82-1.18,2.18-1.94,3.71-1.94Zm-36.35,4.52c0-2.5,2.02-4.52,4.53-4.52,1.53,0,2.89,.77,3.71,1.94-.13,.08-.27,.16-.4,.24-.31,.19-.62,.38-.92,.59-.03,.01-.07,.03-.1,.07-.3,.2-.59,.41-.88,.63-.31,.23-.62,.47-.92,.72-.3,.24-.59,.5-.88,.77-.29,.26-.57,.52-.84,.8s-.54,.56-.8,.84c-.27,.29-.52,.58-.77,.88-.1,.11-.2,.22-.29,.34-.89-.83-1.44-2-1.44-3.31Zm29.65,10.64c-.7,0-1.27,.57-1.27,1.27s.57,1.27,1.27,1.27,1.27-.57,1.27-1.27-.57-1.27-1.27-1.27Zm-18.15,2.53c.7,0,1.27-.57,1.27-1.27s-.57-1.27-1.27-1.27-1.27,.57-1.27,1.27,.57,1.27,1.27,1.27Zm18.15-2.53c-.7,0-1.27,.57-1.27,1.27s.57,1.27,1.27,1.27,1.27-.57,1.27-1.27-.57-1.27-1.27-1.27Zm-18.15,0c-.7,0-1.27,.57-1.27,1.27s.57,1.27,1.27,1.27,1.27-.57,1.27-1.27-.57-1.27-1.27-1.27Zm18.15,0c-.7,0-1.27,.57-1.27,1.27s.57,1.27,1.27,1.27,1.27-.57,1.27-1.27-.57-1.27-1.27-1.27Zm-18.15,0c-.7,0-1.27,.57-1.27,1.27s.57,1.27,1.27,1.27,1.27-.57,1.27-1.27-.57-1.27-1.27-1.27Z" fill="#fff"/></g><g><path d="M115.66,53.2h4.56v-4.23c0-5.13,2.85-8.56,8.56-8.56l2.85,.57v5.13l-3.14-.57c-1.71,0-2.57,1.14-2.57,2.85v4.8h5.7v5.13h-5.7v21.68h-5.71v-21.68h-4.56v-5.13Z" fill="#ff2b85"/><path d="M146.43,52.63c7.42,0,13.98,5.7,13.98,13.98s-6.56,13.98-13.98,13.98-13.98-5.7-13.98-13.98,6.56-13.98,13.98-13.98Zm0,22.82c5.42,0,8.27-3.99,8.27-8.84s-2.85-8.84-8.27-8.84-8.27,3.99-8.27,8.84,2.85,8.84,8.27,8.84Z" fill="#ff2b85"/><path d="M176.9,52.63c7.42,0,13.98,5.7,13.98,13.98s-6.56,13.98-13.98,13.98-13.98-5.7-13.98-13.98,6.56-13.98,13.98-13.98Zm0,22.82c5.42,0,8.27-3.99,8.27-8.84s-2.85-8.84-8.27-8.84-8.27,3.99-8.27,8.84,2.85,8.84,8.27,8.84Z" fill="#ff2b85"/><path d="M220.78,80.01h-5.13l-.57-2.28-.29-.29-.29,.29c-1.71,1.71-4.56,2.85-7.42,2.85-7.42,0-13.69-5.7-13.69-13.98s6.28-13.98,13.69-13.98c2.8,0,5.7,1.14,7.42,2.85l.29,.29,.29-.29v-15.07h5.7v39.6Zm-13.41-22.25c-5.42,0-8.33,3.99-8.33,8.84s2.91,8.84,8.33,8.84c4.85,0,8.27-3.99,8.27-8.84s-3.42-8.84-8.27-8.84Z" fill="#ff2b85"/><path d="M226.5,53.2h5.13l.51,2.28,.34,.29,.29-.29c1.71-1.71,4.56-2.85,7.42-2.85,7.42,0,13.69,5.7,13.69,13.98s-6.28,13.98-13.69,13.98c-2.8,0-5.7-1.14-7.42-2.85l-.29-.29-.34,.29v14.38h-5.65V53.2Zm13.41,22.25c5.42,0,8.27-3.99,8.27-8.84s-2.85-8.84-8.27-8.84c-4.85,0-8.27,3.99-8.27,8.84s3.42,8.84,8.27,8.84Z" fill="#ff2b85"/><path d="M268.26,63.36h4.67v-1.18c0-3.22-2.2-4.73-5.26-4.73-2.47,0-4.14,1.18-5.05,3.6l-5.1-1.07c1.13-4.56,5.05-7.46,10.2-7.46,7.2,0,10.79,3.54,10.79,10.69v16.81h-4.73l-.54-3.54c-1.88,2.63-4.67,3.97-8.38,3.97-4.78,0-8.32-2.85-8.32-8.22s4.67-8.86,11.71-8.86Zm-2.42,12.14c1.88,0,3.54-.59,4.94-1.77,1.45-1.24,2.15-2.9,2.15-5.1v-.59h-4.89c-3.44,0-5.58,1.61-5.58,4.19,0,1.93,1.18,3.28,3.38,3.28Z" fill="#ff2b85"/><path d="M283.78,53.2h5.13l.57,2.28,.29,.29,.28-.29c1.14-1.71,3.99-2.85,6.28-2.85,6.85,0,10.84,4.56,10.84,10.84v16.54h-5.71v-16.54c-.17-3.65-1.94-5.71-5.7-5.71-3.37,0-6.16,2.74-6.28,6.05v16.2h-5.7v-26.81Z" fill="#ff2b85"/><path d="M338.23,80.01h-5.13l-.57-2.28-.29-.29-.29,.29c-1.71,1.71-4.56,2.85-7.42,2.85-7.42,0-13.69-5.7-13.69-13.98s6.28-13.98,13.69-13.98c2.8,0,5.7,1.14,7.42,2.85l.29,.29,.29-.29v-15.07h5.7v39.6Zm-13.41-22.25c-5.42,0-8.33,3.99-8.33,8.84s2.91,8.84,8.33,8.84c4.85,0,8.27-3.99,8.27-8.84s-3.42-8.84-8.27-8.84Z" fill="#ff2b85"/><path d="M354.48,63.36h4.67v-1.18c0-3.22-2.2-4.73-5.26-4.73-2.47,0-4.14,1.18-5.05,3.6l-5.1-1.07c1.13-4.56,5.05-7.46,10.2-7.46,7.2,0,10.79,3.54,10.79,10.69v16.81h-4.73l-.54-3.54c-1.88,2.63-4.67,3.97-8.38,3.97-4.78,0-8.32-2.85-8.32-8.22s4.67-8.86,11.71-8.86Zm-2.42,12.14c1.88,0,3.54-.59,4.94-1.77,1.45-1.24,2.15-2.9,2.15-5.1v-.59h-4.89c-3.44,0-5.58,1.61-5.58,4.19,0,1.93,1.18,3.28,3.38,3.28Z" fill="#ff2b85"/></g></svg>