<svg xmlns="http://www.w3.org/2000/svg" width="231.95mm" height="66.41mm" viewBox="0 0 657.5 188.24">
  <g>
    <path d="M130.71,142.12c-6.57-2.45-16-9.75-21.43-16.42-7-8-23.84-30.66-23.84-30.66C76.79,83.89,65.22,65.34,53.77,56v74.17H64V92.73c7.19,9.18,15.61,20.9,21.92,28.31,2.79,3.32,10,11.1,12,12.81,13.16,12.82,37.31,18.58,57.46,11.54v-.71A43.72,43.72,0,0,1,130.71,142.12Z" fill="#1d1d1b"/>
    <path d="M183.72,66.06l.05-8.09H134.23v72.35h49.54l-.05-8.09c-9.5.23-21.41,1.74-31.18.78V97a186.26,186.26,0,0,1,24.88.4V88.85a142.83,142.83,0,0,1-24.88.38V65.33C162.31,64.32,174.22,65.88,183.72,66.06Z" fill="#1d1d1b"/>
    <path d="M284.49,58H248.27v72.35h18.34V103.81s26.18,1.43,33.57-8.34c5.51-6.3,5.82-16.35,3.55-24.13C300.72,62.5,294.13,58,284.49,58Zm2.07,32.59c-4.3,5.06-13.76,5-20.05,4.56l.06-29s16.3-2.28,20.6,5.13C289.65,75.67,290.24,85.64,286.56,90.56Z" fill="#1d1d1b"/>
    <path d="M68.42,62.32c7,8,23.84,30.66,23.84,30.66,8.66,11.16,20.22,29.7,31.67,39.05V57.86H113.71V95.29C106.52,86.11,98.09,74.39,91.78,67c-2.78-3.32-10-11.09-12-12.81C66.63,41.35,42.49,35.59,22.34,42.63v.71A43.69,43.69,0,0,1,47,45.9C53.57,48.35,63,55.65,68.42,62.32Z" fill="#1d1d1b"/>
    <path d="M235,95.16c-8.37-7.25-18.54-9.52-25.7-14.44-5-3.87-4.26-8.88-1.71-11.59,6-6.72,18.61-3.55,21.53-2.87,3.71,1.09,5.7,2.26,9.24,3.84V61c-15-4.37-39-8.54-48.49,6.56-3.48,6.21-4.38,17.48,5.64,24,10.1,8,26.67,11.87,28.74,18.35,1.27,3.54-.26,6.94-2.64,9.34-9,8.32-23.35,3.1-32.64-1l0,9c10,4.52,22.77,5.67,34.06,3.24,7.74-1.73,16.41-8.54,17.8-17S240.42,99.8,235,95.16Z" fill="#1d1d1b"/>
    <path d="M536.81,95.16c-8.34-7.25-18.52-9.52-25.64-14.44-5.05-3.87-4.3-8.88-1.76-11.59,6-6.72,18.59-3.55,21.53-2.87,3.72,1.09,5.73,2.26,9.26,3.84V61c-15-4.37-39-8.54-48.5,6.56-3.51,6.21-4.42,17.48,5.64,24,10.13,8,26.7,11.87,28.71,18.35,1.31,3.54-.19,6.94-2.65,9.34-8.93,8.32-23.33,3.1-32.58-1l-.07,9c10.09,4.52,22.79,5.67,34.09,3.24,7.78-1.73,16.41-8.54,17.86-17S542.3,99.8,536.81,95.16Z" fill="#1d1d1b"/>
    <path d="M371.61,126.54l-2.25-4.25c-4.8-9-8.65-16.48-12.86-26.22a11.23,11.23,0,0,1,1.6-.76c6.7-3.2,11.14-9,11-19C368.8,64,357.58,58,347.78,58h-36.7v72.35h18.45V100.42H340c3.5,5.84,10.62,22.42,11.73,25l2.18,4.87H373.6L371.82,127ZM348.86,87.7c-4.33,5.2-13.28,4.81-19.48,4.79V66s15.76-2.36,20.09,5.22C351.72,75.44,352,83.41,348.86,87.7Z" fill="#1d1d1b"/>
    <path d="M627.43,113.21a8.6,8.6,0,1,0,8.64,8.57A8.59,8.59,0,0,0,627.43,113.21Zm0,16.35a7.76,7.76,0,1,1,7.73-7.78A7.78,7.78,0,0,1,627.43,129.56Z" fill="#1d1d1b"/>
    <path d="M583,56.88c-4.79,0-35.81.47-35.94,37,0,36.25,30.62,37.69,35.94,37.65s35.95-1.4,35.86-37.65C618.78,57.35,587.79,56.84,583,56.88Zm.12,64.55h-.27c-2,0-16.84.63-16.73-28.95C566.21,65,580.61,65.81,583,65.81s16.77-.77,16.89,26.67C600,122.06,585.15,121.43,583.09,121.43Z" fill="#1d1d1b"/>
    <path d="M629.93,122v0a2.19,2.19,0,0,0,1.48-2.31c0-1.51-1-2.45-2.94-2.45h-4.38v9.08h1.6v-3.74H628c1.48,0,1.84.75,1.84,2.44a2.56,2.56,0,0,0,.22,1.3h1.68a4,4,0,0,1-.48-2.38C631.28,122.52,630.48,122.07,629.93,122Zm-1.65-.63h-2.59v-2.83h2.59c.8,0,1.58.25,1.58,1.38C629.86,120.86,629.32,121.38,628.28,121.38Z" fill="#1d1d1b"/>
    <path d="M480.62,95.16c-8.36-7.25-18.53-9.52-25.69-14.44-5-3.87-4.26-8.88-1.71-11.59,6-6.72,18.61-3.55,21.53-2.87,3.71,1.09,5.7,2.26,9.23,3.84V61c-15-4.37-39-8.54-48.48,6.56-3.48,6.21-4.39,17.48,5.63,24,10.11,8,26.68,11.87,28.75,18.35,1.27,3.54-.26,6.94-2.64,9.34-9,8.32-23.35,3.1-32.64-1l0,9c10.05,4.52,22.77,5.67,34.05,3.24,7.75-1.73,16.42-8.54,17.81-17S486.09,99.8,480.62,95.16Z" fill="#1d1d1b"/>
    <path d="M379.69,130.32h49.5v-8.09c-9.53.23-21.44,1.74-31.18.78V97a187,187,0,0,1,24.92.4V88.85a143.61,143.61,0,0,1-24.94.38c0-1.54,0-23.9,0-23.9,9.74-1,21.65.55,31.18.73V58h-49.5Z" fill="#1d1d1b"/>
  </g>
  <rect x="-50.26" y="-14.39" width="758.01" height="217.02" fill="none"/>
</svg>
