<?xml version="1.0" encoding="UTF-8"?><svg id="b" xmlns="http://www.w3.org/2000/svg" width="400" height="120" viewBox="0 0 400 120"><path d="M106.76,82.6c-3.09-1.15-7.52-4.58-10.07-7.71-3.3-3.77-11.2-14.4-11.2-14.4-4.06-5.24-9.5-13.95-14.88-18.34v34.84h4.8v-17.58c3.38,4.31,7.34,9.82,10.3,13.3,1.31,1.56,4.68,5.21,5.63,6.02,6.18,6.03,17.52,8.73,26.99,5.42v-.33c-3.25,.7-7.45,.44-11.58-1.21Z" fill="#231815"/><path d="M131.66,46.87l.03-3.8h-23.27v33.99h23.27l-.03-3.8c-4.46,.11-10.06,.82-14.64,.37v-12.21c3.72-.2,8.23-.13,11.69,.19v-4.03c-3.51,.45-7.94,.41-11.69,.18v-11.23c4.59-.47,10.18,.26,14.64,.34Z" fill="#231815"/><path d="M178.99,43.07h-17.01v33.99h8.62s0-10.13,0-10.13v-2.32s12.3,.68,15.77-3.91c2.59-2.96,2.74-7.68,1.67-11.33-1.42-4.16-4.51-6.29-9.04-6.28Zm.98,15.31c-2.02,2.38-6.46,2.35-9.42,2.15l.03-13.63s7.66-1.07,9.68,2.41c1.16,2.08,1.44,6.76-.29,9.07Z" fill="#231815"/><path d="M77.5,45.12c3.3,3.77,11.2,14.4,11.2,14.4,4.06,5.24,9.5,13.95,14.88,18.34V43.02h-4.8v17.58c-3.38-4.31-7.34-9.82-10.3-13.3-1.31-1.56-4.68-5.21-5.63-6.02-6.18-6.03-17.52-8.73-26.99-5.42v.33c3.25-.7,7.45-.44,11.58,1.21,3.09,1.15,7.52,4.58,10.07,7.71Z" fill="#231815"/><path d="M155.72,60.54c-3.93-3.4-8.71-4.47-12.07-6.78-2.37-1.82-2-4.17-.8-5.45,2.83-3.16,8.74-1.67,10.12-1.35,1.74,.51,2.67,1.06,4.34,1.8v-4.26c-7.05-2.05-18.33-4.01-22.78,3.08-1.64,2.92-2.06,8.21,2.65,11.29,4.75,3.77,12.53,5.58,13.5,8.62,.6,1.66-.12,3.26-1.24,4.39-4.21,3.91-10.97,1.46-15.33-.48v4.2c4.71,2.12,10.69,2.66,15.99,1.52,3.64-.81,7.71-4.01,8.36-7.96,.66-3.9-.16-6.44-2.73-8.62Z" fill="#231815"/><path d="M297.52,60.54c-3.92-3.4-8.7-4.47-12.05-6.78-2.37-1.82-2.02-4.17-.83-5.45,2.83-3.16,8.73-1.67,10.12-1.35,1.75,.51,2.69,1.06,4.35,1.8v-4.26c-7.06-2.05-18.34-4.01-22.78,3.08-1.65,2.92-2.08,8.21,2.65,11.29,4.76,3.77,12.54,5.58,13.49,8.62,.61,1.66-.09,3.26-1.25,4.39-4.19,3.91-10.96,1.46-15.31-.48l-.03,4.2c4.74,2.12,10.71,2.66,16.01,1.52,3.65-.81,7.71-4.01,8.39-7.96,.64-3.9-.19-6.44-2.77-8.62Z" fill="#231815"/><path d="M219.92,75.28l-1.05-2c-2.26-4.21-4.06-7.74-6.04-12.32,.21-.14,.16-.08,.75-.36,3.15-1.5,5.23-4.22,5.18-8.92-.15-5.77-5.42-8.63-10.02-8.62h-17.24v33.99h8.66s0-14.05,0-14.05h4.93c1.64,2.74,4.99,10.53,5.51,11.76l1.02,2.29h9.24l-.83-1.58c-.04-.06-.07-.13-.1-.19Zm-10.69-18.25c-2.04,2.44-6.24,2.26-9.15,2.25v-12.45s7.41-1.11,9.44,2.45c1.05,1.99,1.18,5.74-.29,7.75Z" fill="#231815"/><path d="M340.09,69.02c-2.24,0-4.04,1.81-4.04,4.03s1.81,4.05,4.04,4.05,4.06-1.81,4.06-4.05-1.82-4.03-4.06-4.03Zm0,7.68c-2.01,0-3.64-1.64-3.64-3.66s1.63-3.64,3.64-3.64,3.63,1.63,3.63,3.64-1.63,3.66-3.63,3.66Z" fill="#231815"/><path d="M319.21,42.56c-2.25-.02-16.82,.22-16.89,17.38,0,17.03,14.39,17.7,16.88,17.69,2.49,.02,16.89-.66,16.85-17.69-.02-17.15-14.58-17.39-16.84-17.38Zm.06,30.33h-.13c-.95,0-7.91,.3-7.86-13.6,.06-12.89,6.82-12.53,7.94-12.53,1.12,0,7.88-.36,7.94,12.53,.05,13.9-6.92,13.6-7.89,13.6Z" fill="#231815"/><path d="M341.27,73.15h0c.14-.07,.69-.26,.69-1.1,0-.71-.46-1.15-1.38-1.15h-2.06v4.26h.76v-1.76h1.1c.69,0,.86,.36,.86,1.15,0,.2,0,.44,.1,.61h.79c-.17-.17-.23-.61-.23-1.12,0-.66-.38-.87-.64-.9Zm-.78-.29h-1.22v-1.33h1.22c.38,0,.74,.11,.74,.65,0,.43-.25,.68-.74,.68Z" fill="#231815"/><path d="M271.13,60.54c-3.93-3.4-8.71-4.47-12.07-6.78-2.37-1.82-2-4.17-.8-5.45,2.83-3.16,8.74-1.67,10.12-1.35,1.74,.51,2.67,1.06,4.34,1.8v-4.26c-7.05-2.05-18.33-4.01-22.78,3.08-1.63,2.92-2.06,8.21,2.65,11.29,4.75,3.77,12.53,5.58,13.5,8.62,.6,1.66-.12,3.26-1.24,4.39-4.21,3.91-10.97,1.46-15.33-.48v4.2c4.71,2.12,10.69,2.66,15.99,1.52,3.64-.81,7.71-4.01,8.36-7.96,.67-3.9-.16-6.44-2.73-8.62Z" fill="#231815"/><path d="M223.71,77.06h23.26v-3.8c-4.48,.11-10.07,.82-14.65,.37v-12.21c3.71-.2,8.24-.13,11.71,.19v-4.03c-3.55,.45-7.96,.41-11.72,.18,0-.72,.01-11.23,.01-11.23,4.58-.47,10.17,.26,14.65,.34v-3.8h-23.26v33.99Z" fill="#231815"/></svg>