<?xml version="1.0" encoding="UTF-8"?><svg id="a" xmlns="http://www.w3.org/2000/svg" width="1575.62" height="168.95" viewBox="0 0 1575.62 168.95"><path d="M1223.6,28.81h86.52v20.05h-65.05v25.26h52.54v19.9h-52.54v26.2h65.05v19.89h-86.52V28.81ZM784.64,27.23c33-.47,57.78,24.16,57.31,57.15.48,33-24.31,57.78-57.31,57.31-33,.47-57.62-24.31-57.15-57.31-.47-33,24.15-57.62,57.15-57.15M784.64,121.01c20.52,0,34.57-15.47,34.57-36.63s-14.05-36.31-34.57-36.31-34.42,15.63-34.42,36.31,13.74,36.63,34.42,36.63M1068.23,74.13h-59.83V28.81h-21.47v111.3h21.47v-45.71h59.83v45.71h21.47V28.81h-21.47v45.33ZM1361.57,28.81h-21.47v111.3h78.94v-19.89h-57.47V28.81ZM1489.02,28.81c33.15-.48,60.62,22.89,60.15,55.57.47,32.84-27,56.2-60.15,55.73h-44.84V28.81h44.84M1489.02,120.22c21.31,0,37.42-14.68,37.42-35.84s-16.1-35.52-37.42-35.52h-23.37v71.36h23.37M681.29,111.24l-55-82.43h-28.61v111.3h20.95V55.17l56.75,84.98,26.71-.04V28.81h-20.8v82.43ZM493.65,28.81v19.89h26.34v71.52h-26.34v19.89h74.04v-19.89h-26.23V48.7h26.23v-19.89h-74.04ZM1119.66,28.81v19.89h26.34v71.52h-26.34v19.89h74.04v-19.89h-26.23V48.7h26.23v-19.89h-74.04ZM289.3,99.63l46.45,40.48h-30.99l-46.41-40.48v40.48h-21.47V28.81h57.94c22.1,0,37.73,15.15,37.73,36.63s-14.73,34.2-36.05,34.2h-7.2ZM258.35,82.33h34.73c9.63,0,16.74-6.95,16.74-16.89s-7.11-16.58-16.74-16.58h-34.73v33.47ZM442.26,74.13h-59.83V28.81h-21.47v111.3h21.47v-45.71h59.83v45.71h21.47V28.81h-21.47v45.33ZM80.27,28.81l9.74,20.05h22.78v50.76s-32.54,23.41-32.54,23.41l-32.49-23.4.02-50.77h22.74l9.74-20.05H26.44v80.29l53.81,38.73,53.84-38.72V28.81h-53.82ZM928.3,76l-25.63-5.88c-13.55-3.38-15.42-7.29-15.42-11.02,0-10.78,17.39-11.94,24.87-11.94,14.32,0,26.31,4.12,36.59,11.29l10.93-15.9c-1.76-1.48-4.25-3.46-6.91-5-8.19-4.99-21.38-10.31-40.45-10.31-29.07,0-48.6,13.1-48.6,32.59,0,14.4,10.33,24.23,30.8,29.25l25.29,5.59c16.24,4.3,17.54,8.29,17.54,13.08,0,9.29-8.48,14-25.2,14-15.17,0-28.56-4.19-42.02-13.15l-10.65,15.7,5.47,3.92c13.03,8.67,29.91,13.44,47.53,13.44,29.62,0,48.77-13.6,48.77-34.65,0-15.57-10.44-25.42-32.92-31.02Z" fill="#211f1d" stroke-width="0"/></svg>