<svg xmlns="http://www.w3.org/2000/svg" viewBox="0 0 363 210">
  <g>
    <path d="M327.92,68.72A11.85,11.85,0,0,1,315.84,57.1v-.46a12.08,12.08,0,1,1,24.16,0,11.85,11.85,0,0,1-11.62,12.08Zm0-22.24a10.15,10.15,0,1,0,10.14,10.16,10,10,0,0,0-9.84-10.16Zm2.71,11.18L333.34,63H330.7l-2.57-5.08h-2.55V63h-2.23V49.8h5.78c2.35,0,4.32,1.27,4.32,4A3.74,3.74,0,0,1,330.63,57.66ZM329.05,52h-3.47v3.76h3.47c1.21,0,2.1-.55,2.1-1.86a1.88,1.88,0,0,0-1.83-1.92l-.27,0Z" fill="#004186"/>
    <path d="M304,61.55a112,112,0,0,0-183.33,0l-1.07,1.53h26.55l.27-.32c18.1-18.61,41.66-28.5,65.93-28.5s47.8,9.89,65.91,28.5l.27.32H305Z" fill="red" fill-rule="evenodd"/>
    <path d="M109,160.9l-.49.48c-8.15,8.31-17.59,12.73-27.3,12.73-20.29,0-35-15.28-35-36.24s14.71-36.18,35-36.18c9.71,0,19.15,4.42,27.3,12.74l.49.5,13.1-15.8-.37-.42C110.9,85.9,97.89,79.63,81.87,79.63S51.14,85.05,40.56,94.75C29.05,105.36,23,120.21,23,137.83S29.05,170.38,40.56,181c10.58,9.77,25.26,15.16,41.31,15.16s29-6.26,39.86-19.08l.37-.36Z" fill="#004186"/>
    <rect x="135.26" y="81.45" width="23.04" height="112.48" fill="#004186"/>
    <path d="M248.56,169.5c-6.12,3.75-11.85,5.63-17,5.63-7.46,0-10.79-3.94-10.79-12.69V102.7h23.44V81.54H220.78v-35l-22.59,12v23H178.71V102.7h19.48v63.55c0,17.28,10.24,29.1,25.53,29.42,10.4.21,16.67-2.91,20.46-5.17l.22-.14,5.6-21.71Z" fill="#004186"/>
    <rect x="267.68" y="81.45" width="23.03" height="112.48" fill="#004186"/>
  </g>
</svg>
