<?xml version="1.0" encoding="UTF-8"?><svg id="a" xmlns="http://www.w3.org/2000/svg" width="297mm" height="210mm" viewBox="0 0 841.89 595.28"><g><path d="M498.19,337.16h-154.59c-31.13,0-56.6-25.47-56.6-56.6V125.97c0-31.13,25.47-56.6,56.6-56.6h154.59c31.13,0,56.6,25.47,56.6,56.6v154.59c0,31.13-25.47,56.6-56.6,56.6Z" fill="#ff2b85"/><path d="M383.74,172.13c-2.91,0-5.26,2.35-5.26,5.26s2.35,5.26,5.26,5.26,5.26-2.35,5.26-5.26-2.35-5.26-5.26-5.26Zm0,0c-2.91,0-5.26,2.35-5.26,5.26s2.35,5.26,5.26,5.26,5.26-2.35,5.26-5.26-2.35-5.26-5.26-5.26Zm0,0c-2.91,0-5.26,2.35-5.26,5.26s2.35,5.26,5.26,5.26,5.26-2.35,5.26-5.26-2.35-5.26-5.26-5.26Zm75.46,0c-2.91,0-5.26,2.35-5.26,5.26s2.35,5.26,5.26,5.26,5.26-2.35,5.26-5.26-2.35-5.26-5.26-5.26Zm0,0c-2.91,0-5.26,2.35-5.26,5.26s2.35,5.26,5.26,5.26,5.26-2.35,5.26-5.26-2.35-5.26-5.26-5.26Zm-75.46,0c-2.91,0-5.26,2.35-5.26,5.26s2.35,5.26,5.26,5.26,5.26-2.35,5.26-5.26-2.35-5.26-5.26-5.26Zm137.82,26.49c-.05-1.38-.14-2.72-.28-4.06-.05-.32-.05-.6-.09-.92-.18-1.57-.37-3.09-.6-4.66-.32-1.98-.69-3.97-1.11-5.95-.28-1.29-.6-2.58-.92-3.88-.42-1.62-.88-3.18-1.34-4.75v-.05c-.51-1.57-1.06-3.14-1.62-4.66-.55-1.52-1.15-3.05-1.8-4.57-1.25-3.05-2.68-5.95-4.25-8.82-1.52-2.86-3.23-5.63-5.03-8.31,.18-.14,.37-.32,.51-.51,.46-.37,.83-.74,1.25-1.2l.05-.05c.18-.18,.37-.37,.51-.55,.42-.46,.83-.92,1.2-1.43,.18-.18,.32-.42,.46-.6,.46-.6,.88-1.2,1.25-1.85,.09-.14,.14-.23,.23-.32,.05-.09,.09-.14,.14-.23,.05-.05,.05-.14,.09-.18,.32-.65,.69-1.29,.97-1.94,.42-.83,.78-1.71,1.06-2.63,.14-.32,.23-.69,.32-1.06,.09-.32,.18-.65,.28-1.02,.09-.42,.23-.78,.28-1.2,.14-.65,.28-1.34,.32-2.03,.05-.09,.05-.23,.05-.32,.05-.28,.05-.51,.09-.78,.05-.69,.09-1.43,.09-2.17,0-14.68-11.91-26.59-26.63-26.59-.83,0-1.66,.05-2.49,.14-.32,.05-.69,.05-1.02,.14-.69,.05-1.34,.18-1.98,.32-.78,.14-1.62,.37-2.35,.6-.18,.05-.37,.09-.51,.14-.69,.23-1.29,.46-1.94,.74-.05,0-.09,.05-.14,.05-.78,.32-1.52,.69-2.22,1.11-.65,.32-1.25,.69-1.85,1.11-.18,.09-.32,.18-.46,.32-.55,.37-1.15,.78-1.66,1.25-.18,.09-.42,.23-.6,.51-.51,.37-.97,.78-1.38,1.2-.23,.18-.42,.42-.55,.6l-.05,.05c-.46,.46-.88,.92-1.29,1.43-.55,.65-1.06,1.34-1.52,2.03-.14,.14-.23,.28-.32,.42-1.52-.74-3.05-1.43-4.57-2.03-1.52-.65-3.05-1.25-4.62-1.8-.97-.37-1.98-.74-3-1.02-.88-.37-1.75-.65-2.63-.88-.88-.28-1.75-.51-2.68-.74-.65-.18-1.25-.37-1.89-.51-.88-.23-1.75-.42-2.63-.6-1.25-.32-2.49-.55-3.78-.78-.42-.09-.88-.18-1.34-.23-1.15-.18-2.35-.37-3.55-.51-.69-.14-1.38-.18-2.08-.28-1.57-.18-3.14-.32-4.75-.37-.18-.05-.37-.05-.51-.05-1.94-.14-3.83-.18-5.77-.18s-3.83,.05-5.77,.18c-.14,0-.32,0-.51,.05-1.62,.05-3.18,.18-4.75,.37-.69,.09-1.38,.14-2.08,.28-1.2,.14-2.4,.32-3.55,.51-.46,.05-.92,.14-1.34,.23-1.25,.23-2.54,.46-3.74,.78-.92,.14-1.8,.37-2.68,.6-.65,.14-1.25,.32-1.89,.51-.92,.23-1.8,.46-2.68,.74-.88,.23-1.75,.51-2.63,.88-1.02,.28-2.03,.65-3,1.02-1.57,.55-3.09,1.15-4.62,1.8-1.52,.6-3.05,1.29-4.57,2.03-.09-.14-.18-.28-.32-.42-.46-.69-.97-1.38-1.52-2.03-.42-.51-.83-.97-1.29-1.43l-.05-.05c-.14-.18-.32-.42-.55-.6-.42-.42-.88-.83-1.38-1.2-.18-.28-.42-.42-.6-.51-.51-.46-1.11-.88-1.66-1.25-.14-.14-.28-.23-.46-.32-.6-.42-1.2-.78-1.85-1.11-.69-.42-1.43-.78-2.22-1.11-.05,0-.09-.05-.14-.05-.65-.28-1.25-.51-1.94-.74-.14-.05-.32-.09-.51-.14-.74-.23-1.57-.46-2.35-.6-.65-.14-1.29-.28-1.98-.32-.32-.09-.69-.09-1.02-.14-.83-.09-1.66-.14-2.49-.14-14.72,0-26.63,11.91-26.63,26.59,0,.74,.05,1.48,.09,2.17,.05,.28,.05,.51,.09,.78,0,.09,0,.23,.05,.32,.05,.69,.18,1.38,.32,2.03,.05,.42,.18,.78,.28,1.2,.09,.37,.18,.69,.28,1.02,.09,.37,.18,.74,.32,1.06,.28,.92,.65,1.8,1.06,2.63,.28,.65,.65,1.29,.97,1.94,.05,.05,.05,.14,.09,.18,.05,.09,.09,.14,.14,.23,.09,.09,.14,.18,.23,.32,.37,.65,.78,1.25,1.25,1.85,.14,.18,.28,.42,.46,.6,.37,.51,.78,.97,1.2,1.43,.14,.18,.32,.37,.51,.55l.05,.05c.42,.46,.78,.83,1.25,1.2,.14,.18,.32,.37,.51,.51-1.8,2.68-3.51,5.45-5.03,8.31-1.57,2.86-3,5.77-4.25,8.82-.65,1.52-1.25,3.05-1.8,4.57-.55,1.52-1.11,3.09-1.62,4.66v.05c-.46,1.57-.92,3.14-1.34,4.75-.32,1.29-.65,2.58-.92,3.88-.42,1.98-.78,3.97-1.11,5.95-.23,1.57-.42,3.09-.6,4.66-.05,.32-.05,.6-.09,.92-.14,1.34-.23,2.68-.28,4.06-.14,1.89-.18,3.83-.18,5.72,0,19.15,5.35,37.06,14.63,52.29,.69,1.11,1.38,2.26,2.12,3.37,.92,1.38,1.85,2.72,2.82,4.06,1.98,2.63,4.02,5.17,6.23,7.62,1.11,1.2,2.22,2.4,3.37,3.55,1.8,1.85,3.69,3.6,5.68,5.35,1.02,.88,2.03,1.71,3.05,2.54,7.15,5.72,15.14,10.52,23.68,14.12h.05c3,1.29,6.09,2.45,9.23,3.42,9.46,2.95,19.57,4.52,30,4.52s20.54-1.57,30-4.52c3.14-.97,6.23-2.12,9.23-3.42h.05c8.54-3.6,16.52-8.4,23.68-14.12,1.02-.83,2.03-1.66,3.05-2.54,1.98-1.75,3.88-3.51,5.68-5.35,1.15-1.15,2.26-2.35,3.37-3.55,2.22-2.45,4.25-4.98,6.23-7.62,.97-1.34,1.89-2.68,2.82-4.06,.74-1.11,1.43-2.26,2.12-3.37,9.28-15.23,14.63-33.14,14.63-52.29,0-1.89-.05-3.83-.18-5.72Zm-100.89,7.66c4.57,0,17.49,.83,17.49,4.98,0,7.52-15.97,12.92-17.49,12.51-1.52,.42-17.54-4.98-17.54-12.51,0-4.15,12.97-4.98,17.54-4.98Zm-58.66-45.6c8.77-5.82,28.15-9.23,35.77,.78,0,0,9.6,10.25,.18,20.95-9.37,10.71-16.71,20.68-18.88,29.35-2.17,8.68-5.63,12.23-12.6,12.28-6.97,.05-20.49-10.71-22.15-27.88-1.71-17.17,8.95-29.72,17.68-35.49Zm83.45,69.32c0,12.05-11.12,21.79-24.79,21.79s-24.79-9.74-24.79-21.79h49.57Zm29.4-5.95c-6.97-.05-10.43-3.6-12.6-12.28-2.17-8.68-9.51-18.65-18.88-29.35-9.42-10.71,.18-20.95,.18-20.95,7.62-10.02,27-6.6,35.77-.78,8.72,5.77,19.38,18.32,17.68,35.49-1.66,17.17-15.19,27.92-22.15,27.88Zm12.18-114.93c10.43,0,18.83,8.4,18.83,18.78,0,5.45-2.31,10.29-6,13.75-.37-.51-.78-.97-1.2-1.43-1.02-1.25-2.08-2.45-3.18-3.65-1.06-1.2-2.17-2.35-3.32-3.51-1.15-1.15-2.31-2.26-3.51-3.32-1.2-1.11-2.4-2.17-3.65-3.18-1.25-1.06-2.54-2.03-3.83-3-1.2-.92-2.4-1.8-3.65-2.63-.14-.14-.28-.23-.42-.28-1.25-.88-2.54-1.66-3.83-2.45-.55-.37-1.11-.69-1.66-1.02,3.42-4.89,9.05-8.08,15.42-8.08Zm-151.11,18.78c0-10.38,8.4-18.78,18.83-18.78,6.37,0,12,3.18,15.42,8.08-.55,.32-1.11,.65-1.66,1.02-1.29,.78-2.58,1.57-3.83,2.45-.14,.05-.28,.14-.42,.28-1.25,.83-2.45,1.71-3.65,2.63-1.29,.97-2.58,1.94-3.83,3-1.25,1.02-2.45,2.08-3.65,3.18-1.2,1.06-2.35,2.17-3.51,3.32-1.15,1.15-2.26,2.31-3.32,3.51-1.11,1.2-2.17,2.4-3.18,3.65-.42,.46-.83,.92-1.2,1.43-3.69-3.46-6-8.31-6-13.75Zm123.28,44.22c-2.91,0-5.26,2.35-5.26,5.26s2.35,5.26,5.26,5.26,5.26-2.35,5.26-5.26-2.35-5.26-5.26-5.26Zm-75.46,10.52c2.91,0,5.26-2.35,5.26-5.26s-2.35-5.26-5.26-5.26-5.26,2.35-5.26,5.26,2.35,5.26,5.26,5.26Zm75.46-10.52c-2.91,0-5.26,2.35-5.26,5.26s2.35,5.26,5.26,5.26,5.26-2.35,5.26-5.26-2.35-5.26-5.26-5.26Zm-75.46,0c-2.91,0-5.26,2.35-5.26,5.26s2.35,5.26,5.26,5.26,5.26-2.35,5.26-5.26-2.35-5.26-5.26-5.26Zm75.46,0c-2.91,0-5.26,2.35-5.26,5.26s2.35,5.26,5.26,5.26,5.26-2.35,5.26-5.26-2.35-5.26-5.26-5.26Zm-75.46,0c-2.91,0-5.26,2.35-5.26,5.26s2.35,5.26,5.26,5.26,5.26-2.35,5.26-5.26-2.35-5.26-5.26-5.26Z" fill="#fff"/></g><g><path d="M14.71,399h14.89v-13.8c0-16.75,9.31-27.91,27.91-27.91l9.3,1.86v16.75l-10.23-1.86c-5.58,0-8.37,3.72-8.37,9.3v15.66h18.61v16.75h-18.61v70.71H29.6v-70.71H14.71v-16.75Z" fill="#ff2b85"/><path d="M115.09,397.14c24.19,0,45.59,18.61,45.59,45.59s-21.4,45.59-45.59,45.59-45.59-18.61-45.59-45.59,21.4-45.59,45.59-45.59Zm0,74.44c17.68,0,26.98-13.03,26.98-28.84s-9.3-28.84-26.98-28.84-26.98,13.03-26.98,28.84,9.31,28.84,26.98,28.84Z" fill="#ff2b85"/><path d="M214.49,397.14c24.19,0,45.59,18.61,45.59,45.59s-21.4,45.59-45.59,45.59-45.59-18.61-45.59-45.59,21.4-45.59,45.59-45.59Zm0,74.44c17.68,0,26.98-13.03,26.98-28.84s-9.3-28.84-26.98-28.84-26.98,13.03-26.98,28.84,9.31,28.84,26.98,28.84Z" fill="#ff2b85"/><path d="M357.63,486.46h-16.75l-1.86-7.44-.93-.93-.93,.93c-5.58,5.58-14.89,9.3-24.19,9.3-24.19,0-44.66-18.61-44.66-45.59s20.47-45.59,44.66-45.59c9.12,0,18.61,3.72,24.19,9.3l.93,.93,.93-.93v-49.16h18.61v129.18Zm-43.73-72.57c-17.68,0-27.17,13.03-27.17,28.84s9.49,28.84,27.17,28.84c15.82,0,26.98-13.03,26.98-28.84s-11.17-28.84-26.98-28.84Z" fill="#ff2b85"/><path d="M376.29,399h16.75l1.67,7.44,1.12,.93,.93-.93c5.58-5.58,14.89-9.3,24.19-9.3,24.19,0,44.66,18.61,44.66,45.59s-20.47,45.59-44.66,45.59c-9.12,0-18.61-3.72-24.19-9.3l-.93-.93-1.12,.93v46.89h-18.42v-126.91Zm43.73,72.57c17.68,0,26.98-13.03,26.98-28.84s-9.3-28.84-26.98-28.84c-15.82,0-26.98,13.03-26.98,28.84s11.16,28.84,26.98,28.84Z" fill="#ff2b85"/><path d="M512.49,432.16h15.24v-3.85c0-10.51-7.18-15.42-17.17-15.42-8.06,0-13.49,3.85-16.47,11.74l-16.64-3.5c3.68-14.89,16.47-24.35,33.28-24.35,23.47,0,35.21,11.56,35.21,34.86v54.83h-15.41l-1.75-11.56c-6.13,8.58-15.24,12.96-27.33,12.96-15.59,0-27.15-9.28-27.15-26.8s15.24-28.9,38.19-28.9Zm-7.88,39.59c6.13,0,11.56-1.93,16.12-5.78,4.73-4.03,7.01-9.46,7.01-16.64v-1.93h-15.94c-11.21,0-18.22,5.26-18.22,13.66,0,6.31,3.85,10.69,11.04,10.69Z" fill="#ff2b85"/><path d="M563.12,399h16.75l1.86,7.44,.93,.93,.93-.93c3.72-5.58,13.03-9.3,20.47-9.3,22.33,0,35.36,14.89,35.36,35.36v53.97h-18.61v-53.97c-.56-11.91-6.33-18.61-18.61-18.61-10.98,0-20.1,8.93-20.47,19.73v52.85h-18.61v-87.46Z" fill="#ff2b85"/><path d="M740.74,486.46h-16.75l-1.86-7.44-.93-.93-.93,.93c-5.58,5.58-14.89,9.3-24.19,9.3-24.19,0-44.66-18.61-44.66-45.59s20.47-45.59,44.66-45.59c9.12,0,18.61,3.72,24.19,9.3l.93,.93,.93-.93v-49.16h18.61v129.18Zm-43.73-72.57c-17.68,0-27.17,13.03-27.17,28.84s9.49,28.84,27.17,28.84c15.82,0,26.98-13.03,26.98-28.84s-11.16-28.84-26.98-28.84Z" fill="#ff2b85"/><path d="M793.72,432.16h15.24v-3.85c0-10.51-7.18-15.42-17.17-15.42-8.06,0-13.49,3.85-16.47,11.74l-16.64-3.5c3.68-14.89,16.47-24.35,33.28-24.35,23.47,0,35.21,11.56,35.21,34.86v54.83h-15.41l-1.75-11.56c-6.13,8.58-15.24,12.96-27.33,12.96-15.59,0-27.15-9.28-27.15-26.8s15.24-28.9,38.19-28.9Zm-7.88,39.59c6.13,0,11.56-1.93,16.12-5.78,4.73-4.03,7.01-9.46,7.01-16.64v-1.93h-15.94c-11.21,0-18.22,5.26-18.22,13.66,0,6.31,3.85,10.69,11.04,10.69Z" fill="#ff2b85"/></g></svg>