<svg xmlns="http://www.w3.org/2000/svg" viewBox="0 0 363 210">
  <g>
    <path d="M8.69,152.14H15v-5.87c0-7.13,4-11.88,11.87-11.88l4,.79v7.13l-4.36-.8c-2.37,0-3.56,1.59-3.56,4v6.66h7.92v7.12H22.94v30.08H15V159.26H8.69Z" fill="#d70066"/>
    <path d="M51.39,151.35A19.4,19.4,0,1,1,32,170.74a19.18,19.18,0,0,1,19.41-19.39m0,31.66c7.52,0,11.48-5.54,11.48-12.27s-4-12.26-11.48-12.26S39.91,164,39.91,170.74,43.87,183,51.39,183" fill="#d70066"/>
    <path d="M93.68,151.35a19.4,19.4,0,1,1-19.4,19.39,19.19,19.19,0,0,1,19.4-19.39m0,31.66c7.51,0,11.48-5.54,11.48-12.27s-4-12.26-11.48-12.26S82.2,164,82.2,170.74,86.16,183,93.68,183" fill="#d70066"/>
    <path d="M154.57,189.34h-7.12l-.8-3.17-.4-.38-.38.38a15.08,15.08,0,0,1-10.28,4c-10.29,0-19-7.91-19-19.39s8.7-19.42,19-19.42a15.12,15.12,0,0,1,10.28,4l.38.38.4-.38V134.39h7.92ZM136,158.47c-7.52,0-11.56,5.54-11.56,12.27S128.45,183,136,183c6.72,0,11.48-5.54,11.48-12.27s-4.76-12.27-11.48-12.27" fill="#d70066"/>
    <path d="M162.51,152.14h7.12l.72,3.17.47.38.38-.38a15,15,0,0,1,10.28-4c10.28,0,19,7.91,19,19.39s-8.69,19.4-19,19.4a15.16,15.16,0,0,1-10.28-4l-.38-.38-.48.38v19.95h-7.84ZM181.13,183c7.52,0,11.48-5.54,11.48-12.27s-4-12.26-11.48-12.26c-6.73,0-11.48,5.53-11.48,12.26S174.4,183,181.13,183" fill="#d70066"/>
    <path d="M220.45,166.24h6.48V164.6c0-4.47-3.05-6.56-7.31-6.56-3.43,0-5.74,1.65-7,5l-7.09-1.49c1.57-6.34,7-10.36,14.16-10.36,10,0,15,4.91,15,14.85v23.32h-6.54l-.76-4.92c-2.61,3.65-6.47,5.51-11.63,5.51-6.63,0-11.55-3.94-11.55-11.42,0-7.67,6.47-12.29,16.25-12.29m-3.36,16.84a10.28,10.28,0,0,0,6.85-2.46,8.68,8.68,0,0,0,3-7.08v-.81h-6.77c-4.77,0-7.75,2.23-7.75,5.81,0,2.68,1.65,4.57,4.7,4.57" fill="#d70066"/>
    <path d="M242,152.14h7.12l.8,3.17.38.38.38-.38c1.58-2.38,5.54-4,8.7-4,9.5,0,15,6.33,15,15v23h-7.88v-23c-.24-5.06-2.7-7.91-7.92-7.91a8.75,8.75,0,0,0-8.7,8.38v22.47H242Z" fill="#d70066"/>
    <path d="M317.55,189.34h-7.12l-.8-3.17-.38-.38-.4.38a15,15,0,0,1-10.28,4c-10.28,0-19-7.91-19-19.39s8.71-19.42,19-19.42a15.12,15.12,0,0,1,10.28,4l.4.38.38-.38V134.39h7.92Zm-18.61-30.87c-7.51,0-11.55,5.54-11.55,12.27s4,12.27,11.55,12.27c6.73,0,11.49-5.54,11.49-12.27s-4.76-12.27-11.49-12.27" fill="#d70066"/>
    <path d="M340.09,166.24h6.47V164.6c0-4.47-3.05-6.56-7.3-6.56-3.43,0-5.74,1.65-7,5l-7.08-1.49c1.57-6.34,7-10.36,14.16-10.36,10,0,15,4.91,15,14.85v23.32h-6.54l-.77-4.92c-2.61,3.65-6.47,5.51-11.63,5.51-6.63,0-11.55-3.94-11.55-11.42,0-7.67,6.47-12.29,16.25-12.29m-3.36,16.84a10.38,10.38,0,0,0,6.86-2.46,8.73,8.73,0,0,0,3-7.08v-.81h-6.75c-4.77,0-7.75,2.23-7.75,5.81,0,2.68,1.64,4.57,4.69,4.57" fill="#d70066"/>
    <path d="M181,89.54c5.8,0,10.48-4.12,10.48-9.22H170.55c0,5.1,4.69,9.22,10.46,9.22" fill="#d70066"/>
    <path d="M216.46,45.66a11.25,11.25,0,1,0-14.71-17,11,11,0,0,0-2.11,2.45,42.47,42.47,0,0,0-37,0,11.26,11.26,0,1,0-19,12.14,11.73,11.73,0,0,0,2.11,2.44,42.63,42.63,0,1,0,70.7,0M181.11,108.8A39.32,39.32,0,0,1,164,34.08a38.93,38.93,0,0,1,17.13-3.94,39.33,39.33,0,0,1,.77,78.66c-.26,0-.51,0-.77,0" fill="#d70066"/>
    <path d="M181,77.68c.67.17,7.42-2.11,7.42-5.29,0-1.76-5.48-2.12-7.42-2.12s-7.39.36-7.39,2.12c0,3.18,6.75,5.46,7.39,5.29" fill="#d70066"/>
    <path d="M205.82,51c-3.71-2.46-11.9-3.91-15.12.32,0,0-4.06,4.34-.08,8.86s7.06,8.76,8,12.43,2.38,5.16,5.33,5.18,8.67-4.53,9.39-11.8-3.78-12.56-7.5-15m-8.49,9.29a2.23,2.23,0,0,1-.18-4.45h.18a2.23,2.23,0,0,1,0,4.45" fill="#d70066"/>
    <path d="M171.35,51.33c-3.24-4.23-11.42-2.78-15.12-.32s-8.21,7.75-7.5,15,6.42,11.8,9.37,11.8,4.43-1.53,5.35-5.19,4-7.89,8-12.42-.08-8.86-.08-8.86m-6,8.95a2.23,2.23,0,1,1,2.22-2.23h0a2.22,2.22,0,0,1-2.22,2.23h0" fill="#d70066"/>
  </g>
</svg>
