<svg xmlns="http://www.w3.org/2000/svg" viewBox="0 0 200 200">
  <g>
    <g>
      <rect x="57.81" y="83.5" width="7.44" height="13.02" rx="0.93" fill="#22b573"/>
      <path d="M64.32,84.43V95.59H58.74V84.43h5.58m0-1.87H58.74a1.87,1.87,0,0,0-1.86,1.87V95.59a1.86,1.86,0,0,0,1.86,1.86h5.58a1.86,1.86,0,0,0,1.86-1.86V84.43a1.87,1.87,0,0,0-1.86-1.87Z" fill="#404040"/>
    </g>
    <g>
      <rect x="53.16" y="23.04" width="15.81" height="66.04" rx="5.83" fill="#22b573"/>
      <path d="M63.14,24a4.9,4.9,0,0,1,4.9,4.9V83.24a4.91,4.91,0,0,1-4.9,4.91H59a4.9,4.9,0,0,1-4.9-4.91V28.87A4.9,4.9,0,0,1,59,24h4.15m0-1.86H59a6.76,6.76,0,0,0-6.76,6.76V83.24A6.77,6.77,0,0,0,59,90h4.15a6.78,6.78,0,0,0,6.76-6.77V28.87a6.77,6.77,0,0,0-6.76-6.76Z" fill="#404040"/>
    </g>
    <g>
      <rect x="53.16" y="23.04" width="15.81" height="66.04" rx="5.83" fill="#22b573"/>
      <path d="M63.14,24a4.9,4.9,0,0,1,4.9,4.9V83.24a4.91,4.91,0,0,1-4.9,4.91H59a4.9,4.9,0,0,1-4.9-4.91V28.87A4.9,4.9,0,0,1,59,24h4.15m0-1.86H59a6.76,6.76,0,0,0-6.76,6.76V83.24A6.77,6.77,0,0,0,59,90h4.15a6.78,6.78,0,0,0,6.76-6.77V28.87a6.77,6.77,0,0,0-6.76-6.76Z" fill="#404040"/>
    </g>
    <path d="M100.33,100.94h-.66L59.79,101l4.87,70.34a5,5,0,0,0,5,4.69h60.64a5,5,0,0,0,5-4.69L140.21,101Z" fill="#22b573" stroke="#404040" stroke-linecap="round" stroke-linejoin="round" stroke-width="1.95"/>
    <path d="M140.37,107.75H59.63a6.81,6.81,0,0,1-6.81-6.81h0a6.81,6.81,0,0,1,6.81-6.81h80.74a6.81,6.81,0,0,1,6.81,6.81h0A6.81,6.81,0,0,1,140.37,107.75Z" fill="#22b573" stroke="#404040" stroke-linecap="round" stroke-linejoin="round" stroke-width="1.95"/>
    <line x1="100" y1="118.27" x2="100" y2="165.63" fill="#22b573" stroke="#404040" stroke-linecap="round" stroke-linejoin="round" stroke-width="1.95"/>
    <line x1="78.11" y1="118.27" x2="83.04" y2="165.63" fill="#22b573" stroke="#404040" stroke-linecap="round" stroke-linejoin="round" stroke-width="1.95"/>
    <line x1="120.98" y1="118.27" x2="116.05" y2="165.63" fill="#22b573" stroke="#404040" stroke-linecap="round" stroke-linejoin="round" stroke-width="1.95"/>
    <g>
      <path d="M134.23,52.36A27.74,27.74,0,0,0,98.77,72.52" fill="none" stroke="#404040" stroke-linecap="round" stroke-linejoin="round" stroke-width="2.92"/>
      <path d="M92.65,64.43a18.76,18.76,0,0,0,3.46,6.93,5.64,5.64,0,0,0,2.39,2,6.32,6.32,0,0,0,3.67-.19c2.85-.74,5.8-1.71,7.85-3.84" fill="none" stroke="#404040" stroke-linecap="round" stroke-linejoin="round" stroke-width="2.92"/>
    </g>
    <path d="M63.14,24H61.53V88.15h1.61A4.91,4.91,0,0,0,68,83.24V28.87A4.9,4.9,0,0,0,63.14,24Z" fill="#006837" opacity="0.6"/>
  </g>
</svg>
