<?xml version="1.0" encoding="UTF-8"?><svg id="_圖層_1" xmlns="http://www.w3.org/2000/svg" viewBox="0 0 800 800"><defs><style>.cls-1{fill:#f5f6f6;stroke-width:3.3px;}.cls-1,.cls-2{stroke:#3e3a39;stroke-linecap:round;stroke-linejoin:round;}.cls-2{fill:none;stroke-width:3.44px;}.cls-3{fill:#23b573;}.cls-3,.cls-4{stroke-width:0px;}.cls-4{fill:#ffe1af;}</style></defs><path class="cls-3" d="m97.38,471.98h47.12l72.28-4.48s33.18-2.59,40.81,4.48c7.64,7.07,11.84,16.74,11.84,16.74,0,0-17.13-1.13-19.74,12.43-2.94,26.71-4.89,52.89-4.89,52.89,0,0,5.1,89.37,9.77,88.14s8.55-.07,8.55-.07c-.96,9.09-6.15,19.08-11.9,21.35H94.56s-39.6-73.16,2.83-191.49Z"/><path class="cls-4" d="m252.23,490.77s-.39,19.98-5.06,48.94,7.41,102.46,7.41,102.46l8.55-.07,116.81-8.35,97.41-19.93,55.75-11.09s40.55-13.56,62.77-22.6c22.22-9.05,52.05-29.43,56.92-35.06,4.87-5.63,4.1-17.49,4.1-17.49,0,0,8.51-9.21,10.04-14.13s.56-15.25-16.59-18.56-55.48,15.04-55.48,15.04l-43.09,11.94-33.67,7.57s-6.7-5.99-10.7-9.86-16.98-6.12-23.27-5.86-42.75,11.28-42.75,11.28l-37.05,4.43s-61.22-22.63-62.23-25.4-47.38-12.13-56.5-13.47c-9.12-1.35-33.3-2.99-33.3-2.99"/><path class="cls-2" d="m327.69,533.91s85.74-4.38,103.89-6.88c18.15-2.5,55.7-22.53,73.22-8.76s16.27,30.04-3.13,43.81c-19.4,13.77-98.88,35.05-112.03,36.3-13.14,1.25-71.97,0-71.97,0"/><path class="cls-2" d="m257.6,487.6s58.2,4.38,84.49,16.9c26.29,12.52,61.29,24.97,61.29,24.97"/><path class="cls-2" d="m517.14,540.17s44-3.26,59.64-10.71c15.65-7.44,47.56-27.54,60.71-20.93,13.14,6.6,31.29,25.91,5.01,45.99-26.29,20.07-102.01,50.11-144.57,55.75-42.56,5.63-131.43,30.67-240.33,31.92"/><path class="cls-2" d="m517.14,529.46s62.77-13.14,80.29-20.93c17.52-7.79,44.44-20.31,61.96-10.29,17.52,10.01-3.47,33.8-3.47,33.8"/><path class="cls-2" d="m265.11,642.18s-1.25,10.01-7.51,14.39c-6.26,4.38-10.64-43.18-12.52-73.85-1.88-30.67,6.26-95.13,6.26-95.13,0,0,10.01-26.29,18.1,1.13"/><path class="cls-2" d="m262.17,476.46s-2-8.27-17.36-8.89-99.85,3.26-107.99,4.45-39.43-.03-39.43-.03"/><path class="cls-2" d="m257.6,656.57s-1.25,8.76-18.15,9.39c-16.9.63-148.19-3.44-148.19-3.44"/><rect class="cls-1" x="331.46" y="418.82" width="250.6" height="74" rx="18.06" ry="18.06"/><rect class="cls-1" x="331.46" y="336.67" width="250.6" height="74" rx="18.06" ry="18.06"/><rect class="cls-1" x="331.46" y="254.53" width="250.6" height="74" rx="18.06" ry="18.06"/><rect class="cls-1" x="331.46" y="172.38" width="250.6" height="74" rx="18.06" ry="18.06"/></svg>