<svg xmlns="http://www.w3.org/2000/svg" viewBox="0 0 200 200">
  <g>
    <path d="M84.36,62.57C79.53,65.8,76.55,71.2,72,74.79,67,78.67,60.62,80.15,55.33,83.54s-9.48,10.35-6.41,15.83c1.64,2.92,4.84,4.53,7.87,5.94,15.48,7.22,31.5,13.9,44.74,24.71,4.83,3.95,9.3,8.45,14.81,11.38s12.5,4,17.9.89c4.68-2.73,7.19-8,10.91-11.93,6.52-6.92,17.56-11,18.91-20.43,1.3-9.15-7.66-16.14-15.53-21C134.7,80.45,101.68,50.87,84.36,62.57Z" fill="#f2f2f2" stroke="#4d4d4d" stroke-linecap="round" stroke-linejoin="round" stroke-width="2.38"/>
    <path d="M89.32,68c-4.73,1.92-7.38,6.93-11.38,10.12C71.87,83,62.8,83.48,57.8,89.43,56.47,91,55.49,93.11,56,95.12c.92,3.79,6.09,5.26,9.15,6.81,8.38,4.25,16.81,7.63,24.8,12.63A193.8,193.8,0,0,1,114.73,133c2.93,2.56,7.22,6.34,11.47,5.12,3.54-1,6.6-5.36,9-7.85,4.38-4.43,10.07-7.32,14.76-11.41s8.52-10.2,7.16-16.28" fill="none" stroke="#4d4d4d" stroke-linecap="round" stroke-linejoin="round" stroke-width="2.38" stroke-dasharray="10"/>
    <path d="M106.47,62.36c0-3.26,1.48-5.57,4.75-5.52,6.42.1,12.89.57,19.29-.23s11.86-1.76,18,1.35a24.32,24.32,0,0,1,2.76,1.66c5,3.47,9.64,9.55,8.52,15.93-1.16,6.55-5.36,12.11-8.41,17.72l-5.13,9.42-7.43,13.64a5.9,5.9,0,1,1-10.37-5.65l4.33-8-.22.27-10,11.88a5.9,5.9,0,0,1-9-7.61l10-11.88.49-.58L122.31,96l-12.51,9.21a5.91,5.91,0,1,1-7-9.52l12.51-9.2,3.2-2.36-3.19,1.68L101.56,93a5.91,5.91,0,1,1-5.49-10.46l13.75-7.22,9.49-5,3-1.56-3.8-.46Z" fill="#f2d1b7" stroke="#4d4d4d" stroke-linecap="round" stroke-linejoin="round" stroke-width="2.37"/>
    <g>
      <path d="M37.92,89.66c-2.7,4.13-2.67,9.67-.67,14.18a25,25,0,0,0,10,10.67,74.34,74.34,0,0,0,13.49,6.06" fill="none" stroke="#404040" stroke-linecap="round" stroke-linejoin="round" stroke-width="2.92"/>
      <path d="M70.5,124.17,81,129.43" fill="none" stroke="#404040" stroke-linecap="round" stroke-linejoin="round" stroke-width="2.92"/>
    </g>
  </g>
</svg>
