<svg xmlns="http://www.w3.org/2000/svg" viewBox="0 0 200 200">
  <g>
    <path d="M125.61,69.39h-50l-12,87.91v1.09h.07a1.68,1.68,0,0,0-.07.5c0,2.68,4.28,4.08,6.24,4.75a70.87,70.87,0,0,0,16.28,3.1q4.08.39,8.18.54a154.51,154.51,0,0,0,21.18-.58,67.93,67.93,0,0,0,16.23-3.18c1.9-.68,5.89-2.06,5.89-4.63a2.08,2.08,0,0,0-.07-.5h.07V157.3Z" fill="#f2f2f2" stroke="#4d4d4d" stroke-linecap="round" stroke-linejoin="round" stroke-width="2.38"/>
    <ellipse cx="100.61" cy="68.89" rx="25" ry="5.71" fill="#f2f2f2" stroke="#4d4d4d" stroke-linecap="round" stroke-linejoin="round" stroke-width="2.4"/>
    <g>
      <path d="M63.61,158.89c0-4.7,16.34-8.5,36.5-8.5s36.5,3.8,36.5,8.5" fill="#f2f2f2"/>
      <g>
        <path d="M63.61,158.89c0-1.42,1.5-2.76,4.14-3.94" fill="none" stroke="#4d4d4d" stroke-linecap="round" stroke-linejoin="round" stroke-width="2.38"/>
        <path d="M80.45,151.72a136.93,136.93,0,0,1,19.66-1.33,118.39,118.39,0,0,1,26.1,2.56" fill="none" stroke="#4d4d4d" stroke-linecap="round" stroke-linejoin="round" stroke-width="2.38" stroke-dasharray="13.14 13.14"/>
        <path d="M132.46,155c2.65,1.18,4.15,2.52,4.15,3.94" fill="none" stroke="#4d4d4d" stroke-linecap="round" stroke-linejoin="round" stroke-width="2.38"/>
      </g>
    </g>
    <path d="M70.27,32.59l-3.39,3.75a33.17,33.17,0,0,0-4,5.07,3.06,3.06,0,0,0-.46,1.18,3.14,3.14,0,0,0,.75,2c2.17,3.24,4.39,6.51,7.39,9" fill="none" stroke="#404040" stroke-linecap="round" stroke-linejoin="round" stroke-width="2.92"/>
    <line x1="117.11" y1="82.89" x2="125.61" y2="143.94" fill="#f2f2f2" stroke="#fff" stroke-linecap="round" stroke-linejoin="round" stroke-width="5"/>
    <path d="M63.75,42.79c5.33-1.56,11.26.09,15.7,3.43s7.54,8.2,9.75,13.3c6,14,5.89,29.72,5.38,44.93" fill="none" stroke="#404040" stroke-linecap="round" stroke-linejoin="round" stroke-width="2.92"/>
  </g>
</svg>
