<svg xmlns="http://www.w3.org/2000/svg" viewBox="0 0 200 200">
  <g>
    <g>
      <ellipse cx="126.97" cy="79.53" rx="9.25" ry="12.8" transform="translate(-0.44 0.71) rotate(-0.32)" stroke-width="2.2" stroke="#404040" stroke-linecap="round" stroke-linejoin="round" fill="#b3b3b3"/>
      <rect x="100.59" y="58.31" width="8.53" height="18.49" transform="translate(-0.38 0.59) rotate(-0.32)" stroke-width="2.22" stroke="#404040" stroke-linecap="round" stroke-linejoin="round" fill="#f2f2f2"/>
      <path d="M77.84,69.85A11.41,11.41,0,0,0,66.52,81.29l.12,19.91,22.76-.12L89.33,89.7l31.29-.18c5.48,0,8.51-4.53,8.48-10s-3.11-9.94-8.59-9.91l-41.25.23Z" fill="#e6e6e6" stroke="#404040" stroke-linecap="round" stroke-linejoin="round" stroke-width="2.22"/>
      <rect x="63.8" y="98.29" width="28.45" height="8.53" rx="1.57" transform="translate(-0.57 0.44) rotate(-0.32)" stroke-width="2.22" stroke="#404040" stroke-linecap="round" stroke-linejoin="round" fill="#b3b3b3"/>
      <path d="M125.45,42l-6,0a15.49,15.49,0,0,0-28.83.17l-6.62,0a4.87,4.87,0,0,0-4.83,4.9v1.64A4.87,4.87,0,0,0,84,53.56l6.62,0a15.49,15.49,0,0,0,28.83-.16l6,0a4.87,4.87,0,0,0,4.84-4.89V46.79A4.86,4.86,0,0,0,125.45,42Z" fill="#e6e6e6" stroke="#404040" stroke-linecap="round" stroke-linejoin="round" stroke-width="2.08"/>
      <line x1="88.39" y1="42.16" x2="97.6" y2="42.11" fill="#f2f2f2" stroke="#404040" stroke-linecap="round" stroke-linejoin="round" stroke-width="2.08"/>
      <polyline points="90.66 53.52 97.66 53.49 119.49 53.36" fill="#f2f2f2" stroke="#404040" stroke-linecap="round" stroke-linejoin="round" stroke-width="2.08"/>
      <path d="M106.45,36.08s7.7,0,10.32,8.93" fill="#f2f2f2" stroke="#404040" stroke-linecap="round" stroke-linejoin="round" stroke-width="2.08"/>
      <path d="M97.68,56.49s1.5,3.2,7.13,3.58" fill="#f2f2f2" stroke="#f2f2f2" stroke-linecap="round" stroke-linejoin="round" stroke-width="2.08"/>
      <path d="M70.8,85.05S69.45,73.51,83.56,73.43l16.69-.09" fill="none" stroke="#f2f2f2" stroke-linecap="round" stroke-linejoin="round" stroke-width="2.08"/>
    </g>
    <path d="M64.94,167.76V123.38a12.62,12.62,0,0,1,12.63-12.62h.75a12.62,12.62,0,0,1,12.62,12.62v44.38" fill="#84d7f4" stroke="#404040" stroke-linecap="round" stroke-linejoin="round" stroke-width="2.58"/>
    <line x1="72.64" y1="128.76" x2="72.64" y2="156.22" fill="#84d7f4" stroke="#404040" stroke-linecap="round" stroke-linejoin="round" stroke-width="2.58"/>
    <line x1="81.94" y1="135.76" x2="81.94" y2="161.41" fill="#84d7f4" stroke="#404040" stroke-linecap="round" stroke-linejoin="round" stroke-width="2.58"/>
  </g>
</svg>
