<?xml version="1.0" encoding="UTF-8"?><svg id="b" xmlns="http://www.w3.org/2000/svg" width="40" height="40" viewBox="0 0 40 40"><circle cx="20.21" cy="20.21" r="17.96" fill="#ffd000" stroke="#000" stroke-miterlimit="10" stroke-width="1.5"/><path d="M25.8,26.55c-.45,.67-1.1,1.21-1.93,1.61-.83,.4-1.78,.63-2.84,.69v1.65c0,.2-.07,.38-.21,.52-.14,.14-.32,.21-.54,.21-.2,0-.38-.07-.52-.2-.14-.13-.21-.31-.21-.53v-1.65c-1.66-.11-3.24-.48-4.72-1.11-.19-.08-.35-.21-.48-.4-.13-.19-.2-.38-.2-.59,0-.28,.09-.52,.28-.72,.19-.2,.42-.29,.71-.29,.17,0,.32,.03,.45,.09,1.25,.56,2.58,.88,3.97,.94v-5.36c-1.08-.28-1.97-.59-2.66-.92-.85-.38-1.49-.88-1.93-1.52-.44-.63-.66-1.37-.66-2.2s.2-1.58,.61-2.28c.42-.72,1.03-1.3,1.83-1.74,.8-.44,1.73-.71,2.8-.8v-1.62c0-.2,.07-.38,.21-.53,.14-.15,.31-.22,.52-.22s.38,.07,.53,.22c.15,.15,.22,.33,.22,.53v1.6c1.54,.08,2.89,.34,4.07,.78,.45,.17,.68,.49,.68,.96,0,.25-.09,.48-.28,.69-.19,.21-.42,.32-.68,.32-.11,0-.23-.03-.38-.09-1.03-.38-2.17-.59-3.41-.63v5.55c1.07,.25,2,.54,2.8,.87,.81,.34,1.46,.83,1.93,1.47,.47,.63,.71,1.44,.71,2.41,0,.83-.22,1.59-.66,2.28Zm-8.58-8.37c.49,.38,1.26,.71,2.33,.99v-5.12c-.97,.14-1.72,.44-2.26,.89-.53,.46-.8,1.02-.8,1.69s.24,1.18,.73,1.55Zm7.08,5.95c0-.56-.25-1.02-.76-1.36-.51-.34-1.34-.67-2.5-.99v5.01c2.18-.16,3.27-1.04,3.27-2.66Z"/><path d="M18.65,6.83c-.2-.79-.93-1.16-2.43-.87-3.68,.7-5.45,2.85-7.58,5.78-1.42,1.94-3.53,6.53-3.06,8.87,.84,4.16,3.25,.09,4.89-3.31,1.1-2.3,3.53-5.35,4.94-6.39,2.02-1.48,3.71-2.27,3.24-4.07Z" fill="#fff" opacity=".4"/></svg>