<svg xmlns="http://www.w3.org/2000/svg" width="319.74" height="115.67" viewBox="0 0 319.74 115.67">
  <g>
    <path d="M71.51,115.49c-1-4-7.56-5.83-13.27-5.83s-12.3,1.82-13.27,5.83l-1.46-.35c.51-2.1-.69-4.21-1.79-5.61C38.1,104.93,30.36,101,24.83,101A6.09,6.09,0,0,0,20,102.79l-1.13-1c1.74-2,1.58-5.69-.43-10.11-2.64-5.79-8.37-12-13-12A4.51,4.51,0,0,0,3.81,80l-.55-1.39C7.18,77,8.11,70,7.32,64.19,6.55,58.52,4,52.62.08,52.2l.16-1.49a3.24,3.24,0,0,0,.44,0c4.23,0,8.45-6.34,10.27-12.31s1.29-10.8-1.28-12.53l.84-1.24a4.9,4.9,0,0,0,2.77.76c4.91,0,12.34-5.19,15.89-11.11,1.73-2.9,2.17-5.47,1.22-7.25l1.32-.7c1.08,2,3.89,3.12,7.94,3.12,8,0,17.84-4.37,17.84-9.47H59c0,2.32,2.13,4.72,5.85,6.6a27.9,27.9,0,0,0,12,2.87c4,0,6.86-1.11,7.94-3.12l1.32.7a5.18,5.18,0,0,0-.29,3.7H302.24A16.76,16.76,0,0,1,319,27.5v54a16.76,16.76,0,0,1-16.75,16.75H96.41a5.46,5.46,0,0,0,1.19,3.52l-1.13,1A6.09,6.09,0,0,0,91.65,101c-5.53,0-13.27,3.89-16.89,8.49-1.1,1.4-2.3,3.51-1.79,5.61Z" fill="#fff"/>
    <path d="M58.24,0c0,5.75,10.5,10.22,18.59,10.22,3.93,0,7.28-1.05,8.6-3.52a6.26,6.26,0,0,0-.21,4.8h217a16,16,0,0,1,16,16v54a16,16,0,0,1-16,16H95.68A6.53,6.53,0,0,0,97,102.3a6.85,6.85,0,0,0-5.39-2c-8.3,0-21,8.3-19.41,15-1-4.28-7.52-6.41-14-6.41s-13,2.13-14,6.41c1.63-6.73-11.11-15-19.41-15a6.87,6.87,0,0,0-5.39,2c5.32-6.12-5.89-23.39-14-23.39a5.11,5.11,0,0,0-1.89.35c8.11-3.2,5.23-26.89-3.37-27.8l.52,0c8.42,0,16.4-21.51,9.41-26.21a5.64,5.64,0,0,0,3.19.89c8.15,0,21.28-12.87,17.77-19.46,1.32,2.47,4.67,3.52,8.6,3.52,8.09,0,18.59-4.47,18.59-10.22m1.5,0h-3c0,4.61-9.56,8.72-17.09,8.72-3.7,0-6.35-1-7.28-2.72l-1.32.7-1.32.71c1.1,2.07-.28,5-1.21,6.5-3.37,5.63-10.64,10.75-15.24,10.75A4.12,4.12,0,0,1,10.93,24l-.84,1.24-.84,1.25c2.26,1.51,2.65,6.21,1,11.68C8.22,44.81,4,50,.68,50a2.17,2.17,0,0,1-.36,0L0,53c3,.32,5.71,5,6.57,11.34C7.48,71,6,76.68,3,77.86l1.11,2.79a3.65,3.65,0,0,1,1.33-.24c3.83,0,9.48,5.31,12.35,11.6,1.86,4.08,2.06,7.56.54,9.31l1.13,1,1.13,1a5.39,5.39,0,0,1,4.26-1.5c5.24,0,12.86,3.83,16.3,8.21,1,1.26,2.09,3.15,1.65,5l2.92.71c.74-3,6-5.26,12.54-5.26s11.8,2.21,12.54,5.26l1.46-.35L73.7,115c-.44-1.81.66-3.7,1.65-5,3.44-4.38,11.06-8.21,16.3-8.21a5.39,5.39,0,0,1,4.26,1.5l2.26-2a4.35,4.35,0,0,1-1-2.28h205a17.52,17.52,0,0,0,17.5-17.5v-54A17.52,17.52,0,0,0,302.24,10H86.41a4.12,4.12,0,0,1,.34-2.59L84.11,6c-.93,1.73-3.58,2.72-7.28,2.72C69.3,8.72,59.74,4.61,59.74,0Z"/>
  </g>
</svg>
