<svg xmlns="http://www.w3.org/2000/svg" viewBox="0 0 568 136">
  <g>
    <g>
      <path d="M71.41,124.09,49,76.28a.63.63,0,0,0-.64-.48h-23a.57.57,0,0,0-.64.64v47.17a1.41,1.41,0,0,1-1.59,1.59H11a1.41,1.41,0,0,1-1.59-1.59V14.88A1.41,1.41,0,0,1,11,13.28H54a34.52,34.52,0,0,1,16.87,4A28.16,28.16,0,0,1,82.12,28.47a33.63,33.63,0,0,1,4,16.63q0,11.19-5.84,18.95A28.63,28.63,0,0,1,64.06,74.52c-.43.22-.54.48-.32.8l23.18,48a1.87,1.87,0,0,1,.16.8c0,.74-.43,1.11-1.28,1.11H73.17A1.75,1.75,0,0,1,71.41,124.09ZM24.72,27.2V63a.57.57,0,0,0,.64.64h26.7q8.47,0,13.6-5t5.11-13.35q0-8.48-5.11-13.59t-13.6-5.11H25.36A.57.57,0,0,0,24.72,27.2Z"/>
      <path d="M180.13,26.56H123.37a.56.56,0,0,0-.64.64V61.57a.56.56,0,0,0,.64.64h48.08a1.42,1.42,0,0,1,1.6,1.6V73.88a1.42,1.42,0,0,1-1.6,1.6H123.37a.57.57,0,0,0-.64.64v35.17a.56.56,0,0,0,.64.64h56.76a1.42,1.42,0,0,1,1.6,1.6v10.08a1.41,1.41,0,0,1-1.6,1.59H109a1.41,1.41,0,0,1-1.6-1.59V14.88a1.42,1.42,0,0,1,1.6-1.6h71.15a1.42,1.42,0,0,1,1.6,1.6V25A1.42,1.42,0,0,1,180.13,26.56Z"/>
      <path d="M284.91,123.61V14.88a1.41,1.41,0,0,1,1.59-1.6h12.16a1.41,1.41,0,0,1,1.59,1.6v96.41a.57.57,0,0,0,.64.64h55.16a1.42,1.42,0,0,1,1.6,1.6v10.08a1.41,1.41,0,0,1-1.6,1.59H286.5A1.41,1.41,0,0,1,284.91,123.61Z"/>
      <path d="M447.35,123.93l-8.87-28.74a.63.63,0,0,0-.64-.48H399.22a.62.62,0,0,0-.64.48l-8.95,28.74a1.86,1.86,0,0,1-1.92,1.27H374.76c-1.18,0-1.6-.58-1.28-1.75l35-108.89a1.87,1.87,0,0,1,1.92-1.28h16a1.87,1.87,0,0,1,1.92,1.28l35.33,108.89.16.64c0,.74-.48,1.11-1.43,1.11H449.26A1.86,1.86,0,0,1,447.35,123.93Zm-44.7-41.61a.77.77,0,0,0,.56.24h30.47a.76.76,0,0,0,.56-.24.44.44,0,0,0,.08-.56L418.89,32.47a.52.52,0,0,0-.48-.32.5.5,0,0,0-.48.32L402.57,81.76A.45.45,0,0,0,402.65,82.32Z"/>
      <path d="M541.68,67.81q16.94,7.18,16.94,26.7,0,14.7-9.75,22.7t-25.42,8H483.64a1.41,1.41,0,0,1-1.6-1.59V14.88a1.42,1.42,0,0,1,1.6-1.6h38.53q16.64,0,25.82,7.6T557.19,43q0,17.28-15.51,23.83Q540.87,67.33,541.68,67.81ZM497.39,27.2V60.93a.56.56,0,0,0,.64.64h24.14q9.27,0,14.63-4.64t5.36-12.63q0-8.14-5.36-12.95t-14.63-4.79H498A.56.56,0,0,0,497.39,27.2Zm40.53,79.54q5.36-5,5.36-13.67T537.84,79.4q-5.45-5-14.87-5H498a.57.57,0,0,0-.64.64v36.13a.56.56,0,0,0,.64.64h25.42Q532.57,111.77,537.92,106.74Z"/>
    </g>
    <path d="M233.82,81A22.21,22.21,0,1,0,256,103.2,22.2,22.2,0,0,0,233.82,81Zm0,35.19a13,13,0,1,1,13-13A13,13,0,0,1,233.82,116.19Z"/>
    <circle cx="233.82" cy="38.6" r="22.2" transform="translate(-2.15 16.67) rotate(-4.07)"/>
  </g>
</svg>
