<svg xmlns="http://www.w3.org/2000/svg" viewBox="0 0 241.996 327.35"><g id="圖層_12" data-name="圖層 12"><path d="M242,129.047l-22.7-50-37.825,39.8,20.735,3.5a90.2,90.2,0,1,1-42.5-89.79h0A9.757,9.757,0,1,0,170.349,16.2c-.145-.087-.3-.153-.447-.232a109.742,109.742,0,1,0,51.5,109.6Z" fill="#0092d2"/><path d="M208.352,54.465A12.155,12.155,0,1,1,196.2,42.3,12.163,12.163,0,0,1,208.352,54.465Z" fill="#0092d2"/><path d="M5.445,323.762H4.395V313.469h1.05Z" fill="#0092d2"/><path d="M9.442,317.04c.019.21.033.436.043.659s.015.391.015.6h.029a2.216,2.216,0,0,1,.946-1.011,2.778,2.778,0,0,1,1.382-.393,2.418,2.418,0,0,1,1.957.76,3.037,3.037,0,0,1,.663,2.026v4.08h-1.05v-3.673a5.069,5.069,0,0,0-.072-.975,2.027,2.027,0,0,0-.291-.749,1.422,1.422,0,0,0-.563-.488,2.03,2.03,0,0,0-.893-.174,1.9,1.9,0,0,0-.763.16,1.876,1.876,0,0,0-.662.487,2.374,2.374,0,0,0-.414.83,3.71,3.71,0,0,0-.123,1.186v3.4H8.6v-5.215c0-.184-.025-.426-.035-.717s-.045-.58-.064-.79Z" fill="#0092d2"/><path d="M20.148,317.88h-1.47v5.882H17.627V317.88h-1.47v-.84h1.47v-1.854a2.751,2.751,0,0,1,.569-1.834,2.166,2.166,0,0,1,1.747-.669,4,4,0,0,1,.408.022,2.062,2.062,0,0,1,.408.08l-.175.873c-.107-.029-.213-.053-.32-.073a2.09,2.09,0,0,0-.364-.029,1.41,1.41,0,0,0-.647.131.933.933,0,0,0-.393.371,1.618,1.618,0,0,0-.16.56,4.478,4.478,0,0,0-.022.684v1.738h1.47Z" fill="#0092d2"/><path d="M28.738,320.453a3.725,3.725,0,0,1-.269,1.426,3.444,3.444,0,0,1-.749,1.135,3.393,3.393,0,0,1-1.15.749,3.891,3.891,0,0,1-1.469.269,3.851,3.851,0,0,1-1.455-.269,3.383,3.383,0,0,1-1.15-.749,3.428,3.428,0,0,1-.749-1.135,3.914,3.914,0,0,1,0-2.852,3.428,3.428,0,0,1,.749-1.135,3.383,3.383,0,0,1,1.15-.749,3.851,3.851,0,0,1,1.455-.269,3.891,3.891,0,0,1,1.469.269,3.393,3.393,0,0,1,1.15.749,3.444,3.444,0,0,1,.749,1.135A3.721,3.721,0,0,1,28.738,320.453Zm-1.047,0a3.127,3.127,0,0,0-.182-1.07,2.649,2.649,0,0,0-.517-.873,2.456,2.456,0,0,0-.815-.589A2.579,2.579,0,0,0,25.1,317.7a2.532,2.532,0,0,0-1.07.218,2.475,2.475,0,0,0-.807.589,2.615,2.615,0,0,0-.517.873,3.233,3.233,0,0,0,0,2.139,2.6,2.6,0,0,0,.517.873,2.36,2.36,0,0,0,.807.582,2.593,2.593,0,0,0,1.07.211,2.642,2.642,0,0,0,1.076-.211,2.344,2.344,0,0,0,.815-.582,2.628,2.628,0,0,0,.517-.873A3.117,3.117,0,0,0,27.691,320.453Z" fill="#0092d2"/><path d="M31.105,317.83c-.01-.291.026-.58.006-.79h.946c.019.21.034.436.044.659s.014.391.014.6h.029a2.337,2.337,0,0,1,.873-1.011,2.4,2.4,0,0,1,1.31-.393c.126,0,.24-.006.342,0a1.88,1.88,0,0,1,.313.053l-.131.943a1.978,1.978,0,0,0-.291-.06,2.948,2.948,0,0,0-.408-.03,2.033,2.033,0,0,0-.756.145,1.618,1.618,0,0,0-.633.457,2.407,2.407,0,0,0-.456.8,3.559,3.559,0,0,0-.187,1.168v3.388H31.07v-5.215C31.07,318.363,31.115,318.121,31.105,317.83Z" fill="#0092d2"/><path d="M38.849,317.289A2.531,2.531,0,0,1,40.2,316.9a2.952,2.952,0,0,1,.575.047,1.827,1.827,0,0,1,.582.22,2.106,2.106,0,0,1,.523.441,2.465,2.465,0,0,1,.415.711,2.579,2.579,0,0,1,.953-1.07,2.687,2.687,0,0,1,1.433-.371,2.367,2.367,0,0,1,1.931.771,3.056,3.056,0,0,1,.637,2.037v4.08H46.193v-3.673a3.3,3.3,0,0,0-.358-1.731,1.43,1.43,0,0,0-1.34-.655,1.659,1.659,0,0,0-1.49.793,2.531,2.531,0,0,0-.3.807,4.217,4.217,0,0,0-.078.932v3.527H41.572v-3.877a5.156,5.156,0,0,0-.063-.9,1.86,1.86,0,0,0-.25-.691,1.185,1.185,0,0,0-.5-.436,1.889,1.889,0,0,0-.814-.153,1.705,1.705,0,0,0-.7.16,1.848,1.848,0,0,0-.64.487,2.492,2.492,0,0,0-.441.83A3.622,3.622,0,0,0,38,320.366v3.4H36.951v-5.215c0-.184.009-.426,0-.717s-.011-.58-.03-.79h.946c.019.21.034.436.043.659s.015.391.015.6h.029A2.292,2.292,0,0,1,38.849,317.289Z" fill="#0092d2"/><path d="M54.385,319.451a1.709,1.709,0,0,0-.451-1.315,1.9,1.9,0,0,0-1.346-.433,2.913,2.913,0,0,0-1.132.218,2.73,2.73,0,0,0-.886.582l-.552-.655a3.273,3.273,0,0,1,1.114-.7,4.188,4.188,0,0,1,1.564-.276,3.413,3.413,0,0,1,1.033.152,2.439,2.439,0,0,1,.844.459,2.17,2.17,0,0,1,.613.771,2.692,2.692,0,0,1,.249,1.091v2.983c0,.262-.035.485-.016.767a3.549,3.549,0,0,0,.042.665h-.888a2.225,2.225,0,0,1-.072-.511,4.682,4.682,0,0,1-.029-.54h-.03a3.281,3.281,0,0,1-1.054,1,3.109,3.109,0,0,1-1.419.308,3.15,3.15,0,0,1-.808-.1,2.262,2.262,0,0,1-.756-.355,2.038,2.038,0,0,1-.568-.641,1.916,1.916,0,0,1-.225-.963,1.833,1.833,0,0,1,.4-1.248,2.4,2.4,0,0,1,1.069-.686,6.168,6.168,0,0,1,1.521-.292c.577-.044,1.153-.066,1.783-.066Zm-.263.95c-.407,0-.817.043-1.229.077a5.323,5.323,0,0,0-1.12.217,2.121,2.121,0,0,0-.823.45,1,1,0,0,0-.32.774,1.235,1.235,0,0,0,.139.613,1.125,1.125,0,0,0,.371.4,1.583,1.583,0,0,0,.516.219,2.586,2.586,0,0,0,.575.065,2.268,2.268,0,0,0,.931-.181,1.969,1.969,0,0,0,.684-.5,2.168,2.168,0,0,0,.408-.72,2.529,2.529,0,0,0,.131-.859V320.4Z" fill="#0092d2"/><path d="M61.317,317.88H59.426v3.97a2.143,2.143,0,0,0,.1.625.9.9,0,0,0,.223.386.74.74,0,0,0,.333.189,1.585,1.585,0,0,0,.411.051,1.725,1.725,0,0,0,.431-.058,2.194,2.194,0,0,0,.43-.16l.044.858a2.942,2.942,0,0,1-.546.153,3.5,3.5,0,0,1-.618.051,2.492,2.492,0,0,1-.582-.073,1.454,1.454,0,0,1-.567-.276,1.421,1.421,0,0,1-.38-.553,2.218,2.218,0,0,1-.117-.917V317.88h-1.47v-.84h1.47v-1.89h.84v1.89h1.891Z" fill="#0092d2"/><path d="M64.613,314.429a.646.646,0,0,1-.218.5.684.684,0,0,1-.961,0,.687.687,0,0,1,0-1,.687.687,0,0,1,.961,0A.646.646,0,0,1,64.613,314.429Zm-.146,9.333h-1.05V317.04h1.05Z" fill="#0092d2"/><path d="M74.1,320.453a3.707,3.707,0,0,1-.27,1.426,3.428,3.428,0,0,1-.749,1.135,3.389,3.389,0,0,1-1.149.749,3.9,3.9,0,0,1-1.47.269,3.851,3.851,0,0,1-1.455-.269,3.389,3.389,0,0,1-1.149-.749,3.431,3.431,0,0,1-.75-1.135,3.914,3.914,0,0,1,0-2.852,3.431,3.431,0,0,1,.75-1.135,3.389,3.389,0,0,1,1.149-.749,3.851,3.851,0,0,1,1.455-.269,3.9,3.9,0,0,1,1.47.269,3.389,3.389,0,0,1,1.149.749,3.428,3.428,0,0,1,.749,1.135A3.7,3.7,0,0,1,74.1,320.453Zm-1.048,0a3.127,3.127,0,0,0-.182-1.07,2.629,2.629,0,0,0-.516-.873,2.466,2.466,0,0,0-.815-.589,2.581,2.581,0,0,0-1.077-.218,2.527,2.527,0,0,0-1.069.218,2.469,2.469,0,0,0-.808.589,2.629,2.629,0,0,0-.516.873,3.233,3.233,0,0,0,0,2.139,2.61,2.61,0,0,0,.516.873,2.354,2.354,0,0,0,.808.582,2.589,2.589,0,0,0,1.069.211,2.644,2.644,0,0,0,1.077-.211,2.353,2.353,0,0,0,.815-.582,2.61,2.61,0,0,0,.516-.873A3.117,3.117,0,0,0,73.055,320.453Z" fill="#0092d2"/><path d="M77.422,317.04c.019.21.033.436.043.659s.015.391.015.6h.029a2.216,2.216,0,0,1,.946-1.011,2.778,2.778,0,0,1,1.382-.393,2.5,2.5,0,0,1,1.995.76,3.059,3.059,0,0,1,.7,2.026v4.08h-1.05v-3.673a4.923,4.923,0,0,0-.109-.975,2.06,2.06,0,0,0-.309-.749,1.452,1.452,0,0,0-.573-.488,2.05,2.05,0,0,0-.9-.174,1.909,1.909,0,0,0-.765.16,1.889,1.889,0,0,0-.663.487,2.461,2.461,0,0,0-.482.83,3.575,3.575,0,0,0-.192,1.186v3.4H76.44v-5.215c0-.184.042-.426.032-.717s.023-.58,0-.79Z" fill="#0092d2"/><path d="M90.093,313.469h3.465a6.2,6.2,0,0,1,1.928.364,5.378,5.378,0,0,1,1.746.989,4.965,4.965,0,0,1,1.259,1.626,5.542,5.542,0,0,1,0,4.512,4.949,4.949,0,0,1-1.259,1.609,5.207,5.207,0,0,1-1.746.92,6.051,6.051,0,0,1-1.928.273H90.093Zm1.05,9.452h2.124a5.209,5.209,0,0,0,2.03-.361,4.221,4.221,0,0,0,1.433-.952,3.877,3.877,0,0,0,.851-1.345,4.407,4.407,0,0,0,0-3.113,3.9,3.9,0,0,0-.851-1.346,4.206,4.206,0,0,0-1.433-.937,5.234,5.234,0,0,0-2.03-.347H91.143Z" fill="#0092d2"/><path d="M107.736,320.249v.218a.2.2,0,0,1-.064.144h-5.646a2.6,2.6,0,0,0,.2,1.012,2.521,2.521,0,0,0,.524.812,2.567,2.567,0,0,0,.785.544,2.581,2.581,0,0,0,2.307-.15,2.663,2.663,0,0,0,.851-.821l.742.583a3.7,3.7,0,0,1-1.346,1.106,3.766,3.766,0,0,1-1.579.335,3.632,3.632,0,0,1-1.4-.269,3.275,3.275,0,0,1-1.113-.749,3.555,3.555,0,0,1-.735-1.135,3.725,3.725,0,0,1-.269-1.426,3.8,3.8,0,0,1,.262-1.426,3.468,3.468,0,0,1,.727-1.135,3.339,3.339,0,0,1,1.092-.749,3.377,3.377,0,0,1,1.353-.269,3.462,3.462,0,0,1,1.411.269,2.909,2.909,0,0,1,1.019.727,3.182,3.182,0,0,1,.643,1.07A3.983,3.983,0,0,1,107.736,320.249Zm-1.054-.268a2.546,2.546,0,0,0-.618-1.619,2.106,2.106,0,0,0-1.637-.646,2.3,2.3,0,0,0-.917.175,2.421,2.421,0,0,0-.742.492,2.564,2.564,0,0,0-.509.737,1.868,1.868,0,0,0-.218.861Z" fill="#0092d2"/><path d="M113.861,318.663a1.739,1.739,0,0,0-.662-.691,1.915,1.915,0,0,0-1.011-.269,2.4,2.4,0,0,0-.524.058,1.43,1.43,0,0,0-.465.189,1.039,1.039,0,0,0-.328.335.912.912,0,0,0-.123.48.825.825,0,0,0,.392.735,3.759,3.759,0,0,0,1.237.429,4.141,4.141,0,0,1,1.783.72,1.565,1.565,0,0,1,.574,1.274,1.879,1.879,0,0,1-.814,1.636,2.385,2.385,0,0,1-.823.364,3.956,3.956,0,0,1-.924.109,3.689,3.689,0,0,1-1.5-.32,2.77,2.77,0,0,1-1.193-1l.785-.582a2.22,2.22,0,0,0,1.892,1.062,3.1,3.1,0,0,0,.611-.058,1.384,1.384,0,0,0,.509-.2,1.112,1.112,0,0,0,.35-.372,1.1,1.1,0,0,0,.13-.56.864.864,0,0,0-.516-.807,6.73,6.73,0,0,0-1.492-.5c-.2-.049-.419-.109-.647-.182a2.246,2.246,0,0,1-.633-.32,1.748,1.748,0,0,1-.48-.531,1.554,1.554,0,0,1-.189-.8,1.828,1.828,0,0,1,.2-.894,1.786,1.786,0,0,1,.546-.612,2.439,2.439,0,0,1,.778-.356,3.478,3.478,0,0,1,.9-.116,3.159,3.159,0,0,1,1.382.32,2.226,2.226,0,0,1,1,.9Z" fill="#0092d2"/><path d="M118.254,314.429a.646.646,0,0,1-.218.5.684.684,0,0,1-.961,0,.687.687,0,0,1,0-1,.687.687,0,0,1,.961,0A.646.646,0,0,1,118.254,314.429Zm-.225,9.333h-1.051V317.04h1.051Z" fill="#0092d2"/><path d="M121.341,325.225a3.3,3.3,0,0,0,1.113.888,3.442,3.442,0,0,0,2.729.153,2.16,2.16,0,0,0,.822-.575,2.328,2.328,0,0,0,.474-.851,3.622,3.622,0,0,0,.161-1.04v-1.3h-.061a2.659,2.659,0,0,1-1.113,1,3.334,3.334,0,0,1-1.462.353,3.846,3.846,0,0,1-1.448-.259,3.294,3.294,0,0,1-1.106-.72,3.2,3.2,0,0,1-.712-1.1,3.832,3.832,0,0,1,0-2.749,3.442,3.442,0,0,1,.712-1.12,3.294,3.294,0,0,1,1.106-.757,3.661,3.661,0,0,1,1.448-.276,3.321,3.321,0,0,1,1.455.386,2.867,2.867,0,0,1,1.12,1.04h.061v-1.26h1.051v6.76a5.212,5.212,0,0,1-.2,1.178,3.04,3.04,0,0,1-.591,1.15,3.264,3.264,0,0,1-1.139.873,4.254,4.254,0,0,1-1.854.349,4.6,4.6,0,0,1-1.807-.364,4.351,4.351,0,0,1-1.471-1Zm.189-4.859a2.963,2.963,0,0,0,.175,1.018,2.544,2.544,0,0,0,.5.844,2.331,2.331,0,0,0,.808.575,2.678,2.678,0,0,0,1.091.211,2.842,2.842,0,0,0,1.048-.189,2.4,2.4,0,0,0,.829-.539,2.474,2.474,0,0,0,.546-.836,2.9,2.9,0,0,0,.2-1.084,2.653,2.653,0,0,0-1.571-2.445,2.515,2.515,0,0,0-1.048-.218,2.614,2.614,0,0,0-1.091.218,2.428,2.428,0,0,0-.808.582,2.554,2.554,0,0,0-.5.844A2.969,2.969,0,0,0,121.53,320.366Z" fill="#0092d2"/><path d="M131.359,317.04c.019.21.034.436.044.659s.014.391.014.6h.029a2.221,2.221,0,0,1,.946-1.011,2.782,2.782,0,0,1,1.383-.393,2.321,2.321,0,0,1,1.911.76,3.023,3.023,0,0,1,.616,2.026v4.08h-.84v-3.673a4.78,4.78,0,0,0-.131-.975,2.055,2.055,0,0,0-.32-.749,1.453,1.453,0,0,0-.578-.488,2.063,2.063,0,0,0-.9-.174,1.9,1.9,0,0,0-1.431.647,2.447,2.447,0,0,0-.461.83,3.631,3.631,0,0,0-.17,1.186v3.4h-1.05v-5.215c0-.184.02-.426.011-.717s0-.58-.019-.79Z" fill="#0092d2"/><path d="M152.748,322.184a4.239,4.239,0,0,1-.633.743,4.1,4.1,0,0,1-.858.616,4.774,4.774,0,0,1-1.077.422,5.069,5.069,0,0,1-1.288.155,5.59,5.59,0,0,1-2.153-.408,5.076,5.076,0,0,1-1.7-1.127,5.139,5.139,0,0,1-1.114-1.71,5.745,5.745,0,0,1-.4-2.168,5.633,5.633,0,0,1,.408-2.168,5.1,5.1,0,0,1,2.83-2.837,5.5,5.5,0,0,1,2.131-.408,5.284,5.284,0,0,1,1.113.118,5.222,5.222,0,0,1,1.026.333,4.373,4.373,0,0,1,.873.515,3.019,3.019,0,0,1,.655.678l-.873.641a2.631,2.631,0,0,0-.429-.5,2.94,2.94,0,0,0-.633-.437,3.944,3.944,0,0,0-.793-.305,3.5,3.5,0,0,0-.924-.117,4.273,4.273,0,0,0-1.8.363,4.044,4.044,0,0,0-1.346.979A4.265,4.265,0,0,0,144.92,317a5.033,5.033,0,0,0-.291,1.711,4.919,4.919,0,0,0,.3,1.711,4.369,4.369,0,0,0,.852,1.429,4.04,4.04,0,0,0,1.345.979,4.237,4.237,0,0,0,1.783.362,4.044,4.044,0,0,0,1.688-.363,3.209,3.209,0,0,0,1.338-1.164Z" fill="#0092d2"/><path d="M161.728,320.453a3.706,3.706,0,0,1-.269,1.426,3.428,3.428,0,0,1-.749,1.135,3.383,3.383,0,0,1-1.15.749,3.891,3.891,0,0,1-1.469.269,3.851,3.851,0,0,1-1.455-.269,3.393,3.393,0,0,1-1.15-.749,3.428,3.428,0,0,1-.749-1.135,3.914,3.914,0,0,1,0-2.852,3.428,3.428,0,0,1,.749-1.135,3.393,3.393,0,0,1,1.15-.749,3.851,3.851,0,0,1,1.455-.269,3.891,3.891,0,0,1,1.469.269,3.383,3.383,0,0,1,1.15.749,3.428,3.428,0,0,1,.749,1.135A3.7,3.7,0,0,1,161.728,320.453Zm-1.047,0a3.127,3.127,0,0,0-.182-1.07,2.649,2.649,0,0,0-.517-.873,2.452,2.452,0,0,0-.814-.589,2.587,2.587,0,0,0-1.077-.218,2.532,2.532,0,0,0-1.07.218,2.475,2.475,0,0,0-.807.589,2.649,2.649,0,0,0-.517.873,3.233,3.233,0,0,0,0,2.139,2.628,2.628,0,0,0,.517.873,2.36,2.36,0,0,0,.807.582,2.593,2.593,0,0,0,1.07.211,2.65,2.65,0,0,0,1.077-.211,2.34,2.34,0,0,0,.814-.582,2.628,2.628,0,0,0,.517-.873A3.117,3.117,0,0,0,160.681,320.453Z" fill="#0092d2"/><path d="M165.047,317.04c.02.21.034.436.044.659s.014.391.014.6h.03a2.214,2.214,0,0,1,.945-1.011,2.785,2.785,0,0,1,1.383-.393,2.461,2.461,0,0,1,1.976.76,3.05,3.05,0,0,1,.681,2.026v4.08h-1.051v-3.673a4.994,4.994,0,0,0-.09-.975,2.035,2.035,0,0,0-.3-.749,1.43,1.43,0,0,0-.568-.488,2.039,2.039,0,0,0-.895-.174,1.9,1.9,0,0,0-.764.16,1.88,1.88,0,0,0-.663.487,2.508,2.508,0,0,0-.5.83,3.582,3.582,0,0,0-.209,1.186v3.4h-.841v-5.215c0-.184-.044-.426-.054-.717s-.063-.58-.082-.79Z" fill="#0092d2"/><path d="M176.6,318.663a1.739,1.739,0,0,0-.662-.691,1.915,1.915,0,0,0-1.011-.269,2.4,2.4,0,0,0-.524.058,1.435,1.435,0,0,0-.466.189,1.026,1.026,0,0,0-.327.335.9.9,0,0,0-.124.48.824.824,0,0,0,.393.735,3.759,3.759,0,0,0,1.237.429,4.13,4.13,0,0,1,1.782.72,1.566,1.566,0,0,1,.575,1.274,1.978,1.978,0,0,1-.225.982,1.955,1.955,0,0,1-.59.654,2.371,2.371,0,0,1-.822.364,3.956,3.956,0,0,1-.924.109,3.685,3.685,0,0,1-1.5-.32,2.764,2.764,0,0,1-1.193-1l.785-.582a2.22,2.22,0,0,0,1.892,1.062,3.1,3.1,0,0,0,.611-.058,1.384,1.384,0,0,0,.509-.2,1.048,1.048,0,0,0,.48-.932.864.864,0,0,0-.516-.807,6.73,6.73,0,0,0-1.492-.5c-.2-.049-.419-.109-.647-.182a2.246,2.246,0,0,1-.633-.32,1.748,1.748,0,0,1-.48-.531,1.554,1.554,0,0,1-.19-.8,1.829,1.829,0,0,1,.2-.894,1.786,1.786,0,0,1,.546-.612,2.439,2.439,0,0,1,.778-.356,3.47,3.47,0,0,1,.9-.116,3.164,3.164,0,0,1,1.383.32,2.226,2.226,0,0,1,1,.9Z" fill="#0092d2"/><path d="M184.729,323.762a3.453,3.453,0,0,1-.043-.555c-.01-.223-.015-.286-.015-.5h-.029a2.108,2.108,0,0,1-.946.959,2.759,2.759,0,0,1-1.382.367,2.332,2.332,0,0,1-1.914-.774,3.06,3.06,0,0,1-.618-2.039V317.04h.84v3.777a4.845,4.845,0,0,0,.133.975,2.056,2.056,0,0,0,.321.749,1.453,1.453,0,0,0,.579.487,2.049,2.049,0,0,0,.9.175,1.914,1.914,0,0,0,.766-.16,1.874,1.874,0,0,0,.664-.488,2.43,2.43,0,0,0,.459-.829,3.638,3.638,0,0,0,.168-1.186v-3.5h1.05v5.319c0,.184-.018.374-.009.665s0,.528.021.738Z" fill="#0092d2"/><path d="M189.444,323.762h-.84V312.839h.84Z" fill="#0092d2"/><path d="M195.745,317.88h-1.89v3.97a2.216,2.216,0,0,0,.077.625.887.887,0,0,0,.213.386.726.726,0,0,0,.329.189,1.562,1.562,0,0,0,.408.051,1.7,1.7,0,0,0,.429-.058,2.171,2.171,0,0,0,.43-.16l.043.858a2.91,2.91,0,0,1-.545.153,3.5,3.5,0,0,1-.618.051,2.494,2.494,0,0,1-.583-.073,1.467,1.467,0,0,1-.567-.276,1.579,1.579,0,0,1-.464-.553,2.1,2.1,0,0,1-.2-.917V317.88h-1.26v-.84h1.26v-1.89h1.051v1.89h1.89Z" fill="#0092d2"/><path d="M202.256,319.451a1.709,1.709,0,0,0-.45-1.315,1.9,1.9,0,0,0-1.345-.433,2.916,2.916,0,0,0-1.132.218,2.715,2.715,0,0,0-.885.582l-.552-.655a3.268,3.268,0,0,1,1.113-.7,4.194,4.194,0,0,1,1.565-.276,3.417,3.417,0,0,1,1.033.152,2.457,2.457,0,0,1,.844.459,2.179,2.179,0,0,1,.612.771,2.708,2.708,0,0,1,.248,1.091v2.983c0,.262-.035.485-.015.767a3.511,3.511,0,0,0,.043.665h-.888a2.264,2.264,0,0,1-.073-.511,4.917,4.917,0,0,1-.029-.54h-.029a3.283,3.283,0,0,1-1.055,1,3.109,3.109,0,0,1-1.419.308,3.148,3.148,0,0,1-.807-.1,2.267,2.267,0,0,1-.757-.355,2.023,2.023,0,0,1-.567-.641,1.906,1.906,0,0,1-.226-.963,1.833,1.833,0,0,1,.4-1.248,2.393,2.393,0,0,1,1.069-.686,6.151,6.151,0,0,1,1.52-.292c.577-.044,1.151-.066,1.781-.066Zm-.26.95c-.407,0-.817.043-1.229.077a5.333,5.333,0,0,0-1.121.217,2.117,2.117,0,0,0-.822.45,1,1,0,0,0-.32.774,1.246,1.246,0,0,0,.138.613,1.134,1.134,0,0,0,.371.4,1.589,1.589,0,0,0,.517.219,2.578,2.578,0,0,0,.574.065,2.269,2.269,0,0,0,.932-.181,1.988,1.988,0,0,0,.684-.5,2.163,2.163,0,0,0,.406-.72,2.528,2.528,0,0,0,.13-.859V320.4Z" fill="#0092d2"/><path d="M206.943,317.04c.019.21.034.436.044.659s.014.391.014.6h.029a2.221,2.221,0,0,1,.946-1.011,2.781,2.781,0,0,1,1.382-.393,2.356,2.356,0,0,1,1.928.76,3.029,3.029,0,0,1,.632,2.026v4.08h-1.05v-3.673a5.213,5.213,0,0,0-.042-.975,2.032,2.032,0,0,0-.275-.749,1.4,1.4,0,0,0-.556-.488,2.013,2.013,0,0,0-.89-.174,1.879,1.879,0,0,0-1.421.647,2.392,2.392,0,0,0-.444.83,3.657,3.657,0,0,0-.153,1.186v3.4h-1.05v-5.215c0-.184,0-.426,0-.717s-.015-.58-.035-.79Z" fill="#0092d2"/><path d="M219.756,318.605a1.873,1.873,0,0,0-.72-.647,2.132,2.132,0,0,0-1.026-.255,2.644,2.644,0,0,0-1.077.211,2.447,2.447,0,0,0-.822.582,2.547,2.547,0,0,0-.524.873,3.166,3.166,0,0,0-.182,1.084,3.106,3.106,0,0,0,.182,1.077,2.625,2.625,0,0,0,.517.865,2.344,2.344,0,0,0,.815.582,2.639,2.639,0,0,0,1.076.211,2.17,2.17,0,0,0,1.848-.887l.742.553a3.234,3.234,0,0,1-1.069.858,3.342,3.342,0,0,1-1.521.32,3.97,3.97,0,0,1-1.5-.269,3.315,3.315,0,0,1-1.143-.749,3.391,3.391,0,0,1-.734-1.135,4.012,4.012,0,0,1,0-2.852,3.391,3.391,0,0,1,.734-1.135,3.315,3.315,0,0,1,1.143-.749,3.97,3.97,0,0,1,1.5-.269,3.552,3.552,0,0,1,1.39.3,2.724,2.724,0,0,1,1.142.88Z" fill="#0092d2"/><path d="M225.338,322.711h.029l2.109-5.671h1.077l-3.39,8.574a3.6,3.6,0,0,1-.779,1.261,1.841,1.841,0,0,1-1.36.474,4.539,4.539,0,0,1-.888-.087l.1-.9a2.279,2.279,0,0,0,.728.117,1.042,1.042,0,0,0,.8-.313,2.7,2.7,0,0,0,.509-.895l.553-1.43-2.91-6.8h1.106Z" fill="#0092d2"/><path d="M130.234,288.241V246.233H125.56v41.3c0,8.685,4.624,13.666,12.584,13.666l1.6-.054v-4.263l-1.631-.049C132.163,296.642,130.352,292.921,130.234,288.241Z" fill="#0092d2"/><path d="M163.271,261.513a20.114,20.114,0,0,0-.054,40.227c6.267,0,13.694-4.71,15.877-9.313v8.805h4.291l.086-19.629A20.167,20.167,0,0,0,163.271,261.513Zm0,35.66a15.547,15.547,0,1,1,15.546-15.546A15.546,15.546,0,0,1,163.272,297.173Z" fill="#0092d2"/><rect x="95.092" y="279.407" width="17.242" height="5.02" fill="#0092d2"/><path d="M213.7,261.513c-6.336,0-12.783,3.132-15.62,8.447V247.325H193.71v53.907h4.365v-8.316a17.857,17.857,0,0,0,15.62,8.824,20.114,20.114,0,0,0,0-40.227Zm-.05,35.66a15.547,15.547,0,1,1,15.546-15.546A15.547,15.547,0,0,1,213.645,297.173Z" fill="#0092d2"/><path d="M82.937,281.5a20.139,20.139,0,0,0-40.278,0h0a20.021,20.021,0,0,0,20.105,20.165c7.794,0,15.214-4.358,18.553-10.905H75.685a15.879,15.879,0,0,1-12.93,6.135c-7.708,0-14.65-4.607-15.5-12.464H82.672a22.412,22.412,0,0,0,.265-2.962ZM62.755,266.068a15.561,15.561,0,0,1,15.357,13.121H47.4A15.561,15.561,0,0,1,62.755,266.068Z" fill="#0092d2"/><path d="M37.025,263.136c0-9.949-6.637-17.616-18-17.988h0L0,245.127v56.105H4.65V281.153l13.094.01a1.369,1.369,0,0,1,1.111.514c.454.737.1.172,12.607,19.555h5.421s-13.05-20.058-13.17-20.256c-.089-.147-.188-.287-.024-.356h0C32.077,278.7,37.025,271.611,37.025,263.136ZM4.65,249.386l12.906.024s.079,0,.144,0c10.872.25,14.9,6.486,14.9,13.718,0,7.689-5.07,13.256-14.515,13.39H4.7Z" fill="#0092d2"/></g></svg>