<svg xmlns="http://www.w3.org/2000/svg" viewBox="0 0 642.67 807.96">
  <g style="isolation: isolate">
    <g>
      <g>
        <line x1="91.73" y1="181.29" x2="91.73" y2="328.99" fill="none" stroke="#231815" stroke-linecap="round" stroke-linejoin="round" stroke-width="4"/>
        <line x1="112.86" y1="167.22" x2="112.86" y2="314.93" fill="none" stroke="#231815" stroke-linecap="round" stroke-linejoin="round" stroke-width="4"/>
        <line x1="133.99" y1="167.22" x2="133.99" y2="314.93" fill="none" stroke="#231815" stroke-linecap="round" stroke-linejoin="round" stroke-width="4"/>
        <line x1="155.12" y1="149.43" x2="155.12" y2="314.93" fill="none" stroke="#231815" stroke-linecap="round" stroke-linejoin="round" stroke-width="4"/>
        <line x1="176.25" y1="132.34" x2="176.25" y2="314.93" fill="none" stroke="#231815" stroke-linecap="round" stroke-linejoin="round" stroke-width="4"/>
        <line x1="197.38" y1="100.78" x2="197.38" y2="314.93" fill="none" stroke="#231815" stroke-linecap="round" stroke-linejoin="round" stroke-width="4"/>
        <line x1="218.51" y1="132.34" x2="218.51" y2="314.93" fill="none" stroke="#231815" stroke-linecap="round" stroke-linejoin="round" stroke-width="4"/>
        <line x1="239.64" y1="132.34" x2="239.64" y2="314.93" fill="none" stroke="#231815" stroke-linecap="round" stroke-linejoin="round" stroke-width="4"/>
        <line x1="260.77" y1="121.44" x2="260.77" y2="314.93" fill="none" stroke="#231815" stroke-linecap="round" stroke-linejoin="round" stroke-width="4"/>
        <line x1="281.9" y1="121.44" x2="281.9" y2="314.93" fill="none" stroke="#231815" stroke-linecap="round" stroke-linejoin="round" stroke-width="4"/>
        <line x1="303.03" y1="121.44" x2="303.03" y2="314.93" fill="none" stroke="#231815" stroke-linecap="round" stroke-linejoin="round" stroke-width="4"/>
        <line x1="324.16" y1="104.42" x2="324.16" y2="314.93" fill="none" stroke="#231815" stroke-linecap="round" stroke-linejoin="round" stroke-width="4"/>
        <line x1="345.29" y1="104.42" x2="345.29" y2="314.93" fill="none" stroke="#231815" stroke-linecap="round" stroke-linejoin="round" stroke-width="4"/>
        <line x1="366.42" y1="104.42" x2="366.42" y2="314.93" fill="none" stroke="#231815" stroke-linecap="round" stroke-linejoin="round" stroke-width="4"/>
        <line x1="387.55" y1="104.42" x2="387.55" y2="314.93" fill="none" stroke="#231815" stroke-linecap="round" stroke-linejoin="round" stroke-width="4"/>
        <line x1="408.69" y1="104.42" x2="408.69" y2="314.93" fill="none" stroke="#231815" stroke-linecap="round" stroke-linejoin="round" stroke-width="4"/>
        <line x1="429.82" y1="132.34" x2="429.82" y2="314.93" fill="none" stroke="#231815" stroke-linecap="round" stroke-linejoin="round" stroke-width="4"/>
        <line x1="450.95" y1="100.78" x2="450.95" y2="314.93" fill="none" stroke="#231815" stroke-linecap="round" stroke-linejoin="round" stroke-width="4"/>
        <line x1="472.08" y1="79.88" x2="472.08" y2="314.93" fill="none" stroke="#231815" stroke-linecap="round" stroke-linejoin="round" stroke-width="4"/>
        <line x1="493.21" y1="79.88" x2="493.21" y2="314.93" fill="none" stroke="#231815" stroke-linecap="round" stroke-linejoin="round" stroke-width="4"/>
        <line x1="514.34" y1="106.11" x2="514.34" y2="314.93" fill="none" stroke="#231815" stroke-linecap="round" stroke-linejoin="round" stroke-width="4"/>
        <line x1="535.47" y1="158.57" x2="535.47" y2="314.93" fill="none" stroke="#231815" stroke-linecap="round" stroke-linejoin="round" stroke-width="4"/>
        <line x1="556.6" y1="158.57" x2="556.6" y2="314.93" fill="none" stroke="#231815" stroke-linecap="round" stroke-linejoin="round" stroke-width="4"/>
        <line x1="577.73" y1="158.57" x2="577.73" y2="314.93" fill="none" stroke="#231815" stroke-linecap="round" stroke-linejoin="round" stroke-width="4"/>
      </g>
      <g>
        <g>
          <g>
            <g>
              <g>
                <path d="M501.45,379.9q-14.06,4.5-29.75,8a475.41,475.41,0,0,1-48.58,8.17q-58.47,6.9-133.63,3.41c-58.9-2.77-108.48-11.6-139.7-21.78.77,7.22,1.89,17.65,3.22,30,5.17,48.14,13.55,125.81,17.32,159.12,5.66,50,9.43,77.35,10.37,91.5s10.38,30.19,31.13,34,66,9.43,109.42,11.32c29.19,1.27,77.94,3.35,105-2a73.93,73.93,0,0,0,7.31-1.79c24.52-7.55,41.5-21.7,48.11-29.24s15.09-71.69,17-90.56c1.64-16.44,19-169,23.49-207.92A219,219,0,0,1,501.45,379.9Z" fill="#fef9f4"/>
                <path d="M197.56,296.72c16.12-5.69,43.35-11.15,78.27-13.13s108-2.66,145.56,2.61,72,12.54,86.46,20.45,19.11,25,6.59,36.89-33.72,31-71.83,36.28c-46,6.38-110.67,7.22-156.78,4.59s-89.59-5.93-119.24-17.79-23.05-34.94-12.51-44.16S175.16,304.62,197.56,296.72Z" fill="#f0f0f0"/>
                <path d="M566.24,326.51c-1.85-20.55-49.72-40.74-105.76-51.08-51.54-9.5-114.51-9-153.72-9-47.28,0-126.19,13.6-173.06,34.31-44.36,19.6-32,46.16-15.47,61.64,5.42,5.08,16.29,10.38,31.56,15.36,31.22,10.18,80.8,19,139.7,21.78,87.69,4.12,158.67-2.53,212-19.6a219,219,0,0,0,20.64-7.74C550.09,359.92,567.79,343.79,566.24,326.51Z" fill="#fef9f4"/>
                <path d="M501.45,379.9q-14.06,4.5-29.75,8c-4.55,50.92-17.11,191.82-18.32,207.89-1.48,19.66-5.93,78.38-11.19,88-3.62,6.57-10.64,13.63-16,17.91a73.93,73.93,0,0,0,7.31-1.79c24.52-7.55,41.5-21.7,48.11-29.24s15.09-71.69,17-90.56c1.64-16.44,19-169,23.49-207.92A219,219,0,0,1,501.45,379.9Z" fill="#fdeddd"/>
                <path d="M197.56,296.72c16.12-5.69,43.35-11.15,78.27-13.13s108-2.66,145.56,2.61,72,12.54,86.46,20.45,19.11,25,6.59,36.89-33.72,31-71.83,36.28c-46,6.38-110.67,7.22-156.78,4.59s-89.59-5.93-119.24-17.79-23.05-34.94-12.51-44.16S175.16,304.62,197.56,296.72Z" fill="#efc1a9"/>
                <path d="M197.56,296.72c16.12-5.69,43.35-11.15,78.27-13.13s108-2.66,145.56,2.61,72,12.54,86.46,20.45,19.11,25,6.59,36.89-33.72,31-71.83,36.28c-46,6.38-110.67,7.22-156.78,4.59s-89.59-5.93-119.24-17.79-23.05-34.94-12.51-44.16S175.16,304.62,197.56,296.72Z" fill="none" stroke="#231815" stroke-linecap="round" stroke-linejoin="round" stroke-width="3.6"/>
                <path d="M501.45,379.9q-14.06,4.5-29.75,8a475.41,475.41,0,0,1-48.58,8.17q-58.47,6.9-133.63,3.41c-58.9-2.77-108.48-11.6-139.7-21.78.77,7.22,1.89,17.65,3.22,30,5.17,48.14,13.55,125.81,17.32,159.12,5.66,50,9.43,77.35,10.37,91.5s10.38,30.19,31.13,34,66,9.43,109.42,11.32c29.19,1.27,77.94,3.35,105-2a73.93,73.93,0,0,0,7.31-1.79c24.52-7.55,41.5-21.7,48.11-29.24s15.09-71.69,17-90.56c1.64-16.44,19-169,23.49-207.92A219,219,0,0,1,501.45,379.9Z" fill="none" stroke="#231815" stroke-linecap="round" stroke-linejoin="round" stroke-width="3.6"/>
                <path d="M566.24,326.51c-1.85-20.55-49.72-40.74-105.76-51.08-51.54-9.5-114.51-9-153.72-9-47.28,0-126.19,13.6-173.06,34.31-44.36,19.6-32,46.16-15.47,61.64,5.42,5.08,16.29,10.38,31.56,15.36,31.22,10.18,80.8,19,139.7,21.78,87.69,4.12,158.67-2.53,212-19.6a219,219,0,0,0,20.64-7.74C550.09,359.92,567.79,343.79,566.24,326.51Z" fill="none" stroke="#231815" stroke-linecap="round" stroke-linejoin="round" stroke-width="3.6"/>
              </g>
              <path d="M271.4,379.45c-8.58-2.71-15.31-5.56-19.29-8.09-18.22-11.58-29.84-10.32-42.36,5.56l-.4.53c22.51,3.4,48,5.12,74.26,6.63,12.91.73,27.28,1.2,42.28,1.35-9.83-3.79-19.3-7.31-27.38-8.59C285.92,374.85,280.79,382.41,271.4,379.45Z" fill="#f8f8f8"/>
              <path d="M271.4,379.45c-8.58-2.71-15.31-5.56-19.29-8.09-18.22-11.58-29.84-10.32-42.36,5.56l-.4.53c22.51,3.4,48,5.12,74.26,6.63,12.91.73,27.28,1.2,42.28,1.35-9.83-3.79-19.3-7.31-27.38-8.59C285.92,374.85,280.79,382.41,271.4,379.45Z" fill="none" stroke="#231815" stroke-linecap="round" stroke-linejoin="round" stroke-width="3.6"/>
              <path d="M207.38,329.17c4.13,4.37,11.21,18.75-3.5,18.23-9.65-.34-8.91-11.79-9.6-18.45-.76-7.27-2.13-18.62,3.74-18.41C205.47,310.8,201.9,323.37,207.38,329.17Z" fill="#f8f8f8"/>
              <path d="M207.38,329.17c4.13,4.37,11.21,18.75-3.5,18.23-9.65-.34-8.91-11.79-9.6-18.45-.76-7.27-2.13-18.62,3.74-18.41C205.47,310.8,201.9,323.37,207.38,329.17Z" fill="none" stroke="#231815" stroke-linecap="round" stroke-linejoin="round" stroke-width="3.6"/>
              <path d="M483.48,351.12c-.12-8.76,4.74-24.36-4-27.43-9.16-3.2-10.08,9.86-11.22,19.14-.82,6.63,4.42,14.08-5.52,24.24a9,9,0,0,0-2.18,9,116.73,116.73,0,0,0,22.14-8.85A109.22,109.22,0,0,0,483.48,351.12Z" fill="#f8f8f8"/>
              <path d="M483.48,351.12c-.12-8.76,4.74-24.36-4-27.43-9.16-3.2-10.08,9.86-11.22,19.14-.82,6.63,4.42,14.08-5.52,24.24a9,9,0,0,0-2.18,9,116.73,116.73,0,0,0,22.14-8.85A109.22,109.22,0,0,0,483.48,351.12Z" fill="none" stroke="#231815" stroke-linecap="round" stroke-linejoin="round" stroke-width="3.6"/>
            </g>
            <g>
              <path d="M568.46,326c-1.85-21.71-49.07-44-105.15-54.23l-2.05-.38c-24.28-4.3-30.64-35.6-47.78-71.45-9.23-19.3-36.09-44.49-63-45.33-15.52-.48-20.33-21.94-39.79-15.69-22.45,7.21-17.79,29.2-35.76,44.23-54.63,45.71-31.48,135.5,7.13,177.47,15.4,16.74,51.94,36.06,77.71,41.68A59.27,59.27,0,0,0,374,403.93c54.24-1.84,91.38-8.2,128.76-20.83a212.56,212.56,0,0,0,20.92-8.26C552.1,361.74,570,344.5,568.46,326Z" fill="#ea7142"/>
              <path d="M279.79,178.41l.76-.9Z" fill="#231815" opacity="0.1" style="mix-blend-mode: multiply"/>
              <path d="M283.13,174c.27-.41.53-.81.78-1.22C283.66,173.16,283.4,173.56,283.13,174Z" fill="#231815" opacity="0.1" style="mix-blend-mode: multiply"/>
              <path d="M282.11,175.46l.71-1Z" fill="#231815" opacity="0.1" style="mix-blend-mode: multiply"/>
              <path d="M278.48,179.87l.82-.89Z" fill="#231815" opacity="0.1" style="mix-blend-mode: multiply"/>
              <path d="M275,183.17c.54-.44,1-.9,1.55-1.36C276,182.27,275.52,182.73,275,183.17Z" fill="#231815" opacity="0.1" style="mix-blend-mode: multiply"/>
              <path d="M281,176.94l.72-.94Z" fill="#231815" opacity="0.1" style="mix-blend-mode: multiply"/>
              <path d="M279.29,180c-54.21,45.35-31.24,134.45,7.07,176.09,15.28,16.61,51.54,35.79,77.11,41.37l.2,0,99.64-125.68-2.05-.38c-24.28-4.3-30.64-35.6-47.78-71.45-9.23-19.3-36.09-44.49-63-45.33-15.52-.48-20.33-21.94-39.79-15.69a31.47,31.47,0,0,0-6.1,2.67C293.45,151.3,293.73,167.9,279.29,180Z" fill="#d8613d"/>
              <path d="M304.64,141.61c-11.79,6.79-13.5,19.32-20.55,30.86C291.14,160.94,292.85,148.4,304.64,141.61Z" fill="#231815" opacity="0.1" style="mix-blend-mode: multiply"/>
              <path d="M278,180.41c-.31.32-.63.63-1,.94C277.33,181,277.65,180.73,278,180.41Z" fill="#231815" opacity="0.1" style="mix-blend-mode: multiply"/>
              <path d="M276.53,181.81l.47-.46Z" fill="#fff"/>
              <path d="M279.3,179l.49-.57Z" fill="#fff"/>
              <path d="M282.82,174.43c.11-.15.21-.31.31-.46C283,174.12,282.93,174.28,282.82,174.43Z" fill="#fff"/>
              <polygon points="304.64 141.61 304.63 141.61 304.64 141.61 304.64 141.61" fill="#fff"/>
              <path d="M283.91,172.75l.18-.28Z" fill="#fff"/>
              <path d="M280.55,177.51l.45-.57Z" fill="#fff"/>
              <path d="M281.72,176l.39-.54Z" fill="#fff"/>
              <path d="M278.48,179.87l-.52.54Z" fill="#fff"/>
              <path d="M526.1,370.15a212.78,212.78,0,0,1-20.76,8.21c-37.1,12.53-73.95,18.84-127.77,20.66a58.42,58.42,0,0,1-13.9-1.55l-.2,0c-25.57-5.58-61.83-24.76-77.11-41.37-38.31-41.64-61.28-130.74-7.07-176.09,14.44-12.07,14.16-28.67,25.35-38.36h0c-11.79,6.79-13.5,19.33-20.55,30.86l-.18.28c-.25.41-.51.81-.78,1.22-.1.15-.2.31-.31.46l-.71,1-.39.54-.72.94-.45.57-.76.9-.49.57-.82.89-.52.54c-.31.32-.63.63-1,.94l-.47.46c-.5.46-1,.92-1.55,1.36-54.63,45.71-31.48,135.5,7.13,177.47,15.4,16.74,51.94,36.06,77.71,41.68A59.27,59.27,0,0,0,374,403.93c54.24-1.84,91.38-8.2,128.76-20.83a212.56,212.56,0,0,0,20.92-8.26c21.95-10.13,37.63-22.73,42.9-36.47C560,350.29,545.51,361.2,526.1,370.15Z" fill="#fff" opacity="0.3"/>
              <path d="M568.46,326c-1.87-22-50.22-44.51-107.2-54.61-24.28-4.3-30.64-35.6-47.78-71.45-9.23-19.3-36.09-44.49-63-45.33-15.52-.48-20.33-21.94-39.79-15.69-22.45,7.21-17.79,29.2-35.76,44.23-54.63,45.71-31.48,135.5,7.13,177.47,18.55,20.16,67.8,44.1,91.92,43.29,54.24-1.84,91.38-8.2,128.76-20.83a212.56,212.56,0,0,0,20.92-8.26C552.1,361.74,570,344.5,568.46,326Z" fill="none" stroke="#231815" stroke-linecap="round" stroke-linejoin="round" stroke-width="3.6"/>
              <path d="M303.93,192.59c10.61-7.54,23.27-10.72,35.07-12.08" fill="none" stroke="#231815" stroke-linecap="round" stroke-linejoin="round" stroke-width="3.6"/>
              <path d="M509.51,304.43c14.49,7,19.1,22.13,6.59,32.61s-33.72,27.38-71.83,32.06" fill="none" stroke="#231815" stroke-linecap="round" stroke-linejoin="round" stroke-width="3.6"/>
              <path d="M353.6,181.85c5.32.66,22.89,9.82,32.2,22.46s13.51,22.75,19.57,35.55" fill="none" stroke="#231815" stroke-linecap="round" stroke-linejoin="round" stroke-width="3.6"/>
            </g>
          </g>
          <g>
            <ellipse cx="258.37" cy="509.78" rx="39.84" ry="27.72" transform="translate(-277.6 708.2) rotate(-83.44)" fill="#fff" stroke="#030004" stroke-miterlimit="10" stroke-width="3.46"/>
            <path d="M266.72,471.07c-6.16,5.61-10.94,15.69-12.3,27.58-2.2,19.12,5.26,35.69,16.66,37a13.79,13.79,0,0,0,7.82-1.55,52.76,52.76,0,0,0,7-21.16C288.2,493,279.79,475.31,266.72,471.07Z" fill="#030004"/>
            <ellipse cx="341.43" cy="519.33" rx="39.84" ry="27.72" transform="translate(-213.52 799.18) rotate(-83.44)" fill="#fff" stroke="#030004" stroke-miterlimit="10" stroke-width="3.46"/>
            <path d="M349.79,480.63c-6.16,5.61-11,15.68-12.31,27.57-2.2,19.13,5.26,35.7,16.67,37a13.77,13.77,0,0,0,7.81-1.54,52.86,52.86,0,0,0,7-21.17C371.26,502.53,362.85,484.87,349.79,480.63Z" fill="#030004"/>
            <line x1="262.64" y1="579.75" x2="331.49" y2="582.43" fill="#fff" stroke="#030004" stroke-linecap="round" stroke-linejoin="round" stroke-width="3.46"/>
            <line x1="235.76" y1="451.35" x2="276.78" y2="445.96" fill="#fff" stroke="#030004" stroke-linecap="round" stroke-linejoin="round" stroke-width="5.02"/>
            <line x1="373.13" y1="457.05" x2="334.4" y2="442.49" fill="#fff" stroke="#030004" stroke-linecap="round" stroke-linejoin="round" stroke-width="5.02"/>
          </g>
        </g>
        <g>
          <circle cx="282.23" cy="594.86" r="57.05" fill="#ffc332" stroke="#000" stroke-linecap="round" stroke-linejoin="round" stroke-width="3"/>
          <circle cx="270.24" cy="592.62" r="57.05" fill="#ffc332" stroke="#000" stroke-linecap="round" stroke-linejoin="round" stroke-width="3"/>
          <g>
            <path d="M275.4,576.87S233,534.09,205.94,565.63c-13.11,15.25-13.69,38-.92,53.53,10.67,13,30.49,21.12,66.75-1Z" fill="#ffc332" stroke="#000" stroke-linecap="round" stroke-linejoin="round" stroke-width="3"/>
            <path d="M285.91,576.12s-42.37-42.77-69.47-11.23c-13.11,15.25-13.69,38-.92,53.52,10.67,13,30.49,21.13,66.75-1Z" fill="#ffc332" stroke="#000" stroke-linecap="round" stroke-linejoin="round" stroke-width="3"/>
            <path d="M272.89,582s-24.42-24.66-40-6.48a24.08,24.08,0,0,0-.53,30.85c6.15,7.48,17.57,12.17,38.47-.57Z" fill="#ffc332" stroke="#000" stroke-linecap="round" stroke-linejoin="round" stroke-width="3"/>
            <line x1="262.53" y1="574.7" x2="259.05" y2="611.61" fill="none" stroke="#000" stroke-linecap="round" stroke-linejoin="round" stroke-width="3"/>
          </g>
        </g>
        <path d="M484.72,427.8a33.66,33.66,0,1,1-67.31,0c0-18.58,33.66-81.36,33.66-81.36S484.72,409.22,484.72,427.8Z" fill="#d3edfb" stroke="#000" stroke-linecap="round" stroke-linejoin="round" stroke-width="4"/>
      </g>
    </g>
  </g>
</svg>
