<svg xmlns="http://www.w3.org/2000/svg" width="126.03" height="138.46" viewBox="0 0 126.03 138.46">
  <g>
    <g>
      <path d="M98.13,105.67,9.79,100.14A4.1,4.1,0,0,0,5.45,104L4.17,124.42A4.09,4.09,0,0,0,8,128.76l88.34,5.53a4.1,4.1,0,0,0,4.35-3.83L102,110A4.1,4.1,0,0,0,98.13,105.67Z" fill="#8ae71a"/>
      <path d="M96.61,138.46h-.53L7.74,132.92A8.26,8.26,0,0,1,0,124.16L1.3,103.71A8.26,8.26,0,0,1,10.05,96l88.34,5.52a8.26,8.26,0,0,1,7.73,8.76l-1.28,20.45a8.25,8.25,0,0,1-8.23,7.74ZM8.33,124.62l88.21,5.51,1.27-20.31L9.6,104.3Z" fill="#fff"/>
    </g>
    <path d="M126,29.33A29.33,29.33,0,0,0,74.81,9.8L70.05,4.72l-15.44,10-10.21-3L16,27.73l2.13,27.08L21.46,53l3,38.57h.22l.63,8.15a17.94,17.94,0,0,0-7.74,16.58l.4,5,39.53-3.11L55.24,89l.72-.1L76.31,119l32.84-22.2-2.82-4.17c-3.88-5.75-10.31-8.79-16.39-8.15l-.82-1.22a45.09,45.09,0,0,0,18.81-19.06,11.57,11.57,0,0,0,6.66-8.35,11.93,11.93,0,0,0,.24-3.37A29.55,29.55,0,0,0,126,29.33Zm-35,31.73q.24-1.43.36-2.88c.4.08.82.14,1.24.2l.43.88A23.1,23.1,0,0,1,91.05,61.06Z" fill="#fff"/>
    <path d="M79.06,35.89c-.32-.3-.64-.6-1-.88a29.51,29.51,0,0,0-10.26-5.84,29.84,29.84,0,0,0-11.72-1.36L33.3,29.58l-8.16.65L29.56,86.6,37.72,86l10.54-.83c17.38-1.37,25.25-6.07,25.25-6.07q14.67-9.18,13.35-26.16A25.43,25.43,0,0,0,79.06,35.89Z"/>
    <path d="M61.68,52.83a18.13,18.13,0,0,0,6.19-1.42l-.57-1.14s-4.73,2.26-12.48,1l-.21,1.25A29.34,29.34,0,0,0,61.68,52.83Z" fill="#fff"/>
    <path d="M68,46.31a3.93,3.93,0,0,0,1.39-.37,3.21,3.21,0,0,0,1.77-3.82l-1.2.43a2,2,0,0,1-.15,1.32,2,2,0,0,1-1,.92,3.46,3.46,0,0,1-1.52.25,3.56,3.56,0,0,1-1.47-.42,10.61,10.61,0,0,1-2.66-2.14l-.88.88a11.56,11.56,0,0,0,3,2.39A5.32,5.32,0,0,0,68,46.31Z" fill="#fff"/>
    <path d="M51.24,47.24A3.56,3.56,0,0,0,52.3,47a2.89,2.89,0,0,0,1-.71A3,3,0,0,0,54,45.22a2.36,2.36,0,0,0,.14-.95,2.17,2.17,0,0,0-.27-.93L52.72,44a1,1,0,0,1,.09.41,1,1,0,0,1-.09.42,1.73,1.73,0,0,1-.37.59,1.67,1.67,0,0,1-.56.39A3.67,3.67,0,0,1,49,45.49c-.34-.15-.69-.31-1-.49a11.86,11.86,0,0,0-2.12-.88l-.34,1.23a10.84,10.84,0,0,1,1.9.78c.36.18.74.37,1.12.53A5.8,5.8,0,0,0,51.24,47.24Z" fill="#fff"/>
    <path d="M49.08,69.15,28.59,70.76l3.53,44.73,20.48-1.61Z"/>
    <path d="M52.57,114.05l-29.48,2.32c-.55-7,3.88-13,9.87-13.47l18.58-1.47Z"/>
    <path d="M69.81,63.8l-17,11.51,25.13,37.17,17-11.51Z"/>
    <path d="M78.09,112.36l24.5-16.56C98.68,90,91.46,88.06,86.47,91.43L71,101.89Z"/>
    <path d="M45.46,17.64l10.39,3.07,13.87-9,6.41,6.85L23,47.16,21.73,31Z" fill="#b9baba"/>
    <path d="M35.59,34.32l-8.91,5.34.56.93,8.9-5.34Z" fill="#b9baba"/>
    <path d="M104.77,60.17s-5.37,16-26.46,22.76V73.67s22.31-6.49,23.25-19.15Z"/>
    <path d="M101.67,55.51l-5.52-4.79a2.35,2.35,0,0,1-.24-3.34,2.32,2.32,0,0,1,1.62-.81,2.34,2.34,0,0,1,1.72.57l5.52,4.78a2.37,2.37,0,0,1-1.38,4.16A2.38,2.38,0,0,1,101.67,55.51Z"/>
    <path d="M99.22,59.74l-1.83-3.65a2.37,2.37,0,0,1-.12-1.81,2.34,2.34,0,0,1,1.19-1.37,2.39,2.39,0,0,1,1.8-.13A2.37,2.37,0,0,1,101.63,54l1.82,3.66a2.37,2.37,0,0,1-2.87,3.3A2.38,2.38,0,0,1,99.22,59.74Z"/>
    <path d="M101.28,52.57l-.89-7.24A2.38,2.38,0,0,1,101.57,43a2.31,2.31,0,0,1,.87-.3,2.43,2.43,0,0,1,.93.07,2.31,2.31,0,0,1,1.43,1.11,2.3,2.3,0,0,1,.3.88L106,52a2.44,2.44,0,0,1-.06.93,2.38,2.38,0,0,1-1.11,1.43,2.3,2.3,0,0,1-.88.3,2.43,2.43,0,0,1-1.75-.48,2.41,2.41,0,0,1-.61-.7A2.47,2.47,0,0,1,101.28,52.57Z"/>
    <path d="M110.05,55.07c.71-3.34-1-6.53-3.71-7.1s-5.56,1.66-6.26,5,1,6.53,3.71,7.11S109.35,58.42,110.05,55.07Z"/>
    <path d="M104.19,53.19h-.76c0-.54-1.05-1.62-1.76-2.22l.46-.58C102.46,50.67,104.19,52.1,104.19,53.19Z" fill="#fff"/>
    <path d="M106.14,50l-.67-.33a3.53,3.53,0,0,0-.14-2.13l.7-.25A4.2,4.2,0,0,1,106.14,50Z" fill="#fff"/>
    <path d="M97.14,54.08A24.3,24.3,0,1,0,72.85,29.79,24.3,24.3,0,0,0,97.14,54.08Z" fill="#8ae71a"/>
    <path d="M94.37,34.34c.6,0,1.14-.06,1.61-.12A13.52,13.52,0,0,0,97.33,34l-2.4-6.43a8.88,8.88,0,0,1-5.75-.34,6.38,6.38,0,0,1-3.26-3.72,6,6,0,0,1,1.21-6.34A8.66,8.66,0,0,1,90.27,15L89,11.58l3.18-1.19,1.28,3.45a7.74,7.74,0,0,1,2-.48,8.78,8.78,0,0,1,2-.08,10.8,10.8,0,0,1,2,.29L102,18.5l-3.36,1.64-1.67-3a2.77,2.77,0,0,0-1.07-.08,4.94,4.94,0,0,0-1.19.23L97,23.42l.69-.13a9.21,9.21,0,0,1,5.25.27,5.56,5.56,0,0,1,3.16,3.57,6.57,6.57,0,0,1,0,5.26,8.22,8.22,0,0,1-4.33,3.83l1.15,3.1-3.14,1.17-1.15-3.1c-.85.23-1.65.41-2.41.55s-1.49.19-2.14.23a14.12,14.12,0,0,1-1.7,0L90,33.72l3.19-1.62Zm6.08-1.57a5.24,5.24,0,0,0,2-2,2.84,2.84,0,0,0,.08-2.34A2.48,2.48,0,0,0,101,26.77a4.61,4.61,0,0,0-2.75.11Zm-9-14.45A4.17,4.17,0,0,0,89.4,20a2.44,2.44,0,0,0-.08,2.12q.9,2.41,4.31,2Z"/>
    <path d="M98.13,105.67,9.79,100.14A4.1,4.1,0,0,0,5.45,104L4.17,124.42A4.09,4.09,0,0,0,8,128.76l88.34,5.53a4.1,4.1,0,0,0,4.35-3.83L102,110A4.1,4.1,0,0,0,98.13,105.67Z" fill="#8ae71a"/>
    <path d="M69.81,63.8l-17,11.51,25.13,37.17,17-11.51Z"/>
    <path d="M78.09,112.36l24.5-16.56C98.68,90,91.46,88.06,86.47,91.43L71,101.89Z"/>
    <path d="M23.4,116.24l-2.11.43L21,120.93c-.07,1-.3,1.51-.89,1.77a5.8,5.8,0,0,1-2.65.2A7.58,7.58,0,0,0,17,121c.7.08,1.42.13,1.65.14s.33-.06.35-.32l.23-3.72-1.87.34-.41-2c.69-.1,1.53-.24,2.41-.39l.2-3.06-2.16-.13.12-1.93,2.16.13.21-3.32,2.05.12-.21,3.33,2,.12-.13,1.93-2-.13-.16,2.56,1.83-.34Zm9,5.52c-.06,1-.28,1.48-1,1.77a6.72,6.72,0,0,1-2.75.18,8.22,8.22,0,0,0-.48-2c.68.08,1.49.13,1.72.14s.31-.07.33-.27l.07-1.19c-1.6.35-3.23.68-4.56.94l-.41-1.43a9,9,0,0,1-1.77,3.54,10.11,10.11,0,0,0-1.71-1.27c1.51-1.68,1.77-4.19,1.92-6l.17-2.87,8.85.55Zm0-8.76-7.9-.49.31-4.92,7.9.49Zm-3,5.65a18.06,18.06,0,0,0-3.54-1.42,16.49,16.49,0,0,1-.32,2.09c1.3-.14,3.14-.4,4.94-.66l.2-3.09-4.68-.29-.08,1.14a3.29,3.29,0,0,1-.06.75l.89-1.28a15.08,15.08,0,0,1,3.61,1.28Zm1.22-9.05-3.91-.25-.1,1.61,3.91.25Z"/>
    <path d="M38.41,119.36A19,19,0,0,1,36.77,123a11.24,11.24,0,0,0-1.55-.78,15.25,15.25,0,0,0,1.52-3.34Zm2.58-.57-.35,5.63-2-.12.36-5.64-3.38-.21.1-1.71,8.6.53-.1,1.72Zm-1.5-7.74-3.14-.2.11-1.7,3.13.2.08-1.28,1.95.13-.08,1.27,3.08.2-.11,1.7-3.08-.2,0,.89,2.65.16-.1,1.68-7.35-.46.11-1.68,2.65.17Zm4.33,3.78a18.63,18.63,0,0,0,2.12-6.45l2,.4c-.18,1-.39,1.91-.65,2.81l3.47.22.3-.06,1.43.48a39.4,39.4,0,0,1-1.61,4.89l-1.65-.61a28.3,28.3,0,0,0,.89-2.84l-3.4-.22A14.91,14.91,0,0,1,45,116.81a11.84,11.84,0,0,0-1.24-1.11l0,.72L36.61,116l.11-1.68,7.13.45ZM43,119.21A18,18,0,0,1,44,122l-1.67.6a22.17,22.17,0,0,0-.88-2.84Zm5.77-3.61c0,.49-.08,1-.15,1.63.41,2.65,1.43,5,3.34,6.12A7.68,7.68,0,0,0,50.45,125a8.18,8.18,0,0,1-2.83-4.23,10.12,10.12,0,0,1-3,4,6.67,6.67,0,0,0-1.49-1.51,10,10,0,0,0,3.66-7.81l0-.82,2,.12Z"/>
    <path d="M69.18,117a12.67,12.67,0,0,1-4.5,5.31,22.82,22.82,0,0,0,5.94,1.76,9,9,0,0,0-1.44,2,20.05,20.05,0,0,1-6.75-2.53,23.7,23.7,0,0,1-7.32,1.77,7.21,7.21,0,0,0-1-2.07,24.44,24.44,0,0,0,6.4-1.19,13.49,13.49,0,0,1-3-4.22l1-.27-2.29-.14.13-2,5.5.34.12-2-6.36-.4.13-2.07,6.37.4.14-2.3,2.16.14-.14,2.29,6.4.4-.13,2.07-6.4-.4-.12,2,3.45.21.37,0Zm-9.5.67a9.71,9.71,0,0,0,3,3.46,9.49,9.49,0,0,0,3.39-3.06Z"/>
    <path d="M79,119.74c-.54.13-1.07.25-1.62.36l-.26,4.16c-.06,1-.24,1.46-.81,1.77a4.28,4.28,0,0,1-2.42.26,6.88,6.88,0,0,0-.43-2c.65.06,1.24.1,1.45.09s.29-.05.3-.28l.22-3.59-1.89.42-.33-2,2.35-.43.19-3-2-.13.12-1.92,2,.12.2-3.29,1.91.11-.2,3.29,1.43.09-.12,1.93-1.44-.09-.16,2.56,1.36-.28Zm8.72-.07,1.93.12-.11,1.9-1.93-.13-.23,3.61c-.07,1-.3,1.53-1,1.77a7.16,7.16,0,0,1-2.84.14,9.69,9.69,0,0,0-.48-2,18.82,18.82,0,0,0,2,.14c.25,0,.34,0,.35-.27l.23-3.54L79.22,121l.11-1.89,6.45.41.07-1.2,2,.13Zm2.45-6.55L90.1,115l-4.29-.27-.09,1.38,3.54.22-.12,1.9-9-.56.12-1.89,3.46.22.09-1.38-4.38-.28.12-1.89,4.38.27.12-1.92,2,.12-.12,1.93Zm-8.4,8.2a28.68,28.68,0,0,1,1.77,3l-1.82.88a27.16,27.16,0,0,0-1.64-3.17Z"/>
  </g>
</svg>
