<svg xmlns="http://www.w3.org/2000/svg" xmlns:xlink="http://www.w3.org/1999/xlink" width="66.14" height="66.14" viewBox="0 0 66.14 66.14">
  <defs>
    <clipPath id="a">
      <rect x="16.31" y="16.31" width="34.43" height="34.43" fill="none"/>
    </clipPath>
  </defs>
  <g>
    <g>
      <circle cx="33.07" cy="33.07" r="31.26"/>
      <path d="M33.07,66.14A33.07,33.07,0,1,1,66.14,33.07,33.11,33.11,0,0,1,33.07,66.14Zm0-62.52A29.45,29.45,0,1,0,62.51,33.07,29.48,29.48,0,0,0,33.07,3.62Z" fill="#fff"/>
    </g>
    <g clip-path="url(#a)">
      <path d="M50.74,31.09c0-7.7-7.73-14-17.22-14s-17.21,6.27-17.21,14c0,6.91,6.12,12.69,14.4,13.78.56.12,1.32.37,1.51.85a3.58,3.58,0,0,1,.06,1.56L32,48.75c-.07.44-.34,1.7,1.49.93s9.92-5.84,13.53-10A12.43,12.43,0,0,0,50.74,31.09ZM23.5,27.37a.33.33,0,0,1,.33.33v6h3.28a.34.34,0,0,1,.34.33V35.2a.34.34,0,0,1-.34.34H22.29a.33.33,0,0,1-.23-.1h0A.32.32,0,0,1,22,35.2V27.7a.33.33,0,0,1,.33-.33Zm21.5,0a.34.34,0,0,1,.34.33v1.21a.34.34,0,0,1-.34.34H41.72v1.26H45a.34.34,0,0,1,.34.34v1.21a.34.34,0,0,1-.34.33H41.72v1.27H45a.34.34,0,0,1,.34.33V35.2a.34.34,0,0,1-.34.34H40.18a.33.33,0,0,1-.23-.1h0a.33.33,0,0,1-.1-.23V27.7a.33.33,0,0,1,.1-.23h0a.32.32,0,0,1,.23-.09Zm-15,0a.33.33,0,0,1,.33.33v7.5a.34.34,0,0,1-.33.34H28.82a.34.34,0,0,1-.34-.34V27.7a.34.34,0,0,1,.34-.33Zm3,0h.23l0,0h0l0,0,3.43,4.64V27.7a.34.34,0,0,1,.34-.33h1.21a.33.33,0,0,1,.33.33v7.5a.34.34,0,0,1-.33.34h-1.4l-.09-.08-3.44-4.65V35.2a.34.34,0,0,1-.33.34H31.87a.34.34,0,0,1-.34-.34V27.7a.34.34,0,0,1,.34-.33Z" fill="#8ae71a" fill-rule="evenodd"/>
    </g>
  </g>
</svg>
