<svg xmlns="http://www.w3.org/2000/svg" viewBox="0 0 347.072 198.818"><g id="圖層_12" data-name="圖層 12"><path d="M1.183,185A1.3,1.3,0,0,1,2.5,183.681H7.817a6,6,0,0,1,4.294,1.488,4.5,4.5,0,0,1,1.233,3.211v.042a4.406,4.406,0,0,1-3.38,4.444l2.849,3.592a1.523,1.523,0,0,1,.425,1,1.234,1.234,0,0,1-1.255,1.212,1.5,1.5,0,0,1-1.276-.68l-3.614-4.614H3.8v4a1.289,1.289,0,0,1-1.3,1.3,1.293,1.293,0,0,1-1.317-1.3Zm6.441,6.059c1.872,0,3.062-.977,3.062-2.488v-.042c0-1.594-1.149-2.466-3.082-2.466H3.8v5Z" fill="#4c4948"/><path d="M15.847,191.165v-.043a7.531,7.531,0,0,1,7.674-7.7,7.8,7.8,0,0,1,5.1,1.679,1.306,1.306,0,0,1,.511,1.042,1.307,1.307,0,0,1-2.084,1.02,5.4,5.4,0,0,0-3.551-1.338,5.006,5.006,0,0,0-4.91,5.25v.043a5.014,5.014,0,0,0,4.91,5.272,5.338,5.338,0,0,0,3.722-1.424,1.18,1.18,0,0,1,.786-.3,1.243,1.243,0,0,1,1.233,1.211,1.262,1.262,0,0,1-.424.936,7.609,7.609,0,0,1-5.4,2A7.484,7.484,0,0,1,15.847,191.165Z" fill="#4c4948"/><path d="M37.822,191.165v-.043a7.531,7.531,0,0,1,7.674-7.7,7.8,7.8,0,0,1,5.1,1.679,1.306,1.306,0,0,1,.511,1.042,1.307,1.307,0,0,1-2.084,1.02,5.4,5.4,0,0,0-3.551-1.338,5.006,5.006,0,0,0-4.91,5.25v.043a5.014,5.014,0,0,0,4.91,5.272A5.338,5.338,0,0,0,49.2,194.97a1.18,1.18,0,0,1,.786-.3,1.243,1.243,0,0,1,1.233,1.211,1.259,1.259,0,0,1-.425.936,7.6,7.6,0,0,1-5.4,2A7.484,7.484,0,0,1,37.822,191.165Z" fill="#4c4948"/><path d="M63.8,197.394a1.3,1.3,0,0,1-2.593,0v-.574A4.043,4.043,0,0,1,57.7,198.8c-2.531,0-4-1.7-4-4.316v-5.975a1.286,1.286,0,1,1,2.571,0v5.209c0,1.744.871,2.721,2.4,2.721a2.479,2.479,0,0,0,2.531-2.763v-5.167a1.288,1.288,0,0,1,1.3-1.3,1.3,1.3,0,0,1,1.3,1.3Z" fill="#4c4948"/><path d="M67.109,184.212a1.267,1.267,0,0,1,1.277-1.275,1.283,1.283,0,0,1,1.3,1.275v13.182a1.287,1.287,0,0,1-2.574,0Z" fill="#4c4948"/><path d="M73.527,195.459v-5.91H73.1a1.106,1.106,0,0,1,0-2.211h.424v-1.914a1.286,1.286,0,0,1,2.572,0v1.914h2.022a1.106,1.106,0,1,1,0,2.211H76.1v5.506a1.225,1.225,0,0,0,1.383,1.4,6.149,6.149,0,0,0,.639-.064,1.085,1.085,0,0,1,1.083,1.063,1.107,1.107,0,0,1-.68,1,5.124,5.124,0,0,1-1.764.3C74.866,198.755,73.527,197.925,73.527,195.459Z" fill="#4c4948"/><path d="M91.66,197.394a1.3,1.3,0,0,1-2.593,0v-.574a4.043,4.043,0,0,1-3.508,1.977c-2.531,0-4-1.7-4-4.316v-5.975a1.286,1.286,0,1,1,2.571,0v5.209c0,1.744.871,2.721,2.4,2.721a2.479,2.479,0,0,0,2.531-2.763v-5.167a1.288,1.288,0,0,1,1.3-1.3,1.3,1.3,0,0,1,1.3,1.3Z" fill="#4c4948"/><path d="M94.824,188.506a1.27,1.27,0,0,1,1.274-1.3,1.289,1.289,0,0,1,1.3,1.3v1.149c.6-1.4,1.7-2.466,2.827-2.466a1.194,1.194,0,0,1,1.276,1.275,1.207,1.207,0,0,1-1.02,1.233c-1.829.32-3.083,1.722-3.083,4.38v3.317a1.284,1.284,0,0,1-1.3,1.275,1.265,1.265,0,0,1-1.274-1.275Z" fill="#4c4948"/><path d="M108.32,198.818a5.6,5.6,0,0,1-5.761-5.825v-.043a5.571,5.571,0,0,1,5.486-5.846,5.311,5.311,0,0,1,5.337,5.528,1.2,1.2,0,0,1-1.214,1.233h-7.037a3.136,3.136,0,0,0,3.233,2.849,4.047,4.047,0,0,0,2.658-.978.954.954,0,0,1,.659-.234,1.012,1.012,0,0,1,1.02,1.042,1.126,1.126,0,0,1-.34.786A5.766,5.766,0,0,1,108.32,198.818Zm2.553-6.654c-.172-1.659-1.149-2.955-2.85-2.955a3.036,3.036,0,0,0-2.911,2.955Z" fill="#4c4948"/><path d="M121.559,195.331v-.042c0-2.423,1.894-3.615,4.635-3.615a9.4,9.4,0,0,1,3.02.468v-.276c0-1.6-.979-2.445-2.786-2.445a6.679,6.679,0,0,0-2.488.446,1.41,1.41,0,0,1-.4.064,1.071,1.071,0,0,1-1.085-1.063,1.122,1.122,0,0,1,.7-1.02,9.623,9.623,0,0,1,3.614-.659,5.031,5.031,0,0,1,3.722,1.255,4.657,4.657,0,0,1,1.211,3.464v5.528a1.225,1.225,0,0,1-1.254,1.233,1.162,1.162,0,0,1-1.255-1.084v-.425a4.563,4.563,0,0,1-3.657,1.637C123.431,198.8,121.559,197.585,121.559,195.331Zm7.7-.808v-.765a7.13,7.13,0,0,0-2.55-.446c-1.658,0-2.637.7-2.637,1.871v.042c0,1.085.958,1.7,2.191,1.7C127.959,196.926,129.255,195.948,129.255,194.523Z" fill="#4c4948"/><path d="M134.737,188.506a1.271,1.271,0,0,1,1.276-1.3,1.288,1.288,0,0,1,1.3,1.3v.554a4.068,4.068,0,0,1,3.508-1.956c2.53,0,4,1.7,4,4.294v6a1.252,1.252,0,0,1-1.276,1.275,1.27,1.27,0,0,1-1.3-1.275v-5.209c0-1.744-.873-2.743-2.4-2.743a2.5,2.5,0,0,0-2.531,2.786v5.166a1.286,1.286,0,0,1-2.572,0Z" fill="#4c4948"/><path d="M158.905,197.394a1.286,1.286,0,0,1-2.572,0v-.7a4.5,4.5,0,0,1-3.827,2.1c-2.637,0-5.208-2.1-5.208-5.825v-.043c0-3.72,2.53-5.825,5.208-5.825a4.592,4.592,0,0,1,3.827,1.977v-4.869a1.286,1.286,0,0,1,2.572,0Zm-9.014-4.465v.043a3.339,3.339,0,0,0,3.231,3.592,3.382,3.382,0,0,0,3.254-3.592v-.043a3.37,3.37,0,0,0-3.254-3.593A3.291,3.291,0,0,0,149.891,192.929Z" fill="#4c4948"/><path d="M167.871,196.862l5.527-12.331a1.659,1.659,0,0,1,1.573-1.063h.128a1.63,1.63,0,0,1,1.551,1.063l5.527,12.331a1.147,1.147,0,0,1,.15.553,1.225,1.225,0,0,1-1.233,1.254,1.346,1.346,0,0,1-1.276-.914l-1.212-2.785h-7.228l-1.254,2.87a1.258,1.258,0,0,1-1.213.829,1.2,1.2,0,0,1-1.211-1.212A1.33,1.33,0,0,1,167.871,196.862Zm9.737-4.21-2.616-6.016-2.615,6.016Z" fill="#4c4948"/><path d="M184.81,188.506a1.271,1.271,0,0,1,1.276-1.3,1.288,1.288,0,0,1,1.3,1.3v1.149c.6-1.4,1.7-2.466,2.827-2.466a1.193,1.193,0,0,1,1.276,1.275,1.207,1.207,0,0,1-1.02,1.233c-1.829.32-3.083,1.722-3.083,4.38v3.317a1.284,1.284,0,0,1-1.3,1.275,1.265,1.265,0,0,1-1.276-1.275Z" fill="#4c4948"/><path d="M194.075,195.459v-5.91h-.425a1.106,1.106,0,0,1,0-2.211h.425v-1.914a1.286,1.286,0,0,1,2.572,0v1.914h2.021a1.106,1.106,0,1,1,0,2.211h-2.021v5.506a1.225,1.225,0,0,0,1.382,1.4,6.084,6.084,0,0,0,.639-.064,1.086,1.086,0,0,1,1.084,1.063,1.108,1.108,0,0,1-.681,1,5.114,5.114,0,0,1-1.763.3C195.414,198.755,194.075,197.925,194.075,195.459Z" fill="#4c4948"/><path d="M201.812,197.436a.984.984,0,0,1-.489-.892,1.029,1.029,0,0,1,1.042-1.042,1.122,1.122,0,0,1,.552.148,5.912,5.912,0,0,0,3.231,1.084c1.107,0,1.744-.467,1.744-1.211v-.043c0-.871-1.192-1.169-2.509-1.573-1.658-.468-3.508-1.148-3.508-3.3v-.042c0-2.125,1.764-3.423,4-3.423a7.723,7.723,0,0,1,3.529.914,1.094,1.094,0,0,1,.615.978,1.036,1.036,0,0,1-1.063,1.043,1.024,1.024,0,0,1-.51-.128,6.121,6.121,0,0,0-2.636-.766c-1,0-1.573.468-1.573,1.106v.042c0,.83,1.211,1.17,2.53,1.595,1.636.51,3.486,1.254,3.486,3.274v.043c0,2.359-1.828,3.528-4.166,3.528A7.664,7.664,0,0,1,201.812,197.436Z" fill="#4c4948"/><path d="M225.805,185a1.3,1.3,0,0,1,1.317-1.318H235.8a1.191,1.191,0,1,1,0,2.381H228.42v4.061h6.42a1.191,1.191,0,1,1,0,2.381h-6.42v4.868a1.308,1.308,0,0,1-2.615,0Z" fill="#4c4948"/><path d="M238.471,193.014v-.042a5.987,5.987,0,0,1,11.971-.043v.043a5.87,5.87,0,0,1-6.017,5.846A5.806,5.806,0,0,1,238.471,193.014Zm9.4,0v-.042a3.469,3.469,0,0,0-3.443-3.615,3.37,3.37,0,0,0-3.382,3.572v.043a3.461,3.461,0,0,0,3.423,3.592A3.367,3.367,0,0,0,247.868,193.014Z" fill="#4c4948"/><path d="M262.981,197.394a1.3,1.3,0,0,1-2.594,0v-.574a4.041,4.041,0,0,1-3.508,1.977c-2.53,0-4-1.7-4-4.316v-5.975a1.286,1.286,0,1,1,2.572,0v5.209c0,1.744.871,2.721,2.4,2.721a2.479,2.479,0,0,0,2.53-2.763v-5.167a1.288,1.288,0,0,1,1.3-1.3,1.3,1.3,0,0,1,1.3,1.3Z" fill="#4c4948"/><path d="M266.144,188.506a1.27,1.27,0,0,1,1.275-1.3,1.288,1.288,0,0,1,1.3,1.3v.554a4.072,4.072,0,0,1,3.508-1.956c2.531,0,4,1.7,4,4.294v6a1.252,1.252,0,0,1-1.276,1.275,1.269,1.269,0,0,1-1.3-1.275v-5.209c0-1.744-.873-2.743-2.4-2.743a2.5,2.5,0,0,0-2.531,2.786v5.166a1.286,1.286,0,0,1-2.572,0Z" fill="#4c4948"/><path d="M290.312,197.394a1.286,1.286,0,0,1-2.572,0v-.7a4.494,4.494,0,0,1-3.826,2.1c-2.637,0-5.209-2.1-5.209-5.825v-.043c0-3.72,2.529-5.825,5.209-5.825a4.59,4.59,0,0,1,3.826,1.977v-4.869a1.286,1.286,0,0,1,2.572,0Zm-9.014-4.465v.043a3.34,3.34,0,0,0,3.231,3.592,3.382,3.382,0,0,0,3.254-3.592v-.043a3.37,3.37,0,0,0-3.254-3.593A3.291,3.291,0,0,0,281.3,192.929Z" fill="#4c4948"/><path d="M292.752,195.331v-.042c0-2.423,1.893-3.615,4.634-3.615a9.4,9.4,0,0,1,3.021.468v-.276c0-1.6-.98-2.445-2.787-2.445a6.677,6.677,0,0,0-2.487.446,1.41,1.41,0,0,1-.4.064,1.071,1.071,0,0,1-1.085-1.063,1.122,1.122,0,0,1,.7-1.02,9.618,9.618,0,0,1,3.613-.659,5.029,5.029,0,0,1,3.723,1.255,4.662,4.662,0,0,1,1.211,3.464v5.528a1.226,1.226,0,0,1-1.255,1.233,1.163,1.163,0,0,1-1.254-1.084v-.425a4.563,4.563,0,0,1-3.657,1.637C294.624,198.8,292.752,197.585,292.752,195.331Zm7.7-.808v-.765a7.13,7.13,0,0,0-2.55-.446c-1.658,0-2.637.7-2.637,1.871v.042c0,1.085.957,1.7,2.19,1.7C299.152,196.926,300.448,195.948,300.448,194.523Z" fill="#4c4948"/><path d="M306.355,195.459v-5.91h-.425a1.106,1.106,0,0,1,0-2.211h.425v-1.914a1.286,1.286,0,0,1,2.571,0v1.914h2.022a1.106,1.106,0,1,1,0,2.211h-2.022v5.506a1.226,1.226,0,0,0,1.383,1.4,6.116,6.116,0,0,0,.639-.064,1.084,1.084,0,0,1,1.083,1.063,1.107,1.107,0,0,1-.68,1,5.124,5.124,0,0,1-1.764.3C307.694,198.755,306.355,197.925,306.355,195.459Z" fill="#4c4948"/><path d="M314.473,184.318a1.485,1.485,0,0,1,2.934,0v.128a1.481,1.481,0,0,1-2.934,0Zm.191,4.188a1.271,1.271,0,0,1,1.276-1.3,1.289,1.289,0,0,1,1.3,1.3v8.888a1.287,1.287,0,0,1-2.574,0Z" fill="#4c4948"/><path d="M319.936,193.014v-.042a5.987,5.987,0,0,1,11.97-.043v.043a5.87,5.87,0,0,1-6.017,5.846A5.806,5.806,0,0,1,319.936,193.014Zm9.4,0v-.042a3.469,3.469,0,0,0-3.443-3.615,3.369,3.369,0,0,0-3.38,3.572v.043a3.459,3.459,0,0,0,3.422,3.592A3.366,3.366,0,0,0,329.332,193.014Z" fill="#4c4948"/><path d="M334.472,188.506a1.27,1.27,0,0,1,1.274-1.3,1.289,1.289,0,0,1,1.3,1.3v.554a4.07,4.07,0,0,1,3.508-1.956c2.53,0,4,1.7,4,4.294v6a1.252,1.252,0,0,1-1.276,1.275,1.269,1.269,0,0,1-1.3-1.275v-5.209c0-1.744-.873-2.743-2.4-2.743a2.5,2.5,0,0,0-2.531,2.786v5.166a1.286,1.286,0,0,1-2.572,0Z" fill="#4c4948"/><path d="M2.34,169.258a1.647,1.647,0,0,1,.723-.78,1.487,1.487,0,0,1,.669-.167,1.144,1.144,0,0,1,.362.056,1.085,1.085,0,0,1,.751.584,1.056,1.056,0,0,1,.112.474.991.991,0,0,1-.112.445A17.584,17.584,0,0,1,2.4,173.8a1.357,1.357,0,0,1-.918.474H1.365a1.4,1.4,0,0,1-.891-.307A1.06,1.06,0,0,1,0,173.045a1.017,1.017,0,0,1,.307-.752A13.028,13.028,0,0,0,2.34,169.258Zm6.4-19.6a2.422,2.422,0,0,1,2.422,2.423v13.085a2.421,2.421,0,0,1-2.422,2.422H3.4a2.335,2.335,0,0,1-1.713-.709,2.331,2.331,0,0,1-.71-1.713V152.079a2.332,2.332,0,0,1,.71-1.713,2.336,2.336,0,0,1,1.713-.71Zm-.444,5.29a.245.245,0,0,0,.277-.278v-2.562a.246.246,0,0,0-.277-.278H3.76a.247.247,0,0,0-.28.278v2.562a.246.246,0,0,0,.28.278Zm0,5.263a.246.246,0,0,0,.277-.279v-2.645a.246.246,0,0,0-.277-.278H3.76a.247.247,0,0,0-.28.278v2.645a.247.247,0,0,0,.28.279Zm0,5.234a.246.246,0,0,0,.277-.279v-2.7a.246.246,0,0,0-.277-.279H3.76a.247.247,0,0,0-.28.279v2.7a.247.247,0,0,0,.28.279Zm-.809,4.483a.972.972,0,0,1-.194-.557,1.436,1.436,0,0,1,.027-.251.846.846,0,0,1,.529-.612,1.535,1.535,0,0,1,.641-.139,2.653,2.653,0,0,1,.362.028,1.446,1.446,0,0,1,.836.529,23.437,23.437,0,0,1,1.726,2.506,1.129,1.129,0,0,1,.167.584,1.324,1.324,0,0,1-.057.362,1.276,1.276,0,0,1-.639.751,1.24,1.24,0,0,1-.556.14,1.46,1.46,0,0,1-.392-.055,1.289,1.289,0,0,1-.751-.641A21.748,21.748,0,0,0,7.489,169.926Zm17.1-14.7a1.159,1.159,0,0,1,.863.375,1.245,1.245,0,0,1,0,1.755,1.157,1.157,0,0,1-.863.376H22.693a.247.247,0,0,0-.28.278v13.559a4.213,4.213,0,0,1-.277,1.7,1.986,1.986,0,0,1-.92.947,8.491,8.491,0,0,1-2.951.5h-.056a1.626,1.626,0,0,1-1-.333,2.32,2.32,0,0,1-.7-.974.87.87,0,0,1,.1-.836.838.838,0,0,1,.737-.389h1.809a.709.709,0,0,0,.5-.14.66.66,0,0,0,.139-.474v-10.19c0-.019-.017-.032-.055-.042s-.057,0-.057.014a29.557,29.557,0,0,1-5.651,8.019,1.223,1.223,0,0,1-.808.306h-.14a1.372,1.372,0,0,1-.89-.445,1.2,1.2,0,0,1-.335-.835,1.108,1.108,0,0,1,.392-.891,21.907,21.907,0,0,0,3.59-4.19,30.455,30.455,0,0,0,2.869-5.333.14.14,0,0,0,0-.167.19.19,0,0,0-.167-.083H13.2a1.189,1.189,0,0,1-.891-.376,1.245,1.245,0,0,1,0-1.755,1.192,1.192,0,0,1,.891-.375h6.319a.246.246,0,0,0,.279-.279v-4.983a1.258,1.258,0,0,1,.39-.919,1.275,1.275,0,0,1,.934-.391,1.227,1.227,0,0,1,.918.391,1.283,1.283,0,0,1,.375.919v4.983a.247.247,0,0,0,.28.279Z" fill="#4c4948"/><path d="M29.226,152.134a2.424,2.424,0,0,1,2.423-2.422H50.081a2.424,2.424,0,0,1,2.422,2.422v21.245a1.282,1.282,0,0,1-1.28,1.28h-.057a1.19,1.19,0,0,1-1.2-1.2.124.124,0,0,0-.139-.14H31.816c-.112,0-.167.047-.167.14v.083a1.2,1.2,0,0,1-.348.863,1.136,1.136,0,0,1-.85.363,1.238,1.238,0,0,1-1.225-1.226Zm2.423,18.823a.246.246,0,0,0,.279.277H49.691a.246.246,0,0,0,.279-.277V152.051a.247.247,0,0,0-.279-.279H31.928a.247.247,0,0,0-.279.279ZM48.382,165.3a.755.755,0,0,1,.558.223.775.775,0,0,1,0,1.086.758.758,0,0,1-.558.222H45.57a.245.245,0,0,0-.277.278v2a1.966,1.966,0,0,1-.2,1,1.169,1.169,0,0,1-.725.445,9.307,9.307,0,0,1-2.645.251,1.044,1.044,0,0,1-1-.752.427.427,0,0,1,.03-.445.433.433,0,0,1,.389-.223h1.532a.425.425,0,0,0,.3-.084.371.371,0,0,0,.085-.277v-1.923a.246.246,0,0,0-.279-.278H33.263a.757.757,0,0,1-.556-.222.775.775,0,0,1,0-1.086.754.754,0,0,1,.556-.223h9.69a.1.1,0,0,0,.112-.112.854.854,0,0,1,.836-.834h.529a.829.829,0,0,1,.611.25.8.8,0,0,1,.252.584c0,.074.027.112.082.112Zm-.5-5.29a1.711,1.711,0,0,1-1.7,1.7q-.03,0-.042.042a.058.058,0,0,0,.014.069,21.739,21.739,0,0,1,1.976,1.754.714.714,0,0,1,.209.614.747.747,0,0,1-.321.556.869.869,0,0,1-.667.209,1.05,1.05,0,0,1-.64-.321c-.093-.11-.223-.25-.39-.417a.414.414,0,0,0-.307-.112q-8.685.25-12.279.362a.8.8,0,0,1-.57-.222.822.822,0,0,1-.266-.529.682.682,0,0,1,.195-.557.728.728,0,0,1,.531-.223q1.532,0,5.706-.056a.246.246,0,0,0,.279-.278v-.613a.246.246,0,0,0-.279-.278H36.187a2.422,2.422,0,0,1-2.422-2.422V158.4a2.421,2.421,0,0,1,2.422-2.422h3.146a.247.247,0,0,0,.279-.279v-.473a.247.247,0,0,0-.279-.279H33.57a.768.768,0,0,1-.543-.223.774.774,0,0,1,0-1.113.773.773,0,0,1,.543-.223H39.5a.1.1,0,0,0,.112-.111,1.047,1.047,0,0,1,1.058-1.058h.085a1.047,1.047,0,0,1,1.058,1.058.1.1,0,0,0,.11.111h6.069a.769.769,0,0,1,.543.223.77.77,0,0,1,0,1.113.765.765,0,0,1-.543.223h-5.9a.246.246,0,0,0-.277.279v.473a.246.246,0,0,0,.277.279h3.37a2.424,2.424,0,0,1,2.422,2.422Zm-9.16,8.575a.79.79,0,0,1,.167.7.835.835,0,0,1-.447.585,1.133,1.133,0,0,1-.792.1,1.089,1.089,0,0,1-.655-.461q-.474-.584-1-1.14a.656.656,0,0,1-.194-.6.6.6,0,0,1,.362-.486,1.286,1.286,0,0,1,.794-.139,1.322,1.322,0,0,1,.737.334Q38.276,168.061,38.722,168.589Zm-2.59-11.416a.247.247,0,0,0-.279.279v.5a.246.246,0,0,0,.279.278h3.2a.246.246,0,0,0,.279-.278v-.5a.247.247,0,0,0-.279-.279Zm-.279,3.036a.246.246,0,0,0,.279.278h3.2a.246.246,0,0,0,.279-.278v-.529a.246.246,0,0,0-.279-.279h-3.2a.246.246,0,0,0-.279.279Zm9.884-2.757a.246.246,0,0,0-.277-.279H42.09a.246.246,0,0,0-.277.279v.5a.245.245,0,0,0,.277.278h3.37a.245.245,0,0,0,.277-.278Zm-3.924,2.757a.245.245,0,0,0,.277.278h3.37a.245.245,0,0,0,.277-.278v-.529a.246.246,0,0,0-.277-.279H42.09a.246.246,0,0,0-.277.279Zm0,2.394a.272.272,0,0,0,.082.2.266.266,0,0,0,.2.082l2.644-.055c.02,0,.03,0,.03-.014s-.01-.023-.03-.042a.411.411,0,0,1-.151-.362.392.392,0,0,1,.208-.334l.445-.306c.019,0,.023-.009.014-.027a.043.043,0,0,0-.042-.029H42.09a.246.246,0,0,0-.277.278Z" fill="#4c4948"/><path d="M61.684,158.315a1.114,1.114,0,0,1,.583.808.8.8,0,0,1,.058.305,1.225,1.225,0,0,1-.225.7,1.3,1.3,0,0,1-.835.558,1.382,1.382,0,0,1-.278.029,1.409,1.409,0,0,1-.723-.2,23.339,23.339,0,0,0-3.258-1.643,1.1,1.1,0,0,1-.584-.64,1.463,1.463,0,0,1-.03-.306.939.939,0,0,1,.168-.529,1.43,1.43,0,0,1,.808-.613,1.512,1.512,0,0,1,.473-.083,1.953,1.953,0,0,1,.557.083A24.734,24.734,0,0,1,61.684,158.315Zm-.447,6.487a1.021,1.021,0,0,1,.726-.556.925.925,0,0,1,.222-.028,1,1,0,0,1,.639.25,1.68,1.68,0,0,1,.559.948,1.484,1.484,0,0,1,.054.389,1.684,1.684,0,0,1-.167.724q-1.587,3.315-3.48,6.6a1.284,1.284,0,0,1-.863.585,1.376,1.376,0,0,1-.279.029,1.187,1.187,0,0,1-.724-.252,1.275,1.275,0,0,1-.584-.918,1.725,1.725,0,0,1-.027-.307,1.593,1.593,0,0,1,.222-.807A73.243,73.243,0,0,0,61.237,164.8ZM63.3,150.854a1.175,1.175,0,0,1,.556.835,1.207,1.207,0,0,1,.03.25,1.153,1.153,0,0,1-.279.752,1.205,1.205,0,0,1-.836.529h-.222A1.314,1.314,0,0,1,61.8,153a25.647,25.647,0,0,0-3.258-1.837.957.957,0,0,1-.543-.641.927.927,0,0,1,.153-.835,1.749,1.749,0,0,1,.863-.584,1.677,1.677,0,0,1,.417-.056,1.555,1.555,0,0,1,.584.111A22.635,22.635,0,0,1,63.3,150.854ZM81.757,172.07a1.477,1.477,0,0,1,.167.668,1.272,1.272,0,0,1-.082.445,1.57,1.57,0,0,1-.724.892,1.285,1.285,0,0,1-.613.166,1.175,1.175,0,0,1-.417-.083,1.37,1.37,0,0,1-.781-.7c-.13-.26-.259-.529-.389-.807a.381.381,0,0,0-.389-.2q-2.313.168-13.2.948h-.112a1.428,1.428,0,0,1-1.42-1.225v-.2a1.251,1.251,0,0,1,.28-.78,1.162,1.162,0,0,1,.89-.445l.7-.028A.357.357,0,0,0,66,170.51a51.071,51.071,0,0,0,2.894-7.544.18.18,0,0,0-.028-.167.185.185,0,0,0-.167-.085H64.83a1.2,1.2,0,0,1-.877-.375,1.218,1.218,0,0,1-.376-.891,1.176,1.176,0,0,1,.376-.877,1.218,1.218,0,0,1,.877-.362h6.125a.246.246,0,0,0,.279-.279v-4.177a.247.247,0,0,0-.279-.278H66.277a1.192,1.192,0,0,1-.891-.375,1.24,1.24,0,0,1-.362-.892,1.2,1.2,0,0,1,.362-.877,1.218,1.218,0,0,1,.891-.362h4.678a.246.246,0,0,0,.279-.278v-2.756a1.365,1.365,0,0,1,2.729,0v2.756a.245.245,0,0,0,.277.278h4.985a1.233,1.233,0,0,1,.877.362,1.181,1.181,0,0,1,.375.877,1.225,1.225,0,0,1-.375.892,1.206,1.206,0,0,1-.877.375H74.24a.246.246,0,0,0-.277.278v4.177a.245.245,0,0,0,.277.279h6.322a1.228,1.228,0,0,1,.877.362,1.179,1.179,0,0,1,.375.877,1.281,1.281,0,0,1-1.252,1.266H72.431a.392.392,0,0,0-.389.252q-1.5,3.981-3.176,7.377a.163.163,0,0,0,.014.14.156.156,0,0,0,.153.083q2.924-.166,8.076-.445a.274.274,0,0,0,.138-.112.1.1,0,0,0,0-.139q-.836-1.308-1.725-2.478a.993.993,0,0,1-.224-.64,1.345,1.345,0,0,1,.028-.251,1.091,1.091,0,0,1,.558-.723,1.567,1.567,0,0,1,.723-.168,2.113,2.113,0,0,1,.335.028,1.473,1.473,0,0,1,.89.529A37.244,37.244,0,0,1,81.757,172.07Z" fill="#4c4948"/><path d="M95.254,150.213a1.5,1.5,0,0,1,.487-1.072,1.519,1.519,0,0,1,1.072-.431,1.286,1.286,0,0,1,.989.445,1.648,1.648,0,0,1,.431,1.058q.082,1,.222,2.033.111,1.084.487,2.91a34.64,34.64,0,0,0,.905,3.48,27.026,27.026,0,0,0,1.5,3.634,22.511,22.511,0,0,0,2.2,3.6,19.637,19.637,0,0,0,3.034,3.161,16.083,16.083,0,0,0,2.7,1.892,1.035,1.035,0,0,1,.529.78v.167a1.084,1.084,0,0,1-.307.751,2.239,2.239,0,0,1-1.058.641,1.411,1.411,0,0,1-.389.055,1.728,1.728,0,0,1-.781-.195q-7.35-4.287-10.134-14.4a.092.092,0,0,0-.084-.055.048.048,0,0,0-.055.055Q94.5,168.338,87.4,173.045a1.705,1.705,0,0,1-.89.25,1.933,1.933,0,0,1-.307-.028,2.174,2.174,0,0,1-1.115-.585,1.007,1.007,0,0,1-.362-.807.933.933,0,0,1,.474-.863,20.086,20.086,0,0,0,2.255-1.643,17.118,17.118,0,0,0,2.73-2.868,27.169,27.169,0,0,0,1.976-3.077,17.384,17.384,0,0,0,1.378-3.242q.516-1.672.877-3.133a21.16,21.16,0,0,0,.515-2.98q.153-1.516.238-2.519Q95.224,150.881,95.254,150.213Z" fill="#4c4948"/><path d="M177.93,152.983a1.281,1.281,0,0,1-.9,2.186h-2.7a.348.348,0,0,0-.362.25,30.586,30.586,0,0,1-6.292,10.553.211.211,0,0,0,.028.362,25.89,25.89,0,0,0,9.41,4.761.938.938,0,0,1,.669.668,1.01,1.01,0,0,1,.059.334,1.181,1.181,0,0,1-.2.641,2.751,2.751,0,0,1-1.085.863,2.236,2.236,0,0,1-.752.14,2.009,2.009,0,0,1-.585-.085,27.914,27.914,0,0,1-9.745-5.234.319.319,0,0,0-.445-.027,31.9,31.9,0,0,1-9.635,5.261,1.54,1.54,0,0,1-.584.112,1.683,1.683,0,0,1-.641-.139,2.249,2.249,0,0,1-1-.807,1.121,1.121,0,0,1-.2-.613,1.414,1.414,0,0,1,.057-.389,1,1,0,0,1,.7-.7,28.8,28.8,0,0,0,9.272-4.707.208.208,0,0,0,.028-.361,32.92,32.92,0,0,1-6.127-10.637.345.345,0,0,0-.362-.25h-2.588a1.281,1.281,0,0,1,0-2.562h9.828a.246.246,0,0,0,.279-.278v-3.062a1.332,1.332,0,0,1,1.349-1.337,1.3,1.3,0,0,1,.96.39,1.28,1.28,0,0,1,.393.947v3.062a.243.243,0,0,0,.275.278h10A1.229,1.229,0,0,1,177.93,152.983Zm-7.059,2.436a.175.175,0,0,0-.027-.167.185.185,0,0,0-.166-.083H159.986a.182.182,0,0,0-.165.083.131.131,0,0,0,0,.167,25.48,25.48,0,0,0,5.372,8.687.242.242,0,0,0,.389,0A25.288,25.288,0,0,0,170.871,155.419Z" fill="#4c4948"/><path d="M187.4,150.241a1.469,1.469,0,0,1,.778-.752,1.49,1.49,0,0,1,.614-.14,1.468,1.468,0,0,1,.471.085,1.175,1.175,0,0,1,.755.668,1.227,1.227,0,0,1,.111.473,1.063,1.063,0,0,1-.142.529,41.209,41.209,0,0,1-2.363,4.344,1.052,1.052,0,0,0-.142.529v17.374a1.292,1.292,0,0,1-.389.946,1.309,1.309,0,0,1-1.864,0,1.289,1.289,0,0,1-.39-.946V159.708c0-.038-.023-.065-.07-.084a.106.106,0,0,0-.126.029q-.943,1.167-1.978,2.254a1.06,1.06,0,0,1-.779.334.9.9,0,0,1-.224-.028,1.178,1.178,0,0,1-.889-.612,2.039,2.039,0,0,1-.252-.975v-.277a2.083,2.083,0,0,1,.587-1.17A30.557,30.557,0,0,0,187.4,150.241Zm10.106,21.606h4.955a1.333,1.333,0,0,0,1.325-.723,9.978,9.978,0,0,0,.516-2.98.736.736,0,0,1,.444-.654.911.911,0,0,1,.833-.014,2.054,2.054,0,0,1,.893.752,1.583,1.583,0,0,1,.279.89v.167a8.075,8.075,0,0,1-1.183,3.954,3.492,3.492,0,0,1-2.91,1.113h-5.4c-1.612,0-2.709-.305-3.283-.918s-.866-1.781-.866-3.508V150.575a1.309,1.309,0,0,1,.378-.946,1.246,1.246,0,0,1,.932-.39,1.33,1.33,0,0,1,1.337,1.336v8.6a.165.165,0,0,0,.083.139.14.14,0,0,0,.169,0,47.893,47.893,0,0,0,6.544-4.4,1.462,1.462,0,0,1,.943-.334h.142a1.43,1.43,0,0,1,1,.529,1.344,1.344,0,0,1,.334.891.829.829,0,0,1-.031.195,1.209,1.209,0,0,1-.555.946,82.9,82.9,0,0,1-8.38,4.9.394.394,0,0,0-.252.391v7.517a2.484,2.484,0,0,0,.319,1.545A2.039,2.039,0,0,0,197.51,171.847Z" fill="#4c4948"/><path d="M209.894,170.4a.786.786,0,0,1-.575-.237.774.774,0,0,1,0-1.113.791.791,0,0,1,.575-.238h23.693a.78.78,0,0,1,.57.238.774.774,0,0,1,0,1.113.775.775,0,0,1-.57.237h-5.568a.065.065,0,0,0-.071.056c-.008.038,0,.055.043.055a28.539,28.539,0,0,1,4.538,2.673.769.769,0,0,1,.291.654.746.746,0,0,1-.346.627,1.388,1.388,0,0,1-.81.25h-.082a1.508,1.508,0,0,1-.862-.333l-.837-.613a.631.631,0,0,0-.445-.112q-8.016.5-17.543.948a.965.965,0,0,1-.7-.223.978.978,0,0,1-.362-.613.818.818,0,0,1,.755-.946l2.643-.084a.606.606,0,0,0,.444-.251q.615-.889,1.145-1.837a.146.146,0,0,0,0-.167.173.173,0,0,0-.142-.084Zm6.874-17.068a.97.97,0,0,1-.736-.306,1.009,1.009,0,0,1-.3-.724.1.1,0,0,0-.11-.11H210.2a.961.961,0,0,1-.684-.28.945.945,0,0,1,0-1.364.962.962,0,0,1,.684-.277h5.345c.129,0,.192-.057.192-.168v-.279a1.282,1.282,0,0,1,2.564,0v.279c0,.111.063.168.193.168h6.434c.129,0,.192-.057.192-.168v-.279a1.227,1.227,0,0,1,.378-.9,1.253,1.253,0,0,1,.92-.376,1.287,1.287,0,0,1,1.294,1.28v.279a.148.148,0,0,0,.165.168h5.513a.95.95,0,0,1,.976.959.932.932,0,0,1-.279.682.943.943,0,0,1-.7.28h-5.568a.1.1,0,0,0-.11.11,1.047,1.047,0,0,1-1.03,1.03h-.531a.97.97,0,0,1-.736-.306,1.009,1.009,0,0,1-.295-.724.1.1,0,0,0-.11-.11h-6.6a.1.1,0,0,0-.11.11,1,1,0,0,1-.295.724.966.966,0,0,1-.735.306Zm15.23,10h.5a.974.974,0,0,0,.247-.029.456.456,0,0,0,.307-.195.993.993,0,0,0,.114-.39q.024-.3.083-1.225a.418.418,0,0,1,.251-.4.5.5,0,0,1,.5.014,1.162,1.162,0,0,1,.751,1.085,6.328,6.328,0,0,1-.22,1.839,1.617,1.617,0,0,1-.531.751,2.069,2.069,0,0,1-.5.25,2.219,2.219,0,0,1-.92.167h-1.14a2.09,2.09,0,0,1-1.506-.557,1.455,1.455,0,0,1-.4-.751,7.4,7.4,0,0,1-.125-1.643v-4.594a.247.247,0,0,0-.279-.278h-1.393a.276.276,0,0,0-.306.278,11.121,11.121,0,0,1-.335,2.088.367.367,0,0,0,.17.418c.463.278.869.539,1.223.78a.935.935,0,0,1,.377.7,1.022,1.022,0,0,1-.236.779.877.877,0,0,1-.668.362,1.1,1.1,0,0,1-.755-.223c-.221-.167-.472-.342-.752-.529-.11-.092-.2-.073-.275.056a9.928,9.928,0,0,1-2.674,2.98,1.229,1.229,0,0,1-.751.25h-.169a1.531,1.531,0,0,1-.889-.417.416.416,0,0,0-.252-.085q-6.517.5-11.054.781h-.055a.83.83,0,0,1-.559-.223.787.787,0,0,1-.082-1.114.689.689,0,0,1,.531-.25l1.848-.112c.92-.055,1.66-.093,2.214-.112a.246.246,0,0,0,.279-.277v-.641a.247.247,0,0,0-.279-.279h-2.922a.662.662,0,0,1-.487-.209.739.739,0,0,1,0-1.03.666.666,0,0,1,.487-.209h3.064a.122.122,0,0,0,.137-.139,1.231,1.231,0,0,1,.362-.877,1.191,1.191,0,0,1,.893-.376h.554c.13,0,.185-.065.17-.2a4.413,4.413,0,0,1-.056-.808v-.361a.247.247,0,0,0-.279-.278H214.6a.345.345,0,0,0-.362.25,3.462,3.462,0,0,1-1.156,1.587,6.091,6.091,0,0,1-2.269.975,1.325,1.325,0,0,1-.248.028,1.2,1.2,0,0,1-.948-.529.508.508,0,0,1-.055-.46.426.426,0,0,1,.335-.291,3.75,3.75,0,0,0,2.532-1.31.206.206,0,0,0-.016-.167.155.155,0,0,0-.153-.083H210.31a.712.712,0,0,1-.723-.724.691.691,0,0,1,.208-.515.7.7,0,0,1,.515-.21h3.98a.246.246,0,0,0,.279-.277v-.419a.246.246,0,0,0-.279-.277h-2.67a.664.664,0,0,1-.488-.21.706.706,0,0,1,0-1,.66.66,0,0,1,.488-.21h2.867a.073.073,0,0,0,.082-.083.719.719,0,0,1,.225-.529.709.709,0,0,1,.527-.222h.751a.763.763,0,0,1,.755.751.073.073,0,0,0,.082.083h2.812a.7.7,0,0,1,.515.21.7.7,0,0,1,0,1,.7.7,0,0,1-.515.21H217.1a.243.243,0,0,0-.275.277v.419a.243.243,0,0,0,.275.277h3.928a.725.725,0,1,1,0,1.449h-2.619a.247.247,0,0,0-.279.278v.361c0,.224.028.363.087.419a.535.535,0,0,0,.361.083h1.306c.205,0,.334-.045.393-.139a.813.813,0,0,1,.61-.418.645.645,0,0,1,.2.028h.027a.92.92,0,0,1,.472.362.532.532,0,0,1,.055.529,1.351,1.351,0,0,1-1.447.863h-1.837a3.073,3.073,0,0,1-1.282-.195.178.178,0,0,0-.153.014.143.143,0,0,0-.067.126v.445a.244.244,0,0,0,.275.278h2.981a.669.669,0,0,1,.488.209.742.742,0,0,1,0,1.03.666.666,0,0,1-.488.209h-2.981a.245.245,0,0,0-.275.279v.5a.224.224,0,0,0,.083.181.292.292,0,0,0,.192.07l4.094-.223a.475.475,0,0,1,.334.125.408.408,0,0,1,.142.321l.028.028a8.88,8.88,0,0,0,2.615-2.869.275.275,0,0,0-.138-.39c-.594-.314-1.078-.566-1.447-.751a.673.673,0,0,1-.389-.487.687.687,0,0,1,.137-.628,1.253,1.253,0,0,1,.669-.43,1.193,1.193,0,0,1,.778.069c.17.074.492.233.976.473.149.075.239.028.279-.139a8.2,8.2,0,0,0,.137-1.058.193.193,0,0,0-.054-.195.275.275,0,0,0-.2-.083h-1.754a.961.961,0,0,1,0-1.921h1.9a.171.171,0,0,0,.193-.2v-.611a.987.987,0,0,1,.307-.725,1.008,1.008,0,0,1,1.447,0,.987.987,0,0,1,.307.725v.611a.174.174,0,0,0,.2.2h1.475a2.419,2.419,0,0,1,2.423,2.421V162.3a5.383,5.383,0,0,0,.027.779.262.262,0,0,0,.141.195A.441.441,0,0,0,232,163.328Zm-19.112,4.05a.778.778,0,0,1-.236-.57.738.738,0,0,1,.236-.558.8.8,0,0,1,.57-.223h16.761a.8.8,0,0,1,.57.223.738.738,0,0,1,.236.558.807.807,0,0,1-.806.807H213.456A.772.772,0,0,1,212.886,167.378Zm13.461,3.105a.075.075,0,0,0,.028-.055c0-.02-.008-.029-.028-.029h-7.432a.53.53,0,0,0-.448.223c-.575.779-1.019,1.364-1.338,1.754a.138.138,0,0,0,.115.223q2.978-.112,9.8-.446a.069.069,0,0,0,.071-.042c.008-.028-.008-.05-.043-.069-.24-.13-.464-.242-.669-.334a.716.716,0,0,1-.055-1.225Z" fill="#4c4948"/><path d="M254.6,155.057c.243.242.361.362.361.362v.5a1.234,1.234,0,0,1-1.223,1.225H251.2a.244.244,0,0,0-.275.279v15.647a1.229,1.229,0,0,1-.362.877,1.181,1.181,0,0,1-.877.376,1.169,1.169,0,0,1-.877-.376,1.213,1.213,0,0,1-.362-.877V157.425a.247.247,0,0,0-.279-.279h-2.4a1.327,1.327,0,0,1-.96-.39,1.293,1.293,0,0,1-.405-.975c-.039-.018-.055-.018-.055,0q-.807,1.589-1.868,3.258a.957.957,0,0,0-.137.5v13.978a1.236,1.236,0,0,1-1.239,1.225,1.157,1.157,0,0,1-.865-.362,1.2,1.2,0,0,1-.346-.863V162.77a.114.114,0,0,0-.2-.083c-.369.408-.7.752-.971,1.03a.964.964,0,0,1-.7.307h-.2a1.094,1.094,0,0,1-.806-.558,1.636,1.636,0,0,1-.252-.863v-.223a1.734,1.734,0,0,1,.5-1,23.309,23.309,0,0,0,4.038-5.207,2.711,2.711,0,0,1,1.255-1.114,2.212,2.212,0,0,1,.889-.194,2.016,2.016,0,0,1,.723.139l.2.055a.024.024,0,0,0,.027-.027.336.336,0,0,1,.335-.334h3.425a.247.247,0,0,0,.279-.279v-4.176a1.241,1.241,0,0,1,2.116-.892,1.219,1.219,0,0,1,.362.892v4.176a.244.244,0,0,0,.275.279h2.536A1.176,1.176,0,0,1,254.6,155.057Zm-13.753-5.373a1.81,1.81,0,0,1,.834-.668,1.489,1.489,0,0,1,.559-.111,1.359,1.359,0,0,1,.472.083,1.006,1.006,0,0,1,.641.641,1.107,1.107,0,0,1,.055.334.941.941,0,0,1-.166.529,27.425,27.425,0,0,1-4.262,4.845,1.071,1.071,0,0,1-.7.249h-.166a1.238,1.238,0,0,1-1.03-1.225.492.492,0,0,1,.028-.167,1.234,1.234,0,0,1,.444-.834A18.962,18.962,0,0,0,240.846,149.684Zm4.035,11.694a.976.976,0,0,1,.378-.724,1.017,1.017,0,0,1,.794-.223,1.091,1.091,0,0,1,.736.418,1.022,1.022,0,0,1,.236.807,32.75,32.75,0,0,1-1.585,8.353.727.727,0,0,1-.543.487.9.9,0,0,1-.739-.125,1.352,1.352,0,0,1-.527-.724,1.207,1.207,0,0,1-.087-.417,1.365,1.365,0,0,1,.087-.474A30.571,30.571,0,0,0,244.881,161.378Zm10.166-9.187a1.078,1.078,0,0,1,.027.792,1.015,1.015,0,0,1-.558.6.9.9,0,0,1-.739.014,1.1,1.1,0,0,1-.571-.543,18.927,18.927,0,0,0-1.195-2.173.821.821,0,0,1-.1-.682.708.708,0,0,1,.46-.515,1,1,0,0,1,.767-.083,1.158,1.158,0,0,1,.652.473A21.6,21.6,0,0,1,255.047,152.191Zm-2.871,9.493a.953.953,0,0,1-.027-.195.986.986,0,0,1,.81-.974,1.106,1.106,0,0,1,.763.167,1.059,1.059,0,0,1,.46.64,55.066,55.066,0,0,1,1.085,6.377,1.055,1.055,0,0,1-.22.807,1.159,1.159,0,0,1-.728.445.962.962,0,0,1-.751-.208.931.931,0,0,1-.362-.683Q252.93,165.36,252.176,161.684Zm9.635-3.675a1.2,1.2,0,1,1,0,2.4h-.975a.223.223,0,0,0-.252.25v11.081a4.788,4.788,0,0,1-.22,1.644,1.729,1.729,0,0,1-.866.918,7.889,7.889,0,0,1-2.784.39.071.071,0,0,1-.055.027,1.511,1.511,0,0,1-.975-.362,1.833,1.833,0,0,1-.61-.945.789.789,0,0,1-.059-.307.85.85,0,0,1,.2-.529.876.876,0,0,1,.751-.389h1.616a.417.417,0,0,0,.5-.5v-11a.245.245,0,0,0-.279-.278h-1.448a1.165,1.165,0,0,1-.833-.348,1.178,1.178,0,0,1,0-1.7,1.165,1.165,0,0,1,.833-.348Zm-.417-7.851a1.155,1.155,0,0,1,.849.348,1.181,1.181,0,0,1,0,1.67,1.151,1.151,0,0,1-.849.348h-4.373a1.122,1.122,0,0,1-.822-.348,1.183,1.183,0,0,1,.822-2.018Z" fill="#4c4948"/><path d="M290.746,162.366a1.112,1.112,0,0,1,0,1.559,1.08,1.08,0,0,1-.794.321h-4.318a.108.108,0,0,0-.11.07.107.107,0,0,0,.027.124,15.629,15.629,0,0,0,4.594,3.175.888.888,0,0,1,.546.654.926.926,0,0,1-.212.822,1.76,1.76,0,0,1-.944.612,1.413,1.413,0,0,1-.389.056,1.525,1.525,0,0,1-.7-.167,17.855,17.855,0,0,1-5.793-5.124.527.527,0,0,0-.444-.222h-7.936a.529.529,0,0,0-.445.222,18.371,18.371,0,0,1-2.147,2.478c-.035.019-.043.053-.027.1a.091.091,0,0,0,.086.069h4.731c.15,0,.224-.064.224-.194v-.585a1.335,1.335,0,1,1,2.67,0v.585c0,.13.075.194.225.194h4.373a1,1,0,0,1,.751.321,1.052,1.052,0,0,1,.306.752,1.009,1.009,0,0,1-.306.738,1.025,1.025,0,0,1-.751.306h-4.318a.247.247,0,0,0-.28.277v1.978a.247.247,0,0,0,.28.278h8.215a1.1,1.1,0,0,1,0,2.2h-19.3a1.041,1.041,0,0,1-.763-.32,1.1,1.1,0,0,1,.763-1.88h7.853a.247.247,0,0,0,.279-.278v-1.978a.246.246,0,0,0-.279-.277h-3.48a1.653,1.653,0,0,1-1.2-.487,1.593,1.593,0,0,1-.5-1.184.091.091,0,0,0-.055-.083c-.039-.019-.067-.019-.083,0a20.649,20.649,0,0,1-3.37,2.394,1.369,1.369,0,0,1-.7.195,1.338,1.338,0,0,1-.362-.056,1.819,1.819,0,0,1-.92-.584.924.924,0,0,1-.208-.822.972.972,0,0,1,.515-.682,16.5,16.5,0,0,0,4.735-3.481.107.107,0,0,0,.027-.124.108.108,0,0,0-.11-.07h-4.483a1.1,1.1,0,1,1,0-2.2h4.149a.244.244,0,0,0,.275-.278v-8.241a.244.244,0,0,0-.275-.279H267.6a1.086,1.086,0,0,1,0-2.172h2.811a.22.22,0,0,0,.248-.25v-.891a1.324,1.324,0,1,1,2.647,0v.891a.221.221,0,0,0,.251.25h9.187a.221.221,0,0,0,.251-.25v-.836a1.3,1.3,0,0,1,.405-.974,1.327,1.327,0,0,1,.96-.39,1.3,1.3,0,0,1,.948.39,1.327,1.327,0,0,1,.389.974v.836a.22.22,0,0,0,.248.25H288.7a1.086,1.086,0,0,1,0,2.172h-2.729a.245.245,0,0,0-.275.279v8.241a.244.244,0,0,0,.275.278h3.984A1.091,1.091,0,0,1,290.746,162.366Zm-7.755-8.839a.247.247,0,0,0-.279-.279h-9.131a.247.247,0,0,0-.279.279v1.029a.247.247,0,0,0,.279.279h9.131a.247.247,0,0,0,.279-.279Zm-9.41,3.257a.247.247,0,0,0-.279.279v1.058a.247.247,0,0,0,.279.278h9.131a.247.247,0,0,0,.279-.278v-1.058a.247.247,0,0,0-.279-.279Zm0,3.565a.246.246,0,0,0-.279.277v1.142a.247.247,0,0,0,.279.278h9.131a.247.247,0,0,0,.279-.278v-1.142a.246.246,0,0,0-.279-.277Z" fill="#4c4948"/><path d="M307.794,164.468a.246.246,0,0,0-.279.279v5.9a.245.245,0,0,0,.279.278h9.328a1.136,1.136,0,0,1,.833.334,1.175,1.175,0,0,1,0,1.643,1.139,1.139,0,0,1-.833.334H295.4a1.1,1.1,0,0,1-.806-.334,1.177,1.177,0,0,1,0-1.643,1.094,1.094,0,0,1,.806-.334h9.049a.246.246,0,0,0,.279-.278v-5.9a.247.247,0,0,0-.279-.279h-7.684a1.142,1.142,0,0,1,0-2.283h7.684a.246.246,0,0,0,.279-.278v-2.84a.247.247,0,0,0-.279-.278h-3.98a1.332,1.332,0,0,1-1.337-1.337c0-.017-.015-.037-.043-.055a.051.051,0,0,0-.071,0q-1.444,1.031-3.173,2.031a1.315,1.315,0,0,1-.641.168,1.125,1.125,0,0,1-.362-.056,1.671,1.671,0,0,1-.889-.584,1.059,1.059,0,0,1-.251-.7.738.738,0,0,1,.027-.195,1.03,1.03,0,0,1,.5-.752,30.211,30.211,0,0,0,5.569-3.926,26.282,26.282,0,0,0,4.121-4.4,2.493,2.493,0,0,1,2.116-1.113,2.738,2.738,0,0,1,2.171,1.058,28.953,28.953,0,0,0,4.675,4.621,31.928,31.928,0,0,0,5.349,3.453,1.075,1.075,0,0,1,.609.78,1.3,1.3,0,0,1,.032.278,1.236,1.236,0,0,1-.224.7,1.716,1.716,0,0,1-.948.667,1.35,1.35,0,0,1-.39.058,1.415,1.415,0,0,1-.723-.2,32.214,32.214,0,0,1-3.146-2c-.04-.037-.071-.046-.1-.027a.09.09,0,0,0-.039.082,1.433,1.433,0,0,1-1.451,1.449h-4.062a.245.245,0,0,0-.279.278v2.84a.245.245,0,0,0,.279.278h7.877a1.142,1.142,0,1,1,0,2.283Zm-9.438,2.255a1,1,0,0,1-.142-.5,1.462,1.462,0,0,1,.028-.306.925.925,0,0,1,.558-.613,1.94,1.94,0,0,1,.555-.083,1.758,1.758,0,0,1,.42.055,1.322,1.322,0,0,1,.779.557,17.064,17.064,0,0,1,1.557,2.756,1.606,1.606,0,0,1,.087.5,1.216,1.216,0,0,1-.114.5,1.373,1.373,0,0,1-.724.724,1.049,1.049,0,0,1-.417.083,1.016,1.016,0,0,1-.472-.111,1.189,1.189,0,0,1-.641-.668A15.31,15.31,0,0,0,298.356,166.723Zm2.115-10.441c-.039.02-.047.051-.027.1s.043.069.082.069h11.527c.035,0,.063-.023.082-.069a.069.069,0,0,0-.027-.1,30.562,30.562,0,0,1-5.793-5.6.182.182,0,0,0-.165-.083.193.193,0,0,0-.169.083A29.173,29.173,0,0,1,300.471,156.282Zm11.554,13.7a1.283,1.283,0,0,1-.751.474,1.043,1.043,0,0,1-.334.055,1.216,1.216,0,0,1-.559-.139.758.758,0,0,1-.471-.584.52.52,0,0,1-.055-.251.9.9,0,0,1,.165-.5,24.75,24.75,0,0,0,1.671-2.952,1.346,1.346,0,0,1,.779-.724,1.5,1.5,0,0,1,.558-.111,1.856,1.856,0,0,1,.527.082,1.091,1.091,0,0,1,.641.669,1,1,0,0,1,.083.39.958.958,0,0,1-.193.556C313.323,168.135,312.639,169.146,312.025,169.981Z" fill="#4c4948"/><path d="M332.034,149.461a3.094,3.094,0,0,1,2.116-.89,3.334,3.334,0,0,1,2.174.807,29.907,29.907,0,0,0,10.107,5.485.841.841,0,0,1,.582.585.93.93,0,0,1,.059.3.948.948,0,0,1-.169.529,1.716,1.716,0,0,1-.889.7,1.3,1.3,0,0,1-.531.113,1.264,1.264,0,0,1-.527-.113,37.927,37.927,0,0,1-5.458-2.589c-.075-.037-.11-.018-.11.057a1,1,0,0,1-1,1h-7.8a1,1,0,0,1-.751-.321,1.066,1.066,0,0,1-.307-.766c0-.017-.012-.036-.039-.055s-.055-.018-.071,0a37.932,37.932,0,0,1-5.71,2.84,1.278,1.278,0,0,1-.527.112,1.443,1.443,0,0,1-.472-.085,1.71,1.71,0,0,1-.81-.639.948.948,0,0,1-.165-.529.9.9,0,0,1,.055-.307.835.835,0,0,1,.527-.584,35.386,35.386,0,0,0,5.431-2.562A23.706,23.706,0,0,0,332.034,149.461Zm-4.813,14.674a2.422,2.422,0,0,1-2.423-2.423v-2.533a2.421,2.421,0,0,1,2.423-2.423H341.81a2.421,2.421,0,0,1,2.419,2.423v2.533a2.422,2.422,0,0,1-2.419,2.423Zm.5,10.579a1.33,1.33,0,0,1-1.31-1.307v-5.681a2.428,2.428,0,0,1,2.423-2.422h11.416a2.426,2.426,0,0,1,2.422,2.422V173.3a1.38,1.38,0,0,1-1.364,1.364h-.669a.667.667,0,0,1-.668-.668.073.073,0,0,0-.083-.083H329.112a.073.073,0,0,0-.083.083.705.705,0,0,1-.208.515.673.673,0,0,1-.488.208Zm-.389-16.231a.247.247,0,0,0-.28.278v3.4a.248.248,0,0,0,.28.279h5.623a.247.247,0,0,0,.279-.279v-3.4a.246.246,0,0,0-.279-.278Zm1.557,1.559a.744.744,0,0,1-.012-.669.8.8,0,0,1,.488-.445,1.317,1.317,0,0,1,.822.042,1.1,1.1,0,0,1,.6.516,8.877,8.877,0,0,1,.641,1.335.837.837,0,0,1-.043.766,1.094,1.094,0,0,1-.625.516.9.9,0,0,1-.767-.071,1.085,1.085,0,0,1-.515-.6A13.991,13.991,0,0,0,328.888,160.042Zm11.082,7.322a.246.246,0,0,0-.279-.278H329.309a.246.246,0,0,0-.28.278v1.058a.246.246,0,0,0,.28.279h10.382a.246.246,0,0,0,.279-.279Zm-10.941,4.456a.245.245,0,0,0,.28.277h10.382a.245.245,0,0,0,.279-.277v-1.087a.246.246,0,0,0-.279-.278H329.309a.246.246,0,0,0-.28.278Zm1.754-18.349a.053.053,0,0,0-.027.083.082.082,0,0,0,.082.056h7.1a.063.063,0,0,0,.07-.056.1.1,0,0,0-.011-.083,27.08,27.08,0,0,1-3.512-2.645.255.255,0,0,0-.389.028A27.269,27.269,0,0,1,330.783,153.471Zm10.8,8.966a.247.247,0,0,0,.279-.279v-3.4a.246.246,0,0,0-.279-.278h-5.9a.246.246,0,0,0-.279.278v3.4a.247.247,0,0,0,.279.279Zm-3.732-2.813a1.188,1.188,0,0,1,.614-.668,1.056,1.056,0,0,1,.554-.167,1.035,1.035,0,0,1,.334.055.886.886,0,0,1,.629.516.9.9,0,0,1-.043.822q-.442.863-.778,1.419a1.231,1.231,0,0,1-.626.515,1.116,1.116,0,0,1-.794.014.813.813,0,0,1-.5-1.142Q337.577,160.321,337.854,159.624Z" fill="#4c4948"/><path d="M116.171,172.547a1.48,1.48,0,1,1-2.954,0V151.626a1.455,1.455,0,0,1,1.577-1.611h5.474c3.762,0,7.321,2.552,7.321,6.447,0,4.835-2.955,6.649-6.514,6.783l-1.277.033,7.624,8.362a1.8,1.8,0,0,1,.57,1.344,1.252,1.252,0,0,1-1.343,1.141,1.743,1.743,0,0,1-1.343-.671l-9.135-10.008Zm0-11.485H120.2c3.089,0,4.432-1.309,4.432-4.4a4.178,4.178,0,0,0-4.5-4.1h-3.964Z" fill="#4c4948"/><path d="M142.222,171.573c3.592,0,5.171-2.149,6.414-2.149.7,0,1.174.538,1.174,1.376,0,1.512-3.39,3.325-7.588,3.325-6.918,0-10.479-5.944-10.479-12.156s3.561-12.156,10.646-12.156c4.231,0,6.917,2.283,6.917,3.492a1.28,1.28,0,0,1-1.209,1.411c-1.343,0-2.014-2.35-5.708-2.35-5.305,0-7.488,5.036-7.488,9.6S137.151,171.573,142.222,171.573Z" fill="#4c4948"/><path d="M178.224,89.132a44.546,44.546,0,0,1-39.113-65.758A44.558,44.558,0,0,1,199.505,5.39h0a44.555,44.555,0,0,1-21.281,83.742Zm.132-85.909A41.478,41.478,0,0,0,166.5,4.962a41.076,41.076,0,1,0,11.853-1.739Z" fill="#e50012"/><path d="M175.2,89.024A19.627,19.627,0,1,1,192.5,78.74,19.527,19.527,0,0,1,175.2,89.024Zm.057-35.639a16.07,16.07,0,0,0-4.59.673,15.9,15.9,0,1,0,4.59-.673Z" fill="#d7000f"/><path d="M221.781,35q.2.916.368,1.843c.108.612.206,1.225.289,1.842a41.825,41.825,0,0,1-21.654,68.267q-.672.707-1.374,1.382-.673.648-1.373,1.269A43.922,43.922,0,0,0,221.781,35Z" fill="#f29600"/><path d="M212.944,74.422c-.027-.557-.113-1.1-.159-1.653-.357.437-.719.866-1.09,1.286s-.77.864-1.168,1.281A41.7,41.7,0,0,1,130.7,93.383q-.987-.708-1.927-1.46c-.622-.5-1.232-1.013-1.822-1.542a44.22,44.22,0,0,0,41.869,30.3c.7,0,1.412-.017,2.122-.051A44.207,44.207,0,0,0,212.944,74.422Z" fill="#ec6c00"/><path d="M186.227,88.389c-.823.149-1.649.284-2.48.388a41.538,41.538,0,0,1-64.041-50.553h0a41.208,41.208,0,0,1,22.578-19.813c.5-.693,1-1.39,1.534-2.049s1.119-1.275,1.691-1.9c-.774.2-1.553.369-2.321.612a44.067,44.067,0,0,0-25.983,21.851h0a44.349,44.349,0,0,0,71.582,50.916Q187.515,88.151,186.227,88.389Z" fill="#e7380d"/></g></svg>