<svg xmlns="http://www.w3.org/2000/svg" viewBox="0 0 363 210">
  <g>
    <path d="M9.15,190.58a1.3,1.3,0,0,1,1.28-1.32h5.35a6.06,6.06,0,0,1,4.3,1.49A4.51,4.51,0,0,1,21.31,194v0a4.42,4.42,0,0,1-3.38,4.44L20.78,202a1.51,1.51,0,0,1,.42,1A1.23,1.23,0,0,1,20,204.25a1.49,1.49,0,0,1-1.28-.68L15.06,199h-3.3v4a1.28,1.28,0,0,1-1.27,1.3h0A1.29,1.29,0,0,1,9.15,203V190.58Zm6.44,6.06c1.87,0,3.06-1,3.06-2.49v0c0-1.59-1.15-2.46-3.08-2.46H11.76v5Z" fill="#4c4948"/>
    <path d="M23.81,196.75v0a7.53,7.53,0,0,1,7.36-7.7h.32a7.79,7.79,0,0,1,5.1,1.67,1.34,1.34,0,0,1,.51,1A1.31,1.31,0,0,1,35.76,193a1.27,1.27,0,0,1-.75-.25,5.38,5.38,0,0,0-3.55-1.34,5,5,0,0,0-4.91,5.09v.2A5,5,0,0,0,31.3,202h.16a5.29,5.29,0,0,0,3.72-1.42,1.21,1.21,0,0,1,.79-.3,1.23,1.23,0,0,1,1.23,1.21,1.25,1.25,0,0,1-.42.94,7.68,7.68,0,0,1-5.4,2,7.5,7.5,0,0,1-7.57-7.4Z" fill="#4c4948"/>
    <path d="M45.79,196.75v0a7.52,7.52,0,0,1,7.36-7.7h.31a7.77,7.77,0,0,1,5.1,1.67,1.34,1.34,0,0,1,.51,1A1.3,1.3,0,0,1,57.73,193a1.22,1.22,0,0,1-.74-.25,5.42,5.42,0,0,0-3.55-1.34,5,5,0,0,0-4.92,5.09.81.81,0,0,0,0,.16v0A5,5,0,0,0,53.27,202h.17a5.29,5.29,0,0,0,3.72-1.42,1.21,1.21,0,0,1,.79-.3,1.24,1.24,0,0,1,1.23,1.21,1.25,1.25,0,0,1-.42.94,7.59,7.59,0,0,1-5.4,2A7.49,7.49,0,0,1,45.78,197,2.17,2.17,0,0,1,45.79,196.75Z" fill="#4c4948"/>
    <path d="M71.76,203a1.3,1.3,0,0,1-2.59,0v-.58a4,4,0,0,1-3.51,2c-2.53,0-4-1.7-4-4.31v-6a1.29,1.29,0,0,1,2.58-.07v5.28c0,1.75.87,2.72,2.4,2.72a2.48,2.48,0,0,0,2.54-2.41,2,2,0,0,0,0-.35v-5.17a1.28,1.28,0,0,1,1.27-1.3h0a1.3,1.3,0,0,1,1.3,1.3h0Z" fill="#4c4948"/>
    <path d="M75.07,189.8a1.27,1.27,0,0,1,1.26-1.28h0a1.28,1.28,0,0,1,1.3,1.27h0V203a1.29,1.29,0,0,1-2.57,0Z" fill="#4c4948"/>
    <path d="M81.49,201v-5.91h-.43a1.11,1.11,0,0,1,0-2.21h.43V191a1.29,1.29,0,1,1,2.57,0v1.91h2a1.11,1.11,0,0,1,.07,2.21H84.06v5.51a1.24,1.24,0,0,0,1,1.4,1.45,1.45,0,0,0,.36,0,4.81,4.81,0,0,0,.64-.07A1.09,1.09,0,0,1,87.17,203a1.12,1.12,0,0,1-.68,1,5.29,5.29,0,0,1-1.76.3C82.83,204.34,81.49,203.51,81.49,201Z" fill="#4c4948"/>
    <path d="M99.62,203A1.3,1.3,0,0,1,97,203v-.58a4,4,0,0,1-3.51,2c-2.53,0-4-1.7-4-4.32v-6a1.29,1.29,0,0,1,2.57-.07.09.09,0,0,1,0,.07v5.21c0,1.74.88,2.72,2.4,2.72A2.48,2.48,0,0,0,97,199.61c0-.12,0-.24,0-.35v-5.17a1.28,1.28,0,0,1,1.27-1.3h0a1.3,1.3,0,0,1,1.3,1.3h0Z" fill="#4c4948"/>
    <path d="M102.79,194.09a1.27,1.27,0,0,1,1.24-1.3h0a1.29,1.29,0,0,1,1.3,1.28v1.17c.6-1.4,1.7-2.47,2.83-2.47a1.2,1.2,0,0,1,1.28,1.11v.17a1.2,1.2,0,0,1-1,1.23c-1.83.32-3.09,1.72-3.09,4.38V203a1.27,1.27,0,0,1-1.29,1.27h0a1.25,1.25,0,0,1-1.27-1.25v-8.91Z" fill="#4c4948"/>
    <path d="M116.28,204.4a5.6,5.6,0,0,1-5.76-5.43v-.44a5.58,5.58,0,0,1,5.29-5.84h.2a5.31,5.31,0,0,1,5.34,5.28v.25a1.21,1.21,0,0,1-1.17,1.23H113.1a3.13,3.13,0,0,0,3.23,2.85,4.12,4.12,0,0,0,2.66-1,.92.92,0,0,1,.66-.23,1,1,0,0,1,1,1v0a1.14,1.14,0,0,1-.34.78A5.77,5.77,0,0,1,116.28,204.4Zm2.56-6.65c-.17-1.66-1.15-3-2.85-3a3,3,0,0,0-2.91,3Z" fill="#4c4948"/>
    <path d="M129.52,200.91v0c0-2.42,1.9-3.61,4.64-3.61a9.43,9.43,0,0,1,3,.47v-.28c0-1.6-1-2.45-2.79-2.45a6.65,6.65,0,0,0-2.49.45,1.34,1.34,0,0,1-.4.06,1.06,1.06,0,0,1-1.08-1h0a1.12,1.12,0,0,1,.7-1,9.7,9.7,0,0,1,3.61-.66,5,5,0,0,1,3.73,1.26,4.68,4.68,0,0,1,1.21,3.46V203a1.22,1.22,0,0,1-1.22,1.23h0a1.16,1.16,0,0,1-1.25-1.06v-.45a4.56,4.56,0,0,1-3.66,1.64C131.4,204.38,129.52,203.17,129.52,200.91Zm7.7-.8v-.77a7.13,7.13,0,0,0-2.55-.44c-1.65,0-2.63.7-2.63,1.87v0c0,1.08,1,1.7,2.19,1.7,1.69,0,3-1,3-2.4Z" fill="#4c4948"/>
    <path d="M142.7,194.09a1.28,1.28,0,0,1,1.24-1.3h0a1.29,1.29,0,0,1,1.3,1.28v.57a4.06,4.06,0,0,1,3.51-1.95c2.53,0,4,1.7,4,4.29v6a1.27,1.27,0,0,1-1.23,1.28h-.05a1.28,1.28,0,0,1-1.3-1.24v-5.25c0-1.74-.87-2.74-2.4-2.74a2.5,2.5,0,0,0-2.55,2.45c0,.11,0,.22,0,.34V203a1.29,1.29,0,1,1-2.57,0Z" fill="#4c4948"/>
    <path d="M166.87,203a1.29,1.29,0,0,1-2.57,0v-.7a4.53,4.53,0,0,1-3.83,2.1c-2.64,0-5.21-2.1-5.21-5.83v0c0-3.72,2.53-5.83,5.21-5.83a4.62,4.62,0,0,1,3.83,2v-4.87a1.29,1.29,0,0,1,2.57,0Zm-9-4.47v.05a3.33,3.33,0,0,0,3.07,3.58h.16a3.38,3.38,0,0,0,3.25-3.5v-.14a3.38,3.38,0,0,0-3.14-3.59h-.11a3.3,3.3,0,0,0-3.25,3.34,2.11,2.11,0,0,0,0,.25Z" fill="#4c4948"/>
    <path d="M175.84,202.45l5.52-12.34a1.67,1.67,0,0,1,1.58-1.06h.12a1.63,1.63,0,0,1,1.55,1.06l5.53,12.34a1,1,0,0,1,.15.55,1.22,1.22,0,0,1-1.19,1.25h0a1.35,1.35,0,0,1-1.28-.91l-1.21-2.79h-7.23l-1.25,2.87a1.25,1.25,0,0,1-1.21.83,1.2,1.2,0,0,1-1.22-1.19v0A1.23,1.23,0,0,1,175.84,202.45Zm9.73-4.21-2.61-6-2.62,6Z" fill="#4c4948"/>
    <path d="M192.77,194.09a1.28,1.28,0,0,1,1.25-1.3h0a1.29,1.29,0,0,1,1.3,1.28v1.17c.6-1.4,1.7-2.47,2.83-2.47a1.19,1.19,0,0,1,1.27,1.11.48.48,0,0,1,0,.17,1.2,1.2,0,0,1-1,1.23c-1.83.32-3.08,1.72-3.08,4.38V203a1.27,1.27,0,0,1-1.29,1.27h0a1.26,1.26,0,0,1-1.28-1.25v-8.91Z" fill="#4c4948"/>
    <path d="M202,201v-5.91h-.43a1.11,1.11,0,0,1,0-2.21H202V191a1.29,1.29,0,1,1,2.57,0v1.91h2a1.11,1.11,0,0,1,.07,2.21h-2.09v5.51a1.24,1.24,0,0,0,1,1.4,1.45,1.45,0,0,0,.36,0,4.48,4.48,0,0,0,.64-.07A1.07,1.07,0,0,1,207,204a5.35,5.35,0,0,1-1.77.3C203.38,204.34,202,203.51,202,201Z" fill="#4c4948"/>
    <path d="M209.78,203a1,1,0,0,1-.49-.89,1,1,0,0,1,1-1h0a1.18,1.18,0,0,1,.55.14,6,6,0,0,0,3.23,1.09c1.11,0,1.75-.47,1.75-1.21v-.05c0-.87-1.2-1.17-2.51-1.57-1.66-.47-3.51-1.15-3.51-3.3v0c0-2.13,1.76-3.42,4-3.42a7.66,7.66,0,0,1,3.53.91,1.09,1.09,0,0,1,.61,1,1,1,0,0,1-1,1h0a1,1,0,0,1-.51-.13,6.1,6.1,0,0,0-2.64-.76c-1,0-1.57.46-1.57,1.1v0c0,.83,1.21,1.17,2.53,1.6,1.64.51,3.49,1.25,3.49,3.27v.05c0,2.36-1.83,3.52-4.17,3.52A7.67,7.67,0,0,1,209.78,203Z" fill="#4c4948"/>
    <path d="M233.77,190.58a1.3,1.3,0,0,1,1.28-1.31h8.71a1.19,1.19,0,1,1,.07,2.38h-7.45v4.06h6.42a1.19,1.19,0,1,1,.07,2.38h-6.49V203a1.31,1.31,0,0,1-2.61,0Z" fill="#4c4948"/>
    <path d="M246.44,198.6v0a6,6,0,0,1,12-.05v.05a5.87,5.87,0,0,1-5.9,5.84h-.12a5.8,5.8,0,0,1-5.95-5.65Zm9.4,0v0a3.48,3.48,0,0,0-3.32-3.62h-.13a3.37,3.37,0,0,0-3.39,3.35c0,.08,0,.15,0,.22v.05a3.45,3.45,0,0,0,3.33,3.58h.09a3.37,3.37,0,0,0,3.41-3.33,1.55,1.55,0,0,0,0-.22Z" fill="#4c4948"/>
    <path d="M271,203a1.3,1.3,0,0,1-2.6,0v-.58a4,4,0,0,1-3.51,2c-2.53,0-4-1.7-4-4.32v-6a1.29,1.29,0,0,1,2.58,0v5.21c0,1.74.87,2.72,2.4,2.72a2.48,2.48,0,0,0,2.54-2.41c0-.12,0-.24,0-.35v-5.17a1.28,1.28,0,0,1,1.27-1.3h0a1.3,1.3,0,0,1,1.3,1.3Z" fill="#4c4948"/>
    <path d="M274.11,194.09a1.27,1.27,0,0,1,1.24-1.3h0a1.28,1.28,0,0,1,1.3,1.28v.57a4.09,4.09,0,0,1,3.51-1.95c2.53,0,4,1.7,4,4.29v6a1.27,1.27,0,0,1-1.23,1.28h0a1.27,1.27,0,0,1-1.3-1.24v-5.25c0-1.74-.88-2.74-2.4-2.74a2.49,2.49,0,0,0-2.55,2.45c0,.11,0,.22,0,.34V203a1.29,1.29,0,0,1-2.57,0Z" fill="#4c4948"/>
    <path d="M298.28,203a1.29,1.29,0,0,1-2.58,0v-.7a4.48,4.48,0,0,1-3.82,2.1c-2.64,0-5.21-2.1-5.21-5.83v0c0-3.72,2.53-5.83,5.21-5.83a4.61,4.61,0,0,1,3.82,2v-4.87a1.29,1.29,0,0,1,2.58,0Zm-9-4.47v.05a3.34,3.34,0,0,0,3.08,3.58h.15a3.38,3.38,0,0,0,3.26-3.5v-.14a3.38,3.38,0,0,0-3.14-3.59h-.12a3.29,3.29,0,0,0-3.24,3.34c0,.08,0,.17,0,.25Z" fill="#4c4948"/>
    <path d="M300.72,200.91v0c0-2.42,1.89-3.61,4.63-3.61a9.35,9.35,0,0,1,3,.47v-.28c0-1.6-1-2.45-2.79-2.45a6.57,6.57,0,0,0-2.48.45,1.39,1.39,0,0,1-.4.06,1.07,1.07,0,0,1-1.09-1h0a1.14,1.14,0,0,1,.7-1,9.72,9.72,0,0,1,3.62-.66,5,5,0,0,1,3.72,1.26,4.64,4.64,0,0,1,1.21,3.46V203a1.22,1.22,0,0,1-1.22,1.23h0a1.16,1.16,0,0,1-1.25-1.06v-.45a4.56,4.56,0,0,1-3.66,1.64C302.59,204.38,300.72,203.17,300.72,200.91Zm7.7-.8v-.77a7.17,7.17,0,0,0-2.55-.44c-1.66,0-2.64.7-2.64,1.87v0c0,1.08,1,1.7,2.19,1.7,1.7,0,3-1,3-2.4Z" fill="#4c4948"/>
    <path d="M314.32,201v-5.91h-.43a1.11,1.11,0,0,1,0-2.21h.43V191a1.29,1.29,0,0,1,2.57,0v1.91h2a1.11,1.11,0,1,1,.07,2.21h-2.09v5.51a1.24,1.24,0,0,0,1,1.4,2,2,0,0,0,.35,0,4.48,4.48,0,0,0,.64-.07A1.1,1.1,0,0,1,320,203a1.12,1.12,0,0,1-.68,1,5.35,5.35,0,0,1-1.77.3C315.66,204.34,314.32,203.51,314.32,201Z" fill="#4c4948"/>
    <path d="M322.44,189.9a1.48,1.48,0,0,1,2.93,0V190a1.48,1.48,0,0,1-2.93,0Zm.19,4.19a1.27,1.27,0,0,1,1.24-1.3h0a1.28,1.28,0,0,1,1.3,1.28V203a1.29,1.29,0,0,1-2.57,0Z" fill="#4c4948"/>
    <path d="M327.9,198.6v0a6,6,0,0,1,12-.05v.05A5.86,5.86,0,0,1,334,204.4h-.13a5.81,5.81,0,0,1-6-5.66Zm9.4,0v0a3.48,3.48,0,0,0-3.32-3.62h-.12a3.37,3.37,0,0,0-3.39,3.35,1.55,1.55,0,0,0,0,.22v.05a3.45,3.45,0,0,0,3.32,3.58h.1a3.36,3.36,0,0,0,3.4-3.33v-.22Z" fill="#4c4948"/>
    <path d="M342.44,194.09a1.27,1.27,0,0,1,1.24-1.3h0a1.29,1.29,0,0,1,1.3,1.28v.57a4.08,4.08,0,0,1,3.51-1.95c2.53,0,4,1.7,4,4.29v6a1.27,1.27,0,0,1-1.23,1.28h-.05a1.28,1.28,0,0,1-1.3-1.24v-5.25c0-1.74-.87-2.74-2.4-2.74a2.49,2.49,0,0,0-2.54,2.45,2,2,0,0,0,0,.34V203a1.29,1.29,0,0,1-2.57,0Z" fill="#4c4948"/>
    <path d="M10.3,174.84a1.67,1.67,0,0,1,.73-.78,1.51,1.51,0,0,1,.67-.17,1.13,1.13,0,0,1,.36.06,1.08,1.08,0,0,1,.75.58,1.13,1.13,0,0,1,.11.48,1,1,0,0,1-.11.44,17.15,17.15,0,0,1-2.45,3.93,1.33,1.33,0,0,1-.91.48H9.33a1.44,1.44,0,0,1-.89-.31,1.06,1.06,0,0,1-.48-.92,1,1,0,0,1,.31-.75A12.91,12.91,0,0,0,10.3,174.84Zm6.4-19.6a2.43,2.43,0,0,1,2.43,2.42h0v13.09a2.42,2.42,0,0,1-2.42,2.42H11.36a2.42,2.42,0,0,1-2.42-2.42V157.66a2.42,2.42,0,0,1,2.42-2.42Zm-.44,5.29a.25.25,0,0,0,.28-.21v-2.63a.25.25,0,0,0-.21-.28H11.72a.25.25,0,0,0-.28.21v2.63a.26.26,0,0,0,.21.28h4.61Zm0,5.26a.25.25,0,0,0,.28-.21v-2.71a.25.25,0,0,0-.21-.28H11.72a.25.25,0,0,0-.28.21v2.72a.25.25,0,0,0,.21.27.08.08,0,0,0,.07,0Zm0,5.24a.25.25,0,0,0,.28-.21v-2.77a.25.25,0,0,0-.21-.28H11.72a.25.25,0,0,0-.28.21v2.77a.26.26,0,0,0,.21.28h4.61Zm-.81,4.48a.92.92,0,0,1-.19-.56,2.29,2.29,0,0,1,0-.25.86.86,0,0,1,.53-.61,1.57,1.57,0,0,1,.64-.14,2.22,2.22,0,0,1,.37,0,1.43,1.43,0,0,1,.83.53A22.81,22.81,0,0,1,19.38,177a1.16,1.16,0,0,1,.17.58,2.25,2.25,0,0,1-.06.36,1.29,1.29,0,0,1-.64.75,1.19,1.19,0,0,1-.56.14,1.74,1.74,0,0,1-.39,0,1.35,1.35,0,0,1-.75-.64,20.94,20.94,0,0,0-1.7-2.65Zm17.1-14.7a1.13,1.13,0,0,1,.86.38,1.23,1.23,0,0,1,0,1.75,1.17,1.17,0,0,1-.86.38H30.66a.24.24,0,0,0-.28.21.08.08,0,0,0,0,.07v13.55a4.28,4.28,0,0,1-.28,1.7,1.93,1.93,0,0,1-.92,1,8.51,8.51,0,0,1-2.95.5h-.06a1.64,1.64,0,0,1-1-.33,2.46,2.46,0,0,1-.7-1,.88.88,0,0,1,.1-.83.85.85,0,0,1,.74-.39h1.81a.69.69,0,0,0,.5-.14.61.61,0,0,0,.14-.47V167s0,0-.06-.05-.05,0-.05,0A29.85,29.85,0,0,1,22,175a1.29,1.29,0,0,1-.81.3h-.14a1.38,1.38,0,0,1-.89-.44,1.21,1.21,0,0,1-.34-.84,1.12,1.12,0,0,1,.39-.89,21.75,21.75,0,0,0,3.59-4.19,29.45,29.45,0,0,0,2.87-5.33.14.14,0,0,0,0-.17.17.17,0,0,0-.16-.08H21.16a1.21,1.21,0,0,1-.89-.38,1.24,1.24,0,0,1,0-1.75,1.21,1.21,0,0,1,.89-.38h6.32a.24.24,0,0,0,.28-.21.08.08,0,0,0,0-.07v-5a1.27,1.27,0,0,1,.39-.92,1.32,1.32,0,0,1,.94-.39,1.21,1.21,0,0,1,.91.39,1.28,1.28,0,0,1,.38.92v5a.24.24,0,0,0,.21.28h2Z" fill="#4c4948"/>
    <path d="M37.19,157.72a2.42,2.42,0,0,1,2.42-2.42H58.05a2.42,2.42,0,0,1,2.42,2.42V179a1.28,1.28,0,0,1-1.28,1.28h-.06a1.19,1.19,0,0,1-1.2-1.18v0a.12.12,0,0,0-.11-.14h-18c-.11,0-.17,0-.17.14v.09a1.2,1.2,0,0,1-.34.86,1.14,1.14,0,0,1-.85.36,1.24,1.24,0,0,1-1.23-1.22Zm2.42,18.82a.25.25,0,0,0,.21.28H57.66a.24.24,0,0,0,.27-.21.09.09,0,0,0,0-.07V157.63a.23.23,0,0,0-.21-.27.06.06,0,0,0-.06,0H39.89a.25.25,0,0,0-.28.21v19Zm16.74-5.66a.75.75,0,0,1,.55.23.76.76,0,0,1,0,1.08.72.72,0,0,1-.55.22H53.53a.25.25,0,0,0-.27.21.08.08,0,0,0,0,.07v2a2,2,0,0,1-.2,1,1.16,1.16,0,0,1-.73.45,9.36,9.36,0,0,1-2.64.25,1,1,0,0,1-1-.75.41.41,0,0,1,0-.45.43.43,0,0,1,.39-.22h1.53a.41.41,0,0,0,.3-.09.36.36,0,0,0,.08-.27v-1.93a.24.24,0,0,0-.21-.27H41.23a.77.77,0,0,1-.56-1.31.74.74,0,0,1,.56-.22h9.69a.12.12,0,0,0,.11-.09v0a.86.86,0,0,1,.84-.83h.52a.81.81,0,0,1,.62.25.79.79,0,0,1,.25.58c0,.08,0,.12.08.12Zm-.5-5.29a1.71,1.71,0,0,1-1.7,1.7s0,0,0,.05a0,0,0,0,0,0,.06,21.9,21.9,0,0,1,2,1.76.68.68,0,0,1,.21.61.71.71,0,0,1-.32.56.88.88,0,0,1-.66.21,1.06,1.06,0,0,1-.64-.32l-.39-.42a.41.41,0,0,0-.31-.11l-12.28.36a.84.84,0,0,1-.84-.75.69.69,0,0,1,.2-.56.75.75,0,0,1,.53-.22c1,0,2.92,0,5.71-.06a.24.24,0,0,0,.27-.21.08.08,0,0,0,0-.07v-.61a.25.25,0,0,0-.2-.28H44.15a2.42,2.42,0,0,1-2.42-2.42V164a2.42,2.42,0,0,1,2.42-2.42H47.3a.25.25,0,0,0,.28-.21v-.54a.25.25,0,0,0-.21-.28H41.53a.78.78,0,0,1-.56-1.32l0,0a.79.79,0,0,1,.54-.22h5.93a.1.1,0,0,0,.12-.09v0a1,1,0,0,1,1-1.06h.11a1.06,1.06,0,0,1,1.06,1v0a.09.09,0,0,0,.09.11H56a.79.79,0,0,1,.54.22.76.76,0,0,1,0,1.09l0,0a.77.77,0,0,1-.54.22h-5.9a.25.25,0,0,0-.28.21v.54a.24.24,0,0,0,.21.28h3.44A2.43,2.43,0,0,1,55.85,164Zm-9.16,8.58a.8.8,0,0,1,.16.7.82.82,0,0,1-.44.58,1.12,1.12,0,0,1-.8.1,1.08,1.08,0,0,1-.65-.46c-.32-.39-.65-.77-1-1.14a.64.64,0,0,1-.19-.6.58.58,0,0,1,.36-.48,1.28,1.28,0,0,1,.79-.14,1.35,1.35,0,0,1,.74.33c.39.39.73.76,1,1.11ZM44.1,162.75a.25.25,0,0,0-.28.21.08.08,0,0,0,0,.07v.5a.24.24,0,0,0,.21.28H47.3a.25.25,0,0,0,.28-.21V163a.26.26,0,0,0-.21-.28H44.1Zm-.28,3a.25.25,0,0,0,.21.28H47.3a.25.25,0,0,0,.28-.21v-.6a.25.25,0,0,0-.21-.28H44.1a.24.24,0,0,0-.28.21.09.09,0,0,0,0,.07ZM53.7,163a.25.25,0,0,0-.21-.28H50.05a.24.24,0,0,0-.27.21.08.08,0,0,0,0,.07v.5a.24.24,0,0,0,.2.28h3.44a.24.24,0,0,0,.28-.21V163Zm-3.92,2.76a.25.25,0,0,0,.2.28h3.44a.25.25,0,0,0,.28-.21v-.6a.24.24,0,0,0-.21-.28H50.05a.24.24,0,0,0-.27.21.09.09,0,0,0,0,.07Zm0,2.39a.28.28,0,0,0,.08.2.22.22,0,0,0,.2.08l2.64-.05h0s0,0,0-.05a.42.42,0,0,1,.06-.69l.45-.31s0,0,0,0,0,0,0,0H50.05a.24.24,0,0,0-.27.21.06.06,0,0,0,0,.06Z" fill="#4c4948"/>
    <path d="M69.65,163.9a1.09,1.09,0,0,1,.58.81.77.77,0,0,1,.06.3,1.17,1.17,0,0,1-.23.7,1.3,1.3,0,0,1-.83.56,1.33,1.33,0,0,1-.28,0,1.42,1.42,0,0,1-.72-.2A23.12,23.12,0,0,0,65,164.46a1.14,1.14,0,0,1-.58-.64,1.71,1.71,0,0,1,0-.31,1,1,0,0,1,.16-.53,1.45,1.45,0,0,1,.81-.61,1.51,1.51,0,0,1,.48-.09,1.76,1.76,0,0,1,.55.09A25.17,25.17,0,0,1,69.65,163.9Zm-.45,6.49a1,1,0,0,1,.73-.56.78.78,0,0,1,.22,0,1.06,1.06,0,0,1,.64.25,1.87,1.87,0,0,1,.61,1.34,1.62,1.62,0,0,1-.17.72q-1.58,3.31-3.48,6.6a1.29,1.29,0,0,1-.86.59,1.27,1.27,0,0,1-.28,0,1.2,1.2,0,0,1-.72-.26,1.29,1.29,0,0,1-.59-.91c0-.11,0-.21,0-.31a1.57,1.57,0,0,1,.22-.81,72,72,0,0,0,3.7-6.66Zm2.06-13.95a1.13,1.13,0,0,1,.56.83,1.07,1.07,0,0,1,0,.25,1.12,1.12,0,0,1-.28.75,1.2,1.2,0,0,1-.83.53h-.23a1.29,1.29,0,0,1-.75-.22,25.29,25.29,0,0,0-3.25-1.83,1,1,0,0,1-.55-.64.94.94,0,0,1,.16-.84,1.7,1.7,0,0,1,.86-.58,1.52,1.52,0,0,1,.42-.06,1.66,1.66,0,0,1,.58.11A22.14,22.14,0,0,1,71.26,156.44Zm18.46,21.21a1.45,1.45,0,0,1,.17.67,1.42,1.42,0,0,1-.08.45,1.6,1.6,0,0,1-.73.89,1.29,1.29,0,0,1-.61.16,1.25,1.25,0,0,1-.42-.08,1.38,1.38,0,0,1-.78-.7l-.39-.81a.38.38,0,0,0-.39-.2l-13.2.95h-.11a1.42,1.42,0,0,1-1.42-1.22v-.2a1.22,1.22,0,0,1,.28-.78,1.16,1.16,0,0,1,.89-.45l.7,0a.34.34,0,0,0,.33-.21,50.58,50.58,0,0,0,2.9-7.54.17.17,0,0,0,0-.17.19.19,0,0,0-.17-.08H72.79A1.3,1.3,0,0,1,71.54,167a1.19,1.19,0,0,1,.38-.88,1.24,1.24,0,0,1,.87-.36h6.13a.25.25,0,0,0,.28-.21v-4.24a.25.25,0,0,0-.21-.28H74.24a1.19,1.19,0,0,1-.89-.38,1.27,1.27,0,0,1,0-1.77,1.29,1.29,0,0,1,.89-.36h4.68a.25.25,0,0,0,.28-.21v-2.82a1.37,1.37,0,0,1,2.73,0v2.75a.24.24,0,0,0,.2.28h5.06a1.27,1.27,0,0,1,.88.36,1.18,1.18,0,0,1,.37.88,1.28,1.28,0,0,1-1.25,1.27h-5a.24.24,0,0,0-.27.21.08.08,0,0,0,0,.07v4.17a.24.24,0,0,0,.2.28.08.08,0,0,0,.07,0h6.33a1.23,1.23,0,0,1,.87.36,1.19,1.19,0,0,1,.38.88,1.29,1.29,0,0,1-1.25,1.27H80.4a.38.38,0,0,0-.39.25q-1.5,4-3.18,7.38a.17.17,0,0,0,0,.14.16.16,0,0,0,.16.08l8.07-.45a.26.26,0,0,0,.14-.11.1.1,0,0,0,0-.14c-.56-.87-1.13-1.69-1.72-2.47a1,1,0,0,1-.23-.64,1.15,1.15,0,0,1,0-.26,1.1,1.1,0,0,1,.56-.72,1.62,1.62,0,0,1,.72-.17,2,2,0,0,1,.34,0,1.48,1.48,0,0,1,.89.53A38,38,0,0,1,89.72,177.65Z" fill="#4c4948"/>
    <path d="M103.22,155.8a1.5,1.5,0,0,1,.49-1.08,1.51,1.51,0,0,1,1.07-.43,1.3,1.3,0,0,1,1,.45,1.7,1.7,0,0,1,.43,1.06c0,.66.13,1.34.22,2s.24,1.69.49,2.91a34.84,34.84,0,0,0,.9,3.48,26.15,26.15,0,0,0,1.5,3.63,22.81,22.81,0,0,0,2.2,3.6,19,19,0,0,0,3,3.16,15.44,15.44,0,0,0,2.7,1.9,1,1,0,0,1,.52.78v.16a1.09,1.09,0,0,1-.3.75,2.25,2.25,0,0,1-1.06.65,1.74,1.74,0,0,1-.39.05,1.76,1.76,0,0,1-.78-.19q-7.35-4.29-10.13-14.4a.1.1,0,0,0-.09-.06s0,0,0,0v0q-2.5,9.62-9.61,14.32a1.7,1.7,0,0,1-.89.25,1.53,1.53,0,0,1-.3,0,2.2,2.2,0,0,1-1.12-.58,1,1,0,0,1-.36-.81.93.93,0,0,1,.47-.86A20.42,20.42,0,0,0,95.42,175a16.87,16.87,0,0,0,2.73-2.87,26.76,26.76,0,0,0,2-3.07,18.1,18.1,0,0,0,1.37-3.24c.35-1.12.64-2.16.88-3.14a22.92,22.92,0,0,0,.52-3c.1-1,.18-1.85.23-2.52C103.17,156.69,103.2,156.24,103.22,155.8Z" fill="#4c4948"/>
    <path d="M185.89,158.57a1.28,1.28,0,0,1,0,1.81,1.26,1.26,0,0,1-.9.37h-2.7a.35.35,0,0,0-.36.25,30.58,30.58,0,0,1-6.29,10.56.2.2,0,0,0,0,.29.27.27,0,0,0,.08.07,26.09,26.09,0,0,0,9.41,4.76.93.93,0,0,1,.67.67.92.92,0,0,1,.06.33,1.3,1.3,0,0,1-.2.64,2.77,2.77,0,0,1-1.09.86,2.12,2.12,0,0,1-.75.14,2,2,0,0,1-.59-.08,28.12,28.12,0,0,1-9.74-5.23.32.32,0,0,0-.45,0,31.71,31.71,0,0,1-9.63,5.26,1.66,1.66,0,0,1-.58.11,1.62,1.62,0,0,1-.65-.14,2.23,2.23,0,0,1-1-.8,1.26,1.26,0,0,1-.2-.62,1.76,1.76,0,0,1,.06-.39,1,1,0,0,1,.7-.7A28.89,28.89,0,0,0,171,172a.21.21,0,0,0,.1-.28.18.18,0,0,0-.07-.08A33,33,0,0,1,164.86,161a.33.33,0,0,0-.36-.25h-2.59a1.28,1.28,0,0,1,0-2.56h9.83A.25.25,0,0,0,172,158v-3.13a1.33,1.33,0,0,1,1.33-1.34h0a1.28,1.28,0,0,1,1,.39,1.26,1.26,0,0,1,.39.95v3.06a.25.25,0,0,0,.21.28H185A1.16,1.16,0,0,1,185.89,158.57Zm-7,2.43a.16.16,0,0,0,0-.16.2.2,0,0,0-.17-.09H168a.17.17,0,0,0-.16.09.12.12,0,0,0,0,.16,25.33,25.33,0,0,0,5.37,8.69.24.24,0,0,0,.34.05l.05-.05a25.37,25.37,0,0,0,5.29-8.69Z" fill="#4c4948"/>
    <path d="M195.36,155.82a1.5,1.5,0,0,1,.78-.75,1.44,1.44,0,0,1,.62-.14,1.27,1.27,0,0,1,.47.09,1.16,1.16,0,0,1,.75.67,1,1,0,0,1,.11.47,1.1,1.1,0,0,1-.14.53,42.33,42.33,0,0,1-2.36,4.34,1.08,1.08,0,0,0-.14.53v17.37a1.34,1.34,0,0,1-.39.95,1.31,1.31,0,0,1-1.85,0h0a1.34,1.34,0,0,1-.39-.95V165.29s0-.06-.07-.08a.1.1,0,0,0-.12,0c-.63.77-1.29,1.53-2,2.25a1,1,0,0,1-.78.33l-.22,0a1.18,1.18,0,0,1-.89-.62,1.92,1.92,0,0,1-.25-1v-.28a2.1,2.1,0,0,1,.58-1.17A30.28,30.28,0,0,0,195.36,155.82Zm10.11,21.61h5a1.33,1.33,0,0,0,1.32-.72,10.09,10.09,0,0,0,.52-3,.73.73,0,0,1,.44-.66.9.9,0,0,1,.83,0,2.06,2.06,0,0,1,.9.75,1.64,1.64,0,0,1,.28.89v.17a8.1,8.1,0,0,1-1.19,3.95,3.51,3.51,0,0,1-2.91,1.12h-5.4c-1.61,0-2.71-.31-3.28-.92a5.28,5.28,0,0,1-.87-3.51V156.16a1.33,1.33,0,0,1,.38-.95,1.25,1.25,0,0,1,.93-.39,1.33,1.33,0,0,1,1.34,1.33h0v8.6a.16.16,0,0,0,.08.14.14.14,0,0,0,.17,0,49,49,0,0,0,6.55-4.4,1.47,1.47,0,0,1,.94-.34h.14a1.46,1.46,0,0,1,1,.53,1.36,1.36,0,0,1,.34.89,1.42,1.42,0,0,1,0,.2,1.2,1.2,0,0,1-.55.94,80.74,80.74,0,0,1-8.38,4.9.4.4,0,0,0-.25.4v7.51a2.41,2.41,0,0,0,.32,1.55,2,2,0,0,0,1.43.35Z" fill="#4c4948"/>
    <path d="M217.86,176a.78.78,0,0,1-.58-.23.79.79,0,0,1,0-1.1l0,0a.78.78,0,0,1,.58-.23h23.69a.75.75,0,0,1,.57.23.78.78,0,0,1,0,1.1l0,0a.75.75,0,0,1-.57.23H236a.07.07,0,0,0-.07.06s0,.05.05.05a28.25,28.25,0,0,1,4.53,2.68.74.74,0,0,1,.29.65.75.75,0,0,1-.34.63,1.46,1.46,0,0,1-.81.25h-.08a1.6,1.6,0,0,1-.87-.33l-.83-.62a.65.65,0,0,0-.45-.11q-8,.49-17.54.95a1,1,0,0,1-.7-.22,1,1,0,0,1-.36-.62.83.83,0,0,1,.68-.94h.07l2.65-.09a.58.58,0,0,0,.44-.25,20.21,20.21,0,0,0,1.14-1.84.12.12,0,0,0,0-.16.19.19,0,0,0-.14-.09Zm6.87-17.06a1,1,0,0,1-.73-.31.94.94,0,0,1-.3-.72.1.1,0,0,0-.09-.11h-5.45a1,1,0,0,1-.68-.28,1,1,0,0,1,0-1.34l0,0a1,1,0,0,1,.68-.28h5.35c.13,0,.19,0,.19-.16v-.28a1.29,1.29,0,0,1,2.57,0v.28c0,.11.06.16.19.16h6.43c.13,0,.19,0,.19-.16v-.28a1.26,1.26,0,0,1,.38-.9,1.24,1.24,0,0,1,.92-.38,1.3,1.3,0,0,1,1.3,1.28h0v.28a.14.14,0,0,0,.12.17h5.55a.94.94,0,0,1,1,.92v0a1,1,0,0,1-.28.68.92.92,0,0,1-.7.28h-5.57a.1.1,0,0,0-.11.09v0a1,1,0,0,1-1,1h-.53a.93.93,0,0,1-.73-.31,1,1,0,0,1-.3-.72.09.09,0,0,0-.09-.11h-6.62a.1.1,0,0,0-.11.09v0a1,1,0,0,1-.29.72,1,1,0,0,1-.74.31Zm15.23,10h.5a1,1,0,0,0,.25,0,.46.46,0,0,0,.31-.2,1,1,0,0,0,.11-.39c0-.2,0-.61.08-1.22a.42.42,0,0,1,.25-.4.5.5,0,0,1,.5,0,1.17,1.17,0,0,1,.76,1.09,6.6,6.6,0,0,1-.22,1.83,1.72,1.72,0,0,1-.54.76,2.59,2.59,0,0,1-.5.25,2.21,2.21,0,0,1-.92.16H239.4a2.13,2.13,0,0,1-1.5-.55,1.41,1.41,0,0,1-.4-.76,7.51,7.51,0,0,1-.13-1.64v-4.59a.24.24,0,0,0-.21-.28H235.7a.26.26,0,0,0-.3.24v0a11.53,11.53,0,0,1-.34,2.09.35.35,0,0,0,.17.41c.46.28.87.54,1.22.78a.92.92,0,0,1,.38.7,1,1,0,0,1-.24.78.84.84,0,0,1-.66.36,1.05,1.05,0,0,1-.76-.22c-.22-.17-.47-.34-.75-.53-.11-.09-.2-.07-.28.06a10,10,0,0,1-2.67,3,1.27,1.27,0,0,1-.75.25h-.17a1.57,1.57,0,0,1-.89-.42.44.44,0,0,0-.25-.08q-6.53.49-11,.78h-.06a.83.83,0,0,1-.64-1.34h0a.67.67,0,0,1,.53-.25l1.85-.11c.92-.06,1.66-.09,2.21-.11a.25.25,0,0,0,.28-.21v-.71a.24.24,0,0,0-.21-.28h-3a.71.71,0,0,1-.49-.21.74.74,0,0,1,0-1,.71.71,0,0,1,.49-.21h3.06a.12.12,0,0,0,.14-.1v0a1.23,1.23,0,0,1,.36-.87,1.18,1.18,0,0,1,.9-.38h.55c.13,0,.19-.07.17-.2a5.52,5.52,0,0,1-.06-.81V164a.25.25,0,0,0-.21-.28h-1.68a.35.35,0,0,0-.36.25,3.45,3.45,0,0,1-1.15,1.59,6,6,0,0,1-2.27,1,1.07,1.07,0,0,1-.25,0,1.18,1.18,0,0,1-.95-.53.5.5,0,0,1-.05-.46.41.41,0,0,1,.33-.29,3.7,3.7,0,0,0,2.53-1.31.18.18,0,0,0,0-.16.17.17,0,0,0-.16-.09h-1.95a.71.71,0,0,1-.72-.7v0a.72.72,0,0,1,.21-.52.74.74,0,0,1,.51-.21h4a.24.24,0,0,0,.28-.2.08.08,0,0,0,0-.07v-.42a.24.24,0,0,0-.21-.28h-2.74a.63.63,0,0,1-.48-.21.71.71,0,0,1,0-1h0a.63.63,0,0,1,.48-.21h2.87a.06.06,0,0,0,.08-.06v0a.72.72,0,0,1,.23-.53.67.67,0,0,1,.53-.22H224a.76.76,0,0,1,.75.75.08.08,0,0,0,.06.08h2.84a.71.71,0,0,1,.52,1.2h0a.69.69,0,0,1-.51.21h-2.63a.24.24,0,0,0-.27.21V162a.24.24,0,0,0,.2.27.08.08,0,0,0,.07,0H229a.73.73,0,0,1,.75.7.71.71,0,0,1-.69.75h-2.68a.25.25,0,0,0-.28.21v.43c0,.23,0,.36.09.42a.52.52,0,0,0,.36.08h1.31c.2,0,.33,0,.39-.14a.83.83,0,0,1,.61-.41.44.44,0,0,1,.2,0h0a1,1,0,0,1,.47.37.55.55,0,0,1,.06.53,1.37,1.37,0,0,1-1.45.86h-1.84a2.94,2.94,0,0,1-1.28-.2.16.16,0,0,0-.15,0,.12.12,0,0,0-.07.12v.45a.25.25,0,0,0,.2.28h3.06a.63.63,0,0,1,.48.21.74.74,0,0,1,0,1,.62.62,0,0,1-.48.2h-3a.25.25,0,0,0-.27.21v.57a.23.23,0,0,0,.08.18.28.28,0,0,0,.19.07l4.1-.22a.46.46,0,0,1,.33.13.36.36,0,0,1,.14.32l0,0a9.1,9.1,0,0,0,2.62-2.87.29.29,0,0,0-.11-.38h0c-.59-.32-1.08-.57-1.45-.75a.72.72,0,0,1-.39-.49.68.68,0,0,1,.14-.63,1.3,1.3,0,0,1,.67-.43,1.23,1.23,0,0,1,.78.07c.17.07.49.23,1,.47.15.08.24,0,.28-.14a7.56,7.56,0,0,0,.14-1,.21.21,0,0,0-.05-.2.32.32,0,0,0-.2-.08H231.3a1,1,0,0,1,0-1.92h1.9a.18.18,0,0,0,.2-.15.07.07,0,0,0,0,0v-.61a1,1,0,0,1,.31-.73,1,1,0,0,1,1.43,0l0,0a1,1,0,0,1,.31.73v.61a.17.17,0,0,0,.14.2h1.53a2.41,2.41,0,0,1,2.42,2.41h0v4.42a5.09,5.09,0,0,0,0,.78.27.27,0,0,0,.14.2.42.42,0,0,0,.24,0ZM220.85,173a.82.82,0,0,1-.24-.57.76.76,0,0,1,.24-.56.81.81,0,0,1,.57-.23h16.76a.81.81,0,0,1,.57.23.73.73,0,0,1,.24.56.8.8,0,0,1-.81.8H221.42a.78.78,0,0,1-.57-.24Zm13.46,3.1a.05.05,0,0,0,0,0,0,0,0,0,0,0,0h-7.43a.5.5,0,0,0-.45.22c-.57.78-1,1.36-1.34,1.75a.15.15,0,0,0,0,.2.14.14,0,0,0,.09,0q3-.12,9.8-.45a.07.07,0,0,0,.07,0s0,0,0-.07c-.24-.13-.47-.24-.67-.33a.72.72,0,0,1-.29-1,.79.79,0,0,1,.23-.25Z" fill="#4c4948"/>
    <path d="M262.56,160.64l.37.36v.5a1.24,1.24,0,0,1-1.23,1.23h-2.54a.24.24,0,0,0-.27.2v15.72a1.25,1.25,0,0,1-.36.88,1.21,1.21,0,0,1-1.76,0,1.25,1.25,0,0,1-.36-.88V163a.24.24,0,0,0-.21-.28h-2.47a1.38,1.38,0,0,1-1-.39,1.28,1.28,0,0,1-.4-1s-.06,0-.06,0c-.54,1.06-1.16,2.15-1.87,3.26a1,1,0,0,0-.13.5v14a1.24,1.24,0,0,1-1.24,1.23,1.21,1.21,0,0,1-1.21-1.23V168.35a.13.13,0,0,0-.11-.12.11.11,0,0,0-.09,0c-.37.41-.7.75-1,1a1,1,0,0,1-.7.31h-.2a1.11,1.11,0,0,1-.81-.56,1.65,1.65,0,0,1-.25-.86V168a1.74,1.74,0,0,1,.5-1,23.73,23.73,0,0,0,4-5.2,2.71,2.71,0,0,1,1.25-1.12,2.26,2.26,0,0,1,.89-.19,2,2,0,0,1,.72.14l.2,0s0,0,0,0h0a.34.34,0,0,1,.34-.34h3.42a.24.24,0,0,0,.28-.21v-4.24a1.24,1.24,0,0,1,1.23-1.26,1.23,1.23,0,0,1,1.25,1.26V160a.24.24,0,0,0,.2.28h2.61A1.13,1.13,0,0,1,262.56,160.64Zm-13.75-5.37a1.84,1.84,0,0,1,.84-.67,1.46,1.46,0,0,1,.55-.11,1.51,1.51,0,0,1,.48.08,1,1,0,0,1,.64.64,1.27,1.27,0,0,1,.05.34,1,1,0,0,1-.16.53,27.69,27.69,0,0,1-4.27,4.84,1.09,1.09,0,0,1-.7.25h-.16a1.24,1.24,0,0,1-1-1.23.45.45,0,0,1,0-.16,1.24,1.24,0,0,1,.44-.84,18.83,18.83,0,0,0,3.29-3.67Zm4,11.69a1,1,0,0,1,.37-.72,1,1,0,0,1,.8-.23,1.1,1.1,0,0,1,.73.42,1,1,0,0,1,.24.81,33,33,0,0,1-1.58,8.35.74.74,0,0,1-.55.49.89.89,0,0,1-.74-.13,1.3,1.3,0,0,1-.52-.72,1,1,0,0,1-.09-.42,1.27,1.27,0,0,1,.09-.47,31.32,31.32,0,0,0,1.25-7.38ZM263,157.77a1.11,1.11,0,0,1,0,.8,1,1,0,0,1-.56.6.91.91,0,0,1-.74,0,1.11,1.11,0,0,1-.57-.54,20,20,0,0,0-1.19-2.18.78.78,0,0,1-.1-.68.68.68,0,0,1,.46-.51,1,1,0,0,1,.76-.09,1.23,1.23,0,0,1,.66.48c.45.68.87,1.39,1.25,2.11Zm-2.87,9.5,0-.2a1,1,0,0,1,.81-1,1.1,1.1,0,0,1,.77.17,1,1,0,0,1,.46.64,55,55,0,0,1,1.08,6.37,1.07,1.07,0,0,1-.22.81,1.16,1.16,0,0,1-.73.44,1,1,0,0,1-1.11-.89c-.18-1.8-.53-3.92-1-6.37Zm9.64-3.68a1.2,1.2,0,0,1,0,2.4h-1a.23.23,0,0,0-.25.19v11.14a4.84,4.84,0,0,1-.22,1.65,1.74,1.74,0,0,1-.87.92,8.17,8.17,0,0,1-2.78.39l-.06,0a1.51,1.51,0,0,1-1-.36A1.8,1.8,0,0,1,263,179a.81.81,0,0,1,.14-.84.87.87,0,0,1,.75-.39h1.62a.42.42,0,0,0,.5-.31.61.61,0,0,0,0-.19v-11a.25.25,0,0,0-.21-.28h-1.52a1.14,1.14,0,0,1-.83-.35,1.17,1.17,0,0,1,0-1.66l0,0a1.17,1.17,0,0,1,.83-.34Zm-.42-7.85a1.17,1.17,0,0,1,.85.35,1.18,1.18,0,0,1,0,1.67,1.17,1.17,0,0,1-.85.35H265a1.18,1.18,0,0,1-.82-2,1.2,1.2,0,0,1,.82-.35Z" fill="#4c4948"/>
    <path d="M298.71,168a1.1,1.1,0,0,1,0,1.56,1.08,1.08,0,0,1-.79.32H293.6a.11.11,0,0,0-.11.07.1.1,0,0,0,0,.12,15.54,15.54,0,0,0,4.59,3.18.9.9,0,0,1,.55.65.94.94,0,0,1-.22.82,1.76,1.76,0,0,1-.94.62,1.74,1.74,0,0,1-.39.05,1.56,1.56,0,0,1-.7-.16,17.92,17.92,0,0,1-5.79-5.13.52.52,0,0,0-.45-.22h-7.93a.52.52,0,0,0-.45.22,18.77,18.77,0,0,1-2.14,2.48s0,.05,0,.1a.08.08,0,0,0,.08.07h4.74c.15,0,.22-.07.22-.2v-.58a1.34,1.34,0,1,1,2.67,0h0v.58c0,.13.07.2.22.2h4.38a1,1,0,0,1,.75.32,1,1,0,0,1,.3.75,1,1,0,0,1-.3.74,1.06,1.06,0,0,1-.75.31h-4.32a.24.24,0,0,0-.28.2v2a.25.25,0,0,0,.21.28h8.28a1.1,1.1,0,1,1,0,2.2h-19.3a1.05,1.05,0,0,1-.76-.32,1.1,1.1,0,0,1,0-1.56,1.09,1.09,0,0,1,.76-.32h7.86a.25.25,0,0,0,.28-.21v-2a.26.26,0,0,0-.21-.28H280.9a1.67,1.67,0,0,1-1.2-.49,1.58,1.58,0,0,1-.5-1.19.09.09,0,0,0-.06-.08s-.06,0-.08,0a21,21,0,0,1-3.37,2.4,1.41,1.41,0,0,1-.7.19,1.09,1.09,0,0,1-.36-.06,1.8,1.8,0,0,1-.92-.58.91.91,0,0,1-.21-.82,1,1,0,0,1,.51-.68,16.6,16.6,0,0,0,4.74-3.48.13.13,0,0,0,0-.13.14.14,0,0,0-.11-.07h-4.49a1.1,1.1,0,1,1,0-2.2h4.15a.24.24,0,0,0,.28-.21v-8.31a.25.25,0,0,0-.21-.28h-2.84a1.08,1.08,0,0,1-1.08-1.08,1.09,1.09,0,0,1,1.08-1.09h2.82a.21.21,0,0,0,.24-.19.06.06,0,0,0,0-.06v-.89a1.33,1.33,0,1,1,2.65-.07v1a.22.22,0,0,0,.19.25h9.25a.22.22,0,0,0,.25-.19v-.89a1.32,1.32,0,0,1,.4-1,1.38,1.38,0,0,1,1-.39,1.33,1.33,0,0,1,1.34,1.37v.83a.22.22,0,0,0,.19.25h2.81a1.09,1.09,0,1,1,0,2.17h-2.72a.26.26,0,0,0-.28.21v8.31a.24.24,0,0,0,.21.28h4.05A1.1,1.1,0,0,1,298.71,168ZM291,159.11a.26.26,0,0,0-.21-.28h-9.2a.25.25,0,0,0-.28.21.09.09,0,0,0,0,.07v1a.25.25,0,0,0,.21.28h9.2a.25.25,0,0,0,.28-.21v-1.1Zm-9.41,3.26a.24.24,0,0,0-.28.21.08.08,0,0,0,0,.07v1a.24.24,0,0,0,.21.28.08.08,0,0,0,.07,0h9.13a.25.25,0,0,0,.28-.21v-1.12a.26.26,0,0,0-.21-.28h-9.2Zm0,3.56a.25.25,0,0,0-.28.21.09.09,0,0,0,0,.07v1.14a.24.24,0,0,0,.21.28h9.2a.25.25,0,0,0,.28-.21v-1.21a.26.26,0,0,0-.21-.28h-9.2Z" fill="#4c4948"/>
    <path d="M315.76,170.05a.24.24,0,0,0-.28.21v6a.25.25,0,0,0,.21.28h9.4a1.12,1.12,0,0,1,.83.33,1.18,1.18,0,0,1,0,1.65,1.12,1.12,0,0,1-.83.33H303.36a1.14,1.14,0,0,1-.8-.33,1.18,1.18,0,0,1,0-1.65,1.06,1.06,0,0,1,.8-.33h9.05a.25.25,0,0,0,.28-.21.09.09,0,0,0,0-.07v-5.9a.25.25,0,0,0-.21-.28h-7.75a1.14,1.14,0,0,1,0-2.28h7.68a.25.25,0,0,0,.28-.21.09.09,0,0,0,0-.07v-2.84a.25.25,0,0,0-.21-.28h-4.05a1.33,1.33,0,0,1-1.33-1.32h0s0,0-.05-.06a0,0,0,0,0-.07,0c-1,.69-2,1.36-3.17,2a1.33,1.33,0,0,1-.64.17,1.09,1.09,0,0,1-.36-.06,1.59,1.59,0,0,1-.89-.58,1,1,0,0,1-.25-.7,1.36,1.36,0,0,1,0-.2,1.07,1.07,0,0,1,.5-.75,30.06,30.06,0,0,0,5.57-3.92,26.41,26.41,0,0,0,4.12-4.4,2.51,2.51,0,0,1,2.12-1.12,2.74,2.74,0,0,1,2.17,1.06,29.22,29.22,0,0,0,4.68,4.62,31.67,31.67,0,0,0,5.34,3.46,1,1,0,0,1,.61.78,2.51,2.51,0,0,1,0,.27,1.25,1.25,0,0,1-.23.7,1.71,1.71,0,0,1-.95.67,1.23,1.23,0,0,1-.39.06,1.42,1.42,0,0,1-.72-.2,32.21,32.21,0,0,1-3.15-2s-.07-.05-.1,0a.08.08,0,0,0,0,.08,1.44,1.44,0,0,1-1.42,1.45h-4.1a.25.25,0,0,0-.28.21v2.91a.25.25,0,0,0,.21.28h7.95a1.14,1.14,0,0,1,.07,2.28h-7.94Zm-9.44,2.26a1,1,0,0,1-.14-.5,1.55,1.55,0,0,1,0-.31.91.91,0,0,1,.55-.61,1.77,1.77,0,0,1,.56-.09,2,2,0,0,1,.42.06,1.3,1.3,0,0,1,.78.56,17.71,17.71,0,0,1,1.56,2.75,1.69,1.69,0,0,1,.08.5,1.18,1.18,0,0,1-.11.5,1.37,1.37,0,0,1-.73.73,1.15,1.15,0,0,1-.41.08,1,1,0,0,1-.47-.11,1.22,1.22,0,0,1-.65-.67,15.12,15.12,0,0,0-1.47-2.89Zm2.12-10.44s-.05,0,0,.1,0,.06.08.06H320a.09.09,0,0,0,.08-.06.08.08,0,0,0,0-.1h0a30.72,30.72,0,0,1-5.79-5.6.2.2,0,0,0-.17-.09.18.18,0,0,0-.16.09,29.52,29.52,0,0,1-5.51,5.6ZM320,175.57a1.28,1.28,0,0,1-.75.47,1,1,0,0,1-.34.05,1.17,1.17,0,0,1-.55-.13.78.78,0,0,1-.48-.59.7.7,0,0,1-.05-.25.9.9,0,0,1,.16-.5,23.86,23.86,0,0,0,1.68-3,1.35,1.35,0,0,1,.77-.73,1.55,1.55,0,0,1,.56-.11,1.9,1.9,0,0,1,.53.09,1.07,1.07,0,0,1,.64.66,1.09,1.09,0,0,1,.08.39.92.92,0,0,1-.19.56c-.76,1.19-1.45,2.2-2.06,3Z" fill="#4c4948"/>
    <path d="M340,155a3.13,3.13,0,0,1,2.11-.89,3.36,3.36,0,0,1,2.18.81,29.79,29.79,0,0,0,10.11,5.49.85.85,0,0,1,.58.58,1.59,1.59,0,0,1,.06.3,1,1,0,0,1-.17.53,1.72,1.72,0,0,1-.89.7,1.4,1.4,0,0,1-.53.11,1.23,1.23,0,0,1-.53-.11,38.37,38.37,0,0,1-5.46-2.59c-.07,0-.11,0-.11.06a1,1,0,0,1-1,1h-7.8a1,1,0,0,1-.75-.32,1.11,1.11,0,0,1-.31-.77s0,0,0-.05a.06.06,0,0,0-.08,0,38.93,38.93,0,0,1-5.71,2.84,1.31,1.31,0,0,1-.52.11,1.27,1.27,0,0,1-.47-.09,1.6,1.6,0,0,1-.81-.64.9.9,0,0,1-.17-.52.81.81,0,0,1,.06-.31.83.83,0,0,1,.52-.59,34.06,34.06,0,0,0,5.43-2.56A23.24,23.24,0,0,0,340,155Zm-4.81,14.68a2.43,2.43,0,0,1-2.43-2.42h0v-2.54a2.42,2.42,0,0,1,2.42-2.42h14.59a2.42,2.42,0,0,1,2.42,2.42h0v2.54a2.42,2.42,0,0,1-2.42,2.42Zm.5,10.58a1.33,1.33,0,0,1-1.31-1.31v-5.68a2.42,2.42,0,0,1,2.42-2.42h11.41a2.43,2.43,0,0,1,2.43,2.42v5.57a1.39,1.39,0,0,1-1.37,1.37h-.67a.66.66,0,0,1-.66-.67h0a.08.08,0,0,0-.07-.08H337.08a.08.08,0,0,0-.09.06v0a.69.69,0,0,1-.2.51.67.67,0,0,1-.49.21Zm-.39-16.23a.24.24,0,0,0-.28.21.06.06,0,0,0,0,.06v3.4a.24.24,0,0,0,.21.28h5.69a.25.25,0,0,0,.28-.21v-3.47a.24.24,0,0,0-.21-.27H335.3Zm1.55,1.56a.75.75,0,0,1,0-.67.78.78,0,0,1,.49-.45,1.35,1.35,0,0,1,.82,0,1.1,1.1,0,0,1,.6.52,8.55,8.55,0,0,1,.64,1.33.84.84,0,0,1,0,.77,1.12,1.12,0,0,1-.63.52.92.92,0,0,1-.76-.07,1.13,1.13,0,0,1-.52-.6,13.17,13.17,0,0,0-.59-1.39ZM347.94,173a.26.26,0,0,0-.21-.28H337.27a.25.25,0,0,0-.28.21V174a.24.24,0,0,0,.21.27h10.46a.24.24,0,0,0,.27-.2.08.08,0,0,0,0-.07ZM337,177.4a.26.26,0,0,0,.21.28h10.46a.25.25,0,0,0,.28-.21v-1.15a.26.26,0,0,0-.21-.28H337.27a.25.25,0,0,0-.28.21v1.15Zm1.76-18.35a.06.06,0,0,0,0,.07v0a.07.07,0,0,0,.08.05h7.1a.05.05,0,0,0,.07-.05h0a.1.1,0,0,0,0-.09,27.29,27.29,0,0,1-3.51-2.64.26.26,0,0,0-.36,0l0,0a26.94,26.94,0,0,1-3.31,2.61Zm10.8,9a.25.25,0,0,0,.28-.21v-3.47a.25.25,0,0,0-.21-.28h-6a.25.25,0,0,0-.28.21v3.47a.24.24,0,0,0,.21.28h6Zm-3.73-2.81a1.15,1.15,0,0,1,.61-.67,1.11,1.11,0,0,1,.55-.17,1,1,0,0,1,.34.06.9.9,0,0,1,.58,1.34c-.29.57-.55,1-.77,1.41a1.28,1.28,0,0,1-.63.52,1.08,1.08,0,0,1-.79,0,.82.82,0,0,1-.56-1l.06-.13c.22-.44.42-.9.61-1.36Z" fill="#4c4948"/>
    <path d="M124.14,178.13a1.48,1.48,0,0,1-3,.19V157.21a1.46,1.46,0,0,1,1.29-1.61h5.76c3.76,0,7.32,2.55,7.32,6.45,0,4.83-3,6.64-6.51,6.78l-1.28,0,7.63,8.36a1.85,1.85,0,0,1,.57,1.35,1.26,1.26,0,0,1-1.35,1.14,1.76,1.76,0,0,1-1.34-.67l-9.13-10Zm0-11.48h4c3.09,0,4.44-1.31,4.44-4.4a4.19,4.19,0,0,0-4.25-4.12l-.25,0h-4Z" fill="#4c4948"/>
    <path d="M150.19,177.16c3.59,0,5.17-2.15,6.41-2.15a1.21,1.21,0,0,1,1.17,1.37c0,1.52-3.39,3.33-7.58,3.33-6.92,0-10.48-6-10.48-12.16s3.56-12.15,10.64-12.15c4.23,0,6.92,2.28,6.92,3.49a1.28,1.28,0,0,1-1.14,1.4h-.07c-1.34,0-2-2.35-5.71-2.35-5.3,0-7.48,5-7.48,9.6S145.12,177.16,150.19,177.16Z" fill="#4c4948"/>
    <path d="M186.19,94.72A44.56,44.56,0,1,1,207.47,11h0a44.56,44.56,0,0,1-21.28,83.75Zm.13-85.91a41.07,41.07,0,1,0,39.31,29.25A41.12,41.12,0,0,0,186.32,8.81Z" fill="#e50012"/>
    <path d="M183.16,94.61a19.64,19.64,0,1,1,17.3-10.29A19.62,19.62,0,0,1,183.16,94.61ZM183.22,59a16.24,16.24,0,0,0-4.59.67,15.92,15.92,0,1,0,4.59-.67Z" fill="#d7000f"/>
    <path d="M229.75,40.58c.13.61.25,1.23.36,1.85s.21,1.22.29,1.84a41.83,41.83,0,0,1-21.65,68.27q-.67.7-1.38,1.38c-.44.43-.9.85-1.37,1.27a43.94,43.94,0,0,0,23.75-74.61Z" fill="#f29600"/>
    <path d="M220.91,80c0-.56-.11-1.1-.16-1.66-.36.44-.72.87-1.09,1.29s-.77.86-1.17,1.28a41.7,41.7,0,0,1-79.83,18c-.65-.48-1.3-1-1.92-1.46s-1.23-1-1.82-1.55a44.19,44.19,0,0,0,41.86,30.3c.7,0,1.42,0,2.13-.05A44.21,44.21,0,0,0,220.91,80Z" fill="#ec6c00"/>
    <path d="M194.19,94c-.82.15-1.65.29-2.48.39a41.54,41.54,0,0,1-64-50.55h0A41.25,41.25,0,0,1,150.25,24c.5-.69,1-1.39,1.53-2s1.12-1.28,1.69-1.9c-.77.2-1.55.36-2.32.61a44.05,44.05,0,0,0-26,21.85h0a44.35,44.35,0,0,0,71.58,50.91C195.9,93.63,195.05,93.81,194.19,94Z" fill="#e7380d"/>
  </g>
</svg>
