<svg xmlns="http://www.w3.org/2000/svg" viewBox="0 0 311.66 255.39"><g id="圖層_12" data-name="圖層 12"><path d="M24.493,249.319c-1.157.631-2.395,1.238-3.6,1.788a28.261,28.261,0,0,0,4.021.683,12.284,12.284,0,0,0-2,2.916,17.453,17.453,0,0,1-8.336-3.235,15.259,15.259,0,0,0-.417,2.317c-6.127.789-7.336,1.076-8.1,1.42A8.026,8.026,0,0,0,5,252.684c.627-.158,1.5-.5,1.626-1.262a43.291,43.291,0,0,1-4.676.87A12.921,12.921,0,0,0,0,249.586a42.235,42.235,0,0,0,8.275-1.424H3.757v-4.784H21.1v4.259c.21-.158.42-.288.606-.421Zm-.34-6.491H.708v-2.649H24.153ZM4.206,236.365H.789V231.5h9.747c-.1-.312-.211-.627-.34-.923l4.178-.837a9.794,9.794,0,0,1,.817,1.76H24.23v4.865h-3.6v-2.079H4.206Zm.421-1.472H20.214v4.732H4.627Zm2.705,11.219h9.962v-.655H7.332Zm.025-8.542H8.885v-.651H7.357Zm6.649,13.4a11.183,11.183,0,0,1-1.626-1.759,17.412,17.412,0,0,1-2.212,1.056v1.1Zm-2.471-13.4h1.553v-.651H11.535Zm3.733,10.592a9.431,9.431,0,0,0,2.127,1.582c.95-.473,1.974-1.028,2.867-1.582Zm.473-10.592h1.6v-.651h-1.6Z" fill="#231f20"/><path d="M56.956,251.1V254.5H40.135V251.1H46.78v-1.941H42v-3.316h4.78v-2.095h3.389v-4.474H47.937a7.612,7.612,0,0,1-4.178,6.071,14.98,14.98,0,0,0-2.257-2.572,4.2,4.2,0,0,0,2.835-3.5H41.288v-3.255h3.155V234.5c-.684.158-1.343.291-2,.421a11.138,11.138,0,0,0-.789-2.027c-.635,2.261-1.391,5.048-2.046,6.993a8.143,8.143,0,0,1,1.706,5.149c0,1.84-.368,2.944-1.262,3.575a3.76,3.76,0,0,1-1.577.6,14.554,14.554,0,0,1-1.682.08,9.258,9.258,0,0,0-.421-2.362v8.251H33.062V231.319h5.65l.529-.133,2.261,1.262a19.788,19.788,0,0,0,5.776-2.209l2.891,2.184a15.392,15.392,0,0,1-2.151.967v2.633h2.151v-5.545H53.8v5.545h2.759v3.255H53.8v4.813H50.485v1.756H55.5v3.316H50.485V251.1Zm-20.582-5.019h.554a1.04,1.04,0,0,0,.684-.206c.258-.214.364-.631.364-1.343a6.769,6.769,0,0,0-1.521-4.259c.392-1.544.861-3.781,1.2-5.569H36.374Z" fill="#231f20"/><path d="M87.917,231.261v23.971h-3.79v-1.023H68.678v1.023h-3.6V231.261Zm-3.79,19.53V234.682H82.133a5.99,5.99,0,0,1,1.5,1.181l-.947.971h.9v2.629H79.323c.076.975.182,1.893.287,2.734a15.721,15.721,0,0,0,.788-2.285l2.892.578a19.494,19.494,0,0,1-2.734,5.836,1.39,1.39,0,0,0,.684.785c.263.105.42-.89.525-2.338a13.263,13.263,0,0,0,2.314,1.84c-.421,3.442-2.1,4.441-4.02,3.47a3.324,3.324,0,0,1-1.549-1.314,14.417,14.417,0,0,1-2.342,1.865,16.258,16.258,0,0,0-1.788-2.047c-1.787.235-3.522.445-5.047.627l-.287-2.734c1.864-.129,4.493-.368,7.146-.631l.029,1.056a10.3,10.3,0,0,0,1.023-1.024,34.835,34.835,0,0,1-.971-6.418H69.361v-2.629h6.726c-.053-.631-.073-1.258-.1-1.913h3.122c.033.655.033,1.282.057,1.913h1.917a16.185,16.185,0,0,0-1.391-.971l1.209-1.181H68.678v16.109Zm-8.327-5.52H69.887V240.3H75.8Zm-2.495-3.05H72.253v1.129h1.052Z" fill="#231f20"/><path d="M108.547,242.092a13.7,13.7,0,0,1-2.6,2.18,10.029,10.029,0,0,0-1.443-1.865,10.116,10.116,0,0,1,.258,2.394c0,1.837-.339,2.993-1.181,3.649a3.277,3.277,0,0,1-1.472.635,9.809,9.809,0,0,1-1.549.052,9.093,9.093,0,0,0-.4-2.208v8.149H96.931V231.212h5.363l.5-.133,2.366,1.29c-.186.736-.368,1.553-.579,2.338a13.513,13.513,0,0,0,2.391-4.469l2.762.635c-.134.388-.291.788-.449,1.181h1.472l.5-.11,1.865.716-.1.417,1.419-.316v-1.2h3.709l.6-.158,2.05,1.181a21.34,21.34,0,0,1-2.993,6.047,10.361,10.361,0,0,0,3.547,2.94,11.344,11.344,0,0,0-2.131,2.633,11.854,11.854,0,0,1-3.2-2.738v1.711h-7.466Zm-8.384,3.971h.449a.8.8,0,0,0,.6-.214,2.128,2.128,0,0,0,.368-1.5,8.254,8.254,0,0,0-1.314-4.575c.344-1.468.76-3.49,1.051-5.172h-1.156Zm7.251-7.069c.3-.4.583-.817.846-1.238-.478-.424-1-.894-1.5-1.314a12.736,12.736,0,0,1-1.5,1.63c-.291-.288-.789-.765-1.29-1.185-.235.926-.474,1.787-.708,2.552a10.134,10.134,0,0,1,1.1,2.418,11.408,11.408,0,0,0,2.208-1.864c-.788.153-1.5.315-2.341.469l-.34-2.261c1.023-.077,2.1-.186,3.47-.315Zm2.447,10.455a29.4,29.4,0,0,1-3.47,4.784,25.864,25.864,0,0,0-3.021-1.917,16.836,16.836,0,0,0,3.074-3.968Zm4.388-1.812V255.1h-3.575v-7.466h-4.469v-3.022h12.437v3.022ZM108.1,234.444l-.049.109c.393.311.862.651,1.315,1,.129-.368.263-.736.392-1.1Zm6.968,5.755a21.52,21.52,0,0,1-2.5-5.387,19.358,19.358,0,0,1-2.5,5.387Zm2.653,7.777c1.08,1.266,2.682,3.05,3.471,4.182L118.217,254c-.684-1.132-2.2-3.025-3.284-4.388Zm-2.337-13.953a13.813,13.813,0,0,0,.736,1.84c.287-.578.55-1.209.789-1.84Z" fill="#231f20"/><path d="M152.465,242.224a16.737,16.737,0,0,1-4.129,7.963,20.714,20.714,0,0,0,4.76,1.6,15,15,0,0,0-2.443,3.312,19.5,19.5,0,0,1-5.468-2.414,23.352,23.352,0,0,1-5.468,2.257,15.126,15.126,0,0,0-1.63-2.892,2.8,2.8,0,0,1-1.023,2.18,5.564,5.564,0,0,1-3.389.712,13.79,13.79,0,0,0-.894-3.576c.6.029,1.31.029,1.573.029s.344-.1.344-.393v-4.1c-.445.312-.922.6-1.363.894l-.793-2.05a35.824,35.824,0,0,1-1.444,9.407,13.387,13.387,0,0,0-3.077-1.683c1.213-3.6,1.265-8.905,1.265-12.743v-9.646h8.829v7.332a4.43,4.43,0,0,0,2.787-4.493V231.11h9.407V236.7c0,.765.029,1.08.344,1.08h.785a4.659,4.659,0,0,0,1.4-.214c.077.926.158,2.16.263,3a4.452,4.452,0,0,1-1.606.206h-1.233c-2.941,0-3.523-1.258-3.523-4.121v-2.026h-2.39a7.17,7.17,0,0,1-4.388,6.677,15.125,15.125,0,0,0-1.841-2.079v12.352a17.023,17.023,0,0,0,4.073-1.44,19.964,19.964,0,0,1-3.049-4.522l1.921-.582h-2.289v-3.547h10.568l.679-.129ZM132.676,240.7c0,1.028,0,2.184-.053,3.365.631-.158,1.315-.4,2.075-.631v-2.758l-1.052.866c-.234-.34-.578-.813-.97-1.291Zm0-6.18v2.815l.659-.473c.441.421.918.922,1.363,1.4v-3.737Zm10.014,10.516a11.9,11.9,0,0,0,2.5,3.049,11.97,11.97,0,0,0,2.338-3.049Z" fill="#231f20"/><path d="M168.97,231.425a47.6,47.6,0,0,1-2.419,5.331v18.373H162.8v-12.59c-.372.473-.765.918-1.137,1.315a25.966,25.966,0,0,0-1.993-4.021,26.841,26.841,0,0,0,5.7-9.536Zm11.643-.53a13.816,13.816,0,0,0,4.805,7.624,22.427,22.427,0,0,0-2.309,4.154,7.876,7.876,0,0,1-.732-.741v.34c-.267,7.337-.53,10.277-1.266,11.28a3,3,0,0,1-2.047,1.262,14.137,14.137,0,0,1-2.972.158,9.094,9.094,0,0,0-1-3.467,14.434,14.434,0,0,0,1.917.1.924.924,0,0,0,.821-.4c.34-.5.55-2.285.732-6.859h-2.576c-.732,5.157-2.548,8.566-6.387,10.673a15.763,15.763,0,0,0-2.523-2.839c3.2-1.448,4.679-4.044,5.152-7.834h-2.022v-2.835a11.142,11.142,0,0,1-.97.942,26,26,0,0,0-2.29-3.571,15.931,15.931,0,0,0,4.571-7.571l3.761.975a25.78,25.78,0,0,1-4.469,8.541H181.4a24.511,24.511,0,0,1-3.567-6.281h-2.026V230.9Z" fill="#231f20"/><path d="M202.43,236.81c-.263.522-.526,1.023-.789,1.52h12.012v12.882c0,1.763-.312,2.786-1.5,3.365-1.16.578-2.681.631-4.756.631a13.526,13.526,0,0,0-1.132-3.681c1.132.081,2.653.081,3.074.081s.578-.137.578-.477v-.942h-9.149a9.093,9.093,0,0,1-3.049,5.2,14.626,14.626,0,0,0-2.754-2.941c2.309-1.892,2.471-4.655,2.471-7.122v-1.209a21.089,21.089,0,0,1-2.71,2.285,22.662,22.662,0,0,0-2.548-2.968,18.692,18.692,0,0,0,5.913-6.625h-5.258v-3.571h6.912a28.273,28.273,0,0,0,.971-3.078l3.971.894c-.238.736-.473,1.443-.736,2.184H216.52v3.571Zm7.49,10.224v-1.128H201.3c0,.364-.028.732-.052,1.128Zm0-5.359H201.3v1.08h8.619Z" fill="#231f20"/><path d="M234.627,232.446c-.631,2.261-1.42,4.943-2.1,6.94a8.884,8.884,0,0,1,1.683,5.359c0,1.869-.368,3.021-1.262,3.7a3.535,3.535,0,0,1-1.573.635,11.1,11.1,0,0,1-1.683.077,7.868,7.868,0,0,0-.792-3.26,5.653,5.653,0,0,0,.922.028,1.087,1.087,0,0,0,.655-.186,1.892,1.892,0,0,0,.4-1.444,7.332,7.332,0,0,0-1.524-4.521c.392-1.468.865-3.519,1.209-5.2h-1.893v20.468h-3.312V231.189H231.6l.526-.134Zm14.139,13.8c-1.08.817-2.233,1.678-3.232,2.39a10.151,10.151,0,0,0,3.81,3.179,14.414,14.414,0,0,0-2.552,3.288,12.611,12.611,0,0,1-4.833-5.359,22.849,22.849,0,0,0,.158,3.438c-5.019,1.209-6.123,1.634-6.807,2.079a10.643,10.643,0,0,0-1.606-2.945,2.948,2.948,0,0,0,1.371-2.527v-18.6h12.166v12.428h-.866Zm-9.962-10.41h4.732v-1.392H238.8Zm0,4.521h4.732v-1.472H238.8Zm3.127,9.359a27.634,27.634,0,0,1-2.1-6.1H238.8v6.726Zm1.181-6.1a20.6,20.6,0,0,0,.817,2.232,26.889,26.889,0,0,0,2.289-2.232Z" fill="#231f20"/><path d="M267.321,232.078a43.588,43.588,0,0,1-7.959,11.749,32.076,32.076,0,0,0-3.422-3.313,27.953,27.953,0,0,0,7.07-9.827Zm7.385,11.854a81.444,81.444,0,0,1,5.808,9.221l-3.968,2.132c-.339-.761-.788-1.683-1.338-2.65-12.223,1.072-14.22,1.206-15.717,1.784a36.345,36.345,0,0,0-1.553-4.1,5.983,5.983,0,0,0,2.706-2,42.018,42.018,0,0,0,6.386-9.751l4.546,1.84a51.8,51.8,0,0,1-6.726,9.177L273.1,249c-.732-1.157-1.468-2.338-2.151-3.365Zm.445-13.116a16.027,16.027,0,0,0,6.677,8.938,20.483,20.483,0,0,0-2.887,3.943,23.517,23.517,0,0,1-6.734-8.938h-3.834v-3.943Z" fill="#231f20"/><path d="M311.66,250.581c0,2.054-.343,3.183-1.577,3.838-1.209.659-2.888.76-5.306.736a14.848,14.848,0,0,0-1.209-4.129c1.31.1,2.993.1,3.49.081.477,0,.663-.134.663-.6V235.338H289.582v-3.624H311.66Zm-6.386-10.568h-15.4v-3.308h15.4Zm-10.487,10.673v1.893h-3.733V241.461h13.092v9.225Zm0-3.26h5.6v-2.709h-5.6Z" fill="#231f20"/><path d="M203.517,0h-38.6A2.416,2.416,0,0,0,162.5,2.414v22.52a2.416,2.416,0,0,0,2.415,2.414h77.195a2.413,2.413,0,0,0,2.414-2.414V2.414A2.413,2.413,0,0,0,242.113,0Z" fill="#231f20"/><path d="M162.505,57.087v22.52a2.415,2.415,0,0,0,2.414,2.414h77.195a2.41,2.41,0,0,0,2.411-2.414V57.087a2.41,2.41,0,0,0-2.411-2.414H164.919a2.415,2.415,0,0,0-2.414,2.414" fill="#231f20"/><path d="M162.505,111.771v22.52a2.417,2.417,0,0,0,2.414,2.414h77.195a2.412,2.412,0,0,0,2.411-2.414v-22.52a2.41,2.41,0,0,0-2.411-2.414H164.919a2.415,2.415,0,0,0-2.414,2.414" fill="#231f20"/><path d="M110.255,136.693h22.5a2.413,2.413,0,0,0,2.415-2.414v-22.5a2.412,2.412,0,0,0-2.415-2.41h-22.5a2.414,2.414,0,0,0-2.414,2.41v22.5a2.415,2.415,0,0,0,2.414,2.414" fill="#231f20"/><path d="M80.507,0H55.574a2.413,2.413,0,0,0-2.415,2.414v22.52a2.413,2.413,0,0,0,2.415,2.414h49.843a2.412,2.412,0,0,1,2.414,2.411V79.61a2.412,2.412,0,0,0,2.415,2.41h22.519a2.416,2.416,0,0,0,2.418-2.41V2.414A2.416,2.416,0,0,0,132.765,0H80.507Z" fill="#231f20"/><path d="M53.16,84.434v22.519a2.413,2.413,0,0,0,2.414,2.415h49.843a2.413,2.413,0,0,0,2.415-2.415V84.434a2.413,2.413,0,0,0-2.415-2.414H55.574a2.413,2.413,0,0,0-2.414,2.414" fill="#231f20"/><rect x="234.825" y="177.349" width="6.342" height="31.906" fill="#231f20"/><path d="M255.735,193.256a7.433,7.433,0,0,1,1.116-3.7,7.58,7.58,0,0,1,2.507-2.37,10.94,10.94,0,0,1,3.418-1.278,19.917,19.917,0,0,1,3.822-.373,25.493,25.493,0,0,1,3.527.243,10.638,10.638,0,0,1,3.259.963,6.409,6.409,0,0,1,2.415,1.985,5.549,5.549,0,0,1,.938,3.373v12.02a24.662,24.662,0,0,0,.178,3,5.425,5.425,0,0,0,.631,2.144h-6.435a8.062,8.062,0,0,1-.3-1.1,9.641,9.641,0,0,1-.158-1.141,8.178,8.178,0,0,1-3.571,2.188,14.193,14.193,0,0,1-4.2.623,11.237,11.237,0,0,1-3.086-.4,6.949,6.949,0,0,1-2.5-1.25,5.766,5.766,0,0,1-1.67-2.144,7.2,7.2,0,0,1-.607-3.081,6.735,6.735,0,0,1,.691-3.24,5.741,5.741,0,0,1,1.788-2.03,7.92,7.92,0,0,1,2.5-1.145c.934-.246,1.88-.449,2.839-.6s1.888-.267,2.815-.356a16.552,16.552,0,0,0,2.458-.405,4.22,4.22,0,0,0,1.691-.78,1.716,1.716,0,0,0,.587-1.5,3.332,3.332,0,0,0-.34-1.63,2.486,2.486,0,0,0-.894-.942,3.539,3.539,0,0,0-1.294-.445,10.283,10.283,0,0,0-1.59-.109,4.8,4.8,0,0,0-2.944.805,3.578,3.578,0,0,0-1.25,2.677Zm14.661,4.692a2.868,2.868,0,0,1-1.008.562,11.1,11.1,0,0,1-1.3.336c-.461.089-.946.161-1.452.218s-1.011.137-1.52.226a10.749,10.749,0,0,0-1.4.36,4.039,4.039,0,0,0-1.209.6,2.78,2.78,0,0,0-.821.963,3.038,3.038,0,0,0-.316,1.468,2.952,2.952,0,0,0,.316,1.431,2.342,2.342,0,0,0,.849.918,3.57,3.57,0,0,0,1.246.466,7.7,7.7,0,0,0,1.476.137,5.617,5.617,0,0,0,2.9-.627,4.222,4.222,0,0,0,1.521-1.5,4.777,4.777,0,0,0,.6-1.768,12.5,12.5,0,0,0,.114-1.427Z" fill="#231f20"/><path d="M294.725,177.35v11.615h.089a6.844,6.844,0,0,1,3.155-2.613,10.656,10.656,0,0,1,4.129-.821,8.746,8.746,0,0,1,6.5,2.9,11.28,11.28,0,0,1,2.212,3.774,18.153,18.153,0,0,1,0,10.948,11.167,11.167,0,0,1-2.212,3.777,8.746,8.746,0,0,1-6.5,2.9,12.178,12.178,0,0,1-4.558-.8,5.772,5.772,0,0,1-3.037-2.722h-.089v2.949h-6.03V177.35ZM305,194.914a7.3,7.3,0,0,0-.979-2.37,5.136,5.136,0,0,0-1.678-1.63,5.145,5.145,0,0,0-4.845,0,5,5,0,0,0-1.7,1.63,7.334,7.334,0,0,0-.987,2.37,12.7,12.7,0,0,0,0,5.586,7.378,7.378,0,0,0,.987,2.366,4.991,4.991,0,0,0,1.7,1.626,5.145,5.145,0,0,0,4.845,0,5.124,5.124,0,0,0,1.678-1.626A7.345,7.345,0,0,0,305,200.5a12.5,12.5,0,0,0,0-5.586" fill="#231f20"/><path d="M19.276,179.324a9.636,9.636,0,0,1,3.624.648,8.315,8.315,0,0,1,2.758,1.779,7.735,7.735,0,0,1,1.759,2.613,8.45,8.45,0,0,1,.6,3.2,9.011,9.011,0,0,1-1.1,4.562,6.935,6.935,0,0,1-3.624,2.928v.081a5.175,5.175,0,0,1,2.01,1.031,5.747,5.747,0,0,1,1.3,1.634,7.784,7.784,0,0,1,.728,2.067,17.363,17.363,0,0,1,.316,2.261q.042.716.085,1.674c.028.639.073,1.294.145,1.966a13.076,13.076,0,0,0,.332,1.905A4.4,4.4,0,0,0,28.9,209.2H22.329a11.6,11.6,0,0,1-.667-3.389c-.085-1.306-.21-2.564-.376-3.765a5.943,5.943,0,0,0-1.42-3.426,4.87,4.87,0,0,0-3.559-1.092H9.739V209.2H3.171V179.324Zm-2.342,13.513a4.954,4.954,0,0,0,3.389-1,4.17,4.17,0,0,0,1.129-3.264,3.984,3.984,0,0,0-1.129-3.159,5.037,5.037,0,0,0-3.389-.982H9.739v8.408Z" fill="#231f20"/><polygon points="65.214 179.325 65.214 184.846 49.441 184.846 49.441 191.248 63.92 191.248 63.92 196.356 49.441 196.356 49.441 203.677 65.55 203.677 65.55 209.197 42.873 209.197 42.873 179.325 65.214 179.325" fill="#231f20"/><path d="M87.146,184v3.51h.15a7.908,7.908,0,0,1,3.414-3.191,9.81,9.81,0,0,1,4.282-1,11.712,11.712,0,0,1,4.559.757,6.718,6.718,0,0,1,2.806,2.091,8.137,8.137,0,0,1,1.436,3.267,20.126,20.126,0,0,1,.413,4.263v15.5H97.29V194.966a8.86,8.86,0,0,0-.975-4.655,3.8,3.8,0,0,0-3.466-1.533,4.781,4.781,0,0,0-4.093,1.679c-.845,1.124-1.266,2.964-1.266,5.532v13.2H80.566V184Z" fill="#231f20"/><path d="M118.929,191.745a8,8,0,0,1,1.218-4.044,8.231,8.231,0,0,1,2.725-2.581,12.047,12.047,0,0,1,3.733-1.391,21.253,21.253,0,0,1,4.166-.412,27.767,27.767,0,0,1,3.85.271,11.589,11.589,0,0,1,3.559,1.047,6.989,6.989,0,0,1,2.629,2.168,6.041,6.041,0,0,1,1.028,3.68V203.6a26.393,26.393,0,0,0,.194,3.264,5.749,5.749,0,0,0,.683,2.338h-7.021a9.678,9.678,0,0,1-.485-2.439,8.933,8.933,0,0,1-3.9,2.39,15.7,15.7,0,0,1-4.582.684,12.561,12.561,0,0,1-3.361-.437,7.738,7.738,0,0,1-2.726-1.367,6.277,6.277,0,0,1-1.828-2.338,7.884,7.884,0,0,1-.663-3.365,7.375,7.375,0,0,1,.756-3.534,6.284,6.284,0,0,1,1.949-2.213,8.587,8.587,0,0,1,2.734-1.245,29.912,29.912,0,0,1,3.094-.66q1.56-.242,3.074-.392a18.531,18.531,0,0,0,2.673-.437,4.74,4.74,0,0,0,1.857-.853,1.876,1.876,0,0,0,.631-1.634,3.724,3.724,0,0,0-.364-1.78,2.742,2.742,0,0,0-.975-1.023,3.981,3.981,0,0,0-1.416-.485,11.549,11.549,0,0,0-1.727-.121,5.23,5.23,0,0,0-3.215.877,3.886,3.886,0,0,0-1.367,2.92Zm15.984,5.12a3.067,3.067,0,0,1-1.1.607,10.492,10.492,0,0,1-1.412.368c-.506.1-1.031.178-1.585.247s-1.108.145-1.659.238a14.4,14.4,0,0,0-1.536.393,4.649,4.649,0,0,0-1.315.655,3.183,3.183,0,0,0-.906,1.051,3.42,3.42,0,0,0-.34,1.606,3.321,3.321,0,0,0,.34,1.565,2.632,2.632,0,0,0,.934,1,3.822,3.822,0,0,0,1.359.514,8.838,8.838,0,0,0,1.61.145,6.037,6.037,0,0,0,3.167-.687,4.48,4.48,0,0,0,1.658-1.626,5.24,5.24,0,0,0,.659-1.929,13.291,13.291,0,0,0,.122-1.557Z" fill="#231f20"/><path d="M170.783,184v4.635h-5.068v12.473a2.342,2.342,0,0,0,2.92,2.924c.388,0,.769-.017,1.12-.049a7.967,7.967,0,0,0,1.028-.15v5.363a16.752,16.752,0,0,1-1.95.2q-1.068.048-2.1.048a19.83,19.83,0,0,1-3.045-.222,7.089,7.089,0,0,1-2.536-.854,4.461,4.461,0,0,1-1.727-1.8,6.458,6.458,0,0,1-.635-3.073V188.633H154.6V184h4.194v-7.551h6.924V184Z" fill="#231f20"/><path d="M183.989,191.139a11.541,11.541,0,0,1,6.726-6.872,14.4,14.4,0,0,1,5.367-.95,14.6,14.6,0,0,1,5.387.95,11.5,11.5,0,0,1,6.746,6.872,15.517,15.517,0,0,1,.926,5.484,15.3,15.3,0,0,1-.926,5.46,11.881,11.881,0,0,1-2.633,4.165,11.534,11.534,0,0,1-4.113,2.662,15.043,15.043,0,0,1-5.387.922,14.84,14.84,0,0,1-5.367-.922,11.577,11.577,0,0,1-4.093-2.662,11.9,11.9,0,0,1-2.633-4.165,15.326,15.326,0,0,1-.926-5.46,15.54,15.54,0,0,1,.926-5.484m6.289,8.432a7.8,7.8,0,0,0,1,2.584,5.372,5.372,0,0,0,1.877,1.829,5.774,5.774,0,0,0,2.928.683,5.878,5.878,0,0,0,2.944-.683,5.279,5.279,0,0,0,1.9-1.829,7.981,7.981,0,0,0,1-2.584,14.818,14.818,0,0,0,.287-2.948,15.165,15.165,0,0,0-.287-2.973,7.706,7.706,0,0,0-1-2.584,5.527,5.527,0,0,0-1.9-1.828,5.706,5.706,0,0,0-2.944-.7,5.316,5.316,0,0,0-4.805,2.532,7.536,7.536,0,0,0-1,2.584,15.167,15.167,0,0,0-.291,2.973,14.819,14.819,0,0,0,.291,2.948" fill="#231f20"/></g></svg>