<svg xmlns="http://www.w3.org/2000/svg" viewBox="0 0 850 623">
  <g>
    <path d="M386,298s-1-20,18-20c0,0,16,0,16,20,0,0,1,19.43-17,19.43C403,317.43,386,319,386,298Z" fill="#fff" stroke="#000" stroke-miterlimit="10" stroke-width="2"/>
    <path d="M464,298s1-20-18-20c0,0-16,0-16,20,0,0-1,19.43,17,19.43C447,317.43,464,319,464,298Z" fill="#fff" stroke="#000" stroke-miterlimit="10" stroke-width="2"/>
    <path d="M416.68,310.7c-2.92-1.17-5.85-2.31-9.06-1.83-2.51.37-4.9,1.69-7.43,1.56-1.94-.1-3.26-1.05-5.17-1.43a13.28,13.28,0,0,0-6.52.56c4.71,8.76,14.49,7.87,14.49,7.87C410.13,317.43,414.27,314.38,416.68,310.7Z" fill="#68d7f0"/>
    <path d="M433.5,310.7c2.92-1.17,5.84-2.31,9.06-1.83,2.5.37,4.9,1.69,7.42,1.56,1.95-.1,3.26-1.05,5.17-1.43a13.32,13.32,0,0,1,6.53.56c-4.71,8.76-14.5,7.87-14.5,7.87C440,317.43,435.9,314.38,433.5,310.7Z" fill="#68d7f0"/>
    <path d="M386,298s-1-20,18-20c0,0,16,0,16,20,0,0,1,19.43-17,19.43C403,317.43,386,319,386,298Z" fill="none" stroke="#000" stroke-miterlimit="10" stroke-width="2"/>
    <path d="M386,298s-1-20,18-20c0,0,16,0,16,20,0,0,1,19.43-17,19.43C403,317.43,386,319,386,298Z" fill="none" stroke="#000" stroke-miterlimit="10" stroke-width="2"/>
    <path d="M420,298a29,29,0,0,0-.74-6.78c-.06-.12-2.33-4.19-9.22-2.22,0,0-7,2-8,12,0,0-1.68,12.31,6.65,15.66C420.78,313.05,420,298,420,298Z"/>
    <path d="M416,297s0,7-2,10" stroke="#fff" stroke-linecap="round" stroke-linejoin="round" stroke-width="3" opacity="0.46"/>
    <line x1="386.01" y1="280" x2="411.52" y2="273.5" fill="none" stroke="#000" stroke-linecap="round" stroke-linejoin="round" stroke-width="4"/>
    <path d="M464,298s1-20-18-20c0,0-16,0-16,20,0,0-1,19.43,17,19.43C447,317.43,464,319,464,298Z" fill="none" stroke="#000" stroke-miterlimit="10" stroke-width="2"/>
    <path d="M464,298s1-20-18-20c0,0-16,0-16,20,0,0-1,19.43,17,19.43C447,317.43,464,319,464,298Z" fill="none" stroke="#000" stroke-miterlimit="10" stroke-width="2"/>
    <path d="M430,298a29,29,0,0,1,.74-6.78c.06-.12,2.33-4.19,9.22-2.22,0,0,7,2,8,12,0,0,1.68,12.31-6.65,15.66C429.22,313.05,430,298,430,298Z"/>
    <path d="M434,297s0,7,2,10" stroke="#fff" stroke-linecap="round" stroke-linejoin="round" stroke-width="3" opacity="0.46"/>
    <line x1="463.99" y1="280" x2="438.48" y2="273.5" fill="none" stroke="#000" stroke-linecap="round" stroke-linejoin="round" stroke-width="4"/>
    <path d="M440,323s-3.87-13-15.5-13S409,323,409,323" fill="none" stroke="#000" stroke-linecap="round" stroke-linejoin="round" stroke-width="3"/>
    <path d="M396.69,324.05a4.68,4.68,0,0,1-.75-2.28,10.52,10.52,0,0,1,1.28-5.43c.44-.91,1.53-4,3-3.17a2.7,2.7,0,0,1,.91.93,13.53,13.53,0,0,1,1.83,5.49c.22,1.54.29,3.26-.7,4.45C401,325.58,397.89,325.74,396.69,324.05Z" fill="#68d7f0"/>
    <path d="M396.55,339.3a5,5,0,0,1-.79-2.4,11.15,11.15,0,0,1,1.34-5.7c.46-1,1.61-4.16,3.18-3.33a2.79,2.79,0,0,1,1,1,14.08,14.08,0,0,1,1.92,5.78c.24,1.6.31,3.42-.73,4.67C401.08,340.91,397.81,341.07,396.55,339.3Z" fill="#68d7f0"/>
    <path d="M401,332s1,4,0,6" stroke="#fff" stroke-linecap="round" stroke-linejoin="round" opacity="0.46"/>
  </g>
</svg>
