<svg xmlns="http://www.w3.org/2000/svg" viewBox="0 0 850 623">
  <g>
    <path d="M408.84,311h32.32a5.84,5.84,0,0,1,5.84,5.84v.51A16.65,16.65,0,0,1,430.35,334H419.65A16.65,16.65,0,0,1,403,317.35v-.51A5.84,5.84,0,0,1,408.84,311Z" fill="#fff" stroke="#000" stroke-miterlimit="10" stroke-width="2"/>
    <path d="M440,330.36a9.36,9.36,0,0,0-9.36-9.36H419.36a9.36,9.36,0,0,0-9.36,9.36v.54a16.6,16.6,0,0,0,9.65,3.1h10.7a16.6,16.6,0,0,0,9.65-3.1Z" fill="#ed7471" stroke="#000" stroke-miterlimit="10" stroke-width="2"/>
  </g>
</svg>
