<svg xmlns="http://www.w3.org/2000/svg" viewBox="0 0 850 623">
  <g>
    <path d="M389.51,294a58.22,58.22,0,0,1,1.35-9.05c1.6-6.9,5.31-15.95,13.69-15.95,0,0,14.09-2,14.09,25,0,0,1,27.12-14.54,27.12a6.34,6.34,0,0,1-1.14.14,11.08,11.08,0,0,1-9.87-5.33c-2.2-3.4-3.07-7.55-3.46-11.53A62.13,62.13,0,0,1,389.51,294Z" fill="#fff" stroke="#000" stroke-miterlimit="10" stroke-width="2"/>
    <path d="M405.55,297.5c0-11.79-3.63-21.77-8.65-25.21-3.24,3.26-5,8.37-6,12.66a58.22,58.22,0,0,0-1.35,9.05,62.13,62.13,0,0,0,.12,10.4c.39,4,1.26,8.13,3.46,11.53a11.74,11.74,0,0,0,6,4.79C402.93,316.21,405.55,307.51,405.55,297.5Z"/>
    <path d="M431.51,294a58.22,58.22,0,0,1,1.35-9.05c1.6-6.9,5.31-15.95,13.69-15.95,0,0,14.09-2,14.09,25,0,0,1,27.12-14.54,27.12a6.34,6.34,0,0,1-1.14.14,11.08,11.08,0,0,1-9.87-5.33c-2.2-3.4-3.07-7.55-3.46-11.53A62.13,62.13,0,0,1,431.51,294Z" fill="#fff" stroke="#000" stroke-miterlimit="10" stroke-width="2"/>
    <path d="M447.55,297.5c0-11.79-3.63-21.77-8.65-25.21-3.24,3.26-5,8.37-6,12.66a58.22,58.22,0,0,0-1.35,9.05,62.13,62.13,0,0,0,.12,10.4c.39,4,1.26,8.13,3.46,11.53a11.74,11.74,0,0,0,6,4.79C444.93,316.21,447.55,307.51,447.55,297.5Z"/>
    <line x1="392.55" y1="264" x2="417.55" y2="256" fill="none" stroke="#000" stroke-linecap="round" stroke-linejoin="round" stroke-width="2"/>
    <line x1="433.66" y1="260" x2="460.55" y2="267" fill="none" stroke="#000" stroke-linecap="round" stroke-linejoin="round" stroke-width="2"/>
    <line x1="405.05" y1="334" x2="443.55" y2="332" fill="none" stroke="#000" stroke-linecap="round" stroke-linejoin="round" stroke-width="2"/>
  </g>
</svg>
