<?xml version="1.0" encoding="utf-8"?>
<!-- Generator: Adobe Illustrator 25.2.3, SVG Export Plug-In . SVG Version: 6.00 Build 0)  -->
<svg version="1.1" id="Layer_1" xmlns="http://www.w3.org/2000/svg" xmlns:xlink="http://www.w3.org/1999/xlink" x="0px" y="0px"
	 viewBox="0 0 68 68" style="enable-background:new 0 0 68 68;" xml:space="preserve">
<style type="text/css">
	.st0{fill:#0071BC;}
	.st1{fill:#FFFFFF;}
</style>
<rect class="st0" width="68" height="68"/>
<path class="st1" d="M36.5,68c0-0.4-0.1-0.8-0.1-1.2c0-6.7,0-13.4,0-20.1c0-1.5-0.1-2.9-0.1-4.4c-1.5-0.1-3-0.1-4.5-0.2
	s-2.8,0-4.3,0V31.5c0.4,0,0.8,0,1.1,0c2.2,0,4.3,0,6.5,0c1,0,1.3-0.2,1.3-1.3c-0.1-2.3,0-4.7,0-7c0-7.7,5.2-12.9,12.9-12.9
	c2.4,0,4.8,0.1,7.2,0.2c0.9,0,1.3,0.3,1.2,1.3c-0.1,2.4,0,4.7,0,7.1c0,0.3,0,0.7-0.1,1.2h-1.3c-2,0.1-3.9,0.1-5.8,0.2
	c-1.8,0-3.3,1.4-3.3,3.2c0,0,0,0,0,0.1c-0.2,2.3-0.1,4.7-0.2,7c0,0.7,0.3,0.9,1,0.9c2.7,0,5.4,0,8,0h1.3c-0.2,1.3-0.3,2.5-0.5,3.7
	c-0.3,2-0.6,4.1-0.8,6.1c-0.1,0.7-0.4,0.8-1,0.8c-2.2,0-4.5,0-6.7,0c-1.3,0-1.3,0-1.3,1.4v23.2c0,0.4-0.1,0.8-0.1,1.2L36.5,68z"/>
</svg>
