<?xml version="1.0" encoding="utf-8"?>
<!-- Generator: Adobe Illustrator 25.2.3, SVG Export Plug-In . SVG Version: 6.00 Build 0)  -->
<svg version="1.1" id="Layer_1" xmlns="http://www.w3.org/2000/svg" xmlns:xlink="http://www.w3.org/1999/xlink" x="0px" y="0px"
	 viewBox="0 0 68 68" style="enable-background:new 0 0 68 68;" xml:space="preserve">
<style type="text/css">
	.st0{fill:#39CD4A;}
	.st1{fill:#FFFFFF;}
</style>
<g>
	<g>
		<rect class="st0" width="68" height="68"/>
		<path class="st1" d="M58.9,31.7c0-0.7,0-1.7-0.2-2.7c-0.6-3.8-2.4-7.3-5.1-10c-3.4-3.4-7.7-5.8-12.4-6.8
			c-7.4-1.9-15.2-0.8-21.8,2.9c-3.1,1.7-5.8,4.2-7.7,7.2c-2.8,4.2-3.4,9.5-1.7,14.2c1.5,4.1,4.3,7.7,8,10c3.7,2.4,7.8,3.9,12.2,4.4
			c1.5,0.2,2.1,0.9,2,2.4c0,0.9-0.2,1.8-0.3,2.8c-0.2,1.6,0.3,2,1.8,1.5c0.3-0.1,0.6-0.2,0.8-0.3c3-1.4,5.8-3.1,8.3-5.1
			c3.2-2.3,6.3-4.9,9.4-7.4C56.2,41.7,58.6,36.9,58.9,31.7L58.9,31.7z"/>
		<path class="st0" d="M34,30.7c0,0.3-0.1,0.5-0.1,0.8c0,1.5,0,3,0,4.6c0,0.9-0.5,1.4-1.2,1.4s-1.2-0.5-1.2-1.4c0-3,0-6,0-9.1
			c-0.1-0.6,0.3-1.2,0.9-1.4c0.6-0.2,1.3,0.1,1.6,0.7c1.4,1.8,2.8,3.7,4.1,5.5c0.2,0.2,0.4,0.4,0.6,0.7c0-0.4,0.1-0.7,0.1-0.9
			c0-1.5,0-3.1,0-4.6c0-0.9,0.5-1.4,1.2-1.4s1.2,0.5,1.2,1.4c0,3.1,0,6.1,0,9.2c0.1,0.6-0.3,1.1-0.8,1.3c-0.6,0.2-1.2,0-1.5-0.5
			l-4.2-5.7c-0.1-0.2-0.3-0.4-0.4-0.5L34,30.7z"/>
		<path class="st0" d="M43.1,31.5c0-1.5,0-2.9,0-4.3c0-1.3,0.3-1.6,1.6-1.6H49c1,0,1.4,0.4,1.4,1.2S49.9,28,49,28s-1.8,0-2.7,0
			c-0.5,0-0.7,0.1-0.7,0.6c-0.1,1.7-0.1,1.7,1.6,1.7c0.7,0,1.3,0,2,0c0.9,0,1.3,0.5,1.3,1.2c0,0.7-0.5,1.2-1.2,1.2c0,0-0.1,0-0.1,0
			c-1,0-1.9,0-2.9,0c-0.5,0-0.7,0.2-0.7,0.6c0,2-0.1,1.6,1.6,1.7c0.7,0,1.4,0,2.1,0c0.6-0.1,1.2,0.4,1.2,1c0,0.1,0,0.2,0,0.2
			c0,0.6-0.5,1.2-1.1,1.2c0,0,0,0-0.1,0c-1.7,0-3.3,0-5,0c-0.8,0-1.1-0.4-1.1-1.3C43.1,34.6,43.1,33,43.1,31.5z"/>
		<path class="st0" d="M18.4,31.5v-4c0-1.3,0.4-1.9,1.2-1.9s1.2,0.6,1.2,1.9c0,2.3,0,4.5,0,6.8c0,0.7,0.2,0.9,0.9,0.9
			c0.9,0,1.8,0,2.6,0s1.3,0.4,1.3,1.2c0,0.7-0.5,1.2-1.2,1.2c-0.1,0-0.1,0-0.2,0c-1.5,0-3.1,0-4.6,0c-1,0-1.3-0.4-1.3-1.4
			C18.4,34.6,18.4,33,18.4,31.5z"/>
		<path class="st0" d="M27,31.5V27c0-0.9,0.5-1.5,1.2-1.5s1.2,0.5,1.3,1.4c0,1.4,0,2.8,0,4.2c0,1.7,0,3.3,0,5c0.1,0.6-0.4,1.2-1,1.3
			c-0.6,0.1-1.2-0.2-1.4-0.8C27,36.4,27,36.2,27,36C27,34.5,27,33,27,31.5z"/>
	</g>
</g>
</svg>
