<?xml version="1.0" encoding="utf-8"?>
<!-- Generator: Adobe Illustrator 24.3.0, SVG Export Plug-In . SVG Version: 6.00 Build 0)  -->
<svg version="1.1" id="Layer_1" xmlns="http://www.w3.org/2000/svg" xmlns:xlink="http://www.w3.org/1999/xlink" x="0px" y="0px"
	 viewBox="0 0 285.1 171.1" style="enable-background:new 0 0 285.1 171.1;" xml:space="preserve">
<style type="text/css">
	.st0{fill:#221714;stroke:#231815;stroke-width:2.72;stroke-miterlimit:10;}
	.st1{fill:#FFFFFF;stroke:#221714;stroke-width:2.72;stroke-miterlimit:10;}
</style>
<g>
	<path class="st0" d="M258.2,11.4H27c-14.1,0-25.6,11.4-25.6,25.6v60.1c0,14.1,11.5,25.6,25.6,25.6h156.2l45.2,33.5l-19.9-33.5h49.6
		c14.1,0,25.5-11.5,25.6-25.6V36.9C283.7,22.8,272.3,11.4,258.2,11.4z"/>
	<path class="st1" d="M258.2,1.4H27C12.9,1.4,1.4,12.8,1.4,26.9v60.1c0,14.1,11.5,25.6,25.6,25.6h156.2l45.2,42.5l-19.9-42.5h49.6
		c14.1,0,25.5-11.5,25.6-25.6V26.9C283.7,12.8,272.3,1.4,258.2,1.4z"/>
</g>
</svg>
