<?xml version="1.0" encoding="utf-8"?>
<!-- Generator: Adobe Illustrator 24.3.0, SVG Export Plug-In . SVG Version: 6.00 Build 0)  -->
<svg version="1.1" id="Layer_1" xmlns="http://www.w3.org/2000/svg" xmlns:xlink="http://www.w3.org/1999/xlink" x="0px" y="0px"
	 viewBox="0 0 355.7 195.3" style="enable-background:new 0 0 355.7 195.3;" xml:space="preserve">
<style type="text/css">
	.st0{fill:#221714;stroke:#231815;stroke-width:2.72;stroke-miterlimit:10;}
	.st1{fill:#FFFFFF;stroke:#221714;stroke-width:2.72;stroke-miterlimit:10;}
</style>
<g>
	<path class="st0" d="M326.5,11.4H29.2c-15.3,0-27.9,10.5-27.9,23.4v69c0,12.8,12.5,23.4,27.9,23.4H127l-21.2,63.2l61.8-63.2h158.8
		c15.3,0,27.9-10.5,27.9-23.4v-69C354.4,21.9,341.8,11.4,326.5,11.4z"/>
	<path class="st1" d="M326.5,1.4H29.2C13.9,1.4,1.4,11.9,1.4,24.7v69c0,12.8,12.5,23.4,27.9,23.4H127l-17.2,63.2l57.8-63.2h158.8
		c15.3,0,27.9-10.5,27.9-23.4v-69C354.4,11.9,341.8,1.4,326.5,1.4z"/>
</g>
</svg>
