<svg xmlns="http://www.w3.org/2000/svg" width="180" height="180" viewBox="0 0 180 180">
  <g id="圖層_6" data-name="圖層 6">
    <g>
      <g>
        <rect x="53.63" y="69.95" width="7.44" height="13.02" rx="0.93" fill="#22b573"/>
        <path d="M60.14,70.88V82H54.56V70.88h5.58m0-1.86H54.56a1.87,1.87,0,0,0-1.87,1.86V82a1.87,1.87,0,0,0,1.87,1.86h5.58A1.86,1.86,0,0,0,62,82V70.88A1.87,1.87,0,0,0,60.14,69Z" fill="#404040"/>
      </g>
      <g>
        <rect x="48.97" y="9.5" width="15.81" height="66.04" rx="5.83" fill="#22b573"/>
        <path d="M59,10.43a4.9,4.9,0,0,1,4.91,4.9V69.7A4.9,4.9,0,0,1,59,74.6H54.81a4.9,4.9,0,0,1-4.91-4.9V15.33a4.9,4.9,0,0,1,4.91-4.9H59m0-1.86H54.81A6.77,6.77,0,0,0,48,15.33V69.7a6.77,6.77,0,0,0,6.77,6.76H59a6.77,6.77,0,0,0,6.77-6.76V15.33A6.77,6.77,0,0,0,59,8.57Z" fill="#404040"/>
      </g>
      <g>
        <rect x="48.97" y="9.5" width="15.81" height="66.04" rx="5.83" fill="#22b573"/>
        <path d="M59,10.43a4.9,4.9,0,0,1,4.91,4.9V69.7A4.9,4.9,0,0,1,59,74.6H54.81a4.9,4.9,0,0,1-4.91-4.9V15.33a4.9,4.9,0,0,1,4.91-4.9H59m0-1.86H54.81A6.77,6.77,0,0,0,48,15.33V69.7a6.77,6.77,0,0,0,6.77,6.76H59a6.77,6.77,0,0,0,6.77-6.76V15.33A6.77,6.77,0,0,0,59,8.57Z" fill="#404040"/>
      </g>
      <path d="M96.14,87.4h-.65l-39.88,0,4.86,70.35a5,5,0,0,0,5,4.69h60.64a5,5,0,0,0,5-4.69L136,87.45Z" fill="#22b573" stroke="#404040" stroke-linecap="round" stroke-linejoin="round" stroke-width="1.95"/>
      <path d="M136.19,94.21H55.45a6.8,6.8,0,0,1-6.81-6.81h0a6.8,6.8,0,0,1,6.81-6.81h80.74A6.81,6.81,0,0,1,143,87.4h0A6.81,6.81,0,0,1,136.19,94.21Z" fill="#22b573" stroke="#404040" stroke-linecap="round" stroke-linejoin="round" stroke-width="1.95"/>
      <line x1="95.82" y1="104.72" x2="95.82" y2="152.09" fill="#22b573" stroke="#404040" stroke-linecap="round" stroke-linejoin="round" stroke-width="1.95"/>
      <line x1="73.93" y1="104.72" x2="78.86" y2="152.09" fill="#22b573" stroke="#404040" stroke-linecap="round" stroke-linejoin="round" stroke-width="1.95"/>
      <line x1="116.8" y1="104.72" x2="111.87" y2="152.09" fill="#22b573" stroke="#404040" stroke-linecap="round" stroke-linejoin="round" stroke-width="1.95"/>
      <g>
        <path d="M130.05,38.82A27.74,27.74,0,0,0,94.59,59" fill="none" stroke="#404040" stroke-linecap="round" stroke-linejoin="round" stroke-width="2.92"/>
        <path d="M88.47,50.89a18.68,18.68,0,0,0,3.46,6.93,5.62,5.62,0,0,0,2.39,1.94A6.37,6.37,0,0,0,98,59.58c2.86-.74,5.81-1.71,7.86-3.84" fill="none" stroke="#404040" stroke-linecap="round" stroke-linejoin="round" stroke-width="2.92"/>
      </g>
      <path d="M59,10.43h-1.6V74.6H59a4.9,4.9,0,0,0,4.91-4.9V15.33A4.9,4.9,0,0,0,59,10.43Z" fill="#006837" opacity="0.6"/>
    </g>
  </g>
</svg>
