<?xml version="1.0" encoding="utf-8"?>
<!-- Generator: Adobe Illustrator 24.3.0, SVG Export Plug-In . SVG Version: 6.00 Build 0)  -->
<svg version="1.1" id="Layer_1" xmlns="http://www.w3.org/2000/svg" xmlns:xlink="http://www.w3.org/1999/xlink" x="0px" y="0px"
	 viewBox="0 0 473.6 158.6" style="enable-background:new 0 0 473.6 158.6;" xml:space="preserve">
<style type="text/css">
	.st0{fill:#221714;stroke:#231815;stroke-width:2.72;stroke-miterlimit:10;}
	.st1{fill:#FFFFFF;stroke:#221714;stroke-width:2.72;stroke-miterlimit:10;}
</style>
<g>
	<path class="st0" d="M465.4,133.6l-94.9-54v-42c0-14.5-11.8-26.2-26.2-26.2H27.6c-14.5,0-26.2,11.7-26.2,26.2V131
		c0,14.5,11.8,26.2,26.2,26.2h316.6c14.5,0,26.2-11.8,26.2-26.2v-16.2L465.4,133.6z"/>
	<path class="st1" d="M465.4,132.6l-94.9-63v-42c0-14.5-11.7-26.2-26.2-26.3H27.6C13.1,1.4,1.4,13.1,1.4,27.6V121
		c0,14.5,11.8,26.2,26.2,26.2h316.6c14.5,0,26.2-11.8,26.2-26.2v-16.2L465.4,132.6z"/>
</g>
</svg>
