<svg xmlns="http://www.w3.org/2000/svg" viewBox="0 0 355.72 195.32">
  <g>
    <path d="M326.51,11.36H29.22C13.9,11.36,1.36,21.87,1.36,34.72v69c0,12.85,12.54,23.36,27.86,23.36H127l-17.16,63.17,57.84-63.17H326.51c15.32,0,27.85-10.51,27.85-23.36v-69C354.36,21.87,341.83,11.36,326.51,11.36Z" fill="#221714" stroke="#231815" stroke-miterlimit="10" stroke-width="2.72"/>
    <path d="M326.51,1.36H29.22C13.9,1.36,1.36,11.87,1.36,24.72v69c0,12.85,12.54,23.36,27.86,23.36H127l-17.16,63.17,57.84-63.17H326.51c15.32,0,27.85-10.51,27.85-23.36v-69C354.36,11.87,341.83,1.36,326.51,1.36Z" fill="#fff" stroke="#221714" stroke-miterlimit="10" stroke-width="2.72"/>
  </g>
</svg>
