<svg xmlns="http://www.w3.org/2000/svg" viewBox="0 0 473.59 158.58">
  <g>
    <path d="M465.35,142.63l-94.94-63v-42a26.3,26.3,0,0,0-26.22-26.23H27.59A26.3,26.3,0,0,0,1.36,37.59V131a26.3,26.3,0,0,0,26.23,26.22h316.6A26.3,26.3,0,0,0,370.41,131V114.79Z" fill="#221714" stroke="#231815" stroke-miterlimit="10" stroke-width="2.72"/>
    <path d="M465.35,132.63l-94.94-63v-42A26.3,26.3,0,0,0,344.19,1.36H27.59A26.3,26.3,0,0,0,1.36,27.59V121a26.3,26.3,0,0,0,26.23,26.22h316.6A26.3,26.3,0,0,0,370.41,121V104.79Z" fill="#fff" stroke="#221714" stroke-miterlimit="10" stroke-width="2.72"/>
  </g>
</svg>
