<svg xmlns="http://www.w3.org/2000/svg" viewBox="0 0 285.11 171.06">
  <g>
    <path d="M258.17,11.36H27A25.66,25.66,0,0,0,1.36,36.94V97.07A25.66,25.66,0,0,0,27,122.65H183.22l45.25,42.54-19.92-42.54h49.62a25.65,25.65,0,0,0,25.58-25.58V36.94A25.65,25.65,0,0,0,258.17,11.36Z" fill="#221714" stroke="#231815" stroke-miterlimit="10" stroke-width="2.72"/>
    <path d="M258.17,1.36H27A25.66,25.66,0,0,0,1.36,26.94V87.07A25.66,25.66,0,0,0,27,112.65H183.22l45.25,42.54-19.92-42.54h49.62a25.65,25.65,0,0,0,25.58-25.58V26.94A25.65,25.65,0,0,0,258.17,1.36Z" fill="#fff" stroke="#221714" stroke-miterlimit="10" stroke-width="2.72"/>
  </g>
</svg>
