<?xml version="1.0" encoding="utf-8"?>
<!-- Generator: Adobe Illustrator 24.3.0, SVG Export Plug-In . SVG Version: 6.00 Build 0)  -->
<svg version="1.1" id="Layer_1" xmlns="http://www.w3.org/2000/svg" xmlns:xlink="http://www.w3.org/1999/xlink" x="0px" y="0px"
	 viewBox="0 0 670.8 297.2" style="enable-background:new 0 0 670.8 297.2;" xml:space="preserve">
<style type="text/css">
	.st0{fill:#231815;stroke:#231815;stroke-width:3;stroke-miterlimit:10;}
	.st1{fill:#FFFFFF;stroke:#231815;stroke-width:3;stroke-miterlimit:10;}
</style>
<g>
	<path class="st0" d="M659,275.4l-110-81.2c2.3-6.4,3.5-13.1,3.5-19.9V75.7c-0.1-32.7-26.5-59.1-59.2-59.2H60.7
		C28,16.6,1.6,43,1.5,75.7v98.6C1.6,207,28,233.4,60.7,233.5h432.6c14.1,0,27.7-5.1,38.4-14.3L659,275.4z"/>
	<path class="st1" d="M659,274l-110-94.8c2.3-6.4,3.5-13.1,3.5-19.9V60.7c-0.1-32.6-26.5-59.1-59.2-59.2H60.7
		C28,1.6,1.6,28,1.5,60.7v98.6C1.6,192,28,218.4,60.7,218.5h432.6c14.1,0,27.7-5.1,38.4-14.3L659,274z"/>
</g>
</svg>
