<svg xmlns="http://www.w3.org/2000/svg" viewBox="0 0 474.84 186.72">
  <g>
    <path d="M464.36,162.36l-135-65.72V43.85a32.58,32.58,0,0,0-32.49-32.49h-263A32.58,32.58,0,0,0,1.36,43.85v109a32.58,32.58,0,0,0,32.49,32.49h263a32.58,32.58,0,0,0,32.49-32.49V134.09Z" fill="#221714" stroke="#231815" stroke-miterlimit="10" stroke-width="2.72"/>
    <path d="M464.36,152.36l-135-65.72V33.85A32.58,32.58,0,0,0,296.87,1.36h-263A32.58,32.58,0,0,0,1.36,33.85v109a32.58,32.58,0,0,0,32.49,32.49h263a32.58,32.58,0,0,0,32.49-32.49V124.09Z" fill="#fff" stroke="#221714" stroke-miterlimit="10" stroke-width="2.72"/>
  </g>
</svg>
