<svg xmlns="http://www.w3.org/2000/svg" viewBox="0 0 670.76 297.16">
  <g>
    <path d="M659,289,549,194.2a58.67,58.67,0,0,0,3.47-19.9V75.7a59.37,59.37,0,0,0-59.2-59.2H60.7A59.37,59.37,0,0,0,1.5,75.7v98.6a59.37,59.37,0,0,0,59.2,59.2H493.3a58.87,58.87,0,0,0,38.42-14.27Z" fill="#231815" stroke="#231815" stroke-miterlimit="10" stroke-width="3"/>
    <path d="M659,274,549,179.2a58.67,58.67,0,0,0,3.47-19.9V60.7A59.37,59.37,0,0,0,493.3,1.5H60.7A59.37,59.37,0,0,0,1.5,60.7v98.6a59.37,59.37,0,0,0,59.2,59.2H493.3a58.87,58.87,0,0,0,38.42-14.27Z" fill="#fff" stroke="#231815" stroke-miterlimit="10" stroke-width="3"/>
  </g>
</svg>
