<?xml version="1.0" encoding="utf-8"?>
<!-- Generator: Adobe Illustrator 24.3.0, SVG Export Plug-In . SVG Version: 6.00 Build 0)  -->
<svg version="1.1" id="Layer_1" xmlns="http://www.w3.org/2000/svg" xmlns:xlink="http://www.w3.org/1999/xlink" x="0px" y="0px"
	 viewBox="0 0 474.8 186.7" style="enable-background:new 0 0 474.8 186.7;" xml:space="preserve">
<style type="text/css">
	.st0{fill:#221714;stroke:#231815;stroke-width:2.72;stroke-miterlimit:10;}
	.st1{fill:#FFFFFF;stroke:#221714;stroke-width:2.72;stroke-miterlimit:10;}
</style>
<g>
	<path class="st0" d="M464.4,153.1l-135-56.5V43.8c0-17.9-14.6-32.4-32.5-32.5h-263c-17.9,0-32.5,14.6-32.5,32.5v109
		c0,17.9,14.6,32.4,32.5,32.5h263c17.9,0,32.4-14.6,32.5-32.5v-18.8L464.4,153.1z"/>
	<path class="st1" d="M464.4,152.4l-135-65.7V33.8c0-17.9-14.6-32.4-32.5-32.5h-263C15.9,1.4,1.4,15.9,1.4,33.8v109
		c0,17.9,14.6,32.4,32.5,32.5h263c17.9,0,32.4-14.6,32.5-32.5v-18.8L464.4,152.4z"/>
</g>
</svg>
