<svg id="CI" xmlns="http://www.w3.org/2000/svg" viewBox="0 0 317 182.21"><path d="M304.92,54.82a11.85,11.85,0,0,1-12.08-12.08,12.08,12.08,0,1,1,24.16,0A11.85,11.85,0,0,1,304.92,54.82Zm0-22.24a10.15,10.15,0,1,0,10.14,10.16A10,10,0,0,0,304.92,32.58Zm2.71,11.18,2.71,5.32H307.7L305.13,44h-2.55v5.08h-2.23V35.9h5.78c2.35,0,4.32,1.27,4.32,4A3.74,3.74,0,0,1,307.63,43.76Zm-1.58-5.7h-3.47v3.76h3.47c1.21,0,2.1-.55,2.1-1.86A1.87,1.87,0,0,0,306.05,38.06Z" fill="#004186"/><path d="M281,47.65a112,112,0,0,0-183.33,0l-1.07,1.53h26.55l.27-.32c18.1-18.61,41.66-28.5,65.93-28.5s47.8,9.89,65.91,28.5l.27.32H282L281,47.65Z" fill="red" fill-rule="evenodd"/><path d="M86,147l-.49.48c-8.15,8.31-17.59,12.73-27.3,12.73-20.29,0-35-15.28-35-36.24s14.71-36.18,35-36.18c9.71,0,19.15,4.42,27.3,12.74l.49.5L99.1,85.23l-.37-.42C87.9,72,74.89,65.73,58.87,65.73S28.14,71.15,17.56,80.85C6.05,91.46,0,106.31,0,123.93s6.05,32.55,17.56,43.12c10.58,9.77,25.26,15.16,41.31,15.16s29-6.26,39.86-19.08l.37-.36Z" fill="#004186"/><rect x="112.26" y="67.55" width="23.04" height="112.48" fill="#004186"/><path d="M225.56,155.6c-6.12,3.75-11.85,5.63-17,5.63-7.46,0-10.79-3.94-10.79-12.69V88.8h23.44V67.64H197.78v-35l-22.59,12V67.64H155.71V88.8h19.48v63.55c0,17.28,10.24,29.1,25.53,29.42,10.4.21,16.67-2.91,20.46-5.17l.22-.14L227,154.75Z" fill="#004186"/><rect x="244.68" y="67.55" width="23.03" height="112.48" fill="#004186"/></svg>