<svg xmlns="http://www.w3.org/2000/svg" viewBox="0 0 317.383 181.752"><g id="圖層_12" data-name="圖層 12"><path d="M85.945,146.552l-.522.5c-8.137,8.293-17.557,12.676-27.259,12.676-20.252,0-34.952-15.2-34.952-36.166,0-20.936,14.7-36.152,34.952-36.152,9.7,0,19.122,4.4,27.259,12.72l.522.5L98.972,84.882l-.351-.424c-10.829-12.8-23.836-19.03-39.823-19.03-16.03,0-30.7,5.4-41.256,15.129C6.045,91.093,0,105.958,0,123.564s6.045,32.5,17.542,43.045c10.56,9.78,25.226,15.143,41.256,15.143,15.987,0,28.994-6.23,39.823-19.043l.351-.39L85.945,146.552Z" fill="#004186" fill-rule="evenodd"/><polygon points="112.126 179.607 135.138 179.607 135.138 67.252 112.126 67.252 112.126 179.607 112.126 179.607" fill="#004186" fill-rule="evenodd"/><path d="M225.305,155.176c-6.143,3.74-11.857,5.626-16.986,5.626-7.44,0-10.814-3.929-10.814-12.676V88.5h23.456V67.35H197.505V32.388L174.956,44.474V67.35H155.488V88.5h19.468v63.42c0,17.274,10.234,29.092,25.523,29.4,10.375.21,16.621-2.891,20.409-5.158l.243-.156,5.534-21.661-1.36.828Z" fill="#004186" fill-rule="evenodd"/><polygon points="244.358 179.607 267.4 179.607 267.4 67.252 244.358 67.252 244.358 179.607 244.358 179.607" fill="#004186" fill-rule="evenodd"/><path d="M280.827,47.55a111.718,111.718,0,0,0-182.9,0l-1.078,1.531H123.32l.292-.321c18.02-18.6,41.549-28.434,65.741-28.434s47.711,9.834,65.766,28.434l.3.321H281.88l-1.053-1.531Z" fill="#e50012" fill-rule="evenodd"/><path d="M315.438,42.665A10.134,10.134,0,1,1,305.3,32.529,9.943,9.943,0,0,1,315.438,42.665Zm1.945,0a12.077,12.077,0,1,0-24.153,0,12.077,12.077,0,0,0,24.153,0Zm-6.562-2.847c0-2.74-1.97-3.978-4.31-3.978h-5.787V49.013h2.238v-5.08h2.544l2.575,5.08h2.642L308.018,43.7A3.751,3.751,0,0,0,310.821,39.818Zm-2.272.068c0,1.306-.9,1.872-2.107,1.872h-3.48V38.009h3.48A1.864,1.864,0,0,1,308.549,39.886Z" fill="none"/></g></svg>