<svg xmlns="http://www.w3.org/2000/svg" width="180" height="180" viewBox="0 0 180 180">
  <g id="圖層_6" data-name="圖層 6">
    <g>
      <path d="M114.12,137.63a11.43,11.43,0,0,0,3.64,3" fill="none" stroke="#211815" stroke-linecap="round" stroke-linejoin="round" stroke-width="2"/>
      <g>
        <path d="M91.52,92,40.86,76.68a8.72,8.72,0,0,0-4.34-1.22c-8.92,0-16.14,14.74-16.14,32.92S27.6,141.3,36.52,141.3a7.56,7.56,0,0,0,1.06-.08L94.52,137l48,10.3V81.46Z" fill="#e6e6e6" stroke="#211815" stroke-linecap="round" stroke-linejoin="round" stroke-width="2"/>
        <ellipse cx="142.52" cy="114.38" rx="16.14" ry="32.92" fill="#a6a4aa" stroke="#211815" stroke-linecap="round" stroke-linejoin="round" stroke-width="2"/>
        <ellipse cx="145.42" cy="114.38" rx="14.2" ry="28.97" fill="#f2f2f2" stroke="#211815" stroke-linecap="round" stroke-linejoin="round" stroke-width="2"/>
        <path d="M136.06,136a12.24,12.24,0,0,0,5.15,3.66c7.6,2.58,11.42-5.66,13-12,2.31-9,2.53-18.6-.34-27.52a29.24,29.24,0,0,0-4.1-8.64,12.59,12.59,0,0,0-7.64-5.1" fill="none" stroke="#211815" stroke-linecap="round" stroke-linejoin="round" stroke-width="1.96"/>
        <line x1="29.62" y1="103.87" x2="84.79" y2="127.72" fill="#d5d3cc" stroke="#211815" stroke-linecap="round" stroke-linejoin="round" stroke-width="2"/>
        <polyline points="126.38 91.86 84.79 103.87 64.66 88.35" fill="none" stroke="#211815" stroke-linecap="round" stroke-linejoin="round" stroke-width="2"/>
        <line x1="91.52" y1="95" x2="86.52" y2="101" fill="none" stroke="#211815" stroke-linecap="round" stroke-linejoin="round" stroke-width="2"/>
        <line x1="98.52" y1="135" x2="125.52" y2="131" fill="none" stroke="#211815" stroke-linecap="round" stroke-linejoin="round" stroke-width="2"/>
        <path d="M123.5,99.44,83.52,110,37.92,84.92a2.41,2.41,0,0,0-3.25,1,27.11,27.11,0,0,0-3.33,11.18,2.52,2.52,0,0,0,1.53,2.52L82,120.5l40.19-.74a1.13,1.13,0,0,0,1.1-1.28,43.57,43.57,0,0,1,1.55-17.61A1.13,1.13,0,0,0,123.5,99.44Z" fill="#fff"/>
        <path d="M85,69.11a18.76,18.76,0,0,0,3.82,6.73,5.42,5.42,0,0,0,3,2c1.18.15,2.63-.53,3.73-1a27.09,27.09,0,0,0,7.35-4.15" fill="none" stroke="#404040" stroke-linecap="round" stroke-linejoin="round" stroke-width="2.92"/>
        <path d="M112.29,40.81A78.65,78.65,0,0,0,93.53,71.15" fill="none" stroke="#404040" stroke-linecap="round" stroke-linejoin="round" stroke-width="2.92"/>
      </g>
    </g>
  </g>
</svg>
