<svg xmlns="http://www.w3.org/2000/svg" viewBox="0 0 200 200">
  <g>
    <path d="M101.52,97.94,50.86,82.62a8.81,8.81,0,0,0-4.34-1.21c-8.92,0-16.14,14.74-16.14,32.92s7.22,32.91,16.14,32.91a7.56,7.56,0,0,0,1.06-.08l56.94-4.22,48,10.3V87.41Z" fill="#e6e6e6" stroke="#211815" stroke-linecap="round" stroke-linejoin="round" stroke-width="2"/>
    <ellipse cx="152.52" cy="120.33" rx="16.14" ry="32.92" fill="#a6a4aa" stroke="#211815" stroke-linecap="round" stroke-linejoin="round" stroke-width="2"/>
    <ellipse cx="155.42" cy="120.33" rx="14.2" ry="28.97" fill="#f2f2f2" stroke="#211815" stroke-linecap="round" stroke-linejoin="round" stroke-width="2"/>
    <path d="M146.06,142a12.15,12.15,0,0,0,5.15,3.66c7.6,2.58,11.42-5.65,13-12,2.31-9,2.53-18.61-.34-27.52a29.17,29.17,0,0,0-4.1-8.65,12.63,12.63,0,0,0-7.64-5.1" fill="none" stroke="#211815" stroke-linecap="round" stroke-linejoin="round" stroke-width="1.96"/>
    <line x1="39.62" y1="109.81" x2="94.79" y2="133.67" fill="#d5d3cc" stroke="#211815" stroke-linecap="round" stroke-linejoin="round" stroke-width="2"/>
    <polyline points="136.38 97.81 94.79 109.81 74.66 94.29" fill="none" stroke="#211815" stroke-linecap="round" stroke-linejoin="round" stroke-width="2"/>
    <line x1="101.52" y1="100.94" x2="96.52" y2="106.94" fill="none" stroke="#211815" stroke-linecap="round" stroke-linejoin="round" stroke-width="2"/>
    <line x1="108.52" y1="140.94" x2="135.52" y2="136.94" fill="none" stroke="#211815" stroke-linecap="round" stroke-linejoin="round" stroke-width="2"/>
    <path d="M44.89,84.91c-6.6,6.48-9.18,16.07-9.83,25.3-.71,10.19.83,21,7.13,29.1" fill="none" stroke="#211815" stroke-linecap="round" stroke-linejoin="round" stroke-width="2"/>
    <path d="M44.12,141.58a11.4,11.4,0,0,0,3.64,3" fill="none" stroke="#211815" stroke-linecap="round" stroke-linejoin="round" stroke-width="2"/>
    <path d="M133.5,105.38l-40,10.56L47.92,90.87a2.4,2.4,0,0,0-3.25.94A27.19,27.19,0,0,0,41.34,103a2.53,2.53,0,0,0,1.53,2.52L92,126.44l40.19-.74a1.12,1.12,0,0,0,1.1-1.28,43.57,43.57,0,0,1,1.55-17.61A1.13,1.13,0,0,0,133.5,105.38Z" fill="#fff"/>
    <path d="M95,75.05a18.89,18.89,0,0,0,3.82,6.74,5.4,5.4,0,0,0,3,2c1.18.16,2.63-.53,3.73-.94a27.63,27.63,0,0,0,7.35-4.15" fill="none" stroke="#404040" stroke-linecap="round" stroke-linejoin="round" stroke-width="2.92"/>
    <path d="M122.29,46.76a78.54,78.54,0,0,0-18.76,30.33" fill="none" stroke="#404040" stroke-linecap="round" stroke-linejoin="round" stroke-width="2.92"/>
  </g>
</svg>
