<svg xmlns="http://www.w3.org/2000/svg" xmlns:xlink="http://www.w3.org/1999/xlink" viewBox="0 0 68 68">
  <defs>
    <clipPath id="a">
      <rect x="0.81" y="0.35" width="66.51" height="67.49" rx="11.93" fill="none"/>
    </clipPath>
  </defs>
  <g clip-path="url(#a)">
    <g>
      <path d="M0,64.41V3.53C.78.58,2.89,0,5.61,0c14.89.06,29.78,0,44.67,0H63.67c2,0,3.41.82,3.93,2.35a7.14,7.14,0,0,1,.34,2.25Q68,34,68,63.25v.41a3.8,3.8,0,0,1-3.12,4.1,1.41,1.41,0,0,0-.35.21H46.91c0-.41.09-.83.09-1.24V43.51c0-1.39,0-1.39,1.35-1.39,2.23,0,4.46,0,6.69,0,.62,0,.93-.13,1-.84.21-2,.52-4.06.78-6.1.15-1.19.29-2.38.45-3.72H56c-2.68,0-5.36,0-8.05,0-.64,0-1-.14-.95-.86.09-2.34.07-4.67.22-7a3.25,3.25,0,0,1,3.28-3.27c1.95-.14,3.9-.14,5.85-.2h1.27c0-.48.06-.82.06-1.16,0-2.37-.05-4.74,0-7.11,0-1-.37-1.29-1.25-1.31-2.4-.06-4.8-.21-7.2-.21-7.67,0-12.85,5.19-12.88,12.86,0,2.34-.06,4.68,0,7,0,1.05-.34,1.29-1.32,1.26-2.16-.06-4.32,0-6.48,0-.37,0-.74,0-1.15.05V42.12c1.49,0,2.91,0,4.33,0s3,.11,4.45.17c.05,1.45.13,2.9.13,4.36,0,6.69,0,13.38,0,20.08,0,.41.06.83.09,1.24H3.6a4.4,4.4,0,0,1-3-2.13C.38,65.38.23,64.89,0,64.41Z" fill="#0071bc"/>
      <path d="M36.45,68c0-.41-.08-.83-.09-1.24,0-6.7,0-13.39,0-20.08,0-1.46-.08-2.91-.13-4.36-1.48-.06-3-.14-4.45-.17s-2.84,0-4.33,0V31.53c.41,0,.78-.05,1.15-.05,2.16,0,4.32-.05,6.48,0,1,0,1.35-.21,1.32-1.26-.08-2.33,0-4.67,0-7,0-7.67,5.21-12.87,12.88-12.86,2.4,0,4.8.15,7.2.21.88,0,1.28.32,1.25,1.31-.08,2.37,0,4.74,0,7.11,0,.34,0,.68-.06,1.16H56.34c-2,.06-3.9.06-5.85.2a3.25,3.25,0,0,0-3.28,3.27c-.15,2.33-.13,4.66-.22,7,0,.72.31.87.95.86,2.69,0,5.37,0,8.05,0h1.29c-.16,1.34-.3,2.53-.45,3.72-.26,2-.57,4.06-.78,6.1-.08.71-.39.84-1,.84-2.23,0-4.46,0-6.69,0-1.35,0-1.35,0-1.35,1.39V66.73c0,.41-.06.83-.09,1.24Z" fill="#fff"/>
    </g>
  </g>
</svg>
