<svg id="圖層_1" data-name="圖層 1" xmlns="http://www.w3.org/2000/svg" viewBox="0 0 907.95 473.44"><path d="M0,331.61H16.63V316.19c0-18.73,10.4-31.2,31.19-31.2l10.41,2.08v18.72L46.78,303.7c-6.23,0-9.35,4.17-9.35,10.41v17.5h20.8v18.72H37.43v79H16.63v-79H0Z" fill="#d70066"/><path d="M112.18,329.54c27,0,50.95,20.79,50.95,50.94s-23.92,50.95-50.95,50.95-51-20.79-51-50.95,23.92-50.94,51-50.94m0,83.17c19.74,0,30.15-14.55,30.15-32.23s-10.41-32.22-30.15-32.22S82,362.81,82,380.48s10.42,32.23,30.17,32.23" fill="#d70066"/><path d="M223.25,329.54c27,0,51,20.79,51,50.94s-23.92,50.95-51,50.95-50.95-20.79-50.95-50.95,23.93-50.94,50.95-50.94m0,83.17c19.75,0,30.16-14.55,30.16-32.23S243,348.26,223.25,348.26s-30.15,14.55-30.15,32.22,10.4,32.23,30.15,32.23" fill="#d70066"/><path d="M383.22,429.35H364.5L362.42,421l-1.05-1-1,1c-6.25,6.23-16.65,10.39-27,10.39-27.05,0-49.91-20.79-49.91-50.95s22.86-51,49.91-51c10.18,0,20.79,4.16,27,10.42l1,1,1.05-1V285h20.8Zm-48.87-81.1c-19.75,0-30.37,14.55-30.37,32.23s10.62,32.23,30.37,32.23c17.67,0,30.15-14.55,30.15-32.23S352,348.25,334.35,348.25" fill="#d70066"/><path d="M404.07,331.61h18.71l1.89,8.32,1.24,1,1-1c6.24-6.25,16.65-10.39,27-10.39,27,0,49.91,20.79,49.91,50.94S481,431.43,454,431.43c-10.19,0-20.8-4.16-27-10.4l-1-1-1.24,1v52.41h-20.6ZM453,412.71c19.74,0,30.15-14.55,30.15-32.23S472.69,348.26,453,348.26c-17.68,0-30.17,14.55-30.17,32.22s12.49,32.23,30.17,32.23" fill="#d70066"/><path d="M556.29,368.66h17v-4.3c0-11.75-8-17.24-19.2-17.24-9,0-15.06,4.33-18.39,13.13l-18.61-3.92c4.12-16.64,18.41-27.21,37.2-27.21,26.24,0,39.35,12.91,39.35,39v61.27H576.45l-2-12.92c-6.86,9.59-17,14.48-30.54,14.48-17.42,0-30.34-10.37-30.34-30,0-20.16,17-32.3,42.68-32.3m-8.82,44.25a27.16,27.16,0,0,0,18-6.46c5.29-4.51,7.84-10.58,7.84-18.6V385.7H555.5c-12.53,0-20.36,5.87-20.36,15.26,0,7.05,4.32,12,12.33,12" fill="#d70066"/><path d="M612.86,331.61h18.72l2.08,8.32,1,1,1-1c4.16-6.25,14.55-10.39,22.87-10.39,24.95,0,39.51,16.63,39.51,39.5v60.31H677.33V369c-.64-13.3-7.09-20.78-20.81-20.78a23,23,0,0,0-22.86,22v59.05h-20.8Z" fill="#d70066"/><path d="M811.36,429.35H792.64L790.56,421l-1-1-1.06,1c-6.22,6.23-16.63,10.39-27,10.39-27,0-49.92-20.79-49.92-50.95s22.88-51,49.92-51c10.19,0,20.8,4.16,27,10.42l1.06,1,1-1V285h20.8Zm-48.88-81.1c-19.75,0-30.36,14.55-30.36,32.23s10.61,32.23,30.36,32.23c17.68,0,30.16-14.55,30.16-32.23s-12.48-32.23-30.16-32.23" fill="#d70066"/><path d="M870.56,368.66h17v-4.3c0-11.75-8-17.24-19.18-17.24-9,0-15.08,4.33-18.4,13.13l-18.61-3.92c4.13-16.64,18.42-27.21,37.21-27.21,26.22,0,39.34,12.91,39.34,39v61.27H890.73l-2-12.92c-6.86,9.59-17,14.48-30.55,14.48-17.42,0-30.35-10.37-30.35-30,0-20.16,17-32.3,42.68-32.3m-8.81,44.25a27.23,27.23,0,0,0,18-6.46c5.27-4.51,7.81-10.58,7.81-18.6V385.7H869.78c-12.54,0-20.35,5.87-20.35,15.26,0,7.05,4.3,12,12.32,12" fill="#d70066"/><path d="M452.68,167.16c15.24,0,27.52-10.81,27.52-24.21h-55c0,13.4,12.31,24.21,27.48,24.21" fill="#d70066"/><path d="M545.8,51.89a29.55,29.55,0,1,0-44.2-38.3,111.58,111.58,0,0,0-97.26-.05,29.57,29.57,0,1,0-44.26,38.3,112,112,0,1,0,185.72,0M452.93,217.77a103.3,103.3,0,0,1-45-196.28,101.77,101.77,0,0,1,45-10.35,103.32,103.32,0,1,1,0,206.63" fill="#d70066"/><path d="M452.68,136c1.74.46,19.48-5.54,19.48-13.88,0-4.63-14.4-5.56-19.48-5.56s-19.42.93-19.42,5.56c0,8.34,17.72,14.34,19.42,13.88" fill="#d70066"/><path d="M517.84,65.94c-9.73-6.45-31.26-10.25-39.72.86,0,0-10.66,11.39-.21,23.28s18.56,23,21,32.63,6.26,13.57,14,13.62,22.77-11.89,24.66-31-9.93-33-19.69-39.43m-22.3,24.41a5.85,5.85,0,1,1,0-11.69,5.85,5.85,0,0,1,0,11.69" fill="#d70066"/><path d="M427.3,66.8c-8.51-11.11-30-7.31-39.73-.86S366,86.3,367.88,105.37s16.87,31,24.61,31,11.63-4,14.05-13.62,10.52-20.72,21-32.63-.21-23.28-.21-23.28M411.66,90.35a5.85,5.85,0,1,1,5.84-5.85,5.84,5.84,0,0,1-5.84,5.85" fill="#d70066"/></svg>