<svg xmlns="http://www.w3.org/2000/svg" xmlns:xlink="http://www.w3.org/1999/xlink" width="1435" height="763" viewBox="0 0 1435 763">
  <defs>
    <linearGradient id="未命名漸層_3" data-name="未命名漸層 3" x1="1172.27" y1="405.14" x2="1384.97" y2="405.14" gradientUnits="userSpaceOnUse">
      <stop offset="0" stop-color="#fff"/>
      <stop offset="1"/>
    </linearGradient>
    <linearGradient id="未命名漸層_3-2" x1="1835.29" y1="225.07" x2="2109.38" y2="575.57" gradientTransform="matrix(0.75, -0.66, 0.66, 0.75, -1054.63, 1120.16)" xlink:href="#未命名漸層_3"/>
    <linearGradient id="未命名漸層_3-3" x1="1723.94" y1="171.37" x2="2341.56" y2="496.1" gradientTransform="translate(-1356.95 -195.74)" xlink:href="#未命名漸層_3"/>
  </defs>
  <g id="圖層_12" data-name="圖層 12">
    <polygon points="245 190 116 450 406 581 1257.59 435.37 1283 178 245 190" fill="#fff" stroke="#1a1a1a" stroke-linecap="round" stroke-linejoin="round" stroke-width="2"/>
    <polygon points="239 172 110 432 400 563 1251.59 417.37 1277 160 239 172" fill="#fff" stroke="#1a1a1a" stroke-linecap="round" stroke-linejoin="round" stroke-width="2"/>
    <polygon points="233 154 104 414 394 545 1245.59 399.37 1271 142 233 154" fill="#fff" stroke="#1a1a1a" stroke-linecap="round" stroke-linejoin="round" stroke-width="2"/>
    <text transform="matrix(1, -0.08, 0.08, 1, 248.28, 425.45)" font-size="185.09" fill="#ff6a95" stroke="#1a1a1a" stroke-linecap="round" stroke-linejoin="round" stroke-width="2" font-family="Noto Sans CJK TC, Noto Sans CJK TC" font-weight="900" letter-spacing="0.06em">垃圾大考驗</text>
    <g>
      <path d="M60,318.49C48.9,324.56,69.44,383.42,105.87,450s74.94,115.54,86,109.47l14.22-7.78-8.81-4.3c1-39-90.8-206.73-124.23-226.9l1.13-9.73-11.3,6.18Z" fill="#f8f8f8" stroke="#040204" stroke-linecap="round" stroke-linejoin="round" stroke-width="2"/>
      <ellipse cx="139.61" cy="431.48" rx="22.89" ry="137.34" transform="translate(-190.05 120.05) rotate(-28.7)" fill="#f8f8f8" stroke="#040204" stroke-miterlimit="10" stroke-width="2"/>
      <path d="M159.89,465.57c-3,1.66-11.73-8.39-19.43-22.45S129,416.31,132,414.65s11.73,8.39,19.43,22.45S162.92,463.91,159.89,465.57Z" fill="#d6d6d6" stroke="#040204" stroke-miterlimit="10" stroke-width="2"/>
      <path d="M96.74,341.89c-2.1-1-4.43-1.68-6.55-1.11-3.1.83-5,4.64-3.89,7.94a69.64,69.64,0,0,1-7.22-21.79,7.3,7.3,0,0,1,0-2.83,2.22,2.22,0,0,1,1.79-1.78,3.46,3.46,0,0,1,1.85.55c10.4,5.53,18.57,16.49,24.23,26.93C103.7,346.69,100.83,343.79,96.74,341.89Z" fill="#fff"/>
      <path d="M107.94,348.73a190.66,190.66,0,0,0-15.75-18.66c-1.69-1.73-11.33-12.38-13.34-6.54-.84,2.46.16,6.6.76,9a64.63,64.63,0,0,0,3.19,9" fill="none" stroke="#040204" stroke-linecap="round" stroke-linejoin="round" stroke-width="2"/>
      <path d="M170.43,509.92a65.43,65.43,0,0,0,17.23,16.34c1.92,1.24,4.24,2.41,6.25,1.6a4.82,4.82,0,0,0,2.62-3.64,15.21,15.21,0,0,0-.09-4.85,33.76,33.76,0,0,1,5.81,18.77,4.46,4.46,0,0,1-.39,2.19,2.82,2.82,0,0,1-2.9,1.22,7.37,7.37,0,0,1-3.11-1.47,45.6,45.6,0,0,1-7.72-7.74c-5.26-6.19-10.52-12.38-15.46-18.84" fill="#fff"/>
      <path d="M197.15,519s9.74,22,2.57,22.47c0,0-6.52,1.7-29.2-31.27" fill="none" stroke="#040204" stroke-linecap="round" stroke-linejoin="round" stroke-width="2"/>
    </g>
    <g>
      <path d="M1238.91,369.09l-.33,29.93,97.63,39.63a1.64,1.64,0,0,1-1.23,3l-98.65-40a1.65,1.65,0,0,1-1-1.52V370.4" fill="#f4474d" stroke="#000" stroke-linecap="round" stroke-linejoin="round" stroke-width="1.79"/>
      <g>
        <polygon points="1290.01 369.42 1290.19 384.77 1174.56 431.48 1173.25 415.48 1290.01 369.42" fill="#ead4c7" stroke="#000" stroke-linecap="round" stroke-linejoin="round" stroke-width="1.79"/>
        <polygon points="1290.01 369.42 1290.19 384.77 1383.29 418.09 1384.27 402.74 1290.01 369.42" fill="#ead4c7" stroke="#000" stroke-linecap="round" stroke-linejoin="round" stroke-width="1.79"/>
        <polygon points="1383.29 418.09 1267.98 471.01 1174.56 431.48 1290.19 384.77 1383.29 418.09" fill="#f7e5da" stroke="#000" stroke-linecap="round" stroke-linejoin="round" stroke-width="1.79"/>
        <polygon points="1172.27 400.45 1289.87 355.37 1384.97 387.82 1267.84 438.66 1172.27 400.45" fill="none" stroke="#000" stroke-linecap="round" stroke-linejoin="round" stroke-width="1.79" stroke-dasharray="3.92"/>
        <polygon points="1173.25 415.48 1174.23 431.48 1267.98 471.11 1267.98 455 1173.25 415.48" fill="#fff9f5" stroke="#000" stroke-linecap="round" stroke-linejoin="round" stroke-width="1.79"/>
        <polygon points="1267.98 455 1384.27 402.74 1383.29 418.09 1267.98 471.11 1267.98 455" fill="#fff9f5" stroke="#000" stroke-linecap="round" stroke-linejoin="round" stroke-width="1.79"/>
        <polygon points="1384.27 402.74 1267.98 454.9 1173.25 415.48 1290.01 369.42 1384.27 402.74" fill="none" stroke="#000" stroke-linecap="round" stroke-linejoin="round" stroke-width="1.79"/>
        <line x1="1289.87" y1="355.37" x2="1290.01" y2="369.42" fill="#f7e5da" stroke-dasharray="3.92" stroke-linecap="round" stroke-linejoin="round" stroke-width="1.79" stroke="#000"/>
        <line x1="1173.25" y1="415.48" x2="1172.27" y2="400.45" fill="#fff9f5" stroke-dasharray="3.92" stroke-linecap="round" stroke-linejoin="round" stroke-width="1.79" stroke="#000"/>
        <line x1="1267.98" y1="454.91" x2="1267.84" y2="438.66" fill="#fff9f5" stroke-dasharray="3.92" stroke-linecap="round" stroke-linejoin="round" stroke-width="1.79" stroke="#000"/>
        <polyline points="1384.97 387.82 1384.27 402.74 1267.98 454.9 1173.25 415.48 1172.27 400.45 1289.87 355.37 1384.97 387.82" opacity="0.2" fill="url(#未命名漸層_3)"/>
        <line x1="1293.79" y1="361.9" x2="1349.32" y2="381.18" fill="none" stroke="#fff" stroke-linecap="round" stroke-linejoin="round" stroke-width="1.79"/>
        <line x1="1353.73" y1="382.65" x2="1358.63" y2="384.28" fill="none" stroke="#fff" stroke-linecap="round" stroke-linejoin="round" stroke-width="1.79"/>
      </g>
      <g>
        <polygon points="1172.27 400.45 1173.25 415.48 1267.98 455 1267.84 438.66 1172.27 400.45" fill="#fff9f5" stroke="#000" stroke-linecap="round" stroke-linejoin="round" stroke-width="1.79"/>
        <polygon points="1267.84 438.66 1384.97 387.82 1384.27 402.74 1267.98 455 1267.84 438.66" fill="#fff9f5" stroke="#000" stroke-linecap="round" stroke-linejoin="round" stroke-width="1.79"/>
        <polygon points="1172.27 400.45 1289.87 355.37 1384.97 387.82 1267.84 438.66 1172.27 400.45" fill="#f7e5da" stroke="#000" stroke-linecap="round" stroke-linejoin="round" stroke-width="1.79"/>
        <polygon points="1179.78 400.12 1289.87 357.99 1378.06 388.04 1267.98 435.4 1179.78 400.12" fill="#f7e5da" stroke="#000" stroke-linecap="round" stroke-linejoin="round" stroke-width="1.79"/>
        <polyline points="1289.87 357.99 1289.87 380.37 1346.05 401.76" fill="none" stroke="#000" stroke-linecap="round" stroke-linejoin="round" stroke-width="1.79"/>
        <line x1="1289.87" y1="380.37" x2="1211.36" y2="412.75" fill="none" stroke="#000" stroke-linecap="round" stroke-linejoin="round" stroke-width="1.79"/>
        <polygon points="1310.42 417.14 1254.26 395.06 1254.26 373.34 1257.53 372.03 1340.73 404.1 1310.42 417.14" fill="#f7e5da" stroke="#000" stroke-linecap="round" stroke-linejoin="round" stroke-width="1.79"/>
        <line x1="1254.26" y1="373.34" x2="1336.78" y2="405.8" fill="#f7e5da" stroke="#000" stroke-linecap="round" stroke-linejoin="round" stroke-width="1.79"/>
        <polygon points="1303.91 390 1337.88 374.32 1341.83 375.69 1308.03 391.5 1303.91 390" fill="#f7e5da" stroke="#000" stroke-linecap="round" stroke-linejoin="round" stroke-width="1.79"/>
        <polygon points="1341.83 375.69 1341.83 400.04 1336.58 402.41 1308.03 391.5 1341.83 375.69" fill="#f7e5da" stroke="#000" stroke-linecap="round" stroke-linejoin="round" stroke-width="1.79"/>
      </g>
      <g>
        <polygon points="1172.27 396.86 1289.87 351.78 1384.97 384.23 1267.84 435.07 1172.27 396.86" fill="#fed258" stroke="#000" stroke-linecap="round" stroke-linejoin="round" stroke-width="1.79"/>
        <polygon points="1172.27 396.86 1170.96 414.82 1260.47 454.02 1267.84 435.07 1172.27 396.86" fill="#fed258" stroke="#000" stroke-linecap="round" stroke-linejoin="round" stroke-width="1.79"/>
        <polygon points="1267.84 435.07 1275.17 454.02 1386.56 403.72 1384.97 384.23 1267.84 435.07" fill="#fed258" stroke="#000" stroke-linecap="round" stroke-linejoin="round" stroke-width="1.79"/>
        <path d="M1206.5,397.34l18.88,7.5a1.22,1.22,0,0,0,.92,0l84.37-34.19a1.23,1.23,0,0,0-.06-2.3l-19.34-6.62a1.19,1.19,0,0,0-.85,0l-83.92,33.31A1.23,1.23,0,0,0,1206.5,397.34Z" fill="#fff9f5" stroke="#000" stroke-linecap="round" stroke-linejoin="round" stroke-width="1.79"/>
        <line x1="1344.74" y1="373.86" x2="1376.76" y2="384.77" fill="#fed258" stroke="#000" stroke-linecap="round" stroke-linejoin="round" stroke-width="1.79"/>
      </g>
      <path d="M1338.35,440.62l-2.62,1.18a.23.23,0,0,1-.33-.21V416.85c0-2.34-.23-4.6-.43-6.92-.13-1.59-2.46-2.13-3.68-2.6l-6.2-2.37L1306,397.67l-23.44-9L1259.71,380l-17.34-6.63-6.89-2.64a.22.22,0,0,1,0-.42l3.52-1.47a.25.25,0,0,1,.17,0l7.1,2.71,17.8,6.8,23.31,8.91,23.61,9,18.7,7.14,4.88,1.87c4.6,1.76,3.94,6.13,3.93,10.34q0,7,0,14.07v10.74A.23.23,0,0,1,1338.35,440.62Z" fill="#f4474d" stroke="#000" stroke-linecap="round" stroke-linejoin="round" stroke-width="1.79"/>
    </g>
    <g>
      <polygon points="564.58 482.01 516.83 532.61 639.49 568.89 681.53 515.27 564.58 482.01" fill="#fff9f5" stroke="#000" stroke-linecap="round" stroke-linejoin="round" stroke-width="2.22"/>
      <polygon points="681.53 515.27 700.93 565.13 639.49 568.89 681.53 515.27" fill="#efc1a8" stroke="#000" stroke-linecap="round" stroke-linejoin="round" stroke-width="2.22"/>
      <polygon points="594.89 732.89 473.35 692.53 516.83 532.61 639.49 568.89 594.89 732.89" fill="#fff9f5" stroke="#000" stroke-linecap="round" stroke-linejoin="round" stroke-width="2.22"/>
      <polygon points="594.89 732.89 658.93 719.61 700.93 565.13 639.49 568.89 594.89 732.89" fill="#ffd9c0" stroke="#000" stroke-linecap="round" stroke-linejoin="round" stroke-width="2.22"/>
      <path d="M681.53,515.27l4.55-16.72a6.66,6.66,0,0,0-4.67-8.16L576.91,462a6.64,6.64,0,0,0-8.15,4.67L564.58,482Z" fill="#fff9f5" stroke="#000" stroke-linecap="round" stroke-linejoin="round" stroke-width="2.22"/>
      <line x1="679.13" y1="527.05" x2="693.32" y2="560.87" fill="#ffd9c0" stroke="#000" stroke-linecap="round" stroke-linejoin="round" stroke-width="2.22"/>
      <line x1="693.27" y1="571.82" x2="654.41" y2="714.73" fill="#ffd9c0" stroke="#000" stroke-linecap="round" stroke-linejoin="round" stroke-width="2.22"/>
      <g>
        <path d="M609.05,515.65l-5-13.5-35.14,13.14,5,13.5,1,2.67c1.89,5,11.29,6.19,21,2.56s16-10.66,14.16-15.71Z" fill="#ffd9c0" stroke="#000" stroke-linecap="round" stroke-linejoin="round" stroke-width="2.22"/>
        <ellipse cx="586.69" cy="509.42" rx="18.76" ry="9.76" transform="matrix(0.94, -0.35, 0.35, 0.94, -141.27, 237.79)" stroke-width="2.22" stroke="#000" stroke-linecap="round" stroke-linejoin="round" fill="#fff9f5"/>
        <line x1="603.46" y1="513.56" x2="606.39" y2="521.4" fill="#fdf0e7" stroke="#000" stroke-linecap="round" stroke-linejoin="round" stroke-width="2.22"/>
        <line x1="599.33" y1="517.51" x2="602.26" y2="525.35" fill="#fdf0e7" stroke="#000" stroke-linecap="round" stroke-linejoin="round" stroke-width="2.22"/>
        <line x1="594.94" y1="520.76" x2="597.87" y2="528.6" fill="#fdf0e7" stroke="#000" stroke-linecap="round" stroke-linejoin="round" stroke-width="2.22"/>
        <path d="M597.55,502.07a2.42,2.42,0,0,1,2.57,1.44,3.68,3.68,0,0,1-.18,3.09,8.32,8.32,0,0,1-2,2.44A21.16,21.16,0,0,1,593.6,512" fill="none" stroke="#000" stroke-linecap="round" stroke-linejoin="round" stroke-width="2.22"/>
        <path d="M572.82,512a3,3,0,0,0-.38,2.09,2.62,2.62,0,0,0,1.83,1.43,11.45,11.45,0,0,0,6.38.23" fill="none" stroke="#000" stroke-linecap="round" stroke-linejoin="round" stroke-width="2.22"/>
      </g>
      <line x1="622.32" y1="494.06" x2="674.54" y2="508.99" fill="#ffd9c0" stroke="#000" stroke-linecap="round" stroke-linejoin="round" stroke-width="2.22"/>
      <line x1="661.25" y1="518.9" x2="632.02" y2="555.16" fill="#fff" opacity="0.59" stroke-linecap="round" stroke-linejoin="round" stroke-width="2.22" stroke="#fff"/>
      <polyline points="490.54 684.42 587.97 717.15 626.27 576.32" fill="none" stroke="#fff" stroke-linecap="round" stroke-linejoin="round" stroke-width="2.22" opacity="0.59"/>
      <polyline points="492.51 622.06 614.5 660.78 677.99 649.51" fill="none" stroke="#000" stroke-linecap="round" stroke-linejoin="round" stroke-width="2.22"/>
    </g>
    <g>
      <g>
        <path d="M604.63,64.46c-4.74-5.36-26.13,5.8-47.78,24.92s-35.36,39-30.63,44.34a3.83,3.83,0,0,0,.29.28L560,168.81c4.54,5.15,25-3.86,45.74-22.21s34-39.11,29.5-44.26L604.87,64.77Z" fill="#d1953f" stroke="#000" stroke-linecap="round" stroke-linejoin="round" stroke-width="2"/>
        <path d="M605.78,146.6c20.78-18.36,34-39.11,29.5-44.26L609.14,70.05c-6.44-3-26.4,8-46.59,25.79s-33.46,36.29-31.33,43L560,168.81C564.58,174,585,165,605.78,146.6Z" fill="#b77e34"/>
        <path d="M604.63,64.46c-4.74-5.36-26.13,5.8-47.78,24.92s-35.36,39-30.63,44.34a3.83,3.83,0,0,0,.29.28L560,168.81c4.54,5.15,25-3.86,45.74-22.21s34-39.11,29.5-44.26L604.87,64.77Z" fill="none" stroke="#000" stroke-linecap="round" stroke-linejoin="round" stroke-width="2"/>
      </g>
      <g>
        <path d="M574,28.84l-.16.14c2.24,7.58-11,26.64-31.43,44.71-19.83,17.52-39.74,28.16-47.53,25.92l-.23.2,53.84,51.88a1.48,1.48,0,0,0,.26.46,1.59,1.59,0,0,0,.65.42l.24.23.34-.1c5.27.68,22.91-9.31,40.85-25.16,19.8-17.48,32.46-35.49,29.61-38.72l-.1-.1Z" opacity="0.4" fill="url(#未命名漸層_3-2)"/>
        <line x1="620.59" y1="89.07" x2="573.98" y2="28.84" fill="none" stroke-dasharray="6.46" stroke-linecap="round" stroke-linejoin="round" stroke-width="2" stroke="#000"/>
        <line x1="494.63" y1="99.81" x2="549.62" y2="152.8" fill="none" stroke-dasharray="6.46" stroke-linecap="round" stroke-linejoin="round" stroke-width="2" stroke="#000"/>
        <ellipse cx="532.77" cy="62.79" rx="53.57" ry="14.54" transform="translate(91.92 368.46) rotate(-41.46)" fill="none" stroke-dasharray="6.46" stroke-linecap="round" stroke-linejoin="round" stroke-width="2" stroke="#000"/>
        <ellipse cx="532.77" cy="62.79" rx="53.57" ry="14.54" transform="translate(91.92 368.46) rotate(-41.46)" opacity="0.4" fill="url(#未命名漸層_3-3)"/>
      </g>
      <path d="M550.51,153.81c9.81-2.67,25-12.05,40.19-25.45,16-14.15,27.59-28.91,30.78-38.28L573.74,28.4l-80,70.68Z" fill="#fff9f5" stroke="#000" stroke-linecap="round" stroke-linejoin="round" stroke-width="2"/>
      <path d="M606,113.25c7.94-8.89,13.46-17.14,15.51-23.17L573.74,28.4l-20.3,17.93Z" fill="#f4d1a1" opacity="0.3"/>
      <path d="M550.51,153.81c9.81-2.67,25-12.05,40.19-25.45,16-14.15,27.59-28.91,30.78-38.28L573.74,28.4l-80,70.68Z" fill="none" stroke="#000" stroke-linecap="round" stroke-linejoin="round" stroke-width="2"/>
      <path d="M589.45,127c-15.16,13.4-30.38,22.78-40.18,25.45l48.8,47,1.83,1.91c3.86,4.38,21.29-4.71,38.93-20.29s28.8-31.76,24.94-36.13l-1.63-2.1-41.9-54.14C617,98,605.47,112.8,589.45,127Z" fill="#fff9f5" stroke="#000" stroke-linecap="round" stroke-linejoin="round" stroke-width="2"/>
      <path d="M620.24,88.67c-2,6-7.55,14.23-15.44,23.09l45.57,58c10.61-11.48,16.32-21.57,13.4-24.89l-1.63-2.1Z" fill="#f4d1a1" opacity="0.3"/>
      <path d="M589.45,127c-15.16,13.4-30.38,22.78-40.18,25.45l48.8,47,1.83,1.91c3.86,4.38,21.29-4.71,38.93-20.29s28.8-31.76,24.94-36.13l-1.63-2.1-41.9-54.14C617,98,605.47,112.8,589.45,127Z" fill="none" stroke="#000" stroke-linecap="round" stroke-linejoin="round" stroke-width="2"/>
      <path d="M620.42,88.82c2.85,3.23-9.81,21.24-29.61,38.72s-39.22,27.84-42.08,24.61,10.88-20,30.68-37.52S617.56,85.58,620.42,88.82Z" fill="#fff9f5" stroke="#000" stroke-linecap="round" stroke-linejoin="round" stroke-width="2"/>
      <ellipse cx="534.02" cy="64.2" rx="53.57" ry="14.54" transform="translate(91.3 369.64) rotate(-41.46)" stroke-width="2" stroke="#000" stroke-linecap="round" stroke-linejoin="round" fill="#efc1a8"/>
      <path d="M545.07,76.71C534.2,86.31,523,94.2,513.39,98.92c-10.51,5.19-17.82,5.94-21.14,2.18S490.58,90.18,497,80.4c5.87-8.91,15.08-19.11,26-28.7s22.11-17.49,31.68-22.21c10.5-5.19,17.81-5.94,21.13-2.18S577.45,38.23,571,48C565.14,56.92,555.93,67.12,545.07,76.71ZM525.82,54.92c-10.59,9.36-19.54,19.24-25.2,27.85-5.93,9-6.48,14-5.14,15.48s6.33,1.58,16-3.19c9.23-4.56,20.15-12.22,30.74-21.57s19.53-19.24,25.19-27.85c5.94-9,6.48-14,5.14-15.48s-6.32-1.58-16,3.19C547.32,37.91,536.4,45.57,525.82,54.92Z" fill="#fff9f5" stroke="#000" stroke-linecap="round" stroke-linejoin="round" stroke-width="2"/>
      <g>
        <path d="M578.72,26.81,568.53,22.5c-4.83-5.47-26.66,5.92-48.76,25.44s-36.09,39.78-31.25,45.25l3,10.64a5,5,0,0,0,1.06,3.73c5.41,6.13,29.89-6.64,54.66-28.52s40.45-44.59,35-50.73A5.05,5.05,0,0,0,578.72,26.81Z" fill="#4f4f4f" stroke="#000" stroke-linecap="round" stroke-linejoin="round" stroke-width="2"/>
        <path d="M497.12,103.62S506.94,105,535,83.08A172.87,172.87,0,0,0,552.77,67.4c25.12-25.22,25.06-35.07,25.06-35.07" fill="none" stroke="#000" stroke-linecap="round" stroke-linejoin="round" stroke-width="2"/>
        <path d="M532.89,64.41c14.37-12.7,25.35-25.56,29.72-34.13.93-1.82-.26-3.59-2.2-3.23-7.3,1.34-22.6,11.17-38.48,25.2C506.2,66.15,494.62,80,492.24,87.13c-.63,1.89,1,3.33,2.89,2.65C504.16,86.57,518.39,77.21,532.89,64.41Z" fill="#666"/>
        <path d="M565.77,25.26s.74,8.7-32.41,38l-.08.06c-33.14,29.28-41.69,27.48-41.69,27.48" fill="none" stroke="#000" stroke-linecap="round" stroke-linejoin="round" stroke-width="2"/>
        <path d="M578.72,26.81,568.53,22.5c-4.83-5.47-26.66,5.92-48.76,25.44s-36.09,39.78-31.25,45.25l3,10.64a5,5,0,0,0,1.06,3.73c5.41,6.13,29.89-6.64,54.66-28.52s40.45-44.59,35-50.73A5.05,5.05,0,0,0,578.72,26.81Z" fill="none" stroke="#000" stroke-linecap="round" stroke-linejoin="round" stroke-width="2"/>
        <path d="M492.34,89.15s-.08-12.61,30.38-38.3" fill="none" stroke="#000" stroke-linecap="round" stroke-linejoin="round" stroke-width="2"/>
        <path d="M551.66,31.73l-5.44-6.16a1.86,1.86,0,0,0-2.38-.36L537.61,29a1.87,1.87,0,0,0-.85,2l3.3,8.68" fill="gray" stroke="#000" stroke-miterlimit="10" stroke-width="2"/>
        <polyline points="547.89 35.07 544.33 28.5 544.85 26.55" fill="none" stroke="#000" stroke-linecap="round" stroke-linejoin="round" stroke-width="2"/>
        <line x1="538.97" y1="31.74" x2="544.33" y2="28.5" fill="#fff9f5" stroke="#000" stroke-linecap="round" stroke-linejoin="round" stroke-width="2"/>
      </g>
      <g>
        <path d="M574.81,109.71c-21.31,18.83-42.93,29.3-48.1,24.53l33.69,35c4.54,5.14,25-3.86,45.74-22.22s34-39.11,29.5-44.25L605.09,65C609.18,70.72,597.13,90,574.81,109.71Z" fill="#fed258" stroke="#000" stroke-linecap="round" stroke-linejoin="round" stroke-width="2"/>
        <line x1="607.57" y1="78.81" x2="630.92" y2="107.2" fill="#fed258" stroke="#000" stroke-linecap="round" stroke-linejoin="round" stroke-width="2"/>
        <line x1="603.63" y1="86.48" x2="627.05" y2="114.21" fill="#fed258" stroke="#000" stroke-linecap="round" stroke-linejoin="round" stroke-width="2"/>
        <line x1="599.01" y1="93.4" x2="623.15" y2="121.41" fill="#fed258" stroke="#000" stroke-linecap="round" stroke-linejoin="round" stroke-width="2"/>
      </g>
      <path d="M633.89,179.53a24.39,24.39,0,0,0,4.42-3.46" fill="none" stroke="#000" stroke-linecap="round" stroke-linejoin="round" stroke-width="2"/>
      <path d="M640.77,173.87s13.86-12.18,19.76-27.45" fill="none" stroke="#000" stroke-linecap="round" stroke-linejoin="round" stroke-width="2"/>
    </g>
    <g>
      <path d="M1288.84,173.2,1161.63,57.84l0,0c-1-.32-3.78,1.78-6.44,5s-4.28,6.32-3.83,7.32l0,0,127.22,115.37Z" fill="#69d7e2" stroke="#040204" stroke-linecap="round" stroke-linejoin="round" stroke-width="2"/>
      <path d="M1155.22,62.72c-2.51,3.07-4,6-3.58,7l0,0,127.3,115.44,3.5-4.19Z" fill="#49bec4" opacity="0.59"/>
      <path d="M1288.84,173.2,1161.63,57.84l0,0c-1-.32-3.78,1.78-6.44,5s-4.28,6.32-3.83,7.32l0,0,127.22,115.37Z" fill="none" stroke="#040204" stroke-linecap="round" stroke-linejoin="round" stroke-width="2"/>
      <ellipse cx="1283.55" cy="179.27" rx="8.06" ry="1.98" transform="translate(325.09 1051.61) rotate(-50.26)" fill="#49bec4" stroke="#040204" stroke-miterlimit="10" stroke-width="2"/>
      <path d="M1279.74,183.83c-.5-.46.8-2.87,2.9-5.39s4.21-4.18,4.72-3.73-.8,2.87-2.9,5.39S1280.24,184.28,1279.74,183.83Z" fill="#379393"/>
    </g>
  </g>
</svg>
