<svg xmlns="http://www.w3.org/2000/svg" width="976" height="845.88" viewBox="0 0 976 845.88">
    <defs>
        <style>
            .cls-1{fill:none;stroke:#fec332;stroke-linejoin:round;stroke-width:30px}
        </style>
    </defs>
    <g id="Group_751" transform="translate(281 153)">
        <g id="Group_750">
            <g id="Group_745" transform="translate(-280.83 -153.156)">
                <path id="Line_553" d="M0 0L0 488" class="cls-1" transform="translate(487.83 .156)"/>
                <path id="Line_554" d="M0 0L186.684 450.696" class="cls-1" transform="translate(301.145 37.134)"/>
                <path id="Line_555" d="M0 0L344.948 344.948" class="cls-1" transform="translate(142.882 142.882)"/>
                <path id="Line_556" d="M0 0L450.696 186.684" class="cls-1" transform="translate(37.134 301.146)"/>
                <path id="Line_557" d="M0 0L488 0" class="cls-1" transform="translate(-.17 488.156)"/>
                <path id="Line_565" d="M488 0L0 0" class="cls-1" transform="translate(487.83 488.156)"/>
                <path id="Line_566" d="M450.696 0L0 186.684" class="cls-1" transform="translate(487.83 301.146)"/>
                <path id="Line_567" d="M344.948 0L0 344.948" class="cls-1" transform="translate(487.83 142.882)"/>
                <path id="Line_568" d="M186.684 0L0 450.696" class="cls-1" transform="translate(487.83 37.134)"/>
            </g>
            <path id="Line_555-2" d="M0 344.948L344.948 0" class="cls-1" transform="translate(-137.947 337.326)"/>
            <path id="Line_556-2" d="M0 186.684L450.696 0" class="cls-1" transform="translate(-243.697 337.326)"/>
            <path id="Line_566-2" d="M450.696 186.684L0 0" class="cls-1" transform="translate(207 337.326)"/>
            <path id="Line_567-2" d="M344.948 344.948L0 0" class="cls-1" transform="translate(207 337.326)"/>
        </g>
    </g>
</svg>
