<svg xmlns="http://www.w3.org/2000/svg" viewBox="0 0 2607.09 2607.09">
  <g opacity="0.55">
    <polygon points="1303.54 1303.54 834.26 2535.68 1105.61 2607.09 1303.54 1303.54" fill="#fff"/>
    <polygon points="1303.54 1303.54 1513.2 2605.25 1783.9 2531.41 1303.54 1303.54" fill="#fff"/>
    <polygon points="1303.54 1303.54 2135.97 2326.03 2333.48 2126.73 1303.54 1303.54" fill="#fff"/>
    <polygon points="1303.54 1303.54 2535.68 1772.83 2607.09 1501.48 1303.54 1303.54" fill="#fff"/>
    <polygon points="1303.54 1303.54 2605.25 1093.89 2531.41 823.19 1303.54 1303.54" fill="#fff"/>
    <polygon points="1303.54 1303.54 2326.03 471.12 2126.73 273.61 1303.54 1303.54" fill="#fff"/>
    <polygon points="1303.54 1303.54 1772.83 71.4 1501.48 0 1303.54 1303.54" fill="#fff"/>
    <polygon points="1303.54 1303.54 1093.89 1.83 823.19 75.67 1303.54 1303.54" fill="#fff"/>
    <polygon points="1303.54 1303.54 471.12 281.06 273.61 480.36 1303.54 1303.54" fill="#fff"/>
    <polygon points="1303.54 1303.54 71.4 834.26 0 1105.61 1303.54 1303.54" fill="#fff"/>
    <polygon points="1303.54 1303.54 1.83 1513.2 75.67 1783.9 1303.54 1303.54" fill="#fff"/>
    <polygon points="1303.54 1303.54 281.06 2135.97 480.36 2333.48 1303.54 1303.54" fill="#fff"/>
  </g>
</svg>
