<svg xmlns="http://www.w3.org/2000/svg" width="133.483" height="142.003" viewBox="0 0 133.483 142.003">
    <defs>
        <style>
            .cls-1{fill:#fbb03b}.cls-2{fill:none;stroke:#fbb03b;stroke-width:4px;stroke-dasharray:14}.cls-3{opacity:.3}.cls-4{fill:#f9cfb3;stroke:#231815;stroke-miterlimit:10;stroke-width:3px}
        </style>
    </defs>
    <g id="Group_689" transform="translate(-140.157 -286.236)">
        <g id="Group_685" transform="rotate(3 33623.343 -282191.913)">
            <path id="Path_35345" d="M1077 589.232l20.35-11.749v23.5z" class="cls-1" transform="rotate(-20 11175.65 -38267.427)"/>
            <path id="Path_35347" d="M14993.861 1698.541s53.612-22.208 100.48 0" class="cls-2" transform="translate(-.314 -4.992)"/>
        </g>
        <g id="Group_686" class="cls-3" transform="rotate(-2 8357.807 -4173.837)">
            <path id="Path_35345-2" d="M0 11.749L20.35 23.5V0z" class="cls-1" transform="rotate(-160 59.674 4.45)"/>
            <path id="Path_35347-2" d="M15094.342 1698.541s-53.612-22.208-100.48 0" class="cls-2" transform="translate(-14993.861 -1686.822)"/>
        </g>
        <g id="Group_687" class="cls-3" transform="rotate(6.02 -3237.523 1888.38)">
            <path id="Path_35344" d="M710.93 649.881a5.731 5.731 0 0 1 2.135 7.443l2.793-4.59a5.713 5.713 0 0 1 9.987 5.532l.6-.982a5.713 5.713 0 0 1 9.986 5.532L747.39 644.8a5.714 5.714 0 1 1 9.762 5.941l-14.423 23.7a.623.623 0 0 1-.085.259l-8.993 14.777 15.977-6.693a5.731 5.731 0 0 1 7.478 3.062 5.731 5.731 0 0 1-3.062 7.478l-35.62 14.924a.506.506 0 0 1-.188.038 22.9 22.9 0 0 1-22.3-.795 22.922 22.922 0 0 1-7.643-31.406l6.2-10.186 5.037-8.277 3.551-5.836a5.731 5.731 0 0 1 7.849-1.905z" class="cls-4" transform="translate(-684.98 -642.066)"/>
            <path id="Line_503" d="M9.492 0L0 15.598" class="cls-4" transform="translate(42.026 20.756)"/>
            <path id="Line_504" d="M8.653 0L0 14.219" class="cls-4" transform="translate(32.264 16.195)"/>
            <path id="Line_505" d="M5.618 0L0 9.231" class="cls-4" transform="translate(22.502 15.241)"/>
        </g>
        <g id="Group_688" transform="rotate(-4.01 -3657.63 7726.298)">
            <path id="Path_35344-2" d="M732.029 649.881a5.731 5.731 0 0 0-2.135 7.443l-2.793-4.59a5.713 5.713 0 0 0-9.987 5.532l-.6-.982a5.713 5.713 0 0 0-9.986 5.532L695.57 644.8a5.714 5.714 0 1 0-9.762 5.941l14.423 23.7a.623.623 0 0 0 .085.259l8.993 14.777-15.976-6.693a5.731 5.731 0 0 0-7.478 3.062 5.731 5.731 0 0 0 3.062 7.478l35.62 14.924a.506.506 0 0 0 .188.038 22.9 22.9 0 0 0 22.3-.795 22.922 22.922 0 0 0 7.643-31.406l-6.2-10.186-5.037-8.277-3.551-5.836a5.731 5.731 0 0 0-7.851-1.905z" class="cls-4"/>
            <path id="Line_503-2" d="M0 0L9.492 15.598" class="cls-4" transform="translate(706.462 662.822)"/>
            <path id="Line_504-2" d="M0 0L8.653 14.219" class="cls-4" transform="translate(717.063 658.261)"/>
            <path id="Line_505-2" d="M0 0L5.618 9.231" class="cls-4" transform="translate(729.86 657.307)"/>
        </g>
    </g>
</svg>
