<svg xmlns="http://www.w3.org/2000/svg" viewBox="0 0 68 68">
  <g>
    <path d="M58.89,31.7c0-.67,0-1.7-.17-2.72a17.61,17.61,0,0,0-5.14-10,24.91,24.91,0,0,0-12.4-6.79,29.46,29.46,0,0,0-21.84,2.92,21.11,21.11,0,0,0-7.7,7.23A16.16,16.16,0,0,0,9.92,36.61a19.6,19.6,0,0,0,8,10,28.78,28.78,0,0,0,12.2,4.43c1.52.23,2.1.9,2,2.44,0,.92-.23,1.84-.34,2.77-.2,1.58.32,2,1.84,1.48a7.3,7.3,0,0,0,.82-.31,41.93,41.93,0,0,0,8.34-5.07C46,50,49.11,47.48,52.13,44.91A18,18,0,0,0,58.89,31.7Z" fill="#fff"/>
    <g>
      <path d="M34,67.72c-6.65,0-13.3.09-19.95,0-5.8-.11-10-2.92-12.5-8.16A13.72,13.72,0,0,1,.28,53.46q0-19.47,0-38.95a13.81,13.81,0,0,1,9-13.32A13.25,13.25,0,0,1,13.93.32C27.28.25,40.63.2,54,.32c5.74,0,9.94,2.9,12.46,8.11a13.17,13.17,0,0,1,1.26,5.83c0,13.3.09,26.61,0,39.91-.06,5.69-3,9.81-8.1,12.3a13.46,13.46,0,0,1-6.06,1.25c-6.51,0-13,0-19.52,0Zm24.91-36c0-.67,0-1.7-.17-2.72a17.61,17.61,0,0,0-5.14-10,24.91,24.91,0,0,0-12.4-6.79,29.46,29.46,0,0,0-21.84,2.92,21.11,21.11,0,0,0-7.7,7.23A16.16,16.16,0,0,0,9.92,36.61a19.6,19.6,0,0,0,8,10,28.78,28.78,0,0,0,12.2,4.43c1.52.23,2.1.9,2,2.44,0,.92-.23,1.84-.34,2.77-.2,1.58.32,2,1.84,1.48a7.3,7.3,0,0,0,.82-.31,41.93,41.93,0,0,0,8.34-5.07C46,50,49.11,47.48,52.13,44.91A18,18,0,0,0,58.89,31.7Z" fill="#39cd4a"/>
      <path d="M34,30.67c0,.27-.06.55-.06.83,0,1.52,0,3,0,4.56,0,.91-.45,1.41-1.22,1.42s-1.22-.48-1.22-1.41c0-3,0-6,0-9.06a1.27,1.27,0,0,1,.88-1.43,1.34,1.34,0,0,1,1.56.68Q36,29,38.07,31.8a8.29,8.29,0,0,0,.57.65c0-.43.08-.67.08-.91,0-1.55,0-3.1,0-4.64,0-.86.45-1.37,1.18-1.39s1.25.5,1.25,1.4c0,3.07,0,6.13,0,9.2a1.16,1.16,0,0,1-.82,1.31,1.27,1.27,0,0,1-1.47-.55l-4.23-5.74a5.49,5.49,0,0,0-.44-.52Z" fill="#39cd4a"/>
      <path d="M43.09,31.5c0-1.45,0-2.9,0-4.34,0-1.26.35-1.58,1.57-1.58H49c1,0,1.43.41,1.43,1.2S49.88,28,49,28s-1.82,0-2.73,0c-.45,0-.65.12-.67.62-.08,1.66-.1,1.66,1.56,1.66.66,0,1.32,0,2,0,.89,0,1.35.46,1.34,1.22a1.22,1.22,0,0,1-1.35,1.22c-1,0-1.91,0-2.87,0-.47,0-.66.16-.66.64,0,2-.11,1.62,1.56,1.66.69,0,1.37,0,2.06,0a1.12,1.12,0,0,1,1.25,1.22,1.17,1.17,0,0,1-1.22,1.19c-1.67,0-3.34,0-5,0-.76,0-1.1-.43-1.11-1.35C43.08,34.59,43.09,33,43.09,31.5Z" fill="#39cd4a"/>
      <path d="M18.38,31.48V27.43c0-1.34.36-1.89,1.21-1.9s1.23.58,1.24,1.88c0,2.26,0,4.51,0,6.77,0,.7.24.9.89.87.88,0,1.77,0,2.65,0s1.34.4,1.34,1.19a1.2,1.2,0,0,1-1.34,1.23c-1.55,0-3.09,0-4.64,0-.95,0-1.32-.37-1.33-1.36C18.37,34.57,18.38,33,18.38,31.48Z" fill="#39cd4a"/>
      <path d="M27,31.46V27c0-.91.48-1.5,1.22-1.52s1.23.46,1.27,1.41c.05,1.39,0,2.79,0,4.19,0,1.67,0,3.33,0,5a1.21,1.21,0,0,1-1,1.34,1.18,1.18,0,0,1-1.41-.8A1.85,1.85,0,0,1,27,36C27,34.45,27,33,27,31.46Z" fill="#39cd4a"/>
    </g>
  </g>
</svg>
