<svg xmlns="http://www.w3.org/2000/svg" viewBox="0 0 242 40">
  <g>
    <path d="M47.2,1.26H6.74L2.12,27.48h0L.43,37.2H40.94l2.61-14.81h-.08ZM34.44,24.39l-23.61-.15L13.71,8.66H37.25Z" fill="#fff"/>
    <polygon points="29.62 12.62 19.73 12.62 18.42 20.03 28.32 20.03 29.62 12.62" fill="#fff"/>
    <polygon points="238.24 18.64 241.5 0.1 234.21 0.1 231.13 18.49 219.18 18.49 216.86 31.93 228.6 31.93 227.46 38.41 234.74 38.41 235.89 31.93 239.47 31.93 241.57 18.64 238.24 18.64" fill="#fff"/>
    <path d="M192.72,9.56H179.86l1.33-2.17H193.1l1.24-7H156.22l-1.24,7h10.81l-1.33,2.17h-9.87l-1,5.8h-.08l-3.07,17.42h.08l-.93,5.27H187.7l.93-5.27h.08l3.07-17.42h-.08Zm-17,18.16-10.13-.15.81-5.67H176.5Zm1.37-9.54H166.83l.45-3h10.14Z" fill="#fff"/>
    <path d="M98.93,5.36H81.59C82.34,3.19,83.35.9,83.38.8H75a51.81,51.81,0,0,1-2.32,6.57c-.34.8-.69,1.53-1,2.18L73.19.87H65.25l-2.6,14.75H59.81L62.44.72H54.5l-2.63,14.9H51.8L49.19,30.43H60L58.65,38.3l8-.16,3.29-18.66.79,2.19a15.19,15.19,0,0,0,4.07-3.4,20.29,20.29,0,0,0,.79,4.32,21.36,21.36,0,0,0,1.5,3.76,61.6,61.6,0,0,1-8.74,5.22,56.35,56.35,0,0,0,2.85,6.89,57.85,57.85,0,0,0,10.37-6,36.61,36.61,0,0,0,8.27,6.17C91.44,36,93.13,33.52,94.58,31a31.66,31.66,0,0,1-6.41-4.65A33.41,33.41,0,0,0,91,22.59a24.49,24.49,0,0,0,3.68-8.77h2.76C97.64,14.22,99.08,5.78,98.93,5.36ZM85.66,18.79c-.29.42-.59.83-.91,1.23a10.48,10.48,0,0,1-.92-6.2l0,.1-.92-.1h6l-1,.1A13,13,0,0,1,85.66,18.79Z" fill="#fff"/>
    <path d="M215.46,21.81c0-2.17.12-4.27.24-5.59H219l1.27-7.17h-6.31l.61-3.47h2.92l1-5.37H205.27l-.94,5.37h2.92l-.61,3.47h-6.21l-1.26,7.17h2.64c-.41,1.3-1.06,3.28-1.87,5.33-2.45,6.17-4,7.06-4,7.07a.68.68,0,0,1,.22-.06l-.46,5.36c3.62-.31,6.19-4.2,8-7.94l-2.16,12.24h7.29l1.68-9.51c.58,2.71,1.8,5,4.35,5.48l1.87-5.29.12,0C216.44,28.71,215.51,27,215.46,21.81Z" fill="#fff"/>
    <path d="M228.11,7.73c1.57-1,2.31-2.68,1.76-5.41a3,3,0,0,1-1.61-.65,5.13,5.13,0,0,0-5.42,2.1C222.92,4.1,223.75,7.06,228.11,7.73Z" fill="#fff"/>
    <path d="M229.1,10c-2.16-1-4-.22-5.42,2.1.08.33.92,3.29,5.27,4,1.91-1.54,2.62-3.32,1.76-5.41-1.37-.21-1.65-.8-1.66-.83S229.07,9.85,229.1,10Z" fill="#fff"/>
    <path d="M146.38,6.92H130.79c.77-4.27,1.22-6.46,1.26-6.77L122,.3c0,.1-.59,3-1.25,6.62h-15l-.15.85h-.07L103.62,18.7h.07l-.42,2.38h10.78A27.34,27.34,0,0,1,102.87,31a20.34,20.34,0,0,0,3,8.92A40.45,40.45,0,0,0,123.4,23.67a29.17,29.17,0,0,0,.87,2.88A24.14,24.14,0,0,0,135.35,39.9,55.08,55.08,0,0,0,141.48,31a16.74,16.74,0,0,1-7.78-9.9h10.18Z" fill="#fff"/>
  </g>
</svg>
