<svg xmlns="http://www.w3.org/2000/svg" width="180" height="180" viewBox="0 0 180 180">
  <g id="圖層_6" data-name="圖層 6">
    <g>
      <polyline points="4.78 94.8 60.78 79.71 130.7 125.82 73.19 148.85" fill="#d9cdc2" stroke="#4d4d4d" stroke-linecap="round" stroke-linejoin="round" stroke-width="2.25"/>
      <polyline points="175.22 123.82 141.7 123.82 71.78 77.71 110.15 77.71" fill="#d9cdc2" stroke="#4d4d4d" stroke-linecap="round" stroke-linejoin="round" stroke-width="2.25"/>
      <path d="M142.64,64.25l-13.7,28.26a57.67,57.67,0,0,1-23.53,25.06c-19.13,10.79-43.57,16.2-49.2,17.35a2.43,2.43,0,0,1-2.1-.57c-7.19-6.5-14.17-14.72-20.37-22.39A2.41,2.41,0,0,1,35,108.1C47.12,105,61.4,102,72.25,96.83a101.17,101.17,0,0,0,20.57-13,30.57,30.57,0,0,0,9.82-13.58l7-19.22a.87.87,0,0,1,1.58-.14l2.41,7.2a.48.48,0,0,0,.76.22l5.67-4.76a.89.89,0,0,1,1.38.35l1.76,7.75a.48.48,0,0,0,.73.29l6.54-4.33a.78.78,0,0,1,1.17.54l1.13,7.17a.49.49,0,0,0,.64.37l8.12-2.92A1,1,0,0,1,142.64,64.25Z" fill="#f2f2f2" stroke="#4d4d4d" stroke-miterlimit="10" stroke-width="2.38"/>
      <path d="M87.45,93.92a96.82,96.82,0,0,1,22.7,13.19" fill="none" stroke="#4d4d4d" stroke-linecap="round" stroke-linejoin="round" stroke-width="2.38"/>
      <path d="M40.11,112.39l16.5,18.69a.46.46,0,0,0,.47.14c3.26-.86,34.63-9.32,49.1-20a.47.47,0,0,0-.38-.84c-8.57,2-41.6,8.61-65.19,1.22A.47.47,0,0,0,40.11,112.39Z" fill="#fff"/>
      <path d="M132.65,74c-3,6.72-10.4,22.07-18.54,28.62a.48.48,0,0,1-.55,0c-1.72-1.08-10.84-6.75-17.43-9.56a.47.47,0,0,1,.16-.91c6.15-.17,21.89-2.35,35.56-18.67A.47.47,0,0,1,132.65,74Z" fill="#fff"/>
      <path d="M109.2,64.7a62.33,62.33,0,0,1,23.16,10" fill="none" stroke="#4d4d4d" stroke-linecap="round" stroke-linejoin="round" stroke-width="2.38"/>
      <g>
        <path d="M78.29,43.82A27.75,27.75,0,0,0,42.82,64" fill="none" stroke="#404040" stroke-linecap="round" stroke-linejoin="round" stroke-width="2.92"/>
        <path d="M36.71,55.89a18.68,18.68,0,0,0,3.46,6.93,5.62,5.62,0,0,0,2.39,1.94,6.37,6.37,0,0,0,3.66-.18c2.86-.74,5.81-1.71,7.86-3.84" fill="none" stroke="#404040" stroke-linecap="round" stroke-linejoin="round" stroke-width="2.92"/>
      </g>
    </g>
  </g>
</svg>
