<svg xmlns="http://www.w3.org/2000/svg" viewBox="0 0 200 200">
  <g>
    <polyline points="14.78 99.1 70.78 84.01 140.7 130.12 83.19 153.16" fill="#d9cdc2" stroke="#4d4d4d" stroke-linecap="round" stroke-linejoin="round" stroke-width="2.25"/>
    <polyline points="185.22 128.12 151.7 128.12 81.78 82.01 120.15 82.01" fill="#d9cdc2" stroke="#4d4d4d" stroke-linecap="round" stroke-linejoin="round" stroke-width="2.25"/>
    <path d="M152.64,68.55l-13.7,28.27a57.67,57.67,0,0,1-23.53,25.06c-19.13,10.79-43.57,16.19-49.2,17.34a2.4,2.4,0,0,1-2.1-.57c-7.19-6.49-14.17-14.71-20.37-22.39A2.41,2.41,0,0,1,45,112.4c12.1-3.09,26.38-6.08,37.23-11.26a101.2,101.2,0,0,0,20.57-13,30.51,30.51,0,0,0,9.82-13.58l7-19.22a.87.87,0,0,1,1.58-.13l2.41,7.2a.47.47,0,0,0,.76.21l5.67-4.75a.89.89,0,0,1,1.38.34L133.19,66a.48.48,0,0,0,.73.29L140.46,62a.78.78,0,0,1,1.17.53l1.13,7.17a.49.49,0,0,0,.64.38l8.12-2.92A1,1,0,0,1,152.64,68.55Z" fill="#f2f2f2" stroke="#4d4d4d" stroke-miterlimit="10" stroke-width="2.38"/>
    <path d="M97.45,98.23a96.13,96.13,0,0,1,22.7,13.19" fill="none" stroke="#4d4d4d" stroke-linecap="round" stroke-linejoin="round" stroke-width="2.38"/>
    <path d="M50.11,116.69l16.5,18.69a.46.46,0,0,0,.47.15c3.26-.86,34.63-9.32,49.1-20a.47.47,0,0,0-.38-.84c-8.57,2-41.6,8.61-65.19,1.23A.47.47,0,0,0,50.11,116.69Z" fill="#fff"/>
    <path d="M142.65,78.25c-3,6.73-10.4,22.08-18.54,28.62a.47.47,0,0,1-.55,0c-1.72-1.08-10.84-6.75-17.43-9.56a.47.47,0,0,1,.16-.9c6.15-.18,21.89-2.35,35.56-18.68A.47.47,0,0,1,142.65,78.25Z" fill="#fff"/>
    <path d="M119.2,69a62.31,62.31,0,0,1,23.16,10" fill="none" stroke="#4d4d4d" stroke-linecap="round" stroke-linejoin="round" stroke-width="2.38"/>
    <g>
      <path d="M88.29,48.12A27.77,27.77,0,0,0,52.82,68.28" fill="none" stroke="#404040" stroke-linecap="round" stroke-linejoin="round" stroke-width="2.92"/>
      <path d="M46.71,60.19a18.61,18.61,0,0,0,3.46,6.93,5.57,5.57,0,0,0,2.39,1.95,6.37,6.37,0,0,0,3.66-.18c2.86-.74,5.81-1.72,7.86-3.85" fill="none" stroke="#404040" stroke-linecap="round" stroke-linejoin="round" stroke-width="2.92"/>
    </g>
  </g>
</svg>
