<svg xmlns="http://www.w3.org/2000/svg" xmlns:xlink="http://www.w3.org/1999/xlink" viewBox="0 0 708.77 628.61"><defs><linearGradient id="未命名漸層_3" x1="-3747.64" y1="462.96" x2="-3523.88" y2="749.09" gradientTransform="matrix(-1, 0, 0, 1, -3447.27, 0)" gradientUnits="userSpaceOnUse"><stop offset="0" stop-color="#fff"/><stop offset="1"/></linearGradient><linearGradient id="未命名漸層_3-2" x1="-3838.54" y1="419.12" x2="-3334.35" y2="684.21" xlink:href="#未命名漸層_3"/><linearGradient id="未命名漸層_3-3" x1="-3748.52" y1="461.64" x2="-3524.76" y2="747.77" xlink:href="#未命名漸層_3"/><linearGradient id="未命名漸層_3-4" x1="-3839.42" y1="417.81" x2="-3335.23" y2="682.9" xlink:href="#未命名漸層_3"/><linearGradient id="未命名漸層_6" x1="363.07" y1="377.22" x2="559.49" y2="497.44" gradientUnits="userSpaceOnUse"><stop offset="0" stop-color="#fff"/><stop offset="0.86" stop-color="#fff" stop-opacity="0"/></linearGradient><clipPath id="clip-path"><path d="M410.31,428.33v-6s23.59,1.19,29.56,0l-1.79,5.37Z" fill="none"/></clipPath><clipPath id="clip-path-2"><path d="M352.56,417.93l8.45-8.39,55,5.66,1.31.39a33.06,33.06,0,0,0,9.53,1.4h0a33,33,0,0,0,8-1l.81-.2,46.09-13.13,13,8.36-6.56,22.07-53.69,9.54-40.57-3.58-35.32-11.93Z" fill="none"/></clipPath><linearGradient id="未命名漸層_42" x1="-1553.54" y1="-736.69" x2="-1553.54" y2="-846.12" gradientTransform="matrix(-0.52, -0.86, -0.86, 0.52, -1086, -336.74)" gradientUnits="userSpaceOnUse"><stop offset="0" stop-color="#fff" stop-opacity="0"/><stop offset="0.53" stop-color="#fff"/><stop offset="1" stop-color="#fff" stop-opacity="0"/></linearGradient><linearGradient id="未命名漸層_4" x1="-1553.79" y1="-847.3" x2="-1553.79" y2="-891.72" gradientTransform="matrix(-0.52, -0.86, -0.86, 0.52, -1086, -336.74)" gradientUnits="userSpaceOnUse"><stop offset="0" stop-color="#fff" stop-opacity="0"/><stop offset="0.02" stop-color="#fff" stop-opacity="0.07"/><stop offset="0.1" stop-color="#fff" stop-opacity="0.31"/><stop offset="0.19" stop-color="#fff" stop-opacity="0.52"/><stop offset="0.26" stop-color="#fff" stop-opacity="0.69"/><stop offset="0.34" stop-color="#fff" stop-opacity="0.83"/><stop offset="0.41" stop-color="#fff" stop-opacity="0.92"/><stop offset="0.48" stop-color="#fff" stop-opacity="0.98"/><stop offset="0.53" stop-color="#fff"/><stop offset="0.58" stop-color="#fff" stop-opacity="0.98"/><stop offset="0.64" stop-color="#fff" stop-opacity="0.92"/><stop offset="0.7" stop-color="#fff" stop-opacity="0.81"/><stop offset="0.77" stop-color="#fff" stop-opacity="0.67"/><stop offset="0.84" stop-color="#fff" stop-opacity="0.48"/><stop offset="0.92" stop-color="#fff" stop-opacity="0.26"/><stop offset="1" stop-color="#fff" stop-opacity="0"/></linearGradient><linearGradient id="未命名漸層_42-2" x1="-1551.74" y1="-891.99" x2="-1551.74" y2="-932.23" xlink:href="#未命名漸層_42"/></defs><g style="isolation:isolate"><g id="圖層_12" data-name="圖層 12"><polygon points="205.1 577.18 242.43 604.36 242.43 381.52 215.57 367.7 205.1 354.34 205.1 577.18" fill="#f3d1a1"/><g opacity="0.3" style="mix-blend-mode:multiply"><polygon points="205.1 577.18 242.43 604.36 242.43 381.52 215.9 367.93 205.1 354.34 205.1 577.18" fill="#231815"/></g><rect y="354.34" width="205.1" height="222.84" fill="#f3d1a1"/><rect y="354.34" width="205.1" height="222.84" fill="#231815" opacity="0.2" style="mix-blend-mode:multiply"/><rect x="32.34" y="368.02" width="140.43" height="13.5" transform="translate(205.1 749.54) rotate(-180)" fill="#231815" opacity="0.1" style="mix-blend-mode:multiply"/><rect x="37.33" y="381.52" width="205.1" height="222.84" fill="#f3d1a1"/><polygon points="0 577.18 37.33 604.36 37.33 381.52 27.07 368.32 0 354.34 0 577.18" fill="#f3d1a1"/><line x1="114.5" y1="368.02" x2="40.56" y2="368.02" fill="#f3d1a1" stroke="#231815" stroke-linecap="round" stroke-linejoin="round" stroke-width="2"/><line x1="164.11" y1="368.02" x2="136.31" y2="368.02" fill="#f3d1a1" stroke="#231815" stroke-linecap="round" stroke-linejoin="round" stroke-width="2"/><g opacity="0.1" style="mix-blend-mode:multiply"><polygon points="0 577.18 37.33 604.36 37.33 381.52 27.07 368.32 0 354.34 0 577.18" fill="#231815"/></g><polyline points="0 354.34 205.1 354.34 215.78 367.85 242.43 381.52" fill="none" stroke="#231815" stroke-linecap="round" stroke-linejoin="round" stroke-width="2"/><rect x="37.33" y="381.52" width="205.1" height="222.84" fill="none" stroke="#231815" stroke-linecap="round" stroke-linejoin="round" stroke-width="2"/><polygon points="0 577.18 37.33 604.36 37.33 381.52 26.5 367.91 0 354.34 0 577.18" fill="none" stroke="#231815" stroke-linecap="round" stroke-linejoin="round" stroke-width="2"/><line x1="27.96" y1="554.59" x2="34.44" y2="559.31" fill="none" stroke="#231815" stroke-linecap="round" stroke-linejoin="round" stroke-width="2"/><line x1="24.96" y1="413.81" x2="24.96" y2="552.23" fill="none" stroke="#231815" stroke-linecap="round" stroke-linejoin="round" stroke-width="2"/><line x1="24.96" y1="385.74" x2="24.96" y2="397.84" fill="none" stroke="#231815" stroke-linecap="round" stroke-linejoin="round" stroke-width="2"/><line x1="214.91" y1="372.39" x2="214.91" y2="378.68" fill="none" stroke="#231815" stroke-linecap="round" stroke-linejoin="round" stroke-width="2"/><line x1="37.33" y1="604.36" x2="24.84" y2="552.23" fill="none" stroke="#231815" stroke-linecap="round" stroke-linejoin="round" stroke-width="2"/><line y1="577.18" x2="24.84" y2="552.23" fill="none" stroke="#231815" stroke-linecap="round" stroke-linejoin="round" stroke-width="2"/><line x1="207.96" y1="561.08" x2="223.78" y2="561.08" fill="none" stroke="#231815" stroke-linecap="round" stroke-linejoin="round" stroke-width="2"/><line x1="51.49" y1="561.08" x2="190.82" y2="561.08" fill="none" stroke="#231815" stroke-linecap="round" stroke-linejoin="round" stroke-width="2"/><line x1="205.1" y1="354.34" x2="205.1" y2="381.56" fill="none" stroke="#231815" stroke-linecap="round" stroke-linejoin="round" stroke-width="2"/><polygon points="37.33 381.52 26.5 367.91 24.96 552.23 37.33 604.36 37.33 381.52" fill="#231815" opacity="0.1" style="mix-blend-mode:multiply"/><rect x="143.9" y="306.09" width="10.57" height="61.92" fill="#f3d1a1"/><rect x="50.63" y="306.09" width="10.57" height="61.92" fill="#f3d1a1"/><polygon points="61.2 295.52 143.9 295.52 154.47 306.09 143.9 306.09 61.2 306.09 50.63 306.09 61.2 295.52" fill="#f3d1a1"/><rect x="143.9" y="306.09" width="10.57" height="61.92" fill="none" stroke="#231815" stroke-linecap="round" stroke-linejoin="round" stroke-width="2"/><rect x="50.63" y="306.09" width="10.57" height="61.92" fill="none" stroke="#231815" stroke-linecap="round" stroke-linejoin="round" stroke-width="2"/><polygon points="61.2 295.52 143.9 295.52 154.47 306.09 143.9 306.09 61.2 306.09 50.63 306.09 61.2 295.52" fill="none" stroke="#231815" stroke-linecap="round" stroke-linejoin="round" stroke-width="2"/><g opacity="0.1" style="mix-blend-mode:multiply"><rect x="143.9" y="306.09" width="10.57" height="61.92" fill="#231815"/><rect x="50.63" y="306.09" width="10.57" height="61.92" fill="#231815"/><polygon points="61.2 295.52 143.9 295.52 154.47 306.09 143.9 306.09 61.2 306.09 50.63 306.09 61.2 295.52" fill="#231815"/></g><rect x="98.53" y="322.71" width="82.7" height="10.57" fill="#f3d1a1"/><polygon points="191.8 333.29 191.8 381.52 181.23 381.52 181.23 333.29 181.23 322.71 191.8 333.29" fill="#f3d1a1"/><polygon points="98.53 322.71 98.53 333.29 98.53 381.52 87.96 381.52 87.96 333.29 98.53 322.71" fill="#f3d1a1"/><rect x="98.53" y="322.71" width="82.7" height="10.57" fill="none" stroke="#231815" stroke-linecap="round" stroke-linejoin="round" stroke-width="2"/><polygon points="191.8 333.29 191.8 381.52 181.23 381.52 181.23 333.29 181.23 322.71 191.8 333.29" fill="none" stroke="#231815" stroke-linecap="round" stroke-linejoin="round" stroke-width="2"/><polygon points="98.53 322.71 98.53 333.29 98.53 381.52 87.96 381.52 87.96 333.29 98.53 322.71" fill="none" stroke="#231815" stroke-linecap="round" stroke-linejoin="round" stroke-width="2"/><path d="M121.39,296.63Q96.55,283.87,84,261.09T71.47,208.41V5.06h81.21V206.57q0,12.42,7.36,19.67t22.08,7.24q14.72,0,22.08-7.24t7.36-19.67V5.06h81.21V208.41q0,29-12.08,51.76t-36.92,36q-24.84,13.21-61.65,13.22Q146.24,309.39,121.39,296.63Z" fill="#fff" stroke="#000" stroke-miterlimit="10" stroke-width="3"/><path d="M378,299.62a75.54,75.54,0,0,1-36-30.94q-12.89-21.17-16.1-55.44h83.27q2.29,11.5,9.09,16.91t16.91,5.4q9.88,0,16-4t6.1-12.08q0-8.05-8.17-13.23t-28.64-11.84Q390.76,184.26,372,172.87a82.65,82.65,0,0,1-29.67-30.94q-10.93-19.55-10.93-50.61,0-26.67,12.42-47.38t36.35-32.32Q404.11,0,437.92,0q34.5,0,57.27,9.78A74,74,0,0,1,530.5,40.6q12.54,21,15.76,55.55H464.14q-2.76-11.27-8.4-16.79t-15.06-5.52q-9.9,0-15.65,5.06a16,16,0,0,0-5.75,12.42q0,8.06,4.26,13.12t12.88,9a220.48,220.48,0,0,0,25.19,9q28.75,9,46.58,19.44a74.28,74.28,0,0,1,27.95,29q10.13,18.52,10.12,48.65,0,42.8-27.26,66.37t-83.38,23.57Q401.11,309.39,378,299.62Z" fill="#fff" stroke="#000" stroke-miterlimit="10" stroke-width="3"/><line x1="248.27" y1="336.61" x2="395.52" y2="566.4" fill="none" stroke="#231815" stroke-linecap="round" stroke-linejoin="round" stroke-width="2"/><line x1="196.86" y1="372.4" x2="382.43" y2="564.16" fill="none" stroke="#231815" stroke-miterlimit="10" stroke-width="2"/><line x1="304.08" y1="463.89" x2="241.58" y2="377.14" fill="none" stroke="#231815" stroke-linecap="round" stroke-linejoin="round" stroke-width="2"/><line x1="248.66" y1="378.68" x2="326.36" y2="457.94" fill="none" stroke="#231815" stroke-linecap="round" stroke-linejoin="round" stroke-width="2"/><path d="M416.93,598.66a2.85,2.85,0,0,0,.51-4l-217.11-280a2.85,2.85,0,1,0-4.51,3.49l217.12,280A2.84,2.84,0,0,0,416.93,598.66Z" fill="#3d3d3d"/><path d="M401.26,583.1a3.34,3.34,0,0,1,1.26-2.25l.75-.58a3.33,3.33,0,0,1,4.66.59l10,12.85a3.33,3.33,0,0,1-.59,4.66l-.75.58a3.34,3.34,0,0,1-4.67-.59l-10-12.85A3.34,3.34,0,0,1,401.26,583.1Z" fill="#444"/><rect x="215.14" y="345.18" width="3.07" height="4.69" transform="translate(600.86 489.42) rotate(142.21)" fill="#efefef"/><path d="M214,346.62l2.87,3.7c.36.47-.59,2.22-1.17,2.6s-1.06.36-1.65-.41l-2.88-3.7c-.63-.83-.76-1.41-.11-1.88S213.68,346.18,214,346.62Z" fill="#3d3d3d"/><rect x="219.54" y="348.83" width="11.39" height="5.18" rx="0.95" transform="translate(-168.09 211.71) rotate(-37.79)" fill="#444"/><rect x="232.19" y="358.02" width="11.39" height="19.42" rx="0.95" transform="translate(-175.43 222.87) rotate(-37.79)" fill="#444"/><rect x="224.98" y="352.59" width="8.8" height="8.33" transform="translate(629.25 498.15) rotate(142.21)" fill="#3d3d3d"/><rect x="215.14" y="345.18" width="3.07" height="4.69" transform="translate(600.86 489.42) rotate(142.21)" fill="none" stroke="#231815" stroke-linecap="round" stroke-linejoin="round" stroke-width="2"/><path d="M214,346.62l2.87,3.7c.36.47-.59,2.22-1.17,2.6s-1.06.36-1.65-.41l-2.88-3.7c-.63-.83-.76-1.41-.11-1.88S213.68,346.18,214,346.62Z" fill="none" stroke="#231815" stroke-linecap="round" stroke-linejoin="round" stroke-width="2"/><path d="M195.82,318.13a2.85,2.85,0,1,1,4.51-3.49l25.57,33-4.5,3.49Z" fill="none" stroke="#231815" stroke-linecap="round" stroke-linejoin="round" stroke-width="2"/><path d="M223.3,356.2c-1,.76-1.6-.05-2.37-1l-.39-.5c-.76-1-1.4-1.79-.41-2.55l1.07-.83,4.91-3.81,1.07-.83c1-.77,1.6.05,2.36,1l.4.5c.76,1,1.4,1.79.41,2.55l0,0,5.11,6.58.05,0c1-.77,1.6.05,2.36,1l9.12,11.76c.76,1,1.4,1.79.41,2.55l-1.07.83-4.91,3.81-1.07.83c-1,.76-1.6-.05-2.36-1l-9.12-11.76c-.76-1-1.4-1.78-.41-2.54l0,0-5.1-6.59Z" fill="none" stroke="#231815" stroke-linecap="round" stroke-linejoin="round" stroke-width="2"/><line x1="261.95" y1="317.67" x2="417.22" y2="592.83" fill="none" stroke="#231815" stroke-linecap="round" stroke-linejoin="round" stroke-width="2"/><line x1="227.38" y1="338.53" x2="416.93" y2="598.66" fill="none" stroke="#231815" stroke-linecap="round" stroke-linejoin="round" stroke-width="2"/><line x1="210.94" y1="362.12" x2="363.12" y2="533.9" fill="none" stroke="#231815" stroke-linecap="round" stroke-linejoin="round" stroke-width="2"/><line x1="199.97" y1="362.18" x2="411.71" y2="596.58" fill="none" stroke="#231815" stroke-linecap="round" stroke-linejoin="round" stroke-width="2"/><line x1="143.71" y1="420.14" x2="411.15" y2="597.4" fill="none" stroke="#231815" stroke-miterlimit="10" stroke-width="2"/><line x1="247.58" y1="372.49" x2="334.76" y2="445.98" fill="none" stroke="#231815" stroke-linecap="round" stroke-linejoin="round" stroke-width="2"/><line x1="243.83" y1="375.4" x2="313.83" y2="456.55" fill="none" stroke="#231815" stroke-linecap="round" stroke-linejoin="round" stroke-width="2"/><line x1="277.53" y1="508.57" x2="214.09" y2="399.93" fill="none" stroke="#231815" stroke-linecap="round" stroke-linejoin="round" stroke-width="2"/><path d="M403.27,580.27l-.75.58a3.34,3.34,0,0,0-1.26,2.25l-159.68-206,4.5-3.49,159.69,206A3.32,3.32,0,0,0,403.27,580.27Z" fill="none" stroke="#231815" stroke-linecap="round" stroke-linejoin="round" stroke-width="2"/><path d="M401.26,583.1a3.34,3.34,0,0,1,1.26-2.25l.75-.58a3.33,3.33,0,0,1,4.66.59l10,12.85a3.33,3.33,0,0,1-.59,4.66l-.75.58a3.34,3.34,0,0,1-4.67-.59l-10-12.85A3.34,3.34,0,0,1,401.26,583.1Z" fill="none" stroke="#231815" stroke-linecap="round" stroke-linejoin="round" stroke-width="2"/><line x1="294.95" y1="473.76" x2="240.08" y2="378.3" fill="none" stroke="#231815" stroke-linecap="round" stroke-linejoin="round" stroke-width="2"/><path d="M413.92,594.34a11.35,11.35,0,0,1,3.91-1.65s9.64,13.46,12.39,17.32,3.72,6.19,1.59,7.85L413.7,594.5Z" fill="#117a5c"/><path d="M413.7,594.5l18.11,23.36-.15.12c-2.38,1.69-4.75-1.26-7.06-3.83-1.6-1.77-13.76-16.21-13.76-16.21A10.69,10.69,0,0,1,413.7,594.5Z" fill="#1a8c70"/><path d="M431.66,618c2.34-1.66,1.31-4.12-1.44-8s-12.39-17.32-12.39-17.32a11.35,11.35,0,0,0-3.91,1.65,10.41,10.41,0,0,0-3.08,3.6S423,612.38,424.6,614.15C426.91,616.72,429.28,619.67,431.66,618Z" fill="none" stroke="#231815" stroke-linecap="round" stroke-linejoin="round" stroke-width="2"/><path d="M211,362.06c-.63.53-1.37.79-1.7.47s-3.13-3.11-4.22-4.27a2.17,2.17,0,0,1,0-3.28,2.07,2.07,0,0,1,3,.5c.72,1.07,3.21,4.47,3.55,5S211.63,361.55,211,362.06Z" fill="#1a8c70"/><path d="M211,362.06c-.63.53-1.37.79-1.7.47s-3.13-3.11-4.22-4.27a2.17,2.17,0,0,1,0-3.28,2.07,2.07,0,0,1,3,.5c.72,1.07,3.21,4.47,3.55,5S211.63,361.55,211,362.06Z" fill="none" stroke="#231815" stroke-miterlimit="10" stroke-width="2"/><path d="M227.38,338.53c-.65.5-1.4.74-1.71.4s-3-3.21-4.07-4.42a2.18,2.18,0,0,1,.12-3.28,2.1,2.1,0,0,1,3,.61c.67,1.1,3,4.59,3.35,5.15S228,338,227.38,338.53Z" fill="#1a8c70"/><path d="M248.43,336.45c-.69.44-1.46.6-1.74.24s-2.7-3.48-3.63-4.79a2.18,2.18,0,0,1,.43-3.25,2.09,2.09,0,0,1,2.95.9c.57,1.15,2.59,4.85,2.85,5.44S249.11,336,248.43,336.45Z" fill="#1a8c70"/><path d="M262.2,317.55c-.73.39-1.5.49-1.76.1s-2.41-3.68-3.24-5a2.17,2.17,0,0,1,.68-3.21,2.09,2.09,0,0,1,2.87,1.12c.48,1.2,2.2,5,2.42,5.65S262.9,317.18,262.2,317.55Z" fill="#1a8c70"/><path d="M199.67,362.45c-.61.56-1.33.85-1.67.55s-3.29-2.94-4.45-4.05a2.17,2.17,0,0,1-.16-3.27,2.09,2.09,0,0,1,3.06.34c.77,1,3.42,4.3,3.79,4.83S200.25,361.9,199.67,362.45Z" fill="#1a8c70"/><path d="M227.38,338.53c-.65.5-1.4.74-1.71.4s-3-3.21-4.07-4.42a2.18,2.18,0,0,1,.12-3.28,2.1,2.1,0,0,1,3,.61c.67,1.1,3,4.59,3.35,5.15S228,338,227.38,338.53Z" fill="none" stroke="#231815" stroke-miterlimit="10" stroke-width="2"/><path d="M248.43,336.45c-.69.44-1.46.6-1.74.24s-2.7-3.48-3.63-4.79a2.18,2.18,0,0,1,.43-3.25,2.09,2.09,0,0,1,2.95.9c.57,1.15,2.59,4.85,2.85,5.44S249.11,336,248.43,336.45Z" fill="none" stroke="#231815" stroke-miterlimit="10" stroke-width="2"/><path d="M262.2,317.55c-.73.39-1.5.49-1.76.1s-2.41-3.68-3.24-5a2.17,2.17,0,0,1,.68-3.21,2.09,2.09,0,0,1,2.87,1.12c.48,1.2,2.2,5,2.42,5.65S262.9,317.18,262.2,317.55Z" fill="none" stroke="#231815" stroke-miterlimit="10" stroke-width="2"/><path d="M199.67,362.45c-.61.56-1.33.85-1.67.55s-3.29-2.94-4.45-4.05a2.17,2.17,0,0,1-.16-3.27,2.09,2.09,0,0,1,3.06.34c.77,1,3.42,4.3,3.79,4.83S200.25,361.9,199.67,362.45Z" fill="none" stroke="#231815" stroke-miterlimit="10" stroke-width="2"/><path d="M196.83,372.45c-.58.58-1.29.91-1.65.62s-3.41-2.78-4.62-3.84a2.17,2.17,0,0,1-.31-3.26,2.08,2.08,0,0,1,3.07.2c.81,1,3.62,4.14,4,4.66S197.39,371.88,196.83,372.45Z" fill="#1a8c70"/><path d="M196.83,372.45c-.58.58-1.29.91-1.65.62s-3.41-2.78-4.62-3.84a2.17,2.17,0,0,1-.31-3.26,2.08,2.08,0,0,1,3.07.2c.81,1,3.62,4.14,4,4.66S197.39,371.88,196.83,372.45Z" fill="none" stroke="#231815" stroke-miterlimit="10" stroke-width="2"/><path d="M143.94,420.47c-.47.67-1.12,1.12-1.52.89s-3.83-2.17-5.2-3a2.18,2.18,0,0,1-.86-3.16,2.1,2.1,0,0,1,3.07-.32c1,.85,4.26,3.48,4.73,3.92S144.4,419.81,143.94,420.47Z" fill="#1a8c70"/><path d="M143.94,420.47c-.47.67-1.12,1.12-1.52.89s-3.83-2.17-5.2-3a2.18,2.18,0,0,1-.86-3.16,2.1,2.1,0,0,1,3.07-.32c1,.85,4.26,3.48,4.73,3.92S144.4,419.81,143.94,420.47Z" fill="none" stroke="#231815" stroke-miterlimit="10" stroke-width="2"/><path d="M213.68,330.28l-37.29-48.09c-4.33-5.59-6.19-14,2.29-20.53a15.54,15.54,0,0,1,7.37-3.3,18,18,0,0,0-4.5,2.6c-8.9,6.9-7,15.69-2.41,21.55L218.29,333c1.55,2-1.33,4.52-3.25,6s-5,3.43-6.48,1.54l-1.88-2.43a10.87,10.87,0,0,0,3.9-2.12C212.41,334.59,215.15,332.18,213.68,330.28Z" fill="#117a5c"/><path d="M214.6,269.63c-.71-4.64-3.48-11-7.07-14.71a29.43,29.43,0,0,0-15.34-8.45,25,25,0,0,0-14.62,1.58,26.44,26.44,0,0,1,18.16-3,30.76,30.76,0,0,1,16.1,8.87c3.78,3.89,6.69,10.57,7.43,15.45s-1.82,7.75-4.62,8.11a9.22,9.22,0,0,1-3.67-.26C213.32,276.46,215.25,273.83,214.6,269.63Z" fill="#117a5c"/><path d="M161.83,271c.12-8.13,6.48-16.19,12.16-20.6a29.54,29.54,0,0,1,3.58-2.37,25,25,0,0,1,14.62-1.58,29.43,29.43,0,0,1,15.34,8.45c3.59,3.71,6.36,10.07,7.07,14.71.65,4.2-1.28,6.83-3.63,7.55a4.63,4.63,0,0,1-3.49-4.2c-.47-4.33-3.93-9.28-6.61-11.75a14.26,14.26,0,0,0-14.82-2.87,15.54,15.54,0,0,0-7.37,3.3c-8.48,6.57-6.62,14.94-2.29,20.53l37.29,48.09c1.47,1.9-1.27,4.31-3.1,5.73a10.87,10.87,0,0,1-3.9,2.12l-38.43-49.57C164.13,283.25,161.73,277.89,161.83,271Z" fill="#1a8c70"/><path d="M176.91,292.55l16.94,21.85" fill="none" stroke="#fff" stroke-linecap="round" stroke-linejoin="round" stroke-width="2" opacity="0.3"/><path d="M166.86,275.28a19,19,0,0,0,4.33,9.89" fill="none" stroke="#fff" stroke-linecap="round" stroke-linejoin="round" stroke-width="2" opacity="0.3"/><path d="M168.25,288.56l40.31,52c1.47,1.89,4.56-.05,6.48-1.54s4.8-4,3.25-6l-39.15-50.5c-4.54-5.86-6.49-14.65,2.41-21.55s16.65-2.21,19.32.27,6.14,7.42,6.61,11.75,4.71,4.77,7.16,4.46c2.8-.36,5.37-3.23,4.62-8.11s-3.65-11.56-7.43-15.45a30.76,30.76,0,0,0-16.1-8.87A26.9,26.9,0,0,0,174,250.42c-5.68,4.41-12,12.47-12.16,20.6C161.73,277.89,164.13,283.25,168.25,288.56Z" fill="none" stroke="#231815" stroke-linecap="round" stroke-linejoin="round" stroke-width="2"/><path d="M197.49,417c1.62-2.11,4.85-5.6,8.44-9.4,4-4.22,8.37-8.83,11.43-12.38.77-.89,1.45-1.71,2-2.44A50.86,50.86,0,0,0,226.86,379a129,129,0,0,0,4-13.43,24.07,24.07,0,0,0,.45-8.11c-.51-5.48-2.28-10.91-3.28-14.54-.65-2.32-1-3.91-.45-4.3a.85.85,0,0,1,.19-.1c2.15-.73,10.93,6,18.45,4.78h0c2.57-.41,11.71-3.19,17.4-5,2.3-.72,4-1.27,4.54-1.44,10.93-3.5,22.67-7.3,28-8.32,3.14-.59,6.79-1,10.42-1.47,7.16-.86,14.19-1.72,16.94-3.74a4,4,0,0,0,.73-.67c1.09-1.37.74-2.45-.63-3.24,1.31.7,2.34,1.91,3.26,5.39,1.31,4.95,26.11,107.74,33.78,130.87s17.93,58.23,28.34,80.89c10,21.73,28,54.5,25.94,59.81a1,1,0,0,1,0,.1l-.08.14a.44.44,0,0,1-.08.11.86.86,0,0,1-.19.19c-4.06,3-32.3-27.37-50.82-43.57s-61.9-46.4-75.87-58-90.36-75.05-91.48-76.3C196.25,418.85,196.66,418.12,197.49,417Z" fill="#f8f8f8"/><path d="M197.49,417c16.93,12.72,62.89,46.79,72.76,54.14,12.07,9,50.11,31.65,66,44.25s39.7,36.77,43.8,33.78a1.71,1.71,0,0,0,.2-.18l.08-.11.09-.13,0-.09c2.45-4.88-11.52-32.13-18.92-50.38-7.71-19-14.14-49.06-19.24-68.76-4.39-17-15.32-85-18.76-106.16a4,4,0,0,0,.73-.67c1.09-1.37.74-2.45-.63-3.24,1.31.7,2.34,1.91,3.26,5.39,1.31,4.95,26.11,107.74,33.78,130.87s17.93,58.23,28.34,80.89c10,21.73,28,54.5,25.94,59.81a1,1,0,0,1,0,.1l-.08.14a.44.44,0,0,1-.08.11.86.86,0,0,1-.19.19c-4.06,3-32.3-27.37-50.82-43.57s-61.9-46.4-75.87-58-90.36-75.05-91.48-76.3C196.25,418.85,196.66,418.12,197.49,417Z" fill="#efefef"/><path d="M228.75,340.33c9.85,13.47,66.32,89.88,83.55,111.12s77.9,109.93,91.24,129.81" fill="none" stroke="#efefef" stroke-linecap="round" stroke-linejoin="round" stroke-width="2"/><path d="M245.07,361.29c9.59,13.12,60.6,86.25,77.88,106.55s55.78,75.48,68.42,95.09" fill="#fef9f4"/><path d="M214.17,364.41c4.8,1.28,8.15,7.25,12.69,14.62a50.86,50.86,0,0,1-7.48,13.78c-.57.73-1.25,1.55-2,2.44C221.51,385.19,222,366.83,214.17,364.41Z" fill="#e5e5e5"/><path d="M246.25,343.33c.25-3.34,1-6.2,2.48-6.69,2.56-.87,4.72,0,7.74.59,1.49.29,4.51.74,7.19,1.13-5.69,1.78-14.83,4.56-17.4,5Z" fill="#b7b7b7"/><path d="M230.43,553.33c-.71-6.33.38-20.33-.75-27.18-2.07-12.47-8.48-22.23-12.42-30.57a49.55,49.55,0,0,1-2.73-9.1c4.58,3.23,8.95,6.19,12.84,8.65,23.74,15,65.45,31.24,92.94,46.29-21.45-2.95-47.68-12-51.91-7.64-8.57,8.93-27,21.88-30.81,22C234.19,555.87,230.77,556.37,230.43,553.33Z" fill="#e5e5e5"/><path d="M160.83,442.36a39.25,39.25,0,0,0,3.77-5C169,431,176,419.65,180.08,410.76c3.25-7.12,7.71-20.65,11.42-31.37.86-2.46,1.67-4.77,2.42-6.82.47-1.27.91-2.44,1.32-3.48,1.13-2.87,2-4.79,2.6-5.21,2.54-1.86,8.49-1.88,16.2.49l.13,0c7.78,2.42,7.34,20.78,3.19,30.84-3.06,3.55-7.45,8.16-11.43,12.38-5.42,5.75-10.07,10.79-9.49,11.44,1.12,1.25,77.52,64.67,91.48,76.3s57.36,41.84,75.87,58S410.55,600,414.61,597c-5.53,4-13.63-5.23-22.93-11.51s-40.57-26.55-67.9-42.12c-1.13-.64-2.29-1.29-3.47-1.93-27.49-15-69.2-31.3-92.94-46.29-3.89-2.46-8.26-5.42-12.84-8.65-3.45-2.43-7-5-10.6-7.68-18.28-13.57-37-29-41.9-34.44C161,443.26,160.6,442.56,160.83,442.36Z" fill="#efefef"/><path d="M338.2,312h0Z" fill="#fef9f4"/><path d="M338.28,312a.36.36,0,0,1,.19.05.59.59,0,0,0-.27-.05Z" fill="#fef9f4"/><path d="M323.68,319.48a14.5,14.5,0,0,0-1.81-.74A8.17,8.17,0,0,1,323.68,319.48Z" fill="#fef9f4"/><path d="M317.3,318a62,62,0,0,0-7.37-.16c-3.26.12-9.41,0-16.27-.12,10.08-1.22,22.12-3.16,25.21-4.41,4.81-1.94,13.95-1.26,19.23-1.27-1.88.12-5.93,4.62-9.85,5.39A75.79,75.79,0,0,1,317.3,318Z" fill="#b7b7b7"/><path d="M323.68,319.48a4.6,4.6,0,0,1,1.42,1.16l-.26,0A2.5,2.5,0,0,0,323.68,319.48Z" fill="#fef9f4"/><path d="M414.8,596.79a.44.44,0,0,0,.08-.11l.08-.14a1,1,0,0,0,0-.1c2.09-5.31-16-38.08-25.94-59.81-10.41-22.66-20.67-57.76-28.34-80.89s-32.47-125.92-33.78-130.87a11.17,11.17,0,0,0-1.84-4.23,4.6,4.6,0,0,0-1.42-1.16,8.17,8.17,0,0,0-1.81-.74,24.69,24.69,0,0,0-4.57-.77,75.79,75.79,0,0,0,10.95-.57c3.92-.77,8-5.27,9.85-5.39h.1a.59.59,0,0,1,.27.05.67.67,0,0,1,.33.22c3.39,4.15,17.22,43.41,24.36,74.4s16.78,63.82,21,91.79c3.67,24.48,32.78,93.37,33.49,114.28.1,3-1.85,3.39-3,4.23A.86.86,0,0,0,414.8,596.79Z" fill="#e5e5e5"/><path d="M261.17,318.36c1.25-1.3,18.38-.94,32.49-.67,6.86.13,13,.24,16.27.12a62,62,0,0,1,7.37.16,24.69,24.69,0,0,1,4.57.77,14.5,14.5,0,0,1,1.81.74,2.5,2.5,0,0,1,1.16,1.2,2,2,0,0,1-.53,2c-2,2.52-9.76,3.46-17.67,4.41-3.63.44-7.28.88-10.42,1.47-5.35,1-17.09,4.82-28,8.32C264.72,330.34,259.75,319.84,261.17,318.36Z" fill="#e5e5e5"/><line x1="205.57" y1="369.2" x2="215.02" y2="379.66" fill="none" stroke="#231815" stroke-linecap="round" stroke-linejoin="round" stroke-width="2"/><path d="M323.68,319.48a14.5,14.5,0,0,0-1.81-.74A8.17,8.17,0,0,1,323.68,319.48Z" fill="none" stroke="#231815" stroke-linecap="round" stroke-linejoin="round" stroke-width="2"/><path d="M246.25,343.33c.25-3.34,1-6.2,2.48-6.69,2.56-.87,4.72,0,7.74.59,1.49.29,4.51.74,7.19,1.13-5.69,1.78-14.83,4.56-17.4,5Z" fill="none" stroke="#231815" stroke-linecap="round" stroke-linejoin="round" stroke-width="2"/><path d="M214.17,364.41h0l-.13,0c-1-.32-2-.59-3-.82-.37-.48-.18-1,.39-1.32,3.15-1.7,7.68,2.27,10.71,3.59.68.3,4.6,1.95,7.82,3.36C229,372.69,228,376,226.86,379,222.32,371.66,219,365.69,214.17,364.41Z" fill="#b7b7b7"/><path d="M218.61,369l.11.27Z" fill="none" stroke="#231815" stroke-linecap="round" stroke-linejoin="round" stroke-width="2"/><path d="M219,369.93c0,.08.05.17.08.25C219,370.1,219,370,219,369.93Z" fill="none" stroke="#231815" stroke-linecap="round" stroke-linejoin="round" stroke-width="2"/><path d="M217.78,367.4l.15.27Z" fill="none" stroke="#231815" stroke-linecap="round" stroke-linejoin="round" stroke-width="2"/><path d="M219.28,370.9l.06.23Z" fill="none" stroke="#231815" stroke-linecap="round" stroke-linejoin="round" stroke-width="2"/><path d="M219.55,371.92c0,.07,0,.14,0,.21S219.56,372,219.55,371.92Z" fill="none" stroke="#231815" stroke-linecap="round" stroke-linejoin="round" stroke-width="2"/><path d="M216.19,365.53l.22.2C216.33,365.67,216.26,365.59,216.19,365.53Z" fill="none" stroke="#231815" stroke-linecap="round" stroke-linejoin="round" stroke-width="2"/><polygon points="214.17 364.41 214.17 364.41 214.18 364.42 214.17 364.41" fill="none" stroke="#231815" stroke-linecap="round" stroke-linejoin="round" stroke-width="2"/><path d="M214.89,364.69l.22.12Z" fill="none" stroke="#231815" stroke-linecap="round" stroke-linejoin="round" stroke-width="2"/><path d="M216.76,366.07l.2.24Z" fill="none" stroke="#231815" stroke-linecap="round" stroke-linejoin="round" stroke-width="2"/><path d="M215.56,365.07l.24.17Z" fill="none" stroke="#231815" stroke-linecap="round" stroke-linejoin="round" stroke-width="2"/><path d="M219.77,373l0,.17Z" fill="none" stroke="#231815" stroke-linecap="round" stroke-linejoin="round" stroke-width="2"/><path d="M218.22,368.18c0,.09.08.18.13.27C218.3,368.36,218.26,368.27,218.22,368.18Z" fill="none" stroke="#231815" stroke-linecap="round" stroke-linejoin="round" stroke-width="2"/><path d="M220.21,376.48v0Z" fill="none" stroke="#231815" stroke-linecap="round" stroke-linejoin="round" stroke-width="2"/><path d="M217.47,367l-.18-.25Z" fill="none" stroke="#231815" stroke-linecap="round" stroke-linejoin="round" stroke-width="2"/><path d="M220.1,375.29v0Z" fill="none" stroke="#231815" stroke-linecap="round" stroke-linejoin="round" stroke-width="2"/><path d="M220,374.12l0,.13Z" fill="none" stroke="#231815" stroke-linecap="round" stroke-linejoin="round" stroke-width="2"/><path d="M215.8,365.24c.13.09.26.18.39.29C216.06,365.42,215.93,365.33,215.8,365.24Z" fill="none" stroke="#231815" stroke-linecap="round" stroke-linejoin="round" stroke-width="2"/><path d="M214.17,364.41h0l-.13,0c-1-.32-2-.59-3-.82-.37-.48-.18-1,.39-1.32,3.15-1.7,7.68,2.27,10.71,3.59.68.3,4.6,1.95,7.82,3.36C229,372.69,228,376,226.86,379,222.32,371.66,219,365.69,214.17,364.41Z" fill="none" stroke="#231815" stroke-linecap="round" stroke-linejoin="round" stroke-width="2"/><path d="M219.8,373.17c.06.31.11.63.16.95C219.91,373.8,219.86,373.48,219.8,373.17Z" fill="none" stroke="#231815" stroke-linecap="round" stroke-linejoin="round" stroke-width="2"/><path d="M216.41,365.73c.12.11.24.22.35.34C216.65,366,216.53,365.84,216.41,365.73Z" fill="none" stroke="#231815" stroke-linecap="round" stroke-linejoin="round" stroke-width="2"/><path d="M217.29,366.7a4,4,0,0,0-.33-.39A4,4,0,0,1,217.29,366.7Z" fill="none" stroke="#231815" stroke-linecap="round" stroke-linejoin="round" stroke-width="2"/><path d="M219.05,370.18c.08.24.16.48.23.72C219.21,370.66,219.13,370.42,219.05,370.18Z" fill="none" stroke="#231815" stroke-linecap="round" stroke-linejoin="round" stroke-width="2"/><path d="M219.59,372.13c.07.28.13.58.18.87C219.72,372.71,219.66,372.41,219.59,372.13Z" fill="none" stroke="#231815" stroke-linecap="round" stroke-linejoin="round" stroke-width="2"/><path d="M226.17,380.82h0c.24-.59.47-1.19.69-1.79C226.64,379.63,226.41,380.23,226.17,380.82Z" fill="none" stroke="#231815" stroke-linecap="round" stroke-linejoin="round" stroke-width="2"/><path d="M214.18,364.42a4.33,4.33,0,0,1,.71.27A4.33,4.33,0,0,0,214.18,364.42Z" fill="none" stroke="#231815" stroke-linecap="round" stroke-linejoin="round" stroke-width="2"/><path d="M215.11,364.81a4,4,0,0,1,.45.26A4,4,0,0,0,215.11,364.81Z" fill="none" stroke="#231815" stroke-linecap="round" stroke-linejoin="round" stroke-width="2"/><path d="M220.11,375.37c0,.37.07.74.1,1.11C220.18,376.11,220.15,375.74,220.11,375.37Z" fill="none" stroke="#231815" stroke-linecap="round" stroke-linejoin="round" stroke-width="2"/><path d="M217.47,367l.31.45Z" fill="none" stroke="#231815" stroke-linecap="round" stroke-linejoin="round" stroke-width="2"/><path d="M218.35,368.45c.09.19.18.38.26.57C218.53,368.83,218.44,368.64,218.35,368.45Z" fill="none" stroke="#231815" stroke-linecap="round" stroke-linejoin="round" stroke-width="2"/><path d="M218.72,369.29c.09.21.17.42.25.64C218.89,369.71,218.81,369.5,218.72,369.29Z" fill="none" stroke="#231815" stroke-linecap="round" stroke-linejoin="round" stroke-width="2"/><path d="M217.93,367.67c.1.17.2.33.29.51C218.13,368,218,367.84,217.93,367.67Z" fill="none" stroke="#231815" stroke-linecap="round" stroke-linejoin="round" stroke-width="2"/><path d="M219.34,371.13l.21.79Z" fill="none" stroke="#231815" stroke-linecap="round" stroke-linejoin="round" stroke-width="2"/><path d="M220.27,377.71c0-.4,0-.79-.06-1.18,0,.39,0,.78.06,1.18Z" fill="none" stroke="#231815" stroke-linecap="round" stroke-linejoin="round" stroke-width="2"/><path d="M220,374.25c0,.34.09.69.12,1C220.07,374.94,220,374.59,220,374.25Z" fill="none" stroke="#231815" stroke-linecap="round" stroke-linejoin="round" stroke-width="2"/><path d="M220.27,377.71c0-.4,0-.79-.06-1.18v0c0-.37-.06-.74-.1-1.11v-.08c0-.35-.08-.7-.12-1l0-.13c-.05-.32-.1-.64-.16-.95l0-.17c-.05-.29-.11-.59-.18-.87,0-.07,0-.14,0-.21l-.21-.79-.06-.23c-.07-.24-.15-.48-.23-.72,0-.08-.05-.17-.08-.25s-.16-.43-.25-.64l-.11-.27c-.08-.19-.17-.38-.26-.57s-.09-.18-.13-.27-.19-.34-.29-.51l-.15-.27-.31-.45-.18-.25a4,4,0,0,0-.33-.39l-.2-.24c-.11-.12-.23-.23-.35-.34l-.22-.2c-.13-.11-.26-.2-.39-.29l-.24-.17a4,4,0,0,0-.45-.26l-.22-.12a4.33,4.33,0,0,0-.71-.27h0c4.8,1.28,8.15,7.25,12.69,14.62-.22.6-.45,1.2-.69,1.79a49.72,49.72,0,0,1-6.79,12c-.57.73-1.25,1.55-2,2.44A44.92,44.92,0,0,0,220.27,377.71Z" fill="none" stroke="#231815" stroke-linecap="round" stroke-linejoin="round" stroke-width="2"/><path d="M230.43,553.33c-.71-6.33.38-20.33-.75-27.18-2.07-12.47-8.48-22.23-12.42-30.57a49.55,49.55,0,0,1-2.73-9.1c4.58,3.23,8.95,6.19,12.84,8.65,23.74,15,65.45,31.24,92.94,46.29-21.45-2.95-47.68-12-51.91-7.64-8.57,8.93-27,21.88-30.81,22C234.19,555.87,230.77,556.37,230.43,553.33Z" fill="none" stroke="#231815" stroke-linecap="round" stroke-linejoin="round" stroke-width="2"/><path d="M160.83,442.36a39.25,39.25,0,0,0,3.77-5C169,431,176,419.65,180.08,410.76c3.25-7.12,7.71-20.65,11.42-31.37.86-2.46,1.67-4.77,2.42-6.82.47-1.27.91-2.44,1.32-3.48,1.13-2.87,2-4.79,2.6-5.21,2.2-1.61,6.95-1.84,13.19-.33,1,.23,2,.5,3,.82l.13,0c4.05,1.26,5.87,6.83,6.1,13.3a44.92,44.92,0,0,1-2.91,17.54c-3.06,3.55-7.45,8.16-11.43,12.38-5.42,5.75-10.07,10.79-9.49,11.44,1.12,1.25,77.52,64.67,91.48,76.3s57.36,41.84,75.87,58S410.55,600,414.61,597c-5.53,4-13.63-5.23-22.93-11.51s-40.57-26.55-67.9-42.12c-1.13-.64-2.29-1.29-3.47-1.93-27.49-15-69.2-31.3-92.94-46.29-3.89-2.46-8.26-5.42-12.84-8.65-3.45-2.43-7-5-10.6-7.68-18.28-13.57-37-29-41.9-34.44C161,443.26,160.6,442.56,160.83,442.36Z" fill="none" stroke="#231815" stroke-linecap="round" stroke-linejoin="round" stroke-width="2"/><path d="M338.2,312h0Z" fill="none" stroke="#231815" stroke-linecap="round" stroke-linejoin="round" stroke-width="2"/><path d="M338.28,312a.36.36,0,0,1,.19.05.59.59,0,0,0-.27-.05Z" fill="none" stroke="#231815" stroke-linecap="round" stroke-linejoin="round" stroke-width="2"/><path d="M323.68,319.48a14.5,14.5,0,0,0-1.81-.74A8.17,8.17,0,0,1,323.68,319.48Z" fill="none" stroke="#231815" stroke-linecap="round" stroke-linejoin="round" stroke-width="2"/><path d="M317.3,318a62,62,0,0,0-7.37-.16c-3.26.12-9.41,0-16.27-.12,10.08-1.22,22.12-3.16,25.21-4.41,4.81-1.94,13.95-1.26,19.23-1.27-1.88.12-5.93,4.62-9.85,5.39A75.79,75.79,0,0,1,317.3,318Z" fill="none" stroke="#231815" stroke-linecap="round" stroke-linejoin="round" stroke-width="2"/><path d="M323.68,319.48a4.6,4.6,0,0,1,1.42,1.16l-.26,0A2.5,2.5,0,0,0,323.68,319.48Z" fill="none" stroke="#231815" stroke-linecap="round" stroke-linejoin="round" stroke-width="2"/><path d="M414.8,596.79a.44.44,0,0,0,.08-.11l.08-.14a1,1,0,0,0,0-.1c2.09-5.31-16-38.08-25.94-59.81-10.41-22.66-20.67-57.76-28.34-80.89s-32.47-125.92-33.78-130.87a11.17,11.17,0,0,0-1.84-4.23,4.6,4.6,0,0,0-1.42-1.16,8.17,8.17,0,0,0-1.81-.74,24.69,24.69,0,0,0-4.57-.77,75.79,75.79,0,0,0,10.95-.57c3.92-.77,8-5.27,9.85-5.39h.1a.59.59,0,0,1,.27.05.67.67,0,0,1,.33.22c3.39,4.15,17.22,43.41,24.36,74.4s16.78,63.82,21,91.79c3.67,24.48,32.78,93.37,33.49,114.28.1,3-1.85,3.39-3,4.23A.86.86,0,0,0,414.8,596.79Z" fill="none" stroke="#231815" stroke-linecap="round" stroke-linejoin="round" stroke-width="2"/><path d="M261.17,318.36c1.25-1.3,18.38-.94,32.49-.67,6.86.13,13,.24,16.27.12a62,62,0,0,1,7.37.16,24.69,24.69,0,0,1,4.57.77,14.5,14.5,0,0,1,1.81.74,2.5,2.5,0,0,1,1.16,1.2,2,2,0,0,1-.53,2c-2,2.52-9.76,3.46-17.67,4.41-3.63.44-7.28.88-10.42,1.47-5.35,1-17.09,4.82-28,8.32C264.72,330.34,259.75,319.84,261.17,318.36Z" fill="none" stroke="#231815" stroke-linecap="round" stroke-linejoin="round" stroke-width="2"/><path d="M245.07,361.29c9.59,13.12,60.6,86.25,77.88,106.55s55.78,75.48,68.42,95.09" fill="none" stroke="#231815" stroke-linecap="round" stroke-linejoin="round" stroke-width="2"/><path d="M205.93,407.63c4-4.22,8.37-8.83,11.43-12.38.77-.89,1.45-1.71,2-2.44a49.72,49.72,0,0,0,6.79-12c.24-.59.47-1.19.69-1.79C228,376,229,372.69,230,369.18c.32-1.16.63-2.36.94-3.58a24.07,24.07,0,0,0,.45-8.11c-.83-9-5.08-17.86-3.73-18.84,1.76-1.28,10.88,5.92,18.64,4.68h0c2.57-.41,11.71-3.19,17.4-5,2.3-.72,4-1.27,4.54-1.44,10.93-3.5,22.67-7.3,28-8.32,3.14-.59,6.79-1,10.42-1.47,7.91-.95,15.67-1.89,17.67-4.41,1.09-1.37.74-2.45-.63-3.24,1.31.7,2.34,1.91,3.26,5.39,1.31,4.95,26.11,107.74,33.78,130.87s17.93,58.23,28.34,80.89c10,21.73,28,54.5,25.94,59.81a1,1,0,0,1,0,.1l-.08.14a.44.44,0,0,1-.08.11.86.86,0,0,1-.19.19c-4.06,3-32.3-27.37-50.82-43.57s-61.9-46.4-75.87-58-90.36-75.05-91.48-76.3C195.86,418.42,200.51,413.38,205.93,407.63Z" fill="none" stroke="#231815" stroke-linecap="round" stroke-linejoin="round" stroke-width="2"/><path d="M216.38,553.57c0,3.52,17.48,7.69,39,7.69s39-4.17,39-7.69-17.48-6.37-39-6.37S216.38,550.05,216.38,553.57Z" fill="#fff8f3" stroke="#000" stroke-linecap="round" stroke-linejoin="round" stroke-width="2"/><path d="M212.38,491.78h.17c2.72,5.85,21.11,10.37,43.39,10.37,21.6,0,39.54-4.25,43.09-9.84h.25l-4.9,60.84a1.25,1.25,0,0,1,.08.42,1.18,1.18,0,0,1-.17.61l0,.27-.25.12c-2.86,3.27-19,6.69-38.6,6.69-21.56,0-39-4.17-39-7.69a.49.49,0,0,1,0-.12Z" opacity="0.4" fill="url(#未命名漸層_3)"/><line x1="216.41" y1="553.82" x2="212.38" y2="491.78" fill="none" stroke="#000" stroke-linecap="round" stroke-linejoin="round" stroke-width="2" stroke-dasharray="5.27"/><line x1="299.28" y1="492.31" x2="294.27" y2="554.45" fill="none" stroke="#000" stroke-linecap="round" stroke-linejoin="round" stroke-width="2" stroke-dasharray="5.27"/><ellipse cx="255.94" cy="490.28" rx="43.73" ry="11.87" fill="none" stroke="#000" stroke-linecap="round" stroke-linejoin="round" stroke-width="2" stroke-dasharray="5.27"/><ellipse cx="255.94" cy="490.28" rx="43.73" ry="11.87" opacity="0.4" fill="url(#未命名漸層_3-2)"/><line x1="220.99" y1="506.54" x2="224.51" y2="551.81" fill="#ff4b00" stroke="#fff" stroke-linecap="round" stroke-linejoin="round" stroke-width="2" opacity="0.47"/><path d="M255.88,561c16.52,0,30.89-2.48,38.33-6.15L289.77,610l-.08,2.16c0,4.76-15.58,8.62-34.79,8.62s-34.78-3.86-34.78-8.62L220,610l-3.63-55.78C223.37,558.27,238.43,561,255.88,561Z" fill="#fff8f3" stroke="#000" stroke-linecap="round" stroke-linejoin="round" stroke-width="2"/><path d="M216.35,554.26c4.5,2.57,12.31,4.63,21.93,5.78l3.49,60.14c-12.7-1.28-21.65-4.37-21.65-8L220,610Z" fill="#facf99" opacity="0.3"/><path d="M255.88,561c16.52,0,30.89-2.48,38.33-6.15L289.77,610l-.08,2.16c0,4.76-15.58,8.62-34.79,8.62s-34.78-3.86-34.78-8.62L220,610l-3.63-55.78C223.37,558.27,238.43,561,255.88,561Z" fill="none" stroke="#000" stroke-linecap="round" stroke-linejoin="round" stroke-width="2"/><path d="M257.11,617.23a20.08,20.08,0,0,1-4.58.27" fill="none" stroke="#000" stroke-linecap="round" stroke-linejoin="round" stroke-width="2"/><path d="M249.84,617.49s-15.06,0-26.93-6.12" fill="none" stroke="#000" stroke-linecap="round" stroke-linejoin="round" stroke-width="2"/><path d="M214.33,531.78,216,571.2c0,5.6,19.33,11.13,42,11.13s40-5.53,40-11.13l1.71-39.42c0-.11,0-.22,0-.33,0-5.84-19.12-10.57-42.7-10.57s-42.7,4.73-42.7,10.57A1.83,1.83,0,0,0,214.33,531.78Z" fill="#da9225" stroke="#000" stroke-linecap="round" stroke-linejoin="round" stroke-width="2"/><path d="M258,582.33c-22.63,0-42-5.53-42-11.13l-1.46-33.88c2.34-5.29,20.45-9.41,42.44-9.41s40.09,4.12,42.44,9.41L298,571.2C298,576.8,280.62,582.33,258,582.33Z" fill="#bf7c1c"/><path d="M214.33,531.78,216,571.2c0,5.6,19.33,11.13,42,11.13s40-5.53,40-11.13l1.71-39.42c0-.11,0-.22,0-.33,0-5.84-19.12-10.57-42.7-10.57s-42.7,4.73-42.7,10.57A1.83,1.83,0,0,0,214.33,531.78Z" fill="none" stroke="#000" stroke-linecap="round" stroke-linejoin="round" stroke-width="2"/><path d="M213.26,490.46h.17c2.72,5.85,21.11,10.37,43.39,10.37,21.6,0,39.54-4.25,43.09-9.84h.25l-4.9,60.84a1.25,1.25,0,0,1,.08.42,1.28,1.28,0,0,1-.17.61l0,.27-.25.12c-2.86,3.27-19,6.7-38.6,6.7-21.56,0-39-4.18-39-7.7a.37.37,0,0,1,0-.11Z" opacity="0.4" fill="url(#未命名漸層_3-3)"/><line x1="217.29" y1="552.5" x2="213.26" y2="490.46" fill="none" stroke="#000" stroke-linecap="round" stroke-linejoin="round" stroke-width="2" stroke-dasharray="5.27"/><line x1="300.16" y1="490.99" x2="295.15" y2="553.13" fill="none" stroke="#000" stroke-linecap="round" stroke-linejoin="round" stroke-width="2" stroke-dasharray="5.27"/><ellipse cx="256.82" cy="488.96" rx="43.73" ry="11.87" fill="none" stroke="#000" stroke-linecap="round" stroke-linejoin="round" stroke-width="2" stroke-dasharray="5.27"/><ellipse cx="256.82" cy="488.96" rx="43.73" ry="11.87" opacity="0.4" fill="url(#未命名漸層_3-4)"/><path d="M295.15,554.23c-7.44,3.67-21.82,6.15-38.33,6.15-17.45,0-32.51-2.77-39.53-6.78l-4.13-63.54h87.16Z" fill="#fff8f3" stroke="#000" stroke-linecap="round" stroke-linejoin="round" stroke-width="2"/><path d="M239.3,559.39c-9.66-1.14-17.5-3.21-22-5.79l-4.13-63.54h22.12Z" fill="#facf99" opacity="0.3"/><path d="M295.15,554.23c-7.44,3.67-21.82,6.15-38.33,6.15-17.45,0-32.51-2.77-39.53-6.78l-4.13-63.54h87.16Z" fill="none" stroke="#000" stroke-linecap="round" stroke-linejoin="round" stroke-width="2"/><ellipse cx="256.82" cy="490.5" rx="43.73" ry="11.87" fill="#f6bea3" stroke="#000" stroke-linecap="round" stroke-linejoin="round" stroke-width="2"/><path d="M225.43,500.59c-9.23-2.51-14.11-6-14.11-10.09s4.88-7.59,14.11-10.09c8.41-2.28,19.55-3.54,31.39-3.54s23,1.26,31.38,3.54c9.23,2.5,14.11,6,14.11,10.09s-4.88,7.58-14.11,10.09c-8.4,2.28-19.55,3.53-31.38,3.53S233.84,502.87,225.43,500.59Zm.92-16.79c-8.5,2.31-11.51,5.05-11.51,6.7s3,4.39,11.51,6.69c8.12,2.2,18.93,3.42,30.47,3.42s22.35-1.22,30.46-3.42c8.5-2.3,11.51-5.05,11.51-6.69s-3-4.39-11.51-6.7c-8.11-2.2-18.93-3.41-30.46-3.41S234.47,481.6,226.35,483.8Z" fill="#fff8f3" stroke="#000" stroke-linecap="round" stroke-linejoin="round" stroke-width="2"/><path d="M257,547c23.21,0,42.1-5.28,42.68-11L298,575.59c0,5.61-17.36,11.14-40,11.14s-42-5.53-42-11.14L214.32,536C214.9,541.7,232.69,547,257,547Z" fill="#ffd036" stroke="#000" stroke-linecap="round" stroke-linejoin="round" stroke-width="2"/><line x1="220.26" y1="545.78" x2="220.65" y2="574.73" fill="#ffd036" stroke="#000" stroke-linecap="round" stroke-linejoin="round" stroke-width="2"/><line x1="226.82" y1="548.34" x2="226.75" y2="578.11" fill="#ffd036" stroke="#000" stroke-linecap="round" stroke-linejoin="round" stroke-width="2"/><line x1="233.38" y1="550.08" x2="233.75" y2="580.27" fill="#ffd036" stroke="#000" stroke-linecap="round" stroke-linejoin="round" stroke-width="2"/><path d="M209.29,491.78l3.91-8.14c0-6,19.51-10.79,43.58-10.79s43.58,4.83,43.58,10.79l3.91,8.14a4.14,4.14,0,0,1,1.37,2.85c0,6.68-21.88,12.09-48.86,12.09s-48.85-5.41-48.85-12.09A4.12,4.12,0,0,1,209.29,491.78Z" fill="#4f4f4f" stroke="#000" stroke-linecap="round" stroke-linejoin="round" stroke-width="2"/><path d="M300.74,494.67s-5.28,6.14-34.29,7.91a141.83,141.83,0,0,1-19.34,0c-29-1.85-34.28-7.91-34.28-7.91" fill="none" stroke="#000" stroke-linecap="round" stroke-linejoin="round" stroke-width="2"/><path d="M257.66,490c-15.66,0-29.33-1.94-36.63-4.81a1.71,1.71,0,0,1-.4-3.17c5.19-3.13,19.87-5.38,37.16-5.38,17.14,0,31.71,2.21,37,5.3a1.71,1.71,0,0,1-.34,3.18C287.21,488,273.44,490,257.66,490Z" fill="#666"/><path d="M216.38,483.83s4.25,5.72,40.36,5.72h.08c36.11,0,40.36-5.72,40.36-5.72" fill="none" stroke="#000" stroke-linecap="round" stroke-linejoin="round" stroke-width="2"/><path d="M209.29,491.78l3.91-8.14c0-6,19.51-10.79,43.58-10.79s43.58,4.83,43.58,10.79l3.91,8.14a4.14,4.14,0,0,1,1.37,2.85c0,6.68-21.88,12.09-48.86,12.09s-48.85-5.41-48.85-12.09A4.12,4.12,0,0,1,209.29,491.78Z" fill="none" stroke="#000" stroke-linecap="round" stroke-linejoin="round" stroke-width="2"/><path d="M295.84,483.23s-6.77-7.75-39.29-7" fill="none" stroke="#000" stroke-linecap="round" stroke-linejoin="round" stroke-width="2"/><path d="M228.51,480.17v-6.71a1.53,1.53,0,0,1,1.26-1.51l5.88-1a1.53,1.53,0,0,1,1.61.78l2.67,7.1" fill="gray" stroke="#000" stroke-miterlimit="10" stroke-width="2"/><polyline points="232.62 480.17 231.25 474.23 229.88 473.31" fill="none" stroke="#000" stroke-linecap="round" stroke-linejoin="round" stroke-width="2"/><line x1="236.28" y1="473.31" x2="231.25" y2="474.23" fill="#fff8f3" stroke="#000" stroke-linecap="round" stroke-linejoin="round" stroke-width="2"/><path d="M487,417.22a5.3,5.3,0,0,0,.45-.34,1.67,1.67,0,0,0,.72-1,1.83,1.83,0,0,0-.3-1.08c-3.47-6.38-10.31-9.54-16.65-11.39-1.84-.53-3.69-1-5.56-1.41-11.13-2.46-25.83-3.84-41.49-3.89s-30.36,1.43-41.49,3.89c-1.86.42-3.72.88-5.56,1.41-5.18,1.51-10.45,3.4-13.93,7.94l-1.47,1.92a2.61,2.61,0,0,0,.79,4.17,23.52,23.52,0,0,0,2.77,1.22,10,10,0,0,1,4.15,3.51c2.31,3.39,6.53,3,10,4,3.07.84,5.91,2.69,9.06,3,2.24.22,4.49-.35,6.74-.24,3.36.17,6.53,1.85,9.89,2.09,2.13.15,4.29-.29,6.41.05,2.37.37,4.56,1.68,6.95,1.95a13.46,13.46,0,0,0,3.23-.13,18,18,0,0,1,4.86,0,13.48,13.48,0,0,0,3.23.13c2.39-.27,4.58-1.58,7-1.95,2.11-.34,4.27.1,6.4-.05,3.36-.24,6.53-1.92,9.9-2.09,2.24-.11,4.49.46,6.73.24,3.16-.32,6-2.17,9.06-3,2.89-.8,6.08-.72,8.62-2.41,1.84-1.22,3.22-3.14,5.06-4.32a20.58,20.58,0,0,1,2.7-1.24A10.74,10.74,0,0,0,487,417.22Z" stroke="#fff" stroke-miterlimit="10" stroke-width="2" opacity="0.62" fill="url(#未命名漸層_6)"/><path d="M487,417.22a5.3,5.3,0,0,0,.45-.34,1.67,1.67,0,0,0,.72-1,1.83,1.83,0,0,0-.3-1.08c-3.47-6.38-10.31-9.54-16.65-11.39-1.84-.53-3.69-1-5.56-1.41-11.13-2.46-25.83-3.84-41.49-3.89s-30.36,1.43-41.49,3.89c-1.86.42-3.72.88-5.56,1.41-3.33,1-9.11,2.16-11.36,5.29-.76,1.07-1.07,2.47-1.91,3.47-.6.73-1.47,1.27-1.71,2.2-.36,1.35.79,2.57,1.82,3.43,1.28,1.07,2.62,1.72,3.92,2.65s1.93,2.5,3.24,3.41c2.45,1.7,5.6,1.55,8.34,2.3,3.07.84,5.91,2.69,9.06,3,2.24.22,4.49-.35,6.74-.24,3.36.17,6.53,1.85,9.89,2.09,2.13.15,4.29-.29,6.41.05,2.37.37,4.56,1.68,6.95,1.95a13.46,13.46,0,0,0,3.23-.13,18,18,0,0,1,4.86,0,13.48,13.48,0,0,0,3.23.13c2.39-.27,4.58-1.58,7-1.95,2.11-.34,4.27.1,6.4-.05,3.36-.24,6.53-1.92,9.9-2.09,2.24-.11,4.49.46,6.73.24,3.16-.32,6-2.17,9.06-3,2.89-.8,6.08-.72,8.62-2.41,1.84-1.22,3.22-3.14,5.06-4.32a20.58,20.58,0,0,1,2.7-1.24A10.74,10.74,0,0,0,487,417.22Z" fill="none" stroke="#040204" stroke-linecap="round" stroke-linejoin="round" stroke-width="2"/><path d="M424.36,427.13c-14.78,0-28.69-1.19-39.17-3.35-11.78-2.44-17.51-5.63-17.51-9.77s5.73-7.34,17.51-9.77c10.48-2.16,24.39-3.36,39.17-3.36s28.68,1.2,39.17,3.36c11.77,2.43,17.5,5.63,17.5,9.77s-5.73,7.33-17.5,9.77C453,425.94,439.13,427.13,424.36,427.13Zm0-22.67c-14.55,0-28.2,1.17-38.45,3.29-14.48,3-14.65,6.23-14.65,6.26s.17,3.27,14.65,6.26c10.25,2.12,23.9,3.28,38.45,3.28s28.19-1.16,38.44-3.28c14.48-3,14.65-6.23,14.65-6.26s-.17-3.27-14.65-6.26C452.55,405.63,438.9,404.46,424.36,404.46Z" fill="#efefef" stroke="#040204" stroke-linecap="round" stroke-linejoin="round" stroke-width="2"/><path d="M423.8,338.33,399.75,606.87h.05c.36,1.59,4,3.17,8.61,3.62s8.46-.37,9.09-1.87h.06L441.61,340.1Z" fill="#ffd036" stroke="#040204" stroke-linecap="round" stroke-linejoin="round" stroke-width="2"/><path d="M408.26,610.54c4.39.36,8-.46,8.64-1.91H417L441,339.92l-6-.6Z" fill="#d2a412" opacity="0.59"/><path d="M423.8,338.33,399.75,606.87h.05c.36,1.59,4,3.17,8.61,3.62s8.46-.37,9.09-1.87h.06L441.61,340.1Z" fill="none" stroke="#040204" stroke-linecap="round" stroke-linejoin="round" stroke-width="2"/><ellipse cx="432.68" cy="339.48" rx="3.1" ry="8.95" transform="translate(51.73 736.14) rotate(-84.28)" fill="#d2a412" stroke="#040204" stroke-miterlimit="10" stroke-width="2"/><ellipse cx="432.68" cy="339.48" rx="1.93" ry="6.6" transform="translate(51.89 736.3) rotate(-84.3)" fill="#ffd036"/><path d="M454,405.66c4.45.46,29.84,3.46,21.95,10.34a9.63,9.63,0,0,1-3.33,1.84c-4.13,1.4-16.49,4.77-40.79,5.12-.21,0-.25-.25,0-.28,5.71-.78,20.44-3.05,27.28-6.44,2.92-1.44,3.25-4.77.65-6.57-1.41-1-3.36-2.27-5.84-3.76C453.73,405.82,453.81,405.64,454,405.66Z" fill="#00ace7" opacity="0.26"/><path d="M463.53,423.78c-10.49,2.16-24.4,3.35-39.17,3.35s-28.69-1.19-39.17-3.35c-7.75-1.6-12.88-3.53-15.48-5.85,0,.57.08,1.13.13,1.69.11,1.42.21,2.85.32,4.27.13,1.68.26,3.36.38,5q.22,2.81.43,5.59l.45,5.94q.24,3,.46,6.08l.46,6c.15,1.92.29,3.83.44,5.75.13,1.75.26,3.51.4,5.27.11,1.53.23,3.06.35,4.58.09,1.24.18,2.47.28,3.7.06.87.13,1.74.2,2.61,0,.51.08,1,.15,1.51a4.73,4.73,0,0,0,.24,1.36c.88,1.92,2.68,2.29,4.32,2.94l0,0c.05.75.11,1.5.17,2.24l.78,10.09c.28,3.67.57,7.35.85,11q.46,5.85.91,11.7.47,6,.94,12.1t.95,12.22l.93,12.08.9,11.65q.44,5.48.85,11c.26,3.33.52,6.65.77,10l.68,8.73c.19,2.41.37,4.81.56,7.22l.42,5.42c.09,1.12.17,2.23.26,3.35s0,2.06.67,2.82a3.49,3.49,0,0,0,.35.32,12.33,12.33,0,0,0,5.24,2.37,64.31,64.31,0,0,0,6.41,1.28,147.75,147.75,0,0,0,17.44,1.48c1.83.06,3.67.09,5.51.1s3.67,0,5.5-.1a147.75,147.75,0,0,0,17.44-1.48,64.31,64.31,0,0,0,6.41-1.28A12.33,12.33,0,0,0,459,612.2a3.49,3.49,0,0,0,.35-.32c.71-.76.59-1.81.67-2.82s.17-2.23.26-3.35l.42-5.42c.19-2.41.37-4.81.56-7.22l.68-8.73c.25-3.33.51-6.65.77-10,.28-3.65.57-7.3.85-11l.9-11.65q.46-6,.94-12.08t.94-12.22q.48-6,.94-12.1.45-5.85.91-11.7c.28-3.68.57-7.36.85-11l.78-10.09.18-2.24,0,0c1.69-.66,3.68-1.08,4.37-3.25a10.87,10.87,0,0,0,.33-2.55c.07-.87.15-1.75.21-2.62.1-1.23.19-2.46.28-3.7.12-1.52.24-3.05.35-4.58.14-1.76.27-3.52.4-5.27.15-1.92.29-3.83.44-5.75l.46-6c.15-2,.31-4.05.46-6.08l.45-5.94q.21-2.79.43-5.59c.12-1.68.25-3.36.38-5,.11-1.42.22-2.85.32-4.27.05-.56.09-1.12.13-1.69C476.4,420.25,471.27,422.18,463.53,423.78Z" fill="#fff" stroke="#040204" stroke-linecap="round" stroke-linejoin="round" stroke-width="2"/><g clip-path="url(#clip-path)"><path d="M424.36,427.13c-14.78,0-28.69-1.19-39.17-3.35-11.78-2.44-17.51-5.63-17.51-9.77s5.73-7.34,17.51-9.77c10.48-2.16,24.39-3.36,39.17-3.36s28.68,1.2,39.17,3.36c11.77,2.43,17.5,5.63,17.5,9.77s-5.73,7.33-17.5,9.77C453,425.94,439.13,427.13,424.36,427.13Zm0-22.67c-14.55,0-28.2,1.17-38.45,3.29-14.48,3-14.65,6.23-14.65,6.26s.17,3.27,14.65,6.26c10.25,2.12,23.9,3.28,38.45,3.28s28.19-1.16,38.44-3.28c14.48-3,14.65-6.23,14.65-6.26s-.17-3.27-14.65-6.26C452.55,405.63,438.9,404.46,424.36,404.46Z" fill="#efefef" stroke="#040204" stroke-linecap="round" stroke-linejoin="round" stroke-width="2"/></g><g clip-path="url(#clip-path-2)"><path d="M487,417.22a5.3,5.3,0,0,0,.45-.34,1.67,1.67,0,0,0,.72-1,1.83,1.83,0,0,0-.3-1.08c-3.47-6.38-10.31-9.54-16.65-11.39-1.84-.53-3.69-1-5.56-1.41-11.13-2.46-25.83-3.84-41.49-3.89s-30.36,1.43-41.49,3.89c-1.86.42-3.72.88-5.56,1.41-5.18,1.51-10.45,3.4-13.93,7.94l-1.47,1.92a2.61,2.61,0,0,0,.79,4.17,23.52,23.52,0,0,0,2.77,1.22,10,10,0,0,1,4.15,3.51c2.31,3.39,6.53,3,10,4,3.07.84,5.91,2.69,9.06,3,2.24.22,4.49-.35,6.74-.24,3.36.17,6.53,1.85,9.89,2.09,2.13.15,4.29-.29,6.41.05,2.37.37,4.56,1.68,6.95,1.95a13.46,13.46,0,0,0,3.23-.13,18,18,0,0,1,4.86,0,13.48,13.48,0,0,0,3.23.13c2.39-.27,4.58-1.58,7-1.95,2.11-.34,4.27.1,6.4-.05,3.36-.24,6.53-1.92,9.9-2.09,2.24-.11,4.49.46,6.73.24,3.16-.32,6-2.17,9.06-3,2.89-.8,6.08-.72,8.62-2.41,1.84-1.22,3.22-3.14,5.06-4.32a20.58,20.58,0,0,1,2.7-1.24A10.74,10.74,0,0,0,487,417.22Z" stroke="#fff" stroke-miterlimit="10" stroke-width="2" opacity="0.62" fill="url(#未命名漸層_6)"/><path d="M487,417.22a5.3,5.3,0,0,0,.45-.34,1.67,1.67,0,0,0,.72-1,1.83,1.83,0,0,0-.3-1.08c-3.47-6.38-10.31-9.54-16.65-11.39-1.84-.53-3.69-1-5.56-1.41-11.13-2.46-25.83-3.84-41.49-3.89s-30.36,1.43-41.49,3.89c-1.86.42-3.72.88-5.56,1.41-3.33,1-9.11,2.16-11.36,5.29-.76,1.07-1.07,2.47-1.91,3.47-.6.73-1.47,1.27-1.71,2.2-.36,1.35.79,2.57,1.82,3.43,1.28,1.07,2.62,1.72,3.92,2.65s1.93,2.5,3.24,3.41c2.45,1.7,5.6,1.55,8.34,2.3,3.07.84,5.91,2.69,9.06,3,2.24.22,4.49-.35,6.74-.24,3.36.17,6.53,1.85,9.89,2.09,2.13.15,4.29-.29,6.41.05,2.37.37,4.56,1.68,6.95,1.95a13.46,13.46,0,0,0,3.23-.13,18,18,0,0,1,4.86,0,13.48,13.48,0,0,0,3.23.13c2.39-.27,4.58-1.58,7-1.95,2.11-.34,4.27.1,6.4-.05,3.36-.24,6.53-1.92,9.9-2.09,2.24-.11,4.49.46,6.73.24,3.16-.32,6-2.17,9.06-3,2.89-.8,6.08-.72,8.62-2.41,1.84-1.22,3.22-3.14,5.06-4.32a20.58,20.58,0,0,1,2.7-1.24A10.74,10.74,0,0,0,487,417.22Z" fill="none" stroke="#040204" stroke-linecap="round" stroke-linejoin="round" stroke-width="2"/></g><path d="M393,406.85c-8.15.86-41.29,5.07-5.24,13.71.21.05.32-.17.13-.25-5.49-2.08-15.75-7.47,5.18-13.19C393.24,407.06,393.18,406.83,393,406.85Z" fill="#00ace7" opacity="0.26"/><path d="M437.48,486.19l2.39,127.66a91,91,0,0,0,16.1-3L467.9,481.42A187.32,187.32,0,0,1,437.48,486.19Z" fill="#f1f1f1"/><path d="M475.06,428.33,471,474.14a2.35,2.35,0,0,1-1.44,2c-2,.83-6.49,2.32-15.39,3.53" fill="none" stroke="#f1f1f1" stroke-linecap="round" stroke-linejoin="round" stroke-width="2"/><path d="M378.76,480.31s40.23,12.94,91.19,0" fill="none" stroke="#040204" stroke-linecap="round" stroke-linejoin="round" stroke-width="2"/><path d="M393.32,596.14A151.29,151.29,0,0,0,406,608" fill="none" stroke="#f1f1f1" stroke-linecap="round" stroke-linejoin="round" stroke-width="2"/><path d="M395.23,588.07A83.9,83.9,0,0,0,422.72,609" fill="none" stroke="#f1f1f1" stroke-linecap="round" stroke-linejoin="round" stroke-width="2"/><path d="M585.16,517.38c3.05,6.34,6.67,18.57-2.66,30.22a10.31,10.31,0,0,1-9.28,3.75l-38.83-4.61a5.34,5.34,0,0,1-4.5-3.77c-1.88-6.23-4.37-20,5-32.43a5.3,5.3,0,0,1,4.8-2.05l38.63,4A8.64,8.64,0,0,1,585.16,517.38Z" fill="#f1f1f1" stroke="#040204" stroke-linecap="round" stroke-linejoin="round" stroke-width="2"/><path d="M541.49,513.47a27.47,27.47,0,0,1,3.13,14.88,18.26,18.26,0,0,1-8.39,14.73" fill="#f1f1f1" stroke="#040204" stroke-linecap="round" stroke-linejoin="round" stroke-width="2"/><path d="M544.38,512.09l31,3.18A10.21,10.21,0,0,1,583.6,521a21.06,21.06,0,0,1,1.88,10.27" fill="none" stroke="#e5e5e5" stroke-linecap="round" stroke-linejoin="round" stroke-width="2"/><path d="M540.2,545.29l32.74,3.85a11,11,0,0,0,10.41-6.57" fill="none" stroke="#e5e5e5" stroke-linecap="round" stroke-linejoin="round" stroke-width="2"/><path d="M447,498.65c7,0,19.63,2.05,26.08,15.51a10.32,10.32,0,0,1-.64,10l-21,33a5.36,5.36,0,0,1-5.35,2.43c-6.43-1-20-4.76-27.07-18.53a5.36,5.36,0,0,1,.23-5.23l20.39-33A8.67,8.67,0,0,1,447,498.65Z" fill="#f1f1f1" stroke="#040204" stroke-linecap="round" stroke-linejoin="round" stroke-width="2"/><path d="M424.55,536.3a27.47,27.47,0,0,1,14.77,3.64A18.26,18.26,0,0,1,449,553.89" fill="#f1f1f1" stroke="#040204" stroke-linecap="round" stroke-linejoin="round" stroke-width="2"/><path d="M424.56,533.09l16.34-26.58a10.21,10.21,0,0,1,8.72-4.88,21.11,21.11,0,0,1,10.06,2.76" fill="none" stroke="#e5e5e5" stroke-linecap="round" stroke-linejoin="round" stroke-width="2"/><path d="M452.67,551.27l17.67-27.83a11,11,0,0,0-1.4-12.23" fill="none" stroke="#e5e5e5" stroke-linecap="round" stroke-linejoin="round" stroke-width="2"/><path d="M512.63,540.13c1.22-6.93,1.39-19.68-10.75-28.38a10.33,10.33,0,0,0-9.94-1.1l-36.14,15a5.34,5.34,0,0,0-3.31,4.85c-.12,6.51,1.22,20.47,13.54,29.87a5.32,5.32,0,0,0,5.19.68l36.08-14.33A8.65,8.65,0,0,0,512.63,540.13Z" fill="#f1f1f1" stroke="#040204" stroke-linecap="round" stroke-linejoin="round" stroke-width="2"/><path d="M471.65,555.72a27.55,27.55,0,0,0-1-15.18,18.28,18.28,0,0,0-12.07-11.91" fill="#f1f1f1" stroke="#040204" stroke-linecap="round" stroke-linejoin="round" stroke-width="2"/><path d="M472.89,480.71c.43-.42.87-.83,1.31-1.23a24.72,24.72,0,0,1,10.37-5.89,10.13,10.13,0,0,1,4.38-.16,13.12,13.12,0,0,1,4.57,2.33l5.75,3.92,6.93,4.74c2.89,2,5.9,3.77,8.64,5.92A7.63,7.63,0,0,1,517,492.4c3.23,5.42-.81,16.26-9,24.27-7,6.9-14.87,9.41-19,6.5L464.65,506.5h0a5.31,5.31,0,0,1-1.57-1.66C460,499.57,465,488.48,472.89,480.71Z" fill="#f1f1f1" stroke="#040204" stroke-linecap="round" stroke-linejoin="round" stroke-width="2"/><path d="M488.05,478.88a23.13,23.13,0,0,1-4.26,13.72,36.92,36.92,0,0,1-10.59,9.94,10.49,10.49,0,0,1-4.53,1.91" fill="none" stroke="#040204" stroke-linecap="round" stroke-linejoin="round" stroke-width="2"/><path d="M503.61,565.57c-3.85-5.89-9-17.55-1.29-30.31a10.34,10.34,0,0,1,8.71-4.93l39.11-.47a5.35,5.35,0,0,1,5,3.16c2.67,5.93,6.94,19.3-.7,32.79a5.3,5.3,0,0,1-4.49,2.67l-38.82,1A8.63,8.63,0,0,1,503.61,565.57Z" fill="#f1f1f1" stroke="#040204" stroke-linecap="round" stroke-linejoin="round" stroke-width="2"/><path d="M547.42,563.78a27.48,27.48,0,0,1-5-14.35,18.29,18.29,0,0,1,6.41-15.7" fill="#f1f1f1" stroke="#040204" stroke-linecap="round" stroke-linejoin="round" stroke-width="2"/><line x1="513.17" y1="492.34" x2="491.09" y2="477.03" fill="#f1f1f1" stroke="#e5e5e5" stroke-linecap="round" stroke-linejoin="round" stroke-width="2"/><line x1="528.51" y1="482.19" x2="512.04" y2="507.88" fill="#f1f1f1" stroke="#e5e5e5" stroke-linecap="round" stroke-linejoin="round" stroke-width="2"/><path d="M506.76,520.63s-13.18,13.18-26.37-1.32" fill="none" stroke="#e5e5e5" stroke-linecap="round" stroke-linejoin="round" stroke-width="2"/><path d="M544.73,565.52l-31.19.88a10.21,10.21,0,0,1-8.85-4.63,20.88,20.88,0,0,1-3.2-9.94" fill="none" stroke="#e5e5e5" stroke-linecap="round" stroke-linejoin="round" stroke-width="2"/><path d="M544.56,532.05l-33,.44a11,11,0,0,0-9.47,7.87" fill="none" stroke="#e5e5e5" stroke-linecap="round" stroke-linejoin="round" stroke-width="2"/><path d="M545,483.64c-.56-.22-1.12-.43-1.69-.62a24.71,24.71,0,0,0-11.86-1.34,10.14,10.14,0,0,0-4.08,1.58,13,13,0,0,0-3.29,3.94l-3.74,5.87-4.51,7.08c-1.88,3-3.94,5.79-5.61,8.84a7.77,7.77,0,0,0-1.16,2.73c-.83,6.26,7.15,14.63,17.81,18.79,9.19,3.57,17.37,2.79,20-1.5l15.85-24.91h0a5.06,5.06,0,0,0,.78-2.14C564.31,495.88,555.34,487.66,545,483.64Z" fill="#f1f1f1" stroke="#040204" stroke-linecap="round" stroke-linejoin="round" stroke-width="2"/><path d="M530.35,487.91a23.18,23.18,0,0,0,9.32,10.95,36.79,36.79,0,0,0,13.64,5,10.36,10.36,0,0,0,4.92,0" fill="none" stroke="#040204" stroke-linecap="round" stroke-linejoin="round" stroke-width="2"/><path d="M530.2,484.81a11.24,11.24,0,0,0-3.5,3.84q-7,10.65-13.07,21.87a5.56,5.56,0,0,0-1,3.61" fill="#f1f1f1" stroke="#e5e5e5" stroke-linecap="round" stroke-linejoin="round" stroke-width="2"/><path d="M460.92,484.82c4.35-1.9,15.28,8.89,24.74,24.54s13.93,30.33,10.22,33.31a2.15,2.15,0,0,1-.24.18l0,0-35.37,21.37c2.74-3.93-1.79-18-10.84-33s-19.4-25.53-24.15-24.93L460.64,485A1.22,1.22,0,0,1,460.92,484.82Z" fill="#d0953e"/><path d="M460.92,484.82c4.35-1.9,15.28,8.89,24.74,24.54s13.93,30.33,10.22,33.31a2.15,2.15,0,0,1-.24.18l0,0-35.37,21.37c2.74-3.93-1.79-18-10.84-33s-19.4-25.53-24.15-24.93L460.64,485A1.22,1.22,0,0,1,460.92,484.82Z" fill="none" stroke="#231815" stroke-linecap="round" stroke-linejoin="round" stroke-width="2"/><ellipse cx="346.88" cy="593.16" rx="8.99" ry="30.47" transform="translate(-256.8 264.94) rotate(-31.15)" fill="#f0f0f0"/><path d="M532.65,481c-3.72-6.16-5.4-12-3.81-13.08l.12-.07c1.72-.89,6.08,3.3,9.8,9.46s5.44,12.06,3.78,13.11l0,0C540.81,491.37,536.41,487.16,532.65,481Z" fill="#f0f0f0"/><polygon points="528.43 498.9 528.43 498.89 528.43 498.9 528.43 498.9" fill="#f0f0f0"/><path d="M464.87,482.12c1.62-1,16.11-10.42,30.43-6.89s15.3,3.66,17.17,2.53l.09-.05,2.25-1.36,2.24-1.36,11.79-7.12,0,0,.07,0c1.72-.89,6.08,3.3,9.8,9.46s5.44,12.06,3.78,13.11h0l-11.83,7.15-2.25,1.35h0l-2.25,1.35-.09.06c-2.82,1.7-2.34,2.61-5.74,16.37-3.45,14-18.31,22.58-20.24,23.75s-4.61,2.5-4.61,2.5l-36.2,21.88s-2.36,1.71-3.42,2.35l-88,53.18c-8.4,5.07-21.33-10.32-28.68-22.48s-15-30.76-6.56-35.83l88-53.18c1.06-.64,3.67-1.94,3.67-1.94L460.51,485S462.93,483.29,464.87,482.12Z" fill="#f8f8f8" opacity="0.95"/><path d="M517.49,474.73l-2.25,1.35h0c-1.34.81.63,6.51,4.4,12.74s7.88,10.61,9.22,9.81h0l2.25-1.36c.42,2.12.27,3.62-.58,4.13s-2.24,0-3.92-1.41A49.64,49.64,0,0,1,513,477.44c-.43-2.11-.27-3.61.57-4.12S515.82,473.37,517.49,474.73Z" fill="#fff"/><ellipse cx="348.64" cy="592.1" rx="8.2" ry="27.78" transform="translate(-256 265.69) rotate(-31.15)" fill="#231815" opacity="0.08" style="mix-blend-mode:multiply"/><ellipse cx="348.64" cy="592.1" rx="2.56" ry="8.68" transform="translate(-256 265.69) rotate(-31.15)" fill="#231815" opacity="0.05" style="mix-blend-mode:multiply"/><path d="M423.48,507.84a6.75,6.75,0,0,0-.59,3.64,15,15,0,0,0-2.39,1l-82.83,50.06c-7.86,4.75-1,21.74,5.7,32.81s18.54,25.06,26.4,20.3l82.83-50.06a15.29,15.29,0,0,0,2-1.65,6.74,6.74,0,0,0,3.5,1.18l.2,0a17.85,17.85,0,0,1-2.42,2.06l-88,53.18c-8.4,5.07-21.33-10.32-28.68-22.48s-15-30.76-6.56-35.83l88-53.18a17.91,17.91,0,0,1,2.95-1.19A1.74,1.74,0,0,0,423.48,507.84Z" fill="#f0f0f0"/><path d="M495.3,475.23c14.32,3.54,15.3,3.66,17.17,2.53l.09-.05,2.25-1.36,2.24-1.36,11.79-7.12,0,0,.07,0c1.72-.89,6.08,3.3,9.8,9.46s5.44,12.06,3.78,13.11h0l-11.83,7.15-2.25,1.35h0l-2.25,1.35-.09.06c-2.82,1.7-2.34,2.61-5.74,16.37-3.45,14-18.31,22.58-20.24,23.75-1.16.7-3.65,2-4.61,2.5-1.32.8-3.42-.18-4.24-.7a80.75,80.75,0,0,0,15.66-12.71c3.57-3.81,7.06-8.82,7.94-12,2.82-10.3,1.87-12.05,1.36-13.49-.63-1.76-2.76-3.72-6.17-9.38s-4.18-8.3-5.39-9.73c-1.36-1.61-2.27-2.68-12.62-5.15-3.57-.85-9.58-.45-14.94,1.26a94.42,94.42,0,0,0-18,8.11c-.08-2.26.57-3.59,1.36-4.07s3.19-2.21,4.36-2.91C466.49,481.14,481,471.7,495.3,475.23Z" fill="#f0f0f0"/><path d="M532.65,481c-3.72-6.16-5.4-12-3.81-13.08l.12-.07c1.72-.89,6.08,3.3,9.8,9.46s5.44,12.06,3.78,13.11l0,0C540.81,491.37,536.41,487.16,532.65,481Z" fill="#fff"/><path d="M534.17,480c-2.67-4.43-4.18-8.43-3.39-9l.06,0c.88-.42,3.73,2.78,6.4,7.21s4.21,8.5,3.38,9h0C539.75,487.71,536.87,484.5,534.17,480Z" fill="#231815" opacity="0.1" style="mix-blend-mode:multiply"/><path d="M471.05,518.19c9.65,16,20.4,27.15,24.56,24.68l-36.22,21.89,0,0a2.75,2.75,0,0,1-1.26.34c-4.87.16-14.5-10.46-23.31-25s-13.72-28-11.31-32.26a2.49,2.49,0,0,1,.9-1L460.64,485C456.48,487.47,461.38,502.2,471.05,518.19Z" fill="#f0f0f0"/><path d="M424.49,546.32c-8.59-14.21-19.18-24-25.27-23.81a4.38,4.38,0,0,1,1.47-1.6l.14-.09c5.46-3.15,17.68,7.22,27.37,23.26s13.22,31.78,7.81,35.08l0,0a4.33,4.33,0,0,1-2.16.59C436.8,574.45,433.08,560.54,424.49,546.32Z" fill="#f0f0f0" opacity="0.4"/><path d="M404.58,558.36c9.72,16.08,13.22,31.78,7.81,35.08l0,0a4.33,4.33,0,0,1-2.16.59c3-5.32-.74-19.23-9.34-33.45s-19.17-24-25.27-23.81a4.43,4.43,0,0,1,1.48-1.61l.13-.08C382.66,532,394.89,542.32,404.58,558.36Z" fill="#f0f0f0" opacity="0.4"/><path d="M381,572.63c9.72,16.09,13.21,31.79,7.81,35.09l0,0a4.48,4.48,0,0,1-2.17.59c3-5.33-.74-19.23-9.33-33.45s-19.18-24-25.27-23.81a4.41,4.41,0,0,1,1.47-1.61l.14-.08C359,546.23,371.26,556.6,381,572.63Z" fill="#f0f0f0" opacity="0.4"/><path d="M448.69,559.15a25.27,25.27,0,0,1-3.15,2.78l-88,53.18a6.9,6.9,0,0,1-3.78,1,69.45,69.45,0,0,1-9.73-11,7.08,7.08,0,0,0,5.14-.85l88-53.18a23.64,23.64,0,0,0,3-2.67A86,86,0,0,0,448.89,559Z" opacity="0.7" fill="url(#未命名漸層_42)"/><path d="M408.34,556.08c-9.69-16-13.19-31.68-7.86-35.05l.14-.08a4.36,4.36,0,0,1,2.1-.56c-3,5.32.75,19.23,9.34,33.45s19.17,24,25.27,23.81a4.31,4.31,0,0,1-1.52,1.64l0,0C430.34,582.56,418.07,572.17,408.34,556.08Z" fill="#f0f0f0"/><path d="M388.44,568.11c8.59,14.22,19.17,24,25.27,23.82a4.4,4.4,0,0,1-1.53,1.64l0,0c-5.43,3.25-17.71-7.14-27.43-23.23s-13.19-31.68-7.86-35.05l.13-.08a4.36,4.36,0,0,1,2.11-.56C376.12,540,379.84,553.9,388.44,568.11Z" fill="#f0f0f0"/><path d="M364.81,582.39c8.59,14.22,19.18,24,25.27,23.82a4.38,4.38,0,0,1-1.52,1.64h0c-5.44,3.25-17.71-7.13-27.43-23.22s-13.2-31.68-7.86-35l.13-.08a4.36,4.36,0,0,1,2.11-.56C352.5,554.27,356.22,568.17,364.81,582.39Z" fill="#f0f0f0"/><path d="M518.05,498.81a21.62,21.62,0,0,0,2.63,2.58" fill="none" stroke="#231815" stroke-linecap="round" stroke-miterlimit="10" stroke-width="2"/><path d="M508.94,482a36,36,0,0,0,4.55,10.47c.69,1.15,1.41,2.24,2.13,3.24" fill="none" stroke="#231815" stroke-linecap="round" stroke-miterlimit="10" stroke-width="2"/><path d="M532.65,481c-3.72-6.16-5.4-12-3.81-13.08l.12-.07c1.72-.89,6.08,3.3,9.8,9.46s5.44,12.06,3.78,13.11l0,0" fill="none" stroke="#231815" stroke-linecap="round" stroke-linejoin="round" stroke-width="2"/><polygon points="528.43 498.9 528.43 498.89 528.43 498.9 528.43 498.9" fill="none"/><path d="M363,615.88c3.87-2.35.58-14.89-7.36-28S338.14,566,334.27,568.32" fill="none" stroke="#231815" stroke-linecap="round" stroke-linejoin="round" stroke-width="2"/><path d="M534.17,480c-2.67-4.43-4.18-8.43-3.39-9l.06,0c.88-.42,3.73,2.78,6.4,7.21s4.21,8.5,3.38,9h0C539.75,487.71,536.87,484.5,534.17,480Z" fill="none" stroke="#231815" stroke-miterlimit="10" stroke-width="2"/><path d="M400.55,521l.07,0a4.36,4.36,0,0,1,2.1-.56,4.49,4.49,0,0,1,1.48-1.6l.06,0,.07,0,16.31-9.85c1.06-.64,3.67-1.94,3.67-1.94L460.51,485s2.42-1.74,4.36-2.91c1.62-1,16.11-10.42,30.43-6.89s15.3,3.66,17.17,2.53l.09-.05,2.25-1.36,2.24-1.36,11.79-7.12,0,0,.07,0c1.72-.89,6.08,3.3,9.8,9.46s5.44,12.06,3.78,13.11h0l-11.83,7.15-2.25,1.35h0l-2.25,1.35-.09.06c-2.82,1.7-2.34,2.61-5.74,16.37-3.45,14-18.31,22.58-20.24,23.75s-4.61,2.5-4.61,2.5l-36.2,21.88s-2.36,1.71-3.42,2.35L439.52,577h0a4.07,4.07,0,0,0-3.68,2.23h0l-19.88,12h0a4.33,4.33,0,0,1-2.16.59,4.4,4.4,0,0,1-1.53,1.64h0l-19.87,12h0a4.07,4.07,0,0,0-3.68,2.23h0l-20.64,12.48c-8.4,5.07-21.33-10.32-28.68-22.48s-15-30.76-6.56-35.83l20.59-12.44.06-.05.07,0a4.36,4.36,0,0,1,2.11-.56,4.41,4.41,0,0,1,1.47-1.61l.07,0,.07,0,19.77-12,.06,0,.07,0a4.36,4.36,0,0,1,2.11-.56,4.43,4.43,0,0,1,1.48-1.61l.06,0,.07,0,19.77-12Z" fill="none" stroke="#231815" stroke-linecap="round" stroke-linejoin="round" stroke-width="2"/><path d="M528,483.76c3.14,5.21,6.79,9.31,9.28,10.45a1,1,0,0,0,1.36-.51,1,1,0,0,0-.51-1.36c-1.7-.78-5-4.12-8.38-9.64s-4.73-9.92-4.64-11.87a1,1,0,1,0-2-.09C523,473.49,524.89,478.6,528,483.76Z" fill="#f0f0f0"/><path d="M524,486.21c3.14,5.2,6.79,9.3,9.28,10.44a1,1,0,1,0,.85-1.86c-1.7-.78-5.05-4.13-8.38-9.64s-4.72-9.93-4.64-11.87a1,1,0,0,0-1-1.07,1,1,0,0,0-1.07,1C518.9,475.94,520.84,481.05,524,486.21Z" fill="#f0f0f0"/><path d="M517.49,474.73l-2.25,1.35h0c-1.34.81.63,6.51,4.4,12.74s7.88,10.61,9.22,9.81h0l2.25-1.36c.42,2.12.27,3.62-.58,4.13s-2.24,0-3.92-1.41A49.64,49.64,0,0,1,513,477.44c-.43-2.11-.27-3.61.57-4.12S515.82,473.37,517.49,474.73Z" fill="#fff"/><path d="M528,483.76c3.14,5.21,6.79,9.31,9.28,10.45a1,1,0,0,0,1.36-.51,1,1,0,0,0-.51-1.36c-1.7-.78-5-4.12-8.38-9.64s-4.73-9.92-4.64-11.87a1,1,0,1,0-2-.09C523,473.49,524.89,478.6,528,483.76Z" fill="none" stroke="#231815" stroke-miterlimit="10" stroke-width="2"/><path d="M524,486.21c3.14,5.2,6.79,9.3,9.28,10.44a1,1,0,1,0,.85-1.86c-1.7-.78-5.05-4.13-8.38-9.64s-4.72-9.93-4.64-11.87a1,1,0,0,0-1-1.07,1,1,0,0,0-1.07,1C518.9,475.94,520.84,481.05,524,486.21Z" fill="none" stroke="#231815" stroke-miterlimit="10" stroke-width="2"/><path d="M524.12,495.17a20.27,20.27,0,0,0,2.57,2.63c1,.78,1.73,1.1,2.18.83h0l2.25-1.36c.42,2.12.27,3.62-.58,4.13s-2.24,0-3.92-1.41A49.64,49.64,0,0,1,513,477.44c-.43-2.11-.27-3.61.57-4.12s2.25.05,3.92,1.41l-2.24,1.35c-1.34.81.63,6.51,4.4,12.74" fill="none" stroke="#231815" stroke-linecap="round" stroke-miterlimit="10" stroke-width="2"/><path d="M476.46,526.47a85.08,85.08,0,0,0,8.77,10.69l-.33.11-36,21.76a86,86,0,0,1-8.67-10.61,1.06,1.06,0,0,0,.12-.12Z" opacity="0.5" fill="url(#未命名漸層_4)" style="mix-blend-mode:color-dodge"/><path d="M503.82,505.57c3.74-4.71,9.58-7.88,6.19,5.89-2.21,9-9.11,15.71-14.29,19.71a60.6,60.6,0,0,1-6,4,25,25,0,0,1-4.54,2,85.08,85.08,0,0,1-8.77-10.69l.09-.05a26.17,26.17,0,0,0,4.87-2.07,90,90,0,0,0,9.15-6A73.18,73.18,0,0,0,503.82,505.57Z" opacity="0.7" fill="url(#未命名漸層_42-2)"/><path d="M471.05,518.19c9.65,16,20.4,27.15,24.56,24.68l-36.22,21.89,0,0a2.75,2.75,0,0,1-1.26.34c-4.87.16-14.5-10.46-23.31-25s-13.72-28-11.31-32.26a2.49,2.49,0,0,1,.9-1L460.64,485C456.48,487.47,461.38,502.2,471.05,518.19Z" fill="#fed259"/><path d="M471.05,518.19c9.65,16,20.4,27.15,24.56,24.68l-36.22,21.89,0,0a2.75,2.75,0,0,1-1.26.34c-4.87.16-14.5-10.46-23.31-25s-13.72-28-11.31-32.26a2.49,2.49,0,0,1,.9-1L460.64,485C456.48,487.47,461.38,502.2,471.05,518.19Z" fill="none" stroke="#231815" stroke-miterlimit="10" stroke-width="2"/><path d="M495.88,542.67l-.24.18,0,0c-4.16,2.47-14.91-8.71-24.56-24.68S456.48,487.47,460.64,485a1.22,1.22,0,0,1,.28-.14" fill="none" stroke="#231815" stroke-miterlimit="10" stroke-width="2"/><path d="M476.46,526.47a85.08,85.08,0,0,0,8.77,10.69l-.33.11-36,21.76a86,86,0,0,1-8.67-10.61,1.06,1.06,0,0,0,.12-.12Z" opacity="0.3" fill="url(#未命名漸層_4)" style="mix-blend-mode:color-dodge"/><path d="M532,481.31c4.39,7.27,9.57,12.18,11.57,11l-10.3,6.22c-2,1.21-7.18-3.7-11.57-11s-6.33-14.13-4.33-15.34l10.3-6.23C525.62,467.17,527.55,474,532,481.31Z" fill="#fed259"/><ellipse cx="535.57" cy="479.12" rx="4.23" ry="15.38" transform="translate(-170.61 346.1) rotate(-31.15)" fill="#d0953e"/><path d="M532,481.31c4.39,7.27,9.57,12.18,11.57,11l-10.3,6.22c-2,1.21-7.18-3.7-11.57-11s-6.33-14.13-4.33-15.34l10.3-6.23C525.62,467.17,527.55,474,532,481.31Z" fill="none" stroke="#231815" stroke-miterlimit="10" stroke-width="2"/><ellipse cx="535.57" cy="479.12" rx="4.23" ry="15.38" transform="translate(-170.61 346.1) rotate(-31.15)" fill="none" stroke="#231815" stroke-miterlimit="10" stroke-width="2"/><line x1="525.2" y1="469.96" x2="518.44" y2="474.04" fill="none" stroke="#231815" stroke-linecap="round" stroke-linejoin="round" stroke-width="2"/><line x1="525.62" y1="472.13" x2="518.87" y2="476.22" fill="none" stroke="#231815" stroke-linecap="round" stroke-linejoin="round" stroke-width="2"/><line x1="526.16" y1="474.24" x2="519.4" y2="478.33" fill="none" stroke="#231815" stroke-linecap="round" stroke-linejoin="round" stroke-width="2"/><path d="M474.29,592.75c-.66,0-1.19-2.12-1.19-4.75s.53-4.75,1.19-4.75H648.93v9.5Z" fill="#f0f0f0"/><path d="M475.6,586c-2.31-1-1.84-2.7-1.35-2.7H648.93V586Z" fill="#231815" opacity="0.1" style="mix-blend-mode:multiply"/><path d="M668.17,583.25h17.69c.55,0,1.25,1.07,1.25,4.75s-.54,4.75-1.41,4.75H668.15c.08-1.42.14-3.06.14-4.91S668.24,584.57,668.17,583.25Z" fill="#f0f0f0"/><path d="M696.78,617.83a73.57,73.57,0,0,0,2.42-10.73c.33-2.88.53-5.05.13-6.29s-2.19-3.44-2.69-4.58a6.57,6.57,0,0,1-.4-1.5H692.7a3.52,3.52,0,0,0,.3.89c.37.74,3.72,3.64,4.17,4.91a10.91,10.91,0,0,1,.67,4.84,65.88,65.88,0,0,1-1.27,8.71c-.59,2.61-1.56,5.51-1.93,6.78s-1.32,3.85-1.39,4,.27.32.7.68C694.64,623.79,695.91,620.71,696.78,617.83Z" fill="#28abe3"/><path d="M695.9,580.39a8.56,8.56,0,0,0-.85-3.44c-.34-.57-1.29-.59-1.43,0-.21,1-.45,2.54-.64,4.29h3C695.93,580.92,695.91,580.62,695.9,580.39Z" fill="#28abe3"/><path d="M696.1,590.1c.12-2.53,0-6.67-.15-8.83h-8.43c-.83,0-1.4.62-1.74,2h.08c.55,0,1.25,1.07,1.25,4.75s-.54,4.75-1.41,4.75h-.06c.22,1.29.65,2,1.48,2h9.12A22.55,22.55,0,0,1,696.1,590.1Z" fill="#28abe3"/><g opacity="0.3" style="mix-blend-mode:multiply"><path d="M696.78,617.83a73.57,73.57,0,0,0,2.42-10.73c.33-2.88.53-5.05.13-6.29s-2.19-3.44-2.69-4.58a6.57,6.57,0,0,1-.4-1.5H692.7a3.52,3.52,0,0,0,.3.89c.37.74,3.72,3.64,4.17,4.91a10.91,10.91,0,0,1,.67,4.84,65.88,65.88,0,0,1-1.27,8.71c-.59,2.61-1.56,5.51-1.93,6.78s-1.32,3.85-1.39,4,.27.32.7.68C694.64,623.79,695.91,620.71,696.78,617.83Z" fill="#231815"/><path d="M695.9,580.39a8.56,8.56,0,0,0-.85-3.44c-.34-.57-1.29-.59-1.43,0-.21,1-.45,2.54-.64,4.29h3C695.93,580.92,695.91,580.62,695.9,580.39Z" fill="#231815"/></g><path d="M696.08,584.4c.06,2,.1,4.14,0,5.7,0,.46,0,.89-.05,1.3a19.84,19.84,0,0,0,.19,3.33h-9.12c-.83,0-1.26-.69-1.48-2h.06c.5,0,.89-.35,1.13-1.35a15.22,15.22,0,0,0,.28-3.4,13.22,13.22,0,0,0-.37-3.6c-.25-.84-.59-1.15-.88-1.15h-.08c.34-1.37.91-2,1.74-2H696C696,582.09,696,583.2,696.08,584.4Z" fill="#231815" opacity="0.1" style="mix-blend-mode:multiply"/><path d="M696.08,584.4h-9.34c-.25-.84-.59-1.15-.88-1.15h-.08c.34-1.37.91-2,1.74-2H696C696,582.09,696,583.2,696.08,584.4Z" fill="#231815" opacity="0.1" style="mix-blend-mode:multiply"/><path d="M699.78,575.06c2.48,0,5.46.47,5.89,1.29a18.29,18.29,0,0,1,.77,1.76,25.18,25.18,0,0,1,1.69,6.73,36.85,36.85,0,0,1-.43,7c-.53,4.22-1.69,11.06-2.45,15.59a67.11,67.11,0,0,1-3.08,12c-1.19,3.12-3.57,8.34-3.77,8.74s-.42.55-.85.2-2.46-1.9-3.6-2.86c.69-1.77,2-4.85,2.83-7.73a73.57,73.57,0,0,0,2.42-10.73c.33-2.88.53-5.05.13-6.29s-2.19-3.44-2.69-4.58-.69-3.19-.54-6.13-.1-8.07-.2-9.71a10.62,10.62,0,0,0-.39-2.28,5.88,5.88,0,0,0-.46-1.16c-.34-.57-1.29-.59-1.43,0a4.93,4.93,0,0,1,.35-1.17C694.49,574.91,696.87,575.06,699.78,575.06Z" fill="#28abe3"/><path d="M699.78,575.06c2.48,0,5.46.47,5.89,1.29a18.29,18.29,0,0,1,.77,1.76l1.36,4.75s-2.93-4.75-5-4.75h-7.33a5.88,5.88,0,0,0-.46-1.16c-.34-.57-1.29-.59-1.43,0a4.93,4.93,0,0,1,.35-1.17C694.49,574.91,696.87,575.06,699.78,575.06Z" fill="#231815" opacity="0.1" style="mix-blend-mode:multiply"/><path d="M648.79,592.75H474.29c-.66,0-1.19-2.12-1.19-4.75s.53-4.75,1.19-4.75H648.86" fill="none" stroke="#231815" stroke-linecap="round" stroke-linejoin="round" stroke-width="2"/><path d="M648.85,584.4V595H623.07a18,18,0,0,1-1.28-7,21.51,21.51,0,0,1,.32-3.6,12.81,12.81,0,0,1,1-3.43h25.79Z" fill="#f0f0f0"/><path d="M698.4,628.22c.2-.4,2.58-5.62,3.77-8.74a67.11,67.11,0,0,0,3.08-12c.76-4.53,1.92-11.37,2.45-15.59a36.85,36.85,0,0,0,.43-7,26.93,26.93,0,0,0-2.46-8.49c-.43-.82-3.41-1.29-5.89-1.29-2.91,0-5.29-.15-5.81.75a4.93,4.93,0,0,0-.35,1.17c.14-.62,1.09-.6,1.43,0a8.56,8.56,0,0,1,.85,3.44c.1,1.64.34,6.77.2,9.71s0,5,.54,6.13,2.29,3.33,2.69,4.58.2,3.41-.13,6.29a73.57,73.57,0,0,1-2.42,10.73c-.87,2.88-2.14,6-2.83,7.73,1.14,1,3.3,2.6,3.6,2.86S698.2,628.62,698.4,628.22Z" fill="none" stroke="#231815" stroke-linecap="round" stroke-linejoin="round" stroke-width="2"/><path d="M696.78,617.83a73.57,73.57,0,0,0,2.42-10.73c.33-2.88.53-5.05.13-6.29s-2.19-3.44-2.69-4.58a6.57,6.57,0,0,1-.4-1.5H692.7a3.52,3.52,0,0,0,.3.89c.37.74,3.72,3.64,4.17,4.91a10.91,10.91,0,0,1,.67,4.84,65.88,65.88,0,0,1-1.27,8.71c-.59,2.61-1.56,5.51-1.93,6.78s-1.32,3.85-1.39,4,.27.32.7.68C694.64,623.79,695.91,620.71,696.78,617.83Z" fill="none" stroke="#231815" stroke-linecap="round" stroke-linejoin="round" stroke-width="2"/><path d="M695.9,580.39a8.56,8.56,0,0,0-.85-3.44c-.34-.57-1.29-.59-1.43,0-.21,1-.45,2.54-.64,4.29h3C695.93,580.92,695.91,580.62,695.9,580.39Z" fill="none" stroke="#231815" stroke-linecap="round" stroke-linejoin="round" stroke-width="2"/><path d="M696.1,590.1c.12-2.53,0-6.67-.15-8.83h-8.43c-.83,0-1.4.62-1.74,2h.08c.55,0,1.25,1.07,1.25,4.75s-.54,4.75-1.41,4.75h-.06c.22,1.29.65,2,1.48,2h9.12A22.55,22.55,0,0,1,696.1,590.1Z" fill="none" stroke="#231815" stroke-linecap="round" stroke-linejoin="round" stroke-width="2"/><path d="M668.25,583.25h17.61c.55,0,1.25,1.07,1.25,4.75s-.54,4.75-1.41,4.75H668.18" fill="none" stroke="#231815" stroke-linecap="round" stroke-linejoin="round" stroke-width="2"/><path d="M648.84,595H623.07a19.95,19.95,0,0,1,0-14.06h25.79" fill="none" stroke="#231815" stroke-linecap="round" stroke-linejoin="round" stroke-width="2"/><path d="M622.63,593.85H608.76a18.67,18.67,0,0,1,0-11.7h13.87a20.79,20.79,0,0,0,0,11.7Z" fill="#f0f0f0"/><path d="M622.63,582.15a22.22,22.22,0,0,0-.84,5.85,21.47,21.47,0,0,0,.84,5.85H608.76a16.74,16.74,0,0,1-.94-5.85,19.29,19.29,0,0,1,.78-5.44h0l.06-.18v0a1.17,1.17,0,0,1,.05-.11v0l0,0v0Z" fill="none" stroke="#231815" stroke-linecap="round" stroke-linejoin="round" stroke-width="2"/><path d="M608.72,582.23v0s0-.05,0-.05h13.87A21.2,21.2,0,0,0,622,585h-14a15.26,15.26,0,0,1,.6-2.64v0A1.17,1.17,0,0,1,608.72,582.23Z" fill="#231815" opacity="0.1" style="mix-blend-mode:multiply"/><ellipse cx="624.48" cy="588" rx="1.19" ry="5.53" fill="none" stroke="#999" stroke-linecap="round" stroke-linejoin="round" stroke-width="2"/><ellipse cx="626.86" cy="588" rx="1.19" ry="5.53" fill="none" stroke="#999" stroke-linecap="round" stroke-linejoin="round" stroke-width="2"/><ellipse cx="629.24" cy="588" rx="1.19" ry="5.53" fill="none" stroke="#999" stroke-linecap="round" stroke-linejoin="round" stroke-width="2"/><ellipse cx="631.62" cy="588" rx="1.19" ry="5.53" fill="none" stroke="#999" stroke-linecap="round" stroke-linejoin="round" stroke-width="2"/><ellipse cx="633.99" cy="588" rx="1.19" ry="5.53" fill="none" stroke="#999" stroke-linecap="round" stroke-linejoin="round" stroke-width="2"/><ellipse cx="636.37" cy="588" rx="1.19" ry="5.53" fill="none" stroke="#999" stroke-linecap="round" stroke-linejoin="round" stroke-width="2"/><ellipse cx="638.75" cy="588" rx="1.19" ry="5.53" fill="none" stroke="#999" stroke-linecap="round" stroke-linejoin="round" stroke-width="2"/><ellipse cx="641.13" cy="588" rx="1.19" ry="5.53" fill="none" stroke="#999" stroke-linecap="round" stroke-linejoin="round" stroke-width="2"/><ellipse cx="643.5" cy="588" rx="1.19" ry="5.53" fill="none" stroke="#999" stroke-linecap="round" stroke-linejoin="round" stroke-width="2"/><ellipse cx="645.88" cy="588" rx="1.19" ry="5.53" fill="none" stroke="#999" stroke-linecap="round" stroke-linejoin="round" stroke-width="2"/><ellipse cx="648.26" cy="588" rx="1.19" ry="5.53" fill="none" stroke="#999" stroke-linecap="round" stroke-linejoin="round" stroke-width="2"/><path d="M648.93,595h-3.72V584.4h-23.1a12.81,12.81,0,0,1,1-3.43h25.86Z" fill="#231815" opacity="0.1" style="mix-blend-mode:multiply"/><path d="M667.49,577.06s.08.35.18,1c.05.35.11.78.17,1.29s.13,1.2.19,1.94c.05.59.1,1.23.14,1.93.07,1.32.12,2.86.12,4.59s-.06,3.49-.14,4.91c0,.7-.08,1.34-.13,1.92a42.42,42.42,0,0,1-.53,4.27c-.36,1.7-1.06,2.37-2.37,2.37H651.31a2.38,2.38,0,0,1-2.38-2.37V577.06a2.38,2.38,0,0,1,2.38-2.37h13.81C666.43,574.69,667.21,575.7,667.49,577.06Z" fill="#28abe3"/><path d="M667.49,577.06s.08.35.18,1c.05.35.11.78.17,1.29H648.93v-2.32a2.38,2.38,0,0,1,2.38-2.37h13.81C666.43,574.69,667.21,575.7,667.49,577.06Z" fill="#231815" opacity="0.1" style="mix-blend-mode:multiply"/><path d="M667.49,598.94a51.51,51.51,0,0,0,.66-6.19c.08-1.42.14-3.06.14-4.91s0-3.27-.12-4.59a46.48,46.48,0,0,0-.68-6.19c-.28-1.36-1.06-2.37-2.37-2.37H651.31a2.38,2.38,0,0,0-2.38,2.37v21.88a2.38,2.38,0,0,0,2.38,2.37h13.81C666.43,601.31,667.13,600.64,667.49,598.94Z" fill="none" stroke="#231815" stroke-linecap="round" stroke-linejoin="round" stroke-width="2"/><path d="M685.78,583.25h.08c.43,0,.95.66,3.53,2.7H668.27c0-1-.06-1.88-.1-2.7Z" fill="#231815" opacity="0.1" style="mix-blend-mode:multiply"/><path d="M648.93,576.58V599.4c0,4.26-11,25.62-37.68,25.62h-144c-6.08,0-11.69-14.84-12.31-33.64,0-1.12-.05-2.25-.05-3.39,0-20.52,5.53-37,12.36-37h144C637.82,551,648.93,571.92,648.93,576.58Z" fill="#f0f0f0"/><path d="M648.93,576.58v6.94c0-4.65-11.11-25.62-37.68-25.62h-144c-6.43,0-11.71,14.64-12.31,33.48,0-1.12-.05-2.25-.05-3.39,0-20.52,5.53-37,12.36-37h144C637.82,551,648.93,571.92,648.93,576.58Z" fill="#231815" opacity="0.1" style="mix-blend-mode:multiply"/><ellipse cx="626.04" cy="607.3" rx="10.87" ry="5.6" transform="translate(-170.32 251.56) rotate(-20.06)" fill="#fff" opacity="0.5"/><ellipse cx="622.93" cy="594.48" rx="5.45" ry="3.34" transform="translate(-76.63 92.42) rotate(-8)" fill="#fff" opacity="0.5"/><path d="M648.93,576.81l14.29,0c1.91,0,2.83,3.95,2.83,11.29s-1.08,11-2.83,11H648.93Z" fill="#f0f0f0"/><path d="M648.93,576.81l14.29,0c1.91,0,2.83,3.95,2.83,11.29s-1.08,11-2.83,11H648.93Z" fill="#231815" opacity="0.1" style="mix-blend-mode:multiply"/><path d="M454.89,588c0-20.52,5.53-37,12.36-37h144c26.57,0,37.68,21,37.68,25.63V599.4c0,4.26-11,25.62-37.68,25.62h-144C460.81,625,454.89,608.36,454.89,588Z" fill="none" stroke="#231815" stroke-linecap="round" stroke-linejoin="round" stroke-width="2"/><path d="M464.37,611a78.49,78.49,0,0,1-2.26-12.42" fill="none" stroke="#231815" stroke-linecap="round" stroke-linejoin="round" stroke-width="2"/><path d="M461.56,588c0-12.82,2.16-24.09,5.45-30.73" fill="none" stroke="#231815" stroke-linecap="round" stroke-linejoin="round" stroke-width="2"/><path d="M648.93,576.81l14.29,0c1.91,0,2.83,3.95,2.83,11.29s-1.08,11-2.83,11H648.93Z" fill="none" stroke="#231815" stroke-linecap="round" stroke-linejoin="round" stroke-width="2"/><path d="M659.9,579v-1.89a1,1,0,0,0-1.94,0v21.84a1,1,0,1,0,1.94,0V597" fill="#f0f0f0" stroke="#231815" stroke-linecap="round" stroke-linejoin="round" stroke-width="2"/><path d="M655,579v-1.89a1,1,0,1,0-1.94,0v21.84a1,1,0,1,0,1.94,0V597" fill="#f0f0f0" stroke="#231815" stroke-linecap="round" stroke-linejoin="round" stroke-width="2"/><path d="M668.17,583.25h17.69c.55,0,1.25,1.07,1.25,4.75s-.54,4.75-1.41,4.75H668.15c.08-1.42.14-3.06.14-4.91S668.24,584.57,668.17,583.25Z" fill="#f0f0f0"/><path d="M696.78,617.83a73.57,73.57,0,0,0,2.42-10.73c.33-2.88.53-5.05.13-6.29s-2.19-3.44-2.69-4.58a6.57,6.57,0,0,1-.4-1.5H692.7a3.52,3.52,0,0,0,.3.89c.37.74,3.72,3.64,4.17,4.91a10.91,10.91,0,0,1,.67,4.84,65.88,65.88,0,0,1-1.27,8.71c-.59,2.61-1.56,5.51-1.93,6.78s-1.32,3.85-1.39,4,.27.32.7.68C694.64,623.79,695.91,620.71,696.78,617.83Z" fill="#28abe3"/><path d="M695.9,580.39a8.56,8.56,0,0,0-.85-3.44c-.34-.57-1.29-.59-1.43,0-.21,1-.45,2.54-.64,4.29h3C695.93,580.92,695.91,580.62,695.9,580.39Z" fill="#28abe3"/><path d="M696.1,590.1c.12-2.53,0-6.67-.15-8.83h-8.43c-.83,0-1.4.62-1.74,2h.08c.55,0,1.25,1.07,1.25,4.75s-.54,4.75-1.41,4.75h-.06c.22,1.29.65,2,1.48,2h9.12A22.55,22.55,0,0,1,696.1,590.1Z" fill="#28abe3"/><g opacity="0.3" style="mix-blend-mode:multiply"><path d="M696.78,617.83a73.57,73.57,0,0,0,2.42-10.73c.33-2.88.53-5.05.13-6.29s-2.19-3.44-2.69-4.58a6.57,6.57,0,0,1-.4-1.5H692.7a3.52,3.52,0,0,0,.3.89c.37.74,3.72,3.64,4.17,4.91a10.91,10.91,0,0,1,.67,4.84,65.88,65.88,0,0,1-1.27,8.71c-.59,2.61-1.56,5.51-1.93,6.78s-1.32,3.85-1.39,4,.27.32.7.68C694.64,623.79,695.91,620.71,696.78,617.83Z" fill="#231815"/><path d="M695.9,580.39a8.56,8.56,0,0,0-.85-3.44c-.34-.57-1.29-.59-1.43,0-.21,1-.45,2.54-.64,4.29h3C695.93,580.92,695.91,580.62,695.9,580.39Z" fill="#231815"/></g><path d="M696.08,584.4c.06,2,.1,4.14,0,5.7,0,.46,0,.89-.05,1.3a19.84,19.84,0,0,0,.19,3.33h-9.12c-.83,0-1.26-.69-1.48-2h.06c.5,0,.89-.35,1.13-1.35a15.22,15.22,0,0,0,.28-3.4,13.22,13.22,0,0,0-.37-3.6c-.25-.84-.59-1.15-.88-1.15h-.08c.34-1.37.91-2,1.74-2H696C696,582.09,696,583.2,696.08,584.4Z" fill="#231815" opacity="0.1" style="mix-blend-mode:multiply"/><path d="M696.08,584.4h-9.34c-.25-.84-.59-1.15-.88-1.15h-.08c.34-1.37.91-2,1.74-2H696C696,582.09,696,583.2,696.08,584.4Z" fill="#231815" opacity="0.1" style="mix-blend-mode:multiply"/><path d="M699.78,575.06c2.48,0,5.46.47,5.89,1.29a18.29,18.29,0,0,1,.77,1.76,25.18,25.18,0,0,1,1.69,6.73,36.85,36.85,0,0,1-.43,7c-.53,4.22-1.69,11.06-2.45,15.59a67.11,67.11,0,0,1-3.08,12c-1.19,3.12-3.57,8.34-3.77,8.74s-.42.55-.85.2-2.46-1.9-3.6-2.86c.69-1.77,2-4.85,2.83-7.73a73.57,73.57,0,0,0,2.42-10.73c.33-2.88.53-5.05.13-6.29s-2.19-3.44-2.69-4.58-.69-3.19-.54-6.13-.1-8.07-.2-9.71a10.62,10.62,0,0,0-.39-2.28,5.88,5.88,0,0,0-.46-1.16c-.34-.57-1.29-.59-1.43,0a4.93,4.93,0,0,1,.35-1.17C694.49,574.91,696.87,575.06,699.78,575.06Z" fill="#28abe3"/><path d="M699.78,575.06c2.48,0,5.46.47,5.89,1.29a18.29,18.29,0,0,1,.77,1.76l1.36,4.75s-2.93-4.75-5-4.75h-7.33a5.88,5.88,0,0,0-.46-1.16c-.34-.57-1.29-.59-1.43,0a4.93,4.93,0,0,1,.35-1.17C694.49,574.91,696.87,575.06,699.78,575.06Z" fill="#231815" opacity="0.1" style="mix-blend-mode:multiply"/><path d="M698.4,628.22c.2-.4,2.58-5.62,3.77-8.74a67.11,67.11,0,0,0,3.08-12c.76-4.53,1.92-11.37,2.45-15.59a36.85,36.85,0,0,0,.43-7,26.93,26.93,0,0,0-2.46-8.49c-.43-.82-3.41-1.29-5.89-1.29-2.91,0-5.29-.15-5.81.75a4.93,4.93,0,0,0-.35,1.17c.14-.62,1.09-.6,1.43,0a8.56,8.56,0,0,1,.85,3.44c.1,1.64.34,6.77.2,9.71s0,5,.54,6.13,2.29,3.33,2.69,4.58.2,3.41-.13,6.29a73.57,73.57,0,0,1-2.42,10.73c-.87,2.88-2.14,6-2.83,7.73,1.14,1,3.3,2.6,3.6,2.86S698.2,628.62,698.4,628.22Z" fill="none" stroke="#231815" stroke-linecap="round" stroke-linejoin="round" stroke-width="2"/><path d="M696.78,617.83a73.57,73.57,0,0,0,2.42-10.73c.33-2.88.53-5.05.13-6.29s-2.19-3.44-2.69-4.58a6.57,6.57,0,0,1-.4-1.5H692.7a3.52,3.52,0,0,0,.3.89c.37.74,3.72,3.64,4.17,4.91a10.91,10.91,0,0,1,.67,4.84,65.88,65.88,0,0,1-1.27,8.71c-.59,2.61-1.56,5.51-1.93,6.78s-1.32,3.85-1.39,4,.27.32.7.68C694.64,623.79,695.91,620.71,696.78,617.83Z" fill="none" stroke="#231815" stroke-linecap="round" stroke-linejoin="round" stroke-width="2"/><path d="M695.9,580.39a8.56,8.56,0,0,0-.85-3.44c-.34-.57-1.29-.59-1.43,0-.21,1-.45,2.54-.64,4.29h3C695.93,580.92,695.91,580.62,695.9,580.39Z" fill="none" stroke="#231815" stroke-linecap="round" stroke-linejoin="round" stroke-width="2"/><path d="M696.1,590.1c.12-2.53,0-6.67-.15-8.83h-8.43c-.83,0-1.4.62-1.74,2h.08c.55,0,1.25,1.07,1.25,4.75s-.54,4.75-1.41,4.75h-.06c.22,1.29.65,2,1.48,2h9.12A22.55,22.55,0,0,1,696.1,590.1Z" fill="none" stroke="#231815" stroke-linecap="round" stroke-linejoin="round" stroke-width="2"/><path d="M668.25,583.25h17.61c.55,0,1.25,1.07,1.25,4.75s-.54,4.75-1.41,4.75H668.18" fill="none" stroke="#231815" stroke-linecap="round" stroke-linejoin="round" stroke-width="2"/><path d="M667.49,577.06s.08.35.18,1c.05.35.11.78.17,1.29s.13,1.2.19,1.94c.05.59.1,1.23.14,1.93.07,1.32.12,2.86.12,4.59s-.06,3.49-.14,4.91c0,.7-.08,1.34-.13,1.92a42.42,42.42,0,0,1-.53,4.27c-.36,1.7-1.06,2.37-2.37,2.37H651.31a2.38,2.38,0,0,1-2.38-2.37V577.06a2.38,2.38,0,0,1,2.38-2.37h13.81C666.43,574.69,667.21,575.7,667.49,577.06Z" fill="#28abe3"/><path d="M667.49,577.06s.08.35.18,1c.05.35.11.78.17,1.29H648.93v-2.32a2.38,2.38,0,0,1,2.38-2.37h13.81C666.43,574.69,667.21,575.7,667.49,577.06Z" fill="#231815" opacity="0.1" style="mix-blend-mode:multiply"/><path d="M667.49,598.94a51.51,51.51,0,0,0,.66-6.19c.08-1.42.14-3.06.14-4.91s0-3.27-.12-4.59a46.48,46.48,0,0,0-.68-6.19c-.28-1.36-1.06-2.37-2.37-2.37H651.31a2.38,2.38,0,0,0-2.38,2.37v21.88a2.38,2.38,0,0,0,2.38,2.37h13.81C666.43,601.31,667.13,600.64,667.49,598.94Z" fill="none" stroke="#231815" stroke-linecap="round" stroke-linejoin="round" stroke-width="2"/><path d="M685.78,583.25h.08c.43,0,.95.66,3.53,2.7H668.27c0-1-.06-1.88-.1-2.7Z" fill="#231815" opacity="0.1" style="mix-blend-mode:multiply"/></g></g></svg>