<svg xmlns="http://www.w3.org/2000/svg" xmlns:xlink="http://www.w3.org/1999/xlink" viewBox="0 0 708.77 633"><defs><linearGradient id="未命名漸層_3" x1="-3747.64" y1="467.35" x2="-3523.88" y2="753.48" gradientTransform="matrix(-1, 0, 0, 1, -3447.27, 0)" gradientUnits="userSpaceOnUse"><stop offset="0" stop-color="#fff"/><stop offset="1"/></linearGradient><linearGradient id="未命名漸層_3-2" x1="-3838.54" y1="423.52" x2="-3334.35" y2="688.61" xlink:href="#未命名漸層_3"/><linearGradient id="未命名漸層_3-3" x1="-3748.52" y1="466.03" x2="-3524.76" y2="752.16" xlink:href="#未命名漸層_3"/><linearGradient id="未命名漸層_3-4" x1="-3839.42" y1="422.2" x2="-3335.23" y2="687.29" xlink:href="#未命名漸層_3"/><linearGradient id="未命名漸層_6" x1="363.07" y1="381.62" x2="559.49" y2="501.83" gradientUnits="userSpaceOnUse"><stop offset="0" stop-color="#fff"/><stop offset="0.86" stop-color="#fff" stop-opacity="0"/></linearGradient><clipPath id="clip-path"><path d="M410.31,432.72v-6s23.59,1.2,29.56,0l-1.79,5.37Z" fill="none"/></clipPath><clipPath id="clip-path-2"><path d="M352.56,422.33l8.45-8.4,55,5.66,1.31.39a33.06,33.06,0,0,0,9.53,1.4h0a33,33,0,0,0,8-1l.81-.2,46.09-13.12,13,8.35-6.56,22.07L434.5,447l-40.57-3.57-35.32-11.94Z" fill="none"/></clipPath><linearGradient id="未命名漸層_42" x1="-1553.54" y1="-732.3" x2="-1553.54" y2="-841.73" gradientTransform="matrix(-0.52, -0.86, -0.86, 0.52, -1082.24, -334.62)" gradientUnits="userSpaceOnUse"><stop offset="0" stop-color="#fff" stop-opacity="0"/><stop offset="0.53" stop-color="#fff"/><stop offset="1" stop-color="#fff" stop-opacity="0"/></linearGradient><linearGradient id="未命名漸層_4" x1="-1553.79" y1="-842.91" x2="-1553.79" y2="-887.33" gradientTransform="matrix(-0.52, -0.86, -0.86, 0.52, -1082.24, -334.62)" gradientUnits="userSpaceOnUse"><stop offset="0" stop-color="#fff" stop-opacity="0"/><stop offset="0.02" stop-color="#fff" stop-opacity="0.07"/><stop offset="0.1" stop-color="#fff" stop-opacity="0.31"/><stop offset="0.19" stop-color="#fff" stop-opacity="0.52"/><stop offset="0.26" stop-color="#fff" stop-opacity="0.69"/><stop offset="0.34" stop-color="#fff" stop-opacity="0.83"/><stop offset="0.41" stop-color="#fff" stop-opacity="0.92"/><stop offset="0.48" stop-color="#fff" stop-opacity="0.98"/><stop offset="0.53" stop-color="#fff"/><stop offset="0.58" stop-color="#fff" stop-opacity="0.98"/><stop offset="0.64" stop-color="#fff" stop-opacity="0.92"/><stop offset="0.7" stop-color="#fff" stop-opacity="0.81"/><stop offset="0.77" stop-color="#fff" stop-opacity="0.67"/><stop offset="0.84" stop-color="#fff" stop-opacity="0.48"/><stop offset="0.92" stop-color="#fff" stop-opacity="0.26"/><stop offset="1" stop-color="#fff" stop-opacity="0"/></linearGradient><linearGradient id="未命名漸層_42-2" x1="-1551.74" y1="-887.6" x2="-1551.74" y2="-927.84" xlink:href="#未命名漸層_42"/></defs><g style="isolation:isolate"><g id="圖層_12" data-name="圖層 12"><polygon points="205.1 581.57 242.43 608.75 242.43 385.92 215.57 372.09 205.1 358.73 205.1 581.57" fill="#f3d1a1"/><g opacity="0.3" style="mix-blend-mode:multiply"><polygon points="205.1 581.57 242.43 608.75 242.43 385.92 215.9 372.32 205.1 358.73 205.1 581.57" fill="#231815"/></g><rect y="358.73" width="205.1" height="222.84" fill="#f3d1a1"/><rect y="358.73" width="205.1" height="222.84" fill="#231815" opacity="0.2" style="mix-blend-mode:multiply"/><rect x="32.34" y="372.41" width="140.43" height="13.5" transform="translate(205.1 758.32) rotate(-180)" fill="#231815" opacity="0.1" style="mix-blend-mode:multiply"/><rect x="37.33" y="385.91" width="205.1" height="222.84" fill="#f3d1a1"/><polygon points="0 581.57 37.33 608.75 37.33 385.92 27.07 372.72 0 358.73 0 581.57" fill="#f3d1a1"/><line x1="114.5" y1="372.41" x2="40.56" y2="372.41" fill="#f3d1a1" stroke="#231815" stroke-linecap="round" stroke-linejoin="round" stroke-width="2"/><line x1="164.11" y1="372.41" x2="136.31" y2="372.41" fill="#f3d1a1" stroke="#231815" stroke-linecap="round" stroke-linejoin="round" stroke-width="2"/><g opacity="0.1" style="mix-blend-mode:multiply"><polygon points="0 581.57 37.33 608.75 37.33 385.92 27.07 372.72 0 358.73 0 581.57" fill="#231815"/></g><polyline points="0 358.73 205.1 358.73 215.78 372.24 242.43 385.91" fill="none" stroke="#231815" stroke-linecap="round" stroke-linejoin="round" stroke-width="2"/><rect x="37.33" y="385.91" width="205.1" height="222.84" fill="none" stroke="#231815" stroke-linecap="round" stroke-linejoin="round" stroke-width="2"/><polygon points="0 581.57 37.33 608.75 37.33 385.92 26.5 372.31 0 358.73 0 581.57" fill="none" stroke="#231815" stroke-linecap="round" stroke-linejoin="round" stroke-width="2"/><line x1="27.96" y1="558.98" x2="34.44" y2="563.7" fill="none" stroke="#231815" stroke-linecap="round" stroke-linejoin="round" stroke-width="2"/><line x1="24.96" y1="418.2" x2="24.96" y2="556.63" fill="none" stroke="#231815" stroke-linecap="round" stroke-linejoin="round" stroke-width="2"/><line x1="24.96" y1="390.14" x2="24.96" y2="402.23" fill="none" stroke="#231815" stroke-linecap="round" stroke-linejoin="round" stroke-width="2"/><line x1="214.91" y1="376.78" x2="214.91" y2="383.07" fill="none" stroke="#231815" stroke-linecap="round" stroke-linejoin="round" stroke-width="2"/><line x1="37.33" y1="608.75" x2="24.84" y2="556.63" fill="none" stroke="#231815" stroke-linecap="round" stroke-linejoin="round" stroke-width="2"/><line y1="581.57" x2="24.84" y2="556.63" fill="none" stroke="#231815" stroke-linecap="round" stroke-linejoin="round" stroke-width="2"/><line x1="207.96" y1="565.47" x2="223.78" y2="565.47" fill="none" stroke="#231815" stroke-linecap="round" stroke-linejoin="round" stroke-width="2"/><line x1="51.49" y1="565.47" x2="190.82" y2="565.47" fill="none" stroke="#231815" stroke-linecap="round" stroke-linejoin="round" stroke-width="2"/><line x1="205.1" y1="358.73" x2="205.1" y2="385.96" fill="none" stroke="#231815" stroke-linecap="round" stroke-linejoin="round" stroke-width="2"/><polygon points="37.33 385.92 26.5 372.31 24.96 556.63 37.33 608.75 37.33 385.92" fill="#231815" opacity="0.1" style="mix-blend-mode:multiply"/><rect x="143.9" y="310.48" width="10.57" height="61.92" fill="#f3d1a1"/><rect x="50.63" y="310.48" width="10.57" height="61.92" fill="#f3d1a1"/><polygon points="61.2 299.91 143.9 299.91 154.47 310.49 143.9 310.49 61.2 310.49 50.63 310.49 61.2 299.91" fill="#f3d1a1"/><rect x="143.9" y="310.48" width="10.57" height="61.92" fill="none" stroke="#231815" stroke-linecap="round" stroke-linejoin="round" stroke-width="2"/><rect x="50.63" y="310.48" width="10.57" height="61.92" fill="none" stroke="#231815" stroke-linecap="round" stroke-linejoin="round" stroke-width="2"/><polygon points="61.2 299.91 143.9 299.91 154.47 310.49 143.9 310.49 61.2 310.49 50.63 310.49 61.2 299.91" fill="none" stroke="#231815" stroke-linecap="round" stroke-linejoin="round" stroke-width="2"/><g opacity="0.1" style="mix-blend-mode:multiply"><rect x="143.9" y="310.48" width="10.57" height="61.92" fill="#231815"/><rect x="50.63" y="310.48" width="10.57" height="61.92" fill="#231815"/><polygon points="61.2 299.91 143.9 299.91 154.47 310.49 143.9 310.49 61.2 310.49 50.63 310.49 61.2 299.91" fill="#231815"/></g><rect x="98.53" y="327.1" width="82.7" height="10.57" fill="#f3d1a1"/><polygon points="191.8 337.68 191.8 385.91 181.23 385.91 181.23 337.68 181.23 327.1 191.8 337.68" fill="#f3d1a1"/><polygon points="98.53 327.1 98.53 337.68 98.53 385.91 87.96 385.91 87.96 337.68 98.53 327.1" fill="#f3d1a1"/><rect x="98.53" y="327.1" width="82.7" height="10.57" fill="none" stroke="#231815" stroke-linecap="round" stroke-linejoin="round" stroke-width="2"/><polygon points="191.8 337.68 191.8 385.91 181.23 385.91 181.23 337.68 181.23 327.1 191.8 337.68" fill="none" stroke="#231815" stroke-linecap="round" stroke-linejoin="round" stroke-width="2"/><polygon points="98.53 327.1 98.53 337.68 98.53 385.91 87.96 385.91 87.96 337.68 98.53 327.1" fill="none" stroke="#231815" stroke-linecap="round" stroke-linejoin="round" stroke-width="2"/><path d="M121.39,301Q96.55,288.26,84,265.48T71.47,212.8V9.45h81.21V211q0,12.42,7.36,19.67t22.08,7.25q14.72,0,22.08-7.25T211.56,211V9.45h81.21V212.8q0,29-12.08,51.76t-36.92,36q-24.84,13.23-61.65,13.23Q146.24,313.79,121.39,301Z" fill="#fff" stroke="#000" stroke-miterlimit="10" stroke-width="3"/><path d="M378,304a75.54,75.54,0,0,1-36-30.94q-12.89-21.17-16.1-55.44h83.27q2.29,11.51,9.09,16.91T435.16,240q9.88,0,16-4t6.1-12.08q0-8-8.17-13.22t-28.64-11.85Q390.76,188.65,372,177.26a82.65,82.65,0,0,1-29.67-30.94q-10.93-19.55-10.93-50.61,0-26.67,12.42-47.38T380.18,16Q404.11,4.4,437.92,4.39q34.5,0,57.27,9.78A74,74,0,0,1,530.5,45Q543,66,546.26,100.55H464.14q-2.76-11.28-8.4-16.8t-15.06-5.52q-9.9,0-15.65,5.06a16,16,0,0,0-5.75,12.42q0,8.06,4.26,13.12t12.88,9a220.48,220.48,0,0,0,25.19,9q28.75,9,46.58,19.44a74.28,74.28,0,0,1,27.95,29q10.13,18.52,10.12,48.65,0,42.79-27.26,66.37t-83.38,23.58Q401.11,313.79,378,304Z" fill="#fff" stroke="#000" stroke-miterlimit="10" stroke-width="3"/><line x1="248.27" y1="341" x2="395.52" y2="570.79" fill="none" stroke="#231815" stroke-linecap="round" stroke-linejoin="round" stroke-width="2"/><line x1="196.86" y1="376.79" x2="382.43" y2="568.55" fill="none" stroke="#231815" stroke-miterlimit="10" stroke-width="2"/><line x1="304.08" y1="468.28" x2="241.58" y2="381.53" fill="none" stroke="#231815" stroke-linecap="round" stroke-linejoin="round" stroke-width="2"/><line x1="248.66" y1="383.07" x2="326.36" y2="462.33" fill="none" stroke="#231815" stroke-linecap="round" stroke-linejoin="round" stroke-width="2"/><path d="M416.93,603.05a2.85,2.85,0,0,0,.51-4L200.33,319a2.85,2.85,0,1,0-4.51,3.49l217.12,280A2.84,2.84,0,0,0,416.93,603.05Z" fill="#3d3d3d"/><path d="M401.26,587.49a3.34,3.34,0,0,1,1.26-2.25l.75-.58a3.33,3.33,0,0,1,4.66.59l10,12.85a3.33,3.33,0,0,1-.59,4.66l-.75.58a3.34,3.34,0,0,1-4.67-.59l-10-12.85A3.32,3.32,0,0,1,401.26,587.49Z" fill="#444"/><rect x="215.14" y="349.58" width="3.07" height="4.69" transform="translate(603.55 497.28) rotate(142.21)" fill="#efefef"/><path d="M214,351l2.87,3.71c.36.46-.59,2.21-1.17,2.6s-1.06.35-1.65-.41l-2.88-3.71c-.63-.82-.76-1.41-.11-1.88S213.68,350.57,214,351Z" fill="#3d3d3d"/><rect x="219.54" y="353.22" width="11.39" height="5.18" rx="0.95" transform="translate(-170.78 212.63) rotate(-37.79)" fill="#444"/><rect x="232.19" y="362.41" width="11.39" height="19.42" rx="0.95" transform="translate(-178.12 223.79) rotate(-37.79)" fill="#444"/><rect x="224.98" y="356.98" width="8.8" height="8.33" transform="translate(631.94 506.02) rotate(142.21)" fill="#3d3d3d"/><rect x="215.14" y="349.58" width="3.07" height="4.69" transform="translate(603.55 497.28) rotate(142.21)" fill="none" stroke="#231815" stroke-linecap="round" stroke-linejoin="round" stroke-width="2"/><path d="M214,351l2.87,3.71c.36.46-.59,2.21-1.17,2.6s-1.06.35-1.65-.41l-2.88-3.71c-.63-.82-.76-1.41-.11-1.88S213.68,350.57,214,351Z" fill="none" stroke="#231815" stroke-linecap="round" stroke-linejoin="round" stroke-width="2"/><path d="M195.82,322.52a2.85,2.85,0,1,1,4.51-3.49l25.57,33-4.5,3.49Z" fill="none" stroke="#231815" stroke-linecap="round" stroke-linejoin="round" stroke-width="2"/><path d="M223.3,360.59c-1,.77-1.6,0-2.37-1l-.39-.5c-.76-1-1.4-1.79-.41-2.55l1.07-.83,4.91-3.81,1.07-.83c1-.76,1.6.05,2.36,1l.4.5c.76,1,1.4,1.79.41,2.55l0,0,5.11,6.59.05,0c1-.77,1.6.05,2.36,1l9.12,11.75c.76,1,1.4,1.79.41,2.55l-1.07.83-4.91,3.81-1.07.83c-1,.77-1.6,0-2.36-1l-9.12-11.75c-.76-1-1.4-1.79-.41-2.55l0,0-5.1-6.59Z" fill="none" stroke="#231815" stroke-linecap="round" stroke-linejoin="round" stroke-width="2"/><line x1="261.95" y1="322.06" x2="417.22" y2="597.23" fill="none" stroke="#231815" stroke-linecap="round" stroke-linejoin="round" stroke-width="2"/><line x1="227.38" y1="342.92" x2="416.93" y2="603.05" fill="none" stroke="#231815" stroke-linecap="round" stroke-linejoin="round" stroke-width="2"/><line x1="210.94" y1="366.51" x2="363.12" y2="538.3" fill="none" stroke="#231815" stroke-linecap="round" stroke-linejoin="round" stroke-width="2"/><line x1="199.97" y1="366.57" x2="411.71" y2="600.97" fill="none" stroke="#231815" stroke-linecap="round" stroke-linejoin="round" stroke-width="2"/><line x1="143.71" y1="424.53" x2="411.15" y2="601.79" fill="none" stroke="#231815" stroke-miterlimit="10" stroke-width="2"/><line x1="247.58" y1="376.88" x2="334.76" y2="450.37" fill="none" stroke="#231815" stroke-linecap="round" stroke-linejoin="round" stroke-width="2"/><line x1="243.83" y1="379.79" x2="313.83" y2="460.94" fill="none" stroke="#231815" stroke-linecap="round" stroke-linejoin="round" stroke-width="2"/><line x1="277.53" y1="512.96" x2="214.09" y2="404.32" fill="none" stroke="#231815" stroke-linecap="round" stroke-linejoin="round" stroke-width="2"/><path d="M403.27,584.66l-.75.58a3.34,3.34,0,0,0-1.26,2.25l-159.68-206,4.5-3.49L405.77,584A3.32,3.32,0,0,0,403.27,584.66Z" fill="none" stroke="#231815" stroke-linecap="round" stroke-linejoin="round" stroke-width="2"/><path d="M401.26,587.49a3.34,3.34,0,0,1,1.26-2.25l.75-.58a3.33,3.33,0,0,1,4.66.59l10,12.85a3.33,3.33,0,0,1-.59,4.66l-.75.58a3.34,3.34,0,0,1-4.67-.59l-10-12.85A3.32,3.32,0,0,1,401.26,587.49Z" fill="none" stroke="#231815" stroke-linecap="round" stroke-linejoin="round" stroke-width="2"/><line x1="294.95" y1="478.15" x2="240.08" y2="382.7" fill="none" stroke="#231815" stroke-linecap="round" stroke-linejoin="round" stroke-width="2"/><path d="M413.92,598.73a11.35,11.35,0,0,1,3.91-1.65s9.64,13.46,12.39,17.32,3.72,6.19,1.59,7.85L413.7,598.89Z" fill="#117a5c"/><path d="M413.7,598.89l18.11,23.36-.15.12c-2.38,1.69-4.75-1.26-7.06-3.82-1.6-1.78-13.76-16.22-13.76-16.22A10.69,10.69,0,0,1,413.7,598.89Z" fill="#1a8c70"/><path d="M431.66,622.37c2.34-1.66,1.31-4.12-1.44-8s-12.39-17.32-12.39-17.32a11.35,11.35,0,0,0-3.91,1.65,10.41,10.41,0,0,0-3.08,3.6S423,616.77,424.6,618.55C426.91,621.11,429.28,624.06,431.66,622.37Z" fill="none" stroke="#231815" stroke-linecap="round" stroke-linejoin="round" stroke-width="2"/><path d="M211,366.45c-.63.53-1.37.79-1.7.47s-3.13-3.1-4.22-4.27a2.17,2.17,0,0,1,0-3.28,2.08,2.08,0,0,1,3,.5c.72,1.07,3.21,4.47,3.55,5S211.63,365.94,211,366.45Z" fill="#1a8c70"/><path d="M211,366.45c-.63.53-1.37.79-1.7.47s-3.13-3.1-4.22-4.27a2.17,2.17,0,0,1,0-3.28,2.08,2.08,0,0,1,3,.5c.72,1.07,3.21,4.47,3.55,5S211.63,365.94,211,366.45Z" fill="none" stroke="#231815" stroke-miterlimit="10" stroke-width="2"/><path d="M227.38,342.92c-.65.51-1.4.74-1.71.4s-3-3.21-4.07-4.42a2.18,2.18,0,0,1,.12-3.28,2.1,2.1,0,0,1,3,.61c.67,1.1,3,4.59,3.35,5.15S228,342.43,227.38,342.92Z" fill="#1a8c70"/><path d="M248.43,340.85c-.69.44-1.46.6-1.74.23s-2.7-3.48-3.63-4.79a2.17,2.17,0,0,1,.43-3.24,2.08,2.08,0,0,1,2.95.89c.57,1.15,2.59,4.85,2.85,5.44S249.11,340.42,248.43,340.85Z" fill="#1a8c70"/><path d="M262.2,321.94c-.73.39-1.5.49-1.76.11S258,318.36,257.2,317a2.18,2.18,0,0,1,.68-3.21,2.1,2.1,0,0,1,2.87,1.12c.48,1.2,2.2,5,2.42,5.65S262.9,321.57,262.2,321.94Z" fill="#1a8c70"/><path d="M199.67,366.84c-.61.56-1.33.85-1.67.55s-3.29-2.94-4.45-4.05a2.17,2.17,0,0,1-.16-3.27,2.09,2.09,0,0,1,3.06.34c.77,1,3.42,4.3,3.79,4.83S200.25,366.3,199.67,366.84Z" fill="#1a8c70"/><path d="M227.38,342.92c-.65.51-1.4.74-1.71.4s-3-3.21-4.07-4.42a2.18,2.18,0,0,1,.12-3.28,2.1,2.1,0,0,1,3,.61c.67,1.1,3,4.59,3.35,5.15S228,342.43,227.38,342.92Z" fill="none" stroke="#231815" stroke-miterlimit="10" stroke-width="2"/><path d="M248.43,340.85c-.69.44-1.46.6-1.74.23s-2.7-3.48-3.63-4.79a2.17,2.17,0,0,1,.43-3.24,2.08,2.08,0,0,1,2.95.89c.57,1.15,2.59,4.85,2.85,5.44S249.11,340.42,248.43,340.85Z" fill="none" stroke="#231815" stroke-miterlimit="10" stroke-width="2"/><path d="M262.2,321.94c-.73.39-1.5.49-1.76.11S258,318.36,257.2,317a2.18,2.18,0,0,1,.68-3.21,2.1,2.1,0,0,1,2.87,1.12c.48,1.2,2.2,5,2.42,5.65S262.9,321.57,262.2,321.94Z" fill="none" stroke="#231815" stroke-miterlimit="10" stroke-width="2"/><path d="M199.67,366.84c-.61.56-1.33.85-1.67.55s-3.29-2.94-4.45-4.05a2.17,2.17,0,0,1-.16-3.27,2.09,2.09,0,0,1,3.06.34c.77,1,3.42,4.3,3.79,4.83S200.25,366.3,199.67,366.84Z" fill="none" stroke="#231815" stroke-miterlimit="10" stroke-width="2"/><path d="M196.83,376.84c-.58.58-1.29.91-1.65.62s-3.41-2.78-4.62-3.84a2.17,2.17,0,0,1-.31-3.26,2.09,2.09,0,0,1,3.07.2c.81,1,3.62,4.14,4,4.66S197.39,376.27,196.83,376.84Z" fill="#1a8c70"/><path d="M196.83,376.84c-.58.58-1.29.91-1.65.62s-3.41-2.78-4.62-3.84a2.17,2.17,0,0,1-.31-3.26,2.09,2.09,0,0,1,3.07.2c.81,1,3.62,4.14,4,4.66S197.39,376.27,196.83,376.84Z" fill="none" stroke="#231815" stroke-miterlimit="10" stroke-width="2"/><path d="M143.94,424.86c-.47.68-1.12,1.12-1.52.89s-3.83-2.17-5.2-3a2.18,2.18,0,0,1-.86-3.16,2.1,2.1,0,0,1,3.07-.32c1,.85,4.26,3.48,4.73,3.92S144.4,424.2,143.94,424.86Z" fill="#1a8c70"/><path d="M143.94,424.86c-.47.68-1.12,1.12-1.52.89s-3.83-2.17-5.2-3a2.18,2.18,0,0,1-.86-3.16,2.1,2.1,0,0,1,3.07-.32c1,.85,4.26,3.48,4.73,3.92S144.4,424.2,143.94,424.86Z" fill="none" stroke="#231815" stroke-miterlimit="10" stroke-width="2"/><path d="M213.68,334.68l-37.29-48.1c-4.33-5.59-6.19-14,2.29-20.53a15.54,15.54,0,0,1,7.37-3.3,18,18,0,0,0-4.5,2.6c-8.9,6.9-7,15.69-2.41,21.55l39.15,50.5c1.55,2-1.33,4.52-3.25,6s-5,3.43-6.48,1.54l-1.88-2.42a11.05,11.05,0,0,0,3.9-2.13C212.41,339,215.15,336.57,213.68,334.68Z" fill="#117a5c"/><path d="M214.6,274c-.71-4.65-3.48-11-7.07-14.72a29.43,29.43,0,0,0-15.34-8.45,25,25,0,0,0-14.62,1.58,26.49,26.49,0,0,1,18.16-3,30.76,30.76,0,0,1,16.1,8.87c3.78,3.89,6.69,10.57,7.43,15.45s-1.82,7.75-4.62,8.11a9.22,9.22,0,0,1-3.67-.26C213.32,280.85,215.25,278.22,214.6,274Z" fill="#117a5c"/><path d="M161.83,275.42c.12-8.14,6.48-16.2,12.16-20.61a29.54,29.54,0,0,1,3.58-2.37,25,25,0,0,1,14.62-1.58,29.43,29.43,0,0,1,15.34,8.45c3.59,3.71,6.36,10.07,7.07,14.72.65,4.19-1.28,6.82-3.63,7.54a4.63,4.63,0,0,1-3.49-4.2c-.47-4.33-3.93-9.28-6.61-11.75a14.26,14.26,0,0,0-14.82-2.87,15.54,15.54,0,0,0-7.37,3.3c-8.48,6.57-6.62,14.94-2.29,20.53l37.29,48.1c1.47,1.89-1.27,4.3-3.1,5.72a11.05,11.05,0,0,1-3.9,2.13L168.25,293C164.13,287.64,161.73,282.29,161.83,275.42Z" fill="#1a8c70"/><path d="M176.91,296.94l16.94,21.85" fill="none" stroke="#fff" stroke-linecap="round" stroke-linejoin="round" stroke-width="2" opacity="0.3"/><path d="M166.86,279.67a19,19,0,0,0,4.33,9.89" fill="none" stroke="#fff" stroke-linecap="round" stroke-linejoin="round" stroke-width="2" opacity="0.3"/><path d="M168.25,293l40.31,52c1.47,1.89,4.56-.05,6.48-1.54s4.8-4,3.25-6l-39.15-50.5c-4.54-5.86-6.49-14.65,2.41-21.55s16.65-2.2,19.32.27,6.14,7.42,6.61,11.75,4.71,4.77,7.16,4.46c2.8-.36,5.37-3.23,4.62-8.11s-3.65-11.56-7.43-15.45a30.76,30.76,0,0,0-16.1-8.87A26.9,26.9,0,0,0,174,254.81c-5.68,4.41-12,12.47-12.16,20.61C161.73,282.29,164.13,287.64,168.25,293Z" fill="none" stroke="#231815" stroke-linecap="round" stroke-linejoin="round" stroke-width="2"/><path d="M197.49,421.43c1.62-2.12,4.85-5.6,8.44-9.41,4-4.22,8.37-8.83,11.43-12.38.77-.89,1.45-1.71,2-2.44a50.71,50.71,0,0,0,7.48-13.78,129.53,129.53,0,0,0,4-13.42,24.14,24.14,0,0,0,.45-8.12c-.51-5.48-2.28-10.9-3.28-14.53-.65-2.33-1-3.92-.45-4.31a.56.56,0,0,1,.19-.09c2.15-.74,10.93,6,18.45,4.78h0c2.57-.42,11.71-3.2,17.4-5,2.3-.71,4-1.27,4.54-1.44,10.93-3.5,22.67-7.3,28-8.32,3.14-.59,6.79-1,10.42-1.47,7.16-.86,14.19-1.72,16.94-3.73a4.8,4.8,0,0,0,.73-.67c1.09-1.37.74-2.45-.63-3.25,1.31.7,2.34,1.91,3.26,5.39,1.31,4.95,26.11,107.74,33.78,130.87s17.93,58.23,28.34,80.9c10,21.72,28,54.49,25.94,59.8a1,1,0,0,1,0,.1c0,.05,0,.1-.08.14a.44.44,0,0,1-.08.11.69.69,0,0,1-.19.19c-4.06,3-32.3-27.37-50.82-43.57s-61.9-46.4-75.87-58-90.36-75.06-91.48-76.31C196.25,423.24,196.66,422.51,197.49,421.43Z" fill="#f8f8f8"/><path d="M197.49,421.43c16.93,12.71,62.89,46.78,72.76,54.13,12.07,9,50.11,31.65,66,44.25s39.7,36.78,43.8,33.78a1.12,1.12,0,0,0,.2-.18l.08-.11.09-.13,0-.09C383,548.2,369,521,361.58,502.7c-7.71-19-14.14-49.06-19.24-68.76C338,417,327,349,323.58,327.79a4.8,4.8,0,0,0,.73-.67c1.09-1.37.74-2.45-.63-3.25,1.31.7,2.34,1.91,3.26,5.39,1.31,4.95,26.11,107.74,33.78,130.87s17.93,58.23,28.34,80.9c10,21.72,28,54.49,25.94,59.8a1,1,0,0,1,0,.1c0,.05,0,.1-.08.14a.44.44,0,0,1-.08.11.69.69,0,0,1-.19.19c-4.06,3-32.3-27.37-50.82-43.57s-61.9-46.4-75.87-58-90.36-75.06-91.48-76.31C196.25,423.24,196.66,422.51,197.49,421.43Z" fill="#efefef"/><path d="M228.75,344.72c9.85,13.48,66.32,89.88,83.55,111.12s77.9,109.93,91.24,129.81" fill="none" stroke="#efefef" stroke-linecap="round" stroke-linejoin="round" stroke-width="2"/><path d="M245.07,365.68c9.59,13.12,60.6,86.25,77.88,106.56s55.78,75.47,68.42,95.08" fill="#fef9f4"/><path d="M214.17,368.8c4.8,1.28,8.15,7.25,12.69,14.62a50.71,50.71,0,0,1-7.48,13.78c-.57.73-1.25,1.55-2,2.44C221.51,389.58,222,371.22,214.17,368.8Z" fill="#e5e5e5"/><path d="M246.25,347.73c.25-3.35,1-6.21,2.48-6.7,2.56-.87,4.72,0,7.74.59,1.49.29,4.51.75,7.19,1.13-5.69,1.78-14.83,4.56-17.4,5Z" fill="#b7b7b7"/><path d="M230.43,557.72c-.71-6.33.38-20.33-.75-27.18-2.07-12.47-8.48-22.22-12.42-30.57a49.3,49.3,0,0,1-2.73-9.1c4.58,3.24,8.95,6.2,12.84,8.66,23.74,15,65.45,31.23,92.94,46.28-21.45-2.95-47.68-12-51.91-7.64-8.57,8.93-27,21.88-30.81,22C234.19,560.27,230.77,560.76,230.43,557.72Z" fill="#e5e5e5"/><path d="M160.83,446.75a39.25,39.25,0,0,0,3.77-5C169,435.35,176,424,180.08,415.15c3.25-7.12,7.71-20.65,11.42-31.37.86-2.46,1.67-4.77,2.42-6.82.47-1.27.91-2.44,1.32-3.48,1.13-2.87,2-4.79,2.6-5.21,2.54-1.85,8.49-1.88,16.2.5l.13,0c7.78,2.42,7.34,20.78,3.19,30.84-3.06,3.55-7.45,8.16-11.43,12.38-5.42,5.75-10.07,10.79-9.49,11.44,1.12,1.25,77.52,64.67,91.48,76.31s57.36,41.83,75.87,58,46.76,46.54,50.82,43.57c-5.53,4-13.63-5.23-22.93-11.51s-40.57-26.55-67.9-42.12c-1.13-.64-2.29-1.29-3.47-1.93-27.49-15-69.2-31.3-92.94-46.28-3.89-2.46-8.26-5.42-12.84-8.66-3.45-2.43-7-5-10.6-7.68-18.28-13.57-37-29-41.9-34.44C161,447.65,160.6,447,160.83,446.75Z" fill="#efefef"/><path d="M338.2,316.4h0Z" fill="#fef9f4"/><path d="M338.28,316.4a.36.36,0,0,1,.19.05.76.76,0,0,0-.27-.05Z" fill="#fef9f4"/><path d="M323.68,323.87a14.5,14.5,0,0,0-1.81-.74A8.69,8.69,0,0,1,323.68,323.87Z" fill="#fef9f4"/><path d="M317.3,322.36a60.07,60.07,0,0,0-7.37-.15c-3.26.11-9.41,0-16.27-.13,10.08-1.22,22.12-3.16,25.21-4.41,4.81-1.94,13.95-1.26,19.23-1.27-1.88.12-5.93,4.62-9.85,5.4A77.61,77.61,0,0,1,317.3,322.36Z" fill="#b7b7b7"/><path d="M323.68,323.87A4.6,4.6,0,0,1,325.1,325l-.26.05A2.47,2.47,0,0,0,323.68,323.87Z" fill="#fef9f4"/><path d="M414.8,601.18a.44.44,0,0,0,.08-.11s.05-.09.08-.14a1,1,0,0,0,0-.1c2.09-5.31-16-38.08-25.94-59.8-10.41-22.67-20.67-57.77-28.34-80.9s-32.47-125.92-33.78-130.87A11.17,11.17,0,0,0,325.1,325a4.6,4.6,0,0,0-1.42-1.16,8.69,8.69,0,0,0-1.81-.74,25.56,25.56,0,0,0-4.57-.77,77.61,77.61,0,0,0,10.95-.56c3.92-.78,8-5.28,9.85-5.4h.1a.76.76,0,0,1,.27.05.67.67,0,0,1,.33.22c3.39,4.16,17.22,43.41,24.36,74.41s16.78,63.81,21,91.78c3.67,24.48,32.78,93.37,33.49,114.28.1,3-1.85,3.4-3,4.23A.69.69,0,0,0,414.8,601.18Z" fill="#e5e5e5"/><path d="M261.17,322.76c1.25-1.31,18.38-.95,32.49-.68,6.86.13,13,.24,16.27.13a60.07,60.07,0,0,1,7.37.15,25.56,25.56,0,0,1,4.57.77,14.5,14.5,0,0,1,1.81.74,2.47,2.47,0,0,1,1.16,1.21,2,2,0,0,1-.53,2c-2,2.51-9.76,3.45-17.67,4.4-3.63.44-7.28.88-10.42,1.47-5.35,1-17.09,4.82-28,8.32C264.72,334.73,259.75,324.23,261.17,322.76Z" fill="#e5e5e5"/><line x1="205.57" y1="373.59" x2="215.02" y2="384.05" fill="none" stroke="#231815" stroke-linecap="round" stroke-linejoin="round" stroke-width="2"/><path d="M323.68,323.87a14.5,14.5,0,0,0-1.81-.74A8.69,8.69,0,0,1,323.68,323.87Z" fill="none" stroke="#231815" stroke-linecap="round" stroke-linejoin="round" stroke-width="2"/><path d="M246.25,347.73c.25-3.35,1-6.21,2.48-6.7,2.56-.87,4.72,0,7.74.59,1.49.29,4.51.75,7.19,1.13-5.69,1.78-14.83,4.56-17.4,5Z" fill="none" stroke="#231815" stroke-linecap="round" stroke-linejoin="round" stroke-width="2"/><path d="M214.17,368.8h0l-.13,0c-1-.32-2-.6-3-.83a.83.83,0,0,1,.39-1.31c3.15-1.71,7.68,2.26,10.71,3.58.68.3,4.6,2,7.82,3.36-.95,3.51-1.94,6.78-3.09,9.85C222.32,376.05,219,370.08,214.17,368.8Z" fill="#b7b7b7"/><path d="M218.61,373.42c0,.08.07.17.11.26C218.68,373.59,218.65,373.5,218.61,373.42Z" fill="none" stroke="#231815" stroke-linecap="round" stroke-linejoin="round" stroke-width="2"/><path d="M219,374.32c0,.09.05.17.08.25C219,374.49,219,374.41,219,374.32Z" fill="none" stroke="#231815" stroke-linecap="round" stroke-linejoin="round" stroke-width="2"/><path d="M217.78,371.8l.15.26Z" fill="none" stroke="#231815" stroke-linecap="round" stroke-linejoin="round" stroke-width="2"/><path d="M219.28,375.29l.06.23Z" fill="none" stroke="#231815" stroke-linecap="round" stroke-linejoin="round" stroke-width="2"/><path d="M219.55,376.32c0,.06,0,.13,0,.2S219.56,376.38,219.55,376.32Z" fill="none" stroke="#231815" stroke-linecap="round" stroke-linejoin="round" stroke-width="2"/><path d="M216.19,369.92c.07.06.14.14.22.2C216.33,370.06,216.26,370,216.19,369.92Z" fill="none" stroke="#231815" stroke-linecap="round" stroke-linejoin="round" stroke-width="2"/><polygon points="214.17 368.8 214.17 368.8 214.18 368.81 214.17 368.8" fill="none" stroke="#231815" stroke-linecap="round" stroke-linejoin="round" stroke-width="2"/><path d="M214.89,369.08l.22.12Z" fill="none" stroke="#231815" stroke-linecap="round" stroke-linejoin="round" stroke-width="2"/><path d="M216.76,370.47a2.2,2.2,0,0,1,.2.23A2.2,2.2,0,0,0,216.76,370.47Z" fill="none" stroke="#231815" stroke-linecap="round" stroke-linejoin="round" stroke-width="2"/><path d="M215.56,369.46l.24.17Z" fill="none" stroke="#231815" stroke-linecap="round" stroke-linejoin="round" stroke-width="2"/><path d="M219.77,377.39l0,.17Z" fill="none" stroke="#231815" stroke-linecap="round" stroke-linejoin="round" stroke-width="2"/><path d="M218.22,372.57c0,.09.08.18.13.27C218.3,372.75,218.26,372.66,218.22,372.57Z" fill="none" stroke="#231815" stroke-linecap="round" stroke-linejoin="round" stroke-width="2"/><path d="M220.21,380.88v0Z" fill="none" stroke="#231815" stroke-linecap="round" stroke-linejoin="round" stroke-width="2"/><path d="M217.47,371.35l-.18-.26Z" fill="none" stroke="#231815" stroke-linecap="round" stroke-linejoin="round" stroke-width="2"/><path d="M220.1,379.68v0Z" fill="none" stroke="#231815" stroke-linecap="round" stroke-linejoin="round" stroke-width="2"/><path d="M220,378.51l0,.13Z" fill="none" stroke="#231815" stroke-linecap="round" stroke-linejoin="round" stroke-width="2"/><path d="M215.8,369.63c.13.09.26.18.39.29C216.06,369.81,215.93,369.72,215.8,369.63Z" fill="none" stroke="#231815" stroke-linecap="round" stroke-linejoin="round" stroke-width="2"/><path d="M214.17,368.8h0l-.13,0c-1-.32-2-.6-3-.83a.83.83,0,0,1,.39-1.31c3.15-1.71,7.68,2.26,10.71,3.58.68.3,4.6,2,7.82,3.36-.95,3.51-1.94,6.78-3.09,9.85C222.32,376.05,219,370.08,214.17,368.8Z" fill="none" stroke="#231815" stroke-linecap="round" stroke-linejoin="round" stroke-width="2"/><path d="M219.8,377.56c.06.31.11.63.16.95C219.91,378.19,219.86,377.87,219.8,377.56Z" fill="none" stroke="#231815" stroke-linecap="round" stroke-linejoin="round" stroke-width="2"/><path d="M216.41,370.12c.12.12.24.22.35.35C216.65,370.34,216.53,370.24,216.41,370.12Z" fill="none" stroke="#231815" stroke-linecap="round" stroke-linejoin="round" stroke-width="2"/><path d="M217.29,371.09q-.15-.19-.33-.39Q217.14,370.9,217.29,371.09Z" fill="none" stroke="#231815" stroke-linecap="round" stroke-linejoin="round" stroke-width="2"/><path d="M219.05,374.57c.08.24.16.48.23.72C219.21,375.05,219.13,374.81,219.05,374.57Z" fill="none" stroke="#231815" stroke-linecap="round" stroke-linejoin="round" stroke-width="2"/><path d="M219.59,376.52q.1.44.18.87Q219.7,377,219.59,376.52Z" fill="none" stroke="#231815" stroke-linecap="round" stroke-linejoin="round" stroke-width="2"/><path d="M226.17,385.21h0c.24-.59.47-1.19.69-1.79C226.64,384,226.41,384.62,226.17,385.21Z" fill="none" stroke="#231815" stroke-linecap="round" stroke-linejoin="round" stroke-width="2"/><path d="M214.18,368.81a5.48,5.48,0,0,1,.71.27A5.48,5.48,0,0,0,214.18,368.81Z" fill="none" stroke="#231815" stroke-linecap="round" stroke-linejoin="round" stroke-width="2"/><path d="M215.11,369.2a4,4,0,0,1,.45.26A4,4,0,0,0,215.11,369.2Z" fill="none" stroke="#231815" stroke-linecap="round" stroke-linejoin="round" stroke-width="2"/><path d="M220.11,379.77c0,.36.07.73.1,1.11C220.18,380.5,220.15,380.13,220.11,379.77Z" fill="none" stroke="#231815" stroke-linecap="round" stroke-linejoin="round" stroke-width="2"/><path d="M217.47,371.35a5.09,5.09,0,0,1,.31.45A5.09,5.09,0,0,0,217.47,371.35Z" fill="none" stroke="#231815" stroke-linecap="round" stroke-linejoin="round" stroke-width="2"/><path d="M218.35,372.84c.09.19.18.38.26.58C218.53,373.22,218.44,373,218.35,372.84Z" fill="none" stroke="#231815" stroke-linecap="round" stroke-linejoin="round" stroke-width="2"/><path d="M218.72,373.68c.09.21.17.42.25.64C218.89,374.1,218.81,373.89,218.72,373.68Z" fill="none" stroke="#231815" stroke-linecap="round" stroke-linejoin="round" stroke-width="2"/><path d="M217.93,372.06c.1.17.2.34.29.51C218.13,372.4,218,372.23,217.93,372.06Z" fill="none" stroke="#231815" stroke-linecap="round" stroke-linejoin="round" stroke-width="2"/><path d="M219.34,375.52l.21.8Z" fill="none" stroke="#231815" stroke-linecap="round" stroke-linejoin="round" stroke-width="2"/><path d="M220.27,382.1c0-.39,0-.79-.06-1.18,0,.39,0,.79.06,1.18Z" fill="none" stroke="#231815" stroke-linecap="round" stroke-linejoin="round" stroke-width="2"/><path d="M220,378.64c0,.34.09.69.12,1C220.07,379.33,220,379,220,378.64Z" fill="none" stroke="#231815" stroke-linecap="round" stroke-linejoin="round" stroke-width="2"/><path d="M220.27,382.1c0-.39,0-.79-.06-1.18v0c0-.38-.06-.75-.1-1.11v-.09c0-.35-.08-.7-.12-1l0-.13c-.05-.32-.1-.64-.16-.95l0-.17q-.08-.43-.18-.87c0-.07,0-.14,0-.2l-.21-.8-.06-.23c-.07-.24-.15-.48-.23-.72,0-.08-.05-.16-.08-.25s-.16-.43-.25-.64-.07-.18-.11-.26-.17-.39-.26-.58-.09-.18-.13-.27-.19-.34-.29-.51l-.15-.26a5.09,5.09,0,0,0-.31-.45l-.18-.26q-.15-.19-.33-.39a2.2,2.2,0,0,0-.2-.23c-.11-.13-.23-.23-.35-.35s-.15-.14-.22-.2-.26-.2-.39-.29l-.24-.17a4,4,0,0,0-.45-.26l-.22-.12a5.48,5.48,0,0,0-.71-.27h0c4.8,1.28,8.15,7.25,12.69,14.62-.22.6-.45,1.2-.69,1.79a49.72,49.72,0,0,1-6.79,12c-.57.73-1.25,1.55-2,2.44A44.89,44.89,0,0,0,220.27,382.1Z" fill="none" stroke="#231815" stroke-linecap="round" stroke-linejoin="round" stroke-width="2"/><path d="M230.43,557.72c-.71-6.33.38-20.33-.75-27.18-2.07-12.47-8.48-22.22-12.42-30.57a49.3,49.3,0,0,1-2.73-9.1c4.58,3.24,8.95,6.2,12.84,8.65,23.74,15,65.45,31.24,92.94,46.29-21.45-2.95-47.68-12-51.91-7.64-8.57,8.93-27,21.88-30.81,22C234.19,560.27,230.77,560.76,230.43,557.72Z" fill="none" stroke="#231815" stroke-linecap="round" stroke-linejoin="round" stroke-width="2"/><path d="M160.83,446.75a39.25,39.25,0,0,0,3.77-5C169,435.35,176,424,180.08,415.15c3.25-7.12,7.71-20.65,11.42-31.37.86-2.46,1.67-4.77,2.42-6.82.47-1.27.91-2.44,1.32-3.48,1.13-2.87,2-4.79,2.6-5.21,2.2-1.6,6.95-1.84,13.19-.33,1,.23,2,.51,3,.83l.13,0c4.05,1.26,5.87,6.83,6.1,13.3a44.89,44.89,0,0,1-2.91,17.54c-3.06,3.55-7.45,8.16-11.43,12.38-5.42,5.75-10.07,10.79-9.49,11.44,1.12,1.25,77.52,64.67,91.48,76.31s57.36,41.83,75.87,58,46.76,46.54,50.82,43.57c-5.53,4-13.63-5.23-22.93-11.51s-40.57-26.55-67.9-42.12c-1.13-.64-2.29-1.29-3.47-1.93-27.49-15-69.2-31.3-92.94-46.29-3.89-2.45-8.26-5.41-12.84-8.65-3.45-2.43-7-5-10.6-7.68-18.28-13.57-37-29-41.9-34.44C161,447.65,160.6,447,160.83,446.75Z" fill="none" stroke="#231815" stroke-linecap="round" stroke-linejoin="round" stroke-width="2"/><path d="M338.2,316.4h0Z" fill="none" stroke="#231815" stroke-linecap="round" stroke-linejoin="round" stroke-width="2"/><path d="M338.28,316.4a.36.36,0,0,1,.19.05.76.76,0,0,0-.27-.05Z" fill="none" stroke="#231815" stroke-linecap="round" stroke-linejoin="round" stroke-width="2"/><path d="M323.68,323.87a14.5,14.5,0,0,0-1.81-.74A8.69,8.69,0,0,1,323.68,323.87Z" fill="none" stroke="#231815" stroke-linecap="round" stroke-linejoin="round" stroke-width="2"/><path d="M317.3,322.36a60.07,60.07,0,0,0-7.37-.15c-3.26.11-9.41,0-16.27-.13,10.08-1.22,22.12-3.16,25.21-4.41,4.81-1.94,13.95-1.26,19.23-1.27-1.88.12-5.93,4.62-9.85,5.4A77.61,77.61,0,0,1,317.3,322.36Z" fill="none" stroke="#231815" stroke-linecap="round" stroke-linejoin="round" stroke-width="2"/><path d="M323.68,323.87A4.6,4.6,0,0,1,325.1,325l-.26.05A2.47,2.47,0,0,0,323.68,323.87Z" fill="none" stroke="#231815" stroke-linecap="round" stroke-linejoin="round" stroke-width="2"/><path d="M414.8,601.18a.44.44,0,0,0,.08-.11s.05-.09.08-.14a1,1,0,0,0,0-.1c2.09-5.31-16-38.08-25.94-59.8-10.41-22.67-20.67-57.77-28.34-80.9s-32.47-125.92-33.78-130.87A11.17,11.17,0,0,0,325.1,325a4.6,4.6,0,0,0-1.42-1.16,8.69,8.69,0,0,0-1.81-.74,25.56,25.56,0,0,0-4.57-.77,77.61,77.61,0,0,0,10.95-.56c3.92-.78,8-5.28,9.85-5.4h.1a.76.76,0,0,1,.27.05.67.67,0,0,1,.33.22c3.39,4.16,17.22,43.41,24.36,74.41s16.78,63.81,21,91.78c3.67,24.48,32.78,93.37,33.49,114.28.1,3-1.85,3.4-3,4.23A.69.69,0,0,0,414.8,601.18Z" fill="none" stroke="#231815" stroke-linecap="round" stroke-linejoin="round" stroke-width="2"/><path d="M261.17,322.76c1.25-1.31,18.38-.95,32.49-.68,6.86.13,13,.24,16.27.13a60.07,60.07,0,0,1,7.37.15,25.56,25.56,0,0,1,4.57.77,14.5,14.5,0,0,1,1.81.74,2.47,2.47,0,0,1,1.16,1.21,2,2,0,0,1-.53,2c-2,2.51-9.76,3.45-17.67,4.4-3.63.44-7.28.88-10.42,1.47-5.35,1-17.09,4.82-28,8.32C264.72,334.73,259.75,324.23,261.17,322.76Z" fill="none" stroke="#231815" stroke-linecap="round" stroke-linejoin="round" stroke-width="2"/><path d="M245.07,365.68c9.59,13.12,60.6,86.25,77.88,106.56s55.78,75.47,68.42,95.08" fill="none" stroke="#231815" stroke-linecap="round" stroke-linejoin="round" stroke-width="2"/><path d="M205.93,412c4-4.22,8.37-8.83,11.43-12.38.77-.89,1.45-1.71,2-2.44a49.72,49.72,0,0,0,6.79-12c.24-.59.47-1.19.69-1.79,1.15-3.07,2.14-6.34,3.09-9.85.32-1.16.63-2.35.94-3.57a24.14,24.14,0,0,0,.45-8.12c-.83-9-5.08-17.85-3.73-18.84,1.76-1.28,10.88,5.92,18.64,4.69h0c2.57-.42,11.71-3.2,17.4-5,2.3-.71,4-1.27,4.54-1.44,10.93-3.5,22.67-7.3,28-8.32,3.14-.59,6.79-1,10.42-1.47,7.91-.95,15.67-1.89,17.67-4.4,1.09-1.37.74-2.45-.63-3.25,1.31.7,2.34,1.91,3.26,5.39,1.31,4.95,26.11,107.74,33.78,130.87s17.93,58.23,28.34,80.9c10,21.72,28,54.49,25.94,59.8a1,1,0,0,1,0,.1c0,.05,0,.1-.08.14a.44.44,0,0,1-.08.11.69.69,0,0,1-.19.19c-4.06,3-32.3-27.37-50.82-43.57s-61.9-46.4-75.87-58-90.36-75.06-91.48-76.31C195.86,422.81,200.51,417.77,205.93,412Z" fill="none" stroke="#231815" stroke-linecap="round" stroke-linejoin="round" stroke-width="2"/><path d="M216.38,558c0,3.52,17.48,7.7,39,7.7s39-4.18,39-7.7-17.48-6.37-39-6.37S216.38,554.44,216.38,558Z" fill="#fff8f3" stroke="#000" stroke-linecap="round" stroke-linejoin="round" stroke-width="2"/><path d="M212.38,496.17h.17c2.72,5.85,21.11,10.37,43.39,10.37,21.6,0,39.54-4.25,43.09-9.84h.25l-4.9,60.84a1.25,1.25,0,0,1,.08.42,1.18,1.18,0,0,1-.17.61l0,.27L294,559c-2.86,3.26-19,6.69-38.6,6.69-21.56,0-39-4.18-39-7.7a.37.37,0,0,1,0-.11Z" opacity="0.4" fill="url(#未命名漸層_3)"/><line x1="216.41" y1="558.21" x2="212.38" y2="496.17" fill="none" stroke="#000" stroke-linecap="round" stroke-linejoin="round" stroke-width="2" stroke-dasharray="5.27"/><line x1="299.28" y1="496.7" x2="294.27" y2="558.84" fill="none" stroke="#000" stroke-linecap="round" stroke-linejoin="round" stroke-width="2" stroke-dasharray="5.27"/><ellipse cx="255.94" cy="494.67" rx="43.73" ry="11.87" fill="none" stroke="#000" stroke-linecap="round" stroke-linejoin="round" stroke-width="2" stroke-dasharray="5.27"/><ellipse cx="255.94" cy="494.67" rx="43.73" ry="11.87" opacity="0.4" fill="url(#未命名漸層_3-2)"/><line x1="220.99" y1="510.93" x2="224.51" y2="556.21" fill="#ff4b00" stroke="#fff" stroke-linecap="round" stroke-linejoin="round" stroke-width="2" opacity="0.47"/><path d="M255.88,565.44c16.52,0,30.89-2.49,38.33-6.16l-4.44,55.15-.08,2.16c0,4.76-15.58,8.62-34.79,8.62s-34.78-3.86-34.78-8.62l-.14-2.16-3.63-55.78C223.37,562.66,238.43,565.44,255.88,565.44Z" fill="#fff8f3" stroke="#000" stroke-linecap="round" stroke-linejoin="round" stroke-width="2"/><path d="M216.35,558.65c4.5,2.57,12.31,4.63,21.93,5.78l3.49,60.15c-12.7-1.29-21.65-4.38-21.65-8l-.14-2.16Z" fill="#facf99" opacity="0.3"/><path d="M255.88,565.44c16.52,0,30.89-2.49,38.33-6.16l-4.44,55.15-.08,2.16c0,4.76-15.58,8.62-34.79,8.62s-34.78-3.86-34.78-8.62l-.14-2.16-3.63-55.78C223.37,562.66,238.43,565.44,255.88,565.44Z" fill="none" stroke="#000" stroke-linecap="round" stroke-linejoin="round" stroke-width="2"/><path d="M257.11,621.62a19.66,19.66,0,0,1-4.58.28" fill="none" stroke="#000" stroke-linecap="round" stroke-linejoin="round" stroke-width="2"/><path d="M249.84,621.88s-15.06,0-26.93-6.12" fill="none" stroke="#000" stroke-linecap="round" stroke-linejoin="round" stroke-width="2"/><path d="M214.33,536.17l1.7,39.42c0,5.6,19.33,11.13,42,11.13s40-5.53,40-11.13l1.71-39.42c0-.11,0-.22,0-.33,0-5.84-19.12-10.57-42.7-10.57s-42.7,4.73-42.7,10.57A1.83,1.83,0,0,0,214.33,536.17Z" fill="#da9225" stroke="#000" stroke-linecap="round" stroke-linejoin="round" stroke-width="2"/><path d="M258,586.72c-22.63,0-42-5.53-42-11.13l-1.46-33.88c2.34-5.29,20.45-9.41,42.44-9.41s40.09,4.12,42.44,9.41L298,575.59C298,581.19,280.62,586.72,258,586.72Z" fill="#bf7c1c"/><path d="M214.33,536.17l1.7,39.42c0,5.6,19.33,11.13,42,11.13s40-5.53,40-11.13l1.71-39.42c0-.11,0-.22,0-.33,0-5.84-19.12-10.57-42.7-10.57s-42.7,4.73-42.7,10.57A1.83,1.83,0,0,0,214.33,536.17Z" fill="none" stroke="#000" stroke-linecap="round" stroke-linejoin="round" stroke-width="2"/><path d="M213.26,494.85h.17c2.72,5.85,21.11,10.37,43.39,10.37,21.6,0,39.54-4.25,43.09-9.84h.25l-4.9,60.84a1.26,1.26,0,0,1,.08.43,1.24,1.24,0,0,1-.17.6l0,.28-.25.12c-2.86,3.26-19,6.69-38.6,6.69-21.56,0-39-4.17-39-7.69a.49.49,0,0,1,0-.12Z" opacity="0.4" fill="url(#未命名漸層_3-3)"/><line x1="217.29" y1="556.89" x2="213.26" y2="494.85" fill="none" stroke="#000" stroke-linecap="round" stroke-linejoin="round" stroke-width="2" stroke-dasharray="5.27"/><line x1="300.16" y1="495.38" x2="295.15" y2="557.53" fill="none" stroke="#000" stroke-linecap="round" stroke-linejoin="round" stroke-width="2" stroke-dasharray="5.27"/><ellipse cx="256.82" cy="493.35" rx="43.73" ry="11.87" fill="none" stroke="#000" stroke-linecap="round" stroke-linejoin="round" stroke-width="2" stroke-dasharray="5.27"/><ellipse cx="256.82" cy="493.35" rx="43.73" ry="11.87" opacity="0.4" fill="url(#未命名漸層_3-4)"/><path d="M295.15,558.62c-7.44,3.67-21.82,6.16-38.33,6.16-17.45,0-32.51-2.78-39.53-6.79l-4.13-63.54h87.16Z" fill="#fff8f3" stroke="#000" stroke-linecap="round" stroke-linejoin="round" stroke-width="2"/><path d="M239.3,563.78c-9.66-1.14-17.5-3.21-22-5.79l-4.13-63.54h22.12Z" fill="#facf99" opacity="0.3"/><path d="M295.15,558.62c-7.44,3.67-21.82,6.16-38.33,6.16-17.45,0-32.51-2.78-39.53-6.79l-4.13-63.54h87.16Z" fill="none" stroke="#000" stroke-linecap="round" stroke-linejoin="round" stroke-width="2"/><ellipse cx="256.82" cy="494.89" rx="43.73" ry="11.87" fill="#f6bea3" stroke="#000" stroke-linecap="round" stroke-linejoin="round" stroke-width="2"/><path d="M225.43,505c-9.23-2.51-14.11-6-14.11-10.09s4.88-7.59,14.11-10.09c8.41-2.28,19.55-3.54,31.39-3.54s23,1.26,31.38,3.54c9.23,2.5,14.11,6,14.11,10.09s-4.88,7.58-14.11,10.09c-8.4,2.28-19.55,3.54-31.38,3.54S233.84,507.26,225.43,505Zm.92-16.79c-8.5,2.31-11.51,5.05-11.51,6.7s3,4.39,11.51,6.69c8.12,2.21,18.93,3.42,30.47,3.42s22.35-1.21,30.46-3.42c8.5-2.3,11.51-5,11.51-6.69s-3-4.39-11.51-6.7c-8.11-2.2-18.93-3.41-30.46-3.41S234.47,486,226.35,488.19Z" fill="#fff8f3" stroke="#000" stroke-linecap="round" stroke-linejoin="round" stroke-width="2"/><path d="M257,551.37c23.21,0,42.1-5.28,42.68-11L298,580c0,5.6-17.36,11.13-40,11.13s-42-5.53-42-11.13l-1.71-39.61C214.9,546.09,232.69,551.37,257,551.37Z" fill="#ffd036" stroke="#000" stroke-linecap="round" stroke-linejoin="round" stroke-width="2"/><line x1="220.26" y1="550.17" x2="220.65" y2="579.13" fill="#ffd036" stroke="#000" stroke-linecap="round" stroke-linejoin="round" stroke-width="2"/><line x1="226.82" y1="552.73" x2="226.75" y2="582.5" fill="#ffd036" stroke="#000" stroke-linecap="round" stroke-linejoin="round" stroke-width="2"/><line x1="233.38" y1="554.47" x2="233.75" y2="584.66" fill="#ffd036" stroke="#000" stroke-linecap="round" stroke-linejoin="round" stroke-width="2"/><path d="M209.29,496.17,213.2,488c0-6,19.51-10.79,43.58-10.79s43.58,4.83,43.58,10.79l3.91,8.14a4.14,4.14,0,0,1,1.37,2.85c0,6.68-21.88,12.1-48.86,12.1s-48.85-5.42-48.85-12.1A4.12,4.12,0,0,1,209.29,496.17Z" fill="#4f4f4f" stroke="#000" stroke-linecap="round" stroke-linejoin="round" stroke-width="2"/><path d="M300.74,499.06s-5.28,6.14-34.29,7.92a141.83,141.83,0,0,1-19.34,0c-29-1.85-34.28-7.92-34.28-7.92" fill="none" stroke="#000" stroke-linecap="round" stroke-linejoin="round" stroke-width="2"/><path d="M257.66,494.4c-15.66,0-29.33-1.93-36.63-4.81a1.71,1.71,0,0,1-.4-3.17c5.19-3.12,19.87-5.38,37.16-5.38,17.14,0,31.71,2.22,37,5.3a1.71,1.71,0,0,1-.34,3.18C287.21,492.43,273.44,494.4,257.66,494.4Z" fill="#666"/><path d="M216.38,488.23s4.25,5.72,40.36,5.72h.08c36.11,0,40.36-5.72,40.36-5.72" fill="none" stroke="#000" stroke-linecap="round" stroke-linejoin="round" stroke-width="2"/><path d="M209.29,496.17,213.2,488c0-6,19.51-10.79,43.58-10.79s43.58,4.83,43.58,10.79l3.91,8.14a4.14,4.14,0,0,1,1.37,2.85c0,6.68-21.88,12.1-48.86,12.1s-48.85-5.42-48.85-12.1A4.12,4.12,0,0,1,209.29,496.17Z" fill="none" stroke="#000" stroke-linecap="round" stroke-linejoin="round" stroke-width="2"/><path d="M295.84,487.63s-6.77-7.76-39.29-7" fill="none" stroke="#000" stroke-linecap="round" stroke-linejoin="round" stroke-width="2"/><path d="M228.51,484.56v-6.71a1.53,1.53,0,0,1,1.26-1.51l5.88-1a1.54,1.54,0,0,1,1.61.79l2.67,7.09" fill="gray" stroke="#000" stroke-miterlimit="10" stroke-width="2"/><polyline points="232.62 484.56 231.25 478.62 229.88 477.7" fill="none" stroke="#000" stroke-linecap="round" stroke-linejoin="round" stroke-width="2"/><line x1="236.28" y1="477.7" x2="231.25" y2="478.62" fill="#fff8f3" stroke="#000" stroke-linecap="round" stroke-linejoin="round" stroke-width="2"/><path d="M487,421.61a5.3,5.3,0,0,0,.45-.34,1.67,1.67,0,0,0,.72-1,1.83,1.83,0,0,0-.3-1.08c-3.47-6.38-10.31-9.54-16.65-11.39-1.84-.53-3.69-1-5.56-1.4-11.13-2.47-25.83-3.85-41.49-3.9s-30.36,1.43-41.49,3.9c-1.86.41-3.72.87-5.56,1.4-5.18,1.51-10.45,3.4-13.93,7.95l-1.47,1.92a2.6,2.6,0,0,0,.79,4.16,22,22,0,0,0,2.77,1.22,10.05,10.05,0,0,1,4.15,3.51c2.31,3.39,6.53,3,10,4,3.07.84,5.91,2.69,9.06,3,2.24.22,4.49-.35,6.74-.24,3.36.17,6.53,1.85,9.89,2.09,2.13.15,4.29-.28,6.41.05,2.37.37,4.56,1.69,6.95,1.95a13,13,0,0,0,3.23-.13,18,18,0,0,1,4.86,0,13,13,0,0,0,3.23.13c2.39-.26,4.58-1.58,7-1.95,2.11-.33,4.27.1,6.4-.05,3.36-.24,6.53-1.92,9.9-2.09,2.24-.11,4.49.46,6.73.24,3.16-.32,6-2.17,9.06-3,2.89-.79,6.08-.72,8.62-2.41,1.84-1.22,3.22-3.13,5.06-4.32a20.58,20.58,0,0,1,2.7-1.24A10.74,10.74,0,0,0,487,421.61Z" stroke="#fff" stroke-miterlimit="10" stroke-width="2" opacity="0.62" fill="url(#未命名漸層_6)"/><path d="M487,421.61a5.3,5.3,0,0,0,.45-.34,1.67,1.67,0,0,0,.72-1,1.83,1.83,0,0,0-.3-1.08c-3.47-6.38-10.31-9.54-16.65-11.39-1.84-.53-3.69-1-5.56-1.4-11.13-2.47-25.83-3.85-41.49-3.9s-30.36,1.43-41.49,3.9c-1.86.41-3.72.87-5.56,1.4-3.33,1-9.11,2.16-11.36,5.3-.76,1.06-1.07,2.46-1.91,3.47-.6.72-1.47,1.26-1.71,2.19-.36,1.35.79,2.57,1.82,3.43,1.28,1.07,2.62,1.73,3.92,2.65s1.93,2.5,3.24,3.41c2.45,1.71,5.6,1.55,8.34,2.3,3.07.84,5.91,2.69,9.06,3,2.24.22,4.49-.35,6.74-.24,3.36.17,6.53,1.85,9.89,2.09,2.13.15,4.29-.28,6.41.05,2.37.37,4.56,1.69,6.95,1.95a13,13,0,0,0,3.23-.13,18,18,0,0,1,4.86,0,13,13,0,0,0,3.23.13c2.39-.26,4.58-1.58,7-1.95,2.11-.33,4.27.1,6.4-.05,3.36-.24,6.53-1.92,9.9-2.09,2.24-.11,4.49.46,6.73.24,3.16-.32,6-2.17,9.06-3,2.89-.79,6.08-.72,8.62-2.41,1.84-1.22,3.22-3.13,5.06-4.32a20.58,20.58,0,0,1,2.7-1.24A10.74,10.74,0,0,0,487,421.61Z" fill="none" stroke="#040204" stroke-linecap="round" stroke-linejoin="round" stroke-width="2"/><path d="M424.36,431.52c-14.78,0-28.69-1.19-39.17-3.35-11.78-2.43-17.51-5.63-17.51-9.77s5.73-7.33,17.51-9.77c10.48-2.16,24.39-3.35,39.17-3.35s28.68,1.19,39.17,3.35c11.77,2.44,17.5,5.63,17.5,9.77s-5.73,7.34-17.5,9.77C453,430.33,439.13,431.52,424.36,431.52Zm0-22.66c-14.55,0-28.2,1.16-38.45,3.28-14.48,3-14.65,6.23-14.65,6.26s.17,3.27,14.65,6.26c10.25,2.12,23.9,3.29,38.45,3.29s28.19-1.17,38.44-3.29c14.48-3,14.65-6.23,14.65-6.26s-.17-3.27-14.65-6.26C452.55,410,438.9,408.86,424.36,408.86Z" fill="#efefef" stroke="#040204" stroke-linecap="round" stroke-linejoin="round" stroke-width="2"/><path d="M423.8,342.72,399.75,611.26h.05c.36,1.59,4,3.17,8.61,3.62s8.46-.37,9.09-1.87h.06l24.05-268.54Z" fill="#ffd036" stroke="#040204" stroke-linecap="round" stroke-linejoin="round" stroke-width="2"/><path d="M408.26,614.93c4.39.36,8-.46,8.64-1.91H417L441,344.31l-6-.6Z" fill="#d2a412" opacity="0.59"/><path d="M423.8,342.72,399.75,611.26h.05c.36,1.59,4,3.17,8.61,3.62s8.46-.37,9.09-1.87h.06l24.05-268.54Z" fill="none" stroke="#040204" stroke-linecap="round" stroke-linejoin="round" stroke-width="2"/><ellipse cx="432.68" cy="343.87" rx="3.1" ry="8.95" transform="translate(47.36 740.1) rotate(-84.28)" fill="#d2a412" stroke="#040204" stroke-miterlimit="10" stroke-width="2"/><ellipse cx="432.68" cy="343.87" rx="1.93" ry="6.6" transform="translate(47.52 740.25) rotate(-84.3)" fill="#ffd036"/><path d="M454,410.05c4.45.47,29.84,3.46,21.95,10.35a9.78,9.78,0,0,1-3.33,1.83c-4.13,1.41-16.49,4.77-40.79,5.12-.21,0-.25-.25,0-.28,5.71-.78,20.44-3,27.28-6.44,2.92-1.44,3.25-4.77.65-6.57-1.41-1-3.36-2.27-5.84-3.76C453.73,410.22,453.81,410,454,410.05Z" fill="#00ace7" opacity="0.26"/><path d="M463.53,428.17c-10.49,2.16-24.4,3.35-39.17,3.35s-28.69-1.19-39.17-3.35c-7.75-1.6-12.88-3.53-15.48-5.84,0,.56.08,1.12.13,1.68.11,1.43.21,2.85.32,4.28.13,1.68.26,3.35.38,5q.22,2.81.43,5.59l.45,5.94q.24,3,.46,6.08l.46,6c.15,1.92.29,3.83.44,5.75.13,1.75.26,3.51.4,5.27.11,1.53.23,3.06.35,4.59.09,1.23.18,2.46.28,3.7.06.86.13,1.73.2,2.6,0,.51.08,1,.15,1.51a4.67,4.67,0,0,0,.24,1.36c.88,1.92,2.68,2.29,4.32,2.95l0,0c.05.74.11,1.49.17,2.23l.78,10.09c.28,3.68.57,7.35.85,11q.46,5.85.91,11.7.47,6.06.94,12.1t.95,12.23l.93,12.07.9,11.65q.44,5.48.85,11c.26,3.33.52,6.65.77,10l.68,8.73c.19,2.41.37,4.81.56,7.22l.42,5.42c.09,1.12.17,2.24.26,3.35s0,2.06.67,2.82a3.49,3.49,0,0,0,.35.32A12.33,12.33,0,0,0,395,619a64.31,64.31,0,0,0,6.41,1.28,147.76,147.76,0,0,0,17.44,1.49c1.83.06,3.67.08,5.51.09s3.67,0,5.5-.09a147.76,147.76,0,0,0,17.44-1.49,64.31,64.31,0,0,0,6.41-1.28,12.33,12.33,0,0,0,5.24-2.37,3.49,3.49,0,0,0,.35-.32c.71-.76.59-1.81.67-2.82s.17-2.23.26-3.35l.42-5.42c.19-2.41.37-4.81.56-7.22l.68-8.73c.25-3.33.51-6.65.77-10,.28-3.65.57-7.3.85-11l.9-11.65q.46-6,.94-12.07t.94-12.23q.48-6,.94-12.1.45-5.85.91-11.7c.28-3.68.57-7.35.85-11l.78-10.09.18-2.23,0,0c1.69-.67,3.68-1.09,4.37-3.25a11,11,0,0,0,.33-2.56c.07-.87.15-1.74.21-2.61.1-1.24.19-2.47.28-3.7.12-1.53.24-3.06.35-4.59.14-1.76.27-3.52.4-5.27.15-1.92.29-3.83.44-5.75l.46-6c.15-2,.31-4.05.46-6.08l.45-5.94q.21-2.79.43-5.59c.12-1.68.25-3.35.38-5,.11-1.43.22-2.85.32-4.28.05-.56.09-1.12.13-1.68C476.4,424.64,471.27,426.57,463.53,428.17Z" fill="#fff" stroke="#040204" stroke-linecap="round" stroke-linejoin="round" stroke-width="2"/><g clip-path="url(#clip-path)"><path d="M424.36,431.52c-14.78,0-28.69-1.19-39.17-3.35-11.78-2.43-17.51-5.63-17.51-9.77s5.73-7.33,17.51-9.77c10.48-2.16,24.39-3.35,39.17-3.35s28.68,1.19,39.17,3.35c11.77,2.44,17.5,5.63,17.5,9.77s-5.73,7.34-17.5,9.77C453,430.33,439.13,431.52,424.36,431.52Zm0-22.66c-14.55,0-28.2,1.16-38.45,3.28-14.48,3-14.65,6.23-14.65,6.26s.17,3.27,14.65,6.26c10.25,2.12,23.9,3.29,38.45,3.29s28.19-1.17,38.44-3.29c14.48-3,14.65-6.23,14.65-6.26s-.17-3.27-14.65-6.26C452.55,410,438.9,408.86,424.36,408.86Z" fill="#efefef" stroke="#040204" stroke-linecap="round" stroke-linejoin="round" stroke-width="2"/></g><g clip-path="url(#clip-path-2)"><path d="M487,421.61a5.3,5.3,0,0,0,.45-.34,1.67,1.67,0,0,0,.72-1,1.83,1.83,0,0,0-.3-1.08c-3.47-6.38-10.31-9.54-16.65-11.39-1.84-.53-3.69-1-5.56-1.4-11.13-2.47-25.83-3.85-41.49-3.9s-30.36,1.43-41.49,3.9c-1.86.41-3.72.87-5.56,1.4-5.18,1.51-10.45,3.4-13.93,7.95l-1.47,1.92a2.6,2.6,0,0,0,.79,4.16,22,22,0,0,0,2.77,1.22,10.05,10.05,0,0,1,4.15,3.51c2.31,3.39,6.53,3,10,4,3.07.84,5.91,2.69,9.06,3,2.24.22,4.49-.35,6.74-.24,3.36.17,6.53,1.85,9.89,2.09,2.13.15,4.29-.28,6.41.05,2.37.37,4.56,1.69,6.95,1.95a13,13,0,0,0,3.23-.13,18,18,0,0,1,4.86,0,13,13,0,0,0,3.23.13c2.39-.26,4.58-1.58,7-1.95,2.11-.33,4.27.1,6.4-.05,3.36-.24,6.53-1.92,9.9-2.09,2.24-.11,4.49.46,6.73.24,3.16-.32,6-2.17,9.06-3,2.89-.79,6.08-.72,8.62-2.41,1.84-1.22,3.22-3.13,5.06-4.32a20.58,20.58,0,0,1,2.7-1.24A10.74,10.74,0,0,0,487,421.61Z" stroke="#fff" stroke-miterlimit="10" stroke-width="2" opacity="0.62" fill="url(#未命名漸層_6)"/><path d="M487,421.61a5.3,5.3,0,0,0,.45-.34,1.67,1.67,0,0,0,.72-1,1.83,1.83,0,0,0-.3-1.08c-3.47-6.38-10.31-9.54-16.65-11.39-1.84-.53-3.69-1-5.56-1.4-11.13-2.47-25.83-3.85-41.49-3.9s-30.36,1.43-41.49,3.9c-1.86.41-3.72.87-5.56,1.4-3.33,1-9.11,2.16-11.36,5.3-.76,1.06-1.07,2.46-1.91,3.47-.6.72-1.47,1.26-1.71,2.19-.36,1.35.79,2.57,1.82,3.43,1.28,1.07,2.62,1.73,3.92,2.65s1.93,2.5,3.24,3.41c2.45,1.71,5.6,1.55,8.34,2.3,3.07.84,5.91,2.69,9.06,3,2.24.22,4.49-.35,6.74-.24,3.36.17,6.53,1.85,9.89,2.09,2.13.15,4.29-.28,6.41.05,2.37.37,4.56,1.69,6.95,1.95a13,13,0,0,0,3.23-.13,18,18,0,0,1,4.86,0,13,13,0,0,0,3.23.13c2.39-.26,4.58-1.58,7-1.95,2.11-.33,4.27.1,6.4-.05,3.36-.24,6.53-1.92,9.9-2.09,2.24-.11,4.49.46,6.73.24,3.16-.32,6-2.17,9.06-3,2.89-.79,6.08-.72,8.62-2.41,1.84-1.22,3.22-3.13,5.06-4.32a20.58,20.58,0,0,1,2.7-1.24A10.74,10.74,0,0,0,487,421.61Z" fill="none" stroke="#040204" stroke-linecap="round" stroke-linejoin="round" stroke-width="2"/></g><path d="M393,411.24c-8.15.86-41.29,5.07-5.24,13.72.21,0,.32-.18.13-.26-5.49-2.08-15.75-7.47,5.18-13.19C393.24,411.45,393.18,411.22,393,411.24Z" fill="#00ace7" opacity="0.26"/><path d="M437.48,490.58l2.39,127.66a91,91,0,0,0,16.1-3L467.9,485.81A187.32,187.32,0,0,1,437.48,490.58Z" fill="#f1f1f1"/><path d="M475.06,432.72,471,478.54a2.35,2.35,0,0,1-1.44,1.95c-2,.83-6.49,2.32-15.39,3.53" fill="none" stroke="#f1f1f1" stroke-linecap="round" stroke-linejoin="round" stroke-width="2"/><path d="M378.76,484.7s40.23,12.94,91.19,0" fill="none" stroke="#040204" stroke-linecap="round" stroke-linejoin="round" stroke-width="2"/><path d="M393.32,600.54A152.84,152.84,0,0,0,406,612.4" fill="none" stroke="#f1f1f1" stroke-linecap="round" stroke-linejoin="round" stroke-width="2"/><path d="M395.23,592.47a84.17,84.17,0,0,0,27.49,20.94" fill="none" stroke="#f1f1f1" stroke-linecap="round" stroke-linejoin="round" stroke-width="2"/><path d="M585.16,521.77c3.05,6.35,6.67,18.57-2.66,30.23a10.35,10.35,0,0,1-9.28,3.75l-38.83-4.62a5.34,5.34,0,0,1-4.5-3.77c-1.88-6.23-4.37-20,5-32.42a5.29,5.29,0,0,1,4.8-2.06l38.63,4A8.64,8.64,0,0,1,585.16,521.77Z" fill="#f1f1f1" stroke="#040204" stroke-linecap="round" stroke-linejoin="round" stroke-width="2"/><path d="M541.49,517.86a27.47,27.47,0,0,1,3.13,14.88,18.26,18.26,0,0,1-8.39,14.73" fill="#f1f1f1" stroke="#040204" stroke-linecap="round" stroke-linejoin="round" stroke-width="2"/><path d="M544.38,516.48l31,3.18a10.21,10.21,0,0,1,8.18,5.74,21.06,21.06,0,0,1,1.88,10.27" fill="none" stroke="#e5e5e5" stroke-linecap="round" stroke-linejoin="round" stroke-width="2"/><path d="M540.2,549.68l32.74,3.85A11,11,0,0,0,583.35,547" fill="none" stroke="#e5e5e5" stroke-linecap="round" stroke-linejoin="round" stroke-width="2"/><path d="M447,503c7,0,19.63,2,26.08,15.51a10.34,10.34,0,0,1-.64,10l-21,33A5.35,5.35,0,0,1,446.1,564c-6.43-1-20-4.76-27.07-18.53a5.36,5.36,0,0,1,.23-5.23l20.39-33A8.66,8.66,0,0,1,447,503Z" fill="#f1f1f1" stroke="#040204" stroke-linecap="round" stroke-linejoin="round" stroke-width="2"/><path d="M424.55,540.69a27.47,27.47,0,0,1,14.77,3.64A18.26,18.26,0,0,1,449,558.28" fill="#f1f1f1" stroke="#040204" stroke-linecap="round" stroke-linejoin="round" stroke-width="2"/><path d="M424.56,537.49,440.9,510.9a10.23,10.23,0,0,1,8.72-4.88,21.11,21.11,0,0,1,10.06,2.76" fill="none" stroke="#e5e5e5" stroke-linecap="round" stroke-linejoin="round" stroke-width="2"/><path d="M452.67,555.66l17.67-27.83a11,11,0,0,0-1.4-12.23" fill="none" stroke="#e5e5e5" stroke-linecap="round" stroke-linejoin="round" stroke-width="2"/><path d="M512.63,544.52c1.22-6.93,1.39-19.68-10.75-28.38a10.3,10.3,0,0,0-9.94-1.09L455.8,530a5.34,5.34,0,0,0-3.31,4.85c-.12,6.51,1.22,20.48,13.54,29.87a5.32,5.32,0,0,0,5.19.68l36.08-14.33A8.65,8.65,0,0,0,512.63,544.52Z" fill="#f1f1f1" stroke="#040204" stroke-linecap="round" stroke-linejoin="round" stroke-width="2"/><path d="M471.65,560.11a27.51,27.51,0,0,0-1-15.17A18.29,18.29,0,0,0,458.56,533" fill="#f1f1f1" stroke="#040204" stroke-linecap="round" stroke-linejoin="round" stroke-width="2"/><path d="M472.89,485.1c.43-.42.87-.83,1.31-1.22a24.64,24.64,0,0,1,10.37-5.9,10.28,10.28,0,0,1,4.38-.16,13.12,13.12,0,0,1,4.57,2.33l5.75,3.93,6.93,4.73c2.89,2,5.9,3.77,8.64,5.92a7.77,7.77,0,0,1,2.14,2.06c3.23,5.43-.81,16.26-9,24.27-7,6.91-14.87,9.41-19,6.5l-24.38-16.67h0a5.2,5.2,0,0,1-1.57-1.66C460,504,465,492.87,472.89,485.1Z" fill="#f1f1f1" stroke="#040204" stroke-linecap="round" stroke-linejoin="round" stroke-width="2"/><path d="M488.05,483.27A23.18,23.18,0,0,1,483.79,497a37,37,0,0,1-10.59,9.93,10.49,10.49,0,0,1-4.53,1.91" fill="none" stroke="#040204" stroke-linecap="round" stroke-linejoin="round" stroke-width="2"/><path d="M503.61,570c-3.85-5.89-9-17.54-1.29-30.31a10.31,10.31,0,0,1,8.71-4.92l39.11-.48a5.35,5.35,0,0,1,5,3.16c2.67,5.94,6.94,19.31-.7,32.79a5.3,5.3,0,0,1-4.49,2.67l-38.82,1A8.63,8.63,0,0,1,503.61,570Z" fill="#f1f1f1" stroke="#040204" stroke-linecap="round" stroke-linejoin="round" stroke-width="2"/><path d="M547.42,568.17a27.48,27.48,0,0,1-5-14.35,18.29,18.29,0,0,1,6.41-15.7" fill="#f1f1f1" stroke="#040204" stroke-linecap="round" stroke-linejoin="round" stroke-width="2"/><line x1="513.17" y1="496.73" x2="491.09" y2="481.42" fill="#f1f1f1" stroke="#e5e5e5" stroke-linecap="round" stroke-linejoin="round" stroke-width="2"/><line x1="528.51" y1="486.58" x2="512.04" y2="512.27" fill="#f1f1f1" stroke="#e5e5e5" stroke-linecap="round" stroke-linejoin="round" stroke-width="2"/><path d="M506.76,525s-13.18,13.18-26.37-1.32" fill="none" stroke="#e5e5e5" stroke-linecap="round" stroke-linejoin="round" stroke-width="2"/><path d="M544.73,569.91l-31.19.88a10.21,10.21,0,0,1-8.85-4.63,20.83,20.83,0,0,1-3.2-9.93" fill="none" stroke="#e5e5e5" stroke-linecap="round" stroke-linejoin="round" stroke-width="2"/><path d="M544.56,536.45l-33,.44a11,11,0,0,0-9.47,7.86" fill="none" stroke="#e5e5e5" stroke-linecap="round" stroke-linejoin="round" stroke-width="2"/><path d="M545,488c-.56-.22-1.12-.42-1.69-.62a24.59,24.59,0,0,0-11.86-1.33,10,10,0,0,0-4.08,1.57,13,13,0,0,0-3.29,3.94l-3.74,5.87-4.51,7.08c-1.88,3-3.94,5.79-5.61,8.85a7.62,7.62,0,0,0-1.16,2.73c-.83,6.26,7.15,14.63,17.81,18.78,9.19,3.58,17.37,2.8,20-1.49l15.85-24.92h0a5.15,5.15,0,0,0,.78-2.15C564.31,500.27,555.34,492.05,545,488Z" fill="#f1f1f1" stroke="#040204" stroke-linecap="round" stroke-linejoin="round" stroke-width="2"/><path d="M530.35,492.3a23.18,23.18,0,0,0,9.32,10.95,36.79,36.79,0,0,0,13.64,5,10.36,10.36,0,0,0,4.92,0" fill="none" stroke="#040204" stroke-linecap="round" stroke-linejoin="round" stroke-width="2"/><path d="M530.2,489.2a11.24,11.24,0,0,0-3.5,3.84q-7,10.65-13.07,21.87a5.56,5.56,0,0,0-1,3.61" fill="#f1f1f1" stroke="#e5e5e5" stroke-linecap="round" stroke-linejoin="round" stroke-width="2"/><path d="M460.92,489.21c4.35-1.9,15.28,8.89,24.74,24.54s13.93,30.34,10.22,33.31a2.15,2.15,0,0,1-.24.18l0,0-35.37,21.37c2.74-3.93-1.79-18-10.84-33s-19.4-25.52-24.15-24.92l35.39-21.39Z" fill="#d0953e"/><path d="M460.92,489.21c4.35-1.9,15.28,8.89,24.74,24.54s13.93,30.34,10.22,33.31a2.15,2.15,0,0,1-.24.18l0,0-35.37,21.37c2.74-3.93-1.79-18-10.84-33s-19.4-25.52-24.15-24.92l35.39-21.39Z" fill="none" stroke="#231815" stroke-linecap="round" stroke-linejoin="round" stroke-width="2"/><ellipse cx="346.88" cy="597.55" rx="8.99" ry="30.47" transform="translate(-259.08 265.57) rotate(-31.15)" fill="#f0f0f0"/><path d="M532.65,485.34c-3.72-6.15-5.4-12-3.81-13.08l.12-.07c1.72-.89,6.08,3.3,9.8,9.46s5.44,12.06,3.78,13.11l0,0C540.81,495.76,536.41,491.55,532.65,485.34Z" fill="#f0f0f0"/><polygon points="528.43 503.29 528.43 503.29 528.43 503.29 528.43 503.29" fill="#f0f0f0"/><path d="M464.87,486.51c1.62-1,16.11-10.42,30.43-6.88s15.3,3.65,17.17,2.53l.09-.06,2.25-1.36,2.24-1.36,11.79-7.12,0,0,.07,0c1.72-.89,6.08,3.3,9.8,9.46s5.44,12.06,3.78,13.11h0l-11.83,7.15-2.25,1.36h0l-2.25,1.36-.09.05c-2.82,1.7-2.34,2.61-5.74,16.37-3.45,14-18.31,22.58-20.24,23.75s-4.61,2.5-4.61,2.5L459.3,569.2s-2.36,1.71-3.42,2.35l-88,53.18c-8.4,5.07-21.33-10.32-28.68-22.47s-15-30.76-6.56-35.84l88-53.18c1.06-.64,3.67-1.93,3.67-1.93l36.2-21.89S462.93,487.68,464.87,486.51Z" fill="#f8f8f8" opacity="0.95"/><path d="M517.49,479.12l-2.25,1.36h0c-1.34.8.63,6.5,4.4,12.73s7.88,10.61,9.22,9.81h0l2.25-1.36c.42,2.12.27,3.62-.58,4.13s-2.24-.05-3.92-1.41A49.64,49.64,0,0,1,513,481.83c-.43-2.11-.27-3.61.57-4.12S515.82,477.76,517.49,479.12Z" fill="#fff"/><ellipse cx="348.64" cy="596.49" rx="8.2" ry="27.78" transform="translate(-258.28 266.33) rotate(-31.15)" fill="#231815" opacity="0.08" style="mix-blend-mode:multiply"/><ellipse cx="348.64" cy="596.49" rx="2.56" ry="8.68" transform="translate(-258.28 266.33) rotate(-31.15)" fill="#231815" opacity="0.05" style="mix-blend-mode:multiply"/><path d="M423.48,512.23a6.79,6.79,0,0,0-.59,3.64,16,16,0,0,0-2.39,1l-82.83,50.06c-7.86,4.75-1,21.75,5.7,32.82s18.54,25,26.4,20.3L452.6,570a14.52,14.52,0,0,0,2-1.65,6.65,6.65,0,0,0,3.5,1.18h.2a18.48,18.48,0,0,1-2.42,2l-88,53.18c-8.4,5.07-21.33-10.32-28.68-22.47s-15-30.76-6.56-35.84l88-53.18a17.09,17.09,0,0,1,2.95-1.18A1,1,0,0,0,423.48,512.23Z" fill="#f0f0f0"/><path d="M495.3,479.63c14.32,3.53,15.3,3.65,17.17,2.53l.09-.06,2.25-1.36,2.24-1.36,11.79-7.12,0,0,.07,0c1.72-.89,6.08,3.3,9.8,9.46s5.44,12.06,3.78,13.11h0l-11.83,7.15-2.25,1.36h0l-2.25,1.36-.09.05c-2.82,1.7-2.34,2.61-5.74,16.37-3.45,14-18.31,22.58-20.24,23.75-1.16.7-3.65,2-4.61,2.5-1.32.8-3.42-.18-4.24-.7a80.75,80.75,0,0,0,15.66-12.71c3.57-3.8,7.06-8.81,7.94-12,2.82-10.31,1.87-12.06,1.36-13.5-.63-1.76-2.76-3.72-6.17-9.37s-4.18-8.31-5.39-9.74c-1.36-1.61-2.27-2.68-12.62-5.15-3.57-.85-9.58-.45-14.94,1.26a94.42,94.42,0,0,0-18,8.11c-.08-2.26.57-3.59,1.36-4.07s3.19-2.2,4.36-2.91C466.49,485.53,481,476.09,495.3,479.63Z" fill="#f0f0f0"/><path d="M532.65,485.34c-3.72-6.15-5.4-12-3.81-13.08l.12-.07c1.72-.89,6.08,3.3,9.8,9.46s5.44,12.06,3.78,13.11l0,0C540.81,495.76,536.41,491.55,532.65,485.34Z" fill="#fff"/><path d="M534.17,484.42c-2.67-4.43-4.18-8.43-3.39-9l.06,0c.88-.43,3.73,2.77,6.4,7.2s4.21,8.5,3.38,9h0C539.75,492.1,536.87,488.89,534.17,484.42Z" fill="#231815" opacity="0.1" style="mix-blend-mode:multiply"/><path d="M471.05,522.58c9.65,16,20.4,27.15,24.56,24.68l-36.22,21.89,0,0a2.52,2.52,0,0,1-1.26.34c-4.87.17-14.5-10.46-23.31-25s-13.72-28-11.31-32.26a2.49,2.49,0,0,1,.9-1l36.26-21.91C456.48,491.86,461.38,506.59,471.05,522.58Z" fill="#f0f0f0"/><path d="M424.49,550.72c-8.59-14.22-19.18-24-25.27-23.82a4.38,4.38,0,0,1,1.47-1.6l.14-.08c5.46-3.16,17.68,7.21,27.37,23.25s13.22,31.78,7.81,35.09h0a4.33,4.33,0,0,1-2.16.59C436.8,578.84,433.08,564.93,424.49,550.72Z" fill="#f0f0f0" opacity="0.4"/><path d="M404.58,562.75c9.72,16.09,13.22,31.78,7.81,35.08l0,0a4.33,4.33,0,0,1-2.16.59c3-5.32-.74-19.23-9.34-33.45s-19.17-24-25.27-23.81a4.32,4.32,0,0,1,1.48-1.6l.13-.09C382.66,536.34,394.89,546.71,404.58,562.75Z" fill="#f0f0f0" opacity="0.4"/><path d="M381,577c9.72,16.08,13.21,31.78,7.81,35.08l0,0a4.37,4.37,0,0,1-2.17.59c3-5.32-.74-19.23-9.33-33.45s-19.18-24-25.27-23.81a4.49,4.49,0,0,1,1.47-1.61l.14-.08C359,550.62,371.26,561,381,577Z" fill="#f0f0f0" opacity="0.4"/><path d="M448.69,563.54a26,26,0,0,1-3.15,2.79l-88,53.18a6.89,6.89,0,0,1-3.78,1,69,69,0,0,1-9.73-11,7.12,7.12,0,0,0,5.14-.84l88-53.19a23.64,23.64,0,0,0,3-2.67,86,86,0,0,0,8.67,10.61Z" opacity="0.7" fill="url(#未命名漸層_42)"/><path d="M408.34,560.47c-9.69-16-13.19-31.68-7.86-35.05l.14-.08a4.36,4.36,0,0,1,2.1-.56c-3,5.32.75,19.23,9.34,33.45s19.17,24,25.27,23.81a4.31,4.31,0,0,1-1.52,1.64l0,0C430.34,587,418.07,576.56,408.34,560.47Z" fill="#f0f0f0"/><path d="M388.44,572.51c8.59,14.21,19.17,24,25.27,23.81a4.33,4.33,0,0,1-1.53,1.64l0,0c-5.43,3.25-17.71-7.14-27.43-23.23s-13.19-31.68-7.86-35l.13-.08a4.36,4.36,0,0,1,2.11-.56C376.12,544.38,379.84,558.29,388.44,572.51Z" fill="#f0f0f0"/><path d="M364.81,586.78c8.59,14.22,19.18,24,25.27,23.82a4.38,4.38,0,0,1-1.52,1.64l0,0c-5.44,3.25-17.71-7.14-27.43-23.23s-13.2-31.68-7.86-35l.13-.08a4.36,4.36,0,0,1,2.11-.56C352.5,558.66,356.22,572.57,364.81,586.78Z" fill="#f0f0f0"/><path d="M518.05,503.2a21.62,21.62,0,0,0,2.63,2.58" fill="none" stroke="#231815" stroke-linecap="round" stroke-miterlimit="10" stroke-width="2"/><path d="M508.94,486.39a35.87,35.87,0,0,0,4.55,10.47c.69,1.15,1.41,2.24,2.13,3.24" fill="none" stroke="#231815" stroke-linecap="round" stroke-miterlimit="10" stroke-width="2"/><path d="M532.65,485.34c-3.72-6.15-5.4-12-3.81-13.08l.12-.07c1.72-.89,6.08,3.3,9.8,9.46s5.44,12.06,3.78,13.11l0,0" fill="none" stroke="#231815" stroke-linecap="round" stroke-linejoin="round" stroke-width="2"/><polygon points="528.43 503.29 528.43 503.29 528.43 503.29 528.43 503.29" fill="none"/><path d="M363,620.27c3.87-2.34.58-14.89-7.36-28s-17.51-21.88-21.38-19.53" fill="none" stroke="#231815" stroke-linecap="round" stroke-linejoin="round" stroke-width="2"/><path d="M534.17,484.42c-2.67-4.43-4.18-8.43-3.39-9l.06,0c.88-.43,3.73,2.77,6.4,7.2s4.21,8.5,3.38,9h0C539.75,492.1,536.87,488.89,534.17,484.42Z" fill="none" stroke="#231815" stroke-miterlimit="10" stroke-width="2"/><path d="M400.55,525.38l.07,0a4.36,4.36,0,0,1,2.1-.56,4.49,4.49,0,0,1,1.48-1.6l.06,0,.07,0,16.31-9.86c1.06-.64,3.67-1.93,3.67-1.93l36.2-21.89s2.42-1.74,4.36-2.91c1.62-1,16.11-10.42,30.43-6.88s15.3,3.65,17.17,2.53l.09-.06,2.25-1.36,2.24-1.36,11.79-7.12,0,0,.07,0c1.72-.89,6.08,3.3,9.8,9.46s5.44,12.06,3.78,13.11h0l-11.83,7.15-2.25,1.36h0l-2.25,1.36-.09.05c-2.82,1.7-2.34,2.61-5.74,16.37-3.45,14-18.31,22.58-20.24,23.75s-4.61,2.5-4.61,2.5L459.3,569.2s-2.36,1.71-3.42,2.35l-16.36,9.88v0h0a4.07,4.07,0,0,0-3.68,2.23h0l-19.88,12h0a4.1,4.1,0,0,0-3.69,2.23h0l-19.87,12h0a4.31,4.31,0,0,1-2.16.59,4.38,4.38,0,0,1-1.52,1.64h0l-20.64,12.47c-8.4,5.07-21.33-10.32-28.68-22.47s-15-30.76-6.56-35.84L353.24,554l.06-.05.07,0a4.36,4.36,0,0,1,2.11-.56,4.49,4.49,0,0,1,1.47-1.61l.07,0,.07,0,19.77-11.95.06,0,.07,0a4.36,4.36,0,0,1,2.11-.56,4.32,4.32,0,0,1,1.48-1.6l.06-.05.07,0,19.77-12Z" fill="none" stroke="#231815" stroke-linecap="round" stroke-linejoin="round" stroke-width="2"/><path d="M528,488.15c3.14,5.21,6.79,9.31,9.28,10.45a1,1,0,1,0,.85-1.87c-1.7-.77-5-4.12-8.38-9.64s-4.73-9.92-4.64-11.87a1,1,0,0,0-1-1.07,1,1,0,0,0-1.07,1C523,477.88,524.89,483,528,488.15Z" fill="#f0f0f0"/><path d="M524,490.6c3.14,5.21,6.79,9.31,9.28,10.44a1,1,0,1,0,.85-1.86c-1.7-.78-5.05-4.12-8.38-9.64s-4.72-9.92-4.64-11.87a1,1,0,1,0-2-.09C518.9,480.33,520.84,485.44,524,490.6Z" fill="#f0f0f0"/><path d="M517.49,479.12l-2.25,1.36h0c-1.34.8.63,6.5,4.4,12.73s7.88,10.61,9.22,9.81h0l2.25-1.36c.42,2.12.27,3.62-.58,4.13s-2.24-.05-3.92-1.41A49.64,49.64,0,0,1,513,481.83c-.43-2.11-.27-3.61.57-4.12S515.82,477.76,517.49,479.12Z" fill="#fff"/><path d="M528,488.15c3.14,5.21,6.79,9.31,9.28,10.45a1,1,0,1,0,.85-1.87c-1.7-.77-5-4.12-8.38-9.64s-4.73-9.92-4.64-11.87a1,1,0,0,0-1-1.07,1,1,0,0,0-1.07,1C523,477.88,524.89,483,528,488.15Z" fill="none" stroke="#231815" stroke-miterlimit="10" stroke-width="2"/><path d="M524,490.6c3.14,5.21,6.79,9.31,9.28,10.44a1,1,0,1,0,.85-1.86c-1.7-.78-5.05-4.12-8.38-9.64s-4.72-9.92-4.64-11.87a1,1,0,1,0-2-.09C518.9,480.33,520.84,485.44,524,490.6Z" fill="none" stroke="#231815" stroke-miterlimit="10" stroke-width="2"/><path d="M524.12,499.56a20.27,20.27,0,0,0,2.57,2.63c1,.78,1.73,1.1,2.18.83h0l2.25-1.36c.42,2.12.27,3.62-.58,4.13s-2.24-.05-3.92-1.41A49.64,49.64,0,0,1,513,481.83c-.43-2.11-.27-3.61.57-4.12s2.25.05,3.92,1.41l-2.24,1.36c-1.34.8.63,6.5,4.4,12.73" fill="none" stroke="#231815" stroke-linecap="round" stroke-miterlimit="10" stroke-width="2"/><path d="M476.46,530.87a84.91,84.91,0,0,0,8.77,10.68l-.33.11-36,21.76a86,86,0,0,1-8.67-10.61l.12-.11Z" opacity="0.5" fill="url(#未命名漸層_4)" style="mix-blend-mode:color-dodge"/><path d="M503.82,510c3.74-4.71,9.58-7.87,6.19,5.89-2.21,9-9.11,15.71-14.29,19.71a56.93,56.93,0,0,1-6,4,25,25,0,0,1-4.54,2,84.91,84.91,0,0,1-8.77-10.68l.09-.06a26.17,26.17,0,0,0,4.87-2.07,90,90,0,0,0,9.15-6A73.18,73.18,0,0,0,503.82,510Z" opacity="0.7" fill="url(#未命名漸層_42-2)"/><path d="M471.05,522.58c9.65,16,20.4,27.15,24.56,24.68l-36.22,21.89,0,0a2.52,2.52,0,0,1-1.26.34c-4.87.17-14.5-10.46-23.31-25s-13.72-28-11.31-32.26a2.49,2.49,0,0,1,.9-1l36.26-21.91C456.48,491.86,461.38,506.59,471.05,522.58Z" fill="#fed259"/><path d="M471.05,522.58c9.65,16,20.4,27.15,24.56,24.68l-36.22,21.89,0,0a2.52,2.52,0,0,1-1.26.34c-4.87.17-14.5-10.46-23.31-25s-13.72-28-11.31-32.26a2.49,2.49,0,0,1,.9-1l36.26-21.91C456.48,491.86,461.38,506.59,471.05,522.58Z" fill="none" stroke="#231815" stroke-miterlimit="10" stroke-width="2"/><path d="M495.88,547.06a2.15,2.15,0,0,1-.24.18l0,0c-4.16,2.47-14.91-8.71-24.56-24.68s-14.57-30.72-10.41-33.23l.28-.14" fill="none" stroke="#231815" stroke-miterlimit="10" stroke-width="2"/><path d="M476.46,530.87a84.91,84.91,0,0,0,8.77,10.68l-.33.11-36,21.76a86,86,0,0,1-8.67-10.61l.12-.11Z" opacity="0.3" fill="url(#未命名漸層_4)" style="mix-blend-mode:color-dodge"/><path d="M532,485.7c4.39,7.27,9.57,12.18,11.57,11l-10.3,6.22c-2,1.21-7.18-3.7-11.57-11s-6.33-14.14-4.33-15.35l10.3-6.23C525.62,471.56,527.55,478.43,532,485.7Z" fill="#fed259"/><ellipse cx="535.57" cy="483.51" rx="4.23" ry="15.38" transform="translate(-172.89 346.73) rotate(-31.15)" fill="#d0953e"/><path d="M532,485.7c4.39,7.27,9.57,12.18,11.57,11l-10.3,6.22c-2,1.21-7.18-3.7-11.57-11s-6.33-14.14-4.33-15.35l10.3-6.23C525.62,471.56,527.55,478.43,532,485.7Z" fill="none" stroke="#231815" stroke-miterlimit="10" stroke-width="2"/><ellipse cx="535.57" cy="483.51" rx="4.23" ry="15.38" transform="translate(-172.89 346.73) rotate(-31.15)" fill="none" stroke="#231815" stroke-miterlimit="10" stroke-width="2"/><line x1="525.2" y1="474.35" x2="518.44" y2="478.43" fill="none" stroke="#231815" stroke-linecap="round" stroke-linejoin="round" stroke-width="2"/><line x1="525.62" y1="476.53" x2="518.87" y2="480.61" fill="none" stroke="#231815" stroke-linecap="round" stroke-linejoin="round" stroke-width="2"/><line x1="526.16" y1="478.63" x2="519.4" y2="482.72" fill="none" stroke="#231815" stroke-linecap="round" stroke-linejoin="round" stroke-width="2"/><path d="M474.29,597.15c-.66,0-1.19-2.13-1.19-4.76s.53-4.75,1.19-4.75H648.93v9.51Z" fill="#f0f0f0"/><path d="M475.6,590.34c-2.31-1-1.84-2.7-1.35-2.7H648.93v2.7Z" fill="#231815" opacity="0.1" style="mix-blend-mode:multiply"/><path d="M668.17,587.64h17.69c.55,0,1.25,1.07,1.25,4.75s-.54,4.76-1.41,4.76H668.15c.08-1.42.14-3.07.14-4.92S668.24,589,668.17,587.64Z" fill="#f0f0f0"/><path d="M696.78,622.22a73.57,73.57,0,0,0,2.42-10.73c.33-2.88.53-5,.13-6.29s-2.19-3.44-2.69-4.58a6.57,6.57,0,0,1-.4-1.5H692.7a3.52,3.52,0,0,0,.3.89c.37.74,3.72,3.65,4.17,4.91a10.91,10.91,0,0,1,.67,4.84,66,66,0,0,1-1.27,8.72c-.59,2.6-1.56,5.51-1.93,6.77s-1.32,3.85-1.39,4,.27.32.7.68C694.64,628.18,695.91,625.1,696.78,622.22Z" fill="#28abe3"/><path d="M695.9,584.78a8.45,8.45,0,0,0-.85-3.43c-.34-.58-1.29-.6-1.43,0-.21,1-.45,2.54-.64,4.29h3C695.93,585.31,695.91,585,695.9,584.78Z" fill="#28abe3"/><path d="M696.1,594.49c.12-2.52,0-6.67-.15-8.83h-8.43c-.83,0-1.4.62-1.74,2h.08c.55,0,1.25,1.07,1.25,4.75s-.54,4.76-1.41,4.76h-.06c.22,1.28.65,2,1.48,2h9.12A22.52,22.52,0,0,1,696.1,594.49Z" fill="#28abe3"/><g opacity="0.3" style="mix-blend-mode:multiply"><path d="M696.78,622.22a73.57,73.57,0,0,0,2.42-10.73c.33-2.88.53-5,.13-6.29s-2.19-3.44-2.69-4.58a6.57,6.57,0,0,1-.4-1.5H692.7a3.52,3.52,0,0,0,.3.89c.37.74,3.72,3.65,4.17,4.91a10.91,10.91,0,0,1,.67,4.84,66,66,0,0,1-1.27,8.72c-.59,2.6-1.56,5.51-1.93,6.77s-1.32,3.85-1.39,4,.27.32.7.68C694.64,628.18,695.91,625.1,696.78,622.22Z" fill="#231815"/><path d="M695.9,584.78a8.45,8.45,0,0,0-.85-3.43c-.34-.58-1.29-.6-1.43,0-.21,1-.45,2.54-.64,4.29h3C695.93,585.31,695.91,585,695.9,584.78Z" fill="#231815"/></g><path d="M696.08,588.79c.06,2,.1,4.14,0,5.7,0,.46,0,.89-.05,1.3a19.77,19.77,0,0,0,.19,3.33h-9.12c-.83,0-1.26-.69-1.48-2h.06c.5,0,.89-.36,1.13-1.36a15.22,15.22,0,0,0,.28-3.4,13.27,13.27,0,0,0-.37-3.6c-.25-.84-.59-1.15-.88-1.15h-.08c.34-1.36.91-2,1.74-2H696C696,586.48,696,587.6,696.08,588.79Z" fill="#231815" opacity="0.1" style="mix-blend-mode:multiply"/><path d="M696.08,588.79h-9.34c-.25-.84-.59-1.15-.88-1.15h-.08c.34-1.36.91-2,1.74-2H696C696,586.48,696,587.6,696.08,588.79Z" fill="#231815" opacity="0.1" style="mix-blend-mode:multiply"/><path d="M699.78,579.45c2.48,0,5.46.47,5.89,1.29.25.49.51,1.09.77,1.76a25.27,25.27,0,0,1,1.69,6.73,36.82,36.82,0,0,1-.43,7c-.53,4.23-1.69,11.06-2.45,15.59a67.24,67.24,0,0,1-3.08,12c-1.19,3.11-3.57,8.33-3.77,8.73s-.42.55-.85.2-2.46-1.9-3.6-2.86c.69-1.77,2-4.85,2.83-7.73a73.57,73.57,0,0,0,2.42-10.73c.33-2.88.53-5,.13-6.29s-2.19-3.44-2.69-4.58-.69-3.19-.54-6.13-.1-8.06-.2-9.71a10.73,10.73,0,0,0-.39-2.28,5.75,5.75,0,0,0-.46-1.15c-.34-.58-1.29-.6-1.43,0a4.93,4.93,0,0,1,.35-1.17C694.49,579.31,696.87,579.45,699.78,579.45Z" fill="#28abe3"/><path d="M699.78,579.45c2.48,0,5.46.47,5.89,1.29.25.49.51,1.09.77,1.76l1.36,4.76s-2.93-4.76-5-4.76h-7.33a5.75,5.75,0,0,0-.46-1.15c-.34-.58-1.29-.6-1.43,0a4.93,4.93,0,0,1,.35-1.17C694.49,579.31,696.87,579.45,699.78,579.45Z" fill="#231815" opacity="0.1" style="mix-blend-mode:multiply"/><path d="M648.79,597.15H474.29c-.66,0-1.19-2.13-1.19-4.76s.53-4.75,1.19-4.75H648.86" fill="none" stroke="#231815" stroke-linecap="round" stroke-linejoin="round" stroke-width="2"/><path d="M648.85,588.79v10.63H623.07a18,18,0,0,1-1.28-7,21.6,21.6,0,0,1,.32-3.6,12.51,12.51,0,0,1,1-3.42h25.79Z" fill="#f0f0f0"/><path d="M698.4,632.61c.2-.4,2.58-5.62,3.77-8.73a67.24,67.24,0,0,0,3.08-12c.76-4.53,1.92-11.36,2.45-15.59a36.82,36.82,0,0,0,.43-7,26.93,26.93,0,0,0-2.46-8.49c-.43-.82-3.41-1.29-5.89-1.29-2.91,0-5.29-.14-5.81.75a4.93,4.93,0,0,0-.35,1.17c.14-.62,1.09-.6,1.43,0a8.45,8.45,0,0,1,.85,3.43c.1,1.65.34,6.78.2,9.71s0,5,.54,6.13,2.29,3.34,2.69,4.58.2,3.41-.13,6.29a73.57,73.57,0,0,1-2.42,10.73c-.87,2.88-2.14,6-2.83,7.73,1.14,1,3.3,2.61,3.6,2.86S698.2,633,698.4,632.61Z" fill="none" stroke="#231815" stroke-linecap="round" stroke-linejoin="round" stroke-width="2"/><path d="M696.78,622.22a73.57,73.57,0,0,0,2.42-10.73c.33-2.88.53-5,.13-6.29s-2.19-3.44-2.69-4.58a6.57,6.57,0,0,1-.4-1.5H692.7a3.52,3.52,0,0,0,.3.89c.37.74,3.72,3.65,4.17,4.91a10.91,10.91,0,0,1,.67,4.84,66,66,0,0,1-1.27,8.72c-.59,2.6-1.56,5.51-1.93,6.77s-1.32,3.85-1.39,4,.27.32.7.68C694.64,628.18,695.91,625.1,696.78,622.22Z" fill="none" stroke="#231815" stroke-linecap="round" stroke-linejoin="round" stroke-width="2"/><path d="M695.9,584.78a8.45,8.45,0,0,0-.85-3.43c-.34-.58-1.29-.6-1.43,0-.21,1-.45,2.54-.64,4.29h3C695.93,585.31,695.91,585,695.9,584.78Z" fill="none" stroke="#231815" stroke-linecap="round" stroke-linejoin="round" stroke-width="2"/><path d="M696.1,594.49c.12-2.52,0-6.67-.15-8.83h-8.43c-.83,0-1.4.62-1.74,2h.08c.55,0,1.25,1.07,1.25,4.75s-.54,4.76-1.41,4.76h-.06c.22,1.28.65,2,1.48,2h9.12A22.52,22.52,0,0,1,696.1,594.49Z" fill="none" stroke="#231815" stroke-linecap="round" stroke-linejoin="round" stroke-width="2"/><path d="M668.25,587.64h17.61c.55,0,1.25,1.07,1.25,4.75s-.54,4.76-1.41,4.76H668.18" fill="none" stroke="#231815" stroke-linecap="round" stroke-linejoin="round" stroke-width="2"/><path d="M648.84,599.42H623.07a19.92,19.92,0,0,1,0-14h25.79" fill="none" stroke="#231815" stroke-linecap="round" stroke-linejoin="round" stroke-width="2"/><path d="M622.63,598.24H608.76a18.64,18.64,0,0,1,0-11.69h13.87a20.76,20.76,0,0,0,0,11.69Z" fill="#f0f0f0"/><path d="M622.63,586.55a20.67,20.67,0,0,0-.61,2.85,21.12,21.12,0,0,0-.23,3,21.47,21.47,0,0,0,.84,5.85H608.76a16.74,16.74,0,0,1-.94-5.85,19.36,19.36,0,0,1,.78-5.44h0l.06-.17v0a1.17,1.17,0,0,1,.05-.11v0l0,0h13.88Z" fill="none" stroke="#231815" stroke-linecap="round" stroke-linejoin="round" stroke-width="2"/><path d="M608.72,586.62v0s0,0,0,0h13.87a20.67,20.67,0,0,0-.61,2.85h-14a15.08,15.08,0,0,1,.6-2.63v0A1.17,1.17,0,0,1,608.72,586.62Z" fill="#231815" opacity="0.1" style="mix-blend-mode:multiply"/><ellipse cx="624.48" cy="592.39" rx="1.19" ry="5.53" fill="none" stroke="#999" stroke-linecap="round" stroke-linejoin="round" stroke-width="2"/><ellipse cx="626.86" cy="592.39" rx="1.19" ry="5.53" fill="none" stroke="#999" stroke-linecap="round" stroke-linejoin="round" stroke-width="2"/><ellipse cx="629.24" cy="592.39" rx="1.19" ry="5.53" fill="none" stroke="#999" stroke-linecap="round" stroke-linejoin="round" stroke-width="2"/><ellipse cx="631.62" cy="592.39" rx="1.19" ry="5.53" fill="none" stroke="#999" stroke-linecap="round" stroke-linejoin="round" stroke-width="2"/><ellipse cx="633.99" cy="592.39" rx="1.19" ry="5.53" fill="none" stroke="#999" stroke-linecap="round" stroke-linejoin="round" stroke-width="2"/><ellipse cx="636.37" cy="592.39" rx="1.19" ry="5.53" fill="none" stroke="#999" stroke-linecap="round" stroke-linejoin="round" stroke-width="2"/><ellipse cx="638.75" cy="592.39" rx="1.19" ry="5.53" fill="none" stroke="#999" stroke-linecap="round" stroke-linejoin="round" stroke-width="2"/><ellipse cx="641.13" cy="592.39" rx="1.19" ry="5.53" fill="none" stroke="#999" stroke-linecap="round" stroke-linejoin="round" stroke-width="2"/><ellipse cx="643.5" cy="592.39" rx="1.19" ry="5.53" fill="none" stroke="#999" stroke-linecap="round" stroke-linejoin="round" stroke-width="2"/><ellipse cx="645.88" cy="592.39" rx="1.19" ry="5.53" fill="none" stroke="#999" stroke-linecap="round" stroke-linejoin="round" stroke-width="2"/><ellipse cx="648.26" cy="592.39" rx="1.19" ry="5.53" fill="none" stroke="#999" stroke-linecap="round" stroke-linejoin="round" stroke-width="2"/><path d="M648.93,599.42h-3.72V588.79h-23.1a12.51,12.51,0,0,1,1-3.42h25.86Z" fill="#231815" opacity="0.1" style="mix-blend-mode:multiply"/><path d="M667.49,581.45s.08.36.18,1c.05.34.11.77.17,1.28s.13,1.2.19,2c.05.58.1,1.22.14,1.92.07,1.33.12,2.86.12,4.59s-.06,3.5-.14,4.92c0,.69-.08,1.33-.13,1.92a42.43,42.43,0,0,1-.53,4.26c-.36,1.71-1.06,2.38-2.37,2.38H651.31a2.39,2.39,0,0,1-2.38-2.38V581.45a2.38,2.38,0,0,1,2.38-2.37h13.81C666.43,579.08,667.21,580.09,667.49,581.45Z" fill="#28abe3"/><path d="M667.49,581.45s.08.36.18,1c.05.34.11.77.17,1.28H648.93v-2.32a2.38,2.38,0,0,1,2.38-2.37h13.81C666.43,579.08,667.21,580.09,667.49,581.45Z" fill="#231815" opacity="0.1" style="mix-blend-mode:multiply"/><path d="M667.49,603.33a51.48,51.48,0,0,0,.66-6.18c.08-1.42.14-3.07.14-4.92s0-3.26-.12-4.59a46.48,46.48,0,0,0-.68-6.19c-.28-1.36-1.06-2.37-2.37-2.37H651.31a2.38,2.38,0,0,0-2.38,2.37v21.88a2.39,2.39,0,0,0,2.38,2.38h13.81C666.43,605.71,667.13,605,667.49,603.33Z" fill="none" stroke="#231815" stroke-linecap="round" stroke-linejoin="round" stroke-width="2"/><path d="M685.78,587.64h.08c.43,0,.95.66,3.53,2.7H668.27c0-1-.06-1.88-.1-2.7Z" fill="#231815" opacity="0.1" style="mix-blend-mode:multiply"/><path d="M648.93,581v22.82c0,4.27-11,25.63-37.68,25.63h-144c-6.08,0-11.69-14.85-12.31-33.65,0-1.12-.05-2.25-.05-3.39,0-20.51,5.53-37,12.36-37h144C637.82,555.34,648.93,576.32,648.93,581Z" fill="#f0f0f0"/><path d="M648.93,581v6.94c0-4.65-11.11-25.62-37.68-25.62h-144c-6.43,0-11.71,14.65-12.31,33.48,0-1.12-.05-2.25-.05-3.39,0-20.51,5.53-37,12.36-37h144C637.82,555.34,648.93,576.32,648.93,581Z" fill="#231815" opacity="0.1" style="mix-blend-mode:multiply"/><ellipse cx="626.04" cy="611.69" rx="10.87" ry="5.6" transform="translate(-171.82 251.82) rotate(-20.06)" fill="#fff" opacity="0.5"/><ellipse cx="622.93" cy="598.87" rx="5.45" ry="3.34" transform="translate(-77.24 92.47) rotate(-8)" fill="#fff" opacity="0.5"/><path d="M648.93,581.21h14.29c1.91,0,2.83,3.95,2.83,11.3s-1.08,11-2.83,11H648.93Z" fill="#f0f0f0"/><path d="M648.93,581.21h14.29c1.91,0,2.83,3.95,2.83,11.3s-1.08,11-2.83,11H648.93Z" fill="#231815" opacity="0.1" style="mix-blend-mode:multiply"/><path d="M454.89,592.38c0-20.51,5.53-37,12.36-37h144c26.57,0,37.68,21,37.68,25.63v22.82c0,4.27-11,25.63-37.68,25.63h-144C460.81,629.42,454.89,612.75,454.89,592.38Z" fill="none" stroke="#231815" stroke-linecap="round" stroke-linejoin="round" stroke-width="2"/><path d="M464.37,615.4A78.57,78.57,0,0,1,462.11,603" fill="none" stroke="#231815" stroke-linecap="round" stroke-linejoin="round" stroke-width="2"/><path d="M461.56,592.38c0-12.82,2.16-24.08,5.45-30.73" fill="none" stroke="#231815" stroke-linecap="round" stroke-linejoin="round" stroke-width="2"/><path d="M648.93,581.21h14.29c1.91,0,2.83,3.95,2.83,11.3s-1.08,11-2.83,11H648.93Z" fill="none" stroke="#231815" stroke-linecap="round" stroke-linejoin="round" stroke-width="2"/><path d="M659.9,583.35v-1.89a1,1,0,0,0-1.94,0V603.3a1,1,0,1,0,1.94,0v-1.89" fill="#f0f0f0" stroke="#231815" stroke-linecap="round" stroke-linejoin="round" stroke-width="2"/><path d="M655,583.35v-1.89a1,1,0,0,0-1.94,0V603.3a1,1,0,0,0,1.94,0v-1.89" fill="#f0f0f0" stroke="#231815" stroke-linecap="round" stroke-linejoin="round" stroke-width="2"/><path d="M668.17,587.64h17.69c.55,0,1.25,1.07,1.25,4.75s-.54,4.76-1.41,4.76H668.15c.08-1.42.14-3.07.14-4.92S668.24,589,668.17,587.64Z" fill="#f0f0f0"/><path d="M696.78,622.22a73.57,73.57,0,0,0,2.42-10.73c.33-2.88.53-5,.13-6.29s-2.19-3.44-2.69-4.58a6.57,6.57,0,0,1-.4-1.5H692.7a3.52,3.52,0,0,0,.3.89c.37.74,3.72,3.65,4.17,4.91a10.91,10.91,0,0,1,.67,4.84,66,66,0,0,1-1.27,8.72c-.59,2.6-1.56,5.51-1.93,6.77s-1.32,3.85-1.39,4,.27.32.7.68C694.64,628.18,695.91,625.1,696.78,622.22Z" fill="#28abe3"/><path d="M695.9,584.78a8.45,8.45,0,0,0-.85-3.43c-.34-.58-1.29-.6-1.43,0-.21,1-.45,2.54-.64,4.29h3C695.93,585.31,695.91,585,695.9,584.78Z" fill="#28abe3"/><path d="M696.1,594.49c.12-2.52,0-6.67-.15-8.83h-8.43c-.83,0-1.4.62-1.74,2h.08c.55,0,1.25,1.07,1.25,4.75s-.54,4.76-1.41,4.76h-.06c.22,1.28.65,2,1.48,2h9.12A22.52,22.52,0,0,1,696.1,594.49Z" fill="#28abe3"/><g opacity="0.3" style="mix-blend-mode:multiply"><path d="M696.78,622.22a73.57,73.57,0,0,0,2.42-10.73c.33-2.88.53-5,.13-6.29s-2.19-3.44-2.69-4.58a6.57,6.57,0,0,1-.4-1.5H692.7a3.52,3.52,0,0,0,.3.89c.37.74,3.72,3.65,4.17,4.91a10.91,10.91,0,0,1,.67,4.84,66,66,0,0,1-1.27,8.72c-.59,2.6-1.56,5.51-1.93,6.77s-1.32,3.85-1.39,4,.27.32.7.68C694.64,628.18,695.91,625.1,696.78,622.22Z" fill="#231815"/><path d="M695.9,584.78a8.45,8.45,0,0,0-.85-3.43c-.34-.58-1.29-.6-1.43,0-.21,1-.45,2.54-.64,4.29h3C695.93,585.31,695.91,585,695.9,584.78Z" fill="#231815"/></g><path d="M696.08,588.79c.06,2,.1,4.14,0,5.7,0,.46,0,.89-.05,1.3a19.77,19.77,0,0,0,.19,3.33h-9.12c-.83,0-1.26-.69-1.48-2h.06c.5,0,.89-.36,1.13-1.36a15.22,15.22,0,0,0,.28-3.4,13.27,13.27,0,0,0-.37-3.6c-.25-.84-.59-1.15-.88-1.15h-.08c.34-1.36.91-2,1.74-2H696C696,586.48,696,587.6,696.08,588.79Z" fill="#231815" opacity="0.1" style="mix-blend-mode:multiply"/><path d="M696.08,588.79h-9.34c-.25-.84-.59-1.15-.88-1.15h-.08c.34-1.36.91-2,1.74-2H696C696,586.48,696,587.6,696.08,588.79Z" fill="#231815" opacity="0.1" style="mix-blend-mode:multiply"/><path d="M699.78,579.45c2.48,0,5.46.47,5.89,1.29.25.49.51,1.09.77,1.76a25.27,25.27,0,0,1,1.69,6.73,36.82,36.82,0,0,1-.43,7c-.53,4.23-1.69,11.06-2.45,15.59a67.24,67.24,0,0,1-3.08,12c-1.19,3.11-3.57,8.33-3.77,8.73s-.42.55-.85.2-2.46-1.9-3.6-2.86c.69-1.77,2-4.85,2.83-7.73a73.57,73.57,0,0,0,2.42-10.73c.33-2.88.53-5,.13-6.29s-2.19-3.44-2.69-4.58-.69-3.19-.54-6.13-.1-8.06-.2-9.71a10.73,10.73,0,0,0-.39-2.28,5.75,5.75,0,0,0-.46-1.15c-.34-.58-1.29-.6-1.43,0a4.93,4.93,0,0,1,.35-1.17C694.49,579.31,696.87,579.45,699.78,579.45Z" fill="#28abe3"/><path d="M699.78,579.45c2.48,0,5.46.47,5.89,1.29.25.49.51,1.09.77,1.76l1.36,4.76s-2.93-4.76-5-4.76h-7.33a5.75,5.75,0,0,0-.46-1.15c-.34-.58-1.29-.6-1.43,0a4.93,4.93,0,0,1,.35-1.17C694.49,579.31,696.87,579.45,699.78,579.45Z" fill="#231815" opacity="0.1" style="mix-blend-mode:multiply"/><path d="M698.4,632.61c.2-.4,2.58-5.62,3.77-8.73a67.24,67.24,0,0,0,3.08-12c.76-4.53,1.92-11.36,2.45-15.59a36.82,36.82,0,0,0,.43-7,26.93,26.93,0,0,0-2.46-8.49c-.43-.82-3.41-1.29-5.89-1.29-2.91,0-5.29-.14-5.81.75a4.93,4.93,0,0,0-.35,1.17c.14-.62,1.09-.6,1.43,0a8.45,8.45,0,0,1,.85,3.43c.1,1.65.34,6.78.2,9.71s0,5,.54,6.13,2.29,3.34,2.69,4.58.2,3.41-.13,6.29a73.57,73.57,0,0,1-2.42,10.73c-.87,2.88-2.14,6-2.83,7.73,1.14,1,3.3,2.61,3.6,2.86S698.2,633,698.4,632.61Z" fill="none" stroke="#231815" stroke-linecap="round" stroke-linejoin="round" stroke-width="2"/><path d="M696.78,622.22a73.57,73.57,0,0,0,2.42-10.73c.33-2.88.53-5,.13-6.29s-2.19-3.44-2.69-4.58a6.57,6.57,0,0,1-.4-1.5H692.7a3.52,3.52,0,0,0,.3.89c.37.74,3.72,3.65,4.17,4.91a10.91,10.91,0,0,1,.67,4.84,66,66,0,0,1-1.27,8.72c-.59,2.6-1.56,5.51-1.93,6.77s-1.32,3.85-1.39,4,.27.32.7.68C694.64,628.18,695.91,625.1,696.78,622.22Z" fill="none" stroke="#231815" stroke-linecap="round" stroke-linejoin="round" stroke-width="2"/><path d="M695.9,584.78a8.45,8.45,0,0,0-.85-3.43c-.34-.58-1.29-.6-1.43,0-.21,1-.45,2.54-.64,4.29h3C695.93,585.31,695.91,585,695.9,584.78Z" fill="none" stroke="#231815" stroke-linecap="round" stroke-linejoin="round" stroke-width="2"/><path d="M696.1,594.49c.12-2.52,0-6.67-.15-8.83h-8.43c-.83,0-1.4.62-1.74,2h.08c.55,0,1.25,1.07,1.25,4.75s-.54,4.76-1.41,4.76h-.06c.22,1.28.65,2,1.48,2h9.12A22.52,22.52,0,0,1,696.1,594.49Z" fill="none" stroke="#231815" stroke-linecap="round" stroke-linejoin="round" stroke-width="2"/><path d="M668.25,587.64h17.61c.55,0,1.25,1.07,1.25,4.75s-.54,4.76-1.41,4.76H668.18" fill="none" stroke="#231815" stroke-linecap="round" stroke-linejoin="round" stroke-width="2"/><path d="M667.49,581.45s.08.36.18,1c.05.34.11.77.17,1.28s.13,1.2.19,2c.05.58.1,1.22.14,1.92.07,1.33.12,2.86.12,4.59s-.06,3.5-.14,4.92c0,.69-.08,1.33-.13,1.92a42.43,42.43,0,0,1-.53,4.26c-.36,1.71-1.06,2.38-2.37,2.38H651.31a2.39,2.39,0,0,1-2.38-2.38V581.45a2.38,2.38,0,0,1,2.38-2.37h13.81C666.43,579.08,667.21,580.09,667.49,581.45Z" fill="#28abe3"/><path d="M667.49,581.45s.08.36.18,1c.05.34.11.77.17,1.28H648.93v-2.32a2.38,2.38,0,0,1,2.38-2.37h13.81C666.43,579.08,667.21,580.09,667.49,581.45Z" fill="#231815" opacity="0.1" style="mix-blend-mode:multiply"/><path d="M667.49,603.33a51.48,51.48,0,0,0,.66-6.18c.08-1.42.14-3.07.14-4.92s0-3.26-.12-4.59a46.48,46.48,0,0,0-.68-6.19c-.28-1.36-1.06-2.37-2.37-2.37H651.31a2.38,2.38,0,0,0-2.38,2.37v21.88a2.39,2.39,0,0,0,2.38,2.38h13.81C666.43,605.71,667.13,605,667.49,603.33Z" fill="none" stroke="#231815" stroke-linecap="round" stroke-linejoin="round" stroke-width="2"/><path d="M685.78,587.64h.08c.43,0,.95.66,3.53,2.7H668.27c0-1-.06-1.88-.1-2.7Z" fill="#231815" opacity="0.1" style="mix-blend-mode:multiply"/></g></g></svg>