<svg xmlns="http://www.w3.org/2000/svg" viewBox="0 0 173 118">
  <g>
    <g>
      <polygon points="98.42 115.56 37.92 116.17 1.1 82.51 13.47 53.27 10.87 20.66 48.34 21.77 77.59 6.02 94.47 29.64 129.34 33.02 129.34 82.51 98.42 115.56" fill="#f0f0f0" stroke="#000" stroke-miterlimit="10" stroke-width="1.84"/>
      <polyline points="101.92 53.67 94.92 71.67 110.92 87.67" fill="#f0f0f0" stroke="#000" stroke-miterlimit="10" stroke-width="1.84"/>
      <polyline points="64.66 90.95 31.07 72.09 0.54 83.08" fill="#f0f0f0" stroke="#000" stroke-miterlimit="10" stroke-width="1.84"/>
    </g>
    <g>
      <ellipse cx="50.46" cy="50.77" rx="9.58" ry="13.77" fill="#fff" stroke="#030004" stroke-miterlimit="10" stroke-width="1.84"/>
      <path d="M51.8,37.15c-1.89,2.17-3.13,5.82-3.13,10,0,6.65,3.21,12,7.18,12a4.79,4.79,0,0,0,2.62-.84A18.3,18.3,0,0,0,60,50.77C60,43.82,56.46,38.09,51.8,37.15Z" fill="#030004"/>
      <ellipse cx="79.35" cy="50.77" rx="9.58" ry="13.77" fill="#fff" stroke="#030004" stroke-miterlimit="10" stroke-width="1.84"/>
      <path d="M80.69,37.15c-1.89,2.17-3.13,5.82-3.13,10,0,6.65,3.21,12,7.18,12a4.79,4.79,0,0,0,2.62-.84,18.27,18.27,0,0,0,1.57-7.54C88.93,43.82,85.35,38.09,80.69,37.15Z" fill="#030004"/>
      <line x1="51.99" y1="72.37" x2="75.73" y2="70.57" fill="none" stroke="#030004" stroke-linecap="round" stroke-linejoin="round" stroke-width="1.84"/>
      <line x1="45.16" y1="26.78" x2="59.24" y2="33.52" fill="none" stroke="#030004" stroke-linecap="round" stroke-linejoin="round" stroke-width="1.84"/>
      <line x1="87.78" y1="28.13" x2="70.87" y2="31.68" fill="none" stroke="#030004" stroke-linecap="round" stroke-linejoin="round" stroke-width="1.84"/>
    </g>
    <rect x="112.17" y="52.18" width="42" height="13" transform="translate(50.02 178.1) rotate(-78.93)" fill="#e4e4e4" stroke="#000" stroke-miterlimit="10" stroke-width="1.84"/>
    <rect x="119.32" y="-2.23" width="40" height="59" transform="translate(85.8 158.76) rotate(-78.93)" fill="#e4e4e4" stroke="#000" stroke-miterlimit="10" stroke-width="1.84"/>
    <circle cx="122.69" cy="62.75" r="9" fill="#f0f0f0" stroke="#000" stroke-miterlimit="10" stroke-width="1.84"/>
    <path d="M134.16,15.28l7.4,1.45c4.38.85,7.64,2.7,6.85,6.77a5.06,5.06,0,0,1-3.65,4v.11a4.9,4.9,0,0,1,2.78,5.71c-.84,4.32-4.89,5.54-9.5,4.63l-8-1.56Zm5.56,9.79c2.16.43,3.31-.32,3.59-1.77s-.58-2.33-2.71-2.75l-2.1-.41-.89,4.52Zm-1.31,9c2.44.47,3.87-.16,4.22-2s-.75-2.66-3.22-3.14l-2.53-.49-1,5.11Z"/>
  </g>
</svg>
