<svg xmlns="http://www.w3.org/2000/svg" viewBox="0 0 741 117">
  <g>
    <path d="M708.8,17.73H236c-16.08,0-29.12,15.25-29.12,34.07V65.25L180.84,89c-2.41,2.2-1.08,6.71,2,6.71h34.77A26.57,26.57,0,0,0,236,103.44H708.8c16.08,0,29.12-15.26,29.12-34.08V51.8C737.92,33,724.88,17.73,708.8,17.73Z" fill="none" stroke="#fff" stroke-miterlimit="10" stroke-width="4.68"/>
    <g>
      <g>
        <polygon points="98.42 115.06 37.92 115.67 1.1 82.01 13.47 52.77 10.87 20.16 48.34 21.27 77.59 5.52 94.47 29.14 129.34 32.52 129.34 82.01 98.42 115.06" fill="#f0f0f0" stroke="#000" stroke-miterlimit="10" stroke-width="1.84"/>
        <polyline points="101.92 53.17 94.92 71.17 110.92 87.17" fill="#f0f0f0" stroke="#000" stroke-miterlimit="10" stroke-width="1.84"/>
        <polyline points="64.66 90.45 31.07 71.59 0.54 82.58" fill="#f0f0f0" stroke="#000" stroke-miterlimit="10" stroke-width="1.84"/>
      </g>
      <g>
        <ellipse cx="50.46" cy="50.27" rx="9.58" ry="13.77" fill="#fff" stroke="#030004" stroke-miterlimit="10" stroke-width="1.84"/>
        <path d="M51.8,36.65c-1.89,2.17-3.13,5.82-3.13,10,0,6.65,3.21,12,7.18,12a4.76,4.76,0,0,0,2.62-.84A18.26,18.26,0,0,0,60,50.27C60,43.32,56.46,37.59,51.8,36.65Z" fill="#030004"/>
        <ellipse cx="79.35" cy="50.27" rx="9.58" ry="13.77" fill="#fff" stroke="#030004" stroke-miterlimit="10" stroke-width="1.84"/>
        <path d="M80.69,36.65c-1.89,2.17-3.13,5.82-3.13,10,0,6.65,3.21,12,7.18,12a4.76,4.76,0,0,0,2.62-.84,18.26,18.26,0,0,0,1.57-7.54C88.93,43.32,85.35,37.59,80.69,36.65Z" fill="#030004"/>
        <line x1="51.99" y1="71.87" x2="75.73" y2="70.07" fill="#fff" stroke="#030004" stroke-linecap="round" stroke-linejoin="round" stroke-width="1.84"/>
        <line x1="45.16" y1="26.28" x2="59.24" y2="33.02" fill="#fff" stroke="#030004" stroke-linecap="round" stroke-linejoin="round" stroke-width="1.84"/>
        <line x1="87.78" y1="27.63" x2="70.87" y2="31.18" fill="#fff" stroke="#030004" stroke-linecap="round" stroke-linejoin="round" stroke-width="1.84"/>
      </g>
      <rect x="126.67" y="37.18" width="13" height="42" transform="translate(13.65 -24.49) rotate(11.07)" fill="#e4e4e4" stroke="#000" stroke-miterlimit="10" stroke-width="1.84"/>
      <rect x="109.81" y="6.78" width="59" height="40" transform="translate(7.74 -26.26) rotate(11.07)" fill="#e4e4e4" stroke="#000" stroke-miterlimit="10" stroke-width="1.84"/>
      <circle cx="122.69" cy="62.25" r="9" fill="#f0f0f0" stroke="#000" stroke-miterlimit="10" stroke-width="1.84"/>
      <path d="M134.16,14.78l7.4,1.45c4.38.85,7.64,2.7,6.85,6.77a5.07,5.07,0,0,1-3.65,4l0,.11a4.89,4.89,0,0,1,2.78,5.71c-.84,4.32-4.89,5.54-9.5,4.63l-8-1.56Zm5.56,9.79c2.16.43,3.31-.32,3.59-1.77s-.58-2.33-2.71-2.75l-2.1-.41-.89,4.52Zm-1.31,9c2.44.47,3.87-.16,4.22-2s-.75-2.66-3.22-3.14l-2.53-.49-1,5.11Z"/>
    </g>
  </g>
</svg>
