<svg xmlns="http://www.w3.org/2000/svg" viewBox="0 0 2960 1468">
    <g class="grade">
      <polygon points="1845.4 252.19 1759.43 303.47 1858.98 292.92 1858.98 345.71 2384.61 345.71 2389.14 77.99 1845.4 140.58 1845.4 252.19" fill="#fff"/>
      <text transform="translate(1888.86 184.76)" font-size="26.5" fill="#231815" font-family="Noto Sans CJK TC, Noto Sans TC" font-weight="900" letter-spacing="0.2em">廢棄物量<tspan x="0" y="44.4">材質價格</tspan><tspan x="0" y="88.8">收集成本</tspan><tspan x="0" y="133.19">處理成本</tspan></text>
      <text transform="translate(1861.31 137.46) rotate(-6.52)" font-size="51.49" fill="#fff" font-family="Noto Sans CJK TC, Noto Sans TC" font-weight="900" letter-spacing="0.2em">普遍級好丟</text>
      <rect x="2026.78" y="161.45" width="322.18" height="24.86" rx="12.43" stroke-width="1.85" stroke="#211815" stroke-linecap="round" stroke-linejoin="round" fill="#fff"/>
      <g class="bar">
        <path d="M2039.21,167.67a6.22,6.22,0,0,0,0,12.43h55.52V167.67Z" fill="#22bd73"/>
        <rect x="2094.73" y="167.67" width="61.8" height="12.43" fill="#22bd73"/>
        <rect x="2156.53" y="167.67" width="61.8" height="12.43" fill="#22bd73"/>
        <path d="M2341.93,170.82V177a6.14,6.14,0,0,0,0-6.13Z" fill="#22bd73"/>
        <path d="M2336.53,167.67h-56.4V180.1h56.4a6.2,6.2,0,0,0,5.4-3.15v-6.13A6.2,6.2,0,0,0,2336.53,167.67Z" fill="#22bd73"/>
        <rect x="2218.33" y="167.67" width="61.8" height="12.43" fill="#22bd73"/>
      </g>
      <rect x="2026.78" y="206.74" width="322.18" height="24.86" rx="12.43" stroke-width="1.85" stroke="#211815" stroke-linecap="round" stroke-linejoin="round" fill="#fff"/>
      <g class="bar">
        <rect x="2094.73" y="212.96" width="61.8" height="12.43" fill="#22bd73"/>
        <rect x="2156.53" y="212.96" width="61.8" height="12.43" fill="#22bd73"/>
        <path d="M2039.21,213a6.22,6.22,0,0,0,0,12.43h55.52V213Z" fill="#22bd73"/>
        <path d="M2341.93,216.11v6.12a6.12,6.12,0,0,0,0-6.12Z" fill="#22bd73"/>
        <path d="M2336.53,213h-56.4v12.43h56.4a6.21,6.21,0,0,0,5.4-3.16v-6.12A6.2,6.2,0,0,0,2336.53,213Z" fill="#22bd73"/>
        <rect x="2218.33" y="212.96" width="61.8" height="12.43" fill="#22bd73"/>
      </g>
      <rect x="2026.78" y="252.03" width="322.18" height="24.86" rx="12.43" stroke-width="1.85" stroke="#211815" stroke-linecap="round" stroke-linejoin="round" fill="#fff"/>
      <path class="bar" d="M2039.21,258.24a6.22,6.22,0,0,0,0,12.43h55.52V258.24Z" fill="#22bd73"/>
      <rect x="2026.78" y="297.31" width="322.18" height="24.86" rx="12.43" stroke-width="1.85" stroke="#211815" stroke-linecap="round" stroke-linejoin="round" fill="#fff"/>
      <path class="bar" d="M2039.21,303.53a6.22,6.22,0,0,0,0,12.43h55.52V303.53Z" fill="#22bd73"/>
    </g>
    <g class="grade">
      <polygon points="2153.69 495.33 1976.1 571.69 2153.69 551.27 2157.24 629.41 2682.91 629.41 2703.59 361.69 2151.91 416.3 2153.69 495.33" fill="#fff"/>
      <text transform="translate(2408.95 387.53) rotate(-5.1)" font-size="51.49" fill="#fff" font-family="Noto Sans CJK TC, Noto Sans TC" font-weight="900" letter-spacing="0.2em">輔導級欠丟</text>
      <text transform="translate(2196.99 456.48)" font-size="26.5" fill="#231815" font-family="Noto Sans CJK TC, Noto Sans TC" font-weight="900" letter-spacing="0.2em">廢棄物量<tspan x="0" y="44.4">材質價格</tspan><tspan x="0" y="88.8">收集成本</tspan><tspan x="0" y="133.19">處理成本</tspan></text>
      <rect x="2334.9" y="433.17" width="322.18" height="24.86" rx="12.43" stroke-width="1.85" stroke="#211815" stroke-linecap="round" stroke-linejoin="round" fill="#fff"/>
      <path class="bar" d="M2347.34,439.39a6.22,6.22,0,1,0,0,12.43h55.51V439.39Z" fill="#ffa800"/>
      <rect x="2334.9" y="478.46" width="322.18" height="24.86" rx="12.43" stroke-width="1.85" stroke="#211815" stroke-linecap="round" stroke-linejoin="round" fill="#fff"/>
      <g opacity="0.36" class="bar">
        <rect x="2402.85" y="484.67" width="61.8" height="12.43" fill="#ffa800"/>
        <rect x="2464.65" y="484.67" width="61.8" height="12.43" fill="#ffa800"/>
        <path d="M2347.34,484.67a6.22,6.22,0,1,0,0,12.43h55.51V484.67Z" fill="#ffa800"/>
        <path d="M2650.06,487.83V494a6.19,6.19,0,0,0,0-6.12Z" fill="#ffa800"/>
        <path d="M2644.65,484.67h-56.4V497.1h56.4a6.22,6.22,0,0,0,5.41-3.15v-6.12A6.23,6.23,0,0,0,2644.65,484.67Z" fill="#ffa800"/>
        <rect x="2526.45" y="484.67" width="61.8" height="12.43" fill="#ffa800"/>
      </g>
      <rect x="2334.9" y="523.74" width="322.18" height="24.86" rx="12.43" stroke-width="1.85" stroke="#211815" stroke-linecap="round" stroke-linejoin="round" fill="#fff"/>
      <g class="bar">
        <rect x="2402.85" y="529.96" width="61.8" height="12.43" fill="#ffa800"/>
        <rect x="2464.65" y="529.96" width="61.8" height="12.43" fill="#ffa800"/>
        <path d="M2347.34,530a6.22,6.22,0,1,0,0,12.43h55.51V530Z" fill="#ffa800"/>
        <rect x="2526.45" y="529.96" width="61.8" height="12.43" fill="#ffa800"/>
      </g>
      <rect x="2334.9" y="569.03" width="322.18" height="24.86" rx="12.43" stroke-width="1.85" stroke="#211815" stroke-linecap="round" stroke-linejoin="round" fill="#fff"/>
      <path class="bar" d="M2347.34,575.24a6.22,6.22,0,1,0,0,12.43h55.51V575.24Z" fill="#ffa800"/>
    </g>
    <g class="grade">
      <polygon points="2311.74 796.35 2167.89 810.55 2317.07 852.29 2325.06 948.19 2921.95 956.18 2864.94 688.9 2311.7 743.06 2311.74 796.35" fill="#fff"/>
      <text transform="translate(2315.71 740.05) rotate(-5.1)" font-size="51.49" fill="#fff" font-family="Noto Sans CJK TC, Noto Sans TC" font-weight="900" letter-spacing="0.2em">限制級難丟</text>
      <text transform="translate(2376.35 785.91)" font-size="26.5" fill="#231815" font-family="Noto Sans CJK TC, Noto Sans TC" font-weight="900" letter-spacing="0.2em">廢棄物量<tspan x="0" y="44.4">材質價格</tspan><tspan x="0" y="88.8">收集成本</tspan><tspan x="0" y="133.19">處理成本</tspan></text>
      <rect x="2514.27" y="762.6" width="322.18" height="24.86" rx="12.43" stroke-width="1.85" stroke="#211815" stroke-linecap="round" stroke-linejoin="round" fill="#fff"/>
      <g opacity="0.36" class="bar">
        <rect x="2582.22" y="768.82" width="61.8" height="12.43" fill="#ff6695"/>
        <rect x="2644.02" y="768.82" width="61.8" height="12.43" fill="#ff6695"/>
        <path d="M2526.7,768.82a6.22,6.22,0,0,0,0,12.43h55.52V768.82Z" fill="#ff6695"/>
        <path d="M2829.42,772v6.13a6.14,6.14,0,0,0,0-6.13Z" fill="#ff6695"/>
        <path d="M2824,768.82h-56.4v12.43H2824a6.21,6.21,0,0,0,5.4-3.15V772A6.21,6.21,0,0,0,2824,768.82Z" fill="#ff6695"/>
        <rect x="2705.82" y="768.82" width="61.8" height="12.43" fill="#ff6695"/>
      </g>
      <rect x="2514.27" y="807.89" width="322.18" height="24.86" rx="12.43" stroke-width="1.85" stroke="#211815" stroke-linecap="round" stroke-linejoin="round" fill="#fff"/>
      <g class="bar">
        <rect x="2582.22" y="814.1" width="61.8" height="12.43" fill="#ff6695"/>
        <path d="M2526.7,814.1a6.22,6.22,0,0,0,0,12.44h55.52V814.1Z" fill="#ff6695"/>
      </g>
      <rect x="2514.27" y="853.17" width="322.18" height="24.86" rx="12.43" stroke-width="1.85" stroke="#211815" stroke-linecap="round" stroke-linejoin="round" fill="#fff"/>
      <g class="bar">
        <rect x="2582.22" y="859.39" width="61.8" height="12.43" fill="#ff6695"/>
        <rect x="2644.02" y="859.39" width="61.8" height="12.43" fill="#ff6695"/>
        <path d="M2526.7,859.39a6.22,6.22,0,0,0,0,12.43h55.52V859.39Z" fill="#ff6695"/>
        <path d="M2829.42,862.54v6.13a6.14,6.14,0,0,0,0-6.13Z" fill="#ff6695"/>
        <path d="M2824,859.39h-56.4v12.43H2824a6.21,6.21,0,0,0,5.4-3.15v-6.13A6.21,6.21,0,0,0,2824,859.39Z" fill="#ff6695"/>
        <rect x="2705.82" y="859.39" width="61.8" height="12.43" fill="#ff6695"/>
      </g>
      <rect x="2514.27" y="898.46" width="322.18" height="24.86" rx="12.43" stroke-width="1.85" stroke="#211815" stroke-linecap="round" stroke-linejoin="round" fill="#fff"/>
      <g class="bar">
        <rect x="2582.22" y="904.68" width="61.8" height="12.43" fill="#ff6695"/>
        <rect x="2644.02" y="904.68" width="61.8" height="12.43" fill="#ff6695"/>
        <path d="M2526.7,904.68a6.22,6.22,0,0,0,0,12.43h55.52V904.68Z" fill="#ff6695"/>
        <path d="M2829.42,907.83V914a6.12,6.12,0,0,0,0-6.12Z" fill="#ff6695"/>
        <path d="M2824,904.68h-56.4v12.43H2824a6.22,6.22,0,0,0,5.4-3.16v-6.12A6.21,6.21,0,0,0,2824,904.68Z" fill="#ff6695"/>
        <rect x="2705.82" y="904.68" width="61.8" height="12.43" fill="#ff6695"/>
      </g>
    </g>
</svg>
