<svg xmlns="http://www.w3.org/2000/svg" viewBox="0 0 256 256">
    <g>
      <path d="M63.48,134.09c3.65,3.6,7.77,6.35,13,7.18,1.1.18,2.87.07,3.16.66.56,1.16.38,2.73.38,4.13,0,8.25,0,16.51,0,24.76,0,3.25,1.12,4.37,4.35,4.4l30,.32a4.45,4.45,0,0,0,4.8-4.73c0-4.05,0-8.09,0-12.34H108l19.89-19.87,19.38,19.76H136.09c0,2,0,3.87,0,5.73.11,4.58.58,9.18.32,13.75-.43,7.67-6.59,14.2-14.47,14.23-14.34.05-28.68,0-43,0a15.94,15.94,0,0,1-15-11.57c-.06-.2-.28-.37-.43-.55Z" fill="#22bd73"/>
      <path d="M180,63.87c1.58.76,3.21,1.45,4.75,2.31,5,2.8,7.81,7,7.79,12.88,0,13.39,0,26.78,0,40.16v2.16c-2.5-1.66-4.77-3.57-7.37-4.79s-5.55-1.73-8.77-2.68v-1.64q0-13.29,0-26.58c0-3.43-1.46-4.88-4.88-4.91-9.86-.1-19.71-.12-29.57-.37-3.3-.09-4.82,2-4.95,4.38-.23,4.17-.06,8.36-.06,12.75h11.2l-19.82,19.81-19.45-19.7h10.94c0-3.69.13-7.23,0-10.77-.29-6.4-.92-12.84,3.9-18.11a14.48,14.48,0,0,1,7.26-4.45,3.3,3.3,0,0,0,.76-.45Z" fill="#22bd73"/>
      <path d="M121.52,63.87c-3.55,3.6-6.33,7.63-7.09,12.77-.15,1-.29,2.1-.46,3.41H85.25c-3.34,0-4.83,1.47-4.86,4.73-.1,9.92-.12,19.84-.37,29.76a4.42,4.42,0,0,0,4.43,4.91c4.16.22,8.35.06,12.74.06V108.26l19.87,19.86c-6.43,6.33-13.11,12.9-19.72,19.42V136.65c-3.64,0-7,0-10.46,0-5.73.1-11.54,1.07-16.75-2.56a15.12,15.12,0,0,1-6.2-8.58,3.77,3.77,0,0,0-.45-.77V76.45c.16-.25.32-.49.47-.75,1.49-2.52,2.85-5.12,4.49-7.54s4.63-3.16,7.22-4.29Z" fill="#22bd73"/>
      <path d="M134.44,192.08c4.83-4.64,7.33-9.75,7.52-16.13H170.8c3.33,0,4.81-1.48,4.85-4.75.1-9.93.13-19.86.37-29.78.06-2.84-1.52-4.66-4.26-4.85-4.23-.3-8.48-.08-12.86-.08v10.89l-19.75-19.75,19.61-19.33v11.09c3.58,0,6.94.09,10.28,0,5.82-.19,11.71-1.12,16.93,2.59,4.15,2.94,6.53,6.82,6.53,12,0,14.4,0,28.81,0,43.21,0,6-5.75,15.08-14.77,15-13.52-.18-27.05,0-40.58,0Z" fill="#22bd73"/>
    </g>
</svg>
