<svg xmlns="http://www.w3.org/2000/svg" viewBox="0 0 285.015 227.311"><g id="圖層_12" data-name="圖層 12"><path d="M23.4,193.615v3.626H41.919v1.511H23.4v3.325h7.8v-1.209h5.361v15.715H31.2v-1.814H23.4V219.3h15.11v1.51H23.4v4.08H41.919V226.4H.487v-1.511H18.035v-4.08H2.925V219.3h15.11v-4.534h-7.8v1.814H4.874V200.868h5.362v1.209h7.8v-3.325H0v-1.511H18.035v-3.324q-8.533.453-17.06.6v-.6q17.547-1.814,29.246-3.929a24.311,24.311,0,0,1,6.824,2.72Q30.219,193.466,23.4,193.615Zm-13.161,13.9h7.8v-3.928h-7.8Zm0,5.742h7.8v-4.231h-7.8Zm13.161-9.67v3.928h7.8v-3.928Zm0,5.439v4.231h7.8v-4.231Z"/><path d="M84.571,215.978v-3.022h4.387v2.116q-.246,4.078-7.068,8.31H80.184Q84.325,220.061,84.571,215.978ZM83.109,195.73v-1.813H93.345a20.117,20.117,0,0,1-1.95-4.08l.244-.151A27.983,27.983,0,0,1,95.3,191.2a4.5,4.5,0,0,0,1.462.6,5.89,5.89,0,0,1-1.462,2.115h7.8v1.813H98.219l1.95.605-4.387,5.742h7.8v1.813H95.3v4.231h7.311v1.813H95.3v13.448q0,1.814-6.337,3.173a.9.9,0,0,0-.487.152q-.246-1.059-1.463-.756l-3.412.6-.487-.453q7.551-1.965,7.8-3.022V209.934H82.622v-1.813h8.286V203.89H81.647v-1.813h7.311a14.962,14.962,0,0,1-1.95-6.347Zm6.824,6.347h3.9l3.9-6.347H87.5q3.656,3.026,4.387,3.627A32.435,32.435,0,0,1,89.933,202.077Zm6.824,8.915H97q2.433,5.744,6.093,6.5-2.439,2.118-.732,4.533l-.243.151Q96.269,220.06,96.757,210.992Zm8.286-19.19h4.387v1.813a38.679,38.679,0,0,0,9.749-2.72,23.433,23.433,0,0,0,4.874,2.267v.151a130.175,130.175,0,0,1-14.623,1.208v6.347h14.136v1.813h-4.875v24.63h-4.386v-24.63H109.43v12.995q-.977,7.557-10.236,11.333h-1.95q7.552-4.233,7.8-11.333Z"/><path d="M163.781,224.893v-.906q2.923-.759,2.924-3.476v-6.346h4.875v6.346Q171.82,223.985,163.781,224.893Zm10.236-12.844h-4.875V190.593h4.875V192.1h21.447V190.9h4.874v21.154h-4.874v-1.813H174.017Zm8.286-11.634v-6.649h-8.286v6.649Zm-8.286,8.159H182.3v-6.5h-8.286Zm.487,14.959V212.956h4.874v9.52c-.163,1,.488,1.511,1.95,1.511h9.5q1.948,0,2.194-1.209l1.462-5.893h.975v4.835h1.462v2.72q0,2.415-4.874,2.569h-12.43Q174.258,227.009,174.5,223.533Zm7.555-11.332v-.152a65.552,65.552,0,0,1,7.312,4.08,10.235,10.235,0,0,1-1.95,4.08h-.244Q183.762,217.794,182.059,212.2Zm5.118-18.435v6.649h8.287v-6.649Zm8.287,8.311h-8.287v6.5h8.287Zm-.488,11.635v-.151q3.9,1.965,10.48,6.195a19.839,19.839,0,0,1-1.95,3.626h-.243A62.964,62.964,0,0,1,194.976,213.712Z"/><path d="M257.613,202.077v-5.138H246.89v-1.511h10.723v-5.742h4.874v5.742h7.8v1.511h-7.8v5.138h4.631a15.857,15.857,0,0,0,5.605-9.671h5.85a25.907,25.907,0,0,1-6.824,9.671h12.673v1.511H270.043q-1.709,1.211-6.581,4.231h18.523v1.511H264.924q-1.221,2.418-5.361,4.231h12.186v-1.512h4.874v10.276q.24,3.474-9.992,4.684-.492-.907-2.438-.454l-3.9.3-.244-.605q13.161-2.267,11.7-3.928v-7.253H260.781a5.593,5.593,0,0,0-3.168,1.208v-3.022q1.948-.6,1.95-3.777-5.118,2.72-12.43,5.893-1.953.757-2.924,1.209h-2.194a169.731,169.731,0,0,0,23.4-13h-23.4v-1.511Z"/><path d="M40.454,180.26l-13.881-12a14.24,14.24,0,0,0,3.375-.611,8.384,8.384,0,0,0,3.316-2.009,5.337,5.337,0,0,0,1.318-3.5,5.454,5.454,0,0,0-2.8-4.939,12.168,12.168,0,0,0-7.144-1.744H1.088V180.26H16.374v-9.667l11.063,9.667ZM22.736,164.683H16.389v-5.092h6.347Z"/><polygon points="59.139 175.805 59.139 170.182 70.075 170.203 69.008 165.782 59.139 165.778 59.14 160.124 72.97 160.091 71.297 155.454 43.881 155.454 43.881 180.26 71.31 180.26 73.164 175.879 59.139 175.805"/><rect x="78.068" y="165.788" width="12.527" height="4.137"/><polygon points="129.056 155.454 95.585 155.454 93.243 161.299 105.483 161.299 105.524 180.26 120.81 180.26 120.845 161.339 132.232 161.303 129.056 155.454"/><polygon points="175.636 180.26 175.636 155.454 160.259 155.454 160.259 165.915 151.759 165.915 151.667 155.454 136.381 155.454 136.381 180.26 151.667 180.26 151.835 170.115 160.259 170.115 160.259 180.26 175.636 180.26"/><rect x="182.231" y="155.423" width="15.249" height="24.837"/><polygon points="239.37 180.26 239.37 155.454 230.778 155.454 230.778 166.567 211.566 155.454 204.037 155.454 204.037 180.26 212.624 180.26 212.618 168.758 230.843 180.26 239.37 180.26"/><polygon points="284.422 180.26 269.387 165.509 279.964 155.423 270.218 155.423 260.451 163.777 260.187 155.423 244.833 155.423 244.833 180.26 260.187 180.26 260.187 169.337 269.764 180.26 284.422 180.26"/><path d="M26.8,0a8.7,8.7,0,0,0-2.615.4,10.136,10.136,0,0,0-7.591,7.171,10.381,10.381,0,0,0,1.98,10.31A10.285,10.285,0,0,0,28.81,21.494a10.136,10.136,0,0,0,8.178-6.8A9.767,9.767,0,0,0,35.1,4.035,11.2,11.2,0,0,0,26.8,0Z"/><path d="M259.045,0a8.7,8.7,0,0,0-2.615.4,10.135,10.135,0,0,0-7.591,7.171,10.381,10.381,0,0,0,1.979,10.31,10.286,10.286,0,0,0,10.239,3.618,10.137,10.137,0,0,0,8.178-6.8,9.768,9.768,0,0,0-1.892-10.654A11.206,11.206,0,0,0,259.045,0Z"/><path d="M200.983,0a8.7,8.7,0,0,0-2.615.4,10.136,10.136,0,0,0-7.591,7.171,10.381,10.381,0,0,0,1.98,10.31A10.285,10.285,0,0,0,203,21.494a10.136,10.136,0,0,0,8.178-6.8,9.767,9.767,0,0,0-1.892-10.654A11.2,11.2,0,0,0,200.983,0Z"/><path d="M142.921,0a8.71,8.71,0,0,0-2.615.4,10.136,10.136,0,0,0-7.591,7.171,10.384,10.384,0,0,0,1.98,10.31,10.286,10.286,0,0,0,10.239,3.618,10.136,10.136,0,0,0,8.177-6.8A9.768,9.768,0,0,0,151.22,4.035,11.209,11.209,0,0,0,142.921,0Z" fill="#8ff21d"/><path d="M84.86,0a8.7,8.7,0,0,0-2.615.4,10.135,10.135,0,0,0-7.591,7.171,10.381,10.381,0,0,0,1.979,10.31,10.286,10.286,0,0,0,10.239,3.618,10.137,10.137,0,0,0,8.178-6.8A9.768,9.768,0,0,0,93.158,4.035,11.206,11.206,0,0,0,84.86,0Z"/><path d="M48.916,30.446l-.025-.021C44.7,26.886,38.9,26.935,33.3,27c-1.194.012-2.345.029-3.475,0-2.188.1-4.579.039-6.688-.008C17.7,26.882,12.1,26.763,7.076,28.75c-4.264,1.669-6.047,6.361-5.924,10.27-.063,12.707-.11,25.133.01,37.853a3.576,3.576,0,0,0,.928,2.766,5.211,5.211,0,0,0,1.847.95,6.061,6.061,0,0,0,3.44-.566c1.3-1.031,1.885-3.774,1.885-5.749.039-4.231.392-8.6.377-12.819h0c-.019-5.539-.008-10.243.1-15.929V42.945h3.93l.011,1.495c.1,14.3.079,28.844.059,42.906-.021,15.547-.044,31.431.089,47.046a4.014,4.014,0,0,0,2.314,4.035,6.641,6.641,0,0,0,6.524-.521c1.965-2.743,1.79-5.8,1.777-8.21-.043-9.625.087-18.846.094-28.465,0-6.1.2-12.758.189-18.852l.094-2.281h5.091l.006,1.5c.03,6.983.011,13.969-.008,20.958-.029,10.965-.058,22.128.1,33.087a3.317,3.317,0,0,0,2.017,2.887c1.708.8,5.039.992,6.645-.163a5.215,5.215,0,0,0,1.7-4.336c.1-16.275,0-47.6,0-47.6-.013-13.75-.071-27.118,0-41.1V42.7l4.053.033s.008,12.483,0,17.5c-.008,5.441-.03,9.539,0,14.986-.056,1.53.747,4.1,1.78,4.937a4.912,4.912,0,0,0,3.263.436l.565-.047a2.578,2.578,0,0,0,1.546-.836,5.987,5.987,0,0,0,1.154-4.01c.052-5.847.04-11.716.028-17.39-.009-5-.019-10,.012-15C52.726,39.14,52.668,33.412,48.916,30.446Z"/><path d="M106.977,30.446l-.024-.021c-4.194-3.539-9.987-3.49-15.589-3.423-1.2.012-2.345.029-3.475,0-2.188.1-4.579.039-6.689-.008-5.438-.116-11.043-.235-16.063,1.752-4.264,1.669-6.046,6.361-5.923,10.27-.063,12.707-.11,25.133.01,37.853a3.575,3.575,0,0,0,.927,2.766,5.22,5.22,0,0,0,1.848.95,6.061,6.061,0,0,0,3.44-.566c1.3-1.031,1.885-3.774,1.885-5.749.038-4.231.392-8.6.377-12.819h0c-.02-5.539-.009-10.243.094-15.929V42.945h3.93l.012,1.495c.1,14.3.078,28.844.059,42.906-.022,15.547-.044,31.431.089,47.046a4.014,4.014,0,0,0,2.314,4.035,6.642,6.642,0,0,0,6.524-.521c1.965-2.743,1.79-5.8,1.776-8.21-.042-9.625.088-18.846.095-28.465,0-6.1.2-12.758.189-18.852l.093-2.281h5.091l.006,1.5c.031,6.983.012,13.969-.008,20.958-.028,10.965-.057,22.128.1,33.087a3.318,3.318,0,0,0,2.018,2.887c1.707.8,5.038.992,6.645-.163a5.218,5.218,0,0,0,1.7-4.336c.1-16.275,0-47.6,0-47.6-.013-13.75-.071-27.118,0-41.1V42.7l4.053.033s.007,12.483,0,17.5c-.008,5.441-.03,9.539,0,14.986-.056,1.53.746,4.1,1.78,4.937a4.91,4.91,0,0,0,3.262.436l.566-.047a2.572,2.572,0,0,0,1.545-.836,5.987,5.987,0,0,0,1.155-4.01c.052-5.847.04-11.716.028-17.39-.01-5-.02-10,.012-15C110.788,39.14,110.73,33.412,106.977,30.446Z"/><path d="M165.039,30.446l-.025-.021c-4.193-3.539-9.987-3.49-15.589-3.423-1.194.012-2.345.029-3.474,0-2.188.1-4.58.039-6.689-.008-5.438-.116-11.043-.235-16.063,1.752-4.264,1.669-6.046,6.361-5.924,10.27-.062,12.707-.109,25.133.01,37.853a3.58,3.58,0,0,0,.928,2.766,5.211,5.211,0,0,0,1.847.95,6.065,6.065,0,0,0,3.441-.566c1.3-1.031,1.885-3.774,1.885-5.749.038-4.231.391-8.6.377-12.819h0c-.02-5.539-.009-10.243.094-15.929V42.945h3.93l.012,1.495c.1,14.3.078,28.844.058,42.906-.021,15.547-.044,31.431.09,47.046a4.011,4.011,0,0,0,2.313,4.035,6.641,6.641,0,0,0,6.524-.521c1.965-2.743,1.791-5.8,1.777-8.21-.042-9.625.087-18.846.094-28.465,0-6.1.2-12.758.189-18.852l.094-2.281h5.091l.006,1.5c.03,6.983.012,13.969-.008,20.958-.028,10.965-.058,22.128.1,33.087a3.318,3.318,0,0,0,2.017,2.887c1.708.8,5.039.992,6.646-.163a5.218,5.218,0,0,0,1.7-4.336c.1-16.275,0-47.6,0-47.6-.013-13.75-.07-27.118,0-41.1V42.7l4.053.033s.008,12.483,0,17.5c-.008,5.441-.029,9.539,0,14.986-.056,1.53.747,4.1,1.781,4.937a4.91,4.91,0,0,0,3.262.436l.565-.047a2.575,2.575,0,0,0,1.546-.836,5.982,5.982,0,0,0,1.154-4.01c.052-5.847.04-11.716.029-17.39-.01-5-.02-10,.011-15C168.849,39.14,168.791,33.412,165.039,30.446Z" fill="#8ff21d"/><path d="M223.1,30.446l-.025-.021c-4.194-3.539-9.987-3.49-15.589-3.423-1.195.012-2.345.029-3.475,0-2.188.1-4.579.039-6.689-.008-5.438-.116-11.043-.235-16.062,1.752-4.265,1.669-6.047,6.361-5.924,10.27-.063,12.707-.11,25.133.01,37.853a3.576,3.576,0,0,0,.928,2.766,5.211,5.211,0,0,0,1.847.95,6.061,6.061,0,0,0,3.44-.566c1.3-1.031,1.885-3.774,1.885-5.749.039-4.231.392-8.6.377-12.819h0c-.019-5.539-.008-10.243.095-15.929V42.945h3.929l.012,1.495c.1,14.3.079,28.844.059,42.906-.022,15.547-.044,31.431.089,47.046a4.014,4.014,0,0,0,2.314,4.035,6.641,6.641,0,0,0,6.524-.521c1.965-2.743,1.79-5.8,1.777-8.21-.043-9.625.087-18.846.094-28.465,0-6.1.2-12.758.189-18.852L199,80.1h5.091l.006,1.5c.03,6.983.011,13.969-.008,20.958-.029,10.965-.058,22.128.1,33.087a3.317,3.317,0,0,0,2.017,2.887c1.708.8,5.039.992,6.645-.163a5.215,5.215,0,0,0,1.7-4.336c.1-16.275,0-47.6,0-47.6-.013-13.75-.071-27.118,0-41.1V42.7l4.053.033s.008,12.483,0,17.5c-.008,5.441-.03,9.539,0,14.986-.056,1.53.746,4.1,1.78,4.937a4.91,4.91,0,0,0,3.262.436l.566-.047a2.572,2.572,0,0,0,1.545-.836,5.982,5.982,0,0,0,1.155-4.01c.052-5.847.04-11.716.028-17.39-.01-5-.019-10,.012-15C226.911,39.14,226.853,33.412,223.1,30.446Z"/><path d="M281.162,30.446l-.024-.021c-4.194-3.539-9.987-3.49-15.589-3.423-1.195.012-2.345.029-3.475,0-2.188.1-4.579.039-6.689-.008-5.438-.116-11.043-.235-16.063,1.752-4.264,1.669-6.046,6.361-5.923,10.27-.063,12.707-.11,25.133.009,37.853a3.58,3.58,0,0,0,.928,2.766,5.219,5.219,0,0,0,1.847.95,6.063,6.063,0,0,0,3.441-.566c1.3-1.031,1.885-3.774,1.885-5.749.038-4.231.392-8.6.377-12.819h0c-.02-5.539-.009-10.243.094-15.929V42.945h3.93l.012,1.495c.1,14.3.078,28.844.059,42.906-.022,15.547-.044,31.431.089,47.046a4.012,4.012,0,0,0,2.314,4.035,6.639,6.639,0,0,0,6.523-.521c1.966-2.743,1.791-5.8,1.777-8.21-.042-9.625.088-18.846.094-28.465,0-6.1.2-12.758.19-18.852l.093-2.281h5.091l.006,1.5c.031,6.983.012,13.969-.008,20.958-.028,10.965-.058,22.128.1,33.087a3.318,3.318,0,0,0,2.018,2.887c1.707.8,5.038.992,6.645-.163a5.218,5.218,0,0,0,1.7-4.336c.1-16.275,0-47.6,0-47.6-.012-13.75-.07-27.118,0-41.1V42.7l4.053.033s.008,12.483,0,17.5c-.007,5.441-.029,9.539,0,14.986-.055,1.53.747,4.1,1.781,4.937a4.91,4.91,0,0,0,3.262.436l.566-.047a2.572,2.572,0,0,0,1.545-.836,5.982,5.982,0,0,0,1.154-4.01c.052-5.847.041-11.716.029-17.39-.01-5-.02-10,.012-15C284.972,39.14,284.915,33.412,281.162,30.446Z"/></g></svg>