<svg xmlns="http://www.w3.org/2000/svg" width="180" height="180" viewBox="0 0 180 180">
  <g id="圖層_6" data-name="圖層 6">
    <g>
      <g>
        <path d="M25,113.15c-.94.81.83,4.4,3.95,8s6.42,5.89,7.36,5.07l.29-.24,86.53-74.74L111.77,38.17,25.24,112.9Z" fill="#22b573" stroke="#404040" stroke-linecap="round" stroke-linejoin="round" stroke-width="1.5"/>
        <path d="M123.37,51c-1,.81-4.24-1.46-7.37-5.07s-4.89-7.21-3.94-8,4.24,1.46,7.36,5.08S124.31,50.2,123.37,51Z" fill="#22b573" stroke="#404040" stroke-linecap="round" stroke-linejoin="round" stroke-width="1.5"/>
        <line x1="117.33" y1="52.09" x2="44.17" y2="115.27" fill="#22b573" stroke="#404040" stroke-linecap="round" stroke-linejoin="round" stroke-width="1.5"/>
        <line x1="41.39" y1="117.67" x2="37.12" y2="121.36" fill="#22b573" stroke="#404040" stroke-linecap="round" stroke-linejoin="round" stroke-width="1.5"/>
      </g>
      <g>
        <path d="M127.68,111.55a138.64,138.64,0,0,0-37.13,11.09l-23.49,7,3.51,11.73h0c2.62,6.7,22.87,6.65,45.73-.18s39.82-17.9,38.35-24.93h0l-3.5-11.73Z" fill="#e6e6e6" stroke="#404040" stroke-linecap="round" stroke-linejoin="round" stroke-width="1.81"/>
        <ellipse cx="108.82" cy="116.12" rx="43.89" ry="13.25" transform="matrix(0.96, -0.29, 0.29, 0.96, -28.68, 36)" stroke-width="1.81" stroke="#404040" stroke-linecap="round" stroke-linejoin="round" fill="#f2f2f2"/>
        <path d="M135.1,98.26a107.93,107.93,0,0,0-25.26,3.81L80.17,134c8.46.27,20.07-1.44,32.45-5.13,1.7-.51,3.37-1,5-1.6Z" fill="#fff" opacity="0.74"/>
        <path d="M116.33,113.19c.49,1.63-2.56,4-6.81,5.25s-8.09,1-8.58-.65,2.56-4,6.81-5.25S115.84,111.56,116.33,113.19Z" fill="#f2f2f2" stroke="#404040" stroke-linecap="round" stroke-linejoin="round" stroke-width="2.04"/>
        <ellipse cx="108.82" cy="116.12" rx="43.89" ry="13.25" transform="matrix(0.96, -0.29, 0.29, 0.96, -28.68, 36)" stroke-width="1.81" stroke="#404040" stroke-linecap="round" stroke-linejoin="round" fill="none"/>
      </g>
    </g>
  </g>
</svg>
