<svg xmlns="http://www.w3.org/2000/svg" width="180" height="180" viewBox="0 0 180 180">
  <g id="圖層_6" data-name="圖層 6">
    <g>
      <line x1="66.99" y1="126.77" x2="68.82" y2="149" fill="none" stroke="#404040" stroke-linecap="round" stroke-linejoin="round" stroke-width="2.22"/>
      <g>
        <path d="M144.82,97.5c-10-5.9-32.37-10-58.32-10s-48.27,4.1-58.32,10H22.5v7c0,9.39,28.65,17,64,17s64-7.61,64-17v-7Z" fill="none" stroke="#404040" stroke-linecap="round" stroke-linejoin="round" stroke-width="2.22"/>
        <ellipse cx="86.5" cy="97.5" rx="64" ry="17" fill="#fff" stroke="#404040" stroke-linecap="round" stroke-linejoin="round" stroke-width="2.22"/>
        <path d="M125.39,61.6c2.08,1.71,2.18,4.84,2.06,7.39-.9,18.05-14.66,32.71-30.63,39.31-6.74,2.79-15.42,5.68-22.75,5.58a162.77,162.77,0,0,1-24.83-2.44c-7.86-1.32-16.08-3.24-22.66-8-2-1.39-4.08-3.38-4.08-6,0-6,9.44-9.08,13.85-10.56,16.74-5.62,34.23-4.94,51.41-8,10.95-2,18.81-10.59,27.94-16.29,2.56-1.59,6.24-3.17,9.11-1.44A4,4,0,0,1,125.39,61.6Z" fill="#e6e6e6" stroke="#404040" stroke-linecap="round" stroke-linejoin="round" stroke-width="2.22"/>
        <path d="M83.5,84.13a82.83,82.83,0,0,0-13,13.76" fill="none" stroke="#404040" stroke-linecap="round" stroke-linejoin="round" stroke-width="2.22"/>
        <path d="M49.24,111.44a162.77,162.77,0,0,0,24.83,2.44c7.33.1,16-2.79,22.75-5.58,13.76-5.69,25.88-17.37,29.54-32-.77,1.07-1.49,2.61-2,3.33a45.33,45.33,0,0,1-4,4.45,66.77,66.77,0,0,1-9,7.33,101,101,0,0,1-36.6,15.75c-10.89,2.29-22.07,2.75-33.22,2.76C44.07,110.51,46.67,111,49.24,111.44Z" fill="#666" opacity="0.29"/>
        <path d="M125.39,61.6c2.08,1.71,2.18,4.84,2.06,7.39-.9,18.05-14.66,32.71-30.63,39.31-6.74,2.79-15.42,5.68-22.75,5.58a162.77,162.77,0,0,1-24.83-2.44c-7.86-1.32-16.08-3.24-22.66-8-2-1.39-4.08-3.38-4.08-6,0-6,9.44-9.08,13.85-10.56,16.74-5.62,34.23-4.94,51.41-8,10.95-2,18.81-10.59,27.94-16.29,2.56-1.59,6.24-3.17,9.11-1.44A4,4,0,0,1,125.39,61.6Z" fill="none" stroke="#404040" stroke-linecap="round" stroke-linejoin="round" stroke-width="2.22"/>
        <path d="M79.16,95.71a8.2,8.2,0,0,0-.94,2c-.25.87-.29,2,.46,2.48a2.38,2.38,0,0,0,1.45.23c9.12-.6,17.65-5,24.71-10.8,5.11-4.2,9.74-9.44,11.29-15.86.37-1.54.29-3.6-1.19-4.15a3.43,3.43,0,0,0-2.88.7c-4.69,2.88-8.76,6.75-13.69,9.18C95.48,81,92.3,81.89,89.78,83.9a43.46,43.46,0,0,0-6.93,7.22A56.08,56.08,0,0,0,79.16,95.71Z" fill="#fff"/>
        <line x1="146.82" y1="110.77" x2="144.99" y2="133" fill="none" stroke="#404040" stroke-linecap="round" stroke-linejoin="round" stroke-width="2.22"/>
        <path d="M119.5,91.5c6.19.94,14,2,22.62,7.27" fill="none" stroke="#404040" stroke-linecap="round" stroke-linejoin="round" stroke-width="2.22"/>
        <g>
          <path d="M156.6,74.08a27.73,27.73,0,0,0-25.82-31.57" fill="none" stroke="#404040" stroke-linecap="round" stroke-linejoin="round" stroke-width="2.92"/>
          <path d="M137.72,35.13a18.57,18.57,0,0,0-6.25,4.57A5.73,5.73,0,0,0,130,42.38a6.41,6.41,0,0,0,.8,3.58c1.21,2.7,2.66,5.44,5.11,7.1" fill="none" stroke="#404040" stroke-linecap="round" stroke-linejoin="round" stroke-width="2.92"/>
        </g>
      </g>
    </g>
  </g>
</svg>
