<svg xmlns="http://www.w3.org/2000/svg" viewBox="0 0 200 200">
  <g>
    <path d="M155.14,113.44c-10-5.9-32.37-10-58.32-10s-48.27,4.1-58.32,10H32.82v7c0,9.39,28.65,17,64,17s64-7.61,64-17v-7Z" fill="none" stroke="#404040" stroke-linecap="round" stroke-linejoin="round" stroke-width="2.22"/>
    <ellipse cx="96.82" cy="113.44" rx="64" ry="17" fill="#fff" stroke="#404040" stroke-linecap="round" stroke-linejoin="round" stroke-width="2.22"/>
    <path d="M135.7,77.54c2.09,1.71,2.19,4.84,2.07,7.38-.9,18-14.66,32.72-30.63,39.32-6.74,2.79-15.43,5.67-22.76,5.57a164.29,164.29,0,0,1-24.83-2.43c-7.85-1.33-16.07-3.25-22.65-8-2-1.4-4.08-3.39-4.08-6,0-6,9.44-9.09,13.85-10.56,16.74-5.62,34.22-4.94,51.41-8,11-2,18.8-10.58,27.94-16.28,2.56-1.59,6.24-3.17,9.11-1.45A4.16,4.16,0,0,1,135.7,77.54Z" fill="#e6e6e6" stroke="#404040" stroke-linecap="round" stroke-linejoin="round" stroke-width="2.22"/>
    <path d="M93.82,100.07a83.16,83.16,0,0,0-13,13.75" fill="none" stroke="#404040" stroke-linecap="round" stroke-linejoin="round" stroke-width="2.22"/>
    <path d="M59.55,127.38a164.29,164.29,0,0,0,24.83,2.43c7.33.1,16-2.78,22.76-5.57,13.76-5.69,25.88-17.37,29.54-32-.77,1.07-1.49,2.61-2.05,3.33a45.33,45.33,0,0,1-4,4.45,67.4,67.4,0,0,1-9,7.33A101,101,0,0,1,85,123.06c-10.89,2.29-22.07,2.75-33.22,2.75C54.39,126.45,57,127,59.55,127.38Z" fill="#666" opacity="0.29"/>
    <path d="M135.7,77.54c2.09,1.71,2.19,4.84,2.07,7.38-.9,18-14.66,32.72-30.63,39.32-6.74,2.79-15.43,5.67-22.76,5.57a164.29,164.29,0,0,1-24.83-2.43c-7.85-1.33-16.07-3.25-22.65-8-2-1.4-4.08-3.39-4.08-6,0-6,9.44-9.09,13.85-10.56,16.74-5.62,34.22-4.94,51.41-8,11-2,18.8-10.58,27.94-16.28,2.56-1.59,6.24-3.17,9.11-1.45A4.16,4.16,0,0,1,135.7,77.54Z" fill="none" stroke="#404040" stroke-linecap="round" stroke-linejoin="round" stroke-width="2.22"/>
    <path d="M89.48,111.64a8.08,8.08,0,0,0-.94,2c-.25.86-.3,2,.46,2.48a2.37,2.37,0,0,0,1.45.23c9.12-.6,17.65-5,24.71-10.81,5.1-4.19,9.73-9.44,11.29-15.85.37-1.54.29-3.61-1.19-4.15a3.43,3.43,0,0,0-2.88.7c-4.69,2.88-8.76,6.74-13.69,9.18-2.89,1.42-6.07,2.36-8.59,4.37a43.08,43.08,0,0,0-6.93,7.22A57.66,57.66,0,0,0,89.48,111.64Z" fill="#fff"/>
    <line x1="37.31" y1="126.7" x2="39.14" y2="148.94" fill="none" stroke="#404040" stroke-linecap="round" stroke-linejoin="round" stroke-width="2.22"/>
    <line x1="157.14" y1="126.7" x2="155.31" y2="148.94" fill="none" stroke="#404040" stroke-linecap="round" stroke-linejoin="round" stroke-width="2.22"/>
    <path d="M129.82,107.44c6.19.94,14,2,22.62,7.26" fill="none" stroke="#404040" stroke-linecap="round" stroke-linejoin="round" stroke-width="2.22"/>
    <g>
      <path d="M166.92,90a27.75,27.75,0,0,0-25.83-31.57" fill="none" stroke="#404040" stroke-linecap="round" stroke-linejoin="round" stroke-width="2.92"/>
      <path d="M148,51.06a18.73,18.73,0,0,0-6.25,4.58,5.64,5.64,0,0,0-1.52,2.68,6.43,6.43,0,0,0,.8,3.58c1.21,2.69,2.66,5.44,5.1,7.1" fill="none" stroke="#404040" stroke-linecap="round" stroke-linejoin="round" stroke-width="2.92"/>
    </g>
  </g>
</svg>
