<svg xmlns="http://www.w3.org/2000/svg" xmlns:xlink="http://www.w3.org/1999/xlink" viewBox="0 0 642.67 807.96">
  <defs>
    <linearGradient id="a" data-name="未命名漸層 5" x1="441.4" y1="661.97" x2="487.77" y2="661.97" gradientTransform="translate(-161.62 -36.36) rotate(5.19)" gradientUnits="userSpaceOnUse">
      <stop offset="0" stop-color="#fff" stop-opacity="0"/>
      <stop offset="0.07" stop-color="#fff" stop-opacity="0.21"/>
      <stop offset="0.17" stop-color="#fff" stop-opacity="0.44"/>
      <stop offset="0.26" stop-color="#fff" stop-opacity="0.64"/>
      <stop offset="0.34" stop-color="#fff" stop-opacity="0.8"/>
      <stop offset="0.42" stop-color="#fff" stop-opacity="0.91"/>
      <stop offset="0.48" stop-color="#fff" stop-opacity="0.98"/>
      <stop offset="0.53" stop-color="#fff"/>
      <stop offset="0.59" stop-color="#fff" stop-opacity="0.98"/>
      <stop offset="0.64" stop-color="#fff" stop-opacity="0.93"/>
      <stop offset="0.7" stop-color="#fff" stop-opacity="0.85"/>
      <stop offset="0.77" stop-color="#fff" stop-opacity="0.73"/>
      <stop offset="0.83" stop-color="#fff" stop-opacity="0.57"/>
      <stop offset="0.89" stop-color="#fff" stop-opacity="0.38"/>
      <stop offset="0.96" stop-color="#fff" stop-opacity="0.17"/>
      <stop offset="1" stop-color="#fff" stop-opacity="0"/>
    </linearGradient>
    <linearGradient id="b" data-name="未命名漸層 42" x1="440.22" y1="592.9" x2="440.22" y2="139.77" gradientTransform="translate(-161.62 -36.36) rotate(5.19)" gradientUnits="userSpaceOnUse">
      <stop offset="0" stop-color="#fff" stop-opacity="0"/>
      <stop offset="0.53" stop-color="#fff"/>
      <stop offset="1" stop-color="#fff" stop-opacity="0"/>
    </linearGradient>
    <clipPath id="c">
      <path d="M482.69,121.4,357.2,110,232.09,98.62c-9.39-.85-15.27,5.67-15.65,9.79l-1.27,14,279.49,25.39,1.1-12.12A14.15,14.15,0,0,0,482.69,121.4Z" fill="none"/>
    </clipPath>
  </defs>
  <g style="isolation: isolate">
    <g>
      <g>
        <g>
          <g>
            <path d="M231.1,610.24l-8.19,90.1c-1.49,16.44,45.15,22.06,78.37,25.08,33.44,3,80,7.27,81.6-10.54l8.22-90.43c-2.34.61-46.57,0-80.37-3.11S234.87,611.73,231.1,610.24Z" fill="#68d7e2"/>
            <g>
              <path d="M307.2,660.28A33.62,33.62,0,0,0,270.74,690l67,6.08A33.61,33.61,0,0,0,307.2,660.28Z" fill="#68d7e2"/>
              <path d="M337.75,696.08h-.05l-67-6.08h-.05a4.57,4.57,0,0,0-.83,9.11l1.08.09,64.9,5.9,1.09.1a4.57,4.57,0,1,0,.82-9.11Z" fill="#68d7e2"/>
            </g>
            <path d="M344.77,623.59l-6.59,72.57a4.55,4.55,0,0,1-.82,9h0l-2.06,22.73c24.49,1,46.48-.91,47.59-13l8.22-90.43C389.51,624.86,368.61,624.7,344.77,623.59Z" fill="#231815" opacity="0.1" style="mix-blend-mode: multiply"/>
            <path d="M231.1,610.24l-8.19,90.1c-.94,10.42,17.46,16.5,39.53,20.32l9.43-103.76C250.88,614.09,233.46,611.17,231.1,610.24Z" opacity="0.3" fill="url(#a)"/>
            <path d="M307.2,660.28A33.62,33.62,0,0,0,270.74,690l67,6.08A33.61,33.61,0,0,0,307.2,660.28Z" fill="#231815" opacity="0.1" style="mix-blend-mode: multiply"/>
            <path d="M231.1,610.24l-8.19,90.1c-1.49,16.44,45.15,22.06,78.37,25.08,33.44,3,80,7.27,81.6-10.54l8.22-90.43c-2.34.61-46.57,0-80.37-3.11S234.87,611.73,231.1,610.24Z" fill="none" stroke="#231815" stroke-linecap="round" stroke-linejoin="round" stroke-width="3.39"/>
            <g>
              <path d="M307.2,660.28A33.62,33.62,0,0,0,270.74,690l67,6.08A33.61,33.61,0,0,0,307.2,660.28Z" fill="none" stroke="#231815" stroke-linecap="round" stroke-linejoin="round" stroke-width="3.39"/>
              <path d="M337.75,696.08h-.05l-67-6.08h-.05a4.57,4.57,0,0,0-.83,9.11l1.08.09,64.9,5.9,1.09.1a4.57,4.57,0,1,0,.82-9.11Z" fill="none" stroke="#231815" stroke-linecap="round" stroke-linejoin="round" stroke-width="3.39"/>
            </g>
            <path d="M384.58,696.13c-13.35,3.4-46.88-.06-80.36-3.1s-69.61-6.31-79.6-11.44" fill="none" stroke="#231815" stroke-linecap="round" stroke-linejoin="round" stroke-width="3.39"/>
            <ellipse cx="311.11" cy="617.18" rx="4.96" ry="80.31" transform="translate(-331.69 871.16) rotate(-84.81)" fill="#68d7e2"/>
            <ellipse cx="311.11" cy="617.18" rx="4.96" ry="80.31" transform="translate(-331.69 871.16) rotate(-84.81)" stroke-width="3.39" stroke="#231815" stroke-linecap="round" stroke-linejoin="round" fill="none"/>
            <ellipse cx="311.11" cy="617.18" rx="4.96" ry="80.31" transform="translate(-331.69 871.16) rotate(-84.81)" fill="#231815" opacity="0.3" style="mix-blend-mode: multiply"/>
            <path d="M311.14,616.92c-10.58-1-19.62.38-22.11,3,6.88.75,14.13,1.47,21.63,2.15s14.77,1.28,21.67,1.79C330.36,620.82,321.72,617.88,311.14,616.92Z" fill="#231815" stroke="#231815" stroke-linecap="round" stroke-linejoin="round" stroke-width="3.39" opacity="0.2" style="mix-blend-mode: multiply"/>
          </g>
          <g>
            <path d="M482.69,121.4,357.2,110,232.09,98.62c-9.39-.85-15.27,5.67-15.65,9.79l-1.27,14,279.49,25.39,1.1-12.12A14.15,14.15,0,0,0,482.69,121.4Z" fill="#f0f0f0"/>
            <path d="M215.17,122.46c-.26,2.86,6.05,461.23,6.57,472.68s5.59,13.6,9.36,15.1,45.83,8,79.63,11.1,78,3.72,80.37,3.11S400.75,622,403,611.61,467.28,266.83,473.74,231s20.73-81,20.92-83.11Z" fill="#f0f0f0"/>
            <path d="M289.46,619.11l-4.79,52.73c-.31,3.4,9,7,20.74,8.1s21.55-.82,21.86-4.23l4.8-52.79c-7.25-.44-14.51-1-21.34-1.58S296.63,620,289.46,619.11Z" fill="#f0f0f0"/>
            <path d="M416.25,271.49c-16.5,61.18-64.13,300.82-71.48,352.1,23.84,1.11,44.74,1.27,46.33.86,2.33-.61,9.65-2.44,11.89-12.84S467.28,266.83,473.74,231s20.73-81,20.92-83.11C469.6,159,434.67,203.2,416.25,271.49Z" fill="#231815" opacity="0.1" style="mix-blend-mode: multiply"/>
            <path d="M221.74,595.14c.52,11.44,5.59,13.6,9.36,15.1,2.36.93,19.78,3.85,40.77,6.66-.89-95.38-35.77-457.66-56.7-494.44C214.91,125.32,221.22,583.69,221.74,595.14Z" fill="url(#b)"/>
            <path d="M482.69,121.4,357.2,110,232.09,98.62c-9.39-.85-15.27,5.67-15.65,9.79l-1.27,14,279.49,25.39,1.1-12.12A14.15,14.15,0,0,0,482.69,121.4Z" fill="#231815" opacity="0.1" style="mix-blend-mode: multiply"/>
            <path d="M482.69,121.4,357.2,110,232.09,98.62c-9.39-.85-15.27,5.67-15.65,9.79l-1.27,14,279.49,25.39,1.1-12.12A14.15,14.15,0,0,0,482.69,121.4Z" fill="none" stroke="#231815" stroke-linecap="round" stroke-linejoin="round" stroke-width="3.39"/>
            <path d="M215.17,122.46c-.26,2.86,6.05,461.23,6.57,472.68s5.59,13.6,9.36,15.1,45.83,8,79.63,11.1,78,3.72,80.37,3.11S400.75,622,403,611.61,467.28,266.83,473.74,231s20.73-81,20.92-83.11Z" fill="none" stroke="#231815" stroke-linecap="round" stroke-linejoin="round" stroke-width="3.39"/>
            <g clip-path="url(#c)">
              <g>
                <line x1="460.82" y1="116.63" x2="440.75" y2="145.09" fill="none" stroke="#231815" stroke-linecap="round" stroke-linejoin="round" stroke-width="3.39"/>
                <line x1="473" y1="117.74" x2="452.93" y2="146.2" fill="none" stroke="#231815" stroke-linecap="round" stroke-linejoin="round" stroke-width="3.39"/>
                <line x1="485.18" y1="118.84" x2="465.11" y2="147.3" fill="none" stroke="#231815" stroke-linecap="round" stroke-linejoin="round" stroke-width="3.39"/>
                <line x1="497.36" y1="119.95" x2="477.29" y2="148.41" fill="none" stroke="#231815" stroke-linecap="round" stroke-linejoin="round" stroke-width="3.39"/>
              </g>
            </g>
            <path d="M289.46,619.11l-4.79,52.73c-.31,3.4,9,7,20.74,8.1s21.55-.82,21.86-4.23l4.8-52.79c-7.25-.44-14.51-1-21.34-1.58S296.63,620,289.46,619.11Z" fill="none" stroke="#231815" stroke-linecap="round" stroke-linejoin="round" stroke-width="3.39"/>
            <g>
              <path d="M308.47,646.55c-9.77-.89-18.29-3.28-21.7-6.1a2.75,2.75,0,0,1-.15-3.13c.58-.71,1.66-1.24,2.36-.66,2.33,1.92,9.55,4.42,19.91,5.36s17.73-.15,20.49-1.65c.8-.44,1.77.29,2.2,1.09a2.78,2.78,0,0,1-.73,3C327,646.63,318.16,647.43,308.47,646.55Z" fill="#fff"/>
              <path d="M307.3,659.46c-9.77-.89-18.29-3.28-21.71-6.1a2.69,2.69,0,0,1-.15-3.07c.58-.71,1.67-1.3,2.37-.72,2.33,1.92,9.55,4.42,19.9,5.36s17.74-.15,20.5-1.65c.8-.44,1.76.35,2.19,1.15a2.65,2.65,0,0,1-.73,3C325.77,659.54,317,660.34,307.3,659.46Z" fill="#fff"/>
              <path d="M329.38,640.37c.8-.44,1.77.29,2.2,1.09a2.78,2.78,0,0,1-.73,3c-3.9,2.12-12.69,2.92-22.38,2s-18.29-3.28-21.7-6.1a2.75,2.75,0,0,1-.15-3.13c.58-.71,1.66-1.24,2.36-.66" fill="none" stroke="#231815" stroke-linecap="round" stroke-linejoin="round" stroke-width="3.39"/>
              <path d="M328.21,653.28c.8-.44,1.76.35,2.19,1.15a2.65,2.65,0,0,1-.73,3c-3.9,2.13-12.68,2.93-22.37,2.05s-18.29-3.28-21.71-6.1a2.69,2.69,0,0,1-.15-3.07c.58-.71,1.67-1.3,2.37-.72" fill="none" stroke="#231815" stroke-linecap="round" stroke-linejoin="round" stroke-width="3.39"/>
            </g>
            <g opacity="0.1" style="mix-blend-mode: multiply">
              <path d="M289,619.06l-4.79,52.73c-.31,3.41,9.26,7.06,21.37,8.16s22.19-.77,22.5-4.17l4.79-52.8c-7.46-.45-14.93-1-22-1.62S296.34,619.92,289,619.06Z" fill="#231815"/>
            </g>
          </g>
          <g>
            <path d="M231.1,610.24l-8.19,90.1c-1.49,16.44,45.15,22.06,78.37,25.08,33.44,3,80,7.27,81.6-10.54l8.22-90.43c-2.34.61-46.57,0-80.37-3.11S234.87,611.73,231.1,610.24Z" fill="#68d7e2"/>
            <g>
              <path d="M307.2,660.28A33.62,33.62,0,0,0,270.74,690l67,6.08A33.61,33.61,0,0,0,307.2,660.28Z" fill="#68d7e2"/>
              <path d="M337.75,696.08h-.05l-67-6.08h-.05a4.57,4.57,0,0,0-.83,9.11l1.08.09,64.9,5.9,1.09.1a4.57,4.57,0,1,0,.82-9.11Z" fill="#68d7e2"/>
            </g>
            <path d="M344.77,623.59l-6.59,72.57a4.55,4.55,0,0,1-.82,9h0l-2.06,22.73c24.49,1,46.48-.91,47.59-13l8.22-90.43C389.51,624.86,368.61,624.7,344.77,623.59Z" fill="#231815" opacity="0.1" style="mix-blend-mode: multiply"/>
            <path d="M231.1,610.24l-8.19,90.1c-.94,10.42,17.46,16.5,39.53,20.32l9.43-103.76C250.88,614.09,233.46,611.17,231.1,610.24Z" opacity="0.3" fill="url(#a)"/>
            <path d="M307.2,660.28A33.62,33.62,0,0,0,270.74,690l67,6.08A33.61,33.61,0,0,0,307.2,660.28Z" fill="#231815" opacity="0.1" style="mix-blend-mode: multiply"/>
            <path d="M231.1,610.24l-8.19,90.1c-1.49,16.44,45.15,22.06,78.37,25.08,33.44,3,80,7.27,81.6-10.54l8.22-90.43c-2.34.61-46.57,0-80.37-3.11S234.87,611.73,231.1,610.24Z" fill="none" stroke="#231815" stroke-linecap="round" stroke-linejoin="round" stroke-width="3.39"/>
            <g>
              <path d="M307.2,660.28A33.62,33.62,0,0,0,270.74,690l67,6.08A33.61,33.61,0,0,0,307.2,660.28Z" fill="none" stroke="#231815" stroke-linecap="round" stroke-linejoin="round" stroke-width="3.39"/>
              <path d="M337.75,696.08h-.05l-67-6.08h-.05a4.57,4.57,0,0,0-.83,9.11l1.08.09,64.9,5.9,1.09.1a4.57,4.57,0,1,0,.82-9.11Z" fill="none" stroke="#231815" stroke-linecap="round" stroke-linejoin="round" stroke-width="3.39"/>
            </g>
            <path d="M384.58,696.13c-13.35,3.4-46.88-.06-80.36-3.1s-69.61-6.31-79.6-11.44" fill="none" stroke="#231815" stroke-linecap="round" stroke-linejoin="round" stroke-width="3.39"/>
          </g>
        </g>
        <g>
          <ellipse cx="281.01" cy="358.62" rx="44.25" ry="30.78" transform="translate(-119.59 575.64) rotate(-80.37)" fill="#fff" stroke="#030004" stroke-miterlimit="10" stroke-width="3.85"/>
          <path d="M292.58,316.19c-7.16,5.86-13.07,16.74-15.29,29.85-3.58,21.08,3.71,39.9,16.28,42a15.39,15.39,0,0,0,8.76-1.25,58.73,58.73,0,0,0,9-23.06C315.1,341.76,306.82,321.67,292.58,316.19Z" fill="#030004"/>
          <ellipse cx="372.56" cy="374.16" rx="44.25" ry="30.78" transform="translate(-58.68 678.84) rotate(-80.37)" fill="#fff" stroke="#030004" stroke-miterlimit="10" stroke-width="3.85"/>
          <path d="M384.13,331.73c-7.17,5.86-13.07,16.74-15.29,29.85-3.58,21.08,3.71,39.9,16.28,42a15.23,15.23,0,0,0,8.76-1.25,58.73,58.73,0,0,0,9-23.06C406.64,357.3,398.37,337.21,384.13,331.73Z" fill="#030004"/>
          <line x1="281.58" y1="436.47" x2="357.78" y2="443.55" fill="#fff" stroke="#030004" stroke-linecap="round" stroke-linejoin="round" stroke-width="3.85"/>
          <line x1="259.42" y1="292.47" x2="305.22" y2="288.94" fill="#fff" stroke="#030004" stroke-linecap="round" stroke-linejoin="round" stroke-width="5.57"/>
          <line x1="411.42" y1="306.97" x2="369.34" y2="288.52" fill="#fff" stroke="#030004" stroke-linecap="round" stroke-linejoin="round" stroke-width="5.57"/>
        </g>
      </g>
      <g>
        <circle cx="250.88" cy="373.57" r="61.87" fill="#fff" opacity="0.6"/>
        <circle cx="394.93" cy="396.75" r="61.87" fill="#fff" opacity="0.6"/>
        <circle cx="250.88" cy="373.57" r="61.87" fill="none" stroke="#030004" stroke-miterlimit="10" stroke-width="3.85"/>
        <circle cx="394.93" cy="396.75" r="61.87" fill="none" stroke="#030004" stroke-miterlimit="10" stroke-width="3.85"/>
        <line x1="311.23" y1="387.91" x2="333.22" y2="392.22" fill="none" stroke="#030004" stroke-miterlimit="10" stroke-width="3.85"/>
      </g>
      <g>
        <path d="M232.19,105.33l8.94,81.28s67.25,19.2,110.52-12.77L348,103.25Z"/>
        <polygon points="287.92 64.17 158.39 126.38 293.46 165.68 416.17 108.08 287.92 64.17"/>
        <polyline points="241.76 150.64 293.57 165.92 346.64 140.72" fill="none" stroke="#fff" stroke-miterlimit="10" stroke-width="1.89"/>
        <path d="M198.55,173.69c1.51-7.53-4-15-12.41-16.67s-16.38,3-17.89,10.58c0,0-17.31,57.94-31.67,66.61A40.86,40.86,0,0,0,148.47,245a141,141,0,0,0,12.15-21.32s-1.73,14.52-4.14,25.32c8.13,3.17,18.91,4.9,32.62,2.38C189.1,251.35,197.1,235.78,198.55,173.69Z" fill="#ff6a95" stroke="#231815" stroke-miterlimit="10" stroke-width="3"/>
        <path d="M188.15,119.54s1.63,25.08-2,37.48" fill="#fff" stroke="#231815" stroke-miterlimit="10" stroke-width="3"/>
        <path d="M198.42,178.66S181.63,192.35,167.2,173" fill="none" stroke="#231815" stroke-miterlimit="10" stroke-width="3"/>
        <path d="M165.77,171.48s12.94,9.07,32.65,7.18" fill="none" stroke="#231815" stroke-miterlimit="10" stroke-width="3"/>
      </g>
    </g>
  </g>
</svg>
