<svg xmlns="http://www.w3.org/2000/svg" viewBox="0 0 129 129">
  <g id="圖層_12" data-name="圖層 12">
    <g>
      <g>
        <rect x="53.13" y="6.42" width="22.74" height="22.74" rx="1.58" fill="#fff"/>
        <path d="M74.29,8V27.58H54.71V8H74.29m0-3.16H54.71A3.16,3.16,0,0,0,51.55,8V27.58a3.15,3.15,0,0,0,3.16,3.16H74.29a3.15,3.15,0,0,0,3.16-3.16V8a3.16,3.16,0,0,0-3.16-3.16Z"/>
      </g>
      <g>
        <rect x="40.23" y="2.86" width="48.54" height="10.28" rx="1.58" fill="#fff"/>
        <path d="M87.19,4.44v7.12H41.81V4.44H87.19m0-3.16H41.81a3.16,3.16,0,0,0-3.16,3.16v7.12a3.16,3.16,0,0,0,3.16,3.17H87.19a3.16,3.16,0,0,0,3.16-3.17V4.44a3.16,3.16,0,0,0-3.16-3.16Z"/>
      </g>
      <g>
        <path d="M64.5,126.14A53.19,53.19,0,1,1,117.69,73,53.25,53.25,0,0,1,64.5,126.14Z" fill="#fff"/>
        <path d="M64.5,21.35A51.61,51.61,0,1,1,12.9,73a51.6,51.6,0,0,1,51.6-51.6m0-3.17A54.77,54.77,0,1,0,119.27,73,54.83,54.83,0,0,0,64.5,18.18Z"/>
      </g>
      <path d="M64.5,31.14A41.82,41.82,0,1,1,22.68,73,41.82,41.82,0,0,1,64.5,31.14m0-3.17a45,45,0,1,0,45,45,45,45,0,0,0-45-45Z"/>
      <line x1="63.94" y1="35.58" x2="63.94" y2="41.81" fill="none" stroke="#000" stroke-linecap="round" stroke-linejoin="round" stroke-width="2.57"/>
      <line x1="64.39" y1="105.43" x2="64.39" y2="111.65" fill="none" stroke="#000" stroke-linecap="round" stroke-linejoin="round" stroke-width="2.57"/>
      <line x1="102.2" y1="73.4" x2="95.97" y2="73.4" fill="none" stroke="#000" stroke-linecap="round" stroke-linejoin="round" stroke-width="2.57"/>
      <line x1="32.36" y1="73.84" x2="26.13" y2="73.84" fill="none" stroke="#000" stroke-linecap="round" stroke-linejoin="round" stroke-width="2.57"/>
    </g>
  </g>
</svg>
