<svg xmlns="http://www.w3.org/2000/svg" viewBox="0 0 1920 500">
  <g id="圖層_12" data-name="圖層 12">
    <polygon points="368.48 194.21 314.16 194.07 368.44 194.42 368.48 194.21" fill="none"/>
    <polygon points="371.08 197.58 204.07 196.51 204.58 193.78 151.27 193.65 147.35 215.87 147.53 215.87 135.63 283.32 413.57 283.32 429.25 194.37 371.68 194.22 371.08 197.58" fill="#fff"/>
    <polygon points="368.44 194.42 314.16 194.07 206.18 193.79 205.97 194.95 369.76 196 370.08 194.21 368.48 194.21 368.44 194.42" fill="#221714"/>
    <polygon points="414.89 284.89 133.76 284.89 145.65 217.45 145.48 217.45 149.68 193.64 148.08 193.64 143.6 219.02 143.77 219.02 131.88 286.47 416.21 286.47 432.45 194.37 430.85 194.37 414.89 284.89" fill="#221714"/>
    <polygon points="145.65 217.45 133.76 284.89 414.89 284.89 430.85 194.37 429.25 194.37 413.57 283.32 135.63 283.32 147.53 215.87 147.35 215.87 151.27 193.65 149.68 193.64 145.48 217.45 145.65 217.45" fill="#221714"/>
    <polygon points="371.08 197.58 371.68 194.22 370.08 194.21 369.76 196 205.97 194.95 206.18 193.79 204.58 193.78 204.07 196.51 371.08 197.58" fill="#221714"/>
  </g>
</svg>
