<?xml version="1.0" encoding="utf-8"?>
<!-- Generator: Adobe Illustrator 24.3.0, SVG Export Plug-In . SVG Version: 6.00 Build 0)  -->
<svg version="1.1" id="Layer_1" xmlns="http://www.w3.org/2000/svg" xmlns:xlink="http://www.w3.org/1999/xlink" x="0px" y="0px"
	 viewBox="0 0 1920 430" style="enable-background:new 0 0 1920 430;" xml:space="preserve">
<style type="text/css">
	.st0{fill:#FFFFFF;}
	.st1{clip-path:url(#SVGID_2_);}
	.st2{opacity:0.3;}
	.st3{clip-path:url(#SVGID_4_);}
	.st4{fill:none;stroke:#231815;stroke-width:0.7772;stroke-miterlimit:10;}
	.st5{opacity:0.1;}
	.st6{fill:#231815;}
	.st7{opacity:0.1;fill:#231815;}
	.st8{fill:#28ABE3;}
	.st9{fill:url(#SVGID_5_);}
	.st10{opacity:0.3;fill:url(#SVGID_6_);}
	.st11{opacity:0.3;fill:url(#SVGID_7_);}
	.st12{fill:none;}
	.st13{fill:none;stroke:#231815;stroke-width:0.7772;stroke-linecap:round;stroke-linejoin:round;stroke-miterlimit:10;}
	.st14{opacity:0.1;fill:none;}
	.st15{clip-path:url(#SVGID_9_);}
	.st16{fill:url(#SVGID_10_);}
	.st17{opacity:0.3;fill:url(#SVGID_11_);}
	.st18{opacity:0.3;fill:url(#SVGID_12_);}
</style>
<g>
	<path class="st0" d="M515.3,42.6H270.2l-28,158.8h0.2L232,260.3h245.4l15.8-89.7h-0.5L515.3,42.6z M438,182.7l-143-0.9l17.4-94.4
		H455L438,182.7z"/>
	<polygon class="st0" points="408.8,111.4 348.9,111.4 341,156.3 400.9,156.3 	"/>
	<path class="st0" d="M1396.9,92.9H1319l8-13.2h72.2l7.5-42.6h-231l-7.5,42.6h65.5l-8,13.2h-59.8l-6.2,35.1h-0.5l-18.6,105.5h0.5
		l-5.6,32h231l5.6-32h0.5l18.6-105.5h-0.5L1396.9,92.9z M1294.1,202.9l-61.4-0.9l4.9-34.3h61L1294.1,202.9z M1302.4,145.1H1240
		l2.7-18.3h61.4L1302.4,145.1z"/>
	<path class="st0" d="M828.7,67.5H723.6c4.5-13.1,10.7-27,10.8-27.6l-50.7-0.1c-0.1,0.2-5.1,19.2-14,39.8c-2.1,4.8-4.2,9.2-6.2,13.2
		l9.3-52.5h-48.1l-15.8,89.4h-17.2l15.9-90.3h-48.1l-15.9,90.3h-0.4l-15.8,89.7h65.7l-8.4,47.7l48.3-1L652.9,153l4.8,13.3
		c8.6-4.8,16.9-11.6,24.7-20.6c0.6,8.2,2,17.1,4.7,26.2c2.3,7.8,5.4,15.4,9.1,22.8c-16.6,11.9-38.1,24.7-53,31.6
		c6.8,20.6,11.7,29.2,17.3,41.7c23.8-11.2,44.5-22.6,62.8-36.3c13.5,13.7,30.2,26.2,50.1,37.3c9.9-16,20.1-31,28.9-46.2
		c-16.4-9.2-29.1-18.7-38.9-28.1c6.4-7.4,12.1-15,17.2-22.8c13.5-20.8,20.2-40.6,22.2-53.2h16.7C820.9,121.1,829.6,70,828.7,67.5z
		 M748.3,148.8c-1.7,2.5-3.6,5-5.5,7.4c-9.2-21-5.9-36.3-5.6-37.5c-0.1,0.4-0.1,0.6-0.1,0.6l-5.6-0.6h36.1l-5.8,0.6
		C761.8,119.4,760,131.6,748.3,148.8z"/>
	<path class="st0" d="M1534.7,167.1c-0.1-13.1,0.7-25.8,1.4-33.9h19.8l7.7-43.4h-38.2l3.7-21h17.7l5.7-32.6H1473l-5.7,32.6h17.7
		l-3.7,21h-37.6l-7.7,43.4h16c-2.4,7.9-6.4,19.9-11.3,32.3c-14.8,37.4-24.3,42.8-24.4,42.8c0.1-0.1,0.7-0.3,1.4-0.3l-2.8,32.4
		c21.9-1.9,37.5-25.4,48.3-48.1l-13.1,74.1h44.1l10.2-57.6c3.5,16.4,10.9,30.5,26.4,33.2l11.3-32.1c0.4,0.1,0.7,0.2,0.7,0.2
		C1540.6,208.9,1535,198.5,1534.7,167.1z"/>
	<path class="st0" d="M1116.2,76.9h-94.4c4.7-25.9,7.4-39.2,7.6-41l-60.7,0.9c-0.1,0.6-3.6,18.3-7.5,40.1h-91l-0.9,5.1h-0.4
		l-11.7,66.2h0.4l-2.5,14.4h65.3c-15.7,23.8-37.5,45.8-67.7,60c2.2,22.7,10.1,41.9,18.1,54c43.8-20.5,79.9-54.1,106.3-98.3
		c1.5,6,3.3,11.8,5.3,17.5c12.8,35.8,35.4,63,67.1,80.8c13.3-15.3,25.5-33.4,37.1-54c-25.3-14.2-39.6-36.2-47.1-60h61.7L1116.2,76.9
		z"/>
	<g>
		<path class="st0" d="M305.9,390c1.6,0.3,3.2,0.8,4.5,1.4c1.8,0.8,3.3,1.7,4.5,2.9c3.1,3.1,4.2,7.1,3.3,12.3l-4,22.8h-40.4
			l3.2-18.3c0.5-3,0.2-5.4-1.1-7.2c-1-1.5-2.5-2.5-4.5-3.1c-2.4-0.8-4.8-1-7.4-0.6l-5.1,29.2h-40.4l16.7-94.6h62
			c22.3,0,32.1,10.1,29.3,30.4C324.6,377,317.7,385.3,305.9,390z M276.7,372.6c2.3,0,4.4-0.6,6.2-1.8c1.8-1.2,2.9-2.6,3.1-4.2
			c0.3-1.7-0.2-3.1-1.6-4.3c-1.4-1.2-3.3-1.8-5.6-1.8h-7.5l-2.1,12H276.7z"/>
		<path class="st0" d="M436.9,363.1L436.9,363.1l-39.7,0.1l-0.7,3.9h39.7l-5.3,29.9h-39.7l-0.7,3.9h39.7l-5,28.5h-80.1l16.7-94.7
			h80.8L436.9,363.1z"/>
		<path class="st0" d="M554.2,363.3l-19.7,0.1c-5.6,0-10.7,2-15.3,5.9c-4.6,3.9-7.4,8.2-8.2,12.8c-0.8,4.6,0.4,8.9,3.6,12.9
			c3.2,3.9,7.3,5.8,12.4,5.6l21,0.1l-5.1,28.7h-42c-13-0.1-23.3-4.7-30.8-13.9c-7.6-9.3-10.2-20.4-7.9-33.4
			c2.3-13.1,8.9-24.2,19.8-33.5c10.9-9.3,22.8-13.9,35.9-13.9h34.7L554.2,363.3z"/>
		<path class="st0" d="M692.8,334.7l-43.7,69.9l-4.4,24.7h-47l4.3-24.7l-19-70H622l8.7,41.3l23.2-41.3H692.8z"/>
		<path class="st0" d="M793.8,363.3l-19.7,0.1c-5.6,0-10.7,2-15.3,5.9c-4.6,3.9-7.4,8.2-8.2,12.8c-0.8,4.6,0.4,8.9,3.6,12.9
			c3.2,3.9,7.3,5.8,12.4,5.6l21,0.1l-5.1,28.7h-42c-13-0.1-23.3-4.7-30.8-13.9c-7.6-9.3-10.2-20.4-7.9-33.4
			c2.3-13.1,8.9-24.2,19.8-33.5c10.9-9.3,22.8-13.9,35.9-13.9h34.7L793.8,363.3z"/>
		<path class="st0" d="M895,429l-0.1,0.4h-80.1l16.7-94.7h40.5l-11.7,66.2h33.2L895,429z"/>
		<path class="st0" d="M1014.5,363.1L1014.5,363.1l-39.7,0.1l-0.7,3.9h39.7l-5.3,29.9h-39.7l-0.7,3.9h39.7l-5,28.5h-80.1l16.7-94.7
			h80.6L1014.5,363.1z"/>
		<path class="st0" d="M1109.3,334.7h40.4l-16.7,94.7h-40.4L1109.3,334.7z"/>
		<path class="st0" d="M1281.5,334.7l-16.7,94.7h-37l-14.6-33.5l-5.9,33.5h-36.9l16.6-94l-0.3-0.7h37.3l-0.1,0.7l14.6,33.5l6-34.2
			H1281.5z"/>
		<path class="st0" d="M1368.9,334.7c14,0,24.6,4.7,31.9,13.9c7,8.9,9.3,20.1,6.9,33.5c-2.4,13.3-8.6,24.5-18.9,33.5
			c-10.5,9.2-22.7,13.8-36.5,13.8h-51.4l16.7-94.7H1368.9z M1350.8,397.6c3.8,0,7.3-1.6,10.6-4.7c3.2-3.1,5.2-6.9,5.9-11.3
			c0.8-4.4,0.1-8.2-2-11.3c-2.1-3.1-5.1-4.7-8.9-4.7h-4.5l-5.7,32.1H1350.8z"/>
		<path class="st0" d="M1517.1,363.1L1517.1,363.1l-39.7,0.1l-0.7,3.9h39.7l-5.3,29.9h-39.7l-0.7,3.9h39.7l-5,28.5h-80.1l16.7-94.7
			h80.4L1517.1,363.1z"/>
		<path class="st0" d="M1602.9,360l17.1-25.3h43l-36.5,47.3l19.8,47.3h-43l-8.1-25.3l-17.1,25.3h-43l36.5-47.3l-19.8-47.3h43
			L1602.9,360z"/>
	</g>
	<g>
		<defs>
			<rect id="SVGID_1_" x="1539.1" y="-0.2" width="121.3" height="172.9"/>
		</defs>
		<clipPath id="SVGID_2_">
			<use xlink:href="#SVGID_1_"  style="overflow:visible;"/>
		</clipPath>
		<g class="st1">
			<g>
				<g>
					<g class="st2">
						<defs>
							<path id="SVGID_3_" class="st2" d="M1566.1,79.4c-3.1,2.9-7,9.5-7.3,17c-0.3,7.5,1.6,19.5,11.3,27.7
								c9.7,8.2,33.6,14.8,41.2,18.7c7.5,3.9,26.2,15.4,33.5,18.8c7.8,3.7,15.2,3.8,19.9-3.2c4.7-7,7.7-12.1,6.1-18.3
								s-14.6-13-24.1-17.7c-9.4-4.7-18.2-9.3-22.1-12.7c-3.9-3.4-15-15.4-18.8-18.6s-13.3-9.3-19.5-11.7
								C1580,77.2,1571.6,74.4,1566.1,79.4z"/>
						</defs>
						<clipPath id="SVGID_4_">
							<use xlink:href="#SVGID_3_"  style="overflow:visible;"/>
						</clipPath>
						<g id="紋路塑膠.psd_4_" class="st3">
							
								<image style="overflow:visible;" width="276" height="481" id="紋路塑膠_4_" xlink:href="65554C0C.jpg"  transform="matrix(0.1619 -0.2623 0.2623 0.1619 1527.6608 118.0525)">
							</image>
						</g>
					</g>
					<path class="st0" d="M1566.1,79.4c-3.1,2.9-7,9.5-7.3,17c-0.3,7.5,1.6,19.5,11.3,27.7c9.7,8.2,33.6,14.8,41.2,18.7
						c7.5,3.9,26.2,15.4,33.5,18.8c7.8,3.7,15.2,3.8,19.9-3.2c4.7-7,7.7-12.1,6.1-18.3s-14.6-13-24.1-17.7
						c-9.4-4.7-18.2-9.3-22.1-12.7c-3.9-3.4-15-15.4-18.8-18.6s-13.3-9.3-19.5-11.7C1580,77.2,1571.6,74.4,1566.1,79.4z"/>
					<path class="st4" d="M1566.1,79.4c-3.1,2.9-7,9.5-7.3,17c-0.3,7.5,1.6,19.5,11.3,27.7c9.7,8.2,33.6,14.8,41.2,18.7
						c7.5,3.9,26.2,15.4,33.5,18.8c7.8,3.7,15.2,3.8,19.9-3.2c4.7-7,7.7-12.1,6.1-18.3s-14.6-13-24.1-17.7
						c-9.4-4.7-18.2-9.3-22.1-12.7c-3.9-3.4-15-15.4-18.8-18.6s-13.3-9.3-19.5-11.7C1580,77.2,1571.6,74.4,1566.1,79.4z"/>
					<g class="st5">
						<path class="st6" d="M1620.5,105.7c-0.1,0-0.2,0-0.3-0.1C1620.3,105.7,1620.4,105.7,1620.5,105.7z"/>
						<path class="st6" d="M1620.6,105.8c1.7,0.6,4.4,2,5.2,2.7c0.8,0.8,2.1,2.1,3.7,4.8c1.6,2.6,4.7,8.8,6.5,12.3
							c1.8,3.4,3.4,4.4,4.4,4.9c1,0.5,2.7,0,3.3-0.8c0.7-0.8,0.8-2.3-0.5-4.7c-1.2-2.4-6.7-10.5-8.8-12.4c-2-1.8-5.6-4.1-8.2-5.9
							c-1.4-0.5-4.1-0.5-5.8-0.9C1620.6,105.7,1620.6,105.8,1620.6,105.8z"/>
						<path class="st6" d="M1614.3,99.8c-5.5-1.6-12.9-1.4-17.7-1.1c-4.8,0.2-10.8,1-11.9,1.3s-1.4,0.6-1.7,2.2
							c-0.3,1.7,0.4,5.9,0.6,8.2c0.2,2.3,1.8,10.1,4,16.2s4.6,8.4,6.4,10c1.8,1.6,7.3,5.1,10.4,7c-1.2-1.2-2.8-3.4-3.9-4.7
							c-1.2-1.2-3.3-3.9-4.8-8.3c-1.8-5.2-3.2-10.8-4.5-15.5c-1.3-4.7-1.8-8.6-1.5-9.2s1.6-0.6,4.4-0.8c2.8-0.2,9.7,0.1,13.1,0
							c3.2-0.1,10.7-0.1,13,0.4c0,0,0,0,0,0c0,0,0,0,0,0c0.1,0,0.2,0,0.3,0.1c1.7,0.4,4.3,0.4,5.8,0.9c-0.2-0.1-0.4-0.3-0.5-0.4
							C1623.1,104.4,1619.7,101.5,1614.3,99.8z"/>
						<path class="st6" d="M1604.5,143.7c3.2,1.9,6.6,2.8,9.5,3.2c2.9,0.4,8.8,0.8,11.8,1s5.6,0,5.9-2.2c0.5-2.7-1-3.2-2.9-3.6
							c-1.9-0.4-4.2-0.6-6.2-0.7s-10.8,0-14.4,0c-3.6,0-6.3-1.3-7.4-2c-0.1-0.1-0.3-0.3-0.5-0.5
							C1601.6,140.3,1603.2,142.5,1604.5,143.7C1604.4,143.7,1604.5,143.7,1604.5,143.7z"/>
						<path class="st7" d="M1620.6,105.8c1.7,0.6,4.4,2,5.2,2.7c0.8,0.8,2.1,2.1,3.7,4.8c1.6,2.6,4.7,8.8,6.5,12.3
							c1.8,3.4,3.4,4.4,4.4,4.9c1,0.5,2.7,0,3.3-0.8c0.7-0.8,0.8-2.3-0.5-4.7c-1.2-2.4-6.7-10.5-8.8-12.4c-2-1.8-5.6-4.1-8.2-5.9
							c-1.4-0.5-4.1-0.5-5.8-0.9C1620.6,105.7,1620.6,105.8,1620.6,105.8z"/>
						<path class="st7" d="M1604.5,143.7c3.2,1.9,6.6,2.8,9.5,3.2c2.9,0.4,8.8,0.8,11.8,1s5.6,0,5.9-2.2c0.5-2.7-1-3.2-2.9-3.6
							c-1.9-0.4-4.2-0.6-6.2-0.7s-10.8,0-14.4,0c-3.6,0-6.3-1.3-7.4-2c-0.1-0.1-0.3-0.3-0.5-0.5
							C1601.6,140.3,1603.2,142.5,1604.5,143.7C1604.4,143.7,1604.5,143.7,1604.5,143.7z"/>
					</g>
					<path class="st7" d="M1578.2,94.5c0.5-0.9,1.3-0.9,1.7-0.7c0.5,0.2,1.6,1.5,2.2,2.3s1.2,1.3,1.2,1.3s-0.1,1.4-0.8,2
						s-1.5,0.1-2.1-0.4c-0.6-0.5-1.5-1.6-2-2.3S1577.7,95.3,1578.2,94.5z"/>
					<path class="st8" d="M1577.9,94.2c0.7-0.8,1.4-0.6,1.8-0.3c0.4,0.3,1.2,1.8,1.7,2.8c0.5,1,0.9,1.6,0.9,1.6s-0.4,1.3-1.3,1.8
						c-0.8,0.5-1.5-0.2-1.9-0.8c-0.4-0.6-1.1-1.9-1.4-2.7C1577.4,95.7,1577.3,94.9,1577.9,94.2z"/>
					<g class="st2">
						
							<linearGradient id="SVGID_5_" gradientUnits="userSpaceOnUse" x1="258.7523" y1="4223.5005" x2="263.8448" y2="4223.5005" gradientTransform="matrix(0.5252 -0.851 0.851 0.5252 -2151.6692 -1898.9507)">
							<stop  offset="0" style="stop-color:#FFFFFF;stop-opacity:0"/>
							<stop  offset="0.5318" style="stop-color:#FFFFFF"/>
							<stop  offset="1" style="stop-color:#FFFFFF;stop-opacity:0"/>
						</linearGradient>
						<path class="st9" d="M1581.5,99.2c-0.7,0.4-1.1-0.4-1.4-0.9c-0.4-0.5-0.9-1.6-1.1-2.2c-0.3-0.6-0.3-1.1,0-1.5
							c0.5-0.5,0.9-0.4,1.2-0.3c-0.2-0.2-0.3-0.4-0.4-0.5c-0.4-0.3-1.1-0.4-1.8,0.3c-0.6,0.7-0.5,1.5-0.2,2.3c0.3,0.8,1,2.1,1.4,2.7
							c0.4,0.6,1.1,1.3,1.9,0.8C1581.5,99.7,1581.8,99,1581.5,99.2z"/>
					</g>
					<path class="st4" d="M1577.9,94.2c0.7-0.8,1.4-0.6,1.8-0.3c0.4,0.3,1.2,1.8,1.7,2.8c0.5,1,0.9,1.6,0.9,1.6s-0.4,1.3-1.3,1.8
						c-0.8,0.5-1.5-0.2-1.9-0.8c-0.4-0.6-1.1-1.9-1.4-2.7C1577.4,95.7,1577.3,94.9,1577.9,94.2z"/>
					<g>
						<path class="st8" d="M1618.9,103.8c-0.1,0-0.2,0-0.3-0.1C1618.7,103.8,1618.8,103.8,1618.9,103.8z"/>
						<path class="st8" d="M1619.1,103.8c1.7,0.6,4.5,2,5.4,2.8s2.2,2.2,3.9,5c1.6,2.7,4.9,9.2,6.8,12.8c1.9,3.6,3.6,4.6,4.6,5.1
							c1,0.5,2.8,0,3.5-0.8c0.7-0.8,0.8-2.4-0.5-4.9c-1.3-2.5-7-10.9-9.2-12.9c-2-1.9-5.8-4.3-8.5-6.2c-1.5-0.5-4.2-0.6-6-0.9
							C1619,103.8,1619,103.8,1619.1,103.8z"/>
						<path class="st8" d="M1612.4,97.6c-5.7-1.7-13.5-1.4-18.5-1.2s-11.2,1.1-12.4,1.4c-1.1,0.3-1.5,0.6-1.8,2.3
							c-0.3,1.7,0.4,6.2,0.6,8.6c0.2,2.4,1.9,10.5,4.2,16.9c2.3,6.4,4.8,8.7,6.7,10.4c1.9,1.7,7.6,5.3,10.9,7.3
							c-1.2-1.3-2.9-3.6-4.1-4.9c-1.3-1.2-3.4-4-5-8.7c-1.9-5.5-3.3-11.3-4.7-16.2s-1.9-8.9-1.5-9.5s1.7-0.6,4.6-0.8
							c2.9-0.2,10.1,0.1,13.7,0c3.3-0.1,11.1-0.1,13.5,0.4c0,0,0,0,0,0c0,0,0,0,0,0c0.1,0,0.2,0,0.3,0.1c1.8,0.4,4.5,0.4,6,0.9
							c-0.2-0.1-0.4-0.3-0.5-0.4C1621.7,102.4,1618.1,99.4,1612.4,97.6z"/>
						<path class="st8" d="M1602.3,143.4c3.3,1.9,6.9,2.9,9.9,3.4c3.1,0.5,9.2,0.9,12.3,1s5.8,0,6.2-2.3c0.5-2.8-1.1-3.4-3-3.7
							c-2-0.4-4.3-0.7-6.4-0.7s-11.3,0-15,0c-3.7,0-6.6-1.3-7.7-2.1c-0.2-0.1-0.3-0.3-0.6-0.5
							C1599.2,139.8,1600.9,142.1,1602.3,143.4C1602.2,143.4,1602.2,143.4,1602.3,143.4z"/>
						<path class="st7" d="M1619.1,103.8c1.7,0.6,4.5,2,5.4,2.8s2.2,2.2,3.9,5c1.6,2.7,4.9,9.2,6.8,12.8c1.9,3.6,3.6,4.6,4.6,5.1
							c1,0.5,2.8,0,3.5-0.8c0.7-0.8,0.8-2.4-0.5-4.9c-1.3-2.5-7-10.9-9.2-12.9c-2-1.9-5.8-4.3-8.5-6.2c-1.5-0.5-4.2-0.6-6-0.9
							C1619,103.8,1619,103.8,1619.1,103.8z"/>
						<path class="st7" d="M1602.3,143.4c3.3,1.9,6.9,2.9,9.9,3.4c3.1,0.5,9.2,0.9,12.3,1s5.8,0,6.2-2.3c0.5-2.8-1.1-3.4-3-3.7
							c-2-0.4-4.3-0.7-6.4-0.7s-11.3,0-15,0c-3.7,0-6.6-1.3-7.7-2.1c-0.2-0.1-0.3-0.3-0.6-0.5
							C1599.2,139.8,1600.9,142.1,1602.3,143.4C1602.2,143.4,1602.2,143.4,1602.3,143.4z"/>
					</g>
					
						<ellipse transform="matrix(0.6441 -0.765 0.765 0.6441 486.2704 1247.4445)" class="st7" cx="1583.6" cy="101.2" rx="1" ry="4.3"/>
					
						<linearGradient id="SVGID_6_" gradientUnits="userSpaceOnUse" x1="260.6781" y1="4239.7969" x2="278.4329" y2="4239.7969" gradientTransform="matrix(0.5252 -0.851 0.851 0.5252 -2151.6692 -1898.9507)">
						<stop  offset="0" style="stop-color:#FFFFFF;stop-opacity:0"/>
						<stop  offset="0.5318" style="stop-color:#FFFFFF"/>
						<stop  offset="1" style="stop-color:#FFFFFF;stop-opacity:0"/>
					</linearGradient>
					<path class="st10" d="M1593.9,96.5c-5,0.3-11.2,1.1-12.4,1.4c-0.4,0.1-0.7,0.2-1,0.4c0.8-0.2,1.9,0,3.8-0.1
						c3-0.2,10.6,0.1,14.4,0c3.5-0.1,11.8-0.3,14.4,0.2c0,0,0,0,0,0c0,0,0,0,0,0c0.1,0,0.2,0,0.3,0.1c0.5,0.1,1.1,0.2,1.7,0.3
						c-0.9-0.4-1.8-0.7-2.7-1C1606.7,95.9,1598.9,96.2,1593.9,96.5z"/>
					
						<linearGradient id="SVGID_7_" gradientUnits="userSpaceOnUse" x1="233.6357" y1="4241.9312" x2="257.754" y2="4241.9312" gradientTransform="matrix(0.5252 -0.851 0.851 0.5252 -2151.6692 -1898.9507)">
						<stop  offset="0" style="stop-color:#FFFFFF;stop-opacity:0"/>
						<stop  offset="0.5318" style="stop-color:#FFFFFF"/>
						<stop  offset="1" style="stop-color:#FFFFFF;stop-opacity:0"/>
					</linearGradient>
					<path class="st11" d="M1586.9,126.1c-2-5.7-3.9-12.2-5.4-17.3c-0.9-3.1-1.6-5.9-1.9-7.8c0,2.1,0.5,5.6,0.7,7.7
						c0.2,2.4,1.9,10.5,4.2,16.9c2.3,6.4,4.8,8.7,6.7,10.4c0.7,0.6,1.9,1.6,3.4,2.5c-1.4-1.3-2.4-2.7-3.1-3.8
						C1590.4,133.2,1588.6,131,1586.9,126.1z"/>
					<g>
						<path class="st12" d="M1618.9,103.8c-0.1,0-0.2,0-0.3-0.1C1618.7,103.8,1618.8,103.8,1618.9,103.8z"/>
						<path class="st13" d="M1619.1,103.8c1.7,0.6,4.5,2,5.4,2.8s2.2,2.2,3.9,5c1.6,2.7,4.9,9.2,6.8,12.8c1.9,3.6,3.6,4.6,4.6,5.1
							c1,0.5,2.8,0,3.5-0.8c0.7-0.8,0.8-2.4-0.5-4.9c-1.3-2.5-7-10.9-9.2-12.9c-2-1.9-5.8-4.3-8.5-6.2c-1.5-0.5-4.2-0.6-6-0.9
							C1619,103.8,1619,103.8,1619.1,103.8z"/>
						<path class="st13" d="M1612.4,97.6c-5.7-1.7-13.5-1.4-18.5-1.2s-11.2,1.1-12.4,1.4c-1.1,0.3-1.5,0.6-1.8,2.3
							c-0.3,1.7,0.4,6.2,0.6,8.6c0.2,2.4,1.9,10.5,4.2,16.9c2.3,6.4,4.8,8.7,6.7,10.4c1.9,1.7,7.6,5.3,10.9,7.3
							c-1.2-1.3-2.9-3.6-4.1-4.9c-1.3-1.2-3.4-4-5-8.7c-1.9-5.5-3.3-11.3-4.7-16.2s-1.9-8.9-1.5-9.5s1.7-0.6,4.6-0.8
							c2.9-0.2,10.1,0.1,13.7,0c3.3-0.1,11.1-0.1,13.5,0.4c0,0,0,0,0,0c0,0,0,0,0,0c0.1,0,0.2,0,0.3,0.1c1.8,0.4,4.5,0.4,6,0.9
							c-0.2-0.1-0.4-0.3-0.5-0.4C1621.7,102.4,1618.1,99.4,1612.4,97.6z"/>
						<path class="st13" d="M1602.3,143.4c3.3,1.9,6.9,2.9,9.9,3.4c3.1,0.5,9.2,0.9,12.3,1s5.8,0,6.2-2.3c0.5-2.8-1.1-3.4-3-3.7
							c-2-0.4-4.3-0.7-6.4-0.7s-11.3,0-15,0c-3.7,0-6.6-1.3-7.7-2.1c-0.2-0.1-0.3-0.3-0.6-0.5
							C1599.2,139.8,1600.9,142.1,1602.3,143.4C1602.2,143.4,1602.2,143.4,1602.3,143.4z"/>
						<path class="st14" d="M1619.1,103.8c1.7,0.6,4.5,2,5.4,2.8s2.2,2.2,3.9,5c1.6,2.7,4.9,9.2,6.8,12.8c1.9,3.6,3.6,4.6,4.6,5.1
							c1,0.5,2.8,0,3.5-0.8c0.7-0.8,0.8-2.4-0.5-4.9c-1.3-2.5-7-10.9-9.2-12.9c-2-1.9-5.8-4.3-8.5-6.2c-1.5-0.5-4.2-0.6-6-0.9
							C1619,103.8,1619,103.8,1619.1,103.8z"/>
						<path class="st14" d="M1602.3,143.4c3.3,1.9,6.9,2.9,9.9,3.4c3.1,0.5,9.2,0.9,12.3,1s5.8,0,6.2-2.3c0.5-2.8-1.1-3.4-3-3.7
							c-2-0.4-4.3-0.7-6.4-0.7s-11.3,0-15,0c-3.7,0-6.6-1.3-7.7-2.1c-0.2-0.1-0.3-0.3-0.6-0.5
							C1599.2,139.8,1600.9,142.1,1602.3,143.4C1602.2,143.4,1602.2,143.4,1602.3,143.4z"/>
					</g>
				</g>
			</g>
			<g>
				<g class="st2">
					<defs>
						<path id="SVGID_8_" class="st2" d="M1587.6,39.8c2.5-3.3,8.7-7.6,15.9-8.6c7.3-1,19.2-0.1,28,8.6s17.4,31.5,21.8,38.5
							c4.4,7,17.2,24.3,21.2,31.1c4.3,7.3,5,14.5-1.4,19.7c-6.4,5.2-11.1,8.5-17.3,7.5c-6.2-1-13.9-13.1-19.3-21.9
							c-5.4-8.8-10.7-16.9-14.3-20.4c-3.6-3.5-16.3-13.3-19.7-16.8c-3.4-3.5-10.3-12.2-13.1-18S1583.2,45.6,1587.6,39.8z"/>
					</defs>
					<clipPath id="SVGID_9_">
						<use xlink:href="#SVGID_8_"  style="overflow:visible;"/>
					</clipPath>
					<g id="紋路塑膠.psd_3_" class="st15">
						
							<image style="overflow:visible;" width="276" height="481" id="紋路塑膠_3_" xlink:href="65554C0D.jpg"  transform="matrix(-0.2418 0.1806 0.1806 0.2418 1621.9142 -1.0011)">
						</image>
					</g>
				</g>
				<path class="st0" d="M1587.6,39.8c2.5-3.3,8.7-7.6,15.9-8.6c7.3-1,19.2-0.1,28,8.6s17.4,31.5,21.8,38.5
					c4.4,7,17.2,24.3,21.2,31.1c4.3,7.3,5,14.5-1.4,19.7c-6.4,5.2-11.1,8.5-17.3,7.5c-6.2-1-13.9-13.1-19.3-21.9
					c-5.4-8.8-10.7-16.9-14.3-20.4c-3.6-3.5-16.3-13.3-19.7-16.8c-3.4-3.5-10.3-12.2-13.1-18S1583.2,45.6,1587.6,39.8z"/>
				<path class="st4" d="M1587.6,39.8c2.5-3.3,8.7-7.6,15.9-8.6c7.3-1,19.2-0.1,28,8.6s17.4,31.5,21.8,38.5
					c4.4,7,17.2,24.3,21.2,31.1c4.3,7.3,5,14.5-1.4,19.7c-6.4,5.2-11.1,8.5-17.3,7.5c-6.2-1-13.9-13.1-19.3-21.9
					c-5.4-8.8-10.7-16.9-14.3-20.4c-3.6-3.5-16.3-13.3-19.7-16.8c-3.4-3.5-10.3-12.2-13.1-18S1583.2,45.6,1587.6,39.8z"/>
				<g class="st5">
					<path class="st6" d="M1617.9,90.6c0-0.1-0.1-0.2-0.1-0.3C1617.9,90.4,1617.9,90.5,1617.9,90.6z"/>
					<path class="st6" d="M1618,90.7c0.7,1.6,2.3,4.1,3.1,4.8c0.8,0.7,2.3,1.9,5,3.2c2.7,1.3,9,3.8,12.5,5.3
						c3.5,1.5,4.6,2.9,5.2,3.8c0.6,0.9,0.2,2.6-0.5,3.3c-0.7,0.7-2.2,0.9-4.6-0.1c-2.5-1-10.8-5.6-12.8-7.5
						c-1.9-1.8-4.5-5.1-6.5-7.5c-0.6-1.4-0.9-3.9-1.4-5.5C1617.9,90.6,1618,90.7,1618,90.7z"/>
					<path class="st6" d="M1611.6,85c-2.1-5.2-2.5-12.5-2.7-17.2s0.1-10.6,0.2-11.7c0.2-1.1,0.4-1.5,2-1.9c1.6-0.4,5.8-0.1,8.1-0.1
						c2.3,0,10,0.9,16.2,2.5c6.2,1.6,8.5,3.8,10.3,5.4c1.8,1.6,5.6,6.7,7.7,9.6c-1.3-1-3.6-2.4-4.9-3.4c-1.2-1.1-4.1-2.9-8.6-4
						c-5.3-1.3-10.9-2.2-15.5-3c-4.7-0.9-8.5-1.1-9.1-0.6s-0.4,1.6-0.4,4.4c0,2.7,1,9.4,1.2,12.8c0.2,3.1,0.8,10.4,1.5,12.6
						c0,0,0,0,0,0c0,0,0,0,0,0c0,0.1,0.1,0.2,0.1,0.3c0.5,1.6,0.8,4.2,1.4,5.5c-0.1-0.2-0.3-0.3-0.4-0.5
						C1616.8,93.3,1613.7,90.2,1611.6,85z"/>
					<path class="st6" d="M1653.6,71.7c2.1,2.9,3.3,6.2,4,9c0.7,2.8,1.6,8.5,2,11.4c0.4,2.9,0.4,5.4-1.7,6c-2.6,0.7-3.2-0.7-3.8-2.5
						c-0.5-1.9-1-4-1.2-5.9c-0.2-1.9-0.9-10.5-1.2-14c-0.3-3.5-1.8-6.1-2.6-7c-0.1-0.1-0.3-0.3-0.5-0.5
						C1650,69.2,1652.3,70.6,1653.6,71.7C1653.6,71.7,1653.6,71.7,1653.6,71.7z"/>
					<path class="st7" d="M1618,90.7c0.7,1.6,2.3,4.1,3.1,4.8c0.8,0.7,2.3,1.9,5,3.2c2.7,1.3,9,3.8,12.5,5.3
						c3.5,1.5,4.6,2.9,5.2,3.8c0.6,0.9,0.2,2.6-0.5,3.3c-0.7,0.7-2.2,0.9-4.6-0.1c-2.5-1-10.8-5.6-12.8-7.5
						c-1.9-1.8-4.5-5.1-6.5-7.5c-0.6-1.4-0.9-3.9-1.4-5.5C1617.9,90.6,1618,90.7,1618,90.7z"/>
					<path class="st7" d="M1653.6,71.7c2.1,2.9,3.3,6.2,4,9c0.7,2.8,1.6,8.5,2,11.4c0.4,2.9,0.4,5.4-1.7,6c-2.6,0.7-3.2-0.7-3.8-2.5
						c-0.5-1.9-1-4-1.2-5.9c-0.2-1.9-0.9-10.5-1.2-14c-0.3-3.5-1.8-6.1-2.6-7c-0.1-0.1-0.3-0.3-0.5-0.5
						C1650,69.2,1652.3,70.6,1653.6,71.7C1653.6,71.7,1653.6,71.7,1653.6,71.7z"/>
				</g>
				<path class="st7" d="M1603.3,50.3c-0.8,0.6-0.7,1.3-0.5,1.7c0.2,0.4,1.6,1.4,2.4,2c0.9,0.6,1.4,1.1,1.4,1.1s1.3-0.3,1.9-1
					c0.6-0.7,0-1.5-0.5-2s-1.7-1.3-2.4-1.7S1604.1,49.8,1603.3,50.3z"/>
				<path class="st8" d="M1603,50c-0.7,0.7-0.4,1.4-0.1,1.8s1.9,1,2.8,1.4s1.6,0.7,1.6,0.7s1.2-0.6,1.6-1.4c0.4-0.8-0.3-1.4-1-1.8
					s-2-0.9-2.7-1.1C1604.4,49.4,1603.6,49.4,1603,50z"/>
				<g class="st2">
					
						<linearGradient id="SVGID_10_" gradientUnits="userSpaceOnUse" x1="4312.0884" y1="6299.2266" x2="4317.0742" y2="6299.2266" gradientTransform="matrix(-0.8012 0.5984 0.5984 0.8012 1293.5922 -7577.2329)">
						<stop  offset="0" style="stop-color:#FFFFFF;stop-opacity:0"/>
						<stop  offset="0.5318" style="stop-color:#FFFFFF"/>
						<stop  offset="1" style="stop-color:#FFFFFF;stop-opacity:0"/>
					</linearGradient>
					<path class="st16" d="M1608.2,53.1c0.3-0.7-0.5-1-1-1.3c-0.5-0.3-1.6-0.7-2.2-0.9c-0.6-0.2-1.1-0.2-1.4,0.1
						c-0.5,0.5-0.3,0.9-0.2,1.2c-0.2-0.1-0.4-0.3-0.5-0.4c-0.3-0.4-0.5-1.1,0.1-1.8c0.6-0.7,1.4-0.6,2.2-0.4
						c0.8,0.3,2.1,0.8,2.7,1.1c0.6,0.4,1.4,1,1,1.8C1608.7,53.1,1608.1,53.5,1608.2,53.1z"/>
				</g>
				<path class="st4" d="M1603,50c-0.7,0.7-0.4,1.4-0.1,1.8s1.9,1,2.8,1.4s1.6,0.7,1.6,0.7s1.2-0.6,1.6-1.4c0.4-0.8-0.3-1.4-1-1.8
					s-2-0.9-2.7-1.1C1604.4,49.4,1603.6,49.4,1603,50z"/>
				<g>
					<path class="st8" d="M1615.9,89.2c0-0.1-0.1-0.2-0.1-0.3C1615.9,89,1615.9,89.1,1615.9,89.2z"/>
					<path class="st8" d="M1616,89.4c0.7,1.6,2.4,4.3,3.2,5c0.9,0.7,2.4,2,5.2,3.4c2.8,1.4,9.4,4,13,5.5c3.6,1.5,4.8,3.1,5.4,4
						s0.2,2.7-0.5,3.4c-0.7,0.7-2.2,1-4.8-0.1c-2.6-1-11.2-5.9-13.4-7.8c-2-1.8-4.7-5.3-6.8-7.8c-0.7-1.4-0.9-4.1-1.4-5.8
						C1615.9,89.3,1616,89.3,1616,89.4z"/>
					<path class="st8" d="M1609.3,83.4c-2.2-5.4-2.6-13-2.8-17.9c-0.2-4.9,0.1-11.1,0.3-12.2c0.2-1.1,0.5-1.5,2.1-2s6-0.2,8.4-0.2
						c2.4,0,10.4,0.9,16.9,2.6s8.9,3.9,10.8,5.6c1.8,1.7,5.9,6.9,8.1,10c-1.3-1.1-3.7-2.5-5.1-3.6c-1.3-1.1-4.2-3-8.9-4.1
						c-5.5-1.4-11.3-2.2-16.2-3.2c-4.9-0.9-8.9-1.1-9.4-0.7s-0.4,1.7-0.4,4.5s1,9.8,1.2,13.3c0.2,3.3,0.9,10.9,1.6,13.2c0,0,0,0,0,0
						c0,0,0,0,0,0c0,0.1,0.1,0.2,0.1,0.3c0.5,1.7,0.8,4.4,1.4,5.8c-0.1-0.2-0.3-0.3-0.4-0.5C1614.8,92,1611.5,88.8,1609.3,83.4z"/>
					<path class="st8" d="M1653.1,69.5c2.2,3,3.4,6.5,4.1,9.4s1.7,8.9,2.1,11.9c0.4,3.1,0.5,5.7-1.7,6.2c-2.7,0.7-3.4-0.8-3.9-2.6
						c-0.6-1.9-1-4.2-1.2-6.2c-0.2-2-0.9-11-1.3-14.6c-0.3-3.6-1.9-6.3-2.7-7.3c-0.1-0.1-0.3-0.3-0.5-0.5
						C1649.3,66.9,1651.7,68.4,1653.1,69.5C1653.1,69.5,1653.1,69.5,1653.1,69.5z"/>
					<path class="st7" d="M1616,89.4c0.7,1.6,2.4,4.3,3.2,5c0.9,0.7,2.4,2,5.2,3.4c2.8,1.4,9.4,4,13,5.5c3.6,1.5,4.8,3.1,5.4,4
						s0.2,2.7-0.5,3.4c-0.7,0.7-2.2,1-4.8-0.1c-2.6-1-11.2-5.9-13.4-7.8c-2-1.8-4.7-5.3-6.8-7.8c-0.7-1.4-0.9-4.1-1.4-5.8
						C1615.9,89.3,1616,89.3,1616,89.4z"/>
					<path class="st7" d="M1653.1,69.5c2.2,3,3.4,6.5,4.1,9.4s1.7,8.9,2.1,11.9c0.4,3.1,0.5,5.7-1.7,6.2c-2.7,0.7-3.4-0.8-3.9-2.6
						c-0.6-1.9-1-4.2-1.2-6.2c-0.2-2-0.9-11-1.3-14.6c-0.3-3.6-1.9-6.3-2.7-7.3c-0.1-0.1-0.3-0.3-0.5-0.5
						C1649.3,66.9,1651.7,68.4,1653.1,69.5C1653.1,69.5,1653.1,69.5,1653.1,69.5z"/>
				</g>
				
					<ellipse transform="matrix(0.7051 -0.7092 0.7092 0.7051 435.9144 1158.1892)" class="st7" cx="1610.3" cy="55.1" rx="1" ry="4.2"/>
				
					<linearGradient id="SVGID_11_" gradientUnits="userSpaceOnUse" x1="4313.9736" y1="6315.1812" x2="4331.356" y2="6315.1812" gradientTransform="matrix(-0.8012 0.5984 0.5984 0.8012 1293.5922 -7577.2329)">
					<stop  offset="0" style="stop-color:#FFFFFF;stop-opacity:0"/>
					<stop  offset="0.5318" style="stop-color:#FFFFFF"/>
					<stop  offset="1" style="stop-color:#FFFFFF;stop-opacity:0"/>
				</linearGradient>
				<path class="st17" d="M1606.6,65.5c-0.2-4.9,0.1-11.1,0.3-12.2c0.1-0.4,0.1-0.7,0.3-1c-0.1,0.8,0.2,1.8,0.2,3.7
					c0,3,1,10.3,1.3,14c0.2,3.4,0.7,11.6,1.4,14c0,0,0,0,0,0c0,0,0,0,0,0c0,0.1,0.1,0.2,0.1,0.3c0.2,0.5,0.3,1.1,0.4,1.7
					c-0.4-0.8-0.8-1.7-1.2-2.6C1607.2,78,1606.8,70.4,1606.6,65.5z"/>
				
					<linearGradient id="SVGID_12_" gradientUnits="userSpaceOnUse" x1="4287.4985" y1="6317.2705" x2="4311.1108" y2="6317.2705" gradientTransform="matrix(-0.8012 0.5984 0.5984 0.8012 1293.5922 -7577.2329)">
					<stop  offset="0" style="stop-color:#FFFFFF;stop-opacity:0"/>
					<stop  offset="0.5318" style="stop-color:#FFFFFF"/>
					<stop  offset="1" style="stop-color:#FFFFFF;stop-opacity:0"/>
				</linearGradient>
				<path class="st18" d="M1634.9,56.1c-5.8-1.4-12.2-2.8-17.3-3.8c-3.1-0.6-5.9-1.1-7.8-1.1c2-0.2,5.5,0,7.5,0
					c2.4,0,10.4,0.9,16.9,2.6c6.4,1.7,8.9,3.9,10.8,5.6c0.7,0.6,1.7,1.7,2.8,3.1c-1.4-1.2-2.8-2.1-4-2.7
					C1642.1,58.9,1639.8,57.3,1634.9,56.1z"/>
				<g>
					<path class="st12" d="M1615.9,89.2c0-0.1-0.1-0.2-0.1-0.3C1615.9,89,1615.9,89.1,1615.9,89.2z"/>
					<path class="st13" d="M1616,89.4c0.7,1.6,2.4,4.3,3.2,5c0.9,0.7,2.4,2,5.2,3.4c2.8,1.4,9.4,4,13,5.5c3.6,1.5,4.8,3.1,5.4,4
						s0.2,2.7-0.5,3.4c-0.7,0.7-2.2,1-4.8-0.1c-2.6-1-11.2-5.9-13.4-7.8c-2-1.8-4.7-5.3-6.8-7.8c-0.7-1.4-0.9-4.1-1.4-5.8
						C1615.9,89.3,1616,89.3,1616,89.4z"/>
					<path class="st13" d="M1609.3,83.4c-2.2-5.4-2.6-13-2.8-17.9c-0.2-4.9,0.1-11.1,0.3-12.2c0.2-1.1,0.5-1.5,2.1-2s6-0.2,8.4-0.2
						c2.4,0,10.4,0.9,16.9,2.6s8.9,3.9,10.8,5.6c1.8,1.7,5.9,6.9,8.1,10c-1.3-1.1-3.7-2.5-5.1-3.6c-1.3-1.1-4.2-3-8.9-4.1
						c-5.5-1.4-11.3-2.2-16.2-3.2c-4.9-0.9-8.9-1.1-9.4-0.7s-0.4,1.7-0.4,4.5s1,9.8,1.2,13.3c0.2,3.3,0.9,10.9,1.6,13.2c0,0,0,0,0,0
						c0,0,0,0,0,0c0,0.1,0.1,0.2,0.1,0.3c0.5,1.7,0.8,4.4,1.4,5.8c-0.1-0.2-0.3-0.3-0.4-0.5C1614.8,92,1611.5,88.8,1609.3,83.4z"/>
					<path class="st13" d="M1653.1,69.5c2.2,3,3.4,6.5,4.1,9.4s1.7,8.9,2.1,11.9c0.4,3.1,0.5,5.7-1.7,6.2c-2.7,0.7-3.4-0.8-3.9-2.6
						c-0.6-1.9-1-4.2-1.2-6.2c-0.2-2-0.9-11-1.3-14.6c-0.3-3.6-1.9-6.3-2.7-7.3c-0.1-0.1-0.3-0.3-0.5-0.5
						C1649.3,66.9,1651.7,68.4,1653.1,69.5C1653.1,69.5,1653.1,69.5,1653.1,69.5z"/>
					<path class="st14" d="M1616,89.4c0.7,1.6,2.4,4.3,3.2,5c0.9,0.7,2.4,2,5.2,3.4c2.8,1.4,9.4,4,13,5.5c3.6,1.5,4.8,3.1,5.4,4
						s0.2,2.7-0.5,3.4c-0.7,0.7-2.2,1-4.8-0.1c-2.6-1-11.2-5.9-13.4-7.8c-2-1.8-4.7-5.3-6.8-7.8c-0.7-1.4-0.9-4.1-1.4-5.8
						C1615.9,89.3,1616,89.3,1616,89.4z"/>
					<path class="st14" d="M1653.1,69.5c2.2,3,3.4,6.5,4.1,9.4s1.7,8.9,2.1,11.9c0.4,3.1,0.5,5.7-1.7,6.2c-2.7,0.7-3.4-0.8-3.9-2.6
						c-0.6-1.9-1-4.2-1.2-6.2c-0.2-2-0.9-11-1.3-14.6c-0.3-3.6-1.9-6.3-2.7-7.3c-0.1-0.1-0.3-0.3-0.5-0.5
						C1649.3,66.9,1651.7,68.4,1653.1,69.5C1653.1,69.5,1653.1,69.5,1653.1,69.5z"/>
				</g>
			</g>
		</g>
	</g>
	<polygon class="st0" points="1672.7,147.9 1692.4,35.6 1648.3,35.6 1629.6,147 1557.2,147 1543.1,228.4 1614.3,228.4 1607.4,267.7 
		1651.5,267.7 1658.4,228.4 1680.2,228.4 1692.9,147.9 	"/>
</g>
</svg>
