<svg xmlns="http://www.w3.org/2000/svg" xmlns:xlink="http://www.w3.org/1999/xlink" viewBox="0 0 1920 430">
  <defs>
    <clipPath id="a">
      <rect x="1539.07" y="0.21" width="121.35" height="172.85" fill="none"/>
    </clipPath>
    <linearGradient id="b" data-name="未命名漸層 42" x1="3297.88" y1="770.18" x2="3297.88" y2="704.32" gradientTransform="translate(-909.78 2313.09) rotate(-53.32)" gradientUnits="userSpaceOnUse">
      <stop offset="0" stop-color="#fff" stop-opacity="0"/>
      <stop offset="0.53" stop-color="#fff"/>
      <stop offset="1" stop-color="#fff" stop-opacity="0"/>
    </linearGradient>
    <linearGradient id="c" data-name="未命名漸層 9" x1="3297.72" y1="703.62" x2="3297.72" y2="676.89" gradientTransform="translate(-909.78 2313.09) rotate(-53.32)" gradientUnits="userSpaceOnUse">
      <stop offset="0" stop-color="#fff" stop-opacity="0"/>
      <stop offset="0.02" stop-color="#fff" stop-opacity="0.07"/>
      <stop offset="0.1" stop-color="#fff" stop-opacity="0.31"/>
      <stop offset="0.19" stop-color="#fff" stop-opacity="0.52"/>
      <stop offset="0.26" stop-color="#fff" stop-opacity="0.69"/>
      <stop offset="0.34" stop-color="#fff" stop-opacity="0.83"/>
      <stop offset="0.41" stop-color="#fff" stop-opacity="0.92"/>
      <stop offset="0.48" stop-color="#fff" stop-opacity="0.98"/>
      <stop offset="0.53" stop-color="#fff"/>
      <stop offset="0.58" stop-color="#fff" stop-opacity="0.98"/>
      <stop offset="0.64" stop-color="#fff" stop-opacity="0.92"/>
      <stop offset="0.7" stop-color="#fff" stop-opacity="0.81"/>
      <stop offset="0.77" stop-color="#fff" stop-opacity="0.67"/>
      <stop offset="0.84" stop-color="#fff" stop-opacity="0.48"/>
      <stop offset="0.92" stop-color="#fff" stop-opacity="0.26"/>
      <stop offset="1" stop-color="#fff" stop-opacity="0"/>
    </linearGradient>
    <linearGradient id="d" x1="3298.96" y1="676.72" x2="3298.96" y2="652.51" xlink:href="#b"/>
    <linearGradient id="f" x1="3571.89" y1="1316.92" x2="3571.89" y2="1251.07" gradientTransform="translate(-865.63 2975.06) rotate(-68)" xlink:href="#b"/>
    <linearGradient id="g" x1="3571.74" y1="1250.36" x2="3571.74" y2="1223.63" gradientTransform="translate(-865.63 2975.06) rotate(-68)" xlink:href="#c"/>
    <linearGradient id="h" x1="3572.97" y1="1223.47" x2="3572.97" y2="1199.25" gradientTransform="translate(-865.63 2975.06) rotate(-68)" xlink:href="#b"/>
  </defs>
  <g style="isolation: isolate">
    <g>
      <g clip-path="url(#a)">
        <g>
          <path d="M1617.72,45.82c-2.5-1.39-9.67,4.43-16.25,13.26s-10.1,17.36-8,19.36l.13.12h0l19.94,14.86c-1.41-2.52,2.12-10.69,8.41-19.12s13.1-14.17,15.91-13.53l-19.95-14.87Z" fill="#d0953e"/>
          <path d="M1617.72,45.82c-2.5-1.39-9.67,4.43-16.25,13.26s-10.1,17.36-8,19.36l.13.12h0l19.94,14.86c-1.41-2.52,2.12-10.69,8.41-19.12s13.1-14.17,15.91-13.53l-19.95-14.87Z" fill="none" stroke="#231815" stroke-linecap="round" stroke-linejoin="round" stroke-width="1.14"/>
          <g>
            <ellipse cx="1679.73" cy="117.33" rx="18.34" ry="5.41" transform="translate(582.21 1394.32) rotate(-53.32)" fill="#f0f0f0"/>
            <path d="M1575,39.33c2.59-3.47,3.93-6.85,3-7.61l-.07,0c-1-.63-3.84,1.63-6.42,5.1s-4,6.91-3,7.63l0,0C1569.48,45.1,1572.36,42.83,1575,39.33Z" fill="#f0f0f0"/>
            <polygon points="1576.46 50.33 1576.46 50.33 1576.46 50.33 1576.46 50.33" fill="#f0f0f0"/>
            <path d="M1615.51,44c-.92-.69-9-7.18-17.83-5.89s-9.38,1.3-10.43.52l0,0-1.27-1-1.27-.94-6.64-5,0,0,0,0c-1-.63-3.84,1.63-6.42,5.1s-4,6.91-3,7.63h0l6.67,5,1.27.95h0l1.27.94,0,0c1.59,1.18,1.25,1.7,2.49,10.14S1589.93,76,1591,76.85s2.62,1.76,2.62,1.76L1614,93.82s1.32,1.16,1.91,1.61l49.62,37c4.74,3.52,13.38-4.95,18.48-11.8s10.75-17.56,6-21.08l-49.62-37c-.6-.45-2.09-1.38-2.09-1.38L1618,46S1616.6,44.78,1615.51,44Z" fill="#f8f8f8" opacity="0.95"/>
            <path d="M1584.41,36.48l1.27,1h0c.75.56-.76,3.86-3.37,7.37s-5.35,5.9-6.1,5.34h0l-1.27-.94c-.37,1.24-.37,2.15.11,2.5s1.34.1,2.43-.61a25.56,25.56,0,0,0,5.59-5.72,25.1,25.1,0,0,0,3.88-7c.37-1.24.37-2.15-.11-2.5S1585.5,35.77,1584.41,36.48Z" fill="#fff"/>
            <ellipse cx="1678.75" cy="116.59" rx="16.72" ry="4.93" transform="matrix(0.6, -0.8, 0.8, 0.6, 582.4, 1393.23)" fill="#231815" opacity="0.08" style="mix-blend-mode: multiply"/>
            <ellipse cx="1678.75" cy="116.59" rx="5.22" ry="1.54" transform="matrix(0.6, -0.8, 0.8, 0.6, 582.4, 1393.23)" fill="#231815" opacity="0.05" style="mix-blend-mode: multiply"/>
            <g>
              <path d="M1638.81,61.77A4.12,4.12,0,0,1,1639,64a8.54,8.54,0,0,1,1.37.74L1687,99.52c4.43,3.3-.67,13.08-5.32,19.32s-12.56,13.93-17,10.63L1618,94.68a9.64,9.64,0,0,1-1.1-1.11,4.16,4.16,0,0,1-2.17.51l-.11,0a11.64,11.64,0,0,0,1.32,1.37l49.62,37c4.74,3.52,13.38-4.95,18.48-11.8s10.75-17.56,6-21.08l-49.62-37a10.73,10.73,0,0,0-1.7-.89Z" fill="#f0f0f0"/>
              <path d="M1597.68,38.08c-8.79,1.28-9.38,1.3-10.43.52l0,0-1.27-1-1.27-.94-6.64-5,0,0,0,0c-1-.63-3.84,1.63-6.42,5.1s-4,6.91-3,7.63h0l6.67,5,1.27.95h0l1.27.94,0,0c1.59,1.18,1.25,1.7,2.49,10.14S1589.93,76,1591,76.85c.66.49,2.07,1.42,2.62,1.76.74.56,2.06.1,2.58-.17a48.88,48.88,0,0,1-8.64-8.52c-1.92-2.49-3.72-5.69-4.06-7.67-1.09-6.33-.42-7.33,0-8.16.48-1,1.87-2.07,4.24-5.26s3-4.73,3.79-5.52,1.52-1.47,7.86-2.35a18.86,18.86,0,0,1,8.88,1.62,56.7,56.7,0,0,1,10.27,5.9c.18-1.35-.13-2.18-.57-2.52s-1.78-1.5-2.44-2C1614.59,43.28,1606.46,36.79,1597.68,38.08Z" fill="#f0f0f0"/>
            </g>
            <path d="M1575,39.33c2.59-3.47,3.93-6.85,3-7.61l-.07,0c-1-.63-3.84,1.63-6.42,5.1s-4,6.91-3,7.63l0,0C1569.48,45.1,1572.36,42.83,1575,39.33Z" fill="#fff"/>
            <path d="M1574.11,38.7c1.86-2.5,3-4.82,2.56-5.21l0,0c-.51-.3-2.4,1.45-4.26,3.95s-3,4.85-2.55,5.21h0C1570.33,43,1572.24,41.21,1574.11,38.7Z" fill="#231815" opacity="0.1" style="mix-blend-mode: multiply"/>
            <path d="M1609.71,65.21c-6.71,9-13.79,15.08-16.14,13.36L1614,93.78l0,0a1.62,1.62,0,0,0,.73.28c2.91.38,9.3-5.43,15.42-13.64s9.84-16,8.65-18.67a1.63,1.63,0,0,0-.49-.63l-20.44-15.23C1620.22,47.66,1616.43,56.2,1609.71,65.21Z" fill="#f0f0f0"/>
            <path d="M1636,84.77c6-8,12.87-13.25,16.52-12.8a2.7,2.7,0,0,0-.79-1l-.08,0c-3.09-2.21-11,3.3-17.75,12.34s-9.76,18.27-6.71,20.56h0a2.62,2.62,0,0,0,1.27.48C1627,100.9,1630,92.79,1636,84.77Z" fill="#f0f0f0" opacity="0.4"/>
            <path d="M1647.19,93.13c-6.75,9.07-9.76,18.27-6.71,20.56l0,0a2.63,2.63,0,0,0,1.26.47c-1.48-3.36,1.56-11.47,7.53-19.49s12.88-13.25,16.52-12.79a2.63,2.63,0,0,0-.79-1.05l-.08-.06C1661.85,78.59,1653.93,84.09,1647.19,93.13Z" fill="#f0f0f0" opacity="0.4"/>
            <path d="M1660.52,103.05c-6.76,9.08-9.76,18.28-6.72,20.57h0a2.68,2.68,0,0,0,1.26.48c-1.48-3.36,1.56-11.48,7.53-19.49s12.88-13.25,16.52-12.8a2.7,2.7,0,0,0-.79-1l-.08,0C1675.18,88.51,1667.25,94,1660.52,103.05Z" fill="#f0f0f0" opacity="0.4"/>
            <path d="M1620.73,91.05a16.15,16.15,0,0,0,1.72,1.85l49.62,37a4.2,4.2,0,0,0,2.21.81,41.42,41.42,0,0,0,6.46-6,4.34,4.34,0,0,1-3-.81l-49.62-37a13.86,13.86,0,0,1-1.67-1.78,50.19,50.19,0,0,1-5.81,5.85Z" opacity="0.7" fill="url(#b)"/>
            <path d="M1645.07,91.55c6.74-9,9.74-18.21,6.74-20.54l-.07-.05a2.69,2.69,0,0,0-1.23-.46C1652,73.86,1649,82,1643,90s-12.88,13.25-16.52,12.8a2.65,2.65,0,0,0,.81,1.07h0C1630.36,106.13,1638.31,100.62,1645.07,91.55Z" fill="#f0f0f0"/>
            <path d="M1656.3,99.91c-6,8-12.88,13.25-16.52,12.8a2.52,2.52,0,0,0,.82,1.07h0c3.07,2.27,11-3.24,17.78-12.32s9.74-18.21,6.75-20.53l-.08-.06a2.65,2.65,0,0,0-1.23-.46C1665.31,83.78,1662.27,91.9,1656.3,99.91Z" fill="#f0f0f0"/>
            <path d="M1669.62,109.84c-6,8-12.88,13.25-16.52,12.79a2.46,2.46,0,0,0,.82,1.07l0,0c3.06,2.26,11-3.25,17.78-12.32s9.74-18.21,6.74-20.54l-.08-.06a2.65,2.65,0,0,0-1.23-.46C1678.63,93.71,1675.59,101.82,1669.62,109.84Z" fill="#f0f0f0"/>
            <path d="M1582.68,50.88a13.28,13.28,0,0,1-1.72,1.39" fill="none" stroke="#231815" stroke-linecap="round" stroke-miterlimit="10" stroke-width="1.14"/>
            <path d="M1589.11,41.34a21.76,21.76,0,0,1-3.33,6c-.48.64-1,1.25-1.46,1.81" fill="none" stroke="#231815" stroke-linecap="round" stroke-miterlimit="10" stroke-width="1.14"/>
            <path d="M1575,39.33c2.59-3.47,3.93-6.85,3-7.61l-.07,0c-1-.63-3.84,1.63-6.42,5.1s-4,6.91-3,7.63l0,0" fill="none" stroke="#231815" stroke-linecap="round" stroke-linejoin="round" stroke-width="1.14"/>
            <polygon points="1576.46 50.33 1576.46 50.33 1576.46 50.33 1576.46 50.33" fill="none"/>
            <path d="M1668.76,130c-2.19-1.63.51-9,6-16.36s11.76-12.09,13.94-10.46" fill="none" stroke="#231815" stroke-linecap="round" stroke-linejoin="round" stroke-width="1.14"/>
            <path d="M1574.11,38.7c1.86-2.5,3-4.82,2.56-5.21l0,0c-.51-.3-2.4,1.45-4.26,3.95s-3,4.85-2.55,5.21h0C1570.33,43,1572.24,41.21,1574.11,38.7Z" fill="none" stroke="#231815" stroke-miterlimit="10" stroke-width="1.14"/>
            <path d="M1651.78,71l0,0a2.69,2.69,0,0,0-1.23-.46,2.63,2.63,0,0,0-.79-1l0,0,0,0-9.19-6.84c-.6-.45-2.09-1.38-2.09-1.38L1618,46s-1.35-1.18-2.44-2c-.92-.69-9-7.18-17.83-5.89s-9.38,1.3-10.43.52l0,0-1.27-1-1.27-.94-6.64-5,0,0,0,0c-1-.63-3.84,1.63-6.42,5.1s-4,6.91-3,7.63h0l6.67,5,1.27.95h0l1.27.94,0,0c1.59,1.18,1.25,1.7,2.49,10.14S1589.93,76,1591,76.85s2.62,1.76,2.62,1.76L1614,93.82s1.32,1.16,1.91,1.61l9.23,6.87h0a2.64,2.64,0,0,0,1.26.48,2.65,2.65,0,0,0,.81,1.07h0l11.21,8.35h0a2.54,2.54,0,0,0,1.26.48,2.52,2.52,0,0,0,.82,1.07h0l11.21,8.35h0a2.67,2.67,0,0,0,1.26.47,2.46,2.46,0,0,0,.82,1.07h0l11.63,8.67c4.74,3.52,13.38-4.95,18.48-11.8s10.75-17.56,6-21.08l-11.61-8.65,0,0,0,0a2.65,2.65,0,0,0-1.23-.46,2.6,2.6,0,0,0-.79-1l0,0,0,0-11.15-8.3s0,0,0,0l0,0a2.65,2.65,0,0,0-1.23-.46,2.7,2.7,0,0,0-.79-1l0,0,0,0L1651.81,71Z" fill="none" stroke="#231815" stroke-linecap="round" stroke-linejoin="round" stroke-width="1.14"/>
            <path d="M1577.59,41.29c-2.18,2.93-4.61,5.18-6.17,5.71a.61.61,0,0,1-.4-1.16c1.07-.37,3.27-2.18,5.58-5.29s3.41-5.67,3.47-6.84a.62.62,0,0,1,.65-.58.6.6,0,0,1,.58.64C1581.22,35.43,1579.76,38.38,1577.59,41.29Z" fill="#f0f0f0"/>
            <path d="M1579.88,43c-2.19,2.93-4.61,5.18-6.17,5.71a.61.61,0,1,1-.4-1.16c1.06-.37,3.26-2.18,5.58-5.29s3.4-5.67,3.46-6.84a.62.62,0,0,1,1.24.06C1583.5,37.13,1582,40.08,1579.88,43Z" fill="#f0f0f0"/>
            <path d="M1584.41,36.48l1.27,1h0c.75.56-.76,3.86-3.37,7.37s-5.35,5.9-6.1,5.34h0l-1.27-.94c-.37,1.24-.37,2.15.11,2.5s1.34.1,2.43-.61a25.56,25.56,0,0,0,5.59-5.72,25.1,25.1,0,0,0,3.88-7c.37-1.24.37-2.15-.11-2.5S1585.5,35.77,1584.41,36.48Z" fill="#fff"/>
            <path d="M1577.59,41.29c-2.18,2.93-4.61,5.18-6.17,5.71a.61.61,0,0,1-.4-1.16c1.07-.37,3.27-2.18,5.58-5.29s3.41-5.67,3.47-6.84a.62.62,0,0,1,.65-.58.6.6,0,0,1,.58.64C1581.22,35.43,1579.76,38.38,1577.59,41.29Z" fill="none" stroke="#231815" stroke-miterlimit="10" stroke-width="1.14"/>
            <path d="M1579.88,43c-2.19,2.93-4.61,5.18-6.17,5.71a.61.61,0,1,1-.4-1.16c1.06-.37,3.26-2.18,5.58-5.29s3.4-5.67,3.46-6.84a.62.62,0,0,1,1.24.06C1583.5,37.13,1582,40.08,1579.88,43Z" fill="none" stroke="#231815" stroke-miterlimit="10" stroke-width="1.14"/>
            <path d="M1579.26,48.35a12.22,12.22,0,0,1-1.7,1.42c-.62.41-1.09.56-1.35.37h0l-1.27-.94c-.37,1.24-.37,2.15.11,2.5s1.34.1,2.43-.61a25.56,25.56,0,0,0,5.59-5.72,25.1,25.1,0,0,0,3.88-7c.37-1.24.37-2.15-.11-2.5s-1.34-.1-2.43.61l1.27,1c.75.56-.76,3.86-3.37,7.37" fill="none" stroke="#231815" stroke-linecap="round" stroke-miterlimit="10" stroke-width="1.14"/>
            <path d="M1606,69.86a51.88,51.88,0,0,1-5.87,5.9l.19.08L1620.61,91a50.19,50.19,0,0,0,5.81-5.85l-.06-.08Z" opacity="0.5" fill="url(#c)" style="mix-blend-mode: color-dodge"/>
            <path d="M1590.81,55.76c-2-3-5.28-5.28-4,3.16.81,5.5,4.55,9.94,7.42,12.64a37.18,37.18,0,0,0,3.33,2.76,14.79,14.79,0,0,0,2.61,1.44,51.88,51.88,0,0,0,5.87-5.9l0,0a15.91,15.91,0,0,1-2.8-1.52,52.41,52.41,0,0,1-5.13-4.14A44.22,44.22,0,0,1,1590.81,55.76Z" opacity="0.7" fill="url(#d)"/>
          </g>
          <g>
            <path d="M1609.71,65.21c-6.71,9-13.79,15.08-16.14,13.36L1614,93.78l0,0a1.62,1.62,0,0,0,.73.28c2.91.38,9.3-5.43,15.42-13.64s9.84-16,8.65-18.67a1.63,1.63,0,0,0-.49-.63l-20.44-15.23C1620.22,47.66,1616.43,56.2,1609.71,65.21Z" fill="#fed259"/>
            <g>
              <path d="M1609.71,65.21c-6.71,9-13.79,15.08-16.14,13.36L1614,93.78l0,0a1.62,1.62,0,0,0,.73.28c2.91.38,9.3-5.43,15.42-13.64s9.84-16,8.65-18.67a1.63,1.63,0,0,0-.49-.63l-20.44-15.23C1620.22,47.66,1616.43,56.2,1609.71,65.21Z" fill="none" stroke="#231815" stroke-miterlimit="10" stroke-width="1.14"/>
              <path d="M1593.42,78.44l.13.12h0c2.35,1.72,9.43-4.35,16.14-13.36s10.51-17.55,8.17-19.3l-.16-.09" fill="none" stroke="#231815" stroke-miterlimit="10" stroke-width="1.14"/>
            </g>
            <path d="M1606,69.86a51.88,51.88,0,0,1-5.87,5.9l.19.08L1620.61,91a50.19,50.19,0,0,0,5.81-5.85l-.06-.08Z" opacity="0.3" fill="url(#c)" style="mix-blend-mode: color-dodge"/>
          </g>
          <g>
            <g>
              <path d="M1575.37,39.59c-3,4.1-6.44,6.74-7.57,5.9l5.81,4.32c1.13.84,4.52-1.8,7.57-5.89s4.61-8.11,3.49-9l-5.81-4.32C1580,31.49,1578.43,35.49,1575.37,39.59Z" fill="#fed259"/>
              <ellipse cx="1573.33" cy="38.07" rx="9.25" ry="2.55" transform="translate(602.93 1277.08) rotate(-53.32)" fill="#d0953e"/>
            </g>
            <g>
              <g>
                <path d="M1575.37,39.59c-3,4.1-6.44,6.74-7.57,5.9l5.81,4.32c1.13.84,4.52-1.8,7.57-5.89s4.61-8.11,3.49-9l-5.81-4.32C1580,31.49,1578.43,35.49,1575.37,39.59Z" fill="none" stroke="#231815" stroke-miterlimit="10" stroke-width="1.14"/>
                <ellipse cx="1573.33" cy="38.07" rx="9.25" ry="2.55" transform="translate(602.93 1277.08) rotate(-53.32)" fill="none" stroke="#231815" stroke-miterlimit="10" stroke-width="1.14"/>
              </g>
              <line x1="1580.07" y1="33.18" x2="1583.88" y2="36.02" fill="none" stroke="#231815" stroke-linecap="round" stroke-linejoin="round" stroke-width="1.14"/>
              <line x1="1579.7" y1="34.46" x2="1583.5" y2="37.3" fill="none" stroke="#231815" stroke-linecap="round" stroke-linejoin="round" stroke-width="1.14"/>
              <line x1="1579.25" y1="35.69" x2="1583.06" y2="38.53" fill="none" stroke="#231815" stroke-linecap="round" stroke-linejoin="round" stroke-width="1.14"/>
            </g>
          </g>
        </g>
        <g>
          <path d="M1614.21,91.92c-2.77-.71-8.23,6.74-12.35,17s-5.37,19.35-2.89,20.77l.16.08h0l23.06,9.31c-2-2.08-.66-10.87,3.28-20.63s9.09-17,12-17.12L1614.39,92Z" fill="#d0953e"/>
          <path d="M1614.21,91.92c-2.77-.71-8.23,6.74-12.35,17s-5.37,19.35-2.89,20.77l.16.08h0l23.06,9.31c-2-2.08-.66-10.87,3.28-20.63s9.09-17,12-17.12L1614.39,92Z" fill="none" stroke="#231815" stroke-linecap="round" stroke-linejoin="round" stroke-width="1.14"/>
          <g>
            <ellipse cx="1692.33" cy="145.38" rx="18.34" ry="5.41" transform="translate(923.61 1660.03) rotate(-68)" fill="#f0f0f0"/>
            <path d="M1571.22,96.48c1.62-4,2.06-7.62,1-8.13l-.07,0c-1.12-.36-3.3,2.55-4.93,6.56s-2.07,7.69-1,8.16h0C1567.37,103.45,1569.58,100.53,1571.22,96.48Z" fill="#f0f0f0"/>
            <polygon points="1575.44 106.74 1575.44 106.74 1575.44 106.74 1575.44 106.74" fill="#f0f0f0"/>
            <path d="M1611.6,90.69c-1.06-.43-10.57-4.65-18.74-1.18s-8.74,3.64-9.95,3.15l-.06,0-1.47-.59-1.46-.59-7.69-3.1,0,0,0,0c-1.12-.36-3.3,2.55-4.93,6.56s-2.07,7.69-1,8.16h0l7.71,3.12,1.46.59h0l1.47.59.06,0c1.83.74,1.64,1.32,5,9.18s13,11.66,14.29,12.17,3,1,3,1l23.6,9.54s1.57.79,2.26,1.07l57.37,23.17c5.47,2.21,11.68-8.17,14.88-16.09s6-19.71.48-21.92l-57.37-23.18c-.69-.28-2.37-.8-2.37-.8L1614.47,92S1612.87,91.2,1611.6,90.69Z" fill="#f8f8f8" opacity="0.95"/>
            <path d="M1579.63,91.33l1.46.6h0c.87.35.25,3.92-1.39,8s-3.67,7.06-4.54,6.72h0l-1.46-.6c0,1.3.19,2.18.74,2.4s1.32-.24,2.19-1.21a25.06,25.06,0,0,0,4-7,25.09,25.09,0,0,0,2-7.75c0-1.3-.19-2.17-.74-2.4S1580.5,90.37,1579.63,91.33Z" fill="#fff"/>
            <ellipse cx="1691.19" cy="144.91" rx="16.72" ry="4.93" transform="translate(923.32 1658.68) rotate(-68)" fill="#231815" opacity="0.08" style="mix-blend-mode: multiply"/>
            <ellipse cx="1691.19" cy="144.91" rx="5.22" ry="1.54" transform="translate(923.32 1658.68) rotate(-68)" fill="#231815" opacity="0.05" style="mix-blend-mode: multiply"/>
            <g>
              <path d="M1638.66,102a4.1,4.1,0,0,1,.69,2.11,9.23,9.23,0,0,1,1.52.36l54,21.82c5.13,2.07,2.67,12.83-.25,20S1686,163,1680.88,160.93l-54-21.82a8.27,8.27,0,0,1-1.34-.79,4.16,4.16,0,0,1-2,1h-.12a10.94,10.94,0,0,0,1.63,1l57.37,23.17c5.47,2.21,11.68-8.17,14.88-16.09s6-19.71.48-21.92l-57.37-23.18a10.81,10.81,0,0,0-1.87-.42Z" fill="#f0f0f0"/>
              <path d="M1592.86,89.51c-8.17,3.47-8.74,3.64-9.95,3.15l-.06,0-1.47-.59-1.46-.59-7.69-3.1,0,0,0,0c-1.12-.36-3.3,2.55-4.93,6.56s-2.07,7.69-1,8.16h0l7.71,3.12,1.46.59h0l1.47.59.06,0c1.83.74,1.64,1.32,5,9.18s13,11.66,14.29,12.17c.76.3,2.36.84,3,1,.87.35,2-.43,2.45-.82a48.86,48.86,0,0,1-10.52-6.05c-2.48-1.92-5-4.56-5.86-6.39-2.66-5.85-2.27-7-2.1-7.89.2-1.11,1.28-2.47,2.77-6.16s1.68-5.34,2.26-6.3,1.1-1.81,7-4.27a18.88,18.88,0,0,1,9-.68,56.79,56.79,0,0,1,11.44,3.1c-.17-1.35-.68-2.08-1.2-2.28s-2.11-1-2.87-1.32C1610.54,90.26,1601,86,1592.86,89.51Z" fill="#f0f0f0"/>
            </g>
            <path d="M1571.22,96.48c1.62-4,2.06-7.62,1-8.13l-.07,0c-1.12-.36-3.3,2.55-4.93,6.56s-2.07,7.69-1,8.16h0C1567.37,103.45,1569.58,100.53,1571.22,96.48Z" fill="#fff"/>
            <path d="M1570.23,96.08c1.16-2.89,1.67-5.41,1.15-5.68l0,0c-.56-.16-1.95,2-3.12,4.89s-1.68,5.46-1.14,5.7h0C1567.65,101.18,1569.05,99,1570.23,96.08Z" fill="#231815" opacity="0.1" style="mix-blend-mode: multiply"/>
            <path d="M1611.38,112.71c-4.2,10.41-9.52,18.09-12.23,17l23.61,9.54h0a1.6,1.6,0,0,0,.79.09c2.9-.37,7.61-7.6,11.45-17.1s5.47-18,3.64-20.25a1.64,1.64,0,0,0-.63-.49L1614.39,92C1617.1,93.07,1615.59,102.29,1611.38,112.71Z" fill="#f0f0f0"/>
            <path d="M1641.74,125c3.74-9.26,9.1-16.08,12.73-16.56a2.5,2.5,0,0,0-1-.81l-.08,0c-3.55-1.35-9.82,6-14,16.44s-4.82,20.14-1.29,21.59h0a2.72,2.72,0,0,0,1.34.14C1637.11,142.86,1638,134.24,1641.74,125Z" fill="#f0f0f0" opacity="0.4"/>
            <path d="M1654.72,130.22c-4.24,10.49-4.81,20.15-1.29,21.59h0a2.63,2.63,0,0,0,1.34.14c-2.28-2.87-1.39-11.49,2.35-20.76s9.1-16.08,12.74-16.57a2.65,2.65,0,0,0-1-.81l-.09,0C1665.21,112.43,1658.94,119.76,1654.72,130.22Z" fill="#f0f0f0" opacity="0.4"/>
            <path d="M1670.12,136.44c-4.24,10.49-4.81,20.15-1.28,21.59h0a2.5,2.5,0,0,0,1.34.14c-2.28-2.87-1.4-11.49,2.34-20.76s9.1-16.08,12.74-16.57a2.75,2.75,0,0,0-1-.81l-.09,0C1680.61,118.65,1674.34,126,1670.12,136.44Z" fill="#f0f0f0" opacity="0.4"/>
            <path d="M1628.59,134.91a14.58,14.58,0,0,0,2.14,1.35l57.36,23.18a4.18,4.18,0,0,0,2.34.23,41.53,41.53,0,0,0,4.73-7.46,4.36,4.36,0,0,1-3.14,0L1634.65,129a14.89,14.89,0,0,1-2.06-1.29,52.41,52.41,0,0,1-4.13,7.13Z" opacity="0.7" fill="url(#f)"/>
            <path d="M1652.26,129.23c4.23-10.46,4.81-20.09,1.32-21.58l-.09,0a2.69,2.69,0,0,0-1.3-.13c2.28,2.88,1.4,11.5-2.35,20.77s-9.1,16.08-12.74,16.56a2.58,2.58,0,0,0,1.07.83h0C1641.73,147.06,1648,139.72,1652.26,129.23Z" fill="#f0f0f0"/>
            <path d="M1665.24,134.47c-3.74,9.27-9.1,16.08-12.73,16.57a2.63,2.63,0,0,0,1.06.83h0c3.54,1.42,9.84-5.93,14.08-16.42s4.8-20.09,1.31-21.58l-.09,0a2.47,2.47,0,0,0-1.3-.13C1669.87,116.58,1669,125.2,1665.24,134.47Z" fill="#f0f0f0"/>
            <path d="M1680.65,140.69c-3.75,9.27-9.1,16.08-12.74,16.57a2.63,2.63,0,0,0,1.06.83h0c3.54,1.41,9.84-5.94,14.08-16.43s4.8-20.08,1.31-21.57l-.08,0a2.73,2.73,0,0,0-1.31-.13C1685.27,122.81,1684.39,131.42,1680.65,140.69Z" fill="#f0f0f0"/>
            <path d="M1581.6,105.7a13.74,13.74,0,0,1-1.31,1.78" fill="none" stroke="#231815" stroke-linecap="round" stroke-miterlimit="10" stroke-width="1.14"/>
            <path d="M1585.41,94.84a22,22,0,0,1-1.7,6.65c-.31.75-.63,1.47-1,2.13" fill="none" stroke="#231815" stroke-linecap="round" stroke-miterlimit="10" stroke-width="1.14"/>
            <path d="M1571.22,96.48c1.62-4,2.06-7.62,1-8.13l-.07,0c-1.12-.36-3.3,2.55-4.93,6.56s-2.07,7.69-1,8.16h0" fill="none" stroke="#231815" stroke-linecap="round" stroke-linejoin="round" stroke-width="1.14"/>
            <polygon points="1575.44 106.74 1575.44 106.74 1575.44 106.74 1575.44 106.74" fill="none"/>
            <path d="M1684.92,160.42c-2.52-1-1.77-8.79,1.69-17.35s8.31-14.68,10.84-13.66" fill="none" stroke="#231815" stroke-linecap="round" stroke-linejoin="round" stroke-width="1.14"/>
            <path d="M1570.23,96.08c1.16-2.89,1.67-5.41,1.15-5.68l0,0c-.56-.16-1.95,2-3.12,4.89s-1.68,5.46-1.14,5.7h0C1567.65,101.18,1569.05,99,1570.23,96.08Z" fill="none" stroke="#231815" stroke-miterlimit="10" stroke-width="1.14"/>
            <path d="M1653.54,107.63l0,0a2.69,2.69,0,0,0-1.3-.13,2.75,2.75,0,0,0-1-.81l-.05,0h0l-10.63-4.3c-.69-.28-2.37-.8-2.37-.8L1614.47,92s-1.6-.81-2.87-1.32c-1.06-.43-10.57-4.65-18.74-1.18s-8.74,3.64-9.95,3.15l-.06,0-1.47-.59-1.46-.59-7.69-3.1,0,0,0,0c-1.12-.36-3.3,2.55-4.93,6.56s-2.07,7.69-1,8.16h0l7.71,3.12,1.46.59h0l1.47.59.06,0c1.83.74,1.64,1.32,5,9.18s13,11.66,14.29,12.17,3,1,3,1l23.6,9.54s1.57.79,2.26,1.07l10.66,4.3h0a2.53,2.53,0,0,0,1.34.14,2.58,2.58,0,0,0,1.07.83h0l13,5.24h0a2.72,2.72,0,0,0,1.34.14,2.63,2.63,0,0,0,1.06.83h0l13,5.24h0a2.72,2.72,0,0,0,1.34.14,2.63,2.63,0,0,0,1.06.83h0l13.46,5.43c5.47,2.21,11.68-8.17,14.88-16.09s6-19.71.48-21.92l-13.43-5.42,0,0h0a2.73,2.73,0,0,0-1.31-.13,2.58,2.58,0,0,0-1-.81l0,0-.05,0L1669,113.87l0,0h0a2.47,2.47,0,0,0-1.3-.13,2.68,2.68,0,0,0-1-.82.05.05,0,0,1,0,0h0l-12.89-5.21Z" fill="none" stroke="#231815" stroke-linecap="round" stroke-linejoin="round" stroke-width="1.14"/>
            <path d="M1574.25,97.71c-1.37,3.39-3.15,6.18-4.52,7.09a.62.62,0,1,1-.69-1c.94-.63,2.61-2.94,4.06-6.53s1.86-6.35,1.62-7.5a.62.62,0,1,1,1.21-.25C1576.27,91.12,1575.61,94.34,1574.25,97.71Z" fill="#f0f0f0"/>
            <path d="M1576.89,98.78c-1.37,3.39-3.15,6.17-4.52,7.09a.62.62,0,1,1-.68-1c.93-.62,2.6-2.93,4-6.53s1.86-6.35,1.62-7.49a.62.62,0,0,1,.48-.73.61.61,0,0,1,.73.48C1578.91,92.19,1578.25,95.41,1576.89,98.78Z" fill="#f0f0f0"/>
            <path d="M1579.63,91.33l1.46.6h0c.87.35.25,3.92-1.39,8s-3.67,7.06-4.54,6.72h0l-1.46-.6c0,1.3.19,2.18.74,2.4s1.32-.24,2.19-1.21a25.06,25.06,0,0,0,4-7,25.09,25.09,0,0,0,2-7.75c0-1.3-.19-2.17-.74-2.4S1580.5,90.37,1579.63,91.33Z" fill="#fff"/>
            <path d="M1574.25,97.71c-1.37,3.39-3.15,6.18-4.52,7.09a.62.62,0,1,1-.69-1c.94-.63,2.61-2.94,4.06-6.53s1.86-6.35,1.62-7.5a.62.62,0,1,1,1.21-.25C1576.27,91.12,1575.61,94.34,1574.25,97.71Z" fill="none" stroke="#231815" stroke-miterlimit="10" stroke-width="1.14"/>
            <path d="M1576.89,98.78c-1.37,3.39-3.15,6.17-4.52,7.09a.62.62,0,1,1-.68-1c.93-.62,2.6-2.93,4-6.53s1.86-6.35,1.62-7.49a.62.62,0,0,1,.48-.73.61.61,0,0,1,.73.48C1578.91,92.19,1578.25,95.41,1576.89,98.78Z" fill="none" stroke="#231815" stroke-miterlimit="10" stroke-width="1.14"/>
            <path d="M1577.65,104.12a12.51,12.51,0,0,1-1.28,1.81c-.5.55-.92.81-1.21.7h0l-1.47-.6c0,1.3.19,2.18.74,2.4s1.32-.24,2.19-1.21a25.06,25.06,0,0,0,4-7,25.09,25.09,0,0,0,2-7.75c0-1.3-.19-2.17-.74-2.4s-1.32.25-2.19,1.21l1.46.6c.87.35.25,3.92-1.39,8" fill="none" stroke="#231815" stroke-linecap="round" stroke-miterlimit="10" stroke-width="1.14"/>
            <path d="M1609,118.15a50.43,50.43,0,0,1-4.19,7.19l.21,0,23.48,9.49a52.41,52.41,0,0,0,4.13-7.13l-.08-.06Z" opacity="0.5" fill="url(#g)" style="mix-blend-mode: color-dodge"/>
            <path d="M1590.7,108.35c-2.67-2.44-6.44-3.76-3.11,4.09,2.17,5.12,6.92,8.47,10.37,10.34a33.86,33.86,0,0,0,3.93,1.83,14.5,14.5,0,0,0,2.88.73,50.43,50.43,0,0,0,4.19-7.19l-.06,0a15.67,15.67,0,0,1-3.09-.76,55.18,55.18,0,0,1-6-2.71A44.4,44.4,0,0,1,1590.7,108.35Z" opacity="0.7" fill="url(#h)"/>
          </g>
          <g>
            <path d="M1611.38,112.71c-4.2,10.41-9.52,18.09-12.23,17l23.61,9.54h0a1.6,1.6,0,0,0,.79.09c2.9-.37,7.61-7.6,11.45-17.1s5.47-18,3.64-20.25a1.64,1.64,0,0,0-.63-.49L1614.39,92C1617.1,93.07,1615.59,102.29,1611.38,112.71Z" fill="#fed259"/>
            <g>
              <path d="M1611.38,112.71c-4.2,10.41-9.52,18.09-12.23,17l23.61,9.54h0a1.6,1.6,0,0,0,.79.09c2.9-.37,7.61-7.6,11.45-17.1s5.47-18,3.64-20.25a1.64,1.64,0,0,0-.63-.49L1614.39,92C1617.1,93.07,1615.59,102.29,1611.38,112.71Z" fill="none" stroke="#231815" stroke-miterlimit="10" stroke-width="1.14"/>
              <path d="M1599,129.64l.16.08h0c2.71,1.07,8-6.61,12.23-17s5.72-19.64,3-20.74l-.18,0" fill="none" stroke="#231815" stroke-miterlimit="10" stroke-width="1.14"/>
            </g>
            <path d="M1609,118.15a50.43,50.43,0,0,1-4.19,7.19l.21,0,23.48,9.49a52.41,52.41,0,0,0,4.13-7.13l-.08-.06Z" opacity="0.3" fill="url(#g)" style="mix-blend-mode: color-dodge"/>
          </g>
          <g>
            <g>
              <path d="M1571.67,96.63c-1.91,4.74-4.52,8.15-5.83,7.62l6.72,2.72c1.3.52,3.91-2.89,5.83-7.63s2.4-9,1.1-9.53l-6.71-2.71C1574.08,87.62,1573.59,91.89,1571.67,96.63Z" fill="#fed259"/>
              <ellipse cx="1569.31" cy="95.68" rx="9.25" ry="2.55" transform="translate(892.75 1514.88) rotate(-68)" fill="#d0953e"/>
            </g>
            <g>
              <g>
                <path d="M1571.67,96.63c-1.91,4.74-4.52,8.15-5.83,7.62l6.72,2.72c1.3.52,3.91-2.89,5.83-7.63s2.4-9,1.1-9.53l-6.71-2.71C1574.08,87.62,1573.59,91.89,1571.67,96.63Z" fill="none" stroke="#231815" stroke-miterlimit="10" stroke-width="1.14"/>
                <ellipse cx="1569.31" cy="95.68" rx="9.25" ry="2.55" transform="translate(892.75 1514.88) rotate(-68)" fill="none" stroke="#231815" stroke-miterlimit="10" stroke-width="1.14"/>
              </g>
              <line x1="1574.59" y1="89.24" x2="1579" y2="91.02" fill="none" stroke="#231815" stroke-linecap="round" stroke-linejoin="round" stroke-width="1.14"/>
              <line x1="1574.55" y1="90.57" x2="1578.96" y2="92.35" fill="none" stroke="#231815" stroke-linecap="round" stroke-linejoin="round" stroke-width="1.14"/>
              <line x1="1574.44" y1="91.88" x2="1578.84" y2="93.66" fill="none" stroke="#231815" stroke-linecap="round" stroke-linejoin="round" stroke-width="1.14"/>
            </g>
          </g>
        </g>
      </g>
      <g>
        <g>
          <path d="M515.33,43H270.22l-28,158.85h.15L232,260.71H477.4L493.22,171h-.47ZM438,183.11l-143-.92,17.42-94.37H455Z" fill="#fff"/>
          <polygon points="408.84 111.81 348.89 111.81 340.97 156.72 400.92 156.72 408.84 111.81" fill="#fff"/>
          <polygon points="1672.69 148.28 1692.41 35.99 1648.28 35.99 1629.61 147.36 1557.19 147.36 1543.15 228.78 1614.28 228.78 1607.36 268.06 1651.49 268.06 1658.42 228.78 1680.16 228.78 1692.85 148.28 1672.69 148.28" fill="#fff"/>
          <path d="M1396.9,93.31H1319l8-13.17h72.18l7.51-42.6h-231l-7.51,42.6h65.47l-8,13.17h-59.78l-6.19,35.09h-.5l-18.61,105.53h.5l-5.63,32h231l5.63-32h.52l18.6-105.53h-.51Zm-102.77,110-61.42-.91,4.93-34.35h61Zm8.25-57.74h-62.33l2.74-18.34h61.42Z" fill="#fff"/>
          <path d="M828.72,67.84H723.65c4.55-13.13,10.68-27,10.83-27.61l-50.74-.06a316.13,316.13,0,0,1-14,39.81c-2.1,4.84-4.18,9.22-6.21,13.18l9.26-52.51H624.68L608.92,130H591.71l15.92-90.29H559.55L543.63,130h-.45l-15.81,89.7H593.1l-8.41,47.7,48.26-1,19.93-113.06,4.79,13.28q12.95-7.12,24.7-20.64a124,124,0,0,0,4.74,26.22A132.24,132.24,0,0,0,696.22,195c-16.57,11.89-38.12,24.7-53,31.64C650,247.25,655,255.8,660.55,268.38c23.83-11.15,44.46-22.58,62.8-36.29q20.25,20.57,50.12,37.34c9.85-16,20.09-31,28.92-46.23C786,214,773.31,204.47,763.5,195.06a207.51,207.51,0,0,0,17.2-22.82c13.51-20.85,20.19-40.62,22.24-53.15h16.75C820.91,121.51,829.64,70.38,828.72,67.84ZM748.3,149.21c-1.72,2.53-3.55,5-5.46,7.43-9.16-21-5.91-36.32-5.63-37.53-.09.37-.15.56-.15.56l-5.58-.58h36.08l-5.78.58C761.77,119.78,760,132,748.3,149.21Z" fill="#fff"/>
          <path d="M1534.69,167.48c-.12-13.14.73-25.83,1.42-33.87h19.78l7.66-43.43h-38.2l3.7-21h17.7l5.74-32.57H1473l-5.74,32.57h17.7l-3.71,21h-37.58L1436,133.61h16c-2.44,7.89-6.38,19.9-11.31,32.32-14.85,37.37-24.32,42.78-24.42,42.83a3.84,3.84,0,0,1,1.37-.35l-2.79,32.45c21.89-1.89,37.49-25.43,48.32-48.09l-13.06,74.11h44.13l10.16-57.61c3.55,16.43,10.93,30.51,26.4,33.24l11.33-32.09a1.74,1.74,0,0,1,.68.23C1540.61,209.28,1535,198.86,1534.69,167.48Z" fill="#fff"/>
          <path d="M1116.17,77.31h-94.44c4.68-25.9,7.41-39.18,7.65-41l-60.74.88c-.08.62-3.55,18.33-7.53,40.13h-91l-.9,5.11h-.41l-11.67,66.2h.41L855,163.05h65.29c-15.74,23.84-37.53,45.82-67.71,60,2.24,22.69,10.12,41.94,18.09,54,43.82-20.54,79.89-54.07,106.26-98.29,1.51,6,3.26,11.83,5.27,17.45,12.81,35.82,35.4,63,67.14,80.84,13.31-15.35,25.51-33.44,37.14-54-25.32-14.22-39.56-36.22-47.14-60h61.71Z" fill="#fff"/>
        </g>
        <g>
          <path d="M305.87,390.41a17.2,17.2,0,0,1,4.54,1.41,14.12,14.12,0,0,1,4.5,2.89q4.6,4.57,3.26,12.25l-4,22.83H273.78L277,411.47q.78-4.44-1.06-7.18a7.82,7.82,0,0,0-4.52-3.1,17,17,0,0,0-7.35-.64l-5.15,29.16H218.5l16.68-94.59h62q33.45,0,29.29,30.43Q323.69,383.29,305.87,390.41Zm-29.18-17.47a11.07,11.07,0,0,0,6.16-1.76A6.42,6.42,0,0,0,286,367a4.31,4.31,0,0,0-1.64-4.29,8.53,8.53,0,0,0-5.6-1.76h-7.54l-2.13,12Z" fill="#fff"/>
          <path d="M436.88,363.5v.07H397.21l-.69,3.95h39.65l-5.26,29.86H391.25l-.69,3.95h39.65l-5,28.46H345.11l16.69-94.67h80.79Z" fill="#fff"/>
          <path d="M554.25,363.64l-19.74.07a23.17,23.17,0,0,0-15.34,5.92q-7,5.92-8.18,12.82a15.4,15.4,0,0,0,3.58,12.89A14.49,14.49,0,0,0,527,401l21,.07-5.06,28.74H501q-19.5-.15-30.79-14t-7.92-33.39Q465.7,362.88,482,349t35.9-13.87h34.66Z" fill="#fff"/>
          <path d="M692.8,335.12l-43.68,69.94-4.36,24.73h-47l4.35-24.66-19-70H622l8.7,41.34,23.21-41.34Z" fill="#fff"/>
          <path d="M793.82,363.64l-19.73.07a23.2,23.2,0,0,0-15.35,5.92q-7,5.92-8.17,12.82a15.43,15.43,0,0,0,3.57,12.89A14.49,14.49,0,0,0,766.53,401l21.05.07-5.07,28.74h-42q-19.49-.15-30.79-14t-7.92-33.39q3.45-19.57,19.78-33.46t35.9-13.87h34.66Z" fill="#fff"/>
          <path d="M895,429.43l-.07.36H814.89l16.69-94.67h40.5l-11.74,66.21h33.24Z" fill="#fff"/>
          <path d="M1014.54,363.5v.07H974.87l-.69,3.95h39.65l-5.26,29.86H968.91l-.7,3.95h39.66l-5,28.46H922.76l16.7-94.67h80.6Z" fill="#fff"/>
          <path d="M1109.31,335.12h40.43l-16.69,94.67h-40.44Z" fill="#fff"/>
          <path d="M1281.51,335.12l-16.7,94.67h-37l-14.58-33.53-5.91,33.53h-36.91l16.56-94-.29-.7H1224l-.13.7,14.59,33.53,6-34.23Z" fill="#fff"/>
          <path d="M1368.9,335.12q21,.06,31.85,13.87,10.47,13.38,6.91,33.53A56.32,56.32,0,0,1,1388.8,416a53.93,53.93,0,0,1-36.53,13.81h-51.42l16.7-94.67ZM1350.84,398c3.81,0,7.32-1.58,10.56-4.72a20.45,20.45,0,0,0,5.94-11.34q1.17-6.63-2-11.34a10.14,10.14,0,0,0-8.89-4.72h-4.51L1346.26,398Z" fill="#fff"/>
          <path d="M1517.06,363.5v.07h-39.66l-.69,3.95h39.65l-5.26,29.86h-39.66l-.7,3.95h39.66l-5,28.46h-80.09l16.7-94.67h80.38Z" fill="#fff"/>
          <path d="M1602.88,360.4l17.06-25.28h43l-36.45,47.33,19.76,47.34h-43l-8.15-25.29L1578,429.79h-43l36.45-47.34-19.76-47.33h43Z" fill="#fff"/>
        </g>
      </g>
    </g>
  </g>
</svg>
