<svg xmlns="http://www.w3.org/2000/svg" xmlns:xlink="http://www.w3.org/1999/xlink" width="1686.44" height="317.89" viewBox="0 0 1686.44 317.89">
  <defs>
    <clipPath id="clip-path">
      <rect x="1500.38" width="139" height="198" fill="none"/>
    </clipPath>
    <linearGradient id="未命名漸層_42" data-name="未命名漸層 42" x1="1175.64" y1="-118.33" x2="1175.64" y2="-193.77" gradientTransform="translate(1052.06 1160.35) rotate(-53.32)" gradientUnits="userSpaceOnUse">
      <stop offset="0" stop-color="#fff" stop-opacity="0"/>
      <stop offset="0.53" stop-color="#fff"/>
      <stop offset="1" stop-color="#fff" stop-opacity="0"/>
    </linearGradient>
    <linearGradient id="未命名漸層_9" data-name="未命名漸層 9" x1="1175.47" y1="-194.58" x2="1175.47" y2="-225.2" gradientTransform="translate(1052.06 1160.35) rotate(-53.32)" gradientUnits="userSpaceOnUse">
      <stop offset="0" stop-color="#fff" stop-opacity="0"/>
      <stop offset="0.02" stop-color="#fff" stop-opacity="0.07"/>
      <stop offset="0.1" stop-color="#fff" stop-opacity="0.31"/>
      <stop offset="0.19" stop-color="#fff" stop-opacity="0.52"/>
      <stop offset="0.26" stop-color="#fff" stop-opacity="0.69"/>
      <stop offset="0.34" stop-color="#fff" stop-opacity="0.83"/>
      <stop offset="0.41" stop-color="#fff" stop-opacity="0.92"/>
      <stop offset="0.48" stop-color="#fff" stop-opacity="0.98"/>
      <stop offset="0.53" stop-color="#fff"/>
      <stop offset="0.58" stop-color="#fff" stop-opacity="0.98"/>
      <stop offset="0.64" stop-color="#fff" stop-opacity="0.92"/>
      <stop offset="0.7" stop-color="#fff" stop-opacity="0.81"/>
      <stop offset="0.77" stop-color="#fff" stop-opacity="0.67"/>
      <stop offset="0.84" stop-color="#fff" stop-opacity="0.48"/>
      <stop offset="0.92" stop-color="#fff" stop-opacity="0.26"/>
      <stop offset="1" stop-color="#fff" stop-opacity="0"/>
    </linearGradient>
    <linearGradient id="未命名漸層_42-2" x1="1176.88" y1="-225.39" x2="1176.88" y2="-253.13" xlink:href="#未命名漸層_42"/>
    <linearGradient id="未命名漸層_42-3" x1="1094.42" y1="-117.16" x2="1094.42" y2="-192.6" gradientTransform="translate(1375.84 1237.7) rotate(-68)" xlink:href="#未命名漸層_42"/>
    <linearGradient id="未命名漸層_9-3" x1="1094.25" y1="-193.41" x2="1094.25" y2="-224.03" gradientTransform="translate(1375.84 1237.7) rotate(-68)" xlink:href="#未命名漸層_9"/>
    <linearGradient id="未命名漸層_42-4" x1="1095.66" y1="-224.21" x2="1095.66" y2="-251.95" gradientTransform="translate(1375.84 1237.7) rotate(-68)" xlink:href="#未命名漸層_42"/>
  </defs>
  <g style="isolation: isolate">
    <g id="圖層_12" data-name="圖層 12">
      <g>
        <path d="M1584.66,94c11-6.92,16.1-18.62,12.27-37.61-9.53-1.46-11.51-5.58-11.59-5.76a7.77,7.77,0,0,1,.36,1.19c-15.85-3.53-27.92,2.6-37.68,14.63C1548.58,68.77,1554.36,89.32,1584.66,94Z" fill="#fff"/>
        <path d="M1591.57,109.63c-15-6.55-27.54-1.53-37.69,14.63.56,2.33,6.35,22.89,36.65,27.56,13.29-10.7,18.26-23.06,12.27-37.61-9.53-1.47-11.51-5.59-11.59-5.77A9.63,9.63,0,0,1,1591.57,109.63Z" fill="#fff"/>
        <g clip-path="url(#clip-path)">
          <g>
            <path d="M1590.47,52.24c-2.86-1.6-11.08,5.08-18.61,15.19s-11.57,19.88-9.23,22.17l.15.14h0l22.85,17c-1.62-2.88,2.43-12.24,9.63-21.9s15-16.22,18.23-15.5l-22.86-17A.87.87,0,0,0,1590.47,52.24Z" fill="#d0953e"/>
            <path d="M1590.47,52.24c-2.86-1.6-11.08,5.08-18.61,15.19s-11.57,19.88-9.23,22.17l.15.14h0l22.85,17c-1.62-2.88,2.43-12.24,9.63-21.9s15-16.22,18.23-15.5l-22.86-17A.87.87,0,0,0,1590.47,52.24Z" fill="none" stroke="#231815" stroke-linecap="round" stroke-linejoin="round" stroke-width="1.3"/>
            <g>
              <ellipse cx="1661.51" cy="134.15" rx="21.01" ry="6.2" transform="translate(561.38 1386.48) rotate(-53.32)" fill="#f0f0f0"/>
              <path d="M1541.5,44.81c3-4,4.51-7.85,3.49-8.72l-.07-.06c-1.13-.72-4.4,1.86-7.36,5.84s-4.53,7.91-3.47,8.74l0,0C1535.22,51.42,1538.52,48.82,1541.5,44.81Z" fill="#f0f0f0"/>
              <polygon points="1543.21 57.4 1543.21 57.4 1543.21 57.4 1543.21 57.4" fill="#f0f0f0"/>
              <path d="M1587.94,50.12c-1-.79-10.36-8.22-20.43-6.75s-10.74,1.49-11.94.59l-.06,0-1.45-1.08-1.46-1.08L1545,36.09l0,0,0,0c-1.13-.72-4.4,1.86-7.36,5.84s-4.53,7.91-3.47,8.74h0l7.64,5.69,1.45,1.08h0l1.45,1.08.06.05c1.82,1.35,1.44,1.94,2.85,11.61,1.44,9.83,11.06,16.71,12.31,17.64s3,2,3,2l23.39,17.42s1.51,1.32,2.19,1.83l56.84,42.34c5.42,4,15.32-5.66,21.17-13.51s12.31-20.11,6.88-24.15L1616.5,71.4c-.68-.51-2.38-1.57-2.38-1.57l-23.39-17.42S1589.19,51.05,1587.94,50.12Z" fill="#f8f8f8" opacity="0.95"/>
              <path d="M1552.32,41.55l1.45,1.08h0c.86.64-.87,4.42-3.86,8.44s-6.12,6.76-7,6.12h0l-1.45-1.08c-.43,1.42-.42,2.46.12,2.87s1.54.11,2.79-.71a28.69,28.69,0,0,0,6.4-6.55,28.47,28.47,0,0,0,4.44-8c.43-1.42.43-2.46-.12-2.87S1553.56,40.73,1552.32,41.55Z" fill="#fff"/>
              <ellipse cx="1660.37" cy="133.31" rx="19.15" ry="5.65" transform="translate(561.6 1385.23) rotate(-53.32)" fill="#231815" opacity="0.08" style="mix-blend-mode: multiply"/>
              <ellipse cx="1660.37" cy="133.31" rx="5.98" ry="1.77" transform="translate(561.6 1385.23) rotate(-53.32)" fill="#231815" opacity="0.05" style="mix-blend-mode: multiply"/>
              <g>
                <path d="M1614.63,70.51a4.76,4.76,0,0,1,.16,2.54,11.12,11.12,0,0,1,1.57.85l53.5,39.85c5.08,3.78-.76,15-6.09,22.14s-14.39,16-19.46,12.17l-53.51-39.85a10.81,10.81,0,0,1-1.26-1.27,4.61,4.61,0,0,1-2.48.58l-.13,0a12.07,12.07,0,0,0,1.52,1.57l56.84,42.34c5.42,4,15.32-5.66,21.17-13.51s12.31-20.11,6.88-24.15L1616.5,71.4a11.66,11.66,0,0,0-1.94-1Z" fill="#f0f0f0"/>
                <path d="M1567.51,43.37c-10.06,1.47-10.74,1.49-11.94.59l-.06,0-1.45-1.08-1.46-1.08L1545,36.09l0,0,0,0c-1.13-.72-4.4,1.86-7.36,5.84s-4.53,7.91-3.47,8.74h0l7.64,5.69,1.45,1.08h0l1.45,1.08.06.05c1.82,1.35,1.44,1.94,2.85,11.61,1.44,9.83,11.06,16.71,12.31,17.64.75.56,2.37,1.63,3,2,.86.63,2.36.1,3-.21a55.16,55.16,0,0,1-9.9-9.76c-2.19-2.84-4.25-6.51-4.64-8.78-1.25-7.26-.49-8.4,0-9.35.55-1.17,2.14-2.37,4.86-6s3.41-5.42,4.34-6.33,1.74-1.68,9-2.69c2.51-.35,6.6.33,10.17,1.86a64.36,64.36,0,0,1,11.77,6.76c.21-1.55-.15-2.5-.66-2.88s-2-1.73-2.79-2.29C1586.89,49.33,1577.58,41.9,1567.51,43.37Z" fill="#f0f0f0"/>
              </g>
              <path d="M1541.5,44.81c3-4,4.51-7.85,3.49-8.72l-.07-.06c-1.13-.72-4.4,1.86-7.36,5.84s-4.53,7.91-3.47,8.74l0,0C1535.22,51.42,1538.52,48.82,1541.5,44.81Z" fill="#fff"/>
              <path d="M1540.52,44.08c2.13-2.86,3.43-5.51,2.93-6l0,0c-.57-.34-2.74,1.66-4.87,4.52s-3.45,5.56-2.92,6h0C1536.19,49,1538.37,47,1540.52,44.08Z" fill="#231815" opacity="0.1" style="mix-blend-mode: multiply"/>
              <path d="M1581.3,74.46c-7.69,10.31-15.8,17.27-18.5,15.29l23.4,17.43,0,0a1.82,1.82,0,0,0,.84.32c3.33.43,10.65-6.22,17.66-15.62s11.28-18.32,9.91-21.39a1.84,1.84,0,0,0-.56-.72l-23.42-17.44C1593.34,54.35,1589,64.13,1581.3,74.46Z" fill="#f0f0f0"/>
              <path d="M1611.37,96.85c6.84-9.18,14.75-15.17,18.93-14.65a3,3,0,0,0-.91-1.2l-.09-.07c-3.53-2.52-12.61,3.78-20.33,14.14s-11.18,20.93-7.69,23.55l0,0a3.07,3.07,0,0,0,1.45.54C1601.05,115.33,1604.53,106,1611.37,96.85Z" fill="#f0f0f0" opacity="0.4"/>
              <path d="M1624.23,106.43c-7.74,10.4-11.18,20.93-7.69,23.56h0a3.08,3.08,0,0,0,1.45.55c-1.7-3.85,1.78-13.14,8.62-22.33s14.75-15.18,18.93-14.66a3.14,3.14,0,0,0-.91-1.2l-.09-.06C1641,89.77,1632,96.08,1624.23,106.43Z" fill="#f0f0f0" opacity="0.4"/>
              <path d="M1639.49,117.8c-7.74,10.39-11.18,20.93-7.69,23.55l0,0a3.08,3.08,0,0,0,1.45.55c-1.7-3.85,1.78-13.15,8.62-22.33s14.75-15.18,18.93-14.66a3.07,3.07,0,0,0-.91-1.2l-.09-.06C1656.29,101.14,1647.21,107.44,1639.49,117.8Z" fill="#f0f0f0" opacity="0.4"/>
              <path d="M1593.91,104.05a18,18,0,0,0,2,2.12l56.84,42.33a4.64,4.64,0,0,0,2.53.93,47.26,47.26,0,0,0,7.4-6.88,5,5,0,0,1-3.47-.93l-56.85-42.34a17,17,0,0,1-1.9-2,59.35,59.35,0,0,1-6.65,6.7Z" opacity="0.7" fill="url(#未命名漸層_42)"/>
              <path d="M1621.8,104.62c7.72-10.36,11.16-20.86,7.73-23.52l-.09-.07a3,3,0,0,0-1.41-.52c1.69,3.85-1.79,13.14-8.63,22.32s-14.75,15.18-18.92,14.66a2.92,2.92,0,0,0,.94,1.23l0,0C1605,121.33,1614.06,115,1621.8,104.62Z" fill="#f0f0f0"/>
              <path d="M1634.66,114.2c-6.84,9.19-14.75,15.18-18.92,14.66a3,3,0,0,0,.94,1.23h0c3.51,2.59,12.62-3.72,20.36-14.11s11.16-20.86,7.73-23.53l-.09-.06a3.05,3.05,0,0,0-1.41-.53C1645,95.72,1641.5,105,1634.66,114.2Z" fill="#f0f0f0"/>
              <path d="M1649.92,125.57c-6.84,9.18-14.75,15.18-18.92,14.66a3,3,0,0,0,.94,1.22l0,0c3.51,2.59,12.62-3.72,20.36-14.11s11.16-20.86,7.73-23.53l-.09-.06a3.05,3.05,0,0,0-1.41-.53C1660.24,107.09,1656.76,116.39,1649.92,125.57Z" fill="#f0f0f0"/>
              <path d="M1550.33,58a15.42,15.42,0,0,1-2,1.6" fill="none" stroke="#231815" stroke-linecap="round" stroke-miterlimit="10" stroke-width="1.3"/>
              <path d="M1557.7,47.11a24.85,24.85,0,0,1-3.81,6.88c-.55.74-1.12,1.44-1.68,2.08" fill="none" stroke="#231815" stroke-linecap="round" stroke-miterlimit="10" stroke-width="1.3"/>
              <path d="M1541.5,44.81c3-4,4.51-7.85,3.49-8.72l-.07-.06c-1.13-.72-4.4,1.86-7.36,5.84s-4.53,7.91-3.47,8.74l0,0" fill="none" stroke="#231815" stroke-linecap="round" stroke-linejoin="round" stroke-width="1.3"/>
              <polygon points="1543.21 57.4 1543.21 57.4 1543.21 57.4 1543.21 57.4" fill="none"/>
              <path d="M1648.93,148.66c-2.5-1.86.59-10.25,6.91-18.73s13.47-13.85,16-12" fill="none" stroke="#231815" stroke-linecap="round" stroke-linejoin="round" stroke-width="1.3"/>
              <path d="M1540.52,44.08c2.13-2.86,3.43-5.51,2.93-6l0,0c-.57-.34-2.74,1.66-4.87,4.52s-3.45,5.56-2.92,6h0C1536.19,49,1538.37,47,1540.52,44.08Z" fill="none" stroke="#231815" stroke-miterlimit="10" stroke-width="1.3"/>
              <path d="M1629.48,81.06l0,0a3,3,0,0,0-1.41-.52,3.07,3.07,0,0,0-.91-1.2l0,0,0,0L1616.5,71.4c-.68-.51-2.38-1.57-2.38-1.57l-23.39-17.42s-1.54-1.36-2.79-2.29c-1-.79-10.36-8.22-20.43-6.75s-10.74,1.49-11.94.59l-.06,0-1.45-1.08-1.46-1.08L1545,36.09l0,0,0,0c-1.13-.72-4.4,1.86-7.36,5.84s-4.53,7.91-3.47,8.74h0l7.64,5.69,1.45,1.08h0l1.45,1.08.06.05c1.82,1.35,1.44,1.94,2.85,11.61,1.44,9.83,11.06,16.71,12.31,17.64s3,2,3,2l23.39,17.42s1.51,1.32,2.19,1.83l10.57,7.87h0a2.89,2.89,0,0,0,1.44.54,2.92,2.92,0,0,0,.94,1.23h0l12.84,9.56h0a2.9,2.9,0,0,0,1.44.55,3,3,0,0,0,.94,1.23h0l12.83,9.57h0a3,3,0,0,0,1.44.55,3,3,0,0,0,.94,1.22h0l13.33,9.93c5.42,4,15.32-5.66,21.17-13.51s12.31-20.11,6.88-24.15l-13.29-9.91,0,0,0,0a3.05,3.05,0,0,0-1.41-.53,3.07,3.07,0,0,0-.91-1.2l0,0,0,0-12.77-9.52,0,0,0,0a3.05,3.05,0,0,0-1.41-.53,3,3,0,0,0-.91-1.19l0,0,0,0-12.77-9.51Z" fill="none" stroke="#231815" stroke-linecap="round" stroke-linejoin="round" stroke-width="1.3"/>
              <path d="M1544.51,47.05c-2.51,3.36-5.28,5.93-7.07,6.55a.72.72,0,0,1-.9-.44.71.71,0,0,1,.44-.9c1.22-.42,3.74-2.49,6.39-6.06s3.9-6.49,4-7.83a.71.71,0,0,1,.75-.67.71.71,0,0,1,.67.74C1548.66,40.34,1547,43.71,1544.51,47.05Z" fill="#f0f0f0"/>
              <path d="M1547.12,49c-2.5,3.36-5.28,5.93-7.06,6.54a.7.7,0,1,1-.46-1.33c1.22-.42,3.74-2.5,6.39-6.06s3.9-6.49,4-7.83a.71.71,0,0,1,1.41.07C1551.27,42.28,1549.61,45.66,1547.12,49Z" fill="#f0f0f0"/>
              <path d="M1552.32,41.55l1.45,1.08h0c.86.64-.87,4.42-3.86,8.44s-6.12,6.76-7,6.12h0l-1.45-1.08c-.43,1.42-.42,2.46.12,2.87s1.54.11,2.79-.71a28.69,28.69,0,0,0,6.4-6.55,28.47,28.47,0,0,0,4.44-8c.43-1.42.43-2.46-.12-2.87S1553.56,40.73,1552.32,41.55Z" fill="#fff"/>
              <path d="M1544.51,47.05c-2.51,3.36-5.28,5.93-7.07,6.55a.72.72,0,0,1-.9-.44.71.71,0,0,1,.44-.9c1.22-.42,3.74-2.49,6.39-6.06s3.9-6.49,4-7.83a.71.71,0,0,1,.75-.67.71.71,0,0,1,.67.74C1548.66,40.34,1547,43.71,1544.51,47.05Z" fill="none" stroke="#231815" stroke-miterlimit="10" stroke-width="1.3"/>
              <path d="M1547.12,49c-2.5,3.36-5.28,5.93-7.06,6.54a.7.7,0,1,1-.46-1.33c1.22-.42,3.74-2.5,6.39-6.06s3.9-6.49,4-7.83a.71.71,0,0,1,1.41.07C1551.27,42.28,1549.61,45.66,1547.12,49Z" fill="none" stroke="#231815" stroke-miterlimit="10" stroke-width="1.3"/>
              <path d="M1546.42,55.13a13.66,13.66,0,0,1-2,1.64c-.71.47-1.25.64-1.54.42h0l-1.45-1.08c-.43,1.42-.42,2.46.12,2.87s1.54.11,2.79-.71a28.69,28.69,0,0,0,6.4-6.55,28.47,28.47,0,0,0,4.44-8c.43-1.42.43-2.46-.12-2.87s-1.54-.11-2.78.71l1.45,1.08c.86.64-.87,4.42-3.86,8.44" fill="none" stroke="#231815" stroke-linecap="round" stroke-miterlimit="10" stroke-width="1.3"/>
              <path d="M1577,79.78a58.6,58.6,0,0,1-6.72,6.75l.22.1L1593.79,104a59.35,59.35,0,0,0,6.65-6.7l-.07-.09Z" opacity="0.5" fill="url(#未命名漸層_9)" style="mix-blend-mode: color-dodge"/>
              <path d="M1559.65,63.62c-2.25-3.48-6.05-6-4.64,3.63.92,6.3,5.21,11.38,8.49,14.47a41.48,41.48,0,0,0,3.82,3.16,16.68,16.68,0,0,0,3,1.65,58.6,58.6,0,0,0,6.72-6.75l0,0a18.42,18.42,0,0,1-3.21-1.75,60.59,60.59,0,0,1-5.88-4.75A50.14,50.14,0,0,1,1559.65,63.62Z" opacity="0.7" fill="url(#未命名漸層_42-2)"/>
            </g>
            <g>
              <path d="M1581.3,74.46c-7.69,10.31-15.8,17.27-18.5,15.29l23.4,17.43,0,0a1.82,1.82,0,0,0,.84.32c3.33.43,10.65-6.22,17.66-15.62s11.28-18.32,9.91-21.39a1.84,1.84,0,0,0-.56-.72l-23.42-17.44C1593.34,54.35,1589,64.13,1581.3,74.46Z" fill="#fed259"/>
              <g>
                <path d="M1581.3,74.46c-7.69,10.31-15.8,17.27-18.5,15.29l23.4,17.43,0,0a1.82,1.82,0,0,0,.84.32c3.33.43,10.65-6.22,17.66-15.62s11.28-18.32,9.91-21.39a1.84,1.84,0,0,0-.56-.72l-23.42-17.44C1593.34,54.35,1589,64.13,1581.3,74.46Z" fill="none" stroke="#231815" stroke-miterlimit="10" stroke-width="1.3"/>
                <path d="M1562.63,89.6l.15.14h0c2.7,2,10.81-5,18.5-15.29s12-20.11,9.35-22.11a.87.87,0,0,0-.18-.11" fill="none" stroke="#231815" stroke-miterlimit="10" stroke-width="1.3"/>
              </g>
              <path d="M1577,79.78a58.6,58.6,0,0,1-6.72,6.75l.22.1L1593.79,104a59.35,59.35,0,0,0,6.65-6.7l-.07-.09Z" opacity="0.3" fill="url(#未命名漸層_9)" style="mix-blend-mode: color-dodge"/>
            </g>
            <g>
              <g>
                <path d="M1542,45.1c-3.5,4.7-7.38,7.72-8.68,6.76l6.66,5c1.29,1,5.17-2.06,8.67-6.75s5.28-9.28,4-10.25l-6.65-5C1547.25,35.82,1545.46,40.41,1542,45.1Z" fill="#fed259"/>
                <ellipse cx="1539.62" cy="43.36" rx="10.6" ry="2.92" transform="translate(585.12 1252.18) rotate(-53.32)" fill="#d0953e"/>
              </g>
              <g>
                <g>
                  <path d="M1542,45.1c-3.5,4.7-7.38,7.72-8.68,6.76l6.66,5c1.29,1,5.17-2.06,8.67-6.75s5.28-9.28,4-10.25l-6.65-5C1547.25,35.82,1545.46,40.41,1542,45.1Z" fill="none" stroke="#231815" stroke-miterlimit="10" stroke-width="1.3"/>
                  <ellipse cx="1539.62" cy="43.36" rx="10.6" ry="2.92" transform="translate(585.12 1252.18) rotate(-53.32)" fill="none" stroke="#231815" stroke-miterlimit="10" stroke-width="1.3"/>
                </g>
                <line x1="1547.35" y1="37.76" x2="1551.71" y2="41.01" fill="none" stroke="#231815" stroke-linecap="round" stroke-linejoin="round" stroke-width="1.3"/>
                <line x1="1546.92" y1="39.23" x2="1551.28" y2="42.48" fill="none" stroke="#231815" stroke-linecap="round" stroke-linejoin="round" stroke-width="1.3"/>
                <line x1="1546.41" y1="40.64" x2="1550.77" y2="43.89" fill="none" stroke="#231815" stroke-linecap="round" stroke-linejoin="round" stroke-width="1.3"/>
              </g>
            </g>
          </g>
          <g>
            <path d="M1586.45,105.05c-3.17-.82-9.43,7.72-14.15,19.41s-6.15,22.17-3.3,23.79a.76.76,0,0,0,.18.09h0L1595.61,159c-2.29-2.38-.75-12.45,3.77-23.63s10.4-19.49,13.7-19.61l-26.42-10.67Z" fill="#d0953e"/>
            <path d="M1586.45,105.05c-3.17-.82-9.43,7.72-14.15,19.41s-6.15,22.17-3.3,23.79a.76.76,0,0,0,.18.09h0L1595.61,159c-2.29-2.38-.75-12.45,3.77-23.63s10.4-19.49,13.7-19.61l-26.42-10.67Z" fill="none" stroke="#231815" stroke-linecap="round" stroke-linejoin="round" stroke-width="1.3"/>
            <g>
              <ellipse cx="1675.93" cy="166.28" rx="21.01" ry="6.2" transform="translate(893.97 1657.9) rotate(-68)" fill="#f0f0f0"/>
              <path d="M1537.2,110.27c1.86-4.59,2.37-8.73,1.17-9.32l-.09,0c-1.28-.42-3.78,2.91-5.64,7.51s-2.38,8.81-1.13,9.34h0C1532.8,118.26,1535.33,114.91,1537.2,110.27Z" fill="#f0f0f0"/>
              <polygon points="1542.05 122.02 1542.04 122.02 1542.04 122.02 1542.05 122.02" fill="#f0f0f0"/>
              <path d="M1583.46,103.64c-1.21-.49-12.1-5.33-21.46-1.35s-10,4.17-11.41,3.6l-.07,0-1.67-.67-1.68-.68-8.8-3.56,0,0h0c-1.28-.42-3.78,2.91-5.64,7.51s-2.38,8.81-1.13,9.34h0l8.83,3.57,1.68.67h0l1.68.68.07,0c2.11.85,1.88,1.52,5.7,10.51,3.88,9.15,14.94,13.36,16.38,13.94s3.41,1.2,3.41,1.2l27,10.93s1.79.9,2.58,1.22l65.72,26.55c6.27,2.53,13.38-9.37,17.05-18.44s6.81-22.58.54-25.11L1616.49,117c-.79-.32-2.7-.91-2.7-.91l-27-10.93S1584.91,104.22,1583.46,103.64Z" fill="#f8f8f8" opacity="0.95"/>
              <path d="M1546.84,104.37l1.68.68h0c1,.41.28,4.5-1.6,9.15s-4.21,8.09-5.2,7.69h0l-1.67-.68c-.06,1.49.21,2.49.84,2.75s1.52-.28,2.51-1.39a28.55,28.55,0,0,0,4.54-8,28.69,28.69,0,0,0,2.27-8.88c0-1.49-.22-2.49-.85-2.74S1547.83,103.27,1546.84,104.37Z" fill="#fff"/>
              <ellipse cx="1674.62" cy="165.75" rx="19.15" ry="5.65" transform="translate(893.64 1656.36) rotate(-68)" fill="#231815" opacity="0.08" style="mix-blend-mode: multiply"/>
              <ellipse cx="1674.62" cy="165.75" rx="5.98" ry="1.77" transform="translate(893.64 1656.36) rotate(-68)" fill="#231815" opacity="0.05" style="mix-blend-mode: multiply"/>
              <g>
                <path d="M1614.45,116.6a4.63,4.63,0,0,1,.8,2.42,11.13,11.13,0,0,1,1.74.42l61.86,25c5.87,2.37,3.05,14.69-.29,23s-9.87,19.08-15.74,16.71l-61.86-25a10.57,10.57,0,0,1-1.54-.9,4.71,4.71,0,0,1-2.25,1.19H1597a13.49,13.49,0,0,0,1.87,1.13l65.72,26.55c6.27,2.53,13.38-9.37,17.05-18.44s6.81-22.58.54-25.11L1616.49,117a12.46,12.46,0,0,0-2.13-.48Z" fill="#f0f0f0"/>
                <path d="M1562,102.29c-9.36,4-10,4.17-11.41,3.6l-.07,0-1.67-.67-1.68-.68-8.8-3.56,0,0h0c-1.28-.42-3.78,2.91-5.64,7.51s-2.38,8.81-1.13,9.34h0l8.83,3.57,1.68.67h0l1.68.68.07,0c2.11.85,1.88,1.52,5.7,10.51,3.88,9.15,14.94,13.36,16.38,13.94.87.35,2.7,1,3.41,1.2,1,.4,2.31-.49,2.81-.94a56,56,0,0,1-12-6.93c-2.84-2.2-5.77-5.23-6.72-7.32-3-6.71-2.59-8-2.4-9,.23-1.27,1.46-2.83,3.17-7.06s1.93-6.11,2.59-7.21,1.26-2.08,8-4.89a21.59,21.59,0,0,1,10.31-.78,65.29,65.29,0,0,1,13.1,3.55c-.19-1.54-.78-2.38-1.37-2.62s-2.41-1.15-3.29-1.5C1582.25,103.15,1571.36,98.31,1562,102.29Z" fill="#f0f0f0"/>
              </g>
              <path d="M1537.2,110.27c1.86-4.59,2.37-8.73,1.17-9.32l-.09,0c-1.28-.42-3.78,2.91-5.64,7.51s-2.38,8.81-1.13,9.34h0C1532.8,118.26,1535.33,114.91,1537.2,110.27Z" fill="#fff"/>
              <path d="M1536.07,109.82c1.34-3.31,1.92-6.2,1.32-6.52l0,0c-.65-.19-2.24,2.3-3.57,5.61s-1.94,6.25-1.31,6.52h0C1533.12,115.65,1534.72,113.15,1536.07,109.82Z" fill="#231815" opacity="0.1" style="mix-blend-mode: multiply"/>
              <path d="M1583.21,128.86c-4.81,11.93-10.9,20.72-14,19.49l27,10.93h0a1.81,1.81,0,0,0,.9.1c3.33-.43,8.72-8.71,13.12-19.59s6.27-20.58,4.16-23.2a1.86,1.86,0,0,0-.72-.56l-27.07-10.93C1589.76,106.36,1588,116.92,1583.21,128.86Z" fill="#f0f0f0"/>
              <path d="M1618,142.91c4.29-10.62,10.43-18.42,14.59-19a3,3,0,0,0-1.18-.93l-.1,0c-4.06-1.55-11.24,6.85-16.08,18.83s-5.51,23.08-1.47,24.73h0a2.94,2.94,0,0,0,1.54.16C1612.69,163.4,1613.69,153.53,1618,142.91Z" fill="#f0f0f0" opacity="0.4"/>
              <path d="M1632.85,148.92c-4.85,12-5.51,23.08-1.47,24.73h0a3,3,0,0,0,1.54.16c-2.61-3.29-1.6-13.17,2.69-23.78s10.42-18.42,14.59-19a3.07,3.07,0,0,0-1.18-.93l-.1,0C1644.87,128.54,1637.69,136.94,1632.85,148.92Z" fill="#f0f0f0" opacity="0.4"/>
              <path d="M1650.49,156c-4.85,12-5.51,23.08-1.47,24.74h0a3,3,0,0,0,1.53.16c-2.61-3.29-1.6-13.17,2.69-23.79s10.42-18.42,14.59-19a3.07,3.07,0,0,0-1.18-.93l-.1,0C1662.52,135.67,1655.33,144.07,1650.49,156Z" fill="#f0f0f0" opacity="0.4"/>
              <path d="M1602.92,154.29a17.6,17.6,0,0,0,2.45,1.55l65.71,26.55a4.84,4.84,0,0,0,2.68.26,47.38,47.38,0,0,0,5.42-8.54,4.89,4.89,0,0,1-3.59,0l-65.73-26.55a16.5,16.5,0,0,1-2.36-1.48,58.58,58.58,0,0,1-4.73,8.17Z" opacity="0.7" fill="url(#未命名漸層_42-3)"/>
              <path d="M1630,147.78c4.84-12,5.51-23,1.51-24.72l-.1,0a3.11,3.11,0,0,0-1.5-.15c2.61,3.3,1.6,13.17-2.68,23.79s-10.43,18.42-14.59,19a3,3,0,0,0,1.21.94h0C1618,168.21,1625.19,159.79,1630,147.78Z" fill="#f0f0f0"/>
              <path d="M1644.91,153.79c-4.29,10.61-10.42,18.42-14.59,19a2.93,2.93,0,0,0,1.22,1h0c4.06,1.62,11.27-6.8,16.12-18.81s5.51-23,1.51-24.72l-.1,0a3.09,3.09,0,0,0-1.49-.15C1650.21,133.3,1649.2,143.17,1644.91,153.79Z" fill="#f0f0f0"/>
              <path d="M1662.55,160.91c-4.29,10.62-10.42,18.43-14.59,19a3.08,3.08,0,0,0,1.22,1h0c4.06,1.62,11.27-6.8,16.13-18.81s5.5-23,1.5-24.72l-.1,0a3,3,0,0,0-1.49-.15C1667.85,140.42,1666.84,150.3,1662.55,160.91Z" fill="#f0f0f0"/>
              <path d="M1549.1,120.83a15,15,0,0,1-1.5,2" fill="none" stroke="#231815" stroke-linecap="round" stroke-miterlimit="10" stroke-width="1.3"/>
              <path d="M1553.46,108.39a25,25,0,0,1-2,7.62c-.35.86-.71,1.68-1.09,2.44" fill="none" stroke="#231815" stroke-linecap="round" stroke-miterlimit="10" stroke-width="1.3"/>
              <path d="M1537.2,110.27c1.86-4.59,2.37-8.73,1.17-9.32l-.09,0c-1.28-.42-3.78,2.91-5.64,7.51s-2.38,8.81-1.13,9.34h0" fill="none" stroke="#231815" stroke-linecap="round" stroke-linejoin="round" stroke-width="1.3"/>
              <polygon points="1542.05 122.02 1542.04 122.02 1542.04 122.02 1542.05 122.02" fill="none"/>
              <path d="M1667.45,183.51c-2.89-1.17-2-10.07,1.93-19.88s9.52-16.81,12.42-15.64" fill="none" stroke="#231815" stroke-linecap="round" stroke-linejoin="round" stroke-width="1.3"/>
              <path d="M1536.07,109.82c1.34-3.31,1.92-6.2,1.32-6.52l0,0c-.65-.19-2.24,2.3-3.57,5.61s-1.94,6.25-1.31,6.52h0C1533.12,115.65,1534.72,113.15,1536.07,109.82Z" fill="none" stroke="#231815" stroke-miterlimit="10" stroke-width="1.3"/>
              <path d="M1631.5,123l0,0a3.11,3.11,0,0,0-1.5-.15,3,3,0,0,0-1.18-.93l0,0,0,0L1616.49,117c-.79-.32-2.7-.91-2.7-.91l-27-10.93s-1.84-.92-3.29-1.5c-1.21-.49-12.1-5.33-21.46-1.35s-10,4.17-11.41,3.6l-.07,0-1.67-.67-1.68-.68-8.8-3.56,0,0h0c-1.28-.42-3.78,2.91-5.64,7.51s-2.38,8.81-1.13,9.34h0l8.83,3.57,1.68.67h0l1.68.68.07,0c2.11.85,1.88,1.52,5.7,10.51,3.88,9.15,14.94,13.36,16.38,13.94s3.41,1.2,3.41,1.2l27,10.93s1.79.9,2.58,1.22l12.22,4.93h0a3,3,0,0,0,1.54.17,3,3,0,0,0,1.21.94h0l14.84,6h0a2.81,2.81,0,0,1,2.76,1.11h0l14.84,6h0a3,3,0,0,0,1.53.16,3.08,3.08,0,0,0,1.22,1h0l15.42,6.23c6.27,2.53,13.38-9.37,17.05-18.44s6.81-22.58.54-25.11l-15.38-6.21,0,0-.06,0a3,3,0,0,0-1.49-.15,3.07,3.07,0,0,0-1.18-.93l0,0h0l-14.77-6,0,0-.05,0a2.68,2.68,0,0,1-2.67-1.08l-.05,0-.06,0-14.76-6Z" fill="none" stroke="#231815" stroke-linecap="round" stroke-linejoin="round" stroke-width="1.3"/>
              <path d="M1540.68,111.68c-1.57,3.88-3.61,7.07-5.18,8.12a.71.71,0,0,1-1-.19.7.7,0,0,1,.2-1c1.07-.72,3-3.36,4.65-7.48s2.12-7.27,1.85-8.59a.71.71,0,0,1,1.38-.29C1543,104.13,1542.23,107.82,1540.68,111.68Z" fill="#f0f0f0"/>
              <path d="M1543.7,112.9c-1.57,3.89-3.6,7.08-5.18,8.12a.71.71,0,0,1-1-.19.72.72,0,0,1,.2-1c1.07-.72,3-3.36,4.65-7.48s2.13-7.27,1.85-8.59a.71.71,0,0,1,1.39-.28C1546,105.35,1545.26,109.05,1543.7,112.9Z" fill="#f0f0f0"/>
              <path d="M1546.84,104.37l1.68.68h0c1,.41.28,4.5-1.6,9.15s-4.21,8.09-5.2,7.69h0l-1.67-.68c-.06,1.49.21,2.49.84,2.75s1.52-.28,2.51-1.39a28.55,28.55,0,0,0,4.54-8,28.69,28.69,0,0,0,2.27-8.88c0-1.49-.22-2.49-.85-2.74S1547.83,103.27,1546.84,104.37Z" fill="#fff"/>
              <path d="M1540.68,111.68c-1.57,3.88-3.61,7.07-5.18,8.12a.71.71,0,0,1-1-.19.7.7,0,0,1,.2-1c1.07-.72,3-3.36,4.65-7.48s2.12-7.27,1.85-8.59a.71.71,0,0,1,1.38-.29C1543,104.13,1542.23,107.82,1540.68,111.68Z" fill="none" stroke="#231815" stroke-miterlimit="10" stroke-width="1.3"/>
              <path d="M1543.7,112.9c-1.57,3.89-3.6,7.08-5.18,8.12a.71.71,0,0,1-1-.19.72.72,0,0,1,.2-1c1.07-.72,3-3.36,4.65-7.48s2.13-7.27,1.85-8.59a.71.71,0,0,1,1.39-.28C1546,105.35,1545.26,109.05,1543.7,112.9Z" fill="none" stroke="#231815" stroke-miterlimit="10" stroke-width="1.3"/>
              <path d="M1544.57,119a14.12,14.12,0,0,1-1.46,2.07c-.57.63-1.06.94-1.39.8h0l-1.68-.68c-.06,1.49.21,2.49.84,2.75s1.52-.28,2.51-1.39a28.55,28.55,0,0,0,4.54-8,28.69,28.69,0,0,0,2.27-8.88c0-1.49-.22-2.49-.85-2.74s-1.52.28-2.51,1.38l1.68.68c1,.41.28,4.5-1.6,9.15" fill="none" stroke="#231815" stroke-linecap="round" stroke-miterlimit="10" stroke-width="1.3"/>
              <path d="M1580.44,135.1a59.74,59.74,0,0,1-4.8,8.23l.24,0,26.89,10.86a58.58,58.58,0,0,0,4.73-8.17l-.09-.07Z" opacity="0.5" fill="url(#未命名漸層_9-3)" style="mix-blend-mode: color-dodge"/>
              <path d="M1559.52,123.87c-3.06-2.8-7.38-4.31-3.56,4.69,2.49,5.86,7.92,9.69,11.88,11.84a40.07,40.07,0,0,0,4.5,2.1,17.07,17.07,0,0,0,3.3.83,59.74,59.74,0,0,0,4.8-8.23l-.07,0a18.21,18.21,0,0,1-3.54-.87,64.15,64.15,0,0,1-6.89-3.11A50.19,50.19,0,0,1,1559.52,123.87Z" opacity="0.7" fill="url(#未命名漸層_42-4)"/>
            </g>
            <g>
              <path d="M1583.21,128.86c-4.81,11.93-10.9,20.72-14,19.49l27,10.93h0a1.81,1.81,0,0,0,.9.1c3.33-.43,8.72-8.71,13.12-19.59s6.27-20.58,4.16-23.2a1.86,1.86,0,0,0-.72-.56l-27.07-10.93C1589.76,106.36,1588,116.92,1583.21,128.86Z" fill="#fed259"/>
              <g>
                <path d="M1583.21,128.86c-4.81,11.93-10.9,20.72-14,19.49l27,10.93h0a1.81,1.81,0,0,0,.9.1c3.33-.43,8.72-8.71,13.12-19.59s6.27-20.58,4.16-23.2a1.86,1.86,0,0,0-.72-.56l-27.07-10.93C1589.76,106.36,1588,116.92,1583.21,128.86Z" fill="none" stroke="#231815" stroke-miterlimit="10" stroke-width="1.3"/>
                <path d="M1569,148.25a.76.76,0,0,0,.18.09h0c3.11,1.23,9.2-7.56,14-19.49s6.55-22.5,3.45-23.75l-.21-.06" fill="none" stroke="#231815" stroke-miterlimit="10" stroke-width="1.3"/>
              </g>
              <path d="M1580.44,135.1a59.74,59.74,0,0,1-4.8,8.23l.24,0,26.89,10.86a58.58,58.58,0,0,0,4.73-8.17l-.09-.07Z" opacity="0.3" fill="url(#未命名漸層_9-3)" style="mix-blend-mode: color-dodge"/>
            </g>
            <g>
              <g>
                <path d="M1537.72,110.44c-2.19,5.43-5.18,9.34-6.67,8.73l7.69,3.11c1.49.61,4.48-3.3,6.68-8.73s2.75-10.32,1.26-10.92L1539,99.52C1540.48,100.12,1539.92,105,1537.72,110.44Z" fill="#fed259"/>
                <ellipse cx="1535.02" cy="109.35" rx="10.6" ry="2.92" transform="translate(858.63 1491.64) rotate(-68)" fill="#d0953e"/>
              </g>
              <g>
                <g>
                  <path d="M1537.72,110.44c-2.19,5.43-5.18,9.34-6.67,8.73l7.69,3.11c1.49.61,4.48-3.3,6.68-8.73s2.75-10.32,1.26-10.92L1539,99.52C1540.48,100.12,1539.92,105,1537.72,110.44Z" fill="none" stroke="#231815" stroke-miterlimit="10" stroke-width="1.3"/>
                  <ellipse cx="1535.02" cy="109.35" rx="10.6" ry="2.92" transform="translate(858.63 1491.64) rotate(-68)" fill="none" stroke="#231815" stroke-miterlimit="10" stroke-width="1.3"/>
                </g>
                <line x1="1541.07" y1="101.98" x2="1546.12" y2="104.01" fill="none" stroke="#231815" stroke-linecap="round" stroke-linejoin="round" stroke-width="1.3"/>
                <line x1="1541.02" y1="103.5" x2="1546.07" y2="105.54" fill="none" stroke="#231815" stroke-linecap="round" stroke-linejoin="round" stroke-width="1.3"/>
                <line x1="1540.89" y1="105" x2="1545.93" y2="107.03" fill="none" stroke="#231815" stroke-linecap="round" stroke-linejoin="round" stroke-width="1.3"/>
              </g>
            </g>
          </g>
        </g>
        <path d="M325.54,49H43.93L11.75,231.46h.18L0,299.1H282l18.17-103h-.54Zm-88.84,161L72.42,208.89l20-108.42H256.27Z" fill="#fff"/>
        <polygon points="203.19 128.03 134.32 128.03 125.23 179.63 194.1 179.63 203.19 128.03" fill="#fff"/>
        <polygon points="1655.21 169.93 1677.87 40.92 1627.16 40.92 1605.72 168.87 1522.52 168.87 1506.39 262.42 1588.11 262.42 1580.15 307.55 1630.86 307.55 1638.82 262.42 1663.79 262.42 1678.38 169.93 1655.21 169.93" fill="#fff"/>
        <path d="M1338.36,106.78H1248.9l9.2-15.14H1341l8.63-48.93H1084.31l-8.63,48.93h75.22l-9.21,15.14H1073l-7.11,40.31h-.57L1044,268.33h.58l-6.48,36.72H1303.4l6.47-36.72h.59l21.38-121.24h-.59ZM1220.29,233.11l-70.56-1.05,5.66-39.46h70.09Zm9.47-66.34h-71.61l3.16-21.06h70.56Z" fill="#fff"/>
        <path d="M685.6,77.51H564.88c5.22-15.08,12.27-31,12.44-31.71L519,45.72A364.71,364.71,0,0,1,502.9,91.46q-3.61,8.34-7.13,15.14l10.64-60.32H451.17L433.06,149H413.3L431.59,45.21H376.34L358.05,149h-.51L339.37,252h75.52l-9.66,54.81,55.44-1.12,22.91-129.89,5.49,15.26q14.88-8.19,28.38-23.72a142.75,142.75,0,0,0,5.45,30.13,152.35,152.35,0,0,0,10.46,26.14c-19,13.66-43.79,28.37-60.83,36.35,7.76,23.68,13.45,33.51,19.86,48,27.37-12.81,51.07-25.94,72.14-41.69q23.28,23.63,57.58,42.9c11.32-18.39,23.08-35.61,33.22-53.11-18.83-10.56-33.4-21.52-44.67-32.34a237.53,237.53,0,0,0,19.75-26.21c15.53-24,23.21-46.67,25.56-61.06h19.24C676.62,139.18,686.64,80.44,685.6,77.51ZM593.2,171c-2,2.91-4.09,5.75-6.28,8.53-10.52-24.08-6.79-41.73-6.47-43.11a5.36,5.36,0,0,1-.17.64l-6.4-.66h41.45l-6.65.66C608.67,137.18,606.67,151.17,593.2,171Z" fill="#fff"/>
        <path d="M1496.66,192c-.13-15.09.85-29.67,1.64-38.9H1521l8.79-49.9h-43.89l4.26-24.12h20.33l6.6-37.42h-91.37l-6.6,37.42h20.33l-4.25,24.12h-43.18l-8.8,49.9h18.35c-2.79,9.07-7.32,22.86-13,37.13-17.06,42.93-27.94,49.15-28,49.2a4.83,4.83,0,0,1,1.57-.39l-3.2,37.27c25.15-2.17,43.07-29.21,55.52-55.24l-15,85.14h50.71L1461.81,240c4.07,18.87,12.56,35.06,30.33,38.19l13-36.86a2.66,2.66,0,0,1,.79.25C1503.47,240,1497,228.05,1496.66,192Z" fill="#fff"/>
        <path d="M1015.84,88.39H907.34c5.37-29.75,8.5-45,8.78-47.11l-69.78,1c-.09.71-4.08,21.06-8.65,46.1H733.16l-1,5.88h-.47l-13.41,76.06h.47l-2.93,16.58h75c-18.08,27.38-43.12,52.64-77.79,68.89,2.58,26.06,11.63,48.19,20.79,62.09,50.34-23.61,91.78-62.12,122.08-112.93,1.74,6.9,3.74,13.59,6,20,14.72,41.15,40.67,72.39,77.13,92.88,15.29-17.64,29.32-38.42,42.68-62.09-29.09-16.34-45.46-41.61-54.16-68.89h70.9Z" fill="#fff"/>
      </g>
    </g>
  </g>
</svg>
