<svg xmlns="http://www.w3.org/2000/svg" width="64" height="64" viewBox="0 0 64 64">
  <g id="圖層_6" data-name="圖層 6">
    <g>
      <g>
        <path d="M33.12,16.49c-1.2,0-3.07-.66-5.54-1.94l-.91-.49A23.82,23.82,0,0,1,17.31,5.8c-.4-.65-.73-1.22-.63-1.66.05-.2.2-.82.41-.89l.19,0a3.48,3.48,0,0,1,.72.12C24.7,5,30.48,8.83,33.48,13.71a4.12,4.12,0,0,1,.72,1.84c0,.38-.06.63-.2.73A1.57,1.57,0,0,1,33.12,16.49Z" fill="#63ad75"/>
        <path d="M17.8,3.92h0m-.12.38.09,0c6.44,1.55,12,5.25,14.85,9.91a4,4,0,0,1,.57,1.26h-.07c-.72,0-2.18-.32-5.08-1.83l-.78-.42-.12-.06a22.91,22.91,0,0,1-9-7.91,4.22,4.22,0,0,1-.49-.94v0m-.4-2.07a1.51,1.51,0,0,0-.48.07c-.73.22-1,1.07-1.09,1.61a3.34,3.34,0,0,0,.75,2.42,25.12,25.12,0,0,0,9.74,8.61c.24.14.55.3.91.49,1.61.84,4.17,2.06,6,2.06a2.47,2.47,0,0,0,1.47-.4,1.82,1.82,0,0,0,.61-1.56,4.83,4.83,0,0,0-.87-2.34C31.21,8.1,25.17,4,18.23,2.37a4.45,4.45,0,0,0-.95-.14Z"/>
      </g>
      <g>
        <path d="M31.62,18a1.28,1.28,0,0,1-.83-.24,1.6,1.6,0,0,1-.42-1.1,4.77,4.77,0,0,1,.46-2.22A20.72,20.72,0,0,1,44.19,2.49a2.29,2.29,0,0,1,.62-.13h.13c.13,0,.35.29.64,1.21a3.23,3.23,0,0,1-.36,2.1,21.23,21.23,0,0,1-7.83,9.51l-.81.56c-2.18,1.48-3.85,2.23-5,2.23Z" fill="#63ad75"/>
        <path d="M44.82,3.36h0m-.35.08c.05.12.1.27.16.45a2.87,2.87,0,0,1-.34,1.42,20.25,20.25,0,0,1-7.48,9.06l-.13.09-.66.46C33.39,16.71,32.13,17,31.62,17l-.17,0a1.89,1.89,0,0,1-.08-.42,4,4,0,0,1,.39-1.75A19.78,19.78,0,0,1,44.47,3.44m.34-2.08a3.12,3.12,0,0,0-.91.17,21.84,21.84,0,0,0-14,12.53,5.84,5.84,0,0,0-.51,2.69,2.55,2.55,0,0,0,.79,1.78,2.28,2.28,0,0,0,1.45.45c1.78,0,4.08-1.43,5.52-2.41L38,16a22.3,22.3,0,0,0,8.19-10,4.08,4.08,0,0,0,.38-2.78c-.2-.62-.53-1.59-1.27-1.84a1.37,1.37,0,0,0-.45-.07Z"/>
      </g>
      <g>
        <path d="M28.71,61.64a40.27,40.27,0,0,1-8-.78C16.6,60,11,58,7.92,52.92A21.54,21.54,0,0,1,5.5,34.19a29.43,29.43,0,0,1,16.19-17,28.92,28.92,0,0,1,10.24-1.8,28.69,28.69,0,0,1,19.89,7.51c8.15,7.68,10.43,22,4.68,29.4-3.37,4.35-8.81,6.17-13.7,7.39A58.39,58.39,0,0,1,28.71,61.64Z" fill="#63ad75"/>
        <path d="M31.93,16.43h0a28.17,28.17,0,0,1,19.21,7.23c7.67,7.24,9.93,21.14,4.57,28.07-3.18,4.1-8.43,5.85-13.15,7a57.41,57.41,0,0,1-13.85,1.88,39,39,0,0,1-7.8-.76c-3.92-.8-9.2-2.74-12.14-7.49C5.18,46.6,4.4,40.58,6.45,34.51a28.38,28.38,0,0,1,15.6-16.35,28.09,28.09,0,0,1,9.88-1.73m0-2a29.8,29.8,0,0,0-10.6,1.87C10.38,20.48-3.38,36.57,7.07,53.45c3.08,5,8.49,7.38,13.44,8.39a41.12,41.12,0,0,0,8.2.8A59.86,59.86,0,0,0,43,60.7c5.38-1.34,10.79-3.28,14.25-7.75,6-7.77,3.68-22.76-4.78-30.74a30,30,0,0,0-20.58-7.78Z"/>
      </g>
      <path d="M20.65,25.33a19.76,19.76,0,0,1,6.67-4.66" fill="#fff" stroke="#000" stroke-linecap="round" stroke-linejoin="round" stroke-width="2"/>
      <path d="M35,20.73a45,45,0,0,1,6.61,3.9" fill="#fff" stroke="#000" stroke-linecap="round" stroke-linejoin="round" stroke-width="2"/>
      <path d="M13.56,32.41c-.35,1.6-.7,3.2-1,4.8s-.71,3.46,0,5c.54,1.21,1.64,2.08,2.38,3.18,1.19,1.77,1.43,4.08,2.76,5.75a7.22,7.22,0,0,0,4.66,2.43,21.54,21.54,0,0,0,5.38-.1" fill="none"/>
      <path d="M9.21,39.05c-1.15,5.75,2.24,11.57,6.5,15.14C20.78,58.45,30,59.37,36.2,57.44a2.39,2.39,0,0,0,1.62-1.15c.52-1.23-1-2.3-2.25-2.76-4-1.46-8.26-2.5-11.93-4.71s-6.81-5.92-6.89-10.2c0-1.77,1-4.64-.24-6.08-1-1.14-3.12-1-4.24-.18C10.58,33.65,9.6,37.07,9.21,39.05Z" fill="#fff" opacity="0.21"/>
    </g>
  </g>
</svg>
