<svg xmlns="http://www.w3.org/2000/svg" viewBox="0 0 256 256">
    <g>
      <path d="M184.27,97.58c-2.07,0-3.94,0-5.81,0-.29,0-.72.52-.8.87a7.45,7.45,0,0,0,0,1.77q0,47.43,0,94.86c0,3-1.1,5.36-3.83,6.72a7.07,7.07,0,0,1-10.4-6.52V138.85c-2,0-3.89,0-5.75,0-.29,0-.7.52-.8.87a5.75,5.75,0,0,0-.05,1.61q0,26.13,0,52.27a15.55,15.55,0,0,1-.38,4.15,7.16,7.16,0,0,1-13.93-2.09c0-.91,0-1.82,0-2.74V98.19l-.33-.07q-2.81,4.18-5.6,8.39c-1.64,2.45-3.29,4.91-4.91,7.38a6.21,6.21,0,0,1-5.66,3c-6.78-.09-13.55,0-20.33,0a17.45,17.45,0,0,1-1.77-.06,4.65,4.65,0,1,1,.11-9.3c2.79-.13,5.59-.06,8.38-.07,3.44,0,6.89,0,10.33,0a2.27,2.27,0,0,0,2.22-1.18q5.83-9,11.78-17.92A15.76,15.76,0,0,1,150.21,81q12.82-.17,25.65,0c8.11.09,15.4,5.11,17.6,12a15.08,15.08,0,0,1,.71,4.42c.06,11.78,0,23.56,0,35.33a13.79,13.79,0,0,1-.21,2.57,4.66,4.66,0,0,1-5.13,3.9,4.72,4.72,0,0,1-4.53-4.43,21.06,21.06,0,0,1-.06-2.25V97.58Z" fill="#000"/>
      <path d="M120.85,141.29l-11.52,61.27H107c-10.86,0-21.72,0-32.58,0-1.48,0-2-.42-2.23-1.88q-5.33-29.18-10.77-58.32c0-.26,0-.53-.08-1,2.72,0,5.38,0,8,0,.25,0,.61.78.7,1.24q2.58,13.53,5.12,27.08,2.15,11.4,4.28,22.8c.08.47.22.93.35,1.44h22.28c.49-2.51,1-5,1.47-7.54q4.2-21.84,8.35-43.68c.22-1.16.63-1.51,1.77-1.46C116,141.35,118.31,141.29,120.85,141.29Z" fill="#000"/>
      <path d="M159.76,77.53c-7.07,0-12.79-5.48-12.69-12.11.09-6.79,5.8-12.13,12.92-12.08,6.84,0,12.56,5.58,12.55,12.15S166.79,77.55,159.76,77.53Z" fill="#000"/>
      <path d="M93.45,133.26l6.29,6.24-6.45,6.56L87,139.63Z" fill="#000"/>
      <path d="M87.26,130.25l-6.41-6.45,6.38-6.37,6.44,6.36Z" fill="#000"/>
      <path d="M86,152.29h9.09v9H86Z" fill="#000"/>
    </g>
</svg>
