<svg xmlns="http://www.w3.org/2000/svg" viewBox="0 0 200 200">
  <g>
    <path d="M100,69.25h0a48.5,48.5,0,0,1,48.5,48.5v0a24.5,24.5,0,0,1-24.5,24.5H76a24.5,24.5,0,0,1-24.5-24.5v0A48.5,48.5,0,0,1,100,69.25Z" fill="#f2f2f2" stroke="#4d4d4d" stroke-miterlimit="10" stroke-width="2.38"/>
    <path d="M85,59.13c-4.5-1.53-9.62-2-14-.21-3.1,1.27-5.43,3.87-4.06,7.46,1.31,3.42,5.41,5.28,8.55,6.32a37.7,37.7,0,0,0,15,1.44,40.76,40.76,0,0,0,6.41-.84c.77-.19,2.65-.31,3.23-.86C102,70.65,96.63,66,95.38,65a32,32,0,0,0-9-5.32C85.94,59.46,85.48,59.29,85,59.13Z" fill="#f2f2f2" stroke="#4d4d4d" stroke-miterlimit="10" stroke-width="2.47"/>
    <path d="M119,59.13c4.5-1.53,9.62-2,14.06-.21,3.1,1.27,5.43,3.87,4.06,7.46-1.31,3.42-5.41,5.28-8.55,6.32a37.7,37.7,0,0,1-15,1.44,40.61,40.61,0,0,1-6.41-.84c-.77-.19-2.65-.31-3.23-.86C102,70.65,107.36,66,108.61,65a32,32,0,0,1,9-5.32C118,59.46,118.51,59.29,119,59.13Z" fill="#f2f2f2" stroke="#4d4d4d" stroke-miterlimit="10" stroke-width="2.47"/>
    <path d="M94.25,72A4.54,4.54,0,0,0,96,74.53c2.42,1.72,6.58,1.6,9.07.12,1.81-1.07,3-3.52,2.21-5.53-1-2.49-4.23-3.49-6.56-3.71C97.24,65.08,93.24,68.3,94.25,72Z" fill="#f2f2f2" stroke="#4d4d4d" stroke-miterlimit="10" stroke-width="2.47"/>
    <path d="M111.7,68.82a64.4,64.4,0,0,1,14.93-4.92" fill="none" stroke="#4d4d4d" stroke-linecap="round" stroke-linejoin="round" stroke-width="2.47"/>
    <path d="M74.84,63.93a59.77,59.77,0,0,1,14.75,3.82" fill="none" stroke="#4d4d4d" stroke-linecap="round" stroke-linejoin="round" stroke-width="2.47"/>
    <path d="M91,81.16a34.59,34.59,0,0,0-9.1,9.5" fill="none" stroke="#4d4d4d" stroke-linecap="round" stroke-linejoin="round" stroke-width="2.47"/>
    <path d="M111.37,81.55A35,35,0,0,1,120.58,90" fill="none" stroke="#4d4d4d" stroke-linecap="round" stroke-linejoin="round" stroke-width="2.47"/>
    <g opacity="0.29">
      <path d="M82.35,138.18h0c-6.53-.11-13.36-.64-18.83-5.79A23.91,23.91,0,0,1,56,114.81c0-2.75.57-12.21,5.14-18.82A2.93,2.93,0,1,1,66,99.32c-2.89,4.18-4,10.8-4.11,15.6a18,18,0,0,0,5.65,13.21c3.94,3.71,9.3,4.1,14.91,4.19a2.93,2.93,0,0,1-.05,5.86Z" fill="#666"/>
    </g>
  </g>
</svg>
